<svg width="15" height="18" viewBox="0 0 15 18" fill="none" xmlns="http://www.w3.org/2000/svg">
<path d="M13.7414 16.1191C15.0383 14.4297 15.2834 11.9544 14.704 9.83272C14.1247 7.71105 12.8278 5.90371 11.3259 4.43033C9.55754 2.70245 7.50233 1.36823 5.27374 0.501319C4.41045 0.122827 3.48293 -0.0447364 2.55517 0.0101925C2.09017 0.0386109 1.63859 0.19227 1.24 0.457704C0.841406 0.723137 0.507978 1.09225 0.268911 1.53269C-0.368392 2.86855 0.242168 4.47945 0.906211 5.81531C2.06915 8.14974 3.39687 10.3798 4.8771 12.4848C6.07149 14.1792 7.43522 15.849 9.24908 16.6152C11.0629 17.3813 12.9526 17.2586 13.8974 15.8834" fill="#EBEBEB"/>
</svg>
