<svg width="8" height="6" viewBox="0 0 8 6" fill="none" xmlns="http://www.w3.org/2000/svg">
<path d="M0 5.85193C0 5.76611 1.03358 5.55156 2.59203 4.82211C3.50326 4.39685 4.37397 3.87958 5.19214 3.2774C5.67167 2.92095 6.13263 2.53707 6.57295 2.12745C6.80253 1.91744 7.0209 1.69397 7.22702 1.45807C7.3185 1.35987 7.39062 1.24324 7.43915 1.11504C7.48768 0.986835 7.51165 0.849633 7.50964 0.71146C7.50964 0.505497 7.25124 0.402509 6.9767 0.462581C6.69789 0.538327 6.42726 0.644739 6.16921 0.780102C4.72583 1.47488 3.3914 2.40106 2.21252 3.52628C0.95284 4.74489 0.34722 5.68028 0.290696 5.62879C0.383267 5.37873 0.514241 5.14675 0.678287 4.94226C1.07467 4.35139 1.52062 3.7999 2.01065 3.29455C2.74181 2.52968 3.55485 1.85859 4.43311 1.29501C4.95042 0.951401 5.49011 0.64741 6.04809 0.385348C6.34257 0.22523 6.65443 0.104166 6.9767 0.0249028C7.17629 -0.0210493 7.38422 -0.00313408 7.57424 0.0763913C7.67939 0.124924 7.77225 0.199224 7.84522 0.293188C7.9182 0.387152 7.96922 0.498119 7.99413 0.617047C8.01225 0.821824 7.98843 1.02835 7.92431 1.22242C7.86019 1.41648 7.7573 1.59347 7.62269 1.74126C7.39809 1.99214 7.16088 2.22993 6.9121 2.45356C6.46109 2.87392 5.98356 3.26098 5.48284 3.61207C4.63562 4.21647 3.72849 4.72009 2.77776 5.11388C2.1428 5.38727 1.48612 5.59981 0.815558 5.74895C0.551201 5.83236 0.275388 5.86719 0 5.85193Z" fill="#FAFAFA"/>
</svg>
