<svg width="30" height="20" viewBox="0 0 30 20" fill="none" xmlns="http://www.w3.org/2000/svg">
<path d="M9.64836 4.04385C9.90487 4.1632 10.1676 4.26686 10.4352 4.35434C10.7017 4.405 10.9746 4.405 11.2411 4.35434C11.8839 4.29589 12.5209 4.17846 13.1447 4.00335C14.6867 3.58486 16.1905 3.00436 17.7198 2.52511C20.8925 1.53287 24.2873 -0.343615 26.6034 0.0546316C28.9195 0.452878 31.4133 2.75461 29.0401 6.84507C28.1301 8.42175 26.9709 9.8193 25.6135 10.976C22.3329 13.3318 18.5637 13.8313 16.3048 14.891C13.3732 16.2747 11.9327 18.0297 9.14707 18.941C5.54919 20.0817 3.05543 19.508 2.24956 18.5832C1.79903 18.0702 1.61502 14.9315 0.688584 12.65C-0.0982523 10.6925 -0.256886 9.27504 0.453805 9.22104C0.652363 9.45364 0.878455 9.65784 1.12642 9.82854C1.40615 10.0651 1.72765 10.2395 2.07189 10.3415C2.55217 10.4643 3.04378 10.53 3.53769 10.5373C4.4165 10.6315 5.30389 10.5722 6.16472 10.3618C6.40719 10.3066 6.62836 10.1749 6.79926 9.98379C6.98319 9.68455 7.06391 9.32674 7.02769 8.9713C7.02769 8.6608 7.02769 8.34357 7.02769 8.03307C7.01927 7.8616 7.04079 7.68996 7.09115 7.52682C7.17777 7.34487 7.30395 7.1875 7.45919 7.06781C7.95585 6.69682 8.36077 6.20355 8.63944 5.63007C8.78963 5.15239 8.83946 4.64549 8.78539 4.14509C8.77558 4.05815 8.79344 3.97022 8.83615 3.89535C8.92498 3.78735 9.08997 3.82785 9.21688 3.89535C9.34379 3.96285 9.50242 3.97635 9.64836 4.04385Z" fill="#629DFF"/>
</svg>
