<svg width="22" height="6" viewBox="0 0 22 6" fill="none" xmlns="http://www.w3.org/2000/svg">
<path d="M21.8512 5.74632C22.017 4.4117 20.304 3.31052 19.0146 3.20903C18.3965 3.23696 17.7777 3.179 17.1727 3.0365C15.911 2.52904 15.409 0.758012 14.1795 0.184585C13.2586 -0.24168 12.1995 0.138916 11.3061 0.63115C10.4128 1.12338 9.53324 1.74756 8.54319 1.8186C7.67748 1.87949 6.73348 1.52427 5.97828 1.99113C5.41188 2.34128 5.11717 3.0568 4.59682 3.48306C4.0538 3.84793 3.42759 4.03453 2.79171 4.02096C2.15649 4.00271 1.52384 4.11633 0.926746 4.35589C0.632801 4.48374 0.384273 4.71295 0.218281 5.00928C0.0522903 5.30562 -0.0222563 5.65317 0.00577309 6.00005L21.8512 5.74632Z" fill="#EBEBEB"/>
</svg>
