<svg width="84" height="61" viewBox="0 0 84 61" fill="none" xmlns="http://www.w3.org/2000/svg">
<path d="M32.7408 59.7271L83.9934 25.5691L51.2526 3.75147L0 37.9094L32.7408 59.7271Z" fill="#F26E6E"/>
<path opacity="0.15" d="M32.7408 59.7271L83.9934 25.5691L51.2526 3.75147L0 37.9094L32.7408 59.7271Z" fill="black"/>
<path d="M57.6863 42.2V41.1368C57.6863 39.8382 59.6993 36.1172 62.2123 34.4389L82.5725 20.876V25.6146L57.6863 42.2Z" fill="#F5F5F5"/>
<path d="M82.5659 20.8759L62.2056 34.4464C59.6927 36.1171 57.6731 39.8382 57.6797 41.1368V42.1999L26.3597 21.3239V20.2684C26.3597 18.9622 28.3727 15.2411 30.8857 13.5705L51.2328 0.00750885L82.5659 20.8759Z" fill="#FAFAFA"/>
<path d="M82.5659 20.876L62.2056 34.4465C59.6927 36.1172 57.6731 39.8383 57.6797 41.1368V42.2L26.3597 21.324V20.2684C26.3597 18.9623 28.3727 15.2412 30.8857 13.5705L51.246 0L82.5659 20.876Z" fill="#FAFAFA"/>
<path d="M57.6797 41.2127L55.7061 39.9142L53.134 38.1979C54.21 37.9721 55.3205 38.156 56.2982 38.7219C56.6932 38.9668 57.0275 39.3242 57.2693 39.7601C57.511 40.196 57.6523 40.6961 57.6797 41.2127Z" fill="#F0F0F0"/>
<path d="M57.6797 41.2127L55.7061 39.9142L53.134 38.1979C54.21 37.9721 55.3205 38.156 56.2982 38.7219C56.6932 38.9668 57.0275 39.3242 57.2693 39.7601C57.511 40.196 57.6523 40.6961 57.6797 41.2127Z" fill="#E0E0E0"/>
<path d="M32.7474 60.7142L32.7408 59.727L0 37.9093V38.889L32.7474 60.7142Z" fill="#F26E6E"/>
<path opacity="0.3" d="M32.7474 60.7142L32.7408 59.727L0 37.9093V38.889L32.7474 60.7142Z" fill="black"/>
<path d="M32.7475 60.7143L84.0001 26.5563L83.9935 25.5691L32.7409 59.7271L32.7475 60.7143Z" fill="#F26E6E"/>
<path d="M57.6797 41.2128C57.6797 39.9142 55.6075 38.8282 53.0748 40.4913L32.7277 53.9555V58.8233L57.6731 42.2C57.6731 42.2 57.6929 42.5189 57.6797 41.2128Z" fill="#F5F5F5"/>
<path d="M32.7408 58.8233V53.9555L1.4209 33.0796V37.9473L32.7408 58.8233Z" fill="#EBEBEB"/>
<path d="M53.0945 40.4913L52.1801 41.0988L32.7408 53.9555L5.07192 35.5172L1.4209 33.0795L21.7746 19.6153C23.6165 18.3927 24.6493 18.4838 25.3795 18.9622L57.127 40.1192C55.9824 39.3598 54.6404 39.542 53.0945 40.4913Z" fill="#FAFAFA"/>
<path d="M31.3134 50.2876L48.6475 38.7447L49.5619 38.1372L50.2264 38.5852L49.3119 39.1851L31.9844 50.7281L31.3134 50.2876Z" fill="#E0E0E0"/>
<path d="M29.7148 49.2169L47.049 37.6739L47.9568 37.074L48.6278 37.5145L47.7134 38.122L30.3793 49.6649L29.7148 49.2169Z" fill="#E0E0E0"/>
<path d="M28.1162 48.1538L45.4438 36.6109L46.3582 36.0033L47.0226 36.4514L46.1148 37.0513L28.7806 48.5942L28.1162 48.1538Z" fill="#E0E0E0"/>
<path d="M26.5112 47.083L43.8453 35.5401L44.7597 34.9401L45.4241 35.3806L44.5097 35.9881L27.1821 47.5311L26.5112 47.083Z" fill="#E0E0E0"/>
<path d="M24.9125 46.0198L42.2467 34.4769L43.1545 33.8693L43.8255 34.3174L42.9111 34.9173L25.5769 46.4602L24.9125 46.0198Z" fill="#E0E0E0"/>
<path d="M23.314 44.949L40.6416 33.4061L41.556 32.8062L42.227 33.2466L41.3126 33.8541L23.9784 45.3971L23.314 44.949Z" fill="#E0E0E0"/>
<path d="M21.7089 43.8859L39.0431 32.343L39.9575 31.7355L40.6219 32.1835L39.7141 32.7834L22.3799 44.3264L21.7089 43.8859Z" fill="#E0E0E0"/>
<path d="M20.1103 42.8151L37.4445 31.2722L38.3589 30.6723L39.0233 31.1128L38.1089 31.7203L20.7813 43.2632L20.1103 42.8151Z" fill="#E0E0E0"/>
<path d="M18.5118 41.752L35.8459 30.2091L36.7538 29.6016L37.4247 30.0496L36.5104 30.6496L19.1762 42.2001L18.5118 41.752Z" fill="#E0E0E0"/>
<path d="M16.9131 40.6887L34.2407 29.1382L35.1551 28.5383L35.8195 28.9787L34.9117 29.5863L17.5776 41.1292L16.9131 40.6887Z" fill="#E0E0E0"/>
<path d="M15.3081 39.618L32.6422 28.0751L33.5567 27.4751L34.2211 27.9156L33.3067 28.5155L15.9791 40.066L15.3081 39.618Z" fill="#E0E0E0"/>
<path d="M13.7096 38.5549L31.0437 27.0044L31.9516 26.4044L32.6225 26.8525L31.7081 27.4524L14.374 38.9953L13.7096 38.5549Z" fill="#E0E0E0"/>
<path d="M12.1109 37.4841L29.4385 25.9412L30.3529 25.3413L31.0173 25.7817L30.1095 26.3816L12.7753 37.9321L12.1109 37.4841Z" fill="#E0E0E0"/>
<path d="M10.5059 36.421L27.84 24.8705L28.7544 24.2706L29.4189 24.7186L28.511 25.3185L11.1769 36.8615L10.5059 36.421Z" fill="#E0E0E0"/>
<path d="M8.90722 35.3502L26.2414 23.8073L27.1558 23.2074L27.8202 23.6478L26.9058 24.2478L9.57822 35.7983L8.90722 35.3502Z" fill="#E0E0E0"/>
<path d="M7.30869 34.287L24.6429 22.7365L25.5507 22.1366L26.2151 22.5846L25.3073 23.1846L7.97311 34.7275L7.30869 34.287Z" fill="#E0E0E0"/>
<path d="M5.71017 33.2162L23.0378 21.6733L23.9522 21.0734L24.6166 21.5138L23.7088 22.1214L6.3746 33.6643L5.71017 33.2162Z" fill="#E0E0E0"/>
<path opacity="0.1" d="M53.2853 39.2308C52.9103 39.2764 52.1143 39.5726 51.6735 39.6865C49.825 40.1649 46.5621 41.8887 43.4308 43.6961C39.2535 46.111 35.3196 48.6854 35.3196 48.6854L6.66392 29.6092L21.7943 19.6231C22.3702 19.2132 22.9985 18.9108 23.656 18.7269C24.1173 18.8093 24.5625 18.9841 24.9717 19.2434L25.1756 18.8409L25.4059 18.97L57.1271 40.1193C55.9967 39.2536 54.6172 38.9346 53.2853 39.2308Z" fill="black"/>
<path d="M32.7211 55.0188L35.8261 53.1962L32.7408 55.3681L29.6358 53.3025L32.7211 55.0188Z" fill="#E6E6E6"/>
<path d="M32.7409 57.4488L38.4378 53.6594L32.7474 57.1982L26.3401 53.181L32.7409 57.4488Z" fill="#E6E6E6"/>
<path d="M1.4209 34.1579L6.20999 37.4917L1.4209 34.6667V34.1579Z" fill="#E6E6E6"/>
<path d="M1.42747 36.0565L8.53875 41.0762L1.4209 36.5121L1.42747 36.0565Z" fill="#E6E6E6"/>
<path d="M53.1604 38.1979C52.7511 38.2486 52.3447 38.3272 51.9434 38.4333C50.0883 38.9193 46.8254 40.6356 43.7006 42.443C39.5233 44.8579 35.5828 47.4399 35.5828 47.4399L4.24976 26.5715C4.24976 26.5715 16.1699 18.6509 20.8471 17.6029C23.0443 17.1169 24.3929 17.4586 25.2086 17.9978L56.318 38.7295C55.343 38.1626 54.235 37.9761 53.1604 38.1979Z" fill="#F5F5F5"/>
<path d="M52.7656 36.3222C51.7878 35.7569 50.6782 35.5704 49.6014 35.7906C49.1924 35.8478 48.7862 35.9289 48.3844 36.0336C46.6217 36.6112 44.9086 37.3737 43.2664 38.3118C42.2467 38.851 41.1876 39.4434 40.1416 40.0509C37.6287 41.5013 35.2012 43.0125 33.6684 43.9922L34.3789 44.463C35.9117 43.491 38.326 41.9798 40.8521 40.5293C41.8981 39.9218 42.9572 39.3294 43.9769 38.7827C45.6188 37.8438 47.332 37.0812 49.0949 36.5045C49.4975 36.3918 49.9063 36.3106 50.3184 36.2615C51.3925 36.0439 52.4987 36.2274 53.4761 36.7854L52.7656 36.3222Z" fill="#E0E0E0"/>
<path d="M51.167 35.2818C50.1882 34.7201 49.0789 34.5364 48.0028 34.7578C47.5914 34.8091 47.1828 34.8877 46.7792 34.9932C45.0176 35.5742 43.3047 36.3367 41.6612 37.2715C40.6415 37.8106 39.5824 38.4106 38.5364 39.0105C36.0235 40.4685 33.596 41.9798 32.0633 42.9518L32.7738 43.4226C34.3065 42.4506 36.7208 40.9394 39.2469 39.4889C40.2929 38.8814 41.3586 38.2891 42.3782 37.7499C44.0183 36.812 45.7292 36.0494 47.4897 35.4717C47.8932 35.3638 48.3017 35.2827 48.7133 35.2287C49.7901 35.0085 50.8997 35.1949 51.8775 35.7603L51.167 35.2818Z" fill="#E0E0E0"/>
<path d="M49.5619 34.2187C48.5841 33.6534 47.4745 33.467 46.3977 33.6872C45.9861 33.7412 45.5776 33.8223 45.1741 33.9302C43.4134 34.5072 41.7024 35.2698 40.0626 36.2084C39.043 36.7551 37.9839 37.3475 36.9379 37.955C34.4315 39.3599 31.9975 40.8787 30.4844 41.8735L31.2015 42.3519C32.7343 41.3723 35.1485 39.8611 37.6747 38.4106C38.7206 37.8031 39.7798 37.2108 40.7994 36.6716C42.4412 35.7323 44.1544 34.9696 45.9174 34.3934C46.3193 34.2886 46.7255 34.2076 47.1345 34.1504C48.2113 33.9302 49.3209 34.1166 50.2987 34.682L49.5619 34.2187Z" fill="#E0E0E0"/>
<path d="M47.9568 33.1479C46.979 32.5826 45.8694 32.3962 44.7925 32.6163C44.3836 32.6735 43.9774 32.7546 43.5755 32.8594C41.8125 33.4356 40.0992 34.1982 38.4575 35.1376C37.4378 35.6767 36.3787 36.2691 35.3328 36.8766C32.8198 38.3271 30.3924 39.8383 28.8596 40.8179L29.57 41.2887C31.1028 40.3167 33.5171 38.8055 36.0432 37.3474C37.0892 36.7475 38.1483 36.1552 39.168 35.6084C40.8115 34.6736 42.5244 33.9112 44.286 33.3302C44.6873 33.2241 45.0937 33.1455 45.503 33.0948C46.5791 32.8728 47.6886 33.0565 48.6672 33.6188L47.9568 33.1479Z" fill="#E0E0E0"/>
<path d="M46.3517 32.0771C45.3761 31.5124 44.2688 31.3259 43.1941 31.5455C42.7828 31.602 42.3744 31.6832 41.9705 31.7886C40.2078 32.3661 38.4947 33.1287 36.8525 34.0668C35.8328 34.6059 34.7737 35.2059 33.7277 35.8058C31.2147 37.2639 28.7873 38.7751 27.2545 39.7471L27.965 40.2179C29.4978 39.2459 31.9121 37.7347 34.4382 36.2842C35.4842 35.6767 36.5433 35.0844 37.5629 34.5376C39.2049 33.5988 40.9181 32.8362 42.681 32.2594C43.0845 32.1516 43.493 32.0704 43.9045 32.0164C44.9814 31.7967 46.0908 31.9831 47.0688 32.548L46.3517 32.0771Z" fill="#E0E0E0"/>
<path d="M44.753 31.0065C43.7734 30.4479 42.665 30.2643 41.5888 30.4825C41.1768 30.5329 40.7681 30.614 40.3652 30.7255C38.6023 31.3023 36.8891 32.0649 35.2472 33.0037C34.2341 33.5505 33.1684 34.1429 32.1224 34.7428C29.6095 36.2008 27.182 37.712 25.6492 38.6841L26.3597 39.1625C27.8991 38.1829 30.3068 36.6717 32.8395 35.2212C33.8854 34.6137 34.9446 34.0214 35.9642 33.4822C37.6042 32.5443 39.3152 31.7817 41.0757 31.204C41.5164 31.0901 41.9243 31.0141 42.2992 30.961C43.3761 30.7408 44.4857 30.9272 45.4635 31.4925L44.753 31.0065Z" fill="#E0E0E0"/>
<path d="M43.148 29.9433C42.1702 29.3779 41.0606 29.1915 39.9838 29.4117C39.5723 29.4657 39.1637 29.5468 38.7602 29.6547C37.0005 30.2351 35.2898 30.9976 33.6488 31.9329C32.6291 32.4797 31.57 33.072 30.524 33.6795C28.0045 35.13 25.5836 36.6412 24.0508 37.6132L24.7613 38.0916C26.2941 37.1196 28.7084 35.6084 31.2345 34.1504C32.2805 33.5504 33.3396 32.9505 34.3592 32.4113C36.001 31.472 37.7142 30.7093 39.4773 30.1331C39.8791 30.0284 40.2853 29.9472 40.6943 29.8901C41.7711 29.6699 42.8807 29.8563 43.8585 30.4217L43.148 29.9433Z" fill="#E0E0E0"/>
<path d="M41.5429 28.8726C40.5651 28.3072 39.4554 28.1208 38.3786 28.341C37.9697 28.3981 37.5635 28.4792 37.1616 28.584C35.3986 29.1602 33.6853 29.9229 32.0436 30.8622C31.0239 31.4014 29.9648 31.9937 28.9188 32.6012C26.4059 34.0517 23.9784 35.5629 22.4457 36.5425L23.1561 37.0134C24.6889 36.0413 27.1032 34.5301 29.6293 33.0797C30.6753 32.4721 31.7344 31.8798 32.7541 31.333C34.396 30.3942 36.1092 29.6316 37.8721 29.0548C38.2748 28.9421 38.6835 28.8609 39.0957 28.8118C40.1697 28.5942 41.2759 28.7778 42.2533 29.3358L41.5429 28.8726Z" fill="#E0E0E0"/>
<path d="M37.4905 27.7486C37.079 27.8026 36.6704 27.8838 36.2669 27.9916C34.4184 28.47 31.1555 30.1939 28.0241 32.0012C25.5112 33.4517 23.0837 34.9629 21.551 35.9349L20.8405 35.4641C22.3733 34.4921 24.7876 32.9809 27.3137 31.5228C30.4384 29.7154 33.7079 27.9992 35.5564 27.5132C35.9599 27.407 36.3685 27.3284 36.78 27.2778C37.854 27.0564 38.9612 27.2401 39.9377 27.8018L40.6547 28.2802C39.6769 27.7148 38.5673 27.5284 37.4905 27.7486Z" fill="#E0E0E0"/>
<path d="M35.8853 26.6778C35.5104 26.731 35.1025 26.8069 34.6618 26.9208C32.8132 27.3992 29.5503 29.1231 26.4256 30.9305C23.906 32.3809 21.4852 33.8921 19.9524 34.8718L19.2353 34.3933C20.7747 33.4213 23.1824 31.9101 25.7085 30.4596C28.8398 28.6523 32.1027 26.9284 33.9513 26.45C34.3548 26.3422 34.7633 26.261 35.1749 26.207C36.2517 25.9868 37.3613 26.1732 38.3391 26.7386L39.0364 27.2094C38.0624 26.6473 36.9579 26.461 35.8853 26.6778Z" fill="#E0E0E0"/>
<path d="M34.2802 25.6146C33.8709 25.6653 33.4645 25.7439 33.0632 25.85C31.2081 26.336 27.9452 28.0523 24.8205 29.8597C22.3075 31.3177 19.8801 32.8289 18.3473 33.801L17.6368 33.3301C19.1696 32.3505 21.5839 30.8393 24.11 29.3888C27.2347 27.5815 30.4976 25.8576 32.3528 25.3792C32.7546 25.2744 33.1608 25.1933 33.5698 25.1362C34.6466 24.916 35.7562 25.1024 36.734 25.6678L37.4445 26.1386C36.4658 25.5763 35.3563 25.3926 34.2802 25.6146Z" fill="#E0E0E0"/>
<path d="M32.6816 24.5439C32.27 24.5973 31.8615 24.6785 31.4581 24.7869C29.6095 25.2654 26.34 26.9892 23.2153 28.7966C20.7023 30.247 18.2749 31.7582 16.7421 32.7303L16.0316 32.2594C17.5644 31.2874 19.9787 29.7762 22.5048 28.3181C25.6296 26.5108 28.8925 24.7945 30.7476 24.3085C31.1494 24.2038 31.5556 24.1226 31.9646 24.0655C33.0414 23.8453 34.151 24.0317 35.1288 24.5971L35.8459 25.0755C34.8678 24.5112 33.7585 24.3248 32.6816 24.5439Z" fill="#E0E0E0"/>
<path d="M31.0766 23.4731C30.7016 23.5263 30.2938 23.6022 29.853 23.7161C28.0045 24.1946 24.7416 25.9184 21.6102 27.7258C19.0973 29.1762 16.6764 30.6875 15.1371 31.6671L14.4266 31.1887C15.9594 30.2166 18.3736 28.7054 20.8998 27.255C24.0245 25.44 27.294 23.7237 29.1425 23.2453C29.5454 23.1338 29.9541 23.0526 30.3661 23.0023C31.4423 22.7846 32.5506 22.9682 33.5304 23.5263L34.2408 24.0047C33.263 23.4394 32.1534 23.2529 31.0766 23.4731Z" fill="#E0E0E0"/>
<path d="M29.4713 22.4023C29.0623 22.4595 28.6561 22.5406 28.2543 22.6453C26.3992 23.1314 23.1363 24.8476 20.0115 26.655C17.492 28.113 15.0711 29.6242 13.5384 30.5963L12.8213 30.1179C14.3606 29.1458 16.7684 27.6346 19.3011 26.1842C22.4258 24.3768 25.6887 22.6529 27.5373 22.1745C27.9408 22.0667 28.3493 21.9855 28.7608 21.9315C29.8377 21.7113 30.9473 21.8977 31.9251 22.4631L32.6355 22.9339C31.6577 22.3686 30.5481 22.1822 29.4713 22.4023Z" fill="#E0E0E0"/>
<path d="M27.8531 21.3392C27.441 21.3884 27.0322 21.4695 26.6295 21.5822C24.7744 22.0607 21.5115 23.7769 18.3867 25.5919C15.8738 27.0423 13.4463 28.5535 11.9135 29.5256L11.2031 29.0548C12.7359 28.0751 15.1501 26.5639 17.6763 25.1134C20.801 23.3061 24.0639 21.5822 25.919 21.1038C26.3209 20.9991 26.7271 20.918 27.136 20.8608C28.2129 20.6406 29.3225 20.827 30.3003 21.3924L31.0107 21.8632C30.0333 21.3052 28.9271 21.1216 27.8531 21.3392Z" fill="#E0E0E0"/>
<path d="M26.2677 20.2684C25.8562 20.3225 25.4477 20.4036 25.0441 20.5114C23.1956 20.9899 19.9261 22.7137 16.8014 24.5211C14.2884 25.9715 11.861 27.4828 10.3282 28.4548L9.61773 27.984C11.1505 27.0119 13.5648 25.5007 16.0909 24.0427C19.2157 22.2353 22.4851 20.519 24.3337 20.033C24.7371 19.9263 25.1457 19.8476 25.5573 19.7976C26.6312 19.5762 27.7384 19.7599 28.7149 20.3216L29.432 20.8C28.454 20.2352 27.3446 20.0488 26.2677 20.2684Z" fill="#E0E0E0"/>
<path d="M24.6626 19.1978C24.2876 19.2509 23.8797 19.3269 23.439 19.4408C21.5904 19.9192 18.3275 21.643 15.2028 23.4504C12.6832 24.9009 10.2624 26.4121 8.72303 27.3917L8.01256 26.9133C9.54533 25.9413 11.9596 24.4301 14.4857 22.9796C17.6171 21.1722 20.88 19.4484 22.7285 18.97C23.132 18.8621 23.5406 18.781 23.9521 18.7269C25.0289 18.5068 26.1385 18.6932 27.1163 19.2585L27.8268 19.7294C26.849 19.164 25.7394 18.9776 24.6626 19.1978Z" fill="#E0E0E0"/>
<path d="M59.2784 32.5252C58.3189 33.1946 57.4611 34.0412 56.7391 35.0312L56.0812 34.5984C56.8032 33.6083 57.6611 32.7617 58.6205 32.0923L76.8625 19.9419L77.5203 20.3824L59.2784 32.5252Z" fill="#E0E0E0"/>
<path d="M57.6731 31.4241C56.7155 32.0934 55.8599 32.9401 55.1404 33.9301L54.4826 33.4973C55.2002 32.5051 56.0562 31.6582 57.0153 30.9912L75.2639 18.8408L75.9217 19.2736L57.6731 31.4241Z" fill="#E0E0E0"/>
<path d="M56.0745 30.3533C55.1163 31.0247 54.2588 31.871 53.5353 32.8593L52.8774 32.4265C53.6009 31.4381 54.4585 30.5918 55.4167 29.9204L73.6587 17.77L74.3165 18.2104L56.0745 30.3533Z" fill="#E0E0E0"/>
<path d="M54.4694 29.2901C53.5103 29.957 52.6544 30.804 51.9367 31.7961L51.2789 31.3557C51.9985 30.3679 52.8542 29.5238 53.8116 28.8573L72.0602 16.7068L72.718 17.1397L54.4694 29.2901Z" fill="#E0E0E0"/>
<path d="M52.8511 28.2194C51.8929 28.8908 51.0354 29.7371 50.3119 30.7255L49.654 30.2926C50.3775 29.3043 51.2351 28.458 52.1933 27.7866L70.4419 15.6361L71.0997 16.069L52.8511 28.2194Z" fill="#E0E0E0"/>
<path d="M51.2658 27.1563C50.3067 27.8232 49.4507 28.6702 48.7331 29.6623L48.0752 29.2218C48.7948 28.2341 49.6505 27.39 50.6079 26.7234L68.8565 14.5729L69.5143 15.0058L51.2658 27.1563Z" fill="#E0E0E0"/>
<path d="M49.6671 26.0854C48.7097 26.7551 47.8541 27.6017 47.1344 28.5915L46.4766 28.1586C47.1944 27.1668 48.0504 26.3198 49.0093 25.6526L67.2578 13.5021L67.9157 13.935L49.6671 26.0854Z" fill="#E0E0E0"/>
<path d="M48.0621 25.0223C47.1047 25.6889 46.249 26.533 45.5294 27.5208L44.8715 27.0879C45.5927 26.0999 46.4481 25.2535 47.4042 24.5819L65.6528 12.4315L66.3106 12.8643L48.0621 25.0223Z" fill="#E0E0E0"/>
<path d="M46.4635 23.9516C45.5047 24.6188 44.6487 25.4658 43.9308 26.4576L43.273 26.0247C43.9909 25.0329 44.8468 24.186 45.8057 23.5187L64.0543 11.3683L64.7121 11.8011L46.4635 23.9516Z" fill="#E0E0E0"/>
<path d="M44.8649 22.8885C43.9055 23.5548 43.0476 24.3989 42.3257 25.3869L41.6678 24.954C42.3898 23.964 43.2476 23.1174 44.2071 22.448L62.4491 10.2976L63.1069 10.7304L44.8649 22.8885Z" fill="#E0E0E0"/>
<path d="M43.2598 21.8177C42.3022 22.487 41.4466 23.3337 40.7271 24.3238L40.0693 23.8909C40.7869 22.8987 41.6429 22.0518 42.602 21.3848L60.8506 9.23441L61.5084 9.66727L43.2598 21.8177Z" fill="#E0E0E0"/>
<path d="M41.6678 20.7469C40.7096 21.4183 39.852 22.2646 39.1285 23.2529L38.4707 22.8201C39.1942 21.8317 40.0517 20.9854 41.0099 20.314L59.2585 8.16359L59.9163 8.60404L41.6678 20.7469Z" fill="#E0E0E0"/>
<path d="M40.0561 19.6837C39.097 20.3506 38.2411 21.1976 37.5235 22.1898L36.8656 21.7493C37.5852 20.7615 38.4409 19.9174 39.3983 19.2509L57.6469 7.10042L58.3047 7.53328L40.0561 19.6837Z" fill="#E0E0E0"/>
<path d="M38.4575 18.6129C37.4993 19.2843 36.6418 20.1306 35.9183 21.119L35.2604 20.6861C35.9839 19.6978 36.8415 18.8514 37.7997 18.18L56.0483 6.0296L56.7061 6.46247L38.4575 18.6129Z" fill="#E0E0E0"/>
<path d="M36.8523 17.5497C35.8932 18.2166 35.0372 19.0636 34.3196 20.0558L33.6618 19.6153C34.3814 18.6276 35.2371 17.7834 36.1945 17.1169L54.4431 4.96643L55.1009 5.39929L36.8523 17.5497Z" fill="#E0E0E0"/>
<path d="M35.2538 16.479C34.2964 17.1487 33.4408 17.9953 32.7211 18.9851L32.0633 18.5522C32.7811 17.5604 33.6371 16.7134 34.596 16.0462L52.8445 3.89574L53.5024 4.3286L35.2538 16.479Z" fill="#E0E0E0"/>
<path d="M33.6552 15.4159C32.6945 16.0801 31.8363 16.9245 31.1159 17.9143L30.4581 17.4814C31.1785 16.4917 32.0367 15.6473 32.9974 14.983L51.2394 2.83256L51.8972 3.26542L33.6552 15.4159Z" fill="#E0E0E0"/>
<path d="M78.2965 25.0223L82.5593 22.4176L82.5659 22.0151L78.2965 25.0223Z" fill="#E6E6E6"/>
<path d="M82.5659 23.8681L75.448 28.4624L82.5659 23.5719V23.8681Z" fill="#E6E6E6"/>
<path opacity="0.02" d="M9.13088 23.4807C12.9793 21.1341 18.1302 18.2104 20.8471 17.6029C23.0443 17.1169 24.3928 17.4586 25.2086 17.9978L56.318 38.7295C55.3403 38.1636 54.2298 37.9797 53.1537 38.2055C53.1537 38.2055 37.7602 27.3536 27.8531 23.6478C21.7656 21.4445 15.2472 21.3863 9.13088 23.4807Z" fill="black"/>
</svg>
