<svg width="15" height="14" viewBox="0 0 15 14" fill="none" xmlns="http://www.w3.org/2000/svg">
<path fill-rule="evenodd" clip-rule="evenodd" d="M7.29191 0.717711C7.52602 0.717866 7.66585 0.822815 7.76109 1.01713C8.32285 2.16326 8.89071 3.30641 9.45297 4.45227C9.49546 4.53893 9.54264 4.57714 9.64303 4.59129C10.8998 4.76894 12.1556 4.95351 13.4117 5.13607C13.7583 5.18645 13.9327 5.38115 13.8981 5.67775C13.8825 5.81124 13.8051 5.90609 13.7133 5.99554C12.796 6.88912 11.8801 7.78412 10.9618 8.6767C10.9011 8.73563 10.8777 8.78532 10.8936 8.876C11.1165 10.1546 11.3325 11.4344 11.5521 12.7135C11.5866 12.9142 11.531 13.0788 11.3655 13.1961C11.1992 13.3139 11.0253 13.3035 10.8472 13.2096C9.70939 12.6097 8.56987 12.0131 7.43286 11.4117C7.34659 11.3661 7.28325 11.3634 7.19474 11.4103C6.06639 12.0077 4.93484 12.599 3.80584 13.1951C3.61532 13.2957 3.4309 13.3239 3.24946 13.1897C3.07437 13.0602 3.0393 12.8823 3.07549 12.674C3.2763 11.5189 3.45921 10.3605 3.67908 9.2091C3.74061 8.88698 3.69026 8.6808 3.44301 8.4499C2.57429 7.63877 1.73431 6.79689 0.881915 5.96828C0.736092 5.82648 0.681761 5.65935 0.742395 5.46793C0.801521 5.28123 0.940615 5.1776 1.13567 5.15057C1.24085 5.13599 1.34572 5.11913 1.45075 5.10382C2.63991 4.93077 3.82889 4.75629 5.01872 4.58789C5.11125 4.57482 5.1348 4.51994 5.16659 4.45552C5.73356 3.30665 6.30251 2.15862 6.8667 1.00832C6.95982 0.818523 7.09957 0.720302 7.29191 0.717711V0.717711Z" stroke="white" stroke-width="1.4"/>
</svg>
