<svg width="34" height="26" viewBox="0 0 34 26" fill="none" xmlns="http://www.w3.org/2000/svg">
<path d="M16.4382 3.11681C16.1829 5.0443 16.319 6.87414 16.2977 8.72097C16.2765 10.5678 16.2595 12.4868 16.2467 14.3718C16.2339 16.2569 16.2169 18.1292 16.1999 20.0057C16.1999 20.9652 16.1928 21.9219 16.1786 22.8757C16.1786 23.3555 16.1786 23.831 16.1786 24.3107C16.1786 24.714 16.0765 25.1853 16.2807 25.491C16.302 25.5249 16.4552 25.5249 16.485 25.4443C16.6123 25.0135 16.6528 24.5619 16.6041 24.1154V22.6804C16.6041 21.7266 16.6112 20.7699 16.6254 19.8104C16.6254 17.9678 16.6396 16.1281 16.6679 14.2912L16.7062 8.77191C16.7062 6.88263 16.8977 4.87448 16.6509 3.08709C16.6509 3.02765 16.4467 3.03614 16.4339 3.12955L16.4382 3.11681Z" fill="#0060FF"/>
<path d="M4.97997 7.12029C4.89062 8.57228 5.04806 9.95209 5.09061 11.3659C5.13315 12.7796 5.16294 14.1637 5.17571 15.5732C5.18847 16.9828 5.17571 18.3031 5.17571 19.6787C5.17571 21.0543 4.96296 22.6166 5.09912 23.9752C5.09912 24.0771 5.43526 23.9752 5.45228 23.8648C5.5918 22.4542 5.63445 21.0357 5.57992 19.6193C5.59694 18.1786 5.59694 16.745 5.57992 15.3185C5.5629 13.892 5.53312 12.4909 5.49057 11.1154C5.50102 9.75574 5.41999 8.39693 5.24804 7.04812C5.24804 6.96745 4.98423 7.00991 4.97997 7.12454V7.12029Z" fill="#0060FF"/>
<path d="M3.59658 8.34301C6.47719 8.4449 9.49398 8.34301 12.4469 8.34301L21.3441 8.30905C21.5526 8.30905 21.8504 8.01186 21.6121 8.01186L12.698 8.05431C9.71949 8.05431 6.77506 8.00336 3.71573 8.13498C3.56255 8.13498 3.42639 8.33027 3.57957 8.33452L3.59658 8.34301Z" fill="#0060FF"/>
<path d="M0.0567008 21.9925C4.85205 22.2473 4.15424 22.1496 9.14106 22.1369C14.0513 22.1369 18.987 22.0732 23.9143 22.0435C26.8077 22.0208 29.6954 22.0095 32.5774 22.0095C32.7774 22.0095 33.0838 21.725 32.854 21.725C22.9654 21.725 17.5957 21.8949 7.74968 21.8567C4.86055 21.8567 3.17559 21.7463 0.248167 21.7972C0.0864778 21.7972 -0.109252 21.984 0.0737113 21.9925H0.0567008Z" fill="#0060FF"/>
<path d="M0.575674 0.12361C1.26923 2.27611 2.60104 4.12719 3.91157 5.92731C5.2542 7.68839 6.81874 9.26945 8.56651 10.6314C12.4538 13.6876 16.8636 16.0164 21.5825 17.505C24.4248 18.4433 27.4586 19.424 31.0753 19.4919C31.22 19.4919 31.3348 19.3518 31.1987 19.3306C29.8031 19.0886 28.3223 18.9442 26.9437 18.647C25.4502 18.3201 24.0248 17.9168 22.6377 17.4795C20.2012 16.7216 17.8305 15.7675 15.5489 14.6265C11.3603 12.5642 7.63438 9.67556 4.59661 6.13534C3.00951 4.26304 1.89896 2.17422 0.76714 0.0302075C0.737355 -0.0334761 0.507596 0.00897979 0.537381 0.106628L0.575674 0.12361Z" fill="#0060FF"/>
<path d="M14.2174 5.61309C14.5275 5.33235 14.798 5.01102 15.0216 4.65784C15.1278 4.49742 15.223 4.33005 15.3067 4.15686C15.3492 4.06629 15.3875 3.97713 15.4216 3.88939C15.4556 3.81297 15.5237 3.6941 15.4769 3.64739C15.435 3.62492 15.3867 3.61772 15.3401 3.62702C15.2935 3.63632 15.2516 3.66154 15.2216 3.69834C15.1667 3.77481 15.1277 3.8614 15.1067 3.95307C15.0727 4.03374 15.0344 4.11441 14.9961 4.19507C14.9166 4.36165 14.8271 4.52327 14.728 4.67907C14.5209 4.99571 14.2782 5.28771 14.0047 5.54941C13.8813 5.66829 14.1025 5.70225 14.2174 5.59611V5.61309Z" fill="#0060FF"/>
<path d="M13.5024 3.80879C13.5197 3.90997 13.5655 4.00418 13.6343 4.0805C13.6889 4.16874 13.7486 4.25379 13.813 4.33524C13.9395 4.49127 14.0821 4.63358 14.2385 4.75979C14.3065 4.81499 14.3831 4.92113 14.5363 4.89141C14.5758 4.88755 14.6139 4.87486 14.6478 4.85428C14.6817 4.8337 14.7105 4.80576 14.732 4.77253C14.7703 4.70036 14.7065 4.67064 14.664 4.64092C14.501 4.52588 14.3486 4.39659 14.2087 4.25457C14.1321 4.1739 14.0555 4.09324 13.9832 4.00833C13.9169 3.89826 13.8352 3.79819 13.7406 3.71114C13.6853 3.66868 13.4811 3.71114 13.4896 3.82577L13.5024 3.80879Z" fill="#0060FF"/>
<path d="M5.46468 5.23537C5.29448 5.37972 5.3881 5.51558 5.44341 5.61747C5.49873 5.71936 5.58382 5.88919 5.66041 6.04203C5.8134 6.29968 5.98401 6.5465 6.17101 6.78076C6.22632 6.85718 6.42205 6.80198 6.52843 6.68735C6.71454 6.45352 6.85852 6.18919 6.95392 5.90617C7.1003 5.66389 7.19315 5.39321 7.22625 5.11225C7.22625 4.97214 6.82627 5.11225 6.83478 5.24386C6.80285 5.50203 6.71735 5.75073 6.58374 5.9741C6.49437 6.23298 6.36047 6.47435 6.18803 6.68735L6.54545 6.59395C6.36848 6.36795 6.20372 6.1327 6.05187 5.88919C5.91571 5.66842 5.79231 5.43916 5.64764 5.22263V5.28631V5.2481C5.69019 5.16319 5.51149 5.1547 5.42639 5.2481L5.46468 5.23537Z" fill="#0060FF"/>
<path d="M13.7197 16.639C13.8117 16.7704 13.9253 16.8852 14.0559 16.9786L14.409 17.2843L14.7622 17.5857L14.9409 17.7343C14.9962 17.781 15.0856 17.8277 15.1111 17.8956L15.1664 17.7683L15.1366 17.798L15.3494 17.7046H15.3026C15.2345 17.7046 15.1026 17.764 15.0983 17.832C15.4047 17.832 15.5238 17.764 15.494 17.6706C15.4851 17.656 15.4735 17.643 15.46 17.6324L15.3664 17.5518L15.1622 17.3904L14.7792 17.0805L14.3963 16.7791C14.2686 16.6658 14.1253 16.5714 13.9708 16.4989C13.9069 16.4734 13.6601 16.5498 13.7027 16.6347L13.7197 16.639Z" fill="#0060FF"/>
<path d="M15.0085 16.4945C14.583 16.9191 14.2171 17.3436 13.8256 17.747C13.732 17.8489 13.532 18.0272 13.6852 18.0569C13.7446 18.0593 13.8037 18.0483 13.8582 18.0248C13.9127 18.0013 13.9612 17.9658 14.0001 17.921C14.0469 17.8786 14.0852 17.8319 14.1277 17.7852L14.7064 17.1483C14.8936 16.9446 15.0766 16.7238 15.2468 16.5285C15.3532 16.4011 15.1234 16.3799 15.0085 16.4945Z" fill="#0060FF"/>
<path d="M19.7526 11.5654C20.0397 12.1079 20.4101 12.6021 20.8504 13.0302C20.9398 13.1236 21.3015 12.9028 21.1993 12.7967C20.7739 12.3721 20.4164 11.8839 19.9909 11.4508C19.9399 11.3999 19.7144 11.4763 19.7526 11.5654Z" fill="#0060FF"/>
<path d="M21.7657 11.4764C21.6255 11.6822 21.5058 11.9012 21.4083 12.1302C21.3019 12.3297 21.1828 12.5293 21.0551 12.7331C20.9275 12.9369 20.8083 13.1067 20.6679 13.2935C20.5184 13.5123 20.3458 13.7144 20.1531 13.8964C20.0339 14.0025 20.1531 14.0704 20.2892 14.0067C20.1999 14.0067 20.1786 14.0322 20.2296 14.0067H20.2679C20.316 13.9916 20.3617 13.9702 20.4041 13.9431C20.471 13.9013 20.5313 13.8498 20.5828 13.7902C20.6753 13.692 20.762 13.5886 20.8424 13.4803C21.0168 13.2553 21.1785 13.0557 21.3232 12.8095C21.4678 12.5632 21.6082 12.3552 21.7487 12.1302C21.8167 12 21.8806 11.8684 21.9401 11.7354C21.9926 11.6476 22.0232 11.5486 22.0295 11.4467C22.0295 11.3872 21.8593 11.3702 21.7827 11.4679L21.7657 11.4764Z" fill="#0060FF"/>
<path d="M22.9824 12.7627C23.0803 12.7627 23.1739 12.7627 23.2675 12.7627C23.3611 12.7627 23.4547 12.7627 23.5483 12.7627C23.7185 12.7627 23.8845 12.7627 24.0547 12.7627C24.1441 12.7576 24.228 12.718 24.2887 12.6523C24.3397 12.5801 24.2887 12.5504 24.2206 12.5462H23.7313H23.4079L23.0462 12.5886C23.0159 12.5902 22.9864 12.5987 22.9598 12.6134C22.9333 12.6282 22.9105 12.6487 22.8931 12.6735C22.8931 12.7245 22.9271 12.7457 22.9824 12.7457V12.7627Z" fill="#0060FF"/>
<path d="M23.0635 13.408C23.1684 13.4144 23.2736 13.4144 23.3784 13.408H23.6805H24.2677C24.3689 13.4001 24.464 13.3565 24.5358 13.2848C24.5953 13.2169 24.5698 13.1532 24.489 13.1575L23.8379 13.183C23.6145 13.1879 23.3915 13.2049 23.1699 13.2339C23.1079 13.2453 23.0521 13.2784 23.0125 13.3273C22.987 13.374 23.0125 13.408 23.0635 13.4122V13.408Z" fill="#0060FF"/>
<path d="M26.9186 11.9009C26.813 11.7746 26.6686 11.6866 26.5078 11.6505C26.3471 11.6145 26.1788 11.6323 26.0293 11.7013C25.8445 11.7598 25.6753 11.8587 25.5339 11.991C25.3926 12.1232 25.2827 12.2854 25.2123 12.4655C25.1326 12.6092 25.1031 12.7752 25.1286 12.9374C25.154 13.0997 25.2329 13.2488 25.3527 13.3613C25.4877 13.4916 25.6521 13.5874 25.8322 13.6406C26.0122 13.6938 26.2024 13.7029 26.3867 13.667C26.6636 13.6153 26.9254 13.5021 27.1526 13.3359C27.3355 13.183 27.4249 12.9835 27.2845 12.9113C27.2429 12.8977 27.1982 12.8964 27.1558 12.9078C27.1135 12.9191 27.0754 12.9424 27.0462 12.975C27.0162 13.0703 26.9717 13.1606 26.9143 13.2425C26.8373 13.3011 26.7489 13.3431 26.6547 13.3656C26.4966 13.4223 26.3236 13.4223 26.1654 13.3656C26.0137 13.3091 25.8705 13.232 25.7399 13.1363C25.6788 13.095 25.6273 13.041 25.5891 12.978C25.5509 12.9149 25.5269 12.8444 25.5187 12.7712C25.5102 12.6256 25.5364 12.4801 25.5953 12.3466C25.6438 12.2032 25.7342 12.0776 25.8548 11.9858C25.958 11.9183 26.0807 11.887 26.2037 11.8966C26.3645 11.8996 26.5215 11.945 26.659 12.0282C26.7313 12.0664 26.9569 11.9815 26.9058 11.8924L26.9186 11.9009Z" fill="#0060FF"/>
<path d="M27.8335 12.5206C28.059 12.4782 28.4377 12.4187 28.5441 12.5206C28.6504 12.6225 28.2973 12.9155 28.1186 13.0089C27.9399 13.1023 28.0505 13.1702 28.1441 13.166C28.6334 13.1277 28.9951 13.3825 28.9525 13.7518C28.945 13.8415 28.9033 13.925 28.836 13.985C28.7688 14.045 28.6811 14.077 28.5909 14.0745C28.3398 14.049 28.2888 13.8622 28.1016 13.7816C28.0675 13.7816 27.9441 13.7816 27.9101 13.8368C27.7867 14.1127 28.1271 14.2613 28.4079 14.291C28.5681 14.2967 28.7269 14.2606 28.8687 14.1861C29.0106 14.1116 29.1304 14.0014 29.2164 13.8665C29.2768 13.7602 29.298 13.6362 29.2762 13.5159C29.2544 13.3957 29.1911 13.2869 29.0972 13.2084C28.9815 13.109 28.8453 13.0362 28.6982 12.9951C28.5512 12.954 28.3969 12.9457 28.2462 12.9707C28.2462 13.0259 28.2462 13.0768 28.2675 13.1277C28.5696 12.9749 28.9696 12.5971 28.8632 12.4187C28.7568 12.2404 28.1824 12.2744 27.8037 12.4187C27.6718 12.4612 27.7654 12.5504 27.842 12.5376L27.8335 12.5206Z" fill="#0060FF"/>
<path d="M18.5319 23.4318C18.5593 23.4426 18.5892 23.446 18.6183 23.4415C18.6475 23.437 18.6749 23.4249 18.6978 23.4063C18.7531 23.3553 18.7234 23.3171 18.6978 23.3044C18.5905 23.2756 18.4775 23.2756 18.3702 23.3044C18.2642 23.3225 18.1621 23.3584 18.0681 23.4105C17.9174 23.4854 17.7972 23.6099 17.7277 23.7629C17.6781 23.8737 17.6671 23.9978 17.6964 24.1155C17.7257 24.2332 17.7937 24.3378 17.8894 24.4125C18.0134 24.5043 18.1601 24.5606 18.3137 24.5756C18.4674 24.5906 18.6222 24.5635 18.7617 24.4974C18.8691 24.4745 18.9674 24.4207 19.0445 24.3425C19.1216 24.2644 19.174 24.1655 19.1953 24.0579C19.2166 23.9504 19.2058 23.839 19.1643 23.7375C19.1227 23.636 19.0523 23.5489 18.9616 23.487C18.805 23.3679 18.6086 23.3132 18.4127 23.3341C18.3021 23.3341 18.2 23.4615 18.2723 23.4955C18.3447 23.5294 18.4936 23.5634 18.5829 23.6143C18.6695 23.6581 18.743 23.724 18.7957 23.8054C18.8504 23.8817 18.876 23.9751 18.868 24.0686C18.8661 24.1127 18.8549 24.156 18.8351 24.1955C18.8153 24.235 18.7874 24.2699 18.7531 24.2979C18.7253 24.322 18.6929 24.3405 18.6578 24.3521C18.6228 24.3638 18.5858 24.3684 18.5489 24.3658C18.4549 24.3649 18.3626 24.34 18.2808 24.2936C18.2009 24.2548 18.1335 24.1945 18.0861 24.1195C18.0387 24.0445 18.0133 23.9577 18.0128 23.8691C18.0141 23.7724 18.0521 23.6799 18.1191 23.6101C18.1918 23.5551 18.2749 23.5155 18.3635 23.4936C18.452 23.4717 18.544 23.468 18.634 23.4827C18.6364 23.4389 18.6364 23.3949 18.634 23.3511L18.5361 23.3723C18.5266 23.3753 18.5183 23.3812 18.5124 23.3892C18.5065 23.3973 18.5033 23.407 18.5033 23.4169C18.5033 23.4269 18.5065 23.4366 18.5124 23.4446C18.5183 23.4526 18.5266 23.4585 18.5361 23.4615L18.5319 23.4318Z" fill="#0060FF"/>
<path d="M6.80484 24.612C6.71123 24.4167 6.30275 24.4422 5.95385 24.6757C5.84759 24.7419 5.75912 24.8329 5.69609 24.941C5.63307 25.049 5.59739 25.1707 5.59217 25.2956C5.59771 25.397 5.62673 25.4958 5.67693 25.5842C5.72712 25.6726 5.79715 25.7482 5.88152 25.805C6.08316 25.9576 6.33694 26.0247 6.58785 25.9918C6.78051 25.9749 6.9668 25.9145 7.13265 25.8152C7.2985 25.716 7.43958 25.5804 7.54521 25.4187C7.61329 25.2871 7.31119 25.3423 7.22183 25.4569C7.15508 25.5441 7.06863 25.6143 6.96953 25.6618C6.87043 25.7093 6.76147 25.7327 6.65155 25.7303C6.54163 25.7278 6.43386 25.6994 6.33701 25.6475C6.24017 25.5956 6.157 25.5215 6.09427 25.4314C6.03437 25.3613 5.99705 25.2747 5.98718 25.1831C5.97731 25.0914 5.99536 24.999 6.03895 24.9177C6.08017 24.841 6.14404 24.7787 6.22191 24.7394C6.25552 24.723 6.29135 24.7115 6.32829 24.7054C6.40289 24.6808 6.48345 24.6808 6.55806 24.7054C6.5816 24.7181 6.60791 24.7247 6.63464 24.7247C6.66138 24.7247 6.68769 24.7181 6.71123 24.7054C6.7708 24.6757 6.80484 24.6333 6.78782 24.5993L6.80484 24.612Z" fill="#0060FF"/>
<path d="M30.9397 23.279C30.8972 23.3894 30.9993 23.4234 31.0716 23.4786C31.144 23.5337 31.2716 23.6229 31.378 23.6908C31.595 23.8309 31.8035 23.9668 32.0375 24.1154L32.663 24.489L32.9778 24.6758C33.0341 24.7283 33.1019 24.7668 33.1758 24.7882C33.2498 24.8096 33.3277 24.8132 33.4033 24.7989C33.565 24.7692 33.6331 24.6079 33.4842 24.6249H33.4331C33.4799 24.6249 33.5863 24.6588 33.5778 24.5951C33.5693 24.5315 33.5395 24.5612 33.5225 24.5484L33.3608 24.4593L33.0459 24.2767C32.8289 24.1536 32.6204 24.0305 32.3992 23.9031L31.7482 23.5295C31.646 23.4701 31.5397 23.4149 31.4333 23.3597C31.325 23.2815 31.1965 23.2359 31.0631 23.2281C31.0248 23.2281 30.9695 23.2281 30.9567 23.2875L30.9397 23.279Z" fill="#0060FF"/>
<path d="M33.1219 22.8204C32.773 23.1898 32.4667 23.5634 32.0965 23.9243C31.939 24.0856 31.7731 24.2384 31.5987 24.3913C31.4242 24.5441 31.2114 24.7182 31.0285 24.8838C30.9604 24.9474 30.9902 25.0026 31.0285 25.0154C31.116 25.0208 31.2025 24.9936 31.271 24.939C31.6794 24.6305 32.0621 24.2898 32.4156 23.92C32.7574 23.5937 33.0653 23.2339 33.3347 22.8459C33.3985 22.7482 33.1985 22.7185 33.1049 22.8204H33.1219Z" fill="#0060FF"/>
</svg>
