<svg width="33" height="49" viewBox="0 0 33 49" fill="none" xmlns="http://www.w3.org/2000/svg">
<path d="M18.032 8.71214L32.8011 0L22.5485 11.3745L18.032 8.71214Z" fill="#0060FF"/>
<path d="M32.8011 0L16.3028 6.88068L11.782 4.21829L32.8011 0Z" fill="#0060FF"/>
<path d="M16.3031 6.88068L17.3059 11.1202L18.0324 8.71214L32.8015 0L16.3031 6.88068Z" fill="#0060FF"/>
<path opacity="0.2" d="M16.3031 6.88068L17.3059 11.1202L18.0324 8.71214L32.8015 0L16.3031 6.88068Z" fill="black"/>
<path d="M17.3056 11.1203L19.5363 9.59828L18.0322 8.71223L17.3056 11.1203Z" fill="#0060FF"/>
<path opacity="0.2" d="M18.032 8.71223L19.5361 9.59828L19.1792 9.83993L18.032 8.71223Z" fill="black"/>
<path d="M14.1696 9.82723C14.1229 9.82684 14.0775 9.81139 14.0403 9.78319C14.0031 9.75498 13.976 9.71553 13.9631 9.67071C13.9502 9.62589 13.9522 9.57812 13.9687 9.53451C13.9853 9.49089 14.0155 9.45379 14.0549 9.42872L14.6158 9.08956C14.6403 9.07508 14.6675 9.06557 14.6957 9.06157C14.7239 9.05758 14.7527 9.05917 14.7803 9.06625C14.8079 9.07334 14.8339 9.08578 14.8567 9.10287C14.8795 9.11996 14.8987 9.14137 14.9132 9.16587C14.9277 9.19036 14.9372 9.21747 14.9412 9.24564C14.9452 9.27381 14.9436 9.3025 14.9365 9.33005C14.9294 9.35761 14.917 9.3835 14.8998 9.40625C14.8827 9.429 14.8613 9.44816 14.8367 9.46263L14.2844 9.79331C14.2496 9.81418 14.2101 9.82585 14.1696 9.82723Z" fill="#E0E0E0"/>
<path d="M5.93159 47.2236C5.87238 47.2221 5.81605 47.1977 5.77438 47.1557C5.48971 46.8505 5.20504 46.5198 4.92461 46.1849C4.90648 46.1629 4.89286 46.1376 4.88454 46.1103C4.87622 46.0831 4.87336 46.0545 4.87612 46.0261C4.87888 45.9978 4.88722 45.9703 4.90064 45.9451C4.91406 45.92 4.93231 45.8977 4.95435 45.8797C4.97639 45.8616 5.00179 45.848 5.02909 45.8397C5.05639 45.8314 5.08506 45.8285 5.11347 45.8313C5.14188 45.834 5.16946 45.8423 5.19465 45.8557C5.21984 45.8691 5.24214 45.8873 5.26027 45.9093C5.5322 46.2442 5.80837 46.5622 6.08455 46.859C6.12503 46.8995 6.14775 46.9544 6.14775 47.0116C6.14775 47.0688 6.12503 47.1237 6.08455 47.1642C6.04309 47.2029 5.98832 47.2241 5.93159 47.2236ZM3.8454 44.5527C3.80928 44.5526 3.77373 44.5436 3.74188 44.5266C3.71003 44.5096 3.68284 44.4851 3.6627 44.4552C3.42901 44.0991 3.20382 43.7345 2.99137 43.3656C2.97452 43.3411 2.96292 43.3133 2.95731 43.2841C2.95171 43.2548 2.95221 43.2248 2.95879 43.1957C2.96537 43.1667 2.97789 43.1393 2.99556 43.1154C3.01323 43.0914 3.03568 43.0713 3.06149 43.0564C3.0873 43.0415 3.11592 43.032 3.14556 43.0286C3.1752 43.0252 3.20521 43.028 3.23373 43.0367C3.26225 43.0455 3.28865 43.06 3.31129 43.0794C3.33392 43.0988 3.3523 43.1226 3.36528 43.1494C3.57347 43.5098 3.79016 43.8701 4.0281 44.2178C4.05889 44.2663 4.06946 44.325 4.05755 44.3812C4.04565 44.4374 4.01221 44.4868 3.96437 44.5188C3.92832 44.5402 3.88733 44.5519 3.8454 44.5527ZM2.20109 41.5851C2.16187 41.5871 2.12285 41.5783 2.08835 41.5596C2.05385 41.5409 2.02522 41.513 2.00564 41.4791C1.82719 41.0933 1.65723 40.6948 1.50002 40.3005C1.4897 40.2727 1.48497 40.2431 1.48611 40.2134C1.48725 40.1837 1.49424 40.1546 1.50666 40.1276C1.51909 40.1007 1.53672 40.0764 1.55855 40.0562C1.58037 40.0361 1.60596 40.0204 1.63386 40.0101C1.69021 39.9893 1.75252 39.9917 1.8071 40.0167C1.83413 40.0291 1.85844 40.0467 1.87866 40.0685C1.89887 40.0903 1.91459 40.1158 1.92491 40.1436C2.07787 40.5294 2.24357 40.9195 2.41778 41.301C2.42983 41.3266 2.43663 41.3543 2.4378 41.3825C2.43897 41.4107 2.43447 41.4389 2.42458 41.4653C2.41468 41.4918 2.39959 41.516 2.38018 41.5366C2.36077 41.5571 2.33744 41.5736 2.31156 41.5851C2.27664 41.5998 2.23785 41.6028 2.20109 41.5935V41.5851ZM1.02415 38.4139C0.977081 38.4139 0.931305 38.3986 0.893743 38.3703C0.856181 38.342 0.828875 38.3022 0.815955 38.2571C0.696986 37.8331 0.590764 37.4304 0.497289 37.0149C0.48433 36.9587 0.494284 36.8996 0.524962 36.8507C0.555639 36.8018 0.604527 36.7671 0.660871 36.7542C0.717214 36.7412 0.776398 36.7512 0.825403 36.7818C0.874407 36.8124 0.909217 36.8612 0.922177 36.9174C1.0114 37.3413 1.11762 37.7356 1.23234 38.1383C1.24694 38.1934 1.2396 38.252 1.21188 38.3018C1.18416 38.3516 1.1382 38.3887 1.08363 38.4054L1.02415 38.4139ZM0.348579 35.1198C0.295998 35.1192 0.245452 35.0995 0.206366 35.0644C0.167279 35.0293 0.142318 34.9812 0.136136 34.9291C0.0851492 34.5051 0.0426603 34.0812 0.0171671 33.6572C0.0148528 33.6287 0.0183533 33.6 0.0274568 33.5728C0.0365603 33.5457 0.0510785 33.5207 0.0701361 33.4993C0.0891937 33.4779 0.112396 33.4606 0.138343 33.4484C0.164291 33.4362 0.192447 33.4293 0.221113 33.4283C0.249482 33.4254 0.278151 33.4283 0.305341 33.4369C0.33253 33.4455 0.357661 33.4595 0.379174 33.4782C0.400686 33.4969 0.418123 33.5198 0.430401 33.5455C0.44268 33.5712 0.449538 33.5991 0.450552 33.6275C0.476045 34.0515 0.514285 34.4754 0.565271 34.8782C0.571297 34.9354 0.554675 34.9927 0.518953 35.0378C0.483231 35.083 0.431239 35.1124 0.374072 35.1198H0.348579ZM0.208366 31.7282C0.180098 31.7277 0.152222 31.7215 0.126372 31.7101C0.100523 31.6987 0.0772199 31.6822 0.0578296 31.6617C0.0384394 31.6411 0.0233517 31.617 0.0134509 31.5905C0.0035502 31.5641 -0.000964568 31.536 0.000171596 31.5078C0.000171596 31.0838 0.0426605 30.6599 0.0809003 30.2359C0.0852334 30.1797 0.110991 30.1273 0.152877 30.0895C0.194764 30.0516 0.249593 30.0312 0.30609 30.0325C0.362865 30.0378 0.415224 30.0653 0.451812 30.109C0.4884 30.1526 0.506267 30.2089 0.501538 30.2656C0.45905 30.6896 0.433556 31.1135 0.416561 31.5375C0.412284 31.5896 0.388475 31.6382 0.349885 31.6735C0.311295 31.7089 0.260761 31.7284 0.208366 31.7282ZM0.578018 28.3663H0.539778C0.511673 28.3618 0.484777 28.3516 0.46069 28.3364C0.436602 28.3213 0.415815 28.3014 0.399564 28.2781C0.383313 28.2548 0.37193 28.2284 0.366091 28.2006C0.360252 28.1728 0.360076 28.1441 0.365575 28.1162C0.437805 27.6923 0.527031 27.2683 0.620506 26.8444C0.633465 26.7881 0.668276 26.7394 0.71728 26.7087C0.766285 26.6781 0.825468 26.6682 0.881812 26.6811C0.938155 26.6941 0.987044 26.7288 1.01772 26.7777C1.0484 26.8266 1.05835 26.8857 1.04539 26.9419C0.951918 27.3658 0.866941 27.7643 0.79471 28.1756C0.788377 28.228 0.76265 28.2762 0.722567 28.3107C0.682485 28.3452 0.630936 28.3635 0.578018 28.3621V28.3663ZM1.38955 25.0807C1.36851 25.0849 1.34686 25.0849 1.32582 25.0807C1.29846 25.0726 1.27303 25.059 1.25105 25.0408C1.22908 25.0226 1.211 25.0001 1.19792 24.9748C1.18483 24.9495 1.17699 24.9218 1.17488 24.8934C1.17276 24.8649 1.17641 24.8364 1.18561 24.8094C1.31307 24.3855 1.45753 23.9997 1.61049 23.6012C1.63078 23.5449 1.67261 23.4991 1.7268 23.4736C1.75362 23.461 1.78268 23.4538 1.8123 23.4524C1.84191 23.451 1.87152 23.4555 1.89942 23.4655C1.92731 23.4755 1.95296 23.4909 1.97489 23.5108C1.99682 23.5307 2.01461 23.5548 2.02724 23.5815C2.03986 23.6083 2.04708 23.6373 2.04848 23.6668C2.04987 23.6964 2.04542 23.7259 2.03538 23.7538C1.89092 24.1438 1.75071 24.5423 1.61049 24.9408C1.59386 24.9846 1.56316 25.0217 1.52319 25.0462C1.48322 25.0708 1.43622 25.0814 1.38955 25.0765V25.0807ZM2.64297 21.9393C2.61066 21.9389 2.57881 21.9316 2.54949 21.9181C2.49766 21.8933 2.45781 21.8491 2.43868 21.795C2.41956 21.7409 2.42274 21.6815 2.44752 21.6298C2.63022 21.2482 2.82567 20.8667 3.03386 20.4894C3.04719 20.4643 3.06545 20.4421 3.08753 20.4242C3.10962 20.4062 3.1351 20.3929 3.16245 20.385C3.1898 20.3771 3.21846 20.3748 3.24673 20.3781C3.27501 20.3815 3.30232 20.3905 3.32704 20.4046C3.3762 20.4331 3.41246 20.4794 3.42829 20.5338C3.44412 20.5883 3.43829 20.6468 3.41201 20.6971C3.20807 21.0659 3.01687 21.4433 2.83842 21.8163C2.8198 21.852 2.79175 21.882 2.75729 21.9029C2.72284 21.9238 2.6833 21.9349 2.64297 21.935V21.9393ZM4.31702 19.0098C4.2743 19.0101 4.2326 18.9967 4.19805 18.9716C4.17406 18.9566 4.15334 18.9369 4.1371 18.9137C4.12086 18.8905 4.10944 18.8643 4.1035 18.8367C4.09756 18.809 4.09723 18.7804 4.10252 18.7527C4.10781 18.7249 4.11863 18.6984 4.13432 18.6749C4.36801 18.323 4.61444 17.9711 4.86937 17.6235C4.90332 17.5776 4.95407 17.5469 5.01058 17.5382C5.06709 17.5294 5.12477 17.5433 5.17104 17.5768C5.1943 17.5932 5.21401 17.6142 5.229 17.6383C5.24399 17.6625 5.25397 17.6894 5.25833 17.7175C5.26269 17.7455 5.26134 17.7742 5.25438 17.8018C5.24741 17.8293 5.23497 17.8552 5.21778 17.8778C4.9671 18.217 4.72491 18.5646 4.49547 18.9123C4.476 18.9419 4.44955 18.9662 4.41843 18.9832C4.38732 19.0002 4.35249 19.0094 4.31702 19.0098ZM6.36498 16.3135C6.31386 16.3126 6.26452 16.2947 6.22476 16.2626C6.20327 16.244 6.18566 16.2213 6.17296 16.1958C6.16025 16.1704 6.1527 16.1427 6.15072 16.1144C6.14875 16.086 6.1524 16.0576 6.16146 16.0306C6.17052 16.0037 6.18481 15.9788 6.20352 15.9574C6.4797 15.6394 6.76862 15.3214 7.05329 15.0077C7.09443 14.9683 7.14924 14.9463 7.20625 14.9463C7.26326 14.9463 7.31807 14.9683 7.35921 15.0077C7.39969 15.0482 7.42241 15.1031 7.42241 15.1603C7.42241 15.2176 7.39969 15.2724 7.35921 15.313C7.07029 15.6224 6.78561 15.9362 6.50944 16.2499C6.46832 16.282 6.41714 16.2985 6.36498 16.2965V16.3135ZM8.73584 13.8885C8.70568 13.889 8.67574 13.8833 8.64794 13.8716C8.62014 13.8599 8.59509 13.8426 8.57439 13.8207C8.53492 13.7796 8.51288 13.7249 8.51288 13.668C8.51288 13.6112 8.53492 13.5565 8.57439 13.5154C8.8888 13.2271 9.21172 12.9473 9.53888 12.6675C9.56037 12.6486 9.58548 12.6341 9.6127 12.6251C9.63993 12.6161 9.6687 12.6127 9.69728 12.615C9.72587 12.6174 9.75368 12.6256 9.77903 12.6389C9.80438 12.6523 9.82676 12.6707 9.8448 12.693C9.88077 12.7365 9.89823 12.7924 9.89347 12.8486C9.88871 12.9049 9.86209 12.957 9.81931 12.994C9.49639 13.2695 9.17773 13.5451 8.86756 13.8419C8.82806 13.8658 8.78182 13.8762 8.73584 13.8715V13.8885ZM11.3531 11.7179C11.3084 11.7173 11.2649 11.7029 11.2286 11.6767C11.1924 11.6505 11.1652 11.6137 11.1507 11.5714C11.1363 11.5291 11.1353 11.4834 11.148 11.4405C11.1607 11.3977 11.1863 11.3598 11.2214 11.3321C11.5656 11.0777 11.9097 10.8318 12.2624 10.5859C12.2858 10.5698 12.3122 10.5584 12.3401 10.5524C12.3679 10.5465 12.3967 10.546 12.4247 10.5512C12.4527 10.5563 12.4794 10.5668 12.5033 10.5823C12.5273 10.5977 12.5479 10.6177 12.5641 10.641C12.5803 10.6644 12.5917 10.6908 12.5976 10.7185C12.6036 10.7463 12.6041 10.775 12.5989 10.803C12.5938 10.8309 12.5832 10.8576 12.5678 10.8814C12.5523 10.9053 12.5323 10.9259 12.5088 10.9421C12.1604 11.1837 11.8163 11.4296 11.4806 11.6755C11.444 11.7033 11.3992 11.7182 11.3531 11.7179Z" fill="#E0E0E0"/>
<path d="M8.05111 49C8.01687 49.0002 7.98317 48.9915 7.95339 48.9746C7.751 48.8708 7.5577 48.7503 7.37554 48.6142C7.35239 48.5975 7.33276 48.5765 7.31777 48.5522C7.30278 48.5279 7.29273 48.5009 7.28819 48.4728C7.28366 48.4446 7.28472 48.4159 7.29132 48.3881C7.29793 48.3604 7.30994 48.3342 7.32668 48.3111C7.34342 48.288 7.36456 48.2684 7.38888 48.2535C7.41321 48.2385 7.44025 48.2285 7.46846 48.224C7.49667 48.2194 7.5255 48.2205 7.55329 48.2271C7.58109 48.2337 7.60732 48.2457 7.63048 48.2624C7.79245 48.3853 7.96442 48.4945 8.14459 48.5888C8.17028 48.601 8.19325 48.6182 8.21215 48.6394C8.23104 48.6606 8.24547 48.6854 8.25459 48.7123C8.2637 48.7392 8.26731 48.7676 8.2652 48.7959C8.26309 48.8242 8.25531 48.8518 8.24231 48.8771C8.2254 48.9136 8.19844 48.9445 8.16459 48.9662C8.13074 48.988 8.09138 48.9997 8.05111 49Z" fill="#E0E0E0"/>
</svg>
