<svg width="27" height="29" viewBox="0 0 27 29" fill="none" xmlns="http://www.w3.org/2000/svg">
<path d="M14.3378 8.65009L11.9311 4.48711L14.2737 0.439302H19.0529L19.1256 0.562996L21.4596 4.61081L19.117 8.65862H14.3378V8.65009ZM12.2432 4.61081L14.4447 8.41123H18.8819L21.1475 4.49564L18.946 0.695222H14.5088L12.2432 4.61081Z" fill="black"/>
<path d="M21.357 12.3823L19.1555 8.58192L21.4211 4.66634H25.8584L25.884 4.70473C25.884 4.65781 25.9139 4.61089 25.931 4.56397C25.9481 4.51705 25.9652 4.48719 25.9823 4.4488V4.41468H21.186L18.852 8.47102L21.1903 12.5103L21.263 12.634" fill="black"/>
<path d="M14.3376 16.6136L11.9266 12.4506L14.2735 8.40281H19.0527L21.4594 12.5658L19.1168 16.6136H14.3376ZM12.243 12.5658L14.4445 16.3662H18.8817L21.1431 12.4506L18.9458 8.6502H14.5086L12.243 12.5658Z" fill="black"/>
<path d="M7.42531 20.5973L5.01861 16.4344L7.36119 12.3823H12.1404L14.5514 16.5538L12.2045 20.6059H7.42531V20.5973ZM5.33494 16.5538L7.53218 20.3542H11.9694L14.235 16.4429L12.0335 12.6382H7.59631L5.33494 16.5538Z" fill="black"/>
<path d="M11.7856 20.5973V20.5675C11.8651 20.4909 11.9542 20.425 12.0506 20.3713L12.1019 20.3457H7.36119L5.01861 24.3977L7.42104 28.5522L7.5621 28.3261H7.52363L5.32639 24.5214L7.58775 20.6101L11.7856 20.5973Z" fill="black"/>
<path d="M5.22838 16.3661H5.17281C5.17281 16.4471 5.14289 16.5324 5.12152 16.6135L7.3102 20.4139L5.04457 24.3295H0.620169L0.581697 24.2698C0.567842 24.3459 0.53876 24.4184 0.496196 24.483L0.474827 24.5086L0.513299 24.5769H5.2925L7.63509 20.5291L5.22838 16.3661Z" fill="black"/>
<path d="M20.2711 8.52642C20.2711 8.7795 20.1959 9.0269 20.055 9.23732C19.9141 9.44775 19.7138 9.61176 19.4795 9.70861C19.2451 9.80546 18.9873 9.83081 18.7385 9.78143C18.4897 9.73206 18.2612 9.61019 18.0819 9.43123C17.9025 9.25228 17.7804 9.02427 17.7309 8.77605C17.6814 8.52783 17.7068 8.27055 17.8039 8.03673C17.9009 7.80292 18.0653 7.60307 18.2762 7.46247C18.4871 7.32186 18.7351 7.24681 18.9887 7.24681C19.3288 7.24681 19.655 7.38163 19.8955 7.6216C20.136 7.86157 20.2711 8.18704 20.2711 8.52642Z" fill="#0060FF"/>
<path d="M22.5755 4.54249C22.5755 4.79558 22.5002 5.04297 22.3593 5.2534C22.2184 5.46383 22.0181 5.62784 21.7838 5.72469C21.5495 5.82154 21.2916 5.84688 21.0428 5.79751C20.7941 5.74814 20.5656 5.62627 20.3862 5.44731C20.2069 5.26835 20.0847 5.04035 20.0352 4.79213C19.9857 4.54391 20.0111 4.28663 20.1082 4.05281C20.2053 3.81899 20.3697 3.61915 20.5805 3.47854C20.7914 3.33794 21.0394 3.26289 21.293 3.26289C21.6331 3.26289 21.9593 3.39771 22.1998 3.63768C22.4403 3.87765 22.5755 4.20312 22.5755 4.54249Z" fill="#0060FF"/>
<path d="M15.663 16.4898C15.663 16.7429 15.5878 16.9903 15.4469 17.2007C15.3059 17.4111 15.1056 17.5752 14.8713 17.672C14.637 17.7689 14.3791 17.7942 14.1304 17.7448C13.8816 17.6954 13.6531 17.5736 13.4737 17.3946C13.2944 17.2157 13.1722 16.9877 13.1228 16.7394C13.0733 16.4912 13.0987 16.2339 13.1957 16.0001C13.2928 15.7663 13.4572 15.5665 13.6681 15.4259C13.879 15.2852 14.1269 15.2102 14.3805 15.2102C14.7207 15.2102 15.0469 15.345 15.2874 15.585C15.5279 15.825 15.663 16.1504 15.663 16.4898Z" fill="#0060FF"/>
<path d="M8.7505 20.4736C8.7505 20.7267 8.67529 20.9741 8.53437 21.1845C8.39346 21.3949 8.19316 21.5589 7.95883 21.6558C7.72449 21.7526 7.46664 21.778 7.21788 21.7286C6.96911 21.6792 6.7406 21.5574 6.56125 21.3784C6.3819 21.1995 6.25976 20.9715 6.21027 20.7232C6.16079 20.475 6.18619 20.2177 6.28325 19.9839C6.38031 19.7501 6.54468 19.5503 6.75558 19.4096C6.96647 19.269 7.21442 19.194 7.46806 19.194C7.80819 19.194 8.13439 19.3288 8.37489 19.5688C8.61539 19.8088 8.7505 20.1342 8.7505 20.4736Z" fill="#0060FF"/>
<path d="M6.45509 16.4898C6.45509 16.7429 6.37988 16.9903 6.23896 17.2007C6.09805 17.4111 5.89775 17.5752 5.66342 17.672C5.42908 17.7689 5.17123 17.7942 4.92246 17.7448C4.6737 17.6954 4.44519 17.5736 4.26584 17.3946C4.08649 17.2157 3.96434 16.9877 3.91486 16.7394C3.86538 16.4912 3.89077 16.2339 3.98784 16.0001C4.0849 15.7663 4.24927 15.5665 4.46017 15.4259C4.67106 15.2852 4.91901 15.2102 5.17265 15.2102C5.51278 15.2102 5.83896 15.345 6.07947 15.585C6.31997 15.825 6.45509 16.1504 6.45509 16.4898Z" fill="#0060FF"/>
<path d="M14.9535 0.563025C14.9535 0.674381 14.9204 0.783236 14.8584 0.875825C14.7964 0.968414 14.7083 1.04058 14.6052 1.08319C14.5021 1.12581 14.3886 1.13696 14.2792 1.11523C14.1697 1.09351 14.0691 1.03989 13.9902 0.961146C13.9113 0.882405 13.8576 0.782084 13.8358 0.672867C13.814 0.563651 13.8252 0.450444 13.8679 0.347565C13.9106 0.244685 13.9829 0.156754 14.0757 0.0948876C14.1685 0.0330215 14.2776 0 14.3892 0C14.5389 0 14.6824 0.0593188 14.7882 0.164907C14.8941 0.270494 14.9535 0.413702 14.9535 0.563025Z" fill="#0060FF"/>
<path d="M19.5617 0.563042C19.5617 0.674398 19.5286 0.783253 19.4666 0.875842C19.4046 0.968431 19.3164 1.0406 19.2133 1.08321C19.1102 1.12582 18.9968 1.13697 18.8873 1.11525C18.7778 1.09353 18.6773 1.0399 18.5984 0.961162C18.5195 0.882421 18.4657 0.7821 18.4439 0.672884C18.4222 0.563668 18.4334 0.450461 18.4761 0.347581C18.5188 0.244702 18.5911 0.15677 18.6839 0.094904C18.7767 0.0330379 18.8858 1.64055e-05 18.9974 1.64055e-05C19.0716 -0.000551404 19.1453 0.0136254 19.214 0.041719C19.2827 0.0698126 19.3451 0.111262 19.3976 0.163657C19.4502 0.216052 19.4917 0.278347 19.5199 0.346912C19.548 0.415478 19.5622 0.488946 19.5617 0.563042Z" fill="#0060FF"/>
<path d="M12.6492 4.54268C12.65 4.65422 12.6176 4.76349 12.5562 4.85664C12.4947 4.94978 12.4068 5.02261 12.3038 5.06588C12.2008 5.10915 12.0872 5.12091 11.9775 5.09967C11.8677 5.07843 11.7668 5.02514 11.6874 4.94658C11.6081 4.86801 11.5539 4.7677 11.5318 4.65837C11.5097 4.54903 11.5206 4.43561 11.5632 4.33248C11.6058 4.22936 11.6781 4.14117 11.771 4.07911C11.8638 4.01706 11.9731 3.98392 12.0849 3.98392C12.2338 3.98392 12.3767 4.04265 12.4824 4.14732C12.5881 4.25198 12.648 4.3941 12.6492 4.54268Z" fill="#0060FF"/>
<path d="M14.9535 8.52654C14.9535 8.63789 14.9204 8.74675 14.8584 8.83934C14.7964 8.93192 14.7083 9.00409 14.6052 9.0467C14.5021 9.08932 14.3886 9.10047 14.2792 9.07874C14.1697 9.05702 14.0691 9.00339 13.9902 8.92465C13.9113 8.84591 13.8576 8.74559 13.8358 8.63638C13.814 8.52716 13.8252 8.41395 13.8679 8.31107C13.9106 8.2082 13.9829 8.12026 14.0757 8.0584C14.1685 7.99653 14.2776 7.96351 14.3892 7.96351C14.5389 7.96351 14.6824 8.02283 14.7882 8.12842C14.8941 8.234 14.9535 8.37721 14.9535 8.52654Z" fill="#0060FF"/>
<path d="M26.4741 4.54268C26.475 4.65422 26.4426 4.76349 26.3811 4.85664C26.3196 4.94978 26.2318 5.02261 26.1287 5.06588C26.0257 5.10915 25.9121 5.12091 25.8024 5.09967C25.6927 5.07843 25.5917 5.02514 25.5124 4.94658C25.433 4.86801 25.3789 4.7677 25.3567 4.65837C25.3346 4.54903 25.3455 4.43561 25.3881 4.33248C25.4307 4.22936 25.503 4.14117 25.5959 4.07911C25.6888 4.01706 25.7981 3.98392 25.9098 3.98392C26.0588 3.98392 26.2016 4.04265 26.3073 4.14732C26.413 4.25198 26.473 4.3941 26.4741 4.54268Z" fill="#0060FF"/>
<path d="M21.8655 12.5102C21.8655 12.6216 21.8324 12.7304 21.7704 12.823C21.7084 12.9156 21.6203 12.9878 21.5171 13.0304C21.414 13.073 21.3006 13.0841 21.1911 13.0624C21.0817 13.0407 20.9811 12.9871 20.9022 12.9083C20.8233 12.8296 20.7696 12.7293 20.7478 12.6201C20.726 12.5108 20.7372 12.3976 20.7799 12.2947C20.8226 12.1919 20.8949 12.1039 20.9877 12.0421C21.0805 11.9802 21.1896 11.9472 21.3012 11.9472C21.4509 11.9472 21.5944 12.0065 21.7002 12.1121C21.806 12.2177 21.8655 12.3609 21.8655 12.5102Z" fill="#0060FF"/>
<path d="M19.5616 16.4897C19.5625 16.6013 19.5301 16.7105 19.4686 16.8037C19.4071 16.8968 19.3193 16.9697 19.2163 17.0129C19.1133 17.0562 18.9997 17.068 18.8899 17.0467C18.7802 17.0255 18.6792 16.9722 18.5999 16.8936C18.5206 16.8151 18.4664 16.7148 18.4443 16.6054C18.4221 16.4961 18.4331 16.3827 18.4756 16.2795C18.5182 16.1764 18.5906 16.0882 18.6834 16.0262C18.7763 15.9641 18.8856 15.931 18.9974 15.931C19.1463 15.931 19.2892 15.9897 19.3949 16.0944C19.5006 16.199 19.5605 16.3412 19.5616 16.4897Z" fill="#0060FF"/>
<path d="M12.6492 12.5102C12.6492 12.6216 12.6161 12.7304 12.5541 12.823C12.4921 12.9156 12.4039 12.9878 12.3008 13.0304C12.1977 13.073 12.0843 13.0841 11.9748 13.0624C11.8654 13.0407 11.7648 12.9871 11.6859 12.9083C11.607 12.8296 11.5532 12.7293 11.5315 12.6201C11.5097 12.5108 11.5209 12.3976 11.5636 12.2947C11.6063 12.1919 11.6786 12.1039 11.7714 12.0421C11.8642 11.9802 11.9733 11.9472 12.0849 11.9472C12.2346 11.9472 12.3781 12.0065 12.4839 12.1121C12.5897 12.2177 12.6492 12.3609 12.6492 12.5102Z" fill="#0060FF"/>
<path d="M8.041 12.506C8.04185 12.6177 8.00937 12.7271 7.94769 12.8204C7.88601 12.9136 7.79794 12.9864 7.69466 13.0296C7.59138 13.0727 7.47756 13.0842 7.36771 13.0626C7.25785 13.041 7.15693 12.9873 7.07776 12.9083C6.99858 12.8293 6.94475 12.7286 6.92311 12.619C6.90148 12.5094 6.91301 12.3958 6.95625 12.2928C6.99949 12.1897 7.07247 12.1018 7.16592 12.0403C7.25936 11.9788 7.36905 11.9464 7.48101 11.9472C7.62918 11.9483 7.77098 12.0075 7.87576 12.1121C7.98053 12.2166 8.03989 12.3581 8.041 12.506Z" fill="#0060FF"/>
<path d="M12.6492 20.4736C12.6492 20.5851 12.616 20.6942 12.5538 20.7869C12.4916 20.8795 12.4032 20.9517 12.2998 20.9942C12.1965 21.0367 12.0828 21.0476 11.9732 21.0255C11.8637 21.0034 11.7631 20.9494 11.6844 20.8702C11.6056 20.791 11.5522 20.6903 11.531 20.5808C11.5097 20.4713 11.5215 20.358 11.5648 20.2552C11.6082 20.1524 11.6812 20.0647 11.7745 20.0034C11.8679 19.942 11.9774 19.9097 12.0892 19.9106C12.1631 19.9106 12.2362 19.9252 12.3045 19.9535C12.3727 19.9819 12.4346 20.0234 12.4867 20.0757C12.5387 20.1281 12.5799 20.1902 12.6078 20.2585C12.6357 20.3268 12.6497 20.3999 12.6492 20.4736Z" fill="#0060FF"/>
<path d="M8.04102 28.437C8.04102 28.5485 8.00781 28.6576 7.94562 28.7502C7.88342 28.8429 7.79504 28.9151 7.69169 28.9576C7.58833 29 7.47466 29.0109 7.36509 28.9889C7.25552 28.9668 7.15497 28.9128 7.07623 28.8336C6.99749 28.7544 6.94409 28.6537 6.9228 28.5442C6.90152 28.4347 6.91331 28.3214 6.95667 28.2186C7.00003 28.1158 7.07302 28.0281 7.16638 27.9668C7.25973 27.9054 7.36924 27.8731 7.48102 27.874C7.55493 27.874 7.62809 27.8886 7.69632 27.9169C7.76454 27.9453 7.82647 27.9868 7.87852 28.0391C7.93058 28.0915 7.97174 28.1536 7.99963 28.2219C8.02752 28.2901 8.04158 28.3633 8.04102 28.437Z" fill="#0060FF"/>
<path d="M1.12854 24.4532C1.12854 24.5647 1.09533 24.6738 1.03314 24.7664C0.970946 24.8591 0.882564 24.9313 0.779208 24.9738C0.675851 25.0163 0.562171 25.0271 0.452598 25.0051C0.343025 24.983 0.242497 24.929 0.163755 24.8498C0.0850131 24.7706 0.0316131 24.6699 0.0103257 24.5604C-0.0109617 24.4509 0.000827444 24.3376 0.0441921 24.2348C0.0875567 24.132 0.160546 24.0443 0.2539 23.983C0.347255 23.9216 0.456767 23.8893 0.568547 23.8902C0.717459 23.8913 0.859883 23.9511 0.964781 24.0566C1.06968 24.162 1.12855 24.3046 1.12854 24.4532Z" fill="#0060FF"/>
<path d="M5.7372 24.4532C5.7372 24.5645 5.7041 24.6734 5.64209 24.766C5.58009 24.8586 5.49196 24.9307 5.38885 24.9734C5.28575 25.016 5.1723 25.0271 5.06284 25.0054C4.95339 24.9837 4.85284 24.93 4.77392 24.8513C4.69501 24.7726 4.64126 24.6722 4.61949 24.563C4.59772 24.4538 4.6089 24.3406 4.65161 24.2377C4.69432 24.1348 4.76663 24.0469 4.85942 23.985C4.95222 23.9232 5.06132 23.8902 5.17292 23.8902C5.32258 23.8902 5.4661 23.9495 5.57192 24.0551C5.67774 24.1607 5.7372 24.3039 5.7372 24.4532Z" fill="#0060FF"/>
</svg>
