<svg width="122" height="177" viewBox="0 0 122 177" fill="none" xmlns="http://www.w3.org/2000/svg">
<path opacity="0.3" d="M118.732 71.4349L3.15031 0.455119C1.41261 -0.608747 0.0249519 0.255644 0.0249519 2.39002V99.7603C0.0818242 100.921 0.394319 102.051 0.937207 103.059C1.4801 104.067 2.23818 104.926 3.15031 105.565L118.732 176.545C120.47 177.609 121.858 176.744 121.858 174.61V77.2396C121.801 76.0792 121.488 74.9493 120.945 73.941C120.402 72.9327 119.644 72.0742 118.732 71.4349Z" fill="#629DFF"/>
<path opacity="0.5" d="M118.732 71.4349L3.15031 0.455119C1.41261 -0.608747 0.0249519 0.255644 0.0249519 2.39002V99.7603C0.0818242 100.921 0.394319 102.051 0.937207 103.059C1.4801 104.067 2.23818 104.926 3.15031 105.565L118.732 176.545C120.47 177.609 121.858 176.744 121.858 174.61V77.2396C121.801 76.0792 121.488 74.9493 120.945 73.941C120.402 72.9327 119.644 72.0742 118.732 71.4349Z" fill="white"/>
<path opacity="0.3" d="M119.345 158.213V145.739L111.725 141.085V150.447L109.206 148.864V133.265L104.124 130.147V136.384L101.587 134.821V147.295L96.4923 144.21V134.821L93.9545 133.265V130.147L91.4104 128.584V125.466L88.8726 123.91V127.029L86.3348 125.466V128.584L83.7971 127.029V130.147L78.7152 127.029V117.673L71.1019 113.019V128.584L68.5766 127.029V117.673L63.4947 114.548V123.91L60.957 122.348V119.229L55.8814 116.111V109.874L50.7995 106.755V109.874L48.2493 108.304V117.68L45.7115 116.117V103.65L43.1737 102.088V98.9691L40.6296 97.4132V94.2947L38.0918 92.7322V95.8506L35.5541 94.2947V97.4132L33.0163 95.8506V111.43L30.4785 109.874V103.65L22.9464 98.9957V102.167L17.777 98.9957V92.7587L15.233 91.2028V88.0844L12.6952 86.5218V83.4034L10.1574 81.8475V84.9593L7.61962 83.4034V86.5218L5.08183 84.9593V91.2028L0 88.0777V99.8002C0.0568723 100.961 0.369348 102.091 0.912236 103.099C1.45512 104.107 2.21322 104.966 3.12536 105.605L118.732 176.545C120.47 177.609 121.858 176.744 121.858 174.61V159.776L119.345 158.213Z" fill="#629DFF"/>
<g opacity="0.3">
<path d="M1.74394 0.667846C2.13193 0.688412 2.50851 0.81431 2.83781 1.03355L118.42 72.0067C119.239 72.5878 119.922 73.3624 120.414 74.27C120.906 75.1776 121.195 76.1939 121.258 77.2396V174.61C121.258 175.129 121.145 176.332 120.139 176.332C119.751 176.311 119.374 176.186 119.045 175.966L3.46288 104.98C2.64189 104.4 1.95838 103.626 1.466 102.718C0.973622 101.81 0.685781 100.793 0.625071 99.747V2.38998C0.625071 1.87134 0.73757 0.667846 1.74394 0.667846ZM1.74394 0.00292969C0.712568 0.00292969 0 0.873969 0 2.38998V99.7603C0.0568723 100.921 0.369348 102.051 0.912236 103.059C1.45513 104.067 2.21323 104.926 3.12536 105.565L118.732 176.545C119.157 176.822 119.641 176.978 120.139 176.997C121.17 176.997 121.883 176.126 121.883 174.61V77.2396C121.826 76.0792 121.513 74.9493 120.97 73.941C120.428 72.9326 119.669 72.0742 118.757 71.4349L3.15035 0.455072C2.72603 0.177898 2.24154 0.0221439 1.74394 0.00292969Z" fill="#629DFF"/>
</g>
<path opacity="0.5" d="M33.3475 50.8225L83.4595 81.6014C86.4536 83.4366 88.8726 87.8982 88.8726 91.5752V106.343C88.8726 110.013 86.4536 111.503 83.4595 109.668L33.3475 78.8886C30.3597 77.0534 27.9344 72.5918 27.9344 68.9148V54.147C27.9469 50.4568 30.3597 48.9873 33.3475 50.8225Z" fill="white"/>
<g opacity="0.5">
<path d="M85.8785 110.791C84.9659 110.757 84.0779 110.468 83.3033 109.954L33.1913 79.1812C30.1222 77.2929 27.6219 72.6916 27.6219 68.9149V54.1471C27.6219 52.2455 28.247 50.8225 29.3658 50.1576C30.4847 49.4927 31.9599 49.6124 33.5038 50.5632L83.6158 81.3355C86.6911 83.2239 89.1852 87.8251 89.1852 91.6019V106.37C89.1852 108.271 88.5601 109.694 87.4475 110.359C86.9693 110.647 86.4281 110.797 85.8785 110.791ZM30.9348 50.3638C30.4964 50.357 30.0644 50.4765 29.6846 50.7095C28.7658 51.2747 28.2532 52.4915 28.2532 54.1471V68.9149C28.2532 72.4789 30.6097 76.8208 33.5101 78.6027L83.622 109.382C84.9659 110.206 86.2161 110.346 87.1412 109.781C88.0663 109.215 88.5664 107.992 88.5664 106.343V91.5753C88.5664 88.0113 86.2098 83.6694 83.3095 81.8874L33.1913 51.1218C32.514 50.6644 31.7362 50.4031 30.9348 50.3638Z" fill="#629DFF"/>
</g>
<g opacity="0.5">
<path d="M41.3297 62.9174C41.8452 63.2413 42.311 63.6472 42.7111 64.1209C43.1202 64.6064 43.4825 65.1343 43.7925 65.6968C44.0852 66.2245 44.3241 66.784 44.505 67.3657C44.6622 67.8345 44.7548 68.3249 44.7801 68.8219C44.7844 68.8667 44.7794 68.912 44.7653 68.9545C44.7513 68.9971 44.7286 69.0358 44.6988 69.0679C44.6758 69.0903 44.6457 69.1027 44.6144 69.1027C44.5832 69.1027 44.5531 69.0903 44.5301 69.0679L42.9924 68.1304C42.8943 68.0647 42.8058 67.984 42.7298 67.891C42.6545 67.7757 42.5856 67.6558 42.5236 67.5319C42.5236 67.4787 42.4673 67.3923 42.4173 67.2726C42.3545 67.1294 42.2813 66.9916 42.1985 66.8604C42.0939 66.6954 41.9768 66.5397 41.8485 66.3949C41.6957 66.2273 41.521 66.0839 41.3297 65.9694C41.1931 65.8875 41.051 65.8164 40.9046 65.7566C40.7893 65.7083 40.6659 65.6857 40.5421 65.6901C40.4915 65.6922 40.4419 65.7058 40.3967 65.7298C40.3514 65.7539 40.3115 65.788 40.2796 65.8297C40.2033 65.9536 40.1681 66.1011 40.1796 66.2486C40.1804 66.4368 40.2187 66.6226 40.2921 66.7939C40.3908 67.0066 40.517 67.2035 40.6671 67.379C40.886 67.6421 41.1198 67.8908 41.3672 68.1237L42.4423 69.1543C42.8503 69.5381 43.2286 69.9562 43.5737 70.4044C43.8886 70.814 44.1591 71.2601 44.38 71.7342C44.594 72.1953 44.7556 72.6819 44.8613 73.1837C44.9706 73.73 45.023 74.2875 45.0176 74.846C45.0381 75.3881 44.9463 75.9283 44.7488 76.4285C44.597 76.7969 44.3297 77.0977 43.9925 77.2796C43.6312 77.4495 43.2287 77.4937 42.8424 77.4059C42.3319 77.2978 41.8431 77.0953 41.3984 76.8075C40.8576 76.475 40.3667 76.0581 39.942 75.5708C39.5129 75.0781 39.1337 74.5388 38.8107 73.9617C38.5041 73.4137 38.2547 72.8318 38.0668 72.2262C37.8972 71.7081 37.8024 71.1655 37.7855 70.6171C37.7814 70.5718 37.786 70.5261 37.7989 70.4827C37.8118 70.4393 37.8327 70.3991 37.8605 70.3645C37.8836 70.342 37.9137 70.3296 37.9449 70.3296C37.9762 70.3296 38.0063 70.342 38.0293 70.3645L39.567 71.3087C39.6664 71.3641 39.7537 71.4411 39.8233 71.5347C39.8956 71.6318 39.9584 71.7366 40.0108 71.8472L40.1546 72.1863C40.2271 72.3606 40.3106 72.5294 40.4046 72.6917C40.518 72.8951 40.6522 73.0846 40.8046 73.2569C40.9776 73.4542 41.1779 73.6223 41.3984 73.7555C41.7118 73.972 42.066 74.1127 42.4361 74.1678C42.7111 74.1944 42.8486 74.0149 42.8486 73.6292C42.8468 73.4279 42.7951 73.2306 42.6986 73.0574C42.5714 72.8175 42.4183 72.5944 42.2423 72.3925C42.036 72.1597 41.7797 71.8938 41.461 71.5946C41.1422 71.2953 40.7734 70.9296 40.3421 70.524C39.5898 69.8309 38.9865 68.9737 38.5731 68.0107C38.1902 67.0713 38.0005 66.0556 38.0168 65.0318C38.0068 64.5424 38.0831 64.0552 38.2418 63.5956C38.3688 63.2246 38.6002 62.9042 38.9044 62.678C39.2165 62.4667 39.5864 62.373 39.9545 62.4121C40.4426 62.4692 40.9125 62.6418 41.3297 62.9174Z" fill="#629DFF"/>
<path d="M53.006 70.2846C53.1069 70.353 53.1855 70.4528 53.231 70.5705C53.2909 70.7034 53.3229 70.8486 53.3248 70.996V73.0639C53.3296 73.119 53.3238 73.1746 53.3076 73.2272C53.2915 73.2798 53.2654 73.3283 53.231 73.3698C53.2001 73.3992 53.16 73.4155 53.1185 73.4155C53.077 73.4155 53.0369 73.3992 53.006 73.3698L50.9433 72.0998V81.9472C50.9482 82.0033 50.9424 82.0599 50.9263 82.1136C50.9102 82.1673 50.8841 82.217 50.8495 82.2597C50.818 82.2879 50.7781 82.3033 50.737 82.3033C50.6958 82.3033 50.656 82.2879 50.6245 82.2597L49.093 81.3155C48.9922 81.2471 48.9136 81.1473 48.868 81.0296C48.8082 80.8967 48.7762 80.7515 48.7743 80.6041V70.7567L46.7115 69.4867C46.6107 69.4183 46.5321 69.3184 46.4865 69.2008C46.4266 69.0678 46.3947 68.9226 46.3928 68.7752V66.7406C46.3879 66.6855 46.3938 66.6299 46.4099 66.5773C46.426 66.5247 46.4521 66.4762 46.4865 66.4347C46.5175 66.4053 46.5575 66.389 46.599 66.389C46.6405 66.389 46.6806 66.4053 46.7115 66.4347L53.006 70.2846Z" fill="#629DFF"/>
<path d="M58.7754 73.822C58.9328 73.9242 59.0571 74.0749 59.1317 74.2542C59.2055 74.4223 59.2621 74.5984 59.3005 74.7795L61.857 88.4501C61.8814 88.5525 61.8961 88.6572 61.9008 88.7626C61.9045 88.8079 61.8998 88.8536 61.887 88.8969C61.8741 88.9403 61.8533 88.9805 61.8258 89.0153C61.8007 89.0387 61.7685 89.0516 61.7352 89.0516C61.7018 89.0516 61.6696 89.0387 61.6445 89.0153L60.1693 88.1044C60.0236 88.0253 59.9069 87.8966 59.8381 87.7387C59.7761 87.6163 59.7338 87.4837 59.7131 87.3464L59.3818 85.5511L56.2564 83.6361L55.9314 85.0258C55.914 85.1194 55.8704 85.2051 55.8064 85.2718C55.7439 85.3383 55.6313 85.325 55.4751 85.2253L54.0062 84.3675C53.9223 84.3098 53.8569 84.2263 53.8186 84.1282C53.7703 84.0225 53.7446 83.9066 53.7436 83.7891C53.7487 83.7006 53.7655 83.6132 53.7936 83.5298L56.3502 73.0041C56.3772 72.883 56.4357 72.7725 56.5189 72.685C56.6002 72.5919 56.719 72.5985 56.8752 72.685L58.7754 73.822ZM56.9002 81.0496L58.7754 82.2132L57.8253 77.0535L56.9002 81.0496Z" fill="#629DFF"/>
<path d="M67.2264 79.0482C67.7286 79.3581 68.1927 79.7334 68.6078 80.1652C69.0141 80.5934 69.3632 81.0789 69.6454 81.6081C69.9397 82.165 70.1606 82.7624 70.3018 83.3834C70.4608 84.0686 70.5384 84.7722 70.533 85.4779C70.5703 86.2205 70.4462 86.9622 70.1705 87.6455C70.0762 87.8618 69.9324 88.0495 69.7522 88.1912C69.572 88.333 69.3611 88.4242 69.1391 88.4567L70.5893 93.9223C70.6124 93.9975 70.625 94.076 70.6268 94.1551C70.6311 94.1994 70.6267 94.2441 70.6138 94.2865C70.6008 94.3289 70.5797 94.3679 70.5518 94.4011C70.5257 94.4249 70.4924 94.4381 70.458 94.4381C70.4236 94.4381 70.3903 94.4249 70.3642 94.4011L68.7703 93.4236C68.624 93.3392 68.5076 93.2061 68.439 93.0447C68.3754 92.9033 68.3232 92.7565 68.2828 92.6058L66.9826 87.6921L65.9012 87.0272V91.1363C65.9061 91.1914 65.9002 91.247 65.8841 91.2996C65.868 91.3522 65.8419 91.4007 65.8075 91.4422C65.7765 91.4716 65.7365 91.4879 65.695 91.4879C65.6535 91.4879 65.6134 91.4716 65.5825 91.4422L64.051 90.498C63.951 90.4257 63.8728 90.3241 63.826 90.2055C63.7655 90.0751 63.7334 89.9319 63.7322 89.7866V77.3859C63.7278 77.3308 63.7338 77.2754 63.7499 77.2228C63.766 77.1703 63.7919 77.1217 63.826 77.08C63.8575 77.0519 63.8974 77.0364 63.9385 77.0364C63.9797 77.0364 64.0195 77.0519 64.051 77.08L67.2264 79.0482ZM65.9012 84.055L67.2264 84.8662C67.3422 84.9559 67.474 85.0193 67.6138 85.0525C67.7536 85.0857 67.8984 85.0879 68.039 85.059C68.2578 84.9859 68.364 84.68 68.364 84.1414C68.3872 83.6731 68.2737 83.2086 68.039 82.8116C67.8306 82.4799 67.5524 82.2044 67.2264 82.007L65.9012 81.1892V84.055Z" fill="#629DFF"/>
<path d="M78.7152 86.0698C78.8129 86.143 78.8889 86.2446 78.934 86.3623C78.9963 86.4923 79.0305 86.6354 79.034 86.7812V88.8225C79.0376 88.878 79.0306 88.9338 79.0134 88.9863C78.9962 89.0389 78.9692 89.0872 78.934 89.1284C78.9035 89.156 78.8647 89.1712 78.8246 89.1712C78.7845 89.1712 78.7457 89.156 78.7152 89.1284L76.6525 87.865V97.7124C76.6569 97.7675 76.6509 97.823 76.6348 97.8755C76.6187 97.928 76.5928 97.9766 76.5587 98.0183C76.5278 98.0477 76.4877 98.064 76.4462 98.064C76.4047 98.064 76.3646 98.0477 76.3337 98.0183L74.8273 97.1074C74.7296 97.0341 74.6536 96.9326 74.6085 96.8148C74.548 96.6845 74.5159 96.5413 74.5147 96.3959V86.5419L72.452 85.2785C72.352 85.2062 72.2738 85.1046 72.227 84.9859C72.1664 84.8556 72.1344 84.7124 72.1332 84.5671V82.5324C72.1283 82.4763 72.134 82.4197 72.1501 82.366C72.1663 82.3123 72.1924 82.2626 72.227 82.2199C72.2585 82.1918 72.2983 82.1763 72.3395 82.1763C72.3806 82.1763 72.4205 82.1918 72.452 82.2199L78.7152 86.0698Z" fill="#629DFF"/>
</g>
<path opacity="0.3" d="M11.4325 11.4461C12.5406 12.2165 13.4627 13.2536 14.124 14.4734C14.7853 15.6933 15.1674 17.0616 15.2392 18.4677C15.2392 21.0475 13.5328 22.0981 11.4325 20.8015C10.3232 20.0342 9.40006 18.9987 8.73851 17.7796C8.07695 16.5605 7.69569 15.1923 7.62584 13.7866C7.62584 11.2267 9.32603 10.1562 11.4325 11.4461Z" fill="#629DFF"/>
<path d="M13.6328 16.7189C13.6323 16.2611 13.5429 15.8084 13.3702 15.3891C13.2143 14.9473 12.9351 14.5668 12.5701 14.2986C12.0201 13.9529 11.5638 14.651 11.4888 15.4755C11.4263 14.5646 10.9762 13.3012 10.4261 12.9555C10.304 12.8657 10.1558 12.825 10.008 12.8409C9.86028 12.8567 9.72265 12.928 9.6198 13.0419C9.42099 13.3298 9.32363 13.6828 9.34477 14.0393C9.34477 15.4356 10.1261 16.699 10.7824 18.0288L11.4825 19.4251L12.1826 18.8998C12.8389 18.3879 13.6328 18.1152 13.6328 16.7189Z" fill="#FAFAFA"/>
<path opacity="0.3" d="M22.8588 18.4676C23.973 19.2325 24.9014 20.2666 25.5684 21.4857C26.2353 22.7047 26.622 24.0743 26.6968 25.4825C26.6968 28.069 24.9903 29.113 22.8901 27.823C21.7813 27.0534 20.8587 26.0165 20.1973 24.7965C19.5359 23.5765 19.1543 22.2078 19.0834 20.8015C19.0522 18.2216 20.7524 17.1711 22.8588 18.4676Z" fill="#629DFF"/>
<path d="M25.0091 23.7538C25.0027 23.296 24.9113 22.8441 24.7403 22.424C24.5827 21.9795 24.3014 21.5967 23.934 21.3269C23.3901 20.9877 22.9276 21.6859 22.8588 22.5104C22.7901 21.5995 22.34 20.3295 21.7962 19.9904C21.6735 19.8987 21.524 19.857 21.3748 19.8729C21.2257 19.8888 21.0868 19.9611 20.9836 20.0768C20.7838 20.3641 20.6864 20.7176 20.7086 21.0742C20.7086 22.4705 21.4899 23.7338 22.1463 25.0637L22.8401 26.46L23.5714 25.9214C24.1965 25.4227 25.0028 25.1435 25.0091 23.7538Z" fill="#FAFAFA"/>
<path opacity="0.3" d="M34.2851 25.4826C35.3936 26.2526 36.3158 27.2895 36.9772 28.5095C37.6386 29.7294 38.0205 31.0979 38.0918 32.5041C38.0918 35.0906 36.3854 36.1345 34.2851 34.8446C33.1735 34.0817 32.2466 33.0508 31.5797 31.8354C30.9129 30.62 30.5249 29.2545 30.4472 27.8497C30.4472 25.2366 32.1786 24.1927 34.2851 25.4826Z" fill="#629DFF"/>
<path d="M36.4354 30.7687C36.4304 30.3108 36.339 29.8585 36.1666 29.4389C36.0066 28.9977 35.7256 28.6178 35.3602 28.3484C34.8102 28.0027 34.3539 28.7008 34.2851 29.5253C34.2164 28.6144 33.7663 27.351 33.2163 27.0053C33.0941 26.9155 32.9459 26.8748 32.7981 26.8907C32.6504 26.9065 32.5128 26.9778 32.4099 27.0917C32.2089 27.3787 32.1093 27.7318 32.1286 28.0891C32.1286 29.4854 32.91 30.7488 33.5725 32.0786L34.2664 33.4749L34.9665 32.9496C35.6353 32.4376 36.4291 32.165 36.4354 30.7687Z" fill="#FAFAFA"/>
<path d="M45.4489 33.2687L98.7175 65.9826C99.4897 66.4976 100.137 67.1988 100.607 68.0293C101.077 68.8598 101.357 69.7964 101.424 70.7633C101.424 72.4855 100.211 73.1371 98.7175 72.2195L45.4489 39.5056C44.6767 38.9906 44.0293 38.2895 43.5591 37.4589C43.0889 36.6284 42.8091 35.6918 42.7423 34.7249C42.7611 33.0028 43.9737 32.3511 45.4489 33.2687Z" fill="#FAFAFA"/>
<path opacity="0.5" d="M44.2613 35.6359C44.2941 36.1195 44.4334 36.5882 44.6679 37.004C44.9025 37.4199 45.2257 37.7712 45.6114 38.0296L99.1238 70.9363C99.8676 71.3951 100.474 71.0693 100.474 70.2049C100.44 69.7224 100.3 69.255 100.066 68.8404C99.8314 68.4258 99.5087 68.0756 99.1238 67.8178L45.6114 34.9111C44.8676 34.4523 44.2613 34.7781 44.2613 35.6359Z" fill="#629DFF"/>
<g opacity="0.3">
<path d="M104.206 71.262C104.191 71.1964 104.191 71.1282 104.206 71.0626C104.204 71.0375 104.21 71.0125 104.221 70.9903C104.232 70.968 104.248 70.9494 104.268 70.9362L105.474 70.1583L105.587 70.0918C105.61 70.0795 105.636 70.0731 105.662 70.0731C105.688 70.0731 105.714 70.0795 105.737 70.0918L106.418 70.5107C106.468 70.5431 106.505 70.5923 106.525 70.6503C106.555 70.7144 106.572 70.7847 106.575 70.8564V76.8074C106.577 76.8342 106.573 76.8612 106.565 76.8864C106.556 76.9117 106.542 76.9346 106.525 76.9537C106.525 76.987 106.462 76.987 106.418 76.9537L105.681 76.5016C105.633 76.4671 105.596 76.4185 105.574 76.3619C105.548 76.299 105.533 76.2313 105.531 76.1625V72.1331L104.862 72.552C104.833 72.5786 104.795 72.5786 104.749 72.552C104.703 72.5122 104.668 72.4591 104.649 72.399L104.206 71.262Z" fill="#629DFF"/>
<path d="M109.294 72.2129C109.572 72.3854 109.817 72.6108 110.019 72.8778C110.223 73.1355 110.394 73.4218 110.525 73.7289C110.658 74.0446 110.758 74.3745 110.825 74.713C110.887 75.0508 110.925 75.3931 110.938 75.7369C110.938 76.0029 110.938 76.2822 110.938 76.5747C110.938 76.8673 110.938 77.1266 110.938 77.3793C110.929 77.6752 110.891 77.9693 110.825 78.257C110.775 78.4862 110.671 78.6987 110.525 78.8753C110.391 79.0202 110.21 79.1038 110.019 79.1081C109.761 79.0975 109.51 79.0125 109.294 78.862C109.017 78.6878 108.771 78.4626 108.569 78.1971C108.368 77.9376 108.2 77.6515 108.069 77.346C107.93 77.0326 107.83 76.702 107.769 76.362C107.702 76.0248 107.662 75.6823 107.65 75.338C107.65 75.0853 107.65 74.8127 107.65 74.5201C107.65 74.2276 107.65 73.955 107.65 73.6956C107.658 73.3992 107.698 73.1047 107.769 72.818C107.815 72.5872 107.919 72.3737 108.069 72.1996C108.2 72.0557 108.38 71.9722 108.569 71.9669C108.828 71.9732 109.079 72.0586 109.294 72.2129ZM109.919 76.6745C109.919 76.1558 109.919 75.6439 109.919 75.1252C109.919 74.9656 109.919 74.8127 109.881 74.6731C109.858 74.5374 109.825 74.404 109.781 74.2741C109.737 74.1542 109.676 74.0421 109.6 73.9417C109.521 73.8384 109.426 73.7506 109.319 73.6823C109.236 73.6223 109.137 73.592 109.037 73.5959C109.001 73.5996 108.966 73.6117 108.935 73.6312C108.904 73.6507 108.877 73.6772 108.856 73.7089C108.807 73.7926 108.774 73.885 108.756 73.9816C108.736 74.1136 108.724 74.2469 108.719 74.3805C108.719 74.8792 108.719 75.3978 108.719 75.9298C108.721 76.079 108.734 76.2279 108.756 76.3753C108.772 76.5126 108.805 76.6469 108.856 76.7742C108.899 76.8969 108.96 77.0114 109.037 77.1133C109.116 77.2166 109.211 77.3044 109.319 77.3726C109.401 77.4326 109.5 77.4629 109.6 77.4591C109.636 77.4558 109.671 77.444 109.703 77.4244C109.734 77.4048 109.761 77.3781 109.781 77.346C109.835 77.2648 109.872 77.1716 109.888 77.0734C109.9 76.9408 109.902 76.8074 109.894 76.6745H109.919Z" fill="#629DFF"/>
<path d="M115.063 77.9179C115.064 78.0827 115.051 78.2473 115.026 78.4099C115.007 78.5523 114.969 78.6912 114.913 78.8221C114.859 78.9461 114.787 79.0605 114.701 79.1612C114.606 79.2653 114.496 79.3528 114.376 79.4206L113.588 79.9126L115.001 80.7836C115.048 80.8181 115.085 80.8667 115.107 80.9233C115.136 80.9852 115.151 81.0535 115.151 81.1227V82.1002C115.154 82.1265 115.151 82.1531 115.144 82.1783C115.136 82.2036 115.123 82.2268 115.107 82.2465C115.1 82.2539 115.092 82.2598 115.082 82.2638C115.073 82.2679 115.064 82.2699 115.054 82.2699C115.044 82.2699 115.034 82.2679 115.025 82.2638C115.016 82.2598 115.008 82.2539 115.001 82.2465L112.031 80.4246C111.982 80.3922 111.945 80.3429 111.925 80.285C111.894 80.2235 111.877 80.1552 111.875 80.0855V79.2876C111.875 79.1952 111.888 79.1034 111.913 79.015C111.922 78.9796 111.937 78.9466 111.959 78.918C111.98 78.8894 112.007 78.8658 112.038 78.8487L113.719 77.9112C113.834 77.8542 113.924 77.7516 113.969 77.6253C114.002 77.5109 114.018 77.3923 114.019 77.2729C114.019 77.2263 114.019 77.1665 114.019 77.0801C114.006 76.9896 113.985 76.9006 113.957 76.8141C113.917 76.7141 113.869 76.6184 113.813 76.5282C113.744 76.4301 113.657 76.3486 113.557 76.2888C113.521 76.2602 113.481 76.2395 113.438 76.2281C113.395 76.2166 113.35 76.2147 113.307 76.2223C113.245 76.2352 113.19 76.2705 113.15 76.322C113.115 76.3766 113.09 76.4374 113.075 76.5016C113.075 76.5681 113.044 76.6146 113.038 76.6479C113.032 76.6811 112.988 76.7609 112.95 76.7676C112.901 76.7657 112.854 76.7496 112.813 76.721L112.119 76.3021C112.081 76.2709 112.051 76.2296 112.031 76.1824C112.007 76.1331 111.994 76.0784 111.994 76.0228C111.997 75.782 112.031 75.5426 112.094 75.3114C112.151 75.1157 112.252 74.9377 112.388 74.7928C112.519 74.6632 112.69 74.5898 112.869 74.5866C113.114 74.5909 113.352 74.6694 113.557 74.8127C113.804 74.9679 114.026 75.1656 114.213 75.3978C114.399 75.632 114.558 75.8887 114.688 76.1625C114.812 76.4416 114.908 76.7335 114.976 77.0335C115.035 77.3241 115.064 77.6206 115.063 77.9179Z" fill="#629DFF"/>
<path d="M117.057 81.6014L117.145 81.8342C117.177 81.9179 117.217 81.998 117.263 82.0735C117.308 82.1583 117.362 82.2366 117.426 82.3062C117.489 82.3845 117.566 82.4499 117.651 82.4991C117.718 82.5481 117.795 82.5779 117.876 82.5855C117.937 82.6089 118.003 82.6089 118.063 82.5855C118.124 82.5481 118.171 82.4893 118.195 82.4193C118.234 82.3183 118.251 82.2092 118.245 82.1001C118.245 81.888 118.193 81.6796 118.095 81.495C118.002 81.3087 117.861 81.1542 117.688 81.0496C117.643 81.0182 117.592 80.9977 117.538 80.9897H117.407H117.301C117.273 81.0004 117.242 81.0004 117.213 80.9897L116.338 80.4511C116.29 80.4131 116.251 80.3628 116.226 80.3048C116.195 80.2436 116.182 80.1743 116.188 80.1054L116.357 76.9204C116.355 76.8677 116.371 76.816 116.401 76.7741C116.408 76.7667 116.416 76.7608 116.425 76.7568C116.434 76.7527 116.444 76.7507 116.454 76.7507C116.464 76.7507 116.474 76.7527 116.483 76.7568C116.492 76.7608 116.5 76.7667 116.507 76.7741L118.914 78.2503C118.961 78.2844 118.998 78.3331 119.02 78.3899C119.049 78.4518 119.064 78.5201 119.064 78.5894V79.5668C119.066 79.5931 119.064 79.6197 119.057 79.645C119.049 79.6702 119.036 79.6934 119.02 79.7131C119.013 79.7205 119.005 79.7264 118.995 79.7304C118.986 79.7345 118.977 79.7365 118.967 79.7365C118.957 79.7365 118.947 79.7345 118.938 79.7304C118.929 79.7264 118.921 79.7205 118.914 79.7131L117.276 78.7024L117.238 79.5003C117.315 79.4834 117.393 79.4834 117.47 79.5003C117.574 79.5198 117.674 79.5604 117.763 79.62C117.996 79.7574 118.207 79.9324 118.388 80.1386C118.579 80.3553 118.742 80.5966 118.876 80.8567C119.016 81.1339 119.124 81.4288 119.195 81.7344C119.273 82.0626 119.313 82.3998 119.314 82.7384C119.323 83.0437 119.278 83.3482 119.182 83.6361C119.121 83.8391 118.998 84.0146 118.832 84.1348C118.68 84.243 118.494 84.2858 118.313 84.2545C118.092 84.2175 117.879 84.1338 117.688 84.0084C117.434 83.8516 117.203 83.6568 117.001 83.43C116.803 83.203 116.633 82.9506 116.495 82.6786C116.36 82.4196 116.253 82.1452 116.176 81.8608C116.102 81.5995 116.062 81.3289 116.057 81.0562C116.054 81.0116 116.065 80.9673 116.088 80.9299C116.102 80.9196 116.118 80.914 116.135 80.914C116.152 80.914 116.168 80.9196 116.182 80.9299L116.895 81.3687C116.951 81.4051 116.998 81.4553 117.032 81.515C117.041 81.5435 117.05 81.5723 117.057 81.6014Z" fill="#629DFF"/>
</g>
</svg>
