<svg width="10" height="58" viewBox="0 0 10 58" fill="none" xmlns="http://www.w3.org/2000/svg">
<path d="M1.30383 58.0002C1.86501 57.4105 2.2974 56.6968 2.5704 55.9099C3.13681 53.6945 2.95491 51.3383 2.05632 49.2507C1.58694 47.8967 0.938751 46.4477 0.461923 44.7928C0.213315 43.9356 0.058324 43.0509 0 42.1561C0 41.6889 0 41.2138 0 40.7387C0 40.2636 0.163904 39.7965 0.238408 39.3135C0.760646 37.3516 1.60291 35.5023 2.72685 33.85C3.83697 32.1001 5.111 30.4056 6.29562 28.5844C7.49777 26.8672 8.39185 24.9292 8.93306 22.8675C9.35785 20.9307 9.15029 18.898 8.34449 17.1031C7.58517 15.4842 6.63369 13.9754 5.51332 12.6136C4.50006 11.2992 3.4868 10.1035 2.71196 8.89205C1.99248 7.81381 1.40419 6.6432 0.961101 5.40808C0.625431 4.47116 0.441538 3.48057 0.417223 2.47836C0.409843 1.8464 0.490172 1.21674 0.655631 0.609687C0.711804 0.399392 0.786646 0.195253 0.879146 0C0.655604 0.803975 0.552517 1.64032 0.573675 2.47836C0.623352 3.45614 0.822142 4.41885 1.16227 5.32889C1.62352 6.53241 2.21883 7.67282 2.93547 8.72576C3.68052 9.90556 4.73102 11.1012 5.75918 12.3998C6.91493 13.7713 7.89451 15.2996 8.67231 16.9448C9.51777 18.8142 9.73851 20.934 9.29814 22.9546C8.75609 25.0725 7.84365 27.0629 6.60853 28.822C5.42391 30.651 4.14244 32.3455 3.04723 34.0717C1.9442 35.6837 1.11235 37.4867 0.588579 39.4006C0.506625 39.8677 0.394874 40.3191 0.350171 40.7783C0.305469 41.2376 0.350162 41.6889 0.305459 42.1323C0.355909 43.0023 0.500916 43.8632 0.737586 44.6978C1.19206 46.321 1.8179 47.7779 2.27983 49.1557C3.17053 51.3031 3.31055 53.7179 2.6747 55.9653C2.4672 56.5559 2.14767 57.095 1.73595 57.5489C1.63306 57.6694 1.52091 57.7807 1.40067 57.8815C1.37256 57.9247 1.34009 57.9645 1.30383 58.0002Z" fill="#455A64"/>
</svg>
