<svg width="192" height="215" viewBox="0 0 192 215" fill="none" xmlns="http://www.w3.org/2000/svg">
<path d="M48.6678 189.582L104.96 215L164.848 209.613L110.162 188.385L48.6678 189.582Z" fill="#F5F5F5"/>
<path d="M102.901 209.613L102.7 204.818L160.794 201.408V205.371L102.901 209.613Z" fill="#E0E0E0"/>
<path d="M156.482 203.658C156.482 203.772 144.536 204.719 129.792 205.772C115.048 206.825 103.081 207.598 103.073 207.492C103.066 207.386 115.012 206.439 129.763 205.378C144.514 204.317 156.475 203.552 156.482 203.658Z" fill="#263238"/>
<path d="M102.794 205.371L65.8729 189.923L65.8011 192.832L102.901 209.53L102.794 205.371Z" fill="#E0E0E0"/>
<path d="M65.8729 189.923L102.794 205.371L160.794 201.408L116.828 187.877L65.8729 189.923Z" fill="white"/>
<path d="M65.8729 189.915L116.813 187.703H116.863L160.851 201.196C160.898 201.212 160.936 201.246 160.959 201.291C160.982 201.337 160.987 201.389 160.973 201.439C160.963 201.478 160.942 201.512 160.912 201.538C160.883 201.564 160.847 201.579 160.808 201.583H160.292L102.808 205.477H102.736L65.8729 189.877L102.851 205.219H102.787L160.249 201.242H160.773L160.729 201.628L116.77 188.067H116.82L65.8729 189.915Z" fill="#263238"/>
<path d="M102.901 209.613C102.653 208.211 102.653 206.773 102.901 205.371C103.15 206.773 103.15 208.211 102.901 209.613Z" fill="#263238"/>
<path d="M142.47 198.522C142.47 198.628 133.58 199.279 122.596 199.946C111.611 200.613 102.7 201.09 102.693 200.984C102.686 200.878 111.59 200.226 122.574 199.552C133.559 198.878 142.463 198.408 142.47 198.522Z" fill="#263238"/>
<path d="M137.591 196.84C137.591 196.946 128.702 197.597 117.717 198.272C106.733 198.946 97.829 199.416 97.829 199.31C97.829 199.203 106.726 198.552 117.71 197.878C128.694 197.203 137.591 196.734 137.591 196.84Z" fill="#263238"/>
<path d="M132.719 195.135C132.719 195.241 123.823 195.893 112.838 196.559C101.854 197.226 92.943 197.703 92.9358 197.597C92.9286 197.491 101.832 196.84 112.817 196.165C123.801 195.491 132.712 195.052 132.719 195.135Z" fill="#263238"/>
<path d="M127.841 193.484C127.841 193.59 118.944 194.241 107.959 194.915C96.975 195.59 88.0713 196.059 88.0641 195.946C88.0569 195.832 96.9535 195.188 107.938 194.521C118.922 193.855 127.833 193.377 127.841 193.484Z" fill="#263238"/>
<path d="M122.94 191.801C122.94 191.915 114.044 192.559 103.066 193.233C92.089 193.908 83.1709 194.377 83.1637 194.271C83.1565 194.165 92.0531 193.514 103.045 192.839C114.036 192.165 122.94 191.695 122.94 191.801Z" fill="#263238"/>
<path d="M118.083 190.127C118.083 190.233 109.194 190.885 98.2092 191.559C87.2248 192.233 78.3138 192.703 78.3066 192.589C78.2995 192.476 87.1961 191.832 98.1877 191.165C109.179 190.498 118.076 190.021 118.083 190.127Z" fill="#263238"/>
<path d="M169.002 131.267C169.002 131.267 145.67 109.728 142.678 106.781C130.947 95.1813 122.237 94.6585 122.237 94.6585L111.676 92.2417L82.9198 87.552L56.7107 91.878L48.101 130.881L47.484 150.533L44.485 187.437H135.388L134.886 179.255L137.29 143.465L136.967 150.397L148.224 160.602L169.002 131.267Z" fill="#FF725E"/>
<path d="M138.251 126.623C138.261 126.757 138.261 126.891 138.251 127.025C138.251 127.328 138.251 127.714 138.208 128.191C138.151 129.244 138.072 130.699 137.978 132.479C137.756 136.131 137.455 141.109 137.118 146.609C136.78 152.11 136.4 157.08 136.17 160.731C136.034 162.512 135.927 163.959 135.848 165.012C135.805 165.489 135.769 165.876 135.747 166.171C135.739 166.306 135.719 166.441 135.69 166.573C135.672 166.437 135.672 166.299 135.69 166.164C135.69 165.868 135.69 165.482 135.74 164.997C135.79 163.951 135.869 162.497 135.962 160.716C136.185 157.064 136.493 152.087 136.823 146.586C137.153 141.086 137.541 136.116 137.778 132.464C137.907 130.691 138.022 129.237 138.1 128.191C138.1 127.706 138.172 127.32 138.201 127.025C138.203 126.889 138.219 126.754 138.251 126.623Z" fill="#263238"/>
<g opacity="0.3">
<path d="M138.509 123.024C138.509 123.494 136.995 147.268 136.967 147.715C140.777 139.881 142.011 131.017 138.509 123.024Z" fill="black"/>
</g>
<g opacity="0.3">
<path d="M46.6086 161.413C53.0659 155.64 53.7833 146.829 53.0659 137.927L47.5342 149.678L46.6086 161.413Z" fill="black"/>
</g>
<path d="M11.015 139.988C11.5244 139.988 41.8016 160.322 41.8016 160.322L62.8593 125.843L56.7321 91.9087C56.7321 91.9087 44.2195 93.9088 38.7452 100.243C35.3444 104.144 11.015 139.988 11.015 139.988Z" fill="#FF725E"/>
<path d="M61.525 122.486C61.6077 122.046 61.7131 121.611 61.8406 121.183C62.1279 120.002 62.3436 118.803 62.4864 117.592C62.6982 115.8 62.7295 113.989 62.5796 112.19C62.4289 109.993 61.8629 107.85 60.9151 105.887C59.8983 103.961 58.556 102.248 56.9547 100.834C55.6503 99.6738 54.202 98.7077 52.6499 97.9621C51.1963 97.309 49.6877 96.8016 48.1442 96.4469C48.2537 96.4318 48.3647 96.4318 48.4742 96.4469C48.6894 96.4469 49.0123 96.4999 49.4141 96.5908C50.5614 96.8238 51.6821 97.1844 52.7575 97.6666C54.3555 98.3825 55.8466 99.3395 57.1843 100.508C58.837 101.963 60.2126 103.737 61.238 105.735C62.2101 107.746 62.7815 109.945 62.9168 112.198C63.0528 114.023 62.9926 115.858 62.7375 117.668C62.5766 118.888 62.3199 120.092 61.9698 121.267C61.8829 121.586 61.7774 121.9 61.6541 122.206C61.5824 122.403 61.5393 122.494 61.525 122.486Z" fill="#263238"/>
<path d="M101.473 11.2821L100.132 11.2139C85.6031 11.3124 77.5602 24.3966 78.0625 39.7309L79.3324 90.4918L80.4014 92.242C83.9042 97.9489 88.9873 102.377 94.9589 104.925C96.765 105.691 98.7218 105.977 100.657 105.757C102.592 105.536 104.447 104.817 106.057 103.663C107.667 102.508 108.984 100.953 109.891 99.1344C110.798 97.3159 111.268 95.2898 111.26 93.2344C111.26 93.2344 111.26 89.1811 111.303 89.1811C111.346 89.1811 125.344 87.6659 126.233 72.968C126.671 65.869 126.434 51.1786 126.075 37.8823C125.886 30.9966 123.251 24.4379 118.693 19.5097C114.135 14.5815 107.988 11.6444 101.473 11.2821Z" fill="#FFBF9D"/>
<path d="M111.36 89.1583C111.36 89.1583 102.557 89.2189 93.5095 82.5063C93.5095 82.5063 97.3265 93.795 111.281 93.2343L111.36 89.1583Z" fill="#FF9A6C"/>
<path d="M121.9 49.8072C121.879 50.3538 121.657 50.8702 121.28 51.2455C120.903 51.6208 120.402 51.8253 119.884 51.8149C119.63 51.823 119.377 51.7773 119.14 51.6805C118.903 51.5837 118.687 51.4378 118.505 51.2514C118.322 51.0649 118.177 50.8418 118.077 50.595C117.978 50.3483 117.926 50.083 117.925 49.8148C117.946 49.2675 118.168 48.7504 118.545 48.3738C118.921 47.9973 119.423 47.7912 119.941 47.7995C120.196 47.7903 120.45 47.8355 120.688 47.9324C120.925 48.0293 121.142 48.1758 121.325 48.3633C121.508 48.5508 121.653 48.7753 121.752 49.0234C121.851 49.2715 121.901 49.5381 121.9 49.8072Z" fill="#263238"/>
<path d="M122.818 43.5115C122.56 43.7767 121.111 42.5114 118.973 42.4054C116.835 42.2993 115.213 43.3372 114.991 43.0493C114.883 42.9205 115.156 42.4357 115.866 41.9508C116.826 41.3221 117.946 41.023 119.073 41.0947C120.185 41.151 121.251 41.581 122.115 42.322C122.747 42.8902 122.94 43.3978 122.818 43.5115Z" fill="#263238"/>
<path d="M102.134 49.2237C102.111 49.771 101.887 50.2874 101.509 50.6625C101.131 51.0376 100.629 51.2418 100.111 51.2314C99.857 51.2395 99.6045 51.1938 99.3681 51.0969C99.1316 51.0001 98.916 50.854 98.734 50.6675C98.552 50.4809 98.4073 50.2577 98.3085 50.011C98.2098 49.7643 98.1589 49.4991 98.1591 49.2313C98.1778 48.6833 98.3996 48.1651 98.7767 47.7881C99.1538 47.4112 99.656 47.2057 100.175 47.216C100.43 47.2079 100.683 47.2538 100.92 47.3511C101.158 47.4483 101.374 47.5949 101.557 47.7822C101.739 47.9694 101.885 48.1935 101.984 48.4411C102.083 48.6888 102.134 48.9549 102.134 49.2237Z" fill="#263238"/>
<path d="M101.825 42.89C101.56 43.1476 100.11 41.8899 97.9724 41.7763C95.8343 41.6626 94.2129 42.7081 93.9904 42.4202C93.8828 42.2914 94.1555 41.8141 94.8729 41.3217C95.8307 40.6954 96.9482 40.3965 98.0728 40.4656C99.186 40.527 100.253 40.9564 101.122 41.6929C101.753 42.2611 101.947 42.7688 101.825 42.89Z" fill="#263238"/>
<path d="M108.641 60.6716C108.641 60.5428 109.983 60.3686 112.15 60.1943C112.702 60.1943 113.226 60.0807 113.333 59.6943C113.409 59.0994 113.311 58.4943 113.054 57.9593L111.654 53.459C109.717 47.0798 108.347 41.8522 108.591 41.7688C108.835 41.6855 110.6 46.7919 112.537 53.1711L113.871 57.6714C114.175 58.3854 114.236 59.1883 114.044 59.9443C113.95 60.1363 113.817 60.3039 113.655 60.435C113.492 60.566 113.304 60.6572 113.104 60.7019C112.795 60.7711 112.479 60.7992 112.164 60.7852C110.026 60.861 108.648 60.8004 108.641 60.6716Z" fill="#263238"/>
<path d="M102.851 35.8593C102.528 36.4199 100.483 35.7002 97.9578 35.5032C95.4324 35.3062 93.3087 35.6017 93.0791 34.9956C92.9786 34.7077 93.4306 34.238 94.349 33.791C95.5553 33.298 96.852 33.1012 98.141 33.2154C99.43 33.3296 100.677 33.7518 101.789 34.4501C102.636 35.0183 103.009 35.5866 102.851 35.8593Z" fill="#263238"/>
<path d="M123.249 36.8746C122.782 37.3746 121.061 36.7685 118.944 36.6625C116.827 36.5564 115.055 36.8595 114.639 36.3064C114.467 36.0412 114.768 35.5488 115.558 35.079C116.648 34.5135 117.863 34.27 119.073 34.3744C120.279 34.43 121.448 34.8336 122.452 35.5412C123.227 36.0943 123.45 36.6322 123.249 36.8746Z" fill="#263238"/>
<path d="M78.6653 49.9738C78.4357 49.8526 69.2521 46.466 69.0584 56.5273C68.8646 66.5885 79.1747 64.9369 79.1747 64.649C79.1747 64.3611 78.6653 49.9738 78.6653 49.9738Z" fill="#FFBF9D"/>
<path d="M75.6589 60.5579C75.6589 60.5579 75.4939 60.6792 75.2069 60.8079C75.0102 60.894 74.7993 60.9383 74.5863 60.9383C74.3733 60.9383 74.1625 60.894 73.9657 60.8079C72.9684 60.3988 72.1505 58.6942 72.1433 56.8759C72.133 56.0126 72.3071 55.1581 72.6527 54.3757C72.7471 54.0623 72.9129 53.7782 73.1356 53.5484C73.3583 53.3185 73.631 53.1499 73.9298 53.0574C74.1212 53.0089 74.3225 53.0323 74.4992 53.1236C74.676 53.2148 74.8171 53.3683 74.8984 53.5575C75.0204 53.8378 74.9558 54.0423 75.006 54.0575C75.0563 54.0726 75.2141 53.8908 75.1424 53.4741C75.0929 53.2259 74.9667 53.002 74.7836 52.8377C74.6553 52.7302 74.5081 52.6507 74.3504 52.6038C74.1927 52.557 74.0278 52.5438 73.8653 52.565C73.4741 52.6379 73.1071 52.8155 72.7994 53.0807C72.4917 53.346 72.2534 53.6901 72.1075 54.0802C71.684 54.9437 71.4672 55.9035 71.4761 56.8759C71.4761 58.9063 72.4447 60.8231 73.815 61.2701C74.0702 61.3541 74.3399 61.3767 74.6044 61.336C74.8689 61.2954 75.1214 61.1926 75.3432 61.0352C75.6374 60.8004 75.6948 60.5806 75.6589 60.5579Z" fill="#FF9A6C"/>
<path d="M101.904 61.9898C102.234 61.9898 102.227 64.2627 104.056 65.937C105.886 67.6114 108.254 67.3538 108.268 67.6795C108.268 67.8235 107.744 68.1266 106.761 68.1417C105.478 68.1557 104.233 67.6886 103.246 66.8235C102.297 65.9955 101.69 64.8113 101.552 63.5202C101.509 62.5504 101.76 61.9746 101.904 61.9898Z" fill="#263238"/>
<path d="M145.476 24.1539C145.32 23.5572 144.953 23.047 144.45 22.7295C143.367 22.0249 142.111 22.0855 140.863 22.0401C137.828 21.9048 134.863 21.0448 132.188 19.5248C133.142 19.0588 134.021 18.4375 134.793 17.6837C136.371 16.0927 137.304 13.6304 136.644 11.4409C136.605 11.2293 136.519 11.0303 136.395 10.8594C136.27 10.6885 136.11 10.5504 135.926 10.456C135.309 10.2439 134.757 10.8727 134.312 11.3727C132.877 13.0168 131.528 13.7062 129.419 13.4259C128.152 13.314 126.925 12.8995 125.832 12.2137C125.789 12.1682 125.753 12.1152 125.717 12.0697C125.229 11.5167 124.755 10.9939 124.282 10.4787C120.773 6.63756 117.746 3.96313 114.596 2.53879C109.983 0.455319 102.213 -0.491712 97.3337 0.705337C92.455 1.90239 88.0067 6.00872 87.2246 11.2288C84.5485 8.73617 80.4661 8.66042 77.1226 9.99384L77.0366 9.94838C73.3201 11.2515 71.1318 15.3275 69.9623 19.2748C69.8977 19.4945 69.8403 19.7066 69.7829 19.9263C68.4962 22.0004 66.7566 23.7178 64.7104 24.9342C64.3445 25.1464 63.9284 25.4039 63.8782 25.8358C63.8862 26.0517 63.9465 26.2619 64.0532 26.4462C64.16 26.6306 64.3097 26.783 64.488 26.8889C65.3667 27.5764 66.3786 28.0499 67.4512 28.2753C67.097 29.214 66.6674 30.1189 66.1669 30.9801C65.7364 31.7377 65.227 32.6014 65.5714 33.3817C65.7361 33.6659 65.9787 33.8904 66.2669 34.0257C66.5552 34.161 66.8756 34.2007 67.1857 34.1394C67.8082 34.0176 68.3997 33.7595 68.922 33.3817L67.6234 36.4729C68.9581 36.7438 70.3346 36.679 71.6412 36.2835C72.3587 40.0186 72.7963 46.8902 73.6501 49.4586C76.1828 49.5646 76.7998 49.2919 78.0697 49.7692C79.7055 50.3829 79.0168 53.4588 81.1835 52.6254C82.2812 52.2087 84.0534 47.8676 84.4408 46.7008C87.0323 38.9302 88.0111 30.6619 87.3107 22.4568C88.88 20.7654 90.7436 19.4097 92.7993 18.4641L92.6343 18.6156C96.5589 17.2746 101 15.9715 104.659 17.9868C107.529 19.5551 109.115 22.7371 111.21 25.2979C115.177 30.1467 119.726 32.7908 125.781 33.1999C126.233 37.6623 126.248 44.9355 126.363 49.1101L129.892 40.8822C130.172 40.3974 130.409 39.9125 130.61 39.4276L130.689 39.2836C131.036 38.4853 131.421 37.7064 131.844 36.9502L131.88 36.988C133.968 39.0185 137.168 36.0637 135.539 33.609C135.218 33.1177 134.826 32.683 134.377 32.3211C134.85 32.8217 135.437 33.1856 136.081 33.378C136.726 33.5704 137.406 33.5847 138.057 33.4196C138.702 33.2277 139.269 32.8162 139.67 32.249C140.071 31.6819 140.284 30.9907 140.274 30.2831C140.231 29.8055 140.07 29.3484 139.807 28.9574C139.544 28.5664 139.188 28.2555 138.775 28.0556C140.51 28.2471 142.26 27.8828 143.797 27.0101C144.801 26.4116 145.784 25.4646 145.476 24.1539Z" fill="#263238"/>
<path d="M145.476 24.154C145.536 24.3389 145.561 24.5347 145.548 24.7298C145.502 25.3137 145.245 25.8565 144.83 26.2451C144.149 26.8759 143.35 27.3483 142.484 27.6315C141.303 28.0506 140.051 28.2028 138.811 28.0785V27.9497C139.158 28.1285 139.465 28.383 139.713 28.6964C139.96 29.0098 140.142 29.3751 140.246 29.768C140.343 30.2195 140.337 30.6889 140.23 31.1378C140.123 31.5868 139.917 32.0026 139.629 32.3515C139.323 32.7459 138.938 33.0624 138.5 33.2775C138.063 33.4926 137.585 33.6008 137.103 33.594C136.047 33.5696 135.039 33.1228 134.283 32.344L134.405 32.1924C134.961 32.634 135.425 33.1909 135.769 33.8289C135.94 34.1761 136.038 34.5588 136.056 34.9502C136.056 35.3525 135.968 35.7495 135.797 36.1094C135.621 36.4789 135.372 36.8049 135.068 37.066C134.764 37.3271 134.411 37.5175 134.032 37.6246C133.63 37.7319 133.208 37.7283 132.807 37.6142C132.407 37.5002 132.04 37.2794 131.744 36.973H131.909L130.832 39.3065L130.015 40.9127L129.821 41.2915V40.8597V40.8218L130.043 40.8672L126.528 49.1178L126.298 49.6557V49.0648C126.147 44.2084 126.205 38.8368 125.703 33.2001L125.839 33.3364C122.82 33.171 119.877 32.2851 117.229 30.7454C114.472 29.04 112.066 26.7677 110.155 24.0631C109.201 22.6609 108.168 21.32 107.063 20.0477C105.931 18.7632 104.474 17.8482 102.865 17.4111C101.213 17.0257 99.5027 17.0077 97.8432 17.3581C96.1393 17.7002 94.4609 18.1712 92.8209 18.7673L92.003 19.0476L92.6559 18.4491L92.8281 18.2976L93.0075 18.6082C90.9759 19.5507 89.1327 20.8929 87.5762 22.563L87.6265 22.4115C88.1974 29.0943 87.6657 35.831 86.0552 42.3219C85.6319 43.9962 85.1512 45.6479 84.57 47.3071C83.972 48.9645 83.1944 50.5433 82.2526 52.0119C81.8293 52.7695 80.6383 53.406 79.8347 52.5953C79.5657 52.2226 79.3571 51.8053 79.2177 51.3604C79.088 50.9617 78.8857 50.5937 78.6222 50.277C78.5537 50.2122 78.4818 50.1515 78.407 50.0951L78.1559 49.9663C77.9655 49.8943 77.7715 49.8336 77.5747 49.7845C77.1705 49.7028 76.7592 49.6672 76.3478 49.6784C75.5084 49.6784 74.6403 49.6784 73.7865 49.6784H73.6573V49.5496C73.2784 48.1919 73.0072 46.8031 72.8466 45.3978C72.4233 42.3673 72.165 39.3368 71.6412 36.3063L71.8708 36.4579C70.536 36.8596 69.1308 36.927 67.7669 36.6548L67.5373 36.6094L67.6306 36.3821L68.9292 33.2834L69.1947 33.5334C68.5484 34.0476 67.7652 34.3339 66.9562 34.3517C66.5252 34.3184 66.1202 34.122 65.8154 33.7986C65.6707 33.6263 65.5652 33.4214 65.5068 33.1995C65.4483 32.9777 65.4386 32.7447 65.4782 32.5182C65.7004 31.7267 66.0446 30.9793 66.497 30.3059C66.8606 29.6189 67.1817 28.9078 67.4584 28.177L67.5947 28.4422C66.509 28.2125 65.4833 27.7369 64.5885 27.0481C64.3442 26.8716 64.1387 26.6416 63.9859 26.3739C63.9024 26.2197 63.8627 26.0434 63.8716 25.866C63.8805 25.6887 63.9376 25.5178 64.0361 25.3738C64.218 25.1318 64.4483 24.9352 64.7105 24.798C64.9473 24.654 65.1697 24.5252 65.428 24.3737C67.1918 23.2093 68.6989 21.6593 69.8476 19.828V19.881C70.3954 17.7276 71.2675 15.6811 72.4305 13.82C73.5672 11.9584 75.247 10.5382 77.216 9.77427H77.2877H77.3451L77.4312 9.81215H77.2949C79.0069 9.1231 80.8418 8.84114 82.6687 8.98634C84.4728 9.11386 86.1905 9.84949 87.5691 11.085L87.2892 11.191C87.6633 8.94862 88.6338 6.86486 90.0874 5.18306C91.4827 3.55206 93.1961 2.2597 95.1097 1.39493C96.9618 0.571718 98.9414 0.114616 100.95 0.046352C102.865 -0.0586662 104.786 0.0148505 106.69 0.266058C108.53 0.488467 110.351 0.863393 112.135 1.38735C113.856 1.87964 115.505 2.6189 117.035 3.58446C119.811 5.51898 122.349 7.80932 124.59 10.4031L124.382 10.5546L124.605 10.4258C125.164 11.0622 125.667 11.6002 126.147 12.1608C127.069 12.7529 128.098 13.1349 129.168 13.2821C130.172 13.5203 131.219 13.4653 132.196 13.123C133.104 12.7162 133.91 12.0909 134.549 11.2971C134.858 10.8763 135.277 10.5602 135.754 10.3879C135.88 10.3643 136.009 10.369 136.132 10.4016C136.256 10.4343 136.372 10.4942 136.472 10.5773C136.661 10.7522 136.806 10.9733 136.895 11.2213C137.214 12.1401 137.281 13.1354 137.089 14.0927C136.904 14.9874 136.558 15.8362 136.07 16.5929C135.155 17.9357 133.916 18.9953 132.483 19.6613V19.5098C134.311 20.5474 136.277 21.2857 138.316 21.6993C139.128 21.8666 139.95 21.9754 140.777 22.0251C141.494 22.0781 142.211 22.0251 142.821 22.1387C143.762 22.1768 144.651 22.604 145.297 23.3282C145.448 23.5202 145.566 23.738 145.648 23.9722C145.675 24.0507 145.694 24.1319 145.706 24.2146C145.622 23.8968 145.47 23.6038 145.261 23.3585C144.618 22.6571 143.739 22.2516 142.814 22.2296C142.211 22.1615 141.523 22.1766 140.769 22.1387C139.939 22.0909 139.112 21.9872 138.294 21.8281C136.24 21.4278 134.255 20.697 132.411 19.6613L132.267 19.5779L132.411 19.5098C133.82 18.849 135.036 17.8028 135.934 16.4793C136.412 15.7488 136.746 14.9244 136.917 14.0549C137.098 13.1377 137.034 12.1852 136.73 11.3047C136.678 11.0878 136.553 10.898 136.379 10.77C136.205 10.642 135.994 10.5844 135.783 10.6077C135.35 10.775 134.972 11.0694 134.692 11.4562C134.032 12.2757 133.203 12.9238 132.267 13.3503C131.25 13.7101 130.159 13.773 129.11 13.5321C128.008 13.3791 126.948 12.9871 125.997 12.3805C125.523 11.8199 125.021 11.2819 124.454 10.6531V10.6152L124.677 10.4864L125.057 11.2441L124.468 10.6077C122.24 8.04526 119.716 5.78765 116.957 3.88752C115.446 2.93768 113.819 2.21116 112.121 1.72828C110.35 1.21227 108.544 0.842443 106.718 0.622144C104.814 0.380655 102.894 0.312225 100.979 0.417593C99.0042 0.487636 97.0587 0.939587 95.2388 1.75101C93.3717 2.59873 91.7001 3.8625 90.3385 5.4558C88.9286 7.09224 87.9881 9.118 87.6265 11.2971L87.5762 11.6153L87.3466 11.4032C86.0241 10.215 84.373 9.51064 82.64 9.39545C80.8643 9.25488 79.081 9.52907 77.4169 10.1985H77.3523H77.2806L77.2016 10.1531H77.3308C75.3489 10.8422 73.6468 12.2203 72.5022 14.0624C71.3601 15.8851 70.5048 17.891 69.9695 20.0022C68.7957 21.8896 67.2519 23.4889 65.4423 24.6919C64.9875 24.9288 64.5652 25.2295 64.1867 25.5859C63.9213 25.9572 64.2513 26.4269 64.6674 26.7299C65.5206 27.387 66.5005 27.8371 67.5373 28.0482L67.7526 28.0937L67.6736 28.3134C67.3884 29.0611 67.0601 29.7898 66.6907 30.4953C66.2624 31.1277 65.9329 31.8286 65.715 32.5712C65.6834 32.7389 65.6883 32.9119 65.7293 33.0773C65.7703 33.2427 65.8464 33.396 65.9517 33.5258C66.1959 33.776 66.5163 33.9263 66.8557 33.9501C67.5876 33.9216 68.2936 33.6572 68.879 33.1925L69.3812 32.8667L69.1445 33.4349C68.7068 34.4653 68.2763 35.4957 67.8387 36.5336L67.7095 36.2609C69.0164 36.5192 70.3621 36.4543 71.6412 36.0715L71.8421 36.0184L71.878 36.223C72.4089 39.2535 72.6672 42.284 73.0905 45.3145C73.2467 46.6938 73.5106 48.0572 73.8797 49.3905L73.7076 49.2542C74.5542 49.292 75.4008 49.2542 76.2546 49.2542C76.6924 49.2436 77.1301 49.2817 77.5604 49.3678C77.7739 49.4219 77.9846 49.4877 78.1917 49.5648L78.5146 49.7315C78.61 49.8037 78.7011 49.8821 78.7872 49.9663C79.4545 50.6861 79.5047 51.7013 80.0141 52.2922C80.1439 52.4194 80.3058 52.5042 80.4802 52.5364C80.6545 52.5687 80.834 52.547 80.997 52.4741C81.3616 52.3368 81.6689 52.0687 81.8652 51.7164C82.7866 50.2757 83.5473 48.7275 84.1324 47.1025C84.7064 45.4888 85.1871 43.822 85.6104 42.1704C87.2066 35.7234 87.7381 29.034 87.1816 22.3963L87.239 22.3357C88.826 20.6293 90.7089 19.2609 92.7851 18.3051L93.8397 17.8203L92.9214 18.6082L92.7563 18.7597L92.5842 18.4491C94.2503 17.8488 95.9551 17.3753 97.6854 17.0323C99.3924 16.6715 101.152 16.6922 102.851 17.0929C104.521 17.5448 106.033 18.4942 107.206 19.828C108.317 21.1147 109.357 22.4681 110.32 23.8813C112.201 26.5525 114.57 28.7988 117.287 30.4878C119.91 31.9992 122.825 32.8594 125.81 33.0031H125.939V33.1319C126.442 38.8065 126.37 44.1705 126.513 49.042L126.262 48.989L129.799 40.7687L130 40.3142V40.8142L129.785 40.7536L130.603 39.1626V39.2156V39.1702L131.765 36.8291L131.83 36.7003L131.937 36.8064C132.206 37.0868 132.539 37.2898 132.903 37.3959C133.267 37.502 133.651 37.5077 134.018 37.4125C134.37 37.3125 134.698 37.1345 134.98 36.8902C135.263 36.6459 135.492 36.341 135.654 35.9957C135.816 35.6683 135.899 35.3043 135.898 34.935C135.886 34.5779 135.798 34.2282 135.639 33.9122C135.313 33.2963 134.868 32.7595 134.334 32.3364L134.456 32.1924C135.175 32.9402 136.137 33.3708 137.146 33.3971C137.604 33.4051 138.058 33.3044 138.474 33.1025C138.89 32.9005 139.257 32.6025 139.55 32.2303C139.825 31.9022 140.022 31.5104 140.127 31.0866C140.232 30.6627 140.24 30.2188 140.152 29.7907C140.052 29.4142 139.876 29.0646 139.637 28.7654C139.399 28.4663 139.102 28.2243 138.768 28.0558L138.438 27.8891L138.796 27.927C140.023 28.0622 141.262 27.9228 142.434 27.5179C143.292 27.25 144.087 26.793 144.766 26.1769C145.179 25.803 145.437 25.2723 145.483 24.6995C145.499 24.5179 145.497 24.335 145.476 24.154Z" fill="#455A64"/>
<path d="M91.5941 13.0247C91.0817 13.4209 90.6017 13.8619 90.1591 14.3429C89.0241 15.7226 88.25 17.3914 87.9135 19.1841C87.6472 20.41 87.5029 21.6618 87.483 22.9193C87.4471 24.2754 87.483 25.73 87.5834 27.268C87.6805 28.8776 87.6805 30.4921 87.5834 32.1017C87.5202 32.956 87.3979 33.8042 87.2175 34.6397C87.0751 35.5361 86.7168 36.3788 86.1772 37.0869C85.9302 37.3696 85.6176 37.5792 85.2702 37.6948C84.9228 37.8104 84.5528 37.8281 84.197 37.746C83.5147 37.5935 82.8993 37.2073 82.4464 36.6474C81.7126 35.5259 81.2743 34.2185 81.1764 32.8593L81.4706 32.9048C81.0238 33.9979 80.4319 35.0183 79.7128 35.9353C79.0126 36.7909 78.03 37.3327 76.9649 37.4505C76.4691 37.4943 75.9717 37.3892 75.53 37.1475C75.119 36.9125 74.786 36.5503 74.5757 36.1095C74.3748 35.7065 74.2806 35.2537 74.3031 34.7988C74.3304 34.3732 74.4979 33.9712 74.7766 33.6624L74.9201 33.8063C74.0653 34.7807 73.0266 35.555 71.8709 36.0792C71.5671 36.22 71.2557 36.3415 70.9382 36.4429C70.8288 36.4812 70.7157 36.5066 70.601 36.5186L70.9238 36.3823C71.1319 36.2989 71.4404 36.1777 71.8278 35.9807C72.9503 35.4152 73.9532 34.6164 74.7766 33.6321L74.9201 33.776C74.6839 34.0801 74.5431 34.4543 74.5174 34.8466C74.4917 35.239 74.5823 35.63 74.7766 35.9656C74.9735 36.3553 75.2757 36.6744 75.6448 36.8823C76.0462 37.095 76.4962 37.1842 76.9434 37.1399C77.9359 37.0275 78.85 36.5178 79.4976 35.7156C80.1958 34.8123 80.7662 33.8068 81.1908 32.7305L81.406 32.2684L81.485 32.776C81.5791 34.0715 81.9948 35.318 82.6903 36.3898C83.0949 36.8894 83.645 37.2332 84.2544 37.3672C84.5567 37.4379 84.8712 37.424 85.1669 37.327C85.4627 37.23 85.7293 37.0532 85.9404 36.8141C86.4364 36.1537 86.767 35.372 86.9018 34.5412C87.0792 33.7205 87.2015 32.8876 87.2677 32.0486C87.361 30.4516 87.361 28.8499 87.2677 27.2529C87.2104 25.7376 87.1458 24.2602 87.196 22.8889C87.2281 21.6118 87.3893 20.3419 87.6767 19.1008C88.0431 17.2825 88.863 15.6007 90.0515 14.2293C90.4959 13.7366 91.0178 13.329 91.5941 13.0247Z" fill="#455A64"/>
<path d="M134.455 28.3588C134.455 28.3588 134.455 28.3588 134.348 28.4573L133.989 28.7148C133.802 28.8627 133.603 28.9921 133.394 29.1012C133.116 29.2724 132.829 29.4242 132.533 29.5558C130.643 30.4095 128.581 30.7507 126.535 30.5483C123.491 30.2671 120.59 29.0591 118.183 27.0708C115.283 24.6146 112.883 21.5631 111.131 18.1005C110.155 16.2898 109.366 14.4412 108.49 12.7365C107.692 11.0761 106.673 9.54521 105.463 8.19076C104.372 6.96518 103.008 6.04821 101.495 5.52391C100.812 5.30417 100.1 5.19935 99.3856 5.21329C98.7232 5.23672 98.0669 5.35393 97.4341 5.5618C95.5008 6.21036 93.8693 7.6032 92.8638 9.46356C92.5308 10.1625 92.2756 10.8998 92.1033 11.6607C92.1033 11.6607 92.1033 11.6076 92.1033 11.5016C92.1033 11.3955 92.1463 11.2364 92.175 11.0546C92.302 10.4825 92.4923 9.92816 92.7418 9.40297C93.1555 8.5773 93.6989 7.8318 94.3489 7.19827C95.2125 6.35827 96.2346 5.72055 97.348 5.32693C97.9991 5.10889 98.6745 4.98154 99.3569 4.94812C100.101 4.92395 100.845 5.02366 101.56 5.24359C103.122 5.7748 104.534 6.71275 105.663 7.97105C106.899 9.34365 107.941 10.8977 108.756 12.585C109.645 14.3124 110.435 16.1534 111.403 17.9414C113.128 21.3692 115.49 24.3944 118.348 26.8359C120.708 28.8003 123.551 30.0097 126.542 30.321C128.555 30.5391 130.588 30.2402 132.468 29.4497C133.149 29.1238 133.812 28.7597 134.455 28.3588Z" fill="#455A64"/>
<path d="M135.855 21.9115C135.855 21.9115 135.69 22.063 135.345 22.2676C134.868 22.5614 134.369 22.8148 133.853 23.0252C133.085 23.3467 132.293 23.6002 131.485 23.7829C130.496 23.9982 129.489 24.1149 128.479 24.1314C127.468 24.1375 126.459 24.0411 125.466 23.8435C124.654 23.6799 123.857 23.4442 123.084 23.1389C122.563 22.9239 122.057 22.6707 121.57 22.3812C121.233 22.1767 121.046 22.0555 121.06 22.0327C121.075 22.01 121.85 22.4116 123.163 22.8737C123.931 23.146 124.718 23.3562 125.516 23.5025C126.493 23.6739 127.482 23.76 128.472 23.7601C129.464 23.7377 130.452 23.6313 131.428 23.4419C132.222 23.2761 133.003 23.0508 133.767 22.7676C135.08 22.3055 135.855 21.8585 135.855 21.9115Z" fill="#455A64"/>
<path d="M105.384 172.793L124.999 171.792C124.999 171.792 128.809 174.065 129.799 180.657C130.789 187.248 129.799 187.225 129.799 187.225L119.92 190.748L98.9551 190.233L91.3715 180.157L97.1112 176.581L105.384 172.793Z" fill="#FFBF9D"/>
<path d="M188.869 160.216C187.828 158.307 181.558 150.511 166.706 134.525L148.97 159.61L153.942 163.057L121.312 172.793L124.038 189.605L178.128 189.552C185.095 189.309 197.945 176.846 188.869 160.216Z" fill="#FFBF9D"/>
<path d="M181.823 159.034C181.405 159.066 180.985 159.066 180.567 159.034C179.757 159.034 178.594 159.034 177.152 159.034C173.402 159.124 169.663 159.486 165.96 160.118C162.256 160.757 158.599 161.661 155.011 162.822C153.634 163.269 152.521 163.656 151.761 163.936C151.373 164.1 150.972 164.23 150.563 164.322C150.933 164.117 151.317 163.94 151.711 163.792C152.428 163.466 153.555 163.034 154.925 162.557C162.102 160.058 169.609 158.78 177.166 158.769C178.601 158.769 179.778 158.807 180.582 158.86C180.999 158.885 181.414 158.943 181.823 159.034Z" fill="#FF9A6C"/>
<path d="M108.332 179.725C108.212 179.425 108.019 179.163 107.773 178.967L104.372 175.77L102.406 181.968C103.247 182.638 104.303 182.935 105.348 182.793C106.392 182.642 107.337 182.059 107.974 181.172C108.142 180.981 108.262 180.749 108.325 180.496C108.388 180.244 108.39 179.979 108.332 179.725Z" fill="#FF9A6C"/>
<path d="M65.8225 147.458L106.331 187.203L110.155 189.112L112.271 190.256L111.288 188.316L109.308 184.43L68.2978 144.654C67.9645 144.327 67.5261 144.145 67.0709 144.145C66.6156 144.145 66.1773 144.327 65.844 144.654C65.6596 144.832 65.5119 145.047 65.4102 145.287C65.3084 145.528 65.2549 145.788 65.2529 146.051C65.2508 146.314 65.3004 146.575 65.3984 146.817C65.4965 147.059 65.6408 147.277 65.8225 147.458Z" fill="#455A64"/>
<path d="M66.576 169.8L69.7544 170.398C69.7544 170.398 86.206 163.981 88.5593 163.663C90.3745 163.413 99.0343 165.557 102.866 166.55C103.622 166.731 104.295 167.184 104.771 167.83C105.247 168.477 105.497 169.277 105.477 170.095C105.477 170.095 105.477 170.148 105.477 170.171C105.428 170.84 105.2 171.48 104.818 172.017C104.437 172.554 103.919 172.965 103.325 173.202C103.325 173.202 106.553 174.262 105.097 177.869C104.014 180.543 100.598 180.142 100.598 180.142L94.9089 180.263C94.9089 180.263 96.3438 180.717 98.5465 181.263C99.5813 181.447 100.585 181.791 101.524 182.286C101.524 182.286 104.961 185.778 101.639 187.233C100.552 187.756 99.3567 187.977 98.1662 187.877C98.1662 187.877 99.1635 191.665 96.5017 192.271C93.8399 192.877 76.2906 191.514 76.2906 191.514C75.1514 191.001 73.9387 190.693 72.7032 190.604L67.7527 190.241L66.576 169.8Z" fill="#FFBF9D"/>
<path d="M103.081 173.202C101.57 173.217 100.06 173.126 98.5606 172.929C97.0548 172.837 95.5566 172.637 94.0764 172.331C95.5849 172.321 97.0923 172.414 98.5893 172.611C100.097 172.707 101.597 172.904 103.081 173.202Z" fill="#FF9A6C"/>
<path d="M85.3162 190.256C85.3162 190.294 85.0579 190.195 84.7781 189.892C84.4136 189.478 84.2001 188.941 84.1754 188.377C84.1561 187.81 84.332 187.256 84.6704 186.816C84.9287 186.49 85.1655 186.377 85.1798 186.407C85.1942 186.437 85.0363 186.619 84.8426 186.945C84.5919 187.369 84.4647 187.862 84.4767 188.362C84.5024 188.862 84.6644 189.343 84.9431 189.748C85.1511 190.059 85.3449 190.218 85.3162 190.256Z" fill="#FF9A6C"/>
<path d="M85.0508 183.968C85.0508 184.005 84.7423 183.968 84.3334 183.702C84.0766 183.518 83.8608 183.276 83.7007 182.995C83.5407 182.714 83.4401 182.4 83.4061 182.074C83.372 181.747 83.4051 181.417 83.5033 181.106C83.6014 180.795 83.7622 180.51 83.9746 180.27C84.3047 179.907 84.5916 179.816 84.606 179.854C84.6203 179.892 84.3907 180.051 84.1396 180.414C83.8071 180.877 83.6553 181.458 83.7153 182.035C83.7754 182.613 84.0428 183.145 84.4625 183.521C84.8069 183.824 85.0652 183.922 85.0508 183.968Z" fill="#FF9A6C"/>
<path d="M84.9502 176.649C84.9502 176.649 84.6416 176.497 84.3546 176.043C83.9781 175.436 83.8346 174.7 83.9532 173.985C84.0718 173.27 84.4436 172.63 84.9932 172.194C85.4093 171.861 85.7107 171.8 85.7107 171.838C85.7107 171.876 85.4452 172.02 85.0936 172.361C84.6397 172.807 84.3309 173.393 84.2112 174.035C84.1123 174.683 84.2155 175.348 84.5053 175.929C84.7636 176.376 84.986 176.611 84.9502 176.649Z" fill="#FF9A6C"/>
<path d="M87.0667 167.247C87.0667 167.247 86.9089 167.171 86.8012 166.928C86.6702 166.605 86.6499 166.243 86.7438 165.906C86.83 165.566 87.0253 165.269 87.2963 165.065C87.5115 164.913 87.6765 164.906 87.6837 164.944C87.6909 164.981 87.203 165.307 87.0308 165.989C86.9612 166.406 86.9734 166.834 87.0667 167.247Z" fill="#FF9A6C"/>
<path d="M95.3822 180.126C94.5718 180.27 93.7477 180.308 92.9285 180.24C92.1081 180.277 91.2866 180.208 90.4819 180.035C91.2924 179.892 92.1164 179.854 92.9357 179.922C93.7559 179.89 94.5769 179.959 95.3822 180.126Z" fill="#FF9A6C"/>
<path d="M98.044 187.862C96.5475 187.691 95.0637 187.412 93.6029 187.029C92.1205 186.752 90.6581 186.368 89.2263 185.877C90.7222 186.057 92.2057 186.337 93.6675 186.718C95.1488 186.996 96.611 187.378 98.044 187.862Z" fill="#FF9A6C"/>
<path d="M72.7173 190.589H72.9541L73.6715 190.68C74.5902 190.813 75.4893 191.068 76.3477 191.438C78.6508 191.597 82.0875 191.832 86.3492 192.051C88.5016 192.158 90.8621 192.271 93.4091 192.286C94.0477 192.286 94.7006 192.286 95.3535 192.241C95.9999 192.267 96.6419 192.118 97.2189 191.809C97.4905 191.617 97.7183 191.364 97.8858 191.068C98.0533 190.772 98.1564 190.44 98.1875 190.097C98.2769 189.372 98.233 188.637 98.0583 187.93L98.0009 187.68H98.2449C98.9685 187.74 99.6965 187.668 100.397 187.468C101.127 187.306 101.816 186.983 102.421 186.521C102.692 186.266 102.875 185.922 102.94 185.544C103.005 185.167 102.948 184.777 102.779 184.437C102.469 183.67 102.018 182.974 101.452 182.392C100.442 181.918 99.3857 181.562 98.3023 181.331L94.8799 180.392L93.5957 180.036H94.9302L100.627 179.914C101.585 180.006 102.549 179.834 103.425 179.414C103.981 179.108 104.447 178.648 104.774 178.084C105.102 177.519 105.278 176.871 105.283 176.21C105.287 175.57 105.093 174.946 104.73 174.433C104.368 173.92 103.856 173.547 103.274 173.368L102.801 173.194L103.26 173.005C103.807 172.774 104.284 172.387 104.637 171.889C104.99 171.39 105.206 170.799 105.262 170.179C105.297 169.576 105.176 168.975 104.91 168.441C104.644 167.906 104.245 167.459 103.755 167.148C103.249 166.858 102.701 166.659 102.134 166.557L100.44 166.126L97.1113 165.315C94.9588 164.807 92.8064 164.338 90.7975 164.004C90.2953 163.928 89.7931 163.853 89.298 163.822C89.0593 163.8 88.8192 163.8 88.5805 163.822C88.3438 163.86 88.107 163.913 87.8631 163.974C86.9232 164.224 86.012 164.535 85.1295 164.83C78.084 167.262 72.7317 169.376 69.7398 170.459L67.3578 169.982L66.7623 169.853L66.5686 169.8C66.6352 169.79 66.7029 169.79 66.7695 169.8L67.365 169.891L69.7613 170.308C72.7317 169.133 78.0625 166.989 85.108 164.504C85.9905 164.209 86.9017 163.898 87.8559 163.633C88.0998 163.565 88.351 163.512 88.5734 163.466C88.8312 163.444 89.0904 163.444 89.3482 163.466C89.8576 163.466 90.3599 163.572 90.8764 163.648C92.9141 163.966 95.0234 164.406 97.2117 164.936L100.541 165.739L102.241 166.163C102.846 166.269 103.428 166.484 103.963 166.8C104.513 167.146 104.962 167.647 105.259 168.246C105.557 168.845 105.692 169.519 105.649 170.194C105.593 170.887 105.355 171.549 104.962 172.107C104.569 172.665 104.037 173.097 103.425 173.353V172.99C104.066 173.223 104.634 173.637 105.068 174.187C105.51 174.757 105.733 175.482 105.692 176.217C105.659 176.94 105.467 177.646 105.133 178.278C104.793 178.937 104.266 179.467 103.626 179.793C102.685 180.244 101.648 180.427 100.62 180.323L94.923 180.437L94.9732 180.058L98.3668 180.998C99.4953 181.235 100.593 181.611 101.638 182.119C102.248 182.74 102.735 183.481 103.073 184.301C103.243 184.721 103.301 185.182 103.238 185.634C103.205 185.863 103.135 186.083 103.03 186.286C102.915 186.475 102.775 186.646 102.614 186.794C101.974 187.293 101.24 187.642 100.462 187.816C99.7184 188.024 98.9463 188.093 98.1803 188.021L98.3668 187.801C98.5465 188.559 98.5879 189.346 98.4888 190.12C98.4498 190.509 98.3299 190.885 98.1377 191.22C97.9455 191.556 97.6856 191.842 97.3767 192.059C96.7507 192.394 96.0551 192.558 95.3535 192.536C94.6862 192.574 94.0333 192.536 93.3948 192.536C90.8334 192.536 88.4729 192.377 86.3277 192.256C82.0229 191.998 78.6221 191.726 76.2831 191.498C75.4394 191.137 74.5579 190.882 73.6572 190.741L72.9397 190.612L72.7173 190.589Z" fill="#FF9A6C"/>
<path d="M70.565 190.263C70.565 190.263 13.0814 191.733 8.01612 188.748C2.95079 185.763 -2.89658 177.02 1.61629 165.36C6.12917 153.7 14.1002 141.283 14.1002 141.283L24.7116 148.344L39.1399 157.943L34.6916 165.08L71.9354 170.383L70.565 190.263Z" fill="#FFBF9D"/>
<path d="M34.6914 165.08C34.6914 165.141 33.6439 164.679 31.9507 164.095C29.7412 163.345 27.4886 162.745 25.2065 162.3C22.9223 161.846 20.6155 161.53 18.2972 161.353C16.5179 161.224 15.4274 161.216 15.4274 161.156C15.6838 161.094 15.9465 161.066 16.2094 161.072C16.7045 161.072 17.4363 161.072 18.3618 161.072C20.6982 161.165 23.0245 161.444 25.3213 161.906C27.6235 162.346 29.8867 162.99 32.087 163.83C32.7568 164.077 33.4131 164.362 34.0529 164.686C34.2781 164.794 34.4921 164.926 34.6914 165.08Z" fill="#FF9A6C"/>
</svg>
