<svg width="110" height="128" viewBox="0 0 110 128" fill="none" xmlns="http://www.w3.org/2000/svg">
<path d="M109.466 98.7156L62.0747 128L34.0773 110.672C30.1482 108.243 26.8851 104.749 24.6161 100.539C22.3471 96.3302 21.1523 91.5551 21.1516 86.6941V54.5432C21.1577 50.8488 20.4726 47.1905 19.1367 43.7848C18.7161 42.724 18.2367 41.6912 17.7011 40.6917C15.4321 36.4831 12.1695 32.9887 8.24103 30.5595C6.99665 29.7796 5.58819 29.3503 4.1471 29.3116C2.70601 29.2729 1.27927 29.6261 0 30.3381L6.41752 26.376L19.3281 18.3868L46.9628 1.29109L47.0282 1.2479C48.3336 0.430675 49.8183 0 51.3301 0C52.8419 0 54.3266 0.430675 55.632 1.2479C59.5609 3.67811 62.8235 7.17406 65.0916 11.3842C67.3597 15.5943 68.5534 20.3702 68.5526 25.2316V57.3933C68.553 62.2552 69.7472 67.0313 72.0151 71.2421C74.2831 75.4529 77.545 78.9501 81.4733 81.3824L109.466 98.7156Z" fill="#FAFAFA"/>
</svg>
