<svg width="6" height="8" viewBox="0 0 6 8" fill="none" xmlns="http://www.w3.org/2000/svg">
<path d="M0.000126874 0.0567177C0.50783 -0.0524325 1.0331 -0.00340458 1.51691 0.198283C2.71298 0.602522 3.77924 1.37517 4.59 2.42513C4.82153 2.7203 5.02668 3.03938 5.20264 3.37794C5.35616 3.70502 5.4755 4.05024 5.55837 4.40698C5.73473 4.98214 5.86856 5.57209 5.95856 6.17104C6.09196 7.22185 5.8647 7.85887 5.81529 7.84254C5.76589 7.8262 5.83998 7.20007 5.63248 6.23637C5.49532 5.66621 5.33039 5.1046 5.13841 4.55399C5.05062 4.23209 4.93481 3.92029 4.79257 3.62295C4.6255 3.3109 4.43371 3.01575 4.21945 2.74092C3.4545 1.76429 2.48664 1.00591 1.39834 0.530406C0.55843 0.198284 -0.00975445 0.143832 0.000126874 0.0567177Z" fill="#455A64"/>
</svg>
