<svg width="17" height="18" viewBox="0 0 17 18" fill="none" xmlns="http://www.w3.org/2000/svg">
<path fill-rule="evenodd" clip-rule="evenodd" d="M8.47922 10.0509C7.539 10.0508 6.59878 10.053 5.65862 10.0497C5.31755 10.0484 5.10059 9.77987 5.1801 9.47214C5.22771 9.28772 5.38615 9.15027 5.57632 9.13206C5.63217 9.12672 5.68877 9.12835 5.74509 9.12835C7.58046 9.12817 9.41584 9.12812 11.2512 9.12829C11.6191 9.12829 11.8363 9.2956 11.842 9.58216C11.8479 9.87446 11.6253 10.0509 11.2492 10.051C10.3258 10.0512 9.4025 10.0511 8.47922 10.0509ZM9.0398 0C9.36237 0.0442504 9.68772 0.073828 10.007 0.135129C12.6974 0.651577 14.7048 2.11863 16.0147 4.51818C16.8487 6.04595 17.1256 7.69574 16.9492 9.42127C16.5874 12.9592 13.9008 15.9854 10.4336 16.7762C8.91041 17.1237 7.40277 17.0788 5.91873 16.5873C5.60799 16.4845 5.33031 16.5715 5.04288 16.6207C3.74454 16.8428 2.44812 17.0759 1.15076 17.3038C0.966163 17.3362 0.800935 17.2927 0.678971 17.144C0.546626 16.9828 0.550685 16.803 0.629965 16.6191C1.01523 15.7252 1.39846 14.8303 1.78871 13.9386C1.8358 13.8311 1.82855 13.7572 1.75768 13.6658C1.07311 12.7826 0.585599 11.7986 0.294578 10.7213C0.00344187 9.64363 -0.0725319 8.54816 0.0694985 7.43859C0.272656 5.85184 0.872037 4.43073 1.87924 3.19114C3.22496 1.53502 4.95258 0.509431 7.05775 0.134491C7.38897 0.0754519 7.72511 0.0441344 8.05899 0C8.38596 0 8.71282 0 9.0398 0ZM6.88179 7.73676C6.47681 7.73676 6.07177 7.74238 5.6669 7.73519C5.27358 7.72817 5.04415 7.37249 5.21889 7.05201C5.31133 6.88249 5.46235 6.80518 5.64968 6.80466C6.46527 6.80234 7.2808 6.80054 8.09638 6.80506C8.38798 6.80669 8.59392 7.00805 8.59416 7.26972C8.59427 7.53197 8.39048 7.73026 8.09667 7.73502C7.69181 7.74163 7.28677 7.7367 6.88179 7.73676ZM1.80768 16.235C1.86394 16.2317 1.89172 16.2329 1.91851 16.2282C3.0939 16.0231 4.26964 15.8197 5.44416 15.6097C5.6381 15.575 5.8187 15.5798 6.00683 15.6455C7.43821 16.1456 8.89361 16.2183 10.3627 15.8448C14.2766 14.8499 16.7253 10.9409 15.9294 6.97218C15.0511 2.59296 10.4981 -0.0780129 6.24241 1.27537C2.83159 2.36017 0.53057 5.74048 0.991516 9.42851C1.10785 10.3597 1.36646 11.2494 1.83338 12.0641C2.08977 12.5115 2.3975 12.9307 2.69948 13.3502C2.84696 13.5551 2.88976 13.7493 2.77922 13.9773C2.72279 14.0937 2.67431 14.2139 2.62333 14.3328C2.35504 14.9579 2.08716 15.583 1.80768 16.235Z" fill="black"/>
</svg>
