<svg width="8" height="7" viewBox="0 0 8 7" fill="none" xmlns="http://www.w3.org/2000/svg">
<path opacity="0.4" d="M0.399283 6.97031H0.372696C0.267854 6.96298 0.169959 6.9116 0.100281 6.82733C0.030604 6.74306 -0.0052124 6.63272 0.000614106 6.5203L0.112237 4.56647L7.43712 0.0379065C7.52706 -0.00565084 7.62887 -0.0119 7.72287 0.0203489C7.81686 0.0525978 7.89636 0.121058 7.94597 0.212491C7.99557 0.303924 8.01176 0.411825 7.99141 0.515316C7.97105 0.618806 7.91561 0.710528 7.83579 0.772734L0.861737 5.06775L0.776686 6.56588C0.772754 6.67179 0.731729 6.77223 0.661786 6.84718C0.591843 6.92214 0.49812 6.9661 0.399283 6.97031Z" fill="black"/>
</svg>
