<svg width="24" height="28" viewBox="0 0 24 28" fill="none" xmlns="http://www.w3.org/2000/svg">
<path d="M7.07643 9.36132L7.07384 9.36259L7.06996 9.36512L7.07643 9.36132ZM19.9578 9.12461C19.8678 9.03965 19.7679 8.96531 19.6602 8.9031C19.5077 8.81528 19.3384 8.75898 19.1627 8.7377C18.9871 8.71641 18.8089 8.73059 18.6391 8.77935C18.4693 8.82811 18.3115 8.91041 18.1755 9.02118C18.0395 9.13195 17.9282 9.26883 17.8484 9.42334C17.4028 10.2827 16.7879 11.0476 16.0393 11.6739C16.1541 11.043 16.2121 10.4034 16.2127 9.76258C16.2152 7.81341 15.6896 5.89842 14.6894 4.21256C13.6892 2.52671 12.2501 1.13021 10.5187 0.165247C10.3279 0.0592086 10.1127 0.00236942 9.89326 7.24933e-05C9.67383 -0.00222444 9.45741 0.0500963 9.26433 0.152116C9.07126 0.254136 8.90789 0.402504 8.78956 0.583273C8.67124 0.764041 8.60185 0.971273 8.58793 1.18549C8.51547 2.38559 8.1947 3.55883 7.64505 4.63411C7.0954 5.70939 6.3283 6.66433 5.39023 7.44109L5.09259 7.6778C4.11117 8.32367 3.24249 9.11993 2.51993 10.036C1.39702 11.4197 0.61916 13.0402 0.248049 14.7692C-0.123061 16.4981 -0.0772132 18.2878 0.381957 19.9964C0.841128 21.705 1.70099 23.2854 2.89334 24.6123C4.08569 25.9392 5.57774 26.9761 7.25113 27.6408C7.4476 27.719 7.66071 27.7488 7.87171 27.7275C8.08271 27.7063 8.28513 27.6346 8.46115 27.5188C8.63717 27.403 8.78139 27.2467 8.88113 27.0636C8.98086 26.8804 9.03305 26.6762 9.03309 26.4687C9.03202 26.3346 9.0102 26.2014 8.96839 26.0737C8.67885 25.0093 8.59546 23.9012 8.72251 22.8067C9.94734 25.0656 11.9132 26.8561 14.3039 27.8902C14.5956 28.0177 14.9253 28.0349 15.2292 27.9383C17.1179 27.3419 18.8193 26.2831 20.1719 24.8624C21.5244 23.4417 22.4831 21.7063 22.9569 19.8212C23.4307 17.936 23.4039 15.9637 22.879 14.0915C22.3541 12.2194 21.3485 10.5096 19.9578 9.12461ZM14.9044 25.3662C13.7763 24.8071 12.7812 24.022 11.9837 23.062C11.1861 22.102 10.6041 20.9886 10.2754 19.7941C10.1749 19.3918 10.0972 18.9845 10.0425 18.5738C10.0057 18.3124 9.88619 18.0687 9.7008 17.8769C9.5154 17.6851 9.27335 17.5548 9.00851 17.5042C8.92707 17.4888 8.84429 17.4811 8.76134 17.4815C8.53396 17.4812 8.31054 17.5396 8.11357 17.6507C7.91661 17.7618 7.75305 17.9218 7.63936 18.1144C6.56584 19.926 6.02611 21.9931 6.07998 24.0864C5.1355 23.3683 4.34612 22.474 3.75762 21.4553C3.16912 20.4366 2.7932 19.3138 2.65164 18.1519C2.51008 16.99 2.6057 15.8122 2.93297 14.6867C3.26023 13.5613 3.81262 12.5106 4.55813 11.5955C5.12419 10.8763 5.80705 10.2528 6.5795 9.74992C6.6133 9.72871 6.64572 9.70546 6.67656 9.6803C6.67656 9.6803 7.05961 9.37018 7.07255 9.36385C8.91688 7.83861 10.2288 5.78854 10.8254 3.49938C12.2352 4.77451 13.1752 6.46928 13.4993 8.32053C13.8234 10.1718 13.5135 12.0759 12.6177 13.7372C12.4992 13.9589 12.4505 14.2101 12.4778 14.4589C12.5051 14.7077 12.6072 14.943 12.7712 15.1351C12.9351 15.3271 13.1536 15.4674 13.399 15.538C13.6444 15.6087 13.9057 15.6066 14.1499 15.5321C16.1321 14.9241 17.8763 13.7366 19.1477 12.1296C19.9121 13.2337 20.4119 14.4923 20.6099 15.8116C20.8078 17.1309 20.6988 18.4769 20.2909 19.7493C19.883 21.0216 19.1868 22.1875 18.2541 23.1601C17.3215 24.1326 16.1764 24.8867 14.9044 25.3662Z" fill="#515151"/>
</svg>
