<svg width="4" height="4" viewBox="0 0 4 4" fill="none" xmlns="http://www.w3.org/2000/svg">
<path d="M3.86202 1.76912C3.90104 2.30665 3.74045 2.83905 3.41464 3.25228C3.08883 3.6655 2.62372 3.9267 2.11892 3.97993C1.87149 4.01784 1.6194 4.00229 1.37775 3.93422C1.1361 3.86616 0.909864 3.74697 0.712574 3.5838C0.515284 3.42063 0.351002 3.21683 0.229563 2.9846C0.108124 2.75237 0.0320193 2.49649 0.0058168 2.23227C-0.0333204 1.69611 0.126163 1.16492 0.450248 0.75193C0.774334 0.338942 1.23738 0.0768177 1.7407 0.021462C1.98875 -0.017726 2.24171 -0.00313979 2.48433 0.0643296C2.72694 0.131799 2.95419 0.250767 3.15239 0.414057C3.35059 0.577347 3.51564 0.781585 3.6376 1.01447C3.75956 1.24735 3.8359 1.50405 3.86202 1.76912Z" fill="#263238"/>
</svg>
