<svg width="20" height="22" viewBox="0 0 20 22" fill="none" xmlns="http://www.w3.org/2000/svg">
<path d="M6.9179 18.8421V8.79299C6.9179 8.25995 6.70142 7.74874 6.31608 7.37183C5.93074 6.99491 5.40811 6.78316 4.86316 6.78316H2.80842C2.26347 6.78316 1.74084 6.99491 1.3555 7.37183C0.970165 7.74874 0.753685 8.25995 0.753685 8.79299V18.8421C0.753685 19.3752 0.970165 19.8864 1.3555 20.2633C1.74084 20.6402 2.26347 20.8519 2.80842 20.8519H4.86316C5.40811 20.8519 5.93074 20.6402 6.31608 20.2633C6.70142 19.8864 6.9179 19.3752 6.9179 18.8421ZM6.9179 18.8421V2.76351C6.9179 2.23047 7.13438 1.71926 7.51972 1.34235C7.90506 0.965434 8.42769 0.753685 8.97264 0.753685H11.0274C11.5723 0.753685 12.095 0.965434 12.4803 1.34235C12.8656 1.71926 13.0821 2.23047 13.0821 2.76351V18.8421M6.9179 18.8421C6.9179 19.3752 7.13438 19.8864 7.51972 20.2633C7.90506 20.6402 8.42769 20.8519 8.97264 20.8519H11.0274C11.5723 20.8519 12.095 20.6402 12.4803 20.2633C12.8656 19.8864 13.0821 19.3752 13.0821 18.8421M13.0821 18.8421V12.8126C13.0821 12.2796 13.2986 11.7684 13.6839 11.3915C14.0693 11.0146 14.5919 10.8028 15.1369 10.8028H17.1916C17.7365 10.8028 18.2592 11.0146 18.6445 11.3915C19.0298 11.7684 19.2463 12.2796 19.2463 12.8126V18.8421C19.2463 19.3752 19.0298 19.8864 18.6445 20.2633C18.2592 20.6402 17.7365 20.8519 17.1916 20.8519H15.1369C14.5919 20.8519 14.0693 20.6402 13.6839 20.2633C13.2986 19.8864 13.0821 19.3752 13.0821 18.8421Z" stroke="#444658" stroke-width="1.5" stroke-linecap="round" stroke-linejoin="round"/>
</svg>
