<svg width="20" height="20" viewBox="0 0 20 20" fill="none" xmlns="http://www.w3.org/2000/svg">
<path d="M16.5382 3.40264L12.9054 6.95601L16.5382 3.40264ZM12.9054 12.6398L16.5382 16.1932L12.9054 12.6398ZM7.09461 6.95601L3.46183 3.40264L7.09461 6.95601ZM7.09461 12.6398L3.46183 16.1932L7.09461 12.6398ZM19.2463 9.7979C19.2463 10.9856 19.0072 12.1617 18.5425 13.259C18.0778 14.3563 17.3967 15.3533 16.5381 16.1931C15.6795 17.033 14.6602 17.6992 13.5384 18.1537C12.4166 18.6082 11.2143 18.8421 10 18.8421C8.78576 18.8421 7.58341 18.6082 6.46159 18.1537C5.33978 17.6992 4.32047 17.033 3.46187 16.1931C2.60327 15.3533 1.92219 14.3563 1.45752 13.259C0.992848 12.1617 0.753685 10.9856 0.753685 9.7979C0.753685 7.39923 1.72785 5.09879 3.46187 3.40267C5.19589 1.70655 7.54773 0.753685 10 0.753685C12.4523 0.753685 14.8041 1.70655 16.5381 3.40267C18.2722 5.09879 19.2463 7.39923 19.2463 9.7979ZM14.1095 9.7979C14.1095 10.864 13.6765 11.8864 12.9058 12.6402C12.1352 13.3941 11.0899 13.8176 10 13.8176C8.91011 13.8176 7.86484 13.3941 7.09417 12.6402C6.32349 11.8864 5.89053 10.864 5.89053 9.7979C5.89053 8.73182 6.32349 7.70941 7.09417 6.95558C7.86484 6.20175 8.91011 5.77825 10 5.77825C11.0899 5.77825 12.1352 6.20175 12.9058 6.95558C13.6765 7.70941 14.1095 8.73182 14.1095 9.7979V9.7979Z" stroke="#444658" stroke-width="1.5" stroke-linecap="round" stroke-linejoin="round"/>
</svg>
