<svg width="32" height="14" viewBox="0 0 32 14" fill="none" xmlns="http://www.w3.org/2000/svg">
<path d="M32 13.419C31.5634 13.299 31.1358 13.1448 30.7206 12.9576L27.2632 11.5817C24.3541 10.4082 20.3408 8.74905 15.9238 6.89565C11.5069 5.04224 7.54688 3.35069 4.62256 2.0962L1.21847 0.598933C0.796938 0.436704 0.389288 0.236314 0 0C0.43821 0.119765 0.868209 0.271193 1.287 0.453232L4.7444 1.82913C7.6535 3.01078 11.6592 4.66185 16.0838 6.51525C20.5083 8.36866 24.4607 10.0602 27.3698 11.3066L30.7739 12.8039C31.1973 12.9741 31.6073 13.1798 32 13.419Z" fill="white"/>
</svg>
