<svg width="29" height="55" viewBox="0 0 29 55" fill="none" xmlns="http://www.w3.org/2000/svg">
<path fill-rule="evenodd" clip-rule="evenodd" d="M0.966261 54.1957C2.03397 55.2681 3.76076 55.2681 4.82583 54.1957L27.4006 31.4708C27.9059 30.9699 28.3083 30.367 28.5833 29.6988C28.8582 29.0306 29 28.311 29 27.5839C29 26.8567 28.8582 26.1372 28.5833 25.469C28.3083 24.8008 27.9059 24.1979 27.4006 23.697L4.66238 0.804359C4.14633 0.29274 3.46293 0.00517657 2.75099 6.9211e-05C2.03904 -0.00503814 1.35192 0.272694 0.829173 0.77686C0.570212 1.02583 0.36301 1.32761 0.220396 1.6635C0.077783 1.99938 0.00279521 2.36223 7.66647e-05 2.72958C-0.00264188 3.09692 0.0669667 3.46094 0.204592 3.79908C0.342217 4.13722 0.544929 4.4423 0.800174 4.69541L21.6113 25.6411C21.8641 25.8916 22.0655 26.1931 22.2031 26.5273C22.3407 26.8616 22.4116 27.2215 22.4116 27.5853C22.4116 27.949 22.3407 28.3089 22.2031 28.6432C22.0655 28.9774 21.8641 29.2789 21.6113 29.5294L0.966261 50.3101C0.713465 50.5603 0.512152 50.8616 0.374582 51.1956C0.237013 51.5296 0.166068 51.8894 0.166068 52.2529C0.166068 52.6164 0.237013 52.9761 0.374582 53.3101C0.512152 53.6441 0.713465 53.9454 0.966261 54.1957Z" fill="white"/>
</svg>
