<svg width="61" height="34" viewBox="0 0 61 34" fill="none" xmlns="http://www.w3.org/2000/svg">
<path d="M0.389931 10.2666H6.57538C6.66803 10.2636 6.75614 10.2216 6.82168 10.1492C6.88722 10.0767 6.92523 9.97936 6.92792 9.87696V8.34801C6.92798 8.29619 6.91856 8.24489 6.9002 8.1972C6.88184 8.14952 6.85492 8.10644 6.82109 8.07056C6.78936 8.03412 6.75115 8.00534 6.70886 7.98603C6.66657 7.96673 6.62112 7.95732 6.57538 7.95839H2.4464V6.34089H6.18545C6.23119 6.34197 6.27664 6.33256 6.31893 6.31325C6.36122 6.29395 6.39943 6.26517 6.43116 6.22873C6.46499 6.19285 6.4919 6.14977 6.51027 6.10208C6.52863 6.0544 6.53806 6.0031 6.53799 5.95127V4.44003C6.5353 4.33764 6.4973 4.24025 6.43176 4.16782C6.36622 4.09538 6.2781 4.05338 6.18545 4.05041H2.4464V2.47423H6.4632C6.5097 2.47503 6.55587 2.4655 6.59897 2.4462C6.64206 2.4269 6.68122 2.39823 6.7141 2.36189C6.74698 2.32555 6.77291 2.28228 6.79038 2.23465C6.80784 2.18702 6.81647 2.136 6.81574 2.08462V0.555662C6.81343 0.462501 6.77904 0.373828 6.7196 0.307724C6.68713 0.270329 6.64815 0.240587 6.60501 0.220296C6.56186 0.200004 6.51544 0.189582 6.46855 0.189658H0.389931C0.343039 0.189582 0.296619 0.200004 0.253471 0.220296C0.210324 0.240587 0.171343 0.270329 0.13888 0.307724C0.105908 0.342784 0.0798675 0.385014 0.0624 0.431752C0.0449325 0.478489 0.0364154 0.52872 0.0373903 0.579275V9.87696C0.0364154 9.92752 0.0449325 9.97775 0.0624 10.0245C0.0798675 10.0712 0.105908 10.1135 0.13888 10.1485C0.171343 10.1859 0.210324 10.2157 0.253471 10.2359C0.296619 10.2562 0.343039 10.2667 0.389931 10.2666ZM17.2477 7.98201C17.432 8.45692 17.705 8.88341 18.0489 9.23351C18.4162 9.60161 18.8442 9.88821 19.3095 10.0777C19.847 10.2918 20.4154 10.3958 20.9867 10.3846C21.531 10.3894 22.0723 10.2957 22.5892 10.1072C23.0523 9.93517 23.4858 9.67769 23.8711 9.34567C24.229 9.0447 24.5241 8.66218 24.7365 8.22404C24.942 7.79627 25.0536 7.32104 25.0623 6.83677C25.0609 6.7527 25.0301 6.67249 24.9763 6.61303C24.9225 6.55358 24.8499 6.5195 24.7738 6.51799H23.0646C23.0115 6.51122 22.9578 6.51608 22.9065 6.53229C22.8552 6.5485 22.8072 6.57574 22.7654 6.61244C22.6973 6.70827 22.6481 6.81891 22.6212 6.93713C22.5797 7.0669 22.5297 7.19317 22.4717 7.31494C22.3989 7.45545 22.3028 7.57961 22.1886 7.68094C22.0478 7.80463 21.8888 7.9005 21.7185 7.9643C21.4822 8.04755 21.2347 8.08549 20.9867 8.07646C20.7335 8.08648 20.4811 8.04031 20.2443 7.94068C20.0564 7.86044 19.8868 7.73548 19.7475 7.57468C19.6182 7.42008 19.5199 7.23702 19.4591 7.03748C19.4005 6.83192 19.3611 6.62027 19.3415 6.40583C19.3415 6.28186 19.3415 6.10476 19.3415 5.88044C19.3415 5.65611 19.3415 5.41998 19.3415 5.18385C19.3415 4.94772 19.3415 4.72339 19.3415 4.49906C19.3415 4.27474 19.3415 4.10354 19.3415 3.97957C19.3611 3.76514 19.4005 3.55348 19.4591 3.34792C19.5199 3.14839 19.6182 2.96532 19.7475 2.81072C19.8868 2.64992 20.0564 2.52496 20.2443 2.44472C20.4811 2.34509 20.7335 2.29892 20.9867 2.30894C21.2347 2.29991 21.4822 2.33785 21.7185 2.42111C21.8888 2.48491 22.0478 2.58077 22.1886 2.70446C22.3028 2.80579 22.3989 2.92995 22.4717 3.07047C22.5297 3.19223 22.5797 3.3185 22.6212 3.44828C22.6481 3.5665 22.6973 3.67713 22.7654 3.77296C22.8072 3.80967 22.8552 3.8369 22.9065 3.85311C22.9578 3.86931 23.0115 3.87418 23.0646 3.86741H24.7738C24.8499 3.8659 24.9225 3.83182 24.9763 3.77237C25.0301 3.71291 25.0609 3.6327 25.0623 3.54863C25.0536 3.06436 24.942 2.58913 24.7365 2.16136C24.5241 1.72323 24.229 1.3407 23.8711 1.03973C23.4858 0.707712 23.0523 0.450228 22.5892 0.278208C22.0723 0.0897371 21.531 -0.00398694 20.9867 0.000752876C20.4137 -0.00997512 19.8437 0.0940257 19.3042 0.307724C18.8374 0.493888 18.4089 0.780853 18.0436 1.1519C17.7029 1.50514 17.4304 1.93083 17.2423 2.40339C17.0488 2.8774 16.9417 3.38894 16.9272 3.90873C16.9272 4.32196 16.9272 4.75291 16.9272 5.20746C16.9272 5.66201 16.9272 6.08114 16.9272 6.47667C16.9512 6.99566 17.0598 7.50561 17.2477 7.98201ZM30.3504 2.45062H32.6472V9.87696C32.6462 9.92752 32.6547 9.97775 32.6722 10.0245C32.6897 10.0712 32.7157 10.1135 32.7487 10.1485C32.7811 10.1859 32.8201 10.2157 32.8633 10.2359C32.9064 10.2562 32.9528 10.2667 32.9997 10.2666H34.709C34.8017 10.2636 34.8898 10.2216 34.9553 10.1492C35.0209 10.0767 35.0589 9.97936 35.0616 9.87696V2.47423H37.3584C37.4049 2.47475 37.451 2.4651 37.4941 2.44585C37.5371 2.4266 37.5764 2.39813 37.6094 2.36207C37.6413 2.32422 37.6658 2.27954 37.6814 2.2308C37.6971 2.18206 37.7035 2.1303 37.7003 2.07871V0.555662C37.7012 0.505106 37.6927 0.454875 37.6752 0.408138C37.6578 0.3614 37.6317 0.31917 37.5988 0.284111C37.5325 0.209663 37.4422 0.167219 37.3477 0.166044H30.3504C30.3035 0.165968 30.257 0.17639 30.2139 0.196682C30.1707 0.216974 30.1318 0.246715 30.0993 0.284111C30.0663 0.31917 30.0403 0.3614 30.0228 0.408138C30.0054 0.454875 29.9968 0.505106 29.9978 0.555662V2.07871C29.9971 2.1301 30.0057 2.18112 30.0232 2.22875C30.0406 2.27638 30.0666 2.31965 30.0995 2.35599C30.1324 2.39233 30.1715 2.421 30.2146 2.4403C30.2577 2.45959 30.3039 2.46913 30.3504 2.46833V2.45062ZM52.6137 7.98201C52.798 8.45692 53.071 8.88341 53.4149 9.23351C53.783 9.60045 54.2108 9.8869 54.6755 10.0777C55.2131 10.2918 55.7814 10.3958 56.3527 10.3846C56.8967 10.3913 57.438 10.2996 57.9552 10.1131C58.4242 9.9449 58.8595 9.67832 59.2372 9.32796C59.605 8.9858 59.9004 8.55858 60.1025 8.07646C60.3161 7.55587 60.4219 6.98916 60.4123 6.41763V4.59352C60.4133 4.54296 60.4047 4.49273 60.3873 4.44599C60.3698 4.39926 60.3438 4.35703 60.3108 4.32197C60.2783 4.28457 60.2393 4.25483 60.1962 4.23454C60.153 4.21425 60.1066 4.20382 60.0597 4.2039H56.9296C56.837 4.20687 56.7489 4.24887 56.6833 4.3213C56.6178 4.39374 56.5798 4.49112 56.5771 4.59352V6.12247C56.577 6.17429 56.5864 6.22559 56.6048 6.27328C56.6232 6.32097 56.6501 6.36405 56.6839 6.39992C56.7154 6.43715 56.7534 6.46684 56.7957 6.48715C56.8379 6.50746 56.8835 6.51795 56.9296 6.51799H57.9979C58.004 6.7694 57.9603 7.01926 57.8697 7.25C57.7905 7.4429 57.6694 7.6112 57.5172 7.73997C57.3577 7.87089 57.176 7.96522 56.983 8.01743C56.7731 8.07317 56.5579 8.10091 56.3421 8.10007C56.0907 8.10807 55.8404 8.06195 55.6049 7.9643C55.4164 7.88548 55.2465 7.76032 55.1082 7.59829C54.9824 7.44187 54.8861 7.25922 54.8251 7.06109C54.7579 6.85753 54.7148 6.64522 54.6969 6.42944C54.6969 6.30547 54.6969 6.12837 54.6702 5.90405C54.6435 5.67972 54.6702 5.44359 54.6702 5.20746C54.6702 4.97133 54.6702 4.747 54.6702 4.52268C54.6725 4.34901 54.6832 4.1756 54.7022 4.00319C54.7271 3.78815 54.7719 3.5765 54.8358 3.37154C54.8928 3.17272 54.9875 2.98959 55.1135 2.83433C55.2498 2.67241 55.418 2.5472 55.6049 2.46833C55.8417 2.3687 56.0942 2.32254 56.3474 2.33255C56.6775 2.30865 57.0074 2.38199 57.3035 2.54507C57.4918 2.67316 57.6596 2.83472 57.8003 3.02324L58.0139 3.28299C58.0534 3.32734 58.101 3.36187 58.1535 3.38427C58.206 3.40667 58.2622 3.41642 58.3184 3.41286H60.0544C60.1341 3.41348 60.2108 3.37957 60.2681 3.3184C60.2966 3.29101 60.3184 3.25608 60.3315 3.21686C60.3446 3.17764 60.3485 3.13541 60.3428 3.09408C60.3129 2.72979 60.2069 2.37816 60.033 2.06691C59.8248 1.68186 59.553 1.34345 59.2318 1.06925C58.8622 0.740461 58.4451 0.483 57.9979 0.307724C57.4699 0.101442 56.9127 0.0014716 56.3527 0.0125597C55.7797 0.00183174 55.2097 0.105833 54.6702 0.319531C54.2042 0.507515 53.776 0.794275 53.4096 1.1637C53.0689 1.51695 52.7964 1.94264 52.6084 2.4152C52.4172 2.89012 52.3103 3.40112 52.2932 3.92054C52.2932 4.33377 52.2932 4.76471 52.2932 5.21927C52.2932 5.67382 52.2932 6.09295 52.2932 6.48847C52.3185 7.00347 52.4271 7.50929 52.6137 7.98201ZM39.26 10.243H40.9692C41.0161 10.243 41.0626 10.2326 41.1057 10.2123C41.1489 10.192 41.1878 10.1623 41.2203 10.1249C41.2533 10.0898 41.2793 10.0476 41.2968 10.0009C41.3142 9.95414 41.3228 9.90391 41.3218 9.85335V0.555662C41.3228 0.505106 41.3142 0.454875 41.2968 0.408138C41.2793 0.3614 41.2533 0.31917 41.2203 0.284111C41.1878 0.246715 41.1489 0.216974 41.1057 0.196682C41.0626 0.17639 41.0161 0.165968 40.9692 0.166044H39.26C39.1673 0.169014 39.0792 0.211017 39.0137 0.283451C38.9481 0.355885 38.9101 0.453268 38.9074 0.555662V9.87696C38.9101 9.97936 38.9481 10.0767 39.0137 10.1492C39.0792 10.2216 39.1673 10.2636 39.26 10.2666V10.243ZM43.5011 10.243H45.1783C45.271 10.24 45.3591 10.198 45.4246 10.1256C45.4902 10.0531 45.5282 9.95574 45.5309 9.85335V5.03036L48.5168 9.96552C48.5678 10.0402 48.627 10.1076 48.693 10.1662C48.7941 10.2561 48.9213 10.3023 49.0509 10.2961H50.413C50.5057 10.2931 50.5938 10.2511 50.6593 10.1787C50.7249 10.1063 50.7629 10.0089 50.7655 9.90648V0.555662C50.7629 0.453268 50.7249 0.355885 50.6593 0.283451C50.5938 0.211017 50.5057 0.169014 50.413 0.166044H48.7037C48.6568 0.165968 48.6104 0.17639 48.5673 0.196682C48.5241 0.216974 48.4851 0.246715 48.4527 0.284111C48.4197 0.31917 48.3937 0.3614 48.3762 0.408138C48.3587 0.454875 48.3502 0.505106 48.3512 0.555662V5.43178L45.3599 0.49663C45.3066 0.425731 45.2456 0.362293 45.1783 0.307724C45.0773 0.217841 44.9501 0.171677 44.8205 0.177851H43.4584C43.4124 0.178563 43.367 0.189367 43.3248 0.209635C43.2826 0.229903 43.2445 0.259232 43.2127 0.295918C43.179 0.330683 43.1521 0.372724 43.1337 0.419436C43.1154 0.466147 43.1059 0.516533 43.1058 0.567469V9.87696C43.1059 9.9279 43.1154 9.97829 43.1337 10.025C43.1521 10.0717 43.179 10.1137 43.2127 10.1485C43.247 10.1881 43.2886 10.2192 43.3346 10.2396C43.3807 10.2599 43.4302 10.2691 43.4797 10.2666L43.5011 10.243ZM16.564 10.1485C16.5916 10.1198 16.6134 10.085 16.6281 10.0463C16.6428 10.0077 16.6501 9.9661 16.6494 9.92419C16.6494 9.92419 16.6494 9.88287 16.6494 9.85926C16.6409 9.82694 16.6302 9.79537 16.6174 9.7648L13.6261 5.16614L16.5212 0.620598C16.5462 0.571713 16.5608 0.517222 16.564 0.461209C16.5629 0.377015 16.5322 0.296584 16.4785 0.236886C16.4525 0.206395 16.421 0.182244 16.386 0.165979C16.3511 0.149715 16.3134 0.141695 16.2755 0.142433H14.2511C14.182 0.134916 14.1122 0.144233 14.0467 0.169731C13.9811 0.195228 13.9215 0.236287 13.8719 0.290015L13.7009 0.502534L12.1733 2.96421L10.5975 0.526146L10.4266 0.307724C10.377 0.253997 10.3173 0.21294 10.2518 0.187442C10.1863 0.161945 10.1165 0.152625 10.0473 0.160142H8.07634C8.03842 0.159404 8.00078 0.167424 7.96583 0.183688C7.93087 0.199953 7.89938 0.224104 7.87336 0.254595C7.81963 0.314293 7.78899 0.394727 7.7879 0.478921C7.79108 0.534933 7.80569 0.589424 7.83063 0.63831L10.715 5.12481L7.69709 9.78251C7.68432 9.81308 7.67361 9.84465 7.66504 9.87696C7.66264 9.89853 7.66264 9.92034 7.66504 9.9419C7.66437 9.98381 7.67163 10.0254 7.68635 10.064C7.70106 10.1027 7.72292 10.1375 7.75051 10.1662C7.7761 10.1973 7.80751 10.2219 7.84257 10.2382C7.87762 10.2545 7.91547 10.2622 7.95348 10.2607H9.92449C10.0508 10.2753 10.1777 10.2397 10.2824 10.1603C10.3483 10.0906 10.4073 10.0134 10.4586 9.9301L12.1305 7.33265L13.8131 9.9301C13.866 10.0121 13.925 10.0891 13.9894 10.1603C14.0965 10.2388 14.2247 10.2742 14.3526 10.2607H16.3343C16.3727 10.263 16.4111 10.2563 16.447 10.2411C16.4829 10.2258 16.5155 10.2023 16.5426 10.1721L16.564 10.1485ZM28.4915 0.142433H26.7822C26.7353 0.142357 26.6889 0.152779 26.6458 0.17307C26.6026 0.193362 26.5637 0.223101 26.5312 0.260497C26.4982 0.295557 26.4722 0.337789 26.4547 0.384526C26.4372 0.431264 26.4287 0.481494 26.4297 0.53205V9.87696C26.4287 9.92752 26.4372 9.97775 26.4547 10.0245C26.4722 10.0712 26.4982 10.1135 26.5312 10.1485C26.5637 10.1859 26.6026 10.2157 26.6458 10.2359C26.6889 10.2562 26.7353 10.2667 26.7822 10.2666H28.4915C28.5842 10.2636 28.6723 10.2216 28.7378 10.1492C28.8034 10.0767 28.8414 9.97936 28.8441 9.87696V0.555662C28.8414 0.453268 28.8034 0.355885 28.7378 0.283451C28.6723 0.211017 28.5842 0.169014 28.4915 0.166044V0.142433ZM12.3121 16.2466H9.42773C9.27866 16.2552 9.13773 16.3244 9.03217 16.4411C8.92661 16.5578 8.86392 16.7135 8.85619 16.8783V25.1016L3.78712 16.7779C3.70294 16.6484 3.60218 16.533 3.48799 16.4355C3.3137 16.2948 3.09957 16.2278 2.88441 16.2466H0.592906C0.435603 16.2497 0.285603 16.3205 0.174856 16.444C0.064109 16.5675 0.00136774 16.7339 0 16.9078V32.6342C0.00274433 32.807 0.066092 32.9719 0.176694 33.0942C0.287296 33.2164 0.436515 33.2864 0.592906 33.2894H3.47731C3.63463 33.2879 3.7852 33.2186 3.89695 33.0962C4.00869 32.9738 4.07278 32.808 4.07556 32.6342V24.3755L9.11793 32.6991C9.20368 32.8272 9.30424 32.9423 9.41705 33.0415C9.58719 33.1937 9.80201 33.2714 10.0206 33.2599H12.3121C12.4695 33.2584 12.62 33.1891 12.7318 33.0667C12.8435 32.9443 12.9076 32.7785 12.9104 32.6046V16.8783C12.9022 16.7086 12.8358 16.5487 12.7246 16.4313C12.6134 16.314 12.4659 16.2479 12.3121 16.2466ZM45.846 16.2466H42.9563C42.807 16.2473 42.6615 16.2989 42.5396 16.3942C42.4662 16.4551 42.405 16.5322 42.3599 16.6206C42.3149 16.709 42.2869 16.8068 42.2779 16.9078L40.8678 25.1016L39.5644 20.6918C39.5171 20.5368 39.4506 20.3898 39.3668 20.255C39.3057 20.1635 39.2247 20.0907 39.1313 20.0432C39.0379 19.9957 38.9352 19.9752 38.8326 19.9834H36.7601C36.6576 19.9752 36.5549 19.9957 36.4615 20.0432C36.3681 20.0907 36.2871 20.1635 36.226 20.255C36.1422 20.3898 36.0757 20.5368 36.0284 20.6918L34.6983 25.1016L33.2882 16.8724C33.277 16.7714 33.2476 16.6739 33.2017 16.5857C33.1558 16.4975 33.0944 16.4203 33.0211 16.3588C32.8993 16.2634 32.7538 16.2119 32.6045 16.2112H29.7201C29.5916 16.2127 29.4687 16.2698 29.3779 16.3702C29.287 16.4707 29.2354 16.6064 29.234 16.7484C29.2279 16.8132 29.2279 16.8784 29.234 16.9432L32.0757 32.3331C32.1188 32.5844 32.2443 32.8093 32.4282 32.9647C32.6368 33.1595 32.903 33.2624 33.176 33.254H35.0295C35.1602 33.2602 35.2907 33.2379 35.4135 33.1882C35.5363 33.1386 35.6491 33.0627 35.7453 32.9647C35.9149 32.7889 36.0463 32.573 36.1298 32.3331L37.7804 26.8253L39.4309 32.3331C39.5146 32.5743 39.6481 32.7906 39.8208 32.9647C39.9167 33.0632 40.0294 33.1395 40.1523 33.1892C40.2752 33.2389 40.4059 33.2609 40.5366 33.254H42.3634C42.6365 33.2636 42.9031 33.1604 43.1112 32.9647C43.2966 32.8109 43.4225 32.5853 43.4637 32.3331L46.3054 16.9432C46.3115 16.8784 46.3115 16.8132 46.3054 16.7484C46.3059 16.6784 46.2939 16.609 46.2701 16.5442C46.2462 16.4793 46.211 16.4204 46.1665 16.3706C46.0771 16.2871 45.963 16.2429 45.846 16.2466ZM60.6687 26.2114C60.4699 25.6556 60.1594 25.157 59.7606 24.7533C59.3198 24.3102 58.8092 23.9601 58.2543 23.7202C57.5644 23.4143 56.8487 23.1849 56.1177 23.0354C55.3111 22.8583 54.6328 22.7048 54.0879 22.575C53.6561 22.4646 53.2314 22.3226 52.8167 22.1499C52.5547 22.0564 52.3142 21.9013 52.1116 21.6954C51.9759 21.5356 51.9013 21.3241 51.9033 21.105C51.9018 20.8903 51.9679 20.6816 52.0902 20.5147C52.2224 20.3474 52.3892 20.2178 52.5763 20.1369C52.7962 20.0414 53.0258 19.976 53.26 19.9421C53.5255 19.9011 53.7932 19.8813 54.0612 19.8831C54.3897 19.873 54.7176 19.9188 55.0334 20.0188C55.2632 20.093 55.4838 20.1981 55.6904 20.3317C55.8397 20.4314 55.9777 20.5503 56.1017 20.6859C56.1925 20.7981 56.2673 20.8807 56.31 20.9279C56.4244 21.0466 56.554 21.146 56.6946 21.2231C56.852 21.2941 57.0215 21.3263 57.1914 21.3175H60.0758C60.1362 21.3165 60.1958 21.3019 60.2509 21.2745C60.306 21.247 60.3555 21.2075 60.3963 21.1582C60.443 21.11 60.48 21.0514 60.5049 20.9863C60.5297 20.9212 60.5419 20.851 60.5405 20.7803C60.5044 20.1973 60.3293 19.6351 60.033 19.151C59.6739 18.5454 59.2177 18.0172 58.687 17.5926C58.068 17.085 57.3814 16.6867 56.6519 16.4119C55.8171 16.1033 54.9414 15.9516 54.0612 15.9633C53.1827 15.9506 52.308 16.0941 51.4706 16.3883C50.755 16.6483 50.0874 17.0482 49.4996 17.569C48.9815 18.0259 48.5572 18.5994 48.255 19.2514C47.9738 19.8706 47.8275 20.5539 47.8277 21.2467C47.7765 22.4735 48.1597 23.6741 48.896 24.5939C49.8083 25.5475 50.965 26.166 52.2077 26.3649C53.0197 26.5597 53.7194 26.725 54.3123 26.8548C54.8089 26.9552 55.2995 27.0892 55.7812 27.2563C56.0872 27.3506 56.3763 27.5023 56.6358 27.7049C56.7227 27.7711 56.7941 27.8591 56.8443 27.9618C56.8944 28.0644 56.9218 28.1787 56.9243 28.2952C56.9202 28.5373 56.8403 28.7703 56.698 28.9544C56.5558 29.1385 56.3601 29.2623 56.1444 29.3047C55.5117 29.5102 54.854 29.6058 54.1948 29.5881C53.8168 29.5972 53.4399 29.5394 53.0784 29.4169C52.8133 29.3227 52.5615 29.1875 52.3306 29.0154C52.1584 28.8848 52.0006 28.7322 51.8605 28.5609L51.5935 28.248C51.4877 28.1435 51.369 28.056 51.2409 27.9883C51.0851 27.9269 50.9202 27.8988 50.7549 27.9056H47.8491C47.7887 27.9066 47.7291 27.9213 47.6739 27.9487C47.6188 27.9761 47.5694 28.0157 47.5286 28.065C47.4824 28.1137 47.4457 28.1723 47.4209 28.2373C47.3961 28.3023 47.3836 28.3723 47.3844 28.4428C47.4121 29.0926 47.5965 29.7224 47.9185 30.2669C48.2874 30.8998 48.7625 31.4488 49.318 31.8844C49.9668 32.4048 50.6887 32.8036 51.4546 33.0651C52.3395 33.3704 53.2624 33.5199 54.1894 33.5079C55.1062 33.5161 56.0201 33.3931 56.9083 33.1418C57.6698 32.924 58.3923 32.5646 59.0449 32.0793C59.6271 31.6512 60.113 31.0818 60.4657 30.4145C60.8217 29.7414 61.0062 28.9745 60.9998 28.1949C61.002 27.5167 60.8897 26.844 60.6687 26.2114ZM27.0173 29.3637H20.0733V26.6364H26.3763C26.5327 26.6334 26.6819 26.5634 26.7925 26.4411C26.9031 26.3189 26.9665 26.154 26.9692 25.9812V23.4014C26.9678 23.2265 26.9043 23.0593 26.7924 22.9356C26.6805 22.8119 26.5292 22.7418 26.3709 22.7402H20.0733V20.1133H26.857C27.0143 20.1118 27.1649 20.0424 27.2767 19.92C27.3884 19.7976 27.4525 19.6319 27.4553 19.458V16.8783C27.4471 16.7076 27.3799 16.5469 27.2675 16.4293C27.1552 16.3118 27.0064 16.2464 26.8517 16.2466H16.5907C16.4324 16.2482 16.2811 16.3183 16.1692 16.442C16.0573 16.5656 15.9938 16.7329 15.9924 16.9078V32.6342C15.9952 32.808 16.0593 32.9738 16.171 33.0962C16.2828 33.2186 16.4334 33.2879 16.5907 33.2894H27.0173C27.1737 33.2864 27.3229 33.2164 27.4335 33.0942C27.5441 32.9719 27.6074 32.807 27.6102 32.6342V30.0544C27.6088 29.8806 27.5461 29.7142 27.4353 29.5907C27.3246 29.4672 27.1746 29.3963 27.0173 29.3933V29.3637Z" fill="#263238"/>
</svg>
