<svg width="15" height="19" viewBox="0 0 15 19" fill="none" xmlns="http://www.w3.org/2000/svg">
<path fill-rule="evenodd" clip-rule="evenodd" d="M7.86363 0C7.9907 0.0291399 8.11801 0.0556524 8.24436 0.0871809C9.78854 0.471732 10.7786 1.73812 10.7996 3.35515C10.8015 3.50993 10.7998 3.66494 10.7998 3.87155C10.8772 3.79798 10.9226 3.75666 10.9658 3.71343C11.6927 2.9866 12.4178 2.25786 13.1466 1.53295C13.6006 1.08128 14.1844 1.04068 14.6353 1.42141C15.0566 1.77706 15.1228 2.41575 14.7813 2.84902C14.7256 2.91948 14.6645 2.98636 14.6009 3.05014C10.3637 7.28832 6.12598 11.5265 1.88828 15.7642C1.41272 16.2398 0.831118 16.293 0.373478 15.9061C-0.0554994 15.543 -0.133604 14.89 0.236855 14.4684C0.573397 14.0853 0.947678 13.7352 1.30691 13.3721C1.57323 13.1029 1.84003 12.834 2.1116 12.57C2.18039 12.5032 2.20284 12.4473 2.1663 12.3522C1.89019 11.6352 1.80707 10.8869 1.81614 10.124C1.81996 9.81752 1.81328 9.51083 1.81781 9.20415C1.82259 8.87788 1.96925 8.73648 2.29695 8.73337C2.45913 8.7317 2.62155 8.73074 2.78373 8.73361C3.08683 8.7391 3.23803 8.88719 3.24161 9.18958C3.24591 9.55025 3.23516 9.91115 3.24495 10.2716C3.25427 10.6129 3.28126 10.9535 3.30323 11.3402C3.3768 11.285 3.4143 11.2628 3.44416 11.2332C3.65769 11.0216 3.86621 10.8047 4.08404 10.5978C4.17432 10.5121 4.20848 10.4223 4.20824 10.2981C4.2049 8.00774 4.20848 5.71763 4.20418 3.42728C4.20299 2.7628 4.34056 2.13891 4.69717 1.57403C5.23745 0.718464 6.01086 0.208516 7.00878 0.0386924C7.05416 0.0310507 7.09763 0.0131368 7.14206 0C7.38258 0 7.6231 0 7.86363 0ZM3.7869 18.4714C3.55378 18.3914 3.46803 18.2182 3.47376 17.9834C3.47758 17.8272 3.47137 17.6705 3.47519 17.5145C3.48308 17.1935 3.62042 17.0555 3.94239 17.0545C4.81396 17.0521 5.68577 17.0536 6.55758 17.0536C6.62828 17.0536 6.69898 17.0536 6.77899 17.0536C6.77899 16.728 6.77899 16.4237 6.77899 16.1462C6.30678 16.0033 5.83027 15.898 5.38601 15.7138C4.94055 15.5292 4.52781 15.266 4.10552 15.0396C4.46595 14.6775 4.79413 14.3479 5.13521 14.0051C5.52502 14.2578 5.96881 14.4613 6.44866 14.5898C8.49012 15.1368 10.7389 13.9776 11.4743 12.0002C11.6673 11.4812 11.7653 10.949 11.7631 10.3968C11.7617 10 11.7607 9.60306 11.7633 9.20633C11.7655 8.88244 11.9143 8.73698 12.2408 8.73364C12.4152 8.73173 12.5898 8.72838 12.7637 8.73483C13.0164 8.74415 13.1762 8.87313 13.1778 9.11628C13.1848 10.028 13.2449 10.9433 13.0039 11.8406C12.7059 12.9503 12.1326 13.8912 11.2845 14.6622C10.4597 15.4115 9.49951 15.8904 8.39387 16.0661C8.34108 16.0745 8.28949 16.0896 8.22691 16.1039C8.22691 16.4139 8.22691 16.7232 8.22691 17.054C8.30048 17.054 8.36496 17.054 8.42946 17.054C9.28932 17.054 10.1489 17.0538 11.0086 17.0543C11.4001 17.0545 11.5286 17.1818 11.5307 17.569C11.5314 17.7073 11.5278 17.8456 11.5314 17.9839C11.5376 18.2187 11.4514 18.3918 11.2183 18.4719C8.7414 18.4714 6.26427 18.4714 3.7869 18.4714ZM5.68888 13.4517C7.38545 11.7551 9.08344 10.0573 10.7819 8.3591C10.7845 8.37224 10.7989 8.40879 10.7989 8.44557C10.7967 9.26865 10.8094 10.0922 10.7855 10.9146C10.7423 12.4033 9.49761 13.7586 8.0227 13.9628C7.17144 14.0808 6.388 13.9222 5.68888 13.4517Z" fill="black"/>
</svg>
