<svg width="14" height="10" viewBox="0 0 14 10" fill="none" xmlns="http://www.w3.org/2000/svg">
<path d="M4.33603 9.99968C3.66661 10.0046 3.00692 9.82783 2.4184 9.48594C0.9433 8.60524 0.0845844 6.73093 0.000293073 4.20174C-0.00226498 4.14252 0.0119705 4.08385 0.0411214 4.03346C0.0702722 3.98308 0.112971 3.94334 0.163606 3.91946L7.22827 0.4531C7.25969 0.447812 7.29168 0.447812 7.3231 0.4531L13.4395 0.00146528C13.4861 -0.00363856 13.5331 0.00464381 13.5757 0.0254822C13.6183 0.0463206 13.6549 0.0789569 13.6818 0.120016C13.7103 0.158468 13.7288 0.204355 13.7353 0.252971C13.7417 0.301587 13.736 0.351174 13.7187 0.396642C12.4438 4.11704 10.031 7.40839 7.48642 9.00043C6.53531 9.62158 5.4494 9.966 4.33603 9.99968ZM0.563995 4.35416C0.674628 6.5672 1.42798 8.19311 2.67128 8.93832C3.91458 9.68353 5.5003 9.50288 7.19667 8.43588C9.55682 6.97933 11.7642 3.99284 13.0286 0.577303L7.39685 0.995066L0.563995 4.35416Z" fill="white"/>
</svg>
