<svg width="240" height="240" viewBox="0 0 240 240" fill="none" xmlns="http://www.w3.org/2000/svg">
<path d="M203.817 116.257C156.973 87.9742 81.2735 87.9742 34.7316 116.257C-11.8102 144.54 -11.54 190.464 35.325 218.769C82.1901 247.074 157.868 247.079 204.41 218.769C250.952 190.458 250.682 144.568 203.817 116.257Z" fill="#F5F5F5"/>
<path d="M18.9686 163.435C15.6836 161.449 10.3692 161.449 7.10534 163.435C3.84147 165.42 3.85207 168.642 7.14242 170.644C10.4328 172.646 15.7419 172.63 19.011 170.644C22.2802 168.659 22.259 165.426 18.9686 163.435Z" fill="#E0E0E0"/>
<path d="M226.987 161.493C223.522 159.403 217.921 159.403 214.483 161.493C211.044 163.584 211.054 166.984 214.52 169.074C217.985 171.165 223.585 171.171 227.029 169.074C230.473 166.978 230.452 163.59 226.987 161.493Z" fill="#E0E0E0"/>
<path d="M222.298 175.236L170.966 144.269L125.473 171.786L136.129 178.214C130.353 178.679 124.779 180.249 120.355 182.944C109.657 189.449 109.716 199.997 120.482 206.502C131.249 213.007 148.644 213.007 159.341 206.502C163.781 203.801 166.362 200.402 167.098 196.891L176.794 202.753L222.298 175.236Z" fill="#E0E0E0"/>
<path d="M151.976 117.583L18.889 198.921L13.2515 195.511L146.333 114.172L151.976 117.583Z" fill="#E0E0E0"/>
<path d="M21.0191 152.005L13.0714 152.254L5.12371 152.01C4.75282 157.628 5.80191 163.346 7.2431 166.163C7.59257 166.879 8.14879 167.461 8.83264 167.827C11.1799 169.246 14.9736 169.246 17.3102 167.827C18.0054 167.456 18.5642 166.856 18.8998 166.119C20.3197 163.307 21.3582 157.6 21.0191 152.005Z" fill="white"/>
<path d="M18.6664 148.594C21.7819 150.474 21.8031 153.53 18.7035 155.415C15.6039 157.301 10.565 157.301 7.44422 155.415C4.32341 153.53 4.31282 150.474 7.40713 148.594C10.5014 146.714 15.5456 146.709 18.6664 148.594Z" fill="#EBEBEB"/>
<path d="M17.4321 149.343C19.8641 150.812 19.88 153.197 17.4639 154.667C15.0478 156.136 11.1057 156.136 8.67899 154.667C6.25228 153.197 6.23109 150.785 8.65249 149.343C11.0739 147.901 15.0001 147.873 17.4321 149.343Z" fill="#E0E0E0"/>
<g opacity="0.15">
<path d="M17.4321 149.343C19.8641 150.812 19.88 153.197 17.4639 154.667C15.0478 156.136 11.1057 156.136 8.67899 154.667C6.25228 153.197 6.23109 150.785 8.65249 149.343C11.0739 147.901 15.0001 147.873 17.4321 149.343Z" fill="black"/>
</g>
<path d="M8.99681 134.958C7.69869 133.294 6.19922 131.764 5.01236 129.994C4.20169 128.786 3.52349 127.31 3.86259 125.88C4.05219 125.222 4.41364 124.633 4.90613 124.18C5.39861 123.726 6.0025 123.425 6.64959 123.312C7.95649 123.107 9.28944 123.418 10.3903 124.183C11.4804 124.946 12.4373 125.898 13.2197 127C17.7 132.941 19.818 140.461 19.1328 147.996C19.1165 148.858 18.8605 149.696 18.3963 150.408C18.1079 150.755 17.7308 151.009 17.3094 151.14C16.8881 151.27 16.4398 151.272 16.0173 151.146C13.8502 150.469 14.1363 147.408 13.7813 145.6C13.2916 143.125 12.4523 140.74 11.2911 138.524C10.628 137.267 9.86031 136.074 8.99681 134.958Z" fill="#0060FF"/>
<path opacity="0.2" d="M8.99681 134.958C7.69869 133.294 6.19922 131.764 5.01236 129.994C4.20169 128.786 3.52349 127.31 3.86259 125.88C4.05219 125.222 4.41364 124.633 4.90613 124.18C5.39861 123.726 6.0025 123.425 6.64959 123.312C7.95649 123.107 9.28944 123.418 10.3903 124.183C11.4804 124.946 12.4373 125.898 13.2197 127C17.7 132.941 19.818 140.461 19.1328 147.996C19.1165 148.858 18.8605 149.696 18.3963 150.408C18.1079 150.755 17.7308 151.009 17.3094 151.14C16.8881 151.27 16.4398 151.272 16.0173 151.146C13.8502 150.469 14.1363 147.408 13.7813 145.6C13.2916 143.125 12.4523 140.74 11.2911 138.524C10.628 137.267 9.86031 136.074 8.99681 134.958Z" fill="black"/>
<path d="M16.1498 148.882C16.1077 148.874 16.0695 148.85 16.0417 148.816C16.0138 148.782 15.9977 148.739 15.9962 148.694C15.8478 145.05 14.7139 132.611 6.52778 125.563C6.51 125.544 6.49589 125.522 6.48626 125.498C6.47664 125.474 6.47168 125.448 6.47168 125.421C6.47168 125.395 6.47664 125.369 6.48626 125.345C6.49589 125.321 6.51 125.298 6.52778 125.28C6.54505 125.261 6.56566 125.247 6.5884 125.237C6.61115 125.227 6.63557 125.222 6.66024 125.222C6.68492 125.222 6.70934 125.227 6.73208 125.237C6.75483 125.247 6.77544 125.261 6.79271 125.28C15.0795 132.417 16.2505 144.995 16.3777 148.677C16.3792 148.73 16.3613 148.781 16.3278 148.82C16.2943 148.859 16.2476 148.884 16.1975 148.888L16.1498 148.882Z" fill="#F0F0F0"/>
<path d="M17.3475 149.277C17.1777 150.077 16.8556 150.833 16.4005 151.5C15.9453 152.167 15.3663 152.731 14.6982 153.159C13.446 153.779 12.0537 154.023 10.6767 153.863C9.27599 153.685 7.90085 153.331 6.58097 152.809C5.92396 152.576 5.19806 152.255 5.12389 151.417C5.11225 151.194 5.14803 150.971 5.22865 150.764C5.30927 150.557 5.43273 150.371 5.59015 150.219C5.72301 150.082 5.86463 149.954 6.01403 149.837C6.08153 149.782 6.13172 149.708 6.15804 149.623C6.18435 149.538 6.18557 149.446 6.16153 149.361C6.13749 149.275 6.08931 149.199 6.02329 149.142C5.95727 149.086 5.87648 149.052 5.79149 149.044C5.40038 149.019 5.0111 148.969 4.62583 148.894C3.72857 148.742 2.88579 148.344 2.18323 147.741C1.67059 147.267 1.28213 146.663 1.05465 145.988C0.928269 145.714 0.876257 145.408 0.904286 145.105C0.932314 144.802 1.03931 144.513 1.21361 144.269C1.47307 144.046 1.78694 143.904 2.11965 143.859C2.41283 143.792 2.70425 143.737 2.9939 143.692C3.07748 143.678 3.15431 143.635 3.21286 143.571C3.27141 143.507 3.30854 143.425 3.31868 143.337C3.32882 143.249 3.31144 143.159 3.26912 143.083C3.22681 143.006 3.16185 142.945 3.08397 142.91L1.84943 142.356C1.49543 142.235 1.17398 142.028 0.911595 141.751C0.75136 141.489 0.647515 141.194 0.607259 140.885C0.567002 140.577 0.591299 140.263 0.678463 139.966C0.82682 139.161 1.09174 138.379 1.27719 137.575C1.49116 136.779 1.51843 135.94 1.35667 135.13C3.67241 134.862 6.01511 135.025 8.27648 135.612C8.95548 135.761 9.59767 136.056 10.1627 136.477C10.5144 136.806 10.7806 137.222 10.9363 137.688C11.092 138.154 11.1321 138.653 11.0529 139.139C11.0526 139.18 11.0652 139.221 11.0888 139.254C11.1124 139.287 11.1457 139.311 11.1835 139.322C11.2214 139.333 11.2618 139.331 11.2985 139.316C11.3351 139.301 11.3661 139.274 11.3867 139.239L12.1762 137.714C12.292 137.494 12.484 137.329 12.7126 137.252C12.9413 137.176 13.1893 137.194 13.4054 137.304C14.0956 137.667 14.7084 138.172 15.2069 138.79C15.4839 139.118 15.6951 139.501 15.828 139.917C15.9609 140.332 16.0127 140.771 15.9805 141.208C15.8862 142.406 15.693 143.594 15.4029 144.757C15.3878 144.823 15.3922 144.892 15.4156 144.955C15.439 145.018 15.4802 145.072 15.5337 145.11C15.5873 145.148 15.6506 145.168 15.7153 145.167C15.78 145.167 15.8429 145.145 15.8957 145.106L15.9328 145.073C16.146 144.903 16.413 144.824 16.6799 144.851C17.374 144.94 17.5541 145.678 17.6018 146.31C17.6312 147.306 17.5459 148.302 17.3475 149.277Z" fill="#0060FF"/>
<path opacity="0.2" d="M17.3475 149.277C17.1777 150.077 16.8556 150.833 16.4005 151.5C15.9453 152.167 15.3663 152.731 14.6982 153.159C13.446 153.779 12.0537 154.023 10.6767 153.863C9.27599 153.685 7.90085 153.331 6.58097 152.809C5.92396 152.576 5.19806 152.255 5.12389 151.417C5.11225 151.194 5.14803 150.971 5.22865 150.764C5.30927 150.557 5.43273 150.371 5.59015 150.219C5.72301 150.082 5.86463 149.954 6.01403 149.837C6.08153 149.782 6.13172 149.708 6.15804 149.623C6.18435 149.538 6.18557 149.446 6.16153 149.361C6.13749 149.275 6.08931 149.199 6.02329 149.142C5.95727 149.086 5.87648 149.052 5.79149 149.044C5.40038 149.019 5.0111 148.969 4.62583 148.894C3.72857 148.742 2.88579 148.344 2.18323 147.741C1.67059 147.267 1.28213 146.663 1.05465 145.988C0.928269 145.714 0.876257 145.408 0.904286 145.105C0.932314 144.802 1.03931 144.513 1.21361 144.269C1.47307 144.046 1.78694 143.904 2.11965 143.859C2.41283 143.792 2.70425 143.737 2.9939 143.692C3.07748 143.678 3.15431 143.635 3.21286 143.571C3.27141 143.507 3.30854 143.425 3.31868 143.337C3.32882 143.249 3.31144 143.159 3.26912 143.083C3.22681 143.006 3.16185 142.945 3.08397 142.91L1.84943 142.356C1.49543 142.235 1.17398 142.028 0.911595 141.751C0.75136 141.489 0.647515 141.194 0.607259 140.885C0.567002 140.577 0.591299 140.263 0.678463 139.966C0.82682 139.161 1.09174 138.379 1.27719 137.575C1.49116 136.779 1.51843 135.94 1.35667 135.13C3.67241 134.862 6.01511 135.025 8.27648 135.612C8.95548 135.761 9.59767 136.056 10.1627 136.477C10.5144 136.806 10.7806 137.222 10.9363 137.688C11.092 138.154 11.1321 138.653 11.0529 139.139C11.0526 139.18 11.0652 139.221 11.0888 139.254C11.1124 139.287 11.1457 139.311 11.1835 139.322C11.2214 139.333 11.2618 139.331 11.2985 139.316C11.3351 139.301 11.3661 139.274 11.3867 139.239L12.1762 137.714C12.292 137.494 12.484 137.329 12.7126 137.252C12.9413 137.176 13.1893 137.194 13.4054 137.304C14.0956 137.667 14.7084 138.172 15.2069 138.79C15.4839 139.118 15.6951 139.501 15.828 139.917C15.9609 140.332 16.0127 140.771 15.9805 141.208C15.8862 142.406 15.693 143.594 15.4029 144.757C15.3878 144.823 15.3922 144.892 15.4156 144.955C15.439 145.018 15.4802 145.072 15.5337 145.11C15.5873 145.148 15.6506 145.168 15.7153 145.167C15.78 145.167 15.8429 145.145 15.8957 145.106L15.9328 145.073C16.146 144.903 16.413 144.824 16.6799 144.851C17.374 144.94 17.5541 145.678 17.6018 146.31C17.6312 147.306 17.5459 148.302 17.3475 149.277Z" fill="black"/>
<path opacity="0.2" d="M17.3475 149.277C17.1777 150.077 16.8556 150.833 16.4005 151.5C15.9453 152.167 15.3663 152.731 14.6982 153.159C13.446 153.779 12.0537 154.023 10.6767 153.863C9.27599 153.685 7.90085 153.331 6.58097 152.809C5.92396 152.576 5.19806 152.255 5.12389 151.417C5.11225 151.194 5.14803 150.971 5.22865 150.764C5.30927 150.557 5.43273 150.371 5.59015 150.219C5.72301 150.082 5.86463 149.954 6.01403 149.837C6.08153 149.782 6.13172 149.708 6.15804 149.623C6.18435 149.538 6.18557 149.446 6.16153 149.361C6.13749 149.275 6.08931 149.199 6.02329 149.142C5.95727 149.086 5.87648 149.052 5.79149 149.044C5.40038 149.019 5.0111 148.969 4.62583 148.894C3.72857 148.742 2.88579 148.344 2.18323 147.741C1.67059 147.267 1.28213 146.663 1.05465 145.988C0.928269 145.714 0.876257 145.408 0.904286 145.105C0.932314 144.802 1.03931 144.513 1.21361 144.269C1.47307 144.046 1.78694 143.904 2.11965 143.859C2.41283 143.792 2.70425 143.737 2.9939 143.692C3.07748 143.678 3.15431 143.635 3.21286 143.571C3.27141 143.507 3.30854 143.425 3.31868 143.337C3.32882 143.249 3.31144 143.159 3.26912 143.083C3.22681 143.006 3.16185 142.945 3.08397 142.91L1.84943 142.356C1.49543 142.235 1.17398 142.028 0.911595 141.751C0.75136 141.489 0.647515 141.194 0.607259 140.885C0.567002 140.577 0.591299 140.263 0.678463 139.966C0.82682 139.161 1.09174 138.379 1.27719 137.575C1.49116 136.779 1.51843 135.94 1.35667 135.13C3.67241 134.862 6.01511 135.025 8.27648 135.612C8.95548 135.761 9.59767 136.056 10.1627 136.477C10.5144 136.806 10.7806 137.222 10.9363 137.688C11.092 138.154 11.1321 138.653 11.0529 139.139C11.0526 139.18 11.0652 139.221 11.0888 139.254C11.1124 139.287 11.1457 139.311 11.1835 139.322C11.2214 139.333 11.2618 139.331 11.2985 139.316C11.3351 139.301 11.3661 139.274 11.3867 139.239L12.1762 137.714C12.292 137.494 12.484 137.329 12.7126 137.252C12.9413 137.176 13.1893 137.194 13.4054 137.304C14.0956 137.667 14.7084 138.172 15.2069 138.79C15.4839 139.118 15.6951 139.501 15.828 139.917C15.9609 140.332 16.0127 140.771 15.9805 141.208C15.8862 142.406 15.693 143.594 15.4029 144.757C15.3878 144.823 15.3922 144.892 15.4156 144.955C15.439 145.018 15.4802 145.072 15.5337 145.11C15.5873 145.148 15.6506 145.168 15.7153 145.167C15.78 145.167 15.8429 145.145 15.8957 145.106L15.9328 145.073C16.146 144.903 16.413 144.824 16.6799 144.851C17.374 144.94 17.5541 145.678 17.6018 146.31C17.6312 147.306 17.5459 148.302 17.3475 149.277Z" fill="white"/>
<path d="M13.6808 152.937C13.2449 150.994 12.6217 149.102 11.821 147.291C11.8201 147.263 11.8134 147.236 11.8016 147.211C11.7897 147.186 11.7728 147.164 11.7521 147.147L11.625 146.847C11.8516 144.593 12.475 142.403 13.4635 140.387C13.4805 140.364 13.4925 140.338 13.4988 140.31C13.5052 140.282 13.5057 140.253 13.5003 140.225C13.495 140.197 13.4838 140.17 13.4677 140.147C13.4516 140.123 13.4309 140.104 13.407 140.09C13.3831 140.076 13.3566 140.067 13.3292 140.065C13.3019 140.062 13.2744 140.066 13.2485 140.076C13.2227 140.086 13.1992 140.101 13.1796 140.121C13.16 140.141 13.1448 140.166 13.135 140.193C12.2093 142.072 11.5965 144.103 11.323 146.199C9.50674 142.232 6.7753 138.801 3.37524 136.216C3.35483 136.199 3.3313 136.187 3.3061 136.18C3.28091 136.173 3.25458 136.171 3.22876 136.175C3.20294 136.179 3.17817 136.188 3.15599 136.203C3.1338 136.217 3.11467 136.236 3.09978 136.259C3.08489 136.281 3.07455 136.306 3.06941 136.333C3.06427 136.36 3.06443 136.388 3.06989 136.414C3.07535 136.441 3.08599 136.466 3.10114 136.488C3.1163 136.511 3.13565 136.529 3.15801 136.544C7.15836 139.455 9.68573 143.498 11.217 146.847C9.14659 145.856 6.84265 145.526 4.59389 145.899C4.56938 145.903 4.54588 145.912 4.5248 145.926C4.50371 145.94 4.48546 145.958 4.47113 145.979C4.45681 146 4.44669 146.024 4.44138 146.049C4.43607 146.075 4.43568 146.101 4.44024 146.126C4.44847 146.166 4.46732 146.202 4.49456 146.23C4.52179 146.259 4.55627 146.279 4.59389 146.287H4.66277C4.69986 146.287 8.31872 145.588 11.4501 147.424C12.2478 149.216 12.8657 151.089 13.294 153.014C13.3031 153.052 13.3224 153.087 13.3495 153.115C13.3767 153.142 13.4107 153.161 13.4476 153.169C13.4721 153.175 13.4974 153.175 13.5218 153.169C13.547 153.165 13.5712 153.156 13.5929 153.142C13.6147 153.128 13.6335 153.11 13.6483 153.088C13.6631 153.066 13.6736 153.042 13.6792 153.016C13.6848 152.99 13.6853 152.963 13.6808 152.937Z" fill="#F0F0F0"/>
<path d="M229.144 149.448L220.772 149.703L212.379 149.448C212.019 155.377 213.126 161.421 214.652 164.372C215.014 165.129 215.594 165.748 216.311 166.141C218.79 167.632 222.785 167.632 225.249 166.141C225.98 165.744 226.563 165.104 226.908 164.322C228.407 161.355 229.504 155.349 229.144 149.448Z" fill="white"/>
<path d="M226.669 145.849C229.954 147.835 229.97 151.057 226.706 153.059C223.442 155.061 218.128 155.044 214.843 153.059C211.558 151.073 211.537 147.851 214.806 145.849C218.075 143.847 223.379 143.864 226.669 145.849Z" fill="#EBEBEB"/>
<path d="M225.366 146.642C227.93 148.19 227.946 150.702 225.397 152.255C222.849 153.807 218.706 153.802 216.141 152.255C213.577 150.707 213.566 148.19 216.109 146.642C218.653 145.095 222.801 145.09 225.366 146.642Z" fill="#E0E0E0"/>
<g opacity="0.15">
<path d="M225.366 146.642C227.93 148.19 227.946 150.702 225.397 152.255C222.849 153.807 218.706 153.802 216.141 152.255C213.577 150.707 213.566 148.19 216.109 146.642C218.653 145.095 222.801 145.09 225.366 146.642Z" fill="black"/>
</g>
<path d="M234.548 111.977C215.643 118.459 215.473 131.697 219.712 141.125C220.772 143.032 224.041 144.053 226.87 132.329L221.906 133L227.692 129.928L229.196 125.225L224.369 125.602L230.494 122.902C231.63 119.176 232.983 115.527 234.548 111.977Z" fill="#0060FF"/>
<path opacity="0.2" d="M234.548 111.977C215.643 118.459 215.473 131.697 219.712 141.125C220.772 143.032 224.041 144.053 226.87 132.329L221.906 133L227.692 129.928L229.196 125.225L224.369 125.602L230.494 122.902C231.63 119.176 232.983 115.527 234.548 111.977Z" fill="black"/>
<path opacity="0.2" d="M234.548 111.977C215.643 118.459 215.473 131.697 219.712 141.125C220.772 143.032 224.041 144.053 226.87 132.329L221.906 133L227.692 129.928L229.196 125.225L224.369 125.602L230.494 122.902C231.63 119.176 232.983 115.527 234.548 111.977Z" fill="white"/>
<path d="M229.202 115.287C219.23 123.206 218.329 132.29 221.148 141.768C220.152 133.399 219.076 124.981 229.202 115.287Z" fill="white"/>
<path d="M202.524 125.424C221.164 128.169 223.421 140.47 220.952 149.992C220.253 151.955 217.386 153.474 212.888 143.048L217.619 142.804L211.764 140.952L209.613 136.837L214.17 136.344L208.034 134.896C206.386 131.623 204.546 128.459 202.524 125.424Z" fill="#0060FF"/>
<path opacity="0.2" d="M202.524 125.424C221.164 128.169 223.421 140.47 220.952 149.992C220.253 151.955 217.386 153.474 212.888 143.048L217.619 142.804L211.764 140.952L209.613 136.837L214.17 136.344L208.034 134.896C206.386 131.623 204.546 128.459 202.524 125.424Z" fill="white"/>
<path opacity="0.1" d="M202.524 125.424C221.164 128.169 223.421 140.47 220.952 149.992C220.253 151.955 217.386 153.474 212.888 143.048L217.619 142.804L211.764 140.952L209.613 136.837L214.17 136.344L208.034 134.896C206.386 131.623 204.546 128.459 202.524 125.424Z" fill="black"/>
<path d="M208.055 127.576C218.594 133.222 220.872 141.518 219.754 150.84C219.336 142.893 219.002 134.847 208.055 127.576Z" fill="white"/>
<path d="M240 130.033C222.912 130.327 219.558 141.125 220.772 149.998C221.19 151.85 223.612 153.552 228.778 144.685L224.539 143.908L230.039 142.927L232.428 139.5L228.375 138.524L234.018 137.93C235.856 135.172 237.853 132.535 240 130.033Z" fill="#0060FF"/>
<path d="M234.807 131.331C224.703 135.179 221.763 142.422 221.773 150.923C222.981 143.808 224.147 136.593 234.807 131.331Z" fill="white"/>
<path opacity="0.2" d="M240 130.033C222.912 130.327 219.558 141.125 220.772 149.998C221.19 151.85 223.612 153.552 228.778 144.685L224.539 143.908L230.039 142.927L232.428 139.5L228.375 138.524L234.018 137.93C235.856 135.172 237.853 132.535 240 130.033Z" fill="white"/>
<path d="M16.33 97.2804L16.3088 89.5275L12.4409 87.2261L12.4621 94.7959V94.9678L16.33 97.2804Z" fill="#0060FF"/>
<path d="M16.5738 187.059L16.33 97.2803L12.4622 94.9678L12.7059 184.58C12.6802 184.868 12.7268 185.159 12.8411 185.422C12.9554 185.686 13.1335 185.914 13.3576 186.083L17.1672 188.523C16.9594 188.35 16.7962 188.126 16.6925 187.87C16.5889 187.614 16.548 187.336 16.5738 187.059Z" fill="#0060FF"/>
<path opacity="0.2" d="M16.5738 187.059L16.33 97.2803L12.4622 94.9678L12.7059 184.58C12.6802 184.868 12.7268 185.159 12.8411 185.422C12.9554 185.686 13.1335 185.914 13.3576 186.083L17.1672 188.523C16.9594 188.35 16.7962 188.126 16.6925 187.87C16.5889 187.614 16.548 187.336 16.5738 187.059Z" fill="white"/>
<path d="M16.3195 89.5107V85.0465C16.3611 84.2178 16.5892 83.4112 16.9851 82.6923C17.381 81.9733 17.9336 81.3625 18.5978 80.9094L147.881 2.79871C148.109 2.62932 148.375 2.52449 148.654 2.49437C148.932 2.46426 149.214 2.50987 149.47 2.6268L145.655 0.175615C145.394 0.0391077 145.103 -0.0196473 144.812 0.00578427C144.521 0.0312159 144.243 0.139853 144.008 0.319801L14.7246 78.425C14.0591 78.8779 13.5057 79.4895 13.1096 80.2096C12.7136 80.9297 12.4863 81.7378 12.4463 82.5676V87.0041V87.1816L16.3142 89.483L16.3195 89.5107Z" fill="#0060FF"/>
<path opacity="0.3" d="M16.3195 89.5107V85.0465C16.3611 84.2178 16.5892 83.4112 16.9851 82.6923C17.381 81.9733 17.9336 81.3625 18.5978 80.9094L147.881 2.79871C148.109 2.62932 148.375 2.52449 148.654 2.49437C148.932 2.46426 149.214 2.50987 149.47 2.6268L145.655 0.175615C145.394 0.0391077 145.103 -0.0196473 144.812 0.00578427C144.521 0.0312159 144.243 0.139853 144.008 0.319801L14.7246 78.425C14.0591 78.8779 13.5057 79.4895 13.1096 80.2096C12.7136 80.9297 12.4863 81.7378 12.4463 82.5676V87.0041V87.1816L16.3142 89.483L16.3195 89.5107Z" fill="white"/>
<path opacity="0.2" d="M16.33 97.2804L16.3088 89.5275L12.4409 87.2261L12.4621 94.7959V94.9678L16.33 97.2804Z" fill="black"/>
<path opacity="0.2" d="M16.33 97.2804L16.3088 89.5275L12.4409 87.2261L12.4621 94.7959V94.9678L16.33 97.2804Z" fill="white"/>
<path d="M147.844 2.79864C149.105 2.03888 150.133 2.65445 150.138 4.17396V8.64377L16.3196 89.5107V85.0464C16.3612 84.2177 16.5893 83.4111 16.9852 82.6922C17.3811 81.9733 17.9337 81.3624 18.5979 80.9093L147.844 2.79864Z" fill="#0060FF"/>
<path d="M139.175 10.1907C139.848 9.78033 140.399 10.1075 140.404 10.9227C140.382 11.3672 140.259 11.7998 140.046 12.1852C139.833 12.5707 139.537 12.8981 139.18 13.141C138.508 13.5458 137.957 13.2186 137.957 12.4034C137.975 11.9594 138.096 11.5266 138.308 11.1415C138.52 10.7564 138.817 10.4303 139.175 10.1907Z" fill="white"/>
<path d="M142.916 7.93388C143.589 7.5235 144.14 7.85069 144.14 8.66591C144.119 9.11029 143.998 9.54319 143.786 9.92889C143.574 10.3146 143.278 10.642 142.921 10.8842C142.243 11.289 141.697 10.9618 141.692 10.1521C141.714 9.70736 141.836 9.27431 142.049 8.88865C142.262 8.50299 142.559 8.17574 142.916 7.93388Z" fill="white"/>
<path d="M146.641 5.67653C147.319 5.2717 147.87 5.59889 147.87 6.40856C147.852 6.85357 147.732 7.2875 147.52 7.67362C147.308 8.05975 147.01 8.3867 146.651 8.62683C145.973 9.03721 145.427 8.71001 145.422 7.8948C145.445 7.45102 145.567 7.01912 145.779 6.63384C145.991 6.24856 146.286 5.92066 146.641 5.67653Z" fill="white"/>
<path d="M43.2358 68.8197C43.7391 68.5147 44.2054 68.5646 44.4491 68.9584L45.6625 70.916C45.9009 71.3042 46.3619 71.3652 46.8705 71.0602L150.138 8.65479V16.4187L16.3301 97.2912V89.5272L20.2933 87.1315C20.8559 86.7537 21.2813 86.1894 21.5014 85.5288L22.6988 82.1127C22.919 81.4551 23.3422 80.8931 23.9016 80.5155L43.2358 68.8197Z" fill="#E0E0E0"/>
<path d="M150.159 16.3857L150.403 106.165C150.359 106.993 150.129 107.8 149.733 108.518C149.336 109.237 148.783 109.848 148.119 110.302L18.868 188.429C17.6017 189.194 16.5738 188.579 16.5738 187.059L16.3301 97.2804L150.159 16.3857Z" fill="#0060FF"/>
<g opacity="0.4">
<path d="M150.159 16.3857L150.403 106.165C150.359 106.993 150.129 107.8 149.733 108.518C149.336 109.237 148.783 109.848 148.119 110.302L18.868 188.429C17.6017 189.194 16.5738 188.579 16.5738 187.059L16.3301 97.2804L150.159 16.3857Z" fill="white"/>
</g>
<path d="M144.866 13.424C145.761 12.8694 146.493 13.3131 146.493 14.3945C146.464 14.9831 146.302 15.5562 146.021 16.067C145.741 16.5778 145.348 17.0118 144.877 17.3337L31.6163 85.7894C30.7209 86.344 29.9897 85.9003 29.9844 84.8189C30.0143 84.2299 30.1767 83.6567 30.4585 83.1459C30.7403 82.6352 31.1333 82.2013 31.6057 81.8797L144.866 13.424Z" fill="white"/>
<path d="M18.4706 90.2151C18.4947 90.1975 18.5233 90.188 18.5527 90.188C18.5821 90.188 18.6108 90.1975 18.6348 90.2151C18.7249 90.2761 18.7143 90.4536 18.6348 90.6144L17.909 91.8067L19.7846 90.6976C19.9118 90.62 20.0178 90.6976 20.0178 90.8307C20.0113 90.9139 19.987 90.9945 19.9466 91.0666C19.9063 91.1386 19.8509 91.2001 19.7846 91.2466L17.909 92.3558L18.6296 92.7107C18.7196 92.7606 18.7302 92.9325 18.6296 93.0933C18.5903 93.171 18.5317 93.2362 18.46 93.2819C18.4376 93.2995 18.4114 93.3112 18.3838 93.316C18.3561 93.3209 18.3277 93.3187 18.301 93.3096L17.1513 92.755L17.1089 92.7051V92.6053V92.4833L17.146 92.3835L18.2957 90.4203C18.3321 90.3345 18.3933 90.2627 18.4706 90.2151Z" fill="#E0E0E0"/>
<path d="M22.524 87.7635C22.5487 87.7508 22.5759 87.7441 22.6034 87.7441C22.631 87.7441 22.6582 87.7508 22.6829 87.7635L23.8327 88.3181L23.8804 88.3735V88.4733V88.5898V88.6175L23.838 88.7118L22.6935 90.6971C22.6546 90.7656 22.6 90.8228 22.5346 90.8635C22.5105 90.8812 22.4818 90.8906 22.4524 90.8906C22.423 90.8906 22.3944 90.8812 22.3703 90.8635C22.2855 90.8081 22.2855 90.6306 22.3703 90.4698L23.0803 89.2497L21.2046 90.3589C21.0828 90.4365 20.9768 90.3589 20.9768 90.2202C20.9834 90.1384 21.0073 90.0592 21.0467 89.9882C21.0861 89.9173 21.14 89.8563 21.2046 89.8098L23.0803 88.7007L22.365 88.3402C22.2696 88.2959 22.2643 88.1239 22.365 87.9576C22.4028 87.8808 22.4573 87.8143 22.524 87.7635Z" fill="#E0E0E0"/>
<path d="M26.3813 85.4347C26.4932 85.3549 26.6198 85.3003 26.753 85.2746C26.8862 85.2488 27.0231 85.2523 27.1549 85.285L27.3297 85.0465C27.362 84.9976 27.4035 84.9561 27.4516 84.9245C27.4886 84.9027 27.5311 84.893 27.5735 84.8968C27.6529 84.8968 27.69 84.9966 27.6794 85.1131L27.5841 85.8506C27.5707 85.9413 27.5361 86.027 27.4834 86.1002C27.4495 86.1461 27.4083 86.1855 27.3615 86.2167L27.3032 86.2444L26.7734 86.4052C26.7545 86.4122 26.7342 86.4144 26.7143 86.4117C26.6944 86.409 26.6755 86.4013 26.6589 86.3894C26.6424 86.3775 26.6288 86.3617 26.6192 86.3432C26.6096 86.3248 26.6044 86.3042 26.6038 86.2832C26.5986 86.2235 26.6047 86.1633 26.622 86.1062C26.6393 86.049 26.6674 85.9961 26.7045 85.9505L26.7575 85.8728C26.6338 85.8782 26.5135 85.9164 26.4078 85.9837C26.1696 86.1486 25.9714 86.3692 25.8289 86.6281C25.6863 86.8871 25.6033 87.1772 25.5865 87.4755C25.5865 88.0301 25.9627 88.2408 26.4131 87.9691C26.7473 87.7442 27.0022 87.4112 27.139 87.0208C27.1737 86.9114 27.2428 86.8176 27.335 86.7546C27.3687 86.7334 27.407 86.7219 27.4463 86.7213C27.5576 86.7213 27.6 86.8766 27.5364 87.043C27.3302 87.6524 26.9347 88.1718 26.4131 88.5181C25.7084 88.9451 25.1309 88.6013 25.1309 87.7528C25.1516 87.291 25.2755 86.8407 25.4926 86.4381C25.7098 86.0355 26.0142 85.6918 26.3813 85.4347Z" fill="#E0E0E0"/>
<g opacity="0.3">
<path d="M18.4706 90.2151C18.4947 90.1975 18.5233 90.188 18.5527 90.188C18.5821 90.188 18.6108 90.1975 18.6348 90.2151C18.7249 90.2761 18.7143 90.4536 18.6348 90.6144L17.909 91.8067L19.7846 90.6976C19.9118 90.62 20.0178 90.6976 20.0178 90.8307C20.0113 90.9139 19.987 90.9945 19.9466 91.0666C19.9063 91.1386 19.8509 91.2001 19.7846 91.2466L17.909 92.3558L18.6296 92.7107C18.7196 92.7606 18.7302 92.9325 18.6296 93.0933C18.5903 93.171 18.5317 93.2362 18.46 93.2819C18.4376 93.2995 18.4114 93.3112 18.3838 93.316C18.3561 93.3209 18.3277 93.3187 18.301 93.3096L17.1513 92.755L17.1089 92.7051V92.6053V92.4833L17.146 92.3835L18.2957 90.4203C18.3321 90.3345 18.3933 90.2627 18.4706 90.2151Z" fill="black"/>
</g>
<g opacity="0.3">
<path d="M22.524 87.7635C22.5487 87.7508 22.5759 87.7441 22.6034 87.7441C22.631 87.7441 22.6582 87.7508 22.6829 87.7635L23.8327 88.3181L23.8804 88.3735V88.4733V88.5898V88.6175L23.838 88.7118L22.6935 90.6971C22.6546 90.7656 22.6 90.8228 22.5346 90.8635C22.5105 90.8812 22.4818 90.8906 22.4524 90.8906C22.423 90.8906 22.3944 90.8812 22.3703 90.8635C22.2855 90.8081 22.2855 90.6306 22.3703 90.4698L23.0803 89.2497L21.2046 90.3589C21.0828 90.4365 20.9768 90.3589 20.9768 90.2202C20.9834 90.1384 21.0073 90.0592 21.0467 89.9882C21.0861 89.9173 21.14 89.8563 21.2046 89.8098L23.0803 88.7007L22.365 88.3402C22.2696 88.2959 22.2643 88.1239 22.365 87.9576C22.4028 87.8808 22.4573 87.8143 22.524 87.7635Z" fill="black"/>
</g>
<g opacity="0.3">
<path d="M26.3813 85.4347C26.4932 85.3549 26.6198 85.3003 26.753 85.2746C26.8862 85.2488 27.0231 85.2523 27.1549 85.285L27.3297 85.0465C27.362 84.9976 27.4035 84.9561 27.4516 84.9245C27.4886 84.9027 27.5311 84.893 27.5735 84.8968C27.6529 84.8968 27.69 84.9966 27.6794 85.1131L27.5841 85.8506C27.5707 85.9413 27.5361 86.027 27.4834 86.1002C27.4495 86.1461 27.4083 86.1855 27.3615 86.2167L27.3032 86.2444L26.7734 86.4052C26.7545 86.4122 26.7342 86.4144 26.7143 86.4117C26.6944 86.409 26.6755 86.4013 26.6589 86.3894C26.6424 86.3775 26.6288 86.3617 26.6192 86.3432C26.6096 86.3248 26.6044 86.3042 26.6038 86.2832C26.5986 86.2235 26.6047 86.1633 26.622 86.1062C26.6393 86.049 26.6674 85.9961 26.7045 85.9505L26.7575 85.8728C26.6338 85.8782 26.5135 85.9164 26.4078 85.9837C26.1696 86.1486 25.9714 86.3692 25.8289 86.6281C25.6863 86.8871 25.6033 87.1772 25.5865 87.4755C25.5865 88.0301 25.9627 88.2408 26.4131 87.9691C26.7473 87.7442 27.0022 87.4112 27.139 87.0208C27.1737 86.9114 27.2428 86.8176 27.335 86.7546C27.3687 86.7334 27.407 86.7219 27.4463 86.7213C27.5576 86.7213 27.6 86.8766 27.5364 87.043C27.3302 87.6524 26.9347 88.1718 26.4131 88.5181C25.7084 88.9451 25.1309 88.6013 25.1309 87.7528C25.1516 87.291 25.2755 86.8407 25.4926 86.4381C25.7098 86.0355 26.0142 85.6918 26.3813 85.4347Z" fill="black"/>
</g>
<g opacity="0.6">
<path d="M99.6645 68.9253L99.7811 113.324C99.7836 114.783 99.4192 116.218 98.7245 117.483C98.0297 118.749 97.0291 119.801 95.8231 120.533L29.0093 161.128C28.6072 161.372 28.1508 161.501 27.6859 161.502C27.221 161.503 26.7639 161.377 26.3607 161.134C25.9575 160.892 25.6223 160.543 25.3887 160.122C25.1551 159.702 25.0315 159.224 25.0302 158.737L24.9136 114.339C24.9111 112.879 25.2755 111.445 25.9702 110.179C26.665 108.914 27.6656 107.862 28.8716 107.129L95.6854 66.5628C96.0855 66.3197 96.5395 66.1904 97.0022 66.188C97.4649 66.1856 97.9202 66.31 98.3226 66.549C98.7251 66.7879 99.0607 67.133 99.2962 67.5499C99.5316 67.9669 99.6586 68.441 99.6645 68.9253Z" fill="white"/>
</g>
<g opacity="0.6">
<path d="M125.102 50.9793L125.134 62.4145C125.132 62.8016 125.033 63.1813 124.847 63.516C124.661 63.8507 124.395 64.1286 124.075 64.3222L105.572 75.4135C105.466 75.4787 105.344 75.5133 105.221 75.5139C105.097 75.5146 104.976 75.4812 104.868 75.4171C104.761 75.3531 104.672 75.2606 104.609 75.149C104.547 75.0374 104.513 74.9106 104.513 74.7813L104.486 63.3628C104.487 62.9747 104.586 62.5938 104.772 62.2581C104.958 61.9223 105.225 61.6435 105.546 61.4495L124.048 50.3582C124.154 50.2931 124.274 50.2581 124.396 50.2569C124.519 50.2556 124.639 50.288 124.746 50.3509C124.853 50.4138 124.942 50.505 125.005 50.6153C125.067 50.7255 125.101 50.8511 125.102 50.9793Z" fill="white"/>
</g>
<path d="M112.731 60.1411L118.49 60.6624L112.752 68.1269L112.731 60.1411Z" fill="#0060FF"/>
<g opacity="0.3">
<path d="M112.731 60.1411L118.49 60.6624L112.752 68.1269L112.731 60.1411Z" fill="white"/>
</g>
<g opacity="0.6">
<path d="M35.1714 93.6758V98.9885C35.1715 99.1681 35.1265 99.3446 35.0409 99.5004C34.9554 99.6561 34.8323 99.7855 34.6839 99.8758L26.0792 105.039C26.0295 105.069 25.9732 105.085 25.9159 105.085C25.8585 105.085 25.8021 105.07 25.7523 105.04C25.7024 105.01 25.6609 104.967 25.6318 104.915C25.6027 104.864 25.5871 104.805 25.5864 104.745V99.4377C25.5854 99.2572 25.63 99.0795 25.7156 98.9228C25.8012 98.766 25.9248 98.6356 26.0739 98.5449L34.6786 93.3819C34.728 93.35 34.7847 93.3326 34.8427 93.3316C34.9007 93.3305 34.9579 93.3459 35.0083 93.3759C35.0587 93.406 35.1004 93.4497 35.1291 93.5024C35.1578 93.5552 35.1724 93.6151 35.1714 93.6758Z" fill="white"/>
</g>
<path d="M29.4172 97.9399L32.0983 98.1784L29.4278 101.65L29.4172 97.9399Z" fill="#0060FF"/>
<g opacity="0.3">
<path d="M29.4172 97.9399L32.0983 98.1784L29.4278 101.65L29.4172 97.9399Z" fill="white"/>
</g>
<g opacity="0.7">
<path d="M84.283 65.1489L84.2936 68.016L76.5102 72.7188L76.5049 69.8517L84.283 65.1489Z" fill="white"/>
<path d="M99.2089 56.126L99.2142 58.9986L88.8398 65.2652L88.8345 62.3981L99.2089 56.126Z" fill="white"/>
<path d="M129.209 37.9971L129.214 40.8697L121.431 45.5724L121.425 42.7053L129.209 37.9971Z" fill="white"/>
<path d="M144.135 28.98L144.14 31.8471L133.765 38.1192L133.755 35.2521L144.135 28.98Z" fill="white"/>
<path d="M116.085 45.9326L116.095 48.7997L103.707 56.2808L103.702 53.4137L116.085 45.9326Z" fill="white"/>
</g>
<path d="M140.956 42.1841L140.961 44.724L127.741 52.6266L127.731 50.0867L140.956 42.1841Z" fill="white"/>
<path d="M137.422 48.3457L137.427 50.2035L127.736 55.9987L127.731 54.1354L137.422 48.3457Z" fill="white"/>
<path d="M133.84 53.2642L133.845 55.1275L127.736 58.7599L127.731 56.8966L133.84 53.2642Z" fill="white"/>
<g opacity="0.6">
<path d="M125.102 68.9361L125.134 80.3547C125.133 80.7427 125.034 81.1236 124.848 81.4594C124.662 81.7951 124.396 82.0739 124.075 82.2679L105.572 93.3593C105.466 93.4244 105.344 93.459 105.221 93.4597C105.097 93.4603 104.976 93.427 104.868 93.3629C104.761 93.2989 104.672 93.2064 104.609 93.0948C104.547 92.9832 104.513 92.8564 104.513 92.7271L104.486 81.3085C104.487 80.9205 104.586 80.5396 104.772 80.2038C104.958 79.8681 105.225 79.5893 105.546 79.3953L124.048 68.3039C124.154 68.2384 124.275 68.2034 124.399 68.2027C124.522 68.2019 124.644 68.2353 124.751 68.2995C124.858 68.3637 124.947 68.4564 125.009 68.5682C125.07 68.68 125.103 68.807 125.102 68.9361Z" fill="white"/>
</g>
<path d="M112.731 78.0981L118.49 78.6194L112.752 86.0839L112.731 78.0981Z" fill="#0060FF"/>
<g opacity="0.3">
<path d="M112.731 78.0981L118.49 78.6194L112.752 86.0839L112.731 78.0981Z" fill="white"/>
</g>
<path d="M143.769 58.5049L143.775 61.0448L127.741 70.5833L127.731 68.0434L143.769 58.5049Z" fill="white"/>
<path d="M139.838 64.8438V66.7071L127.736 73.9553L127.731 72.0919L139.838 64.8438Z" fill="white"/>
<path d="M133.84 71.2266L133.845 73.0899L127.736 76.7168L127.731 74.859L133.84 71.2266Z" fill="white"/>
<g opacity="0.6">
<path d="M125.102 86.8932L125.134 98.3117C125.133 98.6998 125.034 99.0807 124.848 99.4164C124.662 99.7521 124.396 100.031 124.075 100.225L105.572 111.316C105.466 111.381 105.344 111.416 105.221 111.417C105.097 111.417 104.976 111.384 104.868 111.32C104.761 111.256 104.672 111.163 104.609 111.052C104.547 110.94 104.513 110.813 104.513 110.684L104.486 99.2656C104.487 98.8775 104.586 98.4966 104.772 98.1609C104.958 97.8251 105.225 97.5463 105.546 97.3523L124.048 86.261C124.154 86.1954 124.275 86.1605 124.399 86.1597C124.522 86.1589 124.644 86.1923 124.751 86.2565C124.858 86.3207 124.947 86.4134 125.009 86.5253C125.07 86.6371 125.103 86.764 125.102 86.8932Z" fill="white"/>
</g>
<path d="M112.731 96.0547L118.49 96.576L112.752 104.04L112.731 96.0547Z" fill="#0060FF"/>
<g opacity="0.3">
<path d="M112.731 96.0547L118.49 96.576L112.752 104.04L112.731 96.0547Z" fill="white"/>
</g>
<path d="M142.026 77.4712L142.031 80.0111L127.741 88.5459L127.731 86.0004L142.026 77.4712Z" fill="white"/>
<path d="M134.534 86.0225L134.539 87.8858L127.736 91.912L127.731 90.0486L134.534 86.0225Z" fill="white"/>
<path d="M138.646 86.2891V88.1524L127.736 94.6796L127.731 92.8163L138.646 86.2891Z" fill="white"/>
<g opacity="0.6">
<path d="M125.102 104.85L125.134 116.268C125.133 116.656 125.034 117.037 124.848 117.373C124.662 117.709 124.396 117.987 124.075 118.182L105.572 129.273C105.466 129.338 105.344 129.373 105.221 129.373C105.097 129.374 104.976 129.341 104.868 129.276C104.761 129.212 104.672 129.12 104.609 129.008C104.547 128.897 104.513 128.77 104.513 128.641L104.486 117.222C104.487 116.834 104.586 116.453 104.772 116.117C104.958 115.782 105.225 115.503 105.546 115.309L124.048 104.218C124.154 104.152 124.275 104.117 124.399 104.116C124.522 104.115 124.644 104.149 124.751 104.213C124.858 104.277 124.947 104.37 125.009 104.482C125.07 104.594 125.103 104.721 125.102 104.85Z" fill="white"/>
</g>
<path d="M112.731 114.017L118.49 114.533L112.752 121.997L112.731 114.017Z" fill="#0060FF"/>
<g opacity="0.3">
<path d="M112.731 114.017L118.49 114.533L112.752 121.997L112.731 114.017Z" fill="white"/>
</g>
<path d="M143.912 94.3413L143.918 96.8868L127.741 106.503L127.731 103.957L143.912 94.3413Z" fill="white"/>
<path d="M137.422 102.216L137.427 104.08L127.736 109.869L127.731 108.006L137.422 102.216Z" fill="white"/>
<path d="M140.961 102.814L140.966 104.678L127.736 112.636L127.731 110.772L140.961 102.814Z" fill="white"/>
<path d="M46.2876 87.498L46.2929 89.3614L36.602 95.1511L36.5967 93.2933L46.2876 87.498Z" fill="white"/>
<path d="M42.7058 92.4219L42.7111 94.2852L36.602 97.9176L36.5967 96.0543L42.7058 92.4219Z" fill="white"/>
<path d="M82.953 85.6174C82.9536 85.3485 82.8864 85.0843 82.758 84.8514C82.6297 84.6185 82.4448 84.4253 82.2221 84.2913C81.9994 84.1573 81.7468 84.0873 81.4899 84.0884C81.2331 84.0895 80.981 84.1616 80.7594 84.2975L43.8608 106.696C43.1988 107.101 42.6495 107.68 42.2674 108.376C41.8854 109.071 41.6839 109.859 41.6831 110.662V115.298L82.9636 90.2314L82.953 85.6174Z" fill="#0060FF"/>
<path d="M41.6831 115.32L41.7414 142.416C41.7423 142.685 41.8106 142.948 41.9393 143.18C42.0681 143.412 42.2528 143.604 42.4749 143.738C42.6971 143.871 42.9489 143.942 43.2051 143.941C43.4614 143.941 43.713 143.87 43.935 143.736L80.8336 121.332C81.5008 120.927 82.054 120.346 82.4374 119.645C82.8207 118.945 83.0205 118.151 83.0165 117.344L82.9636 90.2539L41.6831 115.32Z" fill="#0060FF"/>
<g opacity="0.5">
<path d="M45.4346 105.743L42.229 114.988L45.0849 113.257L48.2905 104.007L45.4346 105.743Z" fill="white"/>
<path d="M52.2378 101.612L49.0322 110.856L51.8881 109.126L55.0937 99.8813L52.2378 101.612Z" fill="white"/>
<path d="M59.041 97.4798L55.8354 106.73L58.6913 104.994L61.8969 95.7495L59.041 97.4798Z" fill="white"/>
<path d="M65.8391 93.354L62.6335 102.599L65.4894 100.863L68.695 91.6182L65.8391 93.354Z" fill="white"/>
<path d="M72.6421 89.2221L69.4365 98.4667L72.2924 96.7365L75.498 87.4863L72.6421 89.2221Z" fill="white"/>
<path d="M80.7593 84.298L79.4453 85.091L76.2397 94.3412L79.0956 92.6054L82.0098 84.1981C81.8077 84.1147 81.5902 84.0803 81.3736 84.0976C81.157 84.1149 80.947 84.1834 80.7593 84.298Z" fill="white"/>
</g>
<path opacity="0.9" d="M73.2834 113.274L63.0096 106.619L52.8101 125.641L58.4953 122.208L58.5324 134.874L67.6299 129.351L67.5928 116.707L73.2834 113.274Z" fill="white"/>
<path d="M67.1476 145.622L83.3133 135.856L83.308 133.709L67.1423 143.481L67.1476 145.622Z" fill="white"/>
<path d="M90.1485 129.578L85.5759 132.34L85.5812 134.481L90.1538 131.719L90.1485 129.578Z" fill="white"/>
<path d="M56.3759 157.44L56.3706 155.299L51.7927 158.061L51.8033 160.202L56.3759 157.44Z" fill="white"/>
<path d="M64.7528 144.923L42.6899 158.255L42.6952 160.395L64.7581 147.063L64.7528 144.923Z" fill="white"/>
<path d="M39.5744 162.281L39.5691 160.141L25.1255 168.869L25.1308 171.01L39.5744 162.281Z" fill="white"/>
<path d="M48.3646 162.281L48.3593 160.141L25.1414 174.171L25.1467 176.312L48.3646 162.281Z" fill="white"/>
<path d="M59.8252 153.214L59.8305 155.355L74.8888 146.254V144.108L59.8252 153.214Z" fill="white"/>
<path d="M213.439 60.2519C210.996 58.7712 208.93 59.4977 208.273 61.7936C207.679 60.5306 206.762 59.4651 205.624 58.7158C203.711 57.5567 202.148 58.4884 202.143 60.7898V61.8602L199.573 60.3074C198.227 59.4977 197.141 60.1466 197.135 61.7603C197.177 62.6403 197.419 63.4971 197.84 64.26C198.261 65.0228 198.849 65.6697 199.557 66.147L221.328 79.3068C222.674 80.1165 223.766 79.4676 223.766 77.8539C223.724 76.9739 223.483 76.1171 223.061 75.3542C222.64 74.5914 222.052 73.9445 221.344 73.4672L218.774 71.9089V69.9679C218.801 66.3854 216.406 62.0432 213.439 60.2519Z" fill="#E6E6E6"/>
<path d="M209.327 63.4292L212.58 69.6625L210.615 68.4757L210.604 73.0842L208.003 71.5092L208.013 66.9008L206.047 65.714L209.327 63.4292Z" fill="#0060FF"/>
<path d="M210.615 73.7278L210.609 75.4858L208.008 73.9164L208.013 72.1528L210.615 73.7278Z" fill="#0060FF"/>
<path d="M210.615 76.1956L210.609 77.0773L208.008 75.5024L208.013 74.6206L210.615 76.1956Z" fill="#0060FF"/>
<path d="M210.615 77.6651L210.609 78.1975L208.008 76.6281L208.013 76.0957L210.615 77.6651Z" fill="#0060FF"/>
<g opacity="0.2">
<path d="M209.327 63.4292L212.58 69.6625L210.615 68.4757L210.604 73.0842L208.003 71.5092L208.013 66.9008L206.047 65.714L209.327 63.4292Z" fill="white"/>
<path d="M210.615 73.7278L210.609 75.4858L208.008 73.9164L208.013 72.1528L210.615 73.7278Z" fill="white"/>
<path d="M210.615 76.1956L210.609 77.0773L208.008 75.5024L208.013 74.6206L210.615 76.1956Z" fill="white"/>
<path d="M210.615 77.6651L210.609 78.1975L208.008 76.6281L208.013 76.0957L210.615 77.6651Z" fill="white"/>
</g>
<path d="M181.616 17.2731C178.003 15.0881 174.945 16.164 173.976 19.5524C173.099 17.6861 171.745 16.1103 170.065 14.9994C167.236 13.2914 164.926 14.6667 164.915 18.0717V19.6356L161.111 17.3397C159.124 16.1418 157.513 17.1068 157.503 19.4914C157.569 20.7927 157.927 22.0592 158.55 23.1878C159.172 24.3163 160.041 25.2749 161.084 25.9854L193.315 45.4618C195.297 46.6596 196.918 45.7002 196.923 43.31C196.857 42.0083 196.497 40.7414 195.874 39.6128C195.25 38.4842 194.381 37.5259 193.336 36.8161L189.511 34.5146V31.6364C189.553 26.368 186.009 19.924 181.616 17.2731Z" fill="#E6E6E6"/>
<path d="M175.534 21.981L180.35 31.2034L177.441 29.4454L177.42 36.261L173.573 33.9374L173.589 27.1218L170.675 25.3583L175.534 21.981Z" fill="#0060FF"/>
<path d="M177.441 37.2152L177.435 39.8272L173.583 37.4981L173.589 34.8916L177.441 37.2152Z" fill="#0060FF"/>
<path d="M177.441 40.8756L177.435 42.1788L173.583 39.8496L173.589 38.5464L177.441 40.8756Z" fill="#0060FF"/>
<path d="M177.441 43.0492L177.435 43.8367L173.583 41.5131L173.589 40.7256L177.441 43.0492Z" fill="#0060FF"/>
<g opacity="0.2">
<path d="M175.534 21.981L180.35 31.2034L177.441 29.4454L177.42 36.261L173.573 33.9374L173.589 27.1218L170.675 25.3583L175.534 21.981Z" fill="white"/>
<path d="M177.441 37.2152L177.435 39.8272L173.583 37.4981L173.589 34.8916L177.441 37.2152Z" fill="white"/>
<path d="M177.441 40.8756L177.435 42.1788L173.583 39.8496L173.589 38.5464L177.441 40.8756Z" fill="white"/>
<path d="M177.441 43.0492L177.435 43.8367L173.583 41.5131L173.589 40.7256L177.441 43.0492Z" fill="white"/>
</g>
<path d="M47.824 18.4096C51.57 16.1414 54.712 17.2505 55.7717 20.7776C56.6772 18.8407 58.0785 17.205 59.8198 16.0527C62.7604 14.278 65.15 15.7088 65.1606 19.2414V20.8607L69.1027 18.4761C71.1638 17.2339 72.8116 18.2376 72.8434 20.6944C72.7759 22.0431 72.4048 23.356 71.7602 24.526C71.1156 25.696 70.2159 26.69 69.1345 27.4268L35.6958 47.6352C33.6347 48.883 31.9869 47.8848 31.9551 45.417C32.0213 44.0672 32.392 42.753 33.0366 41.5819C33.6812 40.4108 34.5816 39.416 35.664 38.679L39.6114 36.2943V33.3108C39.5902 27.8261 43.2726 21.1602 47.824 18.4096Z" fill="#E6E6E6"/>
<path d="M53.7373 49.8204L58.4953 40.7144L55.6235 42.4502L55.6023 35.7178L51.8033 38.0137L51.8192 44.7461L48.9421 46.4875L53.7373 49.8204Z" fill="#0060FF"/>
<path d="M55.6236 34.7749L55.6183 32.2017L51.814 34.4976L51.8246 37.0763L55.6236 34.7749Z" fill="#0060FF"/>
<path d="M55.6236 31.1645L55.6183 29.8779L51.814 32.1794L51.8246 33.466L55.6236 31.1645Z" fill="#0060FF"/>
<path d="M55.6236 29.0183L55.6183 28.2363L51.814 30.5378L51.8246 31.3142L55.6236 29.0183Z" fill="#0060FF"/>
<g opacity="0.2">
<path d="M53.7373 49.8204L58.4953 40.7144L55.6235 42.4502L55.6023 35.7178L51.8033 38.0137L51.8192 44.7461L48.9421 46.4875L53.7373 49.8204Z" fill="white"/>
<path d="M55.6236 34.7749L55.6183 32.2017L51.814 34.4976L51.8246 37.0763L55.6236 34.7749Z" fill="white"/>
<path d="M55.6236 31.1645L55.6183 29.8779L51.814 32.1794L51.8246 33.466L55.6236 31.1645Z" fill="white"/>
<path d="M55.6236 29.0183L55.6183 28.2363L51.814 30.5378L51.8246 31.3142L55.6236 29.0183Z" fill="white"/>
</g>
<path d="M132.902 139.344V174.659L175.82 148.727V113.435L132.902 139.344ZM137.623 142.266L171.051 122.053V145.832L137.623 165.985V142.266Z" fill="#0060FF"/>
<path d="M132.902 139.344L128.133 136.482V171.797L132.902 174.659V139.344Z" fill="#0060FF"/>
<path d="M175.82 113.424L171.051 110.557L128.133 136.483L132.902 139.344L175.82 113.424Z" fill="#0060FF"/>
<path opacity="0.3" d="M175.82 113.424L171.051 110.557L128.133 136.483L132.902 139.344L175.82 113.424Z" fill="white"/>
<path d="M166.282 142.965L171.051 145.833V122.053L166.282 124.936V142.965Z" fill="#0060FF"/>
<path d="M137.623 165.985V160.246L166.282 142.965L171.051 145.832L137.623 165.985Z" fill="#0060FF"/>
<path opacity="0.2" d="M132.902 139.344L128.133 136.482V171.797L132.902 174.659V139.344Z" fill="white"/>
<path opacity="0.2" d="M166.282 142.965L171.051 145.833V122.053L166.282 124.936V142.965Z" fill="white"/>
<path opacity="0.3" d="M137.623 165.985V160.246L166.282 142.965L171.051 145.832L137.623 165.985Z" fill="white"/>
<path d="M177.081 105.216C176.927 104.792 176.636 104.437 176.259 104.212L173.366 102.487C172.647 102.05 171.83 101.82 170.998 101.82C170.166 101.82 169.349 102.05 168.629 102.487L126.242 128.796C125.865 129.022 125.576 129.379 125.426 129.805C124.859 131.102 124.57 132.512 124.579 133.938C124.588 135.363 124.895 136.769 125.479 138.057C125.659 138.411 125.926 138.708 126.252 138.917L129.145 140.647C129.865 141.083 130.682 141.312 131.514 141.312C132.345 141.312 133.162 141.083 133.882 140.647L176.27 114.344C176.603 114.143 176.87 113.839 177.033 113.473C177.616 112.184 177.923 110.777 177.931 109.35C177.939 107.924 177.649 106.513 177.081 105.216Z" fill="#455A64"/>
<path opacity="0.3" d="M133.877 133.954L176.265 107.651C176.654 107.415 176.95 107.041 177.099 106.597C177.249 106.152 177.242 105.667 177.081 105.228C177.648 106.524 177.936 107.934 177.927 109.36C177.918 110.785 177.611 112.191 177.028 113.479C176.865 113.845 176.598 114.149 176.265 114.35L133.877 140.653C133.121 141.115 132.256 141.344 131.381 141.313V134.603C132.255 134.637 133.12 134.412 133.877 133.954Z" fill="black"/>
<path opacity="0.2" d="M125.399 129.811C125.241 130.25 125.236 130.733 125.387 131.175C125.537 131.617 125.833 131.988 126.22 132.223L129.108 133.954C129.79 134.367 130.561 134.592 131.349 134.608V141.307C130.562 141.29 129.791 141.067 129.108 140.658L126.231 138.945C125.905 138.735 125.637 138.439 125.457 138.085C124.87 136.794 124.56 135.385 124.55 133.955C124.54 132.525 124.83 131.111 125.399 129.811Z" fill="black"/>
<path d="M209.613 157.801C209.46 157.378 209.172 157.023 208.797 156.797L174.77 136.233C174.051 135.798 173.234 135.568 172.402 135.568C171.57 135.568 170.754 135.798 170.034 136.233L136.251 156.78C135.873 157.007 135.583 157.364 135.429 157.789C134.454 159.658 134.131 167.877 135.482 170.583C135.661 170.938 135.928 171.235 136.256 171.443L170.283 192.006C171.003 192.442 171.819 192.671 172.651 192.671C173.483 192.671 174.3 192.442 175.019 192.006L208.797 171.46C209.131 171.258 209.397 170.954 209.56 170.589C210.911 167.888 210.588 159.669 209.613 157.801Z" fill="#455A64"/>
<path opacity="0.1" d="M209.613 157.801C209.46 157.378 209.172 157.023 208.797 156.797L174.77 136.233C174.051 135.798 173.234 135.568 172.402 135.568C171.57 135.568 170.754 135.798 170.034 136.233L136.251 156.78C135.873 157.007 135.583 157.364 135.429 157.789C134.454 159.658 134.131 167.877 135.482 170.583C135.661 170.938 135.928 171.235 136.256 171.443L170.283 192.006C171.003 192.442 171.819 192.671 172.651 192.671C173.483 192.671 174.3 192.442 175.019 192.006L208.797 171.46C209.131 171.258 209.397 170.954 209.56 170.589C210.911 167.888 210.588 159.669 209.613 157.801Z" fill="black"/>
<path opacity="0.3" d="M175.02 180.764L208.797 160.218C209.188 159.984 209.485 159.611 209.635 159.167C209.784 158.724 209.777 158.238 209.613 157.8C210.588 159.669 210.911 167.887 209.56 170.594C209.397 170.959 209.131 171.263 208.797 171.464L175.02 192.011C174.261 192.466 173.398 192.695 172.524 192.671V181.43C173.399 181.455 174.263 181.225 175.02 180.764Z" fill="black"/>
<path opacity="0.2" d="M135.429 157.8C135.271 158.239 135.268 158.723 135.419 159.165C135.571 159.607 135.867 159.978 136.256 160.212L170.283 180.775C170.967 181.184 171.737 181.409 172.524 181.43V192.671C171.736 192.653 170.966 192.428 170.283 192.017L136.256 171.453C135.928 171.245 135.661 170.948 135.482 170.594C134.131 167.887 134.454 159.669 135.429 157.8Z" fill="black"/>
<path d="M209.613 145.333C209.46 144.91 209.172 144.556 208.797 144.329L174.77 123.766C174.051 123.33 173.234 123.101 172.402 123.101C171.57 123.101 170.754 123.33 170.034 123.766L136.251 144.324C135.873 144.553 135.583 144.911 135.429 145.339C134.454 147.208 134.131 155.426 135.482 158.133C135.661 158.488 135.929 158.787 136.256 158.998L170.283 179.556C171.002 179.993 171.819 180.223 172.651 180.223C173.483 180.223 174.3 179.993 175.019 179.556L208.797 159.037C209.131 158.835 209.397 158.531 209.56 158.166C210.911 155.421 210.588 147.202 209.613 145.333Z" fill="#455A64"/>
<path opacity="0.1" d="M209.613 145.333C209.46 144.91 209.172 144.556 208.797 144.329L174.77 123.766C174.051 123.33 173.234 123.101 172.402 123.101C171.57 123.101 170.754 123.33 170.034 123.766L136.251 144.324C135.873 144.553 135.583 144.911 135.429 145.339C134.454 147.208 134.131 155.426 135.482 158.133C135.661 158.488 135.929 158.787 136.256 158.998L170.283 179.556C171.002 179.993 171.819 180.223 172.651 180.223C173.483 180.223 174.3 179.993 175.019 179.556L208.797 159.037C209.131 158.835 209.397 158.531 209.56 158.166C210.911 155.421 210.588 147.202 209.613 145.333Z" fill="black"/>
<path d="M216.756 103.452L184.583 83.9983C184.298 83.8239 183.975 83.7302 183.645 83.7266H183.486C180.546 83.7266 178.241 85.5899 176.535 87.7416L176.461 87.8304C176.289 88.0544 176.162 88.313 176.09 88.5901L166.854 124.581C166.591 125.598 166.656 126.677 167.039 127.651C167.422 128.625 168.103 129.439 168.974 129.966L201.167 149.404C201.51 149.613 201.906 149.708 202.301 149.676C205.984 149.282 208.13 146.903 209.232 145.638C209.441 145.399 209.592 145.109 209.671 144.795L218.901 108.815C219.155 107.799 219.082 106.723 218.694 105.754C218.307 104.785 217.625 103.977 216.756 103.452Z" fill="#455A64"/>
<path opacity="0.1" d="M216.755 103.452L184.583 83.9983C184.298 83.8239 183.975 83.7302 183.645 83.7266H183.486C180.546 83.7266 178.241 85.5899 176.535 87.7416C176.835 87.3992 177.239 87.1746 177.678 87.105C178.118 87.0354 178.567 87.125 178.951 87.359L211.123 106.78C212.039 107.336 212.742 108.206 213.115 109.242L218.732 105.848C218.353 104.837 217.656 103.992 216.755 103.452Z" fill="black"/>
<path opacity="0.2" d="M213.115 109.259C213.45 110.194 213.499 111.216 213.253 112.181L204.023 148.162C203.92 148.572 203.697 148.938 203.385 149.209C203.074 149.481 202.689 149.644 202.285 149.676C205.968 149.282 208.114 146.903 209.216 145.638C209.425 145.399 209.576 145.109 209.656 144.795L218.886 108.815C219.134 107.838 219.08 106.803 218.732 105.859L213.115 109.259Z" fill="black"/>
<path opacity="0.1" d="M166.854 124.581L176.079 88.6009C176.152 88.3237 176.278 88.0652 176.45 87.8411L176.524 87.7524C178.23 85.6007 180.535 83.765 183.476 83.7373H183.635C183.965 83.7375 184.289 83.8314 184.573 84.009L216.756 103.452C216.984 103.591 217.2 103.751 217.402 103.929C217.592 104.099 217.77 104.284 217.932 104.484C218.262 104.891 218.524 105.354 218.705 105.853C218.791 106.084 218.858 106.321 218.907 106.563C218.907 106.68 218.949 106.802 218.965 106.918C218.962 106.927 218.962 106.937 218.965 106.946C218.965 107.062 218.965 107.173 218.965 107.284C218.968 107.308 218.968 107.332 218.965 107.356C218.965 107.456 218.965 107.556 218.965 107.661C218.965 107.767 218.965 107.739 218.965 107.778V108.038C218.965 108.105 218.965 108.166 218.939 108.233C218.912 108.299 218.939 108.36 218.912 108.421C218.886 108.482 218.864 108.676 218.833 108.804L209.645 144.801C209.566 145.115 209.415 145.404 209.205 145.644C208.146 146.902 205.957 149.287 202.275 149.681C201.879 149.713 201.484 149.618 201.141 149.409L168.974 129.972C168.102 129.444 167.421 128.629 167.037 127.654C166.654 126.679 166.589 125.598 166.854 124.581Z" fill="black"/>
<path opacity="0.3" d="M175.02 168.304L208.797 147.751C209.188 147.518 209.485 147.145 209.635 146.701C209.784 146.257 209.777 145.772 209.613 145.333C210.588 147.202 210.911 155.421 209.56 158.127C209.397 158.492 209.131 158.796 208.797 158.998L175.02 179.517C174.263 179.976 173.398 180.204 172.524 180.177V168.964C173.398 168.987 174.261 168.759 175.02 168.304Z" fill="black"/>
<path opacity="0.2" d="M135.429 145.333C135.272 145.772 135.268 146.255 135.42 146.696C135.571 147.137 135.868 147.507 136.256 147.74L170.283 168.337C170.967 168.745 171.737 168.97 172.524 168.991V180.205C171.736 180.187 170.966 179.962 170.283 179.55L136.256 158.992C135.929 158.782 135.661 158.483 135.482 158.127C134.131 155.421 134.454 147.202 135.429 145.333Z" fill="black"/>
<path d="M147.075 170.81C147.433 172.782 147.637 174.781 147.685 176.788L149.041 176.234C149.684 175.98 150.384 175.93 151.054 176.09C151.723 176.25 152.334 176.612 152.808 177.132L152.877 177.204C153.119 177.471 153.451 177.63 153.803 177.646C154.155 177.663 154.499 177.536 154.763 177.293C154.905 177.164 155.02 177.006 155.1 176.829C155.181 176.651 155.225 176.458 155.23 176.261L155.41 170.222L147.075 170.81Z" fill="#FFA8A7"/>
<path d="M152.31 193.259C149.497 196.409 144.315 199.16 140.547 196.476L140.971 197.479C144.738 200.163 149.915 197.413 152.734 194.263C155.553 191.113 153.719 188.928 156.252 186.133C157.208 185.177 157.955 184.015 158.44 182.728C158.329 182.428 158.218 182.035 158.085 181.585C157.541 182.898 156.776 184.098 155.828 185.129C153.296 187.924 155.123 190.109 152.31 193.259Z" fill="#F5F5F5"/>
<path d="M156.703 178.319C156.268 177.674 155.967 176.941 155.818 176.167C155.79 175.988 155.725 175.818 155.63 175.667C155.534 175.516 155.408 175.388 155.261 175.291L155.23 176.306C155.221 176.587 155.133 176.859 154.977 177.088C154.82 177.318 154.603 177.493 154.352 177.594C154.101 177.695 153.827 177.716 153.565 177.654C153.303 177.593 153.063 177.452 152.877 177.249L152.808 177.177C152.334 176.657 151.724 176.294 151.054 176.134C150.384 175.975 149.684 176.025 149.041 176.278L147.663 176.833C147.459 176.914 147.284 177.059 147.161 177.249C147.039 177.439 146.976 177.663 146.98 177.892C147.07 182.023 145.226 187.514 143.271 190.525C141.284 191.385 139.562 194.224 140.442 196.304L140.526 196.509C144.294 199.193 149.476 196.442 152.289 193.292C155.103 190.142 153.275 187.957 155.807 185.162C156.755 184.131 157.52 182.931 158.064 181.619C157.758 180.458 157.3 179.348 156.703 178.319Z" fill="#0060FF"/>
<path d="M151.197 184.258C151.309 184.304 151.432 184.306 151.545 184.262C151.657 184.218 151.749 184.132 151.804 184.02C151.859 183.909 151.872 183.78 151.841 183.659C151.811 183.538 151.738 183.433 151.637 183.365C150.813 182.877 149.882 182.62 148.935 182.62C147.988 182.62 147.057 182.877 146.233 183.365C146.148 183.687 146.063 184.014 145.968 184.336C146.759 183.85 147.656 183.588 148.573 183.575C149.489 183.561 150.394 183.796 151.197 184.258Z" fill="white"/>
<path d="M151.892 182.023C151.947 182.053 152.008 182.071 152.07 182.075C152.132 182.08 152.195 182.072 152.254 182.051C152.313 182.031 152.367 181.998 152.414 181.955C152.461 181.912 152.5 181.86 152.527 181.802C152.584 181.685 152.596 181.55 152.559 181.425C152.522 181.299 152.441 181.194 152.331 181.131C151.468 180.636 150.498 180.38 149.514 180.389C148.53 180.398 147.565 180.67 146.71 181.181C146.651 181.513 146.583 181.852 146.514 182.19C148.183 181.286 149.809 180.925 151.892 182.023Z" fill="white"/>
<path d="M150.434 186.482C150.549 186.538 150.679 186.546 150.799 186.504C150.918 186.461 151.018 186.372 151.076 186.255C151.132 186.139 151.143 186.005 151.107 185.88C151.07 185.756 150.989 185.652 150.88 185.589C150.073 185.112 149.164 184.856 148.237 184.846C147.311 184.837 146.397 185.073 145.581 185.534C145.465 185.883 145.337 186.227 145.21 186.565C145.999 186.077 146.896 185.812 147.812 185.798C148.728 185.783 149.632 186.019 150.434 186.482Z" fill="white"/>
<path d="M143.292 190.52C141.305 191.379 139.583 194.219 140.463 196.298L140.548 196.503C144.257 199.149 149.338 196.503 152.204 193.426C149.809 188.534 144.855 189.749 143.292 190.52Z" fill="white"/>
<path d="M149.603 188.651C149.715 188.702 149.841 188.707 149.957 188.665C150.072 188.622 150.168 188.536 150.224 188.422C150.281 188.309 150.294 188.177 150.261 188.054C150.229 187.93 150.152 187.825 150.048 187.758C149.24 187.283 148.331 187.029 147.405 187.02C146.478 187.012 145.565 187.248 144.749 187.708C144.585 188.096 144.41 188.462 144.219 188.817C145.867 187.913 147.52 187.553 149.603 188.651Z" fill="white"/>
<path d="M141.162 182.817C140.73 184.775 140.146 186.693 139.414 188.551L140.86 188.634C141.546 188.679 142.205 188.935 142.753 189.369C143.301 189.803 143.716 190.396 143.944 191.074L143.976 191.169C144.095 191.515 144.337 191.8 144.652 191.964C144.967 192.128 145.33 192.159 145.666 192.05C145.845 191.991 146.011 191.894 146.153 191.765C146.295 191.636 146.411 191.479 146.493 191.302L148.988 185.85L141.162 182.817Z" fill="#FFA8A7"/>
<path d="M137.294 205.57C133.501 207.262 127.699 207.595 125.293 203.546V204.655C127.699 208.704 133.501 208.377 137.294 206.68C141.088 204.983 140.251 202.243 143.652 200.735C144.895 200.261 146.026 199.514 146.969 198.544C146.969 198.222 147.033 197.818 147.086 197.346C146.082 198.319 144.919 199.095 143.652 199.637C140.235 201.106 141.083 203.873 137.294 205.57Z" fill="#F5F5F5"/>
<path d="M147.081 193.736C146.925 192.964 146.925 192.167 147.081 191.396C147.125 191.22 147.132 191.036 147.102 190.857C147.072 190.678 147.005 190.508 146.906 190.359L146.487 191.274C146.405 191.451 146.29 191.608 146.148 191.737C146.005 191.866 145.84 191.963 145.661 192.022C145.325 192.131 144.961 192.1 144.647 191.936C144.332 191.772 144.09 191.487 143.97 191.14L143.944 191.074C143.71 190.398 143.292 189.809 142.74 189.38C142.189 188.951 141.53 188.701 140.844 188.662L139.377 188.578C139.154 188.561 138.931 188.617 138.741 188.74C138.551 188.862 138.402 189.044 138.317 189.261C136.807 193.076 133.018 197.313 130.072 199.243C127.921 199.187 125.256 201.056 125.256 203.33V203.557C127.662 207.606 133.463 207.273 137.257 205.581C141.051 203.89 140.214 201.117 143.615 199.631C144.882 199.089 146.045 198.313 147.049 197.341C147.221 196.147 147.232 194.933 147.081 193.736Z" fill="#0060FF"/>
<path d="M139.742 196.863C139.782 196.914 139.831 196.956 139.887 196.987C139.942 197.018 140.003 197.037 140.066 197.043C140.128 197.049 140.191 197.042 140.251 197.023C140.311 197.004 140.367 196.972 140.415 196.93C140.464 196.89 140.505 196.84 140.535 196.784C140.565 196.727 140.585 196.665 140.592 196.601C140.6 196.536 140.595 196.471 140.578 196.409C140.561 196.346 140.533 196.288 140.495 196.237C139.927 195.443 139.173 194.816 138.306 194.417C137.439 194.017 136.489 193.859 135.546 193.958C135.345 194.224 135.138 194.479 134.926 194.734C135.836 194.623 136.758 194.76 137.603 195.134C138.447 195.507 139.184 196.103 139.742 196.863Z" fill="white"/>
<path d="M141.242 195.117C141.325 195.208 141.439 195.263 141.559 195.27C141.68 195.278 141.798 195.239 141.892 195.159C141.986 195.08 142.048 194.966 142.066 194.842C142.084 194.717 142.056 194.589 141.989 194.485C141.389 193.667 140.6 193.023 139.696 192.615C138.791 192.206 137.803 192.046 136.823 192.15C136.643 192.433 136.452 192.704 136.256 192.998C138.116 192.86 139.758 193.226 141.242 195.117Z" fill="white"/>
<path d="M138.19 198.577C138.27 198.682 138.386 198.748 138.513 198.763C138.641 198.777 138.768 198.739 138.868 198.655C138.968 198.571 139.032 198.449 139.046 198.316C139.059 198.183 139.022 198.049 138.942 197.945C138.387 197.17 137.654 196.555 136.811 196.155C135.968 195.756 135.043 195.586 134.121 195.66C133.877 195.932 133.633 196.215 133.384 196.448C134.293 196.338 135.213 196.477 136.055 196.85C136.897 197.223 137.632 197.818 138.19 198.577Z" fill="white"/>
<path d="M130.11 199.232C127.958 199.176 125.293 201.045 125.293 203.319V203.546C127.667 207.534 133.326 207.267 137.119 205.642C136.828 200.191 131.826 199.209 130.11 199.232Z" fill="white"/>
<path d="M136.595 200.214C136.679 200.305 136.792 200.36 136.912 200.367C137.033 200.375 137.152 200.336 137.246 200.256C137.339 200.177 137.401 200.063 137.419 199.938C137.437 199.814 137.41 199.686 137.342 199.581C136.787 198.805 136.053 198.189 135.209 197.789C134.365 197.39 133.439 197.22 132.515 197.297C132.208 197.579 131.911 197.851 131.609 198.095C133.464 197.957 135.117 198.323 136.595 200.214Z" fill="white"/>
<path d="M163.421 131.231L144.474 142.272C142.755 143.276 141.381 144.819 140.545 146.683C139.708 148.548 139.452 150.64 139.811 152.665L143.488 173.411L140.473 183.454C143.075 187.109 149.057 187.292 149.057 187.292C152.39 180.293 154.837 177.31 156.734 171.454C158.631 165.597 159.913 161.538 159.913 161.538L175.66 157.029C179.266 156.006 182.494 153.873 184.928 150.906C187.361 147.94 188.888 144.277 189.309 140.392C189.58 137.902 189.59 136.2 189.59 136.2L163.421 131.231Z" fill="#0060FF"/>
<path opacity="0.4" d="M163.421 131.231L144.474 142.272C142.755 143.276 141.381 144.819 140.545 146.683C139.708 148.548 139.452 150.64 139.811 152.665L143.488 173.411L140.473 183.454C143.075 187.109 149.057 187.292 149.057 187.292C152.39 180.293 154.837 177.31 156.734 171.454C158.631 165.597 159.913 161.538 159.913 161.538L175.66 157.029C179.266 156.006 182.494 153.873 184.928 150.906C187.361 147.94 188.888 144.277 189.309 140.392C189.58 137.902 189.59 136.2 189.59 136.2L163.421 131.231Z" fill="black"/>
<path opacity="0.2" d="M163.548 136.81C163.554 139.025 164.304 141.167 165.668 142.86L152.284 151.628C150.314 152.922 148.857 154.917 148.183 157.246L143.446 173.456L147.722 155.405C148.212 153.329 149.459 151.537 151.197 150.414L163.559 142.417C162.314 139.078 163.548 136.81 163.548 136.81Z" fill="black"/>
<path d="M176.794 145.073C176.81 145.16 176.81 145.251 176.794 145.339C176.767 145.41 176.733 145.479 176.694 145.544C176.642 145.615 176.585 145.681 176.524 145.744C176.443 145.815 176.356 145.878 176.265 145.932L162.388 154.378C162.26 154.449 162.127 154.51 161.99 154.561L161.837 154.606L161.635 154.661L161.386 154.705H161.328C161.215 154.714 161.102 154.714 160.989 154.705H160.899C160.786 154.714 160.673 154.714 160.56 154.705H160.512C160.404 154.693 160.296 154.674 160.189 154.65H160.131C160.035 154.626 159.942 154.597 159.85 154.561H159.797C159.692 154.517 159.589 154.467 159.49 154.411L136.595 140.547C136.503 140.493 136.416 140.43 136.335 140.359L136.266 140.281C136.223 140.238 136.182 140.191 136.144 140.142C136.144 140.115 136.144 140.081 136.102 140.054C136.076 140.009 136.053 139.963 136.033 139.915C136.033 139.882 136.033 139.849 136.033 139.815C136.031 139.771 136.031 139.726 136.033 139.682V140.531C136.031 140.577 136.031 140.623 136.033 140.669C136.033 140.703 136.033 140.736 136.033 140.764C136.053 140.811 136.076 140.858 136.102 140.902L136.144 140.991C136.182 141.04 136.223 141.086 136.266 141.13C136.288 141.157 136.311 141.183 136.335 141.207C136.416 141.28 136.503 141.345 136.595 141.401L159.49 155.238C159.589 155.293 159.692 155.343 159.797 155.387H159.85C159.941 155.425 160.035 155.455 160.131 155.476H160.189C160.296 155.502 160.403 155.523 160.512 155.537H160.56C160.671 155.537 160.782 155.537 160.899 155.537H160.952C161.063 155.537 161.18 155.537 161.291 155.537H161.349L161.598 155.493L161.8 155.443L161.953 155.393C162.091 155.345 162.224 155.283 162.351 155.21L176.227 146.764C176.32 146.712 176.408 146.648 176.487 146.575C176.548 146.513 176.605 146.446 176.657 146.376C176.697 146.312 176.731 146.243 176.757 146.171C176.765 146.106 176.765 146.041 176.757 145.976V145.05L176.794 145.073Z" fill="#E0E0E0"/>
<path opacity="0.2" d="M176.794 145.073C176.81 145.16 176.81 145.251 176.794 145.339C176.767 145.41 176.733 145.479 176.694 145.544C176.642 145.615 176.585 145.681 176.524 145.744C176.443 145.815 176.356 145.878 176.265 145.932L162.388 154.378C162.26 154.449 162.127 154.51 161.99 154.561L161.837 154.606L161.635 154.661L161.386 154.705H161.328C161.215 154.714 161.102 154.714 160.989 154.705H160.899C160.786 154.714 160.673 154.714 160.56 154.705H160.512C160.404 154.693 160.296 154.674 160.189 154.65H160.131C160.035 154.626 159.942 154.597 159.85 154.561H159.797C159.692 154.517 159.589 154.467 159.49 154.411L136.595 140.547C136.503 140.493 136.416 140.43 136.335 140.359L136.266 140.281C136.223 140.238 136.182 140.191 136.144 140.142C136.144 140.115 136.144 140.081 136.102 140.054C136.076 140.009 136.053 139.963 136.033 139.915C136.033 139.882 136.033 139.849 136.033 139.815C136.031 139.771 136.031 139.726 136.033 139.682V140.531C136.031 140.577 136.031 140.623 136.033 140.669C136.033 140.703 136.033 140.736 136.033 140.764C136.053 140.811 136.076 140.858 136.102 140.902L136.144 140.991C136.182 141.04 136.223 141.086 136.266 141.13C136.288 141.157 136.311 141.183 136.335 141.207C136.416 141.28 136.503 141.345 136.595 141.401L159.49 155.238C159.589 155.293 159.692 155.343 159.797 155.387H159.85C159.941 155.425 160.035 155.455 160.131 155.476H160.189C160.296 155.502 160.403 155.523 160.512 155.537H160.56C160.671 155.537 160.782 155.537 160.899 155.537H160.952C161.063 155.537 161.18 155.537 161.291 155.537H161.349L161.598 155.493L161.8 155.443L161.953 155.393C162.091 155.345 162.224 155.283 162.351 155.21L176.227 146.764C176.32 146.712 176.408 146.648 176.487 146.575C176.548 146.513 176.605 146.446 176.657 146.376C176.697 146.312 176.731 146.243 176.757 146.171C176.765 146.106 176.765 146.041 176.757 145.976V145.05L176.794 145.073Z" fill="black"/>
<path d="M136.033 139.954C136.053 140.002 136.076 140.048 136.102 140.092C136.102 140.12 136.129 140.153 136.144 140.181C136.182 140.23 136.223 140.276 136.266 140.32L136.335 140.397C136.416 140.468 136.503 140.532 136.595 140.586L159.49 154.45C159.589 154.506 159.692 154.556 159.797 154.6H159.85C159.942 154.635 160.035 154.665 160.131 154.689H160.189C160.296 154.713 160.404 154.731 160.512 154.744H160.56C160.673 154.752 160.786 154.752 160.899 154.744H160.952C161.065 154.752 161.178 154.752 161.291 154.744H161.349L161.598 154.7L161.8 154.644L161.953 154.6C162.09 154.549 162.223 154.488 162.351 154.417L176.227 145.971C176.319 145.916 176.406 145.853 176.487 145.782C176.548 145.72 176.605 145.653 176.657 145.583C176.696 145.518 176.73 145.449 176.757 145.377C176.773 145.289 176.773 145.199 176.757 145.111C176.73 144.935 176.662 144.768 176.559 144.625C176.457 144.482 176.323 144.368 176.169 144.29L153.269 130.454C152.828 130.219 152.339 130.096 151.844 130.096C151.348 130.096 150.86 130.219 150.419 130.454L136.542 138.895C136.393 138.974 136.265 139.091 136.169 139.236C136.074 139.38 136.015 139.547 135.996 139.721C135.994 139.765 135.994 139.81 135.996 139.854C136.028 139.887 136.023 139.92 136.033 139.954Z" fill="#E0E0E0"/>
<path d="M137.941 139.721L160.194 153.164C160.222 153.183 160.253 153.198 160.284 153.208H160.332C160.389 153.231 160.447 153.249 160.507 153.263H160.629H160.714H160.925C161.001 153.271 161.078 153.271 161.153 153.263H161.302L161.482 153.208C161.536 153.194 161.588 153.172 161.635 153.141L168.788 148.788L145.809 134.924L137.941 139.721Z" fill="#E0E0E0"/>
<path d="M159.108 136.022L154.922 138.601C154.859 138.64 154.806 138.696 154.769 138.763C154.732 138.83 154.713 138.906 154.713 138.983C154.713 139.061 154.732 139.137 154.769 139.204C154.806 139.271 154.859 139.327 154.922 139.366L161.185 143.148C161.292 143.212 161.412 143.246 161.535 143.246C161.658 143.246 161.778 143.212 161.885 143.148L166.071 140.575C166.134 140.536 166.187 140.48 166.224 140.413C166.261 140.346 166.28 140.27 166.28 140.192C166.28 140.115 166.261 140.039 166.224 139.972C166.187 139.905 166.134 139.849 166.071 139.81L159.813 136.028C159.707 135.96 159.585 135.924 159.461 135.923C159.337 135.922 159.215 135.956 159.108 136.022Z" fill="#E0E0E0"/>
<path opacity="0.4" d="M137.941 139.721L160.194 153.164C160.222 153.183 160.253 153.198 160.284 153.208H160.332C160.389 153.231 160.447 153.249 160.507 153.263H160.629H160.714H160.925C161.001 153.271 161.078 153.271 161.153 153.263H161.302L161.482 153.208C161.536 153.194 161.588 153.172 161.635 153.141L168.788 148.788L145.809 134.924L137.941 139.721Z" fill="black"/>
<path opacity="0.4" d="M159.108 136.022L154.922 138.601C154.859 138.64 154.806 138.696 154.769 138.763C154.732 138.83 154.713 138.906 154.713 138.983C154.713 139.061 154.732 139.137 154.769 139.204C154.806 139.271 154.859 139.327 154.922 139.366L161.185 143.148C161.292 143.212 161.412 143.246 161.535 143.246C161.658 143.246 161.778 143.212 161.885 143.148L166.071 140.575C166.134 140.536 166.187 140.48 166.224 140.413C166.261 140.346 166.28 140.27 166.28 140.192C166.28 140.115 166.261 140.039 166.224 139.972C166.187 139.905 166.134 139.849 166.071 139.81L159.813 136.028C159.707 135.96 159.585 135.924 159.461 135.923C159.337 135.922 159.215 135.956 159.108 136.022Z" fill="black"/>
<path d="M157.964 104.301L156.931 121.692L146.206 131.369C145.582 131.64 144.904 131.752 144.23 131.696L140.256 131.352C139.789 131.312 139.322 131.427 138.921 131.68L136.643 133.122C136.415 133.272 136.211 133.459 136.039 133.676L134.937 135.063C134.861 135.155 134.805 135.262 134.772 135.378C134.738 135.495 134.728 135.617 134.742 135.737C134.756 135.858 134.794 135.974 134.853 136.078C134.912 136.182 134.991 136.273 135.085 136.344L135.79 136.865C136.159 137.143 136.593 137.309 137.046 137.346C137.499 137.383 137.954 137.29 138.359 137.076L140.124 136.144L143.758 136.56V137.558L142.773 138.44C142.662 138.546 142.574 138.675 142.514 138.82C142.454 138.964 142.425 139.121 142.427 139.278C142.43 139.435 142.464 139.59 142.529 139.733C142.593 139.875 142.685 140.001 142.799 140.104C142.799 140.104 145.231 139.349 147.436 135.667L160.274 129.595C161.594 128.97 162.724 127.975 163.539 126.72C164.353 125.466 164.82 124 164.889 122.485L166.028 97.0747L164.253 97.3076C162.59 97.5228 161.051 98.3395 159.903 99.6165C158.754 100.893 158.068 102.55 157.964 104.301Z" fill="#FFA8A7"/>
<path d="M166.017 97.0698L164.073 97.2029C162.304 97.3182 160.633 98.0971 159.368 99.3968C158.103 100.696 157.328 102.43 157.185 104.279L156.379 114.766C159.161 118.415 166.404 116.884 166.404 116.884L166.017 97.0698Z" fill="#455A64"/>
<path opacity="0.5" d="M166.017 97.0698L164.073 97.2029C162.304 97.3182 160.633 98.0971 159.368 99.3968C158.103 100.696 157.328 102.43 157.185 104.279L156.379 114.766C159.161 118.415 166.404 116.884 166.404 116.884L166.017 97.0698Z" fill="white"/>
<path d="M189.855 137.78C186.491 141.163 170.33 141.784 162.081 133.566C162.875 127.77 162.61 121.554 162.081 115.409C161.551 109.264 158.123 98.517 164.677 97.2692C173.43 95.478 179.147 95.6055 184.997 99.0716C191.238 109.958 190.38 126.251 189.855 137.78Z" fill="#455A64"/>
<path opacity="0.3" d="M189.855 137.78C186.491 141.163 170.33 141.784 162.081 133.566C162.875 127.77 162.61 121.554 162.081 115.409C161.551 109.264 158.123 98.517 164.677 97.2692C173.43 95.478 179.147 95.6055 184.997 99.0716C191.238 109.958 190.38 126.251 189.855 137.78Z" fill="white"/>
<path d="M195.132 126.19L192.658 116.557L183.979 118.548L186.056 126.018L173.34 135.446L169.064 137.331C167.93 137.83 166.95 138.645 166.229 139.688L162.738 144.746C162.707 144.813 162.694 144.888 162.7 144.962C162.722 145.093 162.779 145.214 162.865 145.312C162.95 145.41 163.06 145.481 163.182 145.516C163.305 145.55 163.434 145.548 163.555 145.509C163.676 145.47 163.784 145.396 163.866 145.295C164.645 144.369 165.286 143.515 166.097 142.699L164.041 145.611C163.973 145.708 163.925 145.82 163.901 145.938C163.877 146.056 163.876 146.179 163.9 146.297C163.924 146.415 163.972 146.527 164.04 146.625C164.108 146.722 164.195 146.804 164.295 146.864C164.529 147.008 164.778 147.122 165.037 147.202C165.541 147.338 166.07 147.341 166.575 147.209C167.08 147.077 167.546 146.816 167.93 146.448L170.622 143.864L171.369 143.592C173.543 142.803 175.435 141.338 176.794 139.394L191.71 133.333C193.022 132.794 194.097 131.766 194.729 130.448C195.361 129.129 195.504 127.613 195.132 126.19Z" fill="#FFA8A7"/>
<path d="M194.015 117.833L193.75 116.557C190.597 101.584 188.085 100.475 183.857 98.4395C179.746 102.188 180.434 108.56 180.434 108.56L184.117 120.09L184.228 120.422C185.942 120.706 187.693 120.622 189.375 120.177C191.057 119.732 192.635 118.934 194.015 117.833Z" fill="#455A64"/>
<path opacity="0.5" d="M194.015 117.833L193.75 116.557C190.597 101.584 188.085 100.475 183.857 98.4395C179.746 102.188 180.434 108.56 180.434 108.56L184.117 120.09L184.228 120.422C185.942 120.706 187.693 120.622 189.375 120.177C191.057 119.732 192.635 118.934 194.015 117.833Z" fill="white"/>
<path d="M164.253 92.7604C164.028 93.3684 163.997 94.0364 164.165 94.6642C164.333 95.2921 164.691 95.846 165.186 96.2431C165.692 96.6218 166.27 96.8818 166.881 97.0053C167.491 97.1287 168.12 97.1128 168.725 96.9585C169.931 96.6482 171.064 96.0819 172.052 95.2948C172.9 94.6626 173.748 93.9361 174.776 93.7697C175.804 93.6033 176.821 94.2245 176.853 95.3114C177.275 95.2327 177.673 95.0504 178.015 94.7795C178.356 94.5087 178.632 94.1569 178.819 93.7531C179.08 94.1207 179.445 94.3943 179.861 94.5363C180.278 94.6783 180.726 94.6818 181.145 94.5461C181.558 94.3814 181.913 94.0888 182.163 93.7073C182.413 93.3258 182.545 92.8736 182.543 92.411C182.982 92.6831 183.5 92.7769 184.001 92.6746C184.501 92.5724 184.948 92.2812 185.256 91.8565C184.721 91.7166 184.22 91.4583 183.788 91.0988C183.356 90.7394 183.002 90.2872 182.751 89.7728C182.5 89.2583 182.357 88.6935 182.333 88.1164C182.308 87.5393 182.401 86.9633 182.607 86.4273C183.19 84.9244 184.636 83.7598 184.7 82.1405C184.677 81.4417 184.419 80.7738 183.971 80.2552C183.523 79.7365 182.914 79.4005 182.252 79.3066C182.815 78.8732 183.232 78.2635 183.443 77.5657C183.653 76.8679 183.646 76.1181 183.423 75.4247C183.166 74.7192 182.71 74.1122 182.116 73.6843C181.521 73.2564 180.817 73.0278 180.095 73.0289C180.278 72.7599 180.37 72.4359 180.36 72.1064C180.349 71.7769 180.236 71.4601 180.037 71.2044C179.831 70.956 179.58 70.7534 179.298 70.6086C179.015 70.4638 178.708 70.3797 178.395 70.3615C177.767 70.3284 177.138 70.3843 176.524 70.5278L174.511 70.8994C173.059 68.5425 170.436 66.9842 167.877 67.7938C167.104 68.0434 166.388 68.4371 165.631 68.7366C164.888 69.0781 164.068 69.1897 163.267 69.0582C162.868 68.9816 162.5 68.7825 162.21 68.4862C161.919 68.19 161.719 67.81 161.636 67.3945C160.729 68.0267 160.401 69.7071 160.894 70.7219C159.878 70.7583 158.907 71.171 158.154 71.8865C157.791 72.2327 157.513 72.6654 157.343 73.1481C157.173 73.6308 157.117 74.1492 157.18 74.6594C157.257 75.169 157.479 75.6425 157.816 76.0191C158.153 76.3957 158.59 76.658 159.071 76.7723C158.437 77.4434 157.991 78.2839 157.782 79.2021C157.572 80.1204 157.608 81.0811 157.884 81.9796C158.213 82.7698 158.633 83.5148 159.135 84.1979C159.633 84.8833 160.022 85.6495 160.284 86.4661C160.413 86.8772 160.452 87.313 160.398 87.7419C160.345 88.1707 160.201 88.5818 159.977 88.945C159.736 89.2933 159.385 89.5405 158.986 89.6421C158.587 89.7438 158.166 89.6932 157.799 89.4996C157.939 90.1594 158.216 90.7791 158.609 91.3147C159.003 91.8504 159.504 92.289 160.078 92.5996C161.212 93.2151 163.146 93.3704 164.253 92.7604Z" fill="#263238"/>
<path d="M176.757 90.6642V97.1028C176.76 97.5343 176.674 97.9614 176.506 98.3555C176.338 98.7496 176.091 99.1014 175.782 99.3876C174.159 100.864 172.048 101.616 169.901 101.484C169.464 101.488 169.036 101.35 168.677 101.09C168.461 100.866 168.31 100.583 168.241 100.273C168.171 99.9629 168.187 99.6389 168.285 99.3377C168.386 98.9987 168.538 98.6787 168.735 98.3894C169.049 97.9088 169.217 97.3407 169.217 96.7589V90.6587L176.757 90.6642Z" fill="#FFA8A7"/>
<path opacity="0.2" d="M172.28 95.8659C171.281 96.1791 170.255 96.3908 169.218 96.4981V90.6641H176.757V92.0394C176.589 92.4301 176.383 92.8017 176.143 93.1485C175.164 94.4617 173.811 95.4137 172.28 95.8659Z" fill="black"/>
<path d="M168.894 80.3384C169.832 80.0555 170.823 79.5398 171.724 79.9224C172.195 80.19 172.624 80.5323 172.995 80.9373C173.786 81.6179 174.78 81.9868 175.804 81.9799C175.883 82.1367 175.922 82.3127 175.915 82.4901L175.798 85.1797C175.765 85.3658 175.771 85.5573 175.817 85.7405C175.863 85.9236 175.947 86.0939 176.063 86.239C176.2 86.3367 176.361 86.389 176.527 86.389C176.692 86.389 176.854 86.3367 176.99 86.239C177.263 86.0397 177.492 85.7828 177.663 85.4847C178.037 84.8663 178.492 84.3062 179.015 83.821C179.279 83.5843 179.589 83.409 179.923 83.3067C180.258 83.2044 180.609 83.1775 180.954 83.2277C182.066 83.4661 182.723 84.786 182.644 86.0005C182.599 86.6121 182.408 87.2023 182.09 87.7174C181.772 88.2326 181.336 88.6565 180.821 88.9508C180.297 89.2121 179.718 89.3317 179.137 89.2988C178.557 89.2659 177.994 89.0814 177.499 88.7622C177.669 90.8807 176.286 92.8716 174.548 93.9696C172.81 95.0677 170.759 95.4614 168.757 95.833C167.66 96.0326 166.505 96.2267 165.466 95.833C164.624 95.4674 163.923 94.8173 163.474 93.9862C163.035 93.1579 162.709 92.2694 162.504 91.3465C161.439 87.1628 161.169 82.8009 161.71 78.5083C163.633 80.2385 166.918 80.9373 168.894 80.3384Z" fill="#FFA8A7"/>
<path d="M167.358 85.0078L165.048 89.0728L167.798 89.6163L167.358 85.0078Z" fill="#F28F8F"/>
<path d="M170.436 91.019L168.349 92.0838C168.529 92.3324 168.781 92.5129 169.068 92.5979C169.355 92.683 169.66 92.668 169.938 92.5552C170.176 92.3972 170.356 92.1586 170.446 91.8791C170.537 91.5996 170.533 91.2961 170.436 91.019Z" fill="#F28F8F"/>
<path opacity="0.3" d="M170.436 91.019L168.349 92.0838C168.529 92.3324 168.781 92.5129 169.068 92.5979C169.355 92.683 169.66 92.668 169.938 92.5552C170.176 92.3972 170.356 92.1586 170.446 91.8791C170.537 91.5996 170.533 91.2961 170.436 91.019Z" fill="black"/>
<path d="M169.223 92.627C169.466 92.6764 169.718 92.6514 169.949 92.5549C170.14 92.4422 170.296 92.2723 170.395 92.0669C170.494 91.8614 170.532 91.6298 170.505 91.4014C170.206 91.3981 169.916 91.504 169.684 91.7009C169.552 91.8158 169.444 91.9568 169.365 92.1158C169.286 92.2747 169.238 92.4485 169.223 92.627Z" fill="#F28F8F"/>
<path d="M171.342 85.1523C171.363 85.3729 171.3 85.5932 171.166 85.7648C171.031 85.9364 170.838 86.0452 170.627 86.0673C170.416 86.0894 170.206 86.0229 170.042 85.8825C169.878 85.7421 169.774 85.5393 169.753 85.3186C169.733 85.0999 169.797 84.8819 169.93 84.7118C170.063 84.5416 170.254 84.4329 170.463 84.4091C170.567 84.3961 170.673 84.4051 170.775 84.4355C170.876 84.466 170.97 84.5174 171.052 84.5867C171.134 84.6559 171.202 84.7416 171.252 84.8388C171.302 84.9359 171.332 85.0425 171.342 85.1523Z" fill="#263238"/>
<path d="M164.714 85.5956C164.735 85.8162 164.671 86.0366 164.537 86.2082C164.403 86.3798 164.209 86.4886 163.999 86.5106C163.788 86.5327 163.577 86.4662 163.413 86.3258C163.249 86.1854 163.145 85.9826 163.124 85.762C163.114 85.6527 163.124 85.5424 163.154 85.4373C163.185 85.3322 163.234 85.2344 163.301 85.1494C163.367 85.0644 163.449 84.994 163.542 84.9421C163.634 84.8902 163.735 84.8578 163.84 84.8469C163.944 84.836 164.049 84.8467 164.15 84.8784C164.25 84.9101 164.344 84.9622 164.425 85.0317C164.506 85.1013 164.573 85.1868 164.623 85.2836C164.673 85.3803 164.703 85.4864 164.714 85.5956Z" fill="#263238"/>
<path d="M163.633 82.3791L162.012 83.8265C161.913 83.6085 161.881 83.3642 161.918 83.1262C161.956 82.8883 162.063 82.6682 162.224 82.4955C162.425 82.3412 162.664 82.2486 162.913 82.228C163.162 82.2074 163.411 82.2597 163.633 82.3791Z" fill="#263238"/>
<path d="M170.357 81.5917L172.222 82.6731C172.278 82.4391 172.263 82.1928 172.181 81.9676C172.099 81.7424 171.952 81.5492 171.761 81.4142C171.534 81.3045 171.283 81.263 171.035 81.2943C170.787 81.3257 170.552 81.4286 170.357 81.5917Z" fill="#263238"/>
<path d="M169.038 101.306L170.32 99.5872C173.939 99.1436 176.09 95.794 176.757 94.9399C177.154 95.0343 177.499 95.2896 177.717 95.6498L178.379 96.7589C177.849 100.086 173.812 103.414 172.487 103.968C172.225 103.063 171.822 102.208 171.295 101.439C170.938 101.618 170.544 101.7 170.15 101.677C169.755 101.654 169.373 101.526 169.038 101.306Z" fill="#455A64"/>
<path opacity="0.5" d="M169.038 101.306L170.32 99.5872C173.939 99.1436 176.09 95.794 176.757 94.9399C177.154 95.0343 177.499 95.2896 177.717 95.6498L178.379 96.7589C177.849 100.086 173.812 103.414 172.487 103.968C172.225 103.063 171.822 102.208 171.295 101.439C170.938 101.618 170.544 101.7 170.15 101.677C169.755 101.654 169.373 101.526 169.038 101.306Z" fill="white"/>
<path opacity="0.1" d="M170.436 100.191C170.772 100.576 171.068 100.996 171.321 101.445C170.988 101.601 170.626 101.678 170.261 101.672C170.472 101.212 170.534 100.692 170.436 100.191Z" fill="black"/>
<path d="M169.038 101.306C168.598 100.069 169.223 98.7772 169.223 97.0691V95.96C168.82 96.6664 168.251 97.2527 167.57 97.6625C167.009 98.5805 166.622 99.6028 166.431 100.674C166.854 100.104 167.322 99.5717 167.829 99.0822C167.845 100.574 168.465 101.162 169.038 101.306Z" fill="#455A64"/>
<path opacity="0.5" d="M169.038 101.306C168.598 100.069 169.223 98.7772 169.223 97.0691V95.96C168.82 96.6664 168.251 97.2527 167.57 97.6625C167.009 98.5805 166.622 99.6028 166.431 100.674C166.854 100.104 167.322 99.5717 167.829 99.0822C167.845 100.574 168.465 101.162 169.038 101.306Z" fill="white"/>
<path opacity="0.1" d="M167.088 99.8476C167.24 99.1598 167.533 98.5147 167.946 97.9565C167.862 98.3197 167.822 98.6922 167.824 99.0657C167.565 99.3118 167.319 99.5729 167.088 99.8476Z" fill="black"/>
<path d="M160.782 153.569L158.414 137.786C158.35 137.358 158.195 136.951 157.961 136.594C157.728 136.237 157.421 135.94 157.063 135.723L134.004 121.692C133.912 121.635 133.808 121.602 133.702 121.594C133.595 121.586 133.488 121.605 133.389 121.648L132.859 121.931L133.045 122.003C132.983 122.137 132.961 122.288 132.981 122.435L135.355 138.213C135.418 138.64 135.572 139.048 135.806 139.405C136.04 139.762 136.348 140.06 136.706 140.276L159.76 154.306C159.808 154.335 159.86 154.358 159.913 154.373V154.606L160.443 154.328C160.57 154.256 160.67 154.143 160.731 154.006C160.792 153.87 160.81 153.717 160.782 153.569Z" fill="#E0E0E0"/>
<path opacity="0.3" d="M160.782 153.569L158.414 137.786C158.35 137.358 158.195 136.951 157.961 136.594C157.728 136.237 157.421 135.94 157.063 135.723L134.004 121.692C133.912 121.635 133.808 121.602 133.702 121.594C133.595 121.586 133.488 121.605 133.389 121.648L132.859 121.931L133.045 122.003C132.983 122.137 132.961 122.288 132.981 122.435L135.355 138.213C135.418 138.64 135.572 139.048 135.806 139.405C136.04 139.762 136.348 140.06 136.706 140.276L159.76 154.306C159.808 154.335 159.86 154.358 159.913 154.373V154.606L160.443 154.328C160.57 154.256 160.67 154.143 160.731 154.006C160.792 153.87 160.81 153.717 160.782 153.569Z" fill="black"/>
<path d="M156.596 135.967L133.537 121.931C133.424 121.862 133.294 121.828 133.163 121.834C133.032 121.839 132.905 121.883 132.797 121.961C132.688 122.039 132.604 122.147 132.552 122.273C132.5 122.399 132.484 122.538 132.504 122.674L134.873 138.451C134.936 138.88 135.09 139.288 135.324 139.646C135.558 140.004 135.865 140.302 136.224 140.52L159.309 154.55C159.423 154.628 159.556 154.668 159.692 154.667C159.828 154.666 159.96 154.623 160.073 154.544C160.186 154.465 160.274 154.353 160.327 154.222C160.379 154.091 160.394 153.947 160.369 153.807L157.995 138.03C157.927 137.597 157.765 137.187 157.523 136.83C157.281 136.472 156.964 136.177 156.596 135.967Z" fill="#E0E0E0"/>
<path d="M145.422 136.372C146.007 136.754 146.512 137.257 146.905 137.85C147.299 138.443 147.573 139.114 147.711 139.821C147.859 141.052 147.086 141.512 145.968 140.836C145.383 140.453 144.879 139.95 144.486 139.357C144.092 138.764 143.818 138.094 143.679 137.386C143.531 136.172 144.31 135.701 145.422 136.372Z" fill="white"/>
<path d="M176.853 165.991V201.306L219.77 175.369V140.054L176.853 165.991ZM181.563 168.892L214.991 148.683V172.458L181.563 192.633V168.892Z" fill="#0060FF"/>
<path d="M176.853 165.991L172.084 163.13V198.445L176.853 201.306V165.991Z" fill="#0060FF"/>
<path d="M219.77 140.065L215.002 137.204L172.084 163.13L176.853 165.991L219.77 140.065Z" fill="#0060FF"/>
<path opacity="0.3" d="M219.77 140.065L215.002 137.204L172.084 163.13L176.853 165.991L219.77 140.065Z" fill="white"/>
<path d="M210.233 169.612L215.002 172.474V148.694L210.233 151.583V169.612Z" fill="#0060FF"/>
<path d="M181.573 192.632V186.893L210.233 169.612L215.002 172.474L181.573 192.632Z" fill="#0060FF"/>
<path opacity="0.2" d="M176.853 165.991L172.084 163.13V198.445L176.853 201.306V165.991Z" fill="white"/>
<path opacity="0.2" d="M210.233 169.612L215.002 172.474V148.694L210.233 151.583V169.612Z" fill="white"/>
<path opacity="0.3" d="M181.573 192.632V186.893L210.233 169.612L215.002 172.474L181.573 192.632Z" fill="white"/>
<path d="M221.032 131.863C220.876 131.44 220.586 131.085 220.21 130.859L217.317 129.129C216.597 128.693 215.781 128.464 214.949 128.464C214.117 128.464 213.3 128.693 212.581 129.129L170.193 155.432C169.815 155.66 169.526 156.019 169.377 156.447C168.81 157.742 168.521 159.152 168.53 160.576C168.539 162.001 168.846 163.406 169.43 164.693C169.609 165.049 169.876 165.348 170.203 165.558L173.096 167.283C173.816 167.719 174.633 167.948 175.465 167.948C176.296 167.948 177.113 167.719 177.833 167.283L220.221 140.974C220.554 140.775 220.82 140.473 220.984 140.109C221.566 138.822 221.871 137.416 221.88 135.992C221.888 134.567 221.598 133.158 221.032 131.863Z" fill="#455A64"/>
<path opacity="0.3" d="M177.812 160.573L220.2 134.264C220.588 134.028 220.883 133.655 221.032 133.212C221.182 132.769 221.176 132.285 221.016 131.846C221.582 133.142 221.871 134.553 221.862 135.978C221.853 137.404 221.546 138.81 220.963 140.098C220.799 140.461 220.532 140.763 220.2 140.963L177.812 167.272C177.053 167.727 176.19 167.955 175.316 167.932V161.249C176.192 161.268 177.055 161.034 177.812 160.573Z" fill="black"/>
<path opacity="0.2" d="M169.376 156.458C169.217 156.897 169.212 157.38 169.363 157.822C169.513 158.265 169.809 158.636 170.198 158.87L173.085 160.573C173.768 160.984 174.539 161.209 175.327 161.227V167.949C174.539 167.93 173.768 167.705 173.085 167.294L170.182 165.564C169.855 165.353 169.587 165.055 169.408 164.699C168.829 163.411 168.526 162.006 168.521 160.582C168.515 159.159 168.807 157.751 169.376 156.458Z" fill="black"/>
<path d="M110.055 138.801L116.169 150.502L112.476 148.267L112.45 156.918L107.57 153.963L107.591 145.317L103.898 143.088L110.055 138.801Z" fill="#0060FF"/>
<path d="M112.481 158.127L112.471 161.432L107.586 158.482L107.596 155.177L112.481 158.127Z" fill="#0060FF"/>
<path d="M112.481 162.763L112.471 164.416L107.586 161.466L107.596 159.808L112.481 162.763Z" fill="#0060FF"/>
<path d="M112.481 165.525L112.471 166.523L107.586 163.568L107.596 162.569L112.481 165.525Z" fill="#0060FF"/>
<path d="M202.307 109.242L208.416 120.944L204.723 118.714L204.702 127.36L199.816 124.41L199.843 115.764L196.15 113.535L202.307 109.242Z" fill="#0060FF"/>
<path d="M204.728 128.569L204.717 131.88L199.837 128.929L199.843 125.619L204.728 128.569Z" fill="#0060FF"/>
<path d="M204.728 133.205L204.717 134.858L199.837 131.907L199.843 130.255L204.728 133.205Z" fill="#0060FF"/>
<path d="M204.728 135.966L204.717 136.965L199.837 134.014L199.843 133.016L204.728 135.966Z" fill="#0060FF"/>
<path d="M138.667 74.6816L144.781 86.383L141.088 84.1536L141.062 92.7993L136.182 89.849L136.203 81.2033L132.51 78.9684L138.667 74.6816Z" fill="#0060FF"/>
<path d="M141.093 94.0084L141.083 97.3136L136.198 94.3633L136.208 91.0581L141.093 94.0084Z" fill="#0060FF"/>
<path d="M141.093 98.6446L141.083 100.297L136.198 97.347L136.208 95.6943L141.093 98.6446Z" fill="#0060FF"/>
<path d="M141.093 101.406L141.083 102.404L136.198 99.4538L136.208 98.4556L141.093 101.406Z" fill="#0060FF"/>
</svg>
