<svg width="8" height="9" viewBox="0 0 8 9" fill="none" xmlns="http://www.w3.org/2000/svg">
<path d="M0.00180875 9.00012C0.00180875 8.9285 1.1549 8.3476 2.92199 7.16987C3.95053 6.48343 4.85572 5.60765 5.59508 4.58363C6.50462 3.35287 6.9312 1.79605 6.78562 0.238745C6.59094 0.0795913 7.04768 0.445621 6.99527 0.41379H6.86048H6.71073C6.61339 0.41379 6.52354 0.413812 6.4262 0.461558C6.32886 0.509304 6.05182 0.549087 5.86463 0.604791C5.50353 0.704785 5.1505 0.835164 4.80888 0.994709C4.15524 1.29509 3.54312 1.68862 2.98937 2.16449C2.05346 2.97858 1.30983 4.01416 0.81796 5.18839C0.395012 6.29478 0.142197 7.46626 0.0691948 8.65795C0.000517416 8.33707 -0.0172034 8.00623 0.0167758 7.67915C0.0623648 6.7848 0.249696 5.90506 0.570866 5.077C1.33055 3.08351 2.79576 1.48632 4.65163 0.628663C5.01125 0.453823 5.38456 0.312702 5.76729 0.206907C5.95449 0.151203 6.15665 0.0954979 6.35133 0.0557095L6.65083 0H6.80808H6.95034C6.95034 0 7.36216 0.334223 7.16748 0.17507C7.32923 1.84136 6.8665 3.50827 5.87961 4.8144C5.10672 5.86551 4.15093 6.74892 3.06425 7.41655C2.35035 7.86907 1.61288 8.27823 0.8554 8.64204C0.583249 8.79237 0.297196 8.91236 0.00180875 9.00012Z" fill="#FAFAFA"/>
</svg>
