<svg width="60" height="51" viewBox="0 0 60 51" fill="none" xmlns="http://www.w3.org/2000/svg">
<path d="M40.5934 50.0735L58.3953 39.1382C58.8604 38.8148 59.2474 38.3795 59.5251 37.8675C59.8028 37.3555 59.9633 36.7812 59.9937 36.191V36.4111C59.9638 35.8208 59.8035 35.2463 59.5258 34.7342C59.2481 34.2221 58.8608 33.7869 58.3953 33.4639L22.5972 11.46C22.1015 11.1939 21.554 11.0553 20.9987 11.0553C20.4435 11.0553 19.896 11.1939 19.4003 11.46L1.5984 22.3953C1.13309 22.7168 0.745784 23.1508 0.468017 23.6618C0.19025 24.1728 0.0298873 24.7464 0 25.3358V25.1224C0.0298873 25.7118 0.19025 26.2854 0.468017 26.7964C0.745784 27.3074 1.13309 27.7413 1.5984 28.0629L37.3966 50.0668C37.8918 50.334 38.439 50.4737 38.9942 50.4749C39.5495 50.4761 40.0972 50.3386 40.5934 50.0735Z" fill="#37474F"/>
<path d="M39.0012 21.5552L58.4015 33.4639C58.867 33.787 59.2543 34.2222 59.532 34.7343C59.8097 35.2463 59.97 35.8208 60 36.4111V36.1911C59.9696 36.7813 59.809 37.3556 59.5314 37.8676C59.2537 38.3796 58.8666 38.8149 58.4015 39.1383L40.5996 50.0736C40.1071 50.3491 39.5576 50.489 39.0012 50.4803V21.5552Z" fill="#263238"/>
<path d="M58.4016 35.4308L40.5997 46.3795C40.105 46.6492 39.5571 46.7899 39.0013 46.7899C38.4454 46.7899 37.8975 46.6492 37.4028 46.3795L1.60467 24.3756C0.720843 23.8355 0.720843 22.9553 1.60467 22.4152L19.4066 11.4799C19.9023 11.2138 20.4498 11.0752 21.005 11.0752C21.5603 11.0752 22.1077 11.2138 22.6034 11.4799L58.4016 33.4838C59.2854 34.0106 59.2854 34.8908 58.4016 35.4308Z" fill="#455A64"/>
<path d="M58.4016 31.8369V33.6439L39.9227 44.9793C39.7196 45.1094 39.4933 45.1934 39.2582 45.226C38.8505 45.2881 38.435 45.2012 38.0798 44.9793L1.60465 22.582V20.7083L37.4028 42.7522C37.8981 43.0199 38.4457 43.1593 39.0012 43.1593C39.5567 43.1593 40.1044 43.0199 40.5996 42.7522L58.4016 31.8369Z" fill="#629DFF"/>
<path opacity="0.2" d="M58.4015 31.8369V33.6439L39.9227 44.9792C39.7196 45.1094 39.4933 45.1934 39.2582 45.2259H38.9949V43.1456C39.5537 43.1583 40.1063 43.0183 40.5996 42.7388L58.4015 31.8369Z" fill="black"/>
<path d="M40.5997 42.7655L58.4016 31.8369C58.8674 31.5143 59.2549 31.0792 59.5327 30.567C59.8105 30.0549 59.9706 29.4802 60 28.8897V25.3891C59.9706 24.7987 59.8105 24.224 59.5327 23.7118C59.2549 23.1997 58.8674 22.7646 58.4016 22.4419L22.6034 0.438011C22.1077 0.171915 21.5603 0.0332964 21.005 0.0332964C20.4498 0.0332964 19.9023 0.171915 19.4066 0.438011L1.60467 11.3666C1.13992 11.6904 0.753159 12.1258 0.475527 12.6377C0.197896 13.1496 0.0371625 13.7237 0.00626699 14.3138V17.8144C0.0363875 18.3965 0.197244 18.9625 0.475355 19.4648C0.753466 19.9672 1.14072 20.3913 1.60467 20.7016L37.4028 42.7455C37.896 43.0183 38.4431 43.1625 38.999 43.1659C39.5548 43.1694 40.1035 43.0322 40.5997 42.7655Z" fill="#37474F"/>
<path d="M39.0012 10.5264L58.4015 22.4419C58.8673 22.7645 59.2549 23.1996 59.5327 23.7118C59.8104 24.2239 59.9705 24.7986 60 25.3891V28.8897C59.9705 29.4801 59.8104 30.0548 59.5327 30.567C59.2549 31.0791 58.8673 31.5143 58.4015 31.8369L40.5996 42.7655C40.1085 43.0449 39.558 43.185 39.0012 43.1722V10.5264Z" fill="#263238"/>
<path d="M58.4016 24.409L40.5996 35.3376C40.104 35.6037 39.5565 35.7423 39.0012 35.7423C38.446 35.7423 37.8985 35.6037 37.4028 35.3376L1.60466 13.3337C0.720832 12.7936 0.720832 11.9134 1.60466 11.3333L19.4066 0.404715C19.9023 0.138619 20.4498 0 21.005 0C21.5602 0 22.1077 0.138619 22.6034 0.404715L58.4016 22.4086C59.2854 22.9821 59.2854 23.8622 58.4016 24.409Z" fill="#455A64"/>
<path d="M33.5729 15.7075C35.5474 16.9143 35.5474 18.868 33.5729 20.0749C32.4651 20.6667 31.2427 20.9748 30.0031 20.9748C28.7635 20.9748 27.5411 20.6667 26.4333 20.0749C24.4651 18.868 24.4651 16.9143 26.4333 15.7075C27.5392 15.109 28.7624 14.7971 30.0031 14.7971C31.2438 14.7971 32.467 15.109 33.5729 15.7075Z" fill="#629DFF"/>
<path d="M4.50685 16.9943C4.69035 17.121 4.84288 17.2922 4.95188 17.4939C5.06087 17.6957 5.12319 17.9221 5.13368 18.1545C5.13368 18.5813 4.85161 18.7613 4.50685 18.5546C4.32419 18.4286 4.17215 18.2584 4.06321 18.0579C3.95426 17.8574 3.89149 17.6323 3.88002 17.4011C3.88002 16.9676 4.1621 16.7876 4.50685 16.9943Z" fill="#629DFF"/>
<path d="M4.50685 19.5614C4.68999 19.6885 4.84226 19.8598 4.95121 20.0615C5.06015 20.2631 5.12268 20.4894 5.13368 20.7216C5.13368 21.1484 4.85161 21.3284 4.50685 21.1217C4.32419 20.9957 4.17215 20.8255 4.06321 20.625C3.95426 20.4245 3.89149 20.1994 3.88002 19.9682C3.88002 19.5348 4.1621 19.3547 4.50685 19.5614Z" fill="#629DFF"/>
</svg>
