<svg width="7" height="7" viewBox="0 0 7 7" fill="none" xmlns="http://www.w3.org/2000/svg">
<path d="M6.43468 6.99996C6.19801 6.95352 5.96963 6.86802 5.75784 6.74656C5.16633 6.46139 4.59784 6.12511 4.05807 5.74114C3.25112 5.16706 2.50347 4.50399 1.82758 3.76299C1.42863 3.32526 1.05614 2.86115 0.712349 2.37341C0.524759 2.11079 0.350191 1.83795 0.189346 1.556C0.0935186 1.38859 0.0322935 1.20141 0.00975025 1.00693C-0.012793 0.812442 0.00386288 0.615094 0.0585954 0.427971C0.106068 0.322242 0.17588 0.229603 0.262602 0.157288C0.349324 0.0849736 0.450604 0.034933 0.558525 0.0110833C0.74919 -0.0179642 0.943696 0.0103584 1.11999 0.0928293C1.3932 0.243958 1.65095 0.424756 1.88912 0.632323C2.34986 0.995275 2.78672 1.39129 3.19663 1.81758C3.8941 2.53421 4.51333 3.33214 5.04255 4.19624C5.40065 4.77483 5.71197 5.3846 5.97319 6.01905C6.08359 6.24519 6.16137 6.48767 6.20393 6.73838C6.13471 6.73838 5.75015 5.77384 4.81181 4.36789C4.26012 3.5499 3.63412 2.79149 2.94283 2.10365C2.53577 1.69553 2.10414 1.31601 1.65069 0.967464C1.43311 0.778248 1.19566 0.616419 0.94309 0.485195C0.689277 0.370758 0.47392 0.419797 0.389316 0.607802C0.336563 0.86594 0.380721 1.13578 0.512379 1.35983C0.643131 1.60505 0.835417 1.87479 0.996935 2.12002C1.32723 2.6 1.68423 3.05856 2.06602 3.49326C2.71438 4.22608 3.42499 4.89374 4.18882 5.48774C5.55787 6.50951 6.46544 6.93456 6.43468 6.99996Z" fill="#FAFAFA"/>
</svg>
