<svg width="8" height="9" viewBox="0 0 8 9" fill="none" xmlns="http://www.w3.org/2000/svg">
<path d="M0.00209942 9.00008C0.00209942 8.92848 1.15481 8.34776 2.92131 7.16246C3.95114 6.4818 4.85648 5.60857 5.59351 4.58504C6.50392 3.35224 6.9304 1.79299 6.78367 0.233627L6.99325 0.408639H6.92589H6.85851H6.70881L6.42437 0.46433C6.23724 0.46433 6.05011 0.551822 5.86298 0.599553C5.50181 0.702191 5.14891 0.835194 4.80758 0.997305C4.15271 1.29458 3.54041 1.68823 2.98868 2.1667C2.05146 2.97886 1.30775 4.01456 0.817981 5.18963C0.395952 6.29314 0.143235 7.46145 0.0694632 8.65005C0.000375007 8.33204 -0.0173483 8.00386 0.0170615 7.67954C0.0780221 6.56362 0.353185 5.47278 0.82561 4.47409C1.29804 3.4754 1.95773 2.59 2.76412 1.87236C3.336 1.36608 3.97071 0.945814 4.65039 0.623417C5.0112 0.452083 5.38411 0.311112 5.76568 0.2018C5.95281 0.146115 6.15491 0.0983907 6.34952 0.0586155C6.54414 0.0188403 6.55162 0.0108795 6.64893 0.00292441H6.80612H6.95582C6.91091 -0.0368508 7.36002 0.345 7.16541 0.185899C7.3271 1.85164 6.86453 3.51797 5.87795 4.82368C5.10404 5.86798 4.15175 6.74781 3.07101 7.41703C2.34583 7.87436 1.59603 8.28607 0.825462 8.65005C0.562667 8.79559 0.286845 8.91285 0.00209942 9.00008Z" fill="#FAFAFA"/>
</svg>
