<svg width="42" height="27" viewBox="0 0 42 27" fill="none" xmlns="http://www.w3.org/2000/svg">
<path d="M28.6608 27.0002C25.6604 27.0002 13.4265 22.0577 13.299 22.0019L0 14.6759L5.64064 0L12.1214 3.45972C12.3614 3.34014 17.372 0.773265 19.8548 0.382651C20.258 0.332047 20.664 0.310726 21.0699 0.318864C24.8203 0.318864 33.4163 1.49071 33.5138 1.49869C33.5869 2.18586 33.4341 2.87876 33.0814 3.45991C32.7287 4.04107 32.1978 4.47471 31.5786 4.68737C30.611 5.00624 25.3679 4.68738 25.1354 4.64752C24.7846 4.97158 24.5178 5.38565 24.3602 5.85031C24.2027 6.31497 24.1597 6.81476 24.2353 7.30209C24.3068 7.78939 24.4957 8.24877 24.7835 8.63566C25.0713 9.02255 25.4483 9.32381 25.878 9.51025C28.5783 10.706 31.8787 12.1808 32.2537 12.4439C32.6287 12.7069 35.1865 12.2605 39.6195 11.3119C39.7457 11.2868 39.8737 11.2734 40.0021 11.272C40.362 11.2809 40.7125 11.396 41.0145 11.6043C41.3165 11.8126 41.5581 12.1061 41.7123 12.4518C41.8925 12.8089 41.9514 13.2212 41.879 13.6191C41.8065 14.0169 41.6073 14.3761 41.3147 14.6361C41.1968 14.7535 41.052 14.836 40.8947 14.8752C41.112 15.0158 41.2938 15.2105 41.4245 15.4424C41.5551 15.6743 41.6308 15.9366 41.6448 16.2065C41.5923 17.0595 40.6772 17.8965 38.937 18.7016C38.6317 19.3938 38.2489 20.0442 37.7968 20.6388C37.4084 21.2106 36.9163 21.6941 36.3495 22.061C35.7828 22.4279 35.1528 22.6707 34.4965 22.7752C34.3539 22.9346 31.0761 26.3784 29.0358 26.9524C28.9132 26.985 28.7872 27.0011 28.6608 27.0002ZM0.0525058 14.66L13.314 21.97C13.4415 22.0179 25.6529 26.9603 28.6608 26.9603C28.7947 26.9633 28.9284 26.9472 29.0583 26.9125C31.1286 26.3385 34.4739 22.7752 34.5114 22.7433C35.1636 22.6381 35.7894 22.3956 36.3522 22.0302C36.9151 21.6647 37.4036 21.1835 37.7893 20.6149C38.2407 20.0226 38.6235 19.3749 38.9295 18.6857C40.6622 17.8885 41.5698 17.0515 41.6223 16.2224C41.6083 15.9525 41.5326 15.6903 41.402 15.4583C41.2713 15.2264 41.0895 15.0317 40.8722 14.8912H40.8272H40.8797C41.0478 14.8577 41.2037 14.7749 41.3297 14.652C41.6138 14.3961 41.8068 14.0445 41.8764 13.6557C41.946 13.2669 41.8881 12.8645 41.7123 12.5156C41.5372 12.1133 41.2405 11.7848 40.8694 11.5826C40.4982 11.3803 40.0741 11.3159 39.6645 11.3995C37.3651 11.9508 35.0352 12.3475 32.6887 12.5873C32.5459 12.6026 32.4018 12.5807 32.2687 12.5236C31.9687 12.3163 29.7634 11.3039 25.9005 9.59795C25.4659 9.40521 25.0848 9.09784 24.7932 8.7049C24.5016 8.31196 24.3091 7.84646 24.234 7.35243C24.159 6.85839 24.2037 6.35215 24.364 5.88162C24.5244 5.41109 24.795 4.99181 25.1504 4.66346C25.2029 4.66346 30.611 5.03015 31.5861 4.70331C32.004 4.58206 32.3862 4.35032 32.697 4.02972C33.0079 3.70911 33.2373 3.31009 33.3638 2.86982C33.4851 2.455 33.5309 2.01941 33.4988 1.58636C33.0938 1.53056 24.7678 0.398586 21.0849 0.398586C20.6788 0.392225 20.2727 0.416196 19.8698 0.470328C17.3345 0.868914 12.1889 3.52351 12.1364 3.54742L5.66315 0.0956567L0.0525058 14.66Z" fill="#EB996E"/>
</svg>
