<svg width="35" height="35" viewBox="0 0 35 35" fill="none" xmlns="http://www.w3.org/2000/svg">
<g clip-path="url(#clip0_481_4717)">
<path d="M16.1666 25.6667H18.6666V18.1667H16.1666V25.6667ZM17.4166 6.91675C10.5104 6.91675 4.91663 12.5105 4.91663 19.4167C4.91663 26.323 10.5104 31.9167 17.4166 31.9167C24.3229 31.9167 29.9166 26.323 29.9166 19.4167C29.9166 12.5105 24.3229 6.91675 17.4166 6.91675ZM17.4166 29.4167C11.9041 29.4167 7.41663 24.9292 7.41663 19.4167C7.41663 13.9042 11.9041 9.41675 17.4166 9.41675C22.9291 9.41675 27.4166 13.9042 27.4166 19.4167C27.4166 24.9292 22.9291 29.4167 17.4166 29.4167ZM16.1666 15.6667H18.6666V13.1667H16.1666V15.6667Z" fill="black"/>
</g>
<defs>
<clipPath id="clip0_481_4717">
<rect width="35" height="35" fill="white"/>
</clipPath>
</defs>
</svg>
