<svg width="5" height="3" viewBox="0 0 5 3" fill="none" xmlns="http://www.w3.org/2000/svg">
<path opacity="0.4" d="M0.383104 2.99926C0.315234 3.00035 0.248368 2.9817 0.189604 2.94529C0.13084 2.90888 0.0823845 2.85609 0.0493959 2.79252C-3.07651e-05 2.69816 -0.0129836 2.5868 0.0133373 2.48233C0.0396583 2.37786 0.10315 2.28862 0.190177 2.23374L3.68378 0.071269C3.72843 0.0391055 3.77879 0.0171619 3.83172 0.00681036C3.88465 -0.00354117 3.939 -0.00207926 3.99138 0.0111076C4.04375 0.0242945 4.09303 0.0489185 4.13612 0.0834446C4.17921 0.117971 4.2152 0.161658 4.24181 0.211765C4.26843 0.261872 4.28511 0.31732 4.29081 0.374651C4.29651 0.431982 4.29112 0.489961 4.27496 0.544955C4.2588 0.599949 4.23222 0.650782 4.19689 0.694267C4.16156 0.737752 4.11824 0.772967 4.06964 0.797691L0.576032 2.95457C0.516868 2.98845 0.450046 3.00393 0.383104 2.99926Z" fill="black"/>
</svg>
