<svg width="110" height="65" viewBox="0 0 110 65" fill="none" xmlns="http://www.w3.org/2000/svg">
<path d="M86.7182 15.7528L99.5679 0.643007L109.69 4.21249L86.7182 15.7528Z" fill="#BA68C8"/>
<path d="M85.3997 13.2867L94.0641 0L87.706 0.749297L85.3997 13.2867Z" fill="#BA68C8"/>
<path d="M88.651 17.1749L106.284 13.688L103.978 19.6411L88.651 17.1749Z" fill="#BA68C8"/>
<path d="M22.9715 49.2412L10.1271 64.351L0 60.7815L22.9715 49.2412Z" fill="#BA68C8"/>
<path d="M24.2955 51.7074L15.6312 65.0001L21.984 64.2508L24.2955 51.7074Z" fill="#BA68C8"/>
<path d="M21.0444 47.8253L3.41135 51.3063L5.71758 45.3592L21.0444 47.8253Z" fill="#BA68C8"/>
<path d="M89.3929 32.5975C89.3448 32.5975 89.3075 32.5444 89.3021 32.4736C89.2756 31.9918 89.0904 31.5375 88.7816 31.1962C88.4729 30.8549 88.0617 30.6503 87.6259 30.621C87.5618 30.621 87.5137 30.5738 87.5137 30.5207C87.5151 30.5059 87.519 30.4916 87.5254 30.4786C87.5318 30.4655 87.5404 30.454 87.5509 30.4447C87.5613 30.4353 87.5733 30.4284 87.5862 30.4242C87.599 30.4201 87.6125 30.4187 87.6259 30.4204C88.0647 30.3925 88.4791 30.1881 88.7908 29.8457C89.1026 29.5033 89.2902 29.0467 89.3182 28.5619C89.3182 28.497 89.3609 28.438 89.4089 28.438C89.457 28.438 89.4943 28.497 89.4997 28.5619C89.5218 29.0467 89.7032 29.506 90.0098 29.8536C90.3165 30.2011 90.7273 30.4132 91.1653 30.4499C91.1919 30.4481 91.2182 30.4574 91.239 30.4759C91.2597 30.4945 91.2734 30.521 91.2774 30.5502C91.2774 30.6033 91.224 30.6446 91.1653 30.6505C90.7288 30.6797 90.3171 30.8841 90.0074 31.2253C89.6977 31.5664 89.5115 32.0208 89.4836 32.5031C89.4783 32.5444 89.4409 32.5975 89.3929 32.5975Z" fill="#BA68C8"/>
<path d="M72.4808 10.4312C72.4539 10.427 72.4293 10.412 72.4117 10.3893C72.394 10.3665 72.3844 10.3374 72.3847 10.3073C72.3582 9.81406 72.1693 9.34854 71.8536 8.99857C71.5379 8.6486 71.1173 8.43838 70.671 8.40756C70.6435 8.41094 70.6159 8.40237 70.594 8.38365C70.572 8.36494 70.5576 8.33755 70.5536 8.30726C70.5536 8.25416 70.607 8.20696 70.671 8.20106C71.1172 8.1729 71.5384 7.96432 71.8545 7.61507C72.1705 7.26581 72.3592 6.80029 72.3847 6.30717C72.3847 6.23637 72.4327 6.17737 72.4808 6.17737C72.5082 6.18177 72.533 6.19777 72.5499 6.22199C72.5668 6.24621 72.5746 6.27675 72.5715 6.30717C72.6006 6.79993 72.7911 7.26409 73.1076 7.61272C73.424 7.96135 73.8446 8.17052 74.2905 8.20106C74.3177 8.20075 74.344 8.21135 74.3646 8.23088C74.3852 8.25041 74.3988 8.27755 74.4026 8.30726C74.4013 8.32201 74.3973 8.33633 74.391 8.34937C74.3846 8.36242 74.3759 8.37394 74.3655 8.38327C74.3551 8.3926 74.3431 8.39955 74.3302 8.40372C74.3173 8.40789 74.3039 8.40919 74.2905 8.40756C73.8441 8.43949 73.4235 8.64989 73.1071 8.99949C72.7908 9.34909 72.6004 9.81398 72.5715 10.3073C72.573 10.3221 72.5718 10.337 72.5681 10.3512C72.5643 10.3655 72.558 10.3787 72.5496 10.3902C72.5411 10.4018 72.5307 10.4113 72.5189 10.4184C72.5071 10.4254 72.4941 10.4298 72.4808 10.4312Z" fill="#BA68C8"/>
<path d="M19.2668 34.3735C19.2187 34.3735 19.176 34.3145 19.1707 34.2437C19.143 33.7383 18.9492 33.2616 18.6258 32.903C18.3023 32.5445 17.8715 32.3289 17.4143 32.2967C17.4002 32.3005 17.3855 32.3006 17.3713 32.2972C17.3571 32.2938 17.3438 32.2868 17.3324 32.2769C17.321 32.2669 17.3117 32.2543 17.3054 32.2398C17.299 32.2254 17.2957 32.2095 17.2957 32.1935C17.2957 32.1774 17.299 32.1616 17.3054 32.1471C17.3117 32.1327 17.321 32.12 17.3324 32.11C17.3438 32.1001 17.3571 32.0932 17.3713 32.0897C17.3855 32.0863 17.4002 32.0865 17.4143 32.0902C17.8715 32.0581 18.3023 31.8424 18.6258 31.4839C18.9492 31.1254 19.143 30.6486 19.1707 30.1432C19.1707 30.0724 19.2187 30.0134 19.2668 30.0134C19.2808 30.0149 19.2945 30.0194 19.3069 30.0268C19.3194 30.0341 19.3304 30.0441 19.3393 30.0562C19.3483 30.0682 19.3549 30.0822 19.359 30.0971C19.363 30.112 19.3643 30.1277 19.3629 30.1432C19.3918 30.6491 19.5867 31.1259 19.9111 31.4844C20.2354 31.8428 20.6668 32.0582 21.1246 32.0902C21.1387 32.0865 21.1534 32.0863 21.1676 32.0897C21.1818 32.0932 21.1951 32.1001 21.2065 32.11C21.2179 32.12 21.2272 32.1327 21.2335 32.1471C21.2399 32.1616 21.2432 32.1774 21.2432 32.1935C21.2432 32.2095 21.2399 32.2254 21.2335 32.2398C21.2272 32.2543 21.2179 32.2669 21.2065 32.2769C21.1951 32.2868 21.1818 32.2938 21.1676 32.2972C21.1534 32.3006 21.1387 32.3005 21.1246 32.2967C20.6668 32.3287 20.2354 32.5441 19.9111 32.9026C19.5867 33.261 19.3918 33.7378 19.3629 34.2437C19.3643 34.2592 19.363 34.2749 19.359 34.2898C19.3549 34.3048 19.3483 34.3187 19.3393 34.3308C19.3304 34.3428 19.3194 34.3528 19.3069 34.3602C19.2945 34.3675 19.2808 34.372 19.2668 34.3735Z" fill="#BA68C8"/>
<path d="M20.6279 42.5624C20.5905 42.5624 20.5638 42.527 20.5638 42.4739C20.5426 42.1265 20.4081 41.7993 20.1853 41.553C19.9624 41.3068 19.6664 41.1581 19.352 41.1347C19.3324 41.1365 19.3128 41.1303 19.297 41.1173C19.2813 41.1042 19.2704 41.0852 19.2666 41.0639C19.2666 41.0226 19.3039 40.9931 19.352 40.9931C19.6664 40.9696 19.9624 40.8209 20.1853 40.5747C20.4081 40.3284 20.5426 40.0012 20.5638 39.6538C20.5638 39.6007 20.5905 39.5594 20.6279 39.5594C20.6472 39.5636 20.6644 39.5756 20.6762 39.593C20.688 39.6105 20.6936 39.6321 20.6919 39.6538C20.7132 40.0012 20.8477 40.3284 21.0705 40.5747C21.2933 40.8209 21.5894 40.9696 21.9038 40.9931C21.9518 40.9931 21.9839 40.9931 21.9839 41.0639C21.9812 41.0847 21.9714 41.1037 21.9565 41.1168C21.9417 41.13 21.9228 41.1364 21.9038 41.1347C21.589 41.1569 21.2923 41.3051 21.0693 41.5517C20.8462 41.7982 20.7121 42.126 20.6919 42.4739C20.6935 42.4949 20.6877 42.5158 20.6758 42.5323C20.6639 42.5487 20.6468 42.5595 20.6279 42.5624Z" fill="#BA68C8"/>
<path d="M67.7615 11.8886C67.7348 11.8886 67.7188 11.8886 67.7134 11.8237C67.7011 11.587 67.6116 11.3633 67.4614 11.194C67.3112 11.0248 67.1105 10.9215 66.8966 10.9033C66.8894 10.9061 66.8816 10.9069 66.8741 10.9057C66.8665 10.9045 66.8592 10.9013 66.853 10.8964C66.8468 10.8915 66.8417 10.885 66.8381 10.8775C66.8346 10.87 66.8328 10.8616 66.8328 10.8531C66.8328 10.8447 66.8346 10.8363 66.8381 10.8288C66.8417 10.8213 66.8468 10.8148 66.853 10.8099C66.8592 10.805 66.8665 10.8018 66.8741 10.8006C66.8816 10.7994 66.8894 10.8002 66.8966 10.803C67.1134 10.789 67.3179 10.6875 67.4714 10.5178C67.6249 10.3482 67.7167 10.1221 67.7294 9.8826C67.7294 9.8472 67.7294 9.82361 67.7775 9.82361C67.7838 9.82434 67.7899 9.82645 67.7955 9.82982C67.8011 9.83319 67.806 9.83776 67.81 9.84324C67.814 9.84873 67.8169 9.85504 67.8187 9.86179C67.8204 9.86855 67.8209 9.87562 67.8202 9.8826C67.8329 10.1221 67.9247 10.3482 68.0782 10.5178C68.2317 10.6875 68.4363 10.789 68.653 10.803C68.66 10.8022 68.6671 10.8029 68.6739 10.8051C68.6806 10.8074 68.6869 10.8111 68.6924 10.816C68.6978 10.821 68.7024 10.827 68.7057 10.8339C68.709 10.8408 68.711 10.8483 68.7117 10.8561C68.7117 10.8561 68.685 10.9033 68.653 10.9033C68.4363 10.9173 68.2317 11.0188 68.0782 11.1885C67.9247 11.3581 67.8329 11.5842 67.8202 11.8237C67.8042 11.8591 67.7828 11.8886 67.7615 11.8886Z" fill="#BA68C8"/>
<path d="M92.4199 35.9486C92.4199 35.9486 92.3825 35.9486 92.3772 35.8896C92.3647 35.6682 92.2799 35.4594 92.1384 35.302C91.997 35.1446 91.8087 35.0494 91.6084 35.0341C91.5764 35.0341 91.5551 35.0341 91.5551 34.9928C91.555 34.9861 91.5563 34.9794 91.5587 34.9733C91.5612 34.9671 91.5648 34.9616 91.5694 34.9572C91.5739 34.9527 91.5793 34.9494 91.5851 34.9474C91.5909 34.9454 91.5971 34.9448 91.6031 34.9456C91.8043 34.9317 91.9939 34.8371 92.1365 34.6796C92.279 34.522 92.3646 34.3124 92.3772 34.0901C92.3772 34.0901 92.3772 34.0311 92.4199 34.0311C92.4321 34.0339 92.4431 34.0413 92.4509 34.0521C92.4587 34.0629 92.4629 34.0763 92.4626 34.0901C92.4752 34.3124 92.5608 34.522 92.7033 34.6796C92.8459 34.8371 93.0355 34.9317 93.2367 34.9456C93.2427 34.9448 93.2489 34.9454 93.2547 34.9474C93.2605 34.9494 93.2659 34.9527 93.2704 34.9572C93.275 34.9616 93.2786 34.9671 93.2811 34.9733C93.2835 34.9794 93.2848 34.9861 93.2847 34.9928C93.2841 34.999 93.2823 35.005 93.2795 35.0105C93.2767 35.016 93.273 35.0207 93.2685 35.0246C93.2641 35.0284 93.2589 35.0312 93.2535 35.0329C93.248 35.0345 93.2423 35.0349 93.2367 35.0341C93.0355 35.048 92.8459 35.1427 92.7033 35.3002C92.5608 35.4577 92.4752 35.6673 92.4626 35.8896C92.4629 35.9034 92.4587 35.9169 92.4509 35.9277C92.4431 35.9384 92.4321 35.9459 92.4199 35.9486Z" fill="#BA68C8"/>
<path d="M14.6275 38.3911C14.6275 38.3911 14.5955 38.3911 14.5901 38.3439C14.58 38.1582 14.5087 37.9831 14.3897 37.8515C14.2707 37.72 14.1122 37.6412 13.9442 37.63C13.9442 37.63 13.9015 37.63 13.9015 37.5887C13.9015 37.5474 13.9015 37.5533 13.9442 37.5474C14.1103 37.5335 14.2662 37.4534 14.383 37.3222C14.4998 37.1909 14.5696 37.0173 14.5795 36.8335C14.5795 36.8335 14.5795 36.7863 14.6168 36.7863C14.6542 36.7863 14.6489 36.7863 14.6542 36.8335C14.6683 37.018 14.7428 37.1904 14.8637 37.3185C14.9845 37.4467 15.1435 37.5218 15.3108 37.5297C15.3108 37.5297 15.3535 37.5297 15.3535 37.571C15.3535 37.6123 15.3535 37.6064 15.3108 37.6123C15.1428 37.6235 14.9843 37.7023 14.8653 37.8338C14.7463 37.9654 14.675 38.1405 14.6649 38.3262C14.6649 38.3262 14.6489 38.3911 14.6275 38.3911Z" fill="#BA68C8"/>
</svg>
