<svg width="9" height="18" viewBox="0 0 9 18" fill="none" xmlns="http://www.w3.org/2000/svg">
<path d="M8.40125 9.83559C8.70009 5.87989 8.81298 0 8.81298 0L8.52078 0.068992C6.74103 0.4063 4.49643 1.47956 2.69676 1.73254C2.17166 1.75057 1.65757 1.91075 1.19592 2.20017C0.817141 2.53252 0.511522 2.96321 0.303842 3.45734C0.0961617 3.95148 -0.00773248 4.49515 0.000572229 5.04429C-0.012006 6.60261 0.182848 8.15392 0.578323 9.64394L1.24241 12.8714C1.33851 13.4297 1.50875 13.9676 1.74711 14.4659C2.45769 15.7615 4.40346 16.6047 5.57225 17.1107C6.43141 17.464 7.30718 17.7609 8.19538 18L8.3614 17.0264C8.19184 14.6327 8.20517 12.2265 8.40125 9.83559Z" fill="#37474F"/>
</svg>
