<svg width="192" height="272" viewBox="0 0 192 272" fill="none" xmlns="http://www.w3.org/2000/svg">
<path d="M26.9472 264.871L111.194 217.537L84.9747 202.801L0.727751 250.136L26.9472 264.871Z" fill="#455A64"/>
<path d="M111.194 217.537V222.818L26.9542 270.131L26.9471 264.871L111.194 217.537Z" fill="#37474F"/>
<path d="M26.9472 264.872L0.727751 250.136V255.396L26.9542 270.132L26.9472 264.872Z" fill="#263238"/>
<path d="M36.3088 254.234L19.4509 244.759V213.198L42.8512 226.345L36.3088 254.234Z" fill="black"/>
<path d="M36.3087 222.673V254.234L92.471 222.673L92.4781 191.119L36.3087 222.673Z" fill="#263238"/>
<path d="M5.24247 223.842L0 220.892V52.5948L5.24247 55.5377V223.842Z" fill="#263238"/>
<path d="M0 52.5947L93.6014 0L98.8509 2.94294L5.24247 55.5377L0 52.5947Z" fill="#455A64"/>
<path d="M14.6041 218.582L9.91976 215.948V58.1711L14.6041 60.7978V218.582Z" fill="black"/>
<path d="M9.91976 58.1712L94.1879 10.8366L98.858 13.4632L14.6041 60.7978L9.91976 58.1712Z" fill="#263238"/>
<path d="M94.1737 10.8365L98.858 13.4632L98.8509 2.94285L89.4894 8.20301L5.24247 55.5376V223.842L14.604 218.582L9.91971 215.948V58.1711L94.1737 10.8365Z" fill="#37474F"/>
<path d="M19.9312 232.004L14.604 229.102V60.7978L19.9312 63.6995V232.004Z" fill="#263238"/>
<path d="M14.604 60.7978L108.205 8.20306L113.54 11.1047L19.9312 63.6995L14.604 60.7978Z" fill="#455A64"/>
<path d="M113.54 11.1048V179.409L19.9312 232.004V63.6996L113.54 11.1048Z" fill="#37474F"/>
<path d="M24.6156 218.85L104.178 174.149V21.6253L24.6156 66.3332V218.85Z" fill="#F5F5F5"/>
<path d="M108.855 176.769L104.178 174.149V21.6252L108.855 18.9917V176.769Z" fill="#263238"/>
<path d="M108.855 176.769L104.178 174.149L24.6156 218.85V224.117L108.855 176.769Z" fill="#455A64"/>
<path d="M29.9005 69.5854L71.8614 46.0144V113.791L29.9005 137.369V69.5854Z" fill="#E0E0E0"/>
<path d="M30.8826 70.1422L72.8435 46.5643V114.348L30.8826 137.919V70.1422Z" fill="#629DFF"/>
<path opacity="0.8" d="M30.8826 70.1422L72.8435 46.5643V114.348L30.8826 137.919V70.1422Z" fill="white"/>
<path d="M63.3356 104.588C69.6745 93.9024 69.674 82.3528 63.3344 78.7907C56.9949 75.2286 46.717 81.003 40.3781 91.6882C34.0391 102.373 34.0397 113.923 40.3792 117.485C46.7188 121.047 56.9967 115.273 63.3356 104.588Z" fill="#FAFAFA"/>
<path d="M52.9759 90.2959L50.7503 91.5474L51.0471 71.5244L52.6792 70.603L52.9759 90.2959Z" fill="#37474F"/>
<path d="M52.4247 70.7474L52.6014 90.5091L52.9758 90.2959L52.6791 70.603L52.4247 70.7474Z" fill="#455A64"/>
<path d="M51.3368 71.3593L51.0471 71.5243L50.7503 91.5473L51.1601 91.3135L51.3368 71.3593Z" fill="#263238"/>
<path d="M47.3872 99.6817C47.2361 101.188 46.8502 102.662 46.2426 104.055C45.2674 106.425 44.9506 109.002 45.3241 111.529C45.8046 113.991 47.8676 116.164 51.8666 113.915C55.8656 111.667 57.9216 107.183 58.402 104.186C58.8825 101.188 58.3455 99.0148 57.4835 97.7427C56.7551 96.8175 56.4165 95.6569 56.5368 94.4972C56.6852 93.0808 57.6319 90.6398 57.7591 88.5082C57.8863 86.3766 57.0526 85.0702 56.7982 85.1871C56.5439 85.304 56.5015 85.7578 56.5015 86.5623C56.4068 87.8097 55.943 89.0038 55.1661 90.0003C54.3889 90.8323 53.8096 90.1722 53.5623 89.684C53.315 89.1958 53.209 89.2027 52.8558 89.4777C52.5025 89.7528 50.6302 91.2724 50.6302 91.2724C50.4747 91.96 49.8177 92.9982 49.1253 92.5444C48.4329 92.0906 48.0443 90.1653 48.2209 88.6251C48.3975 87.0849 48.0867 86.3904 47.4579 87.8206C46.829 89.2508 45.854 92.235 46.2638 94.6279C46.6383 96.615 47.472 98.1346 47.3872 99.6817Z" fill="#455A64"/>
<path d="M50.616 93.4589C50.2839 93.8302 49.2029 93.2801 48.7296 94.1877C48.2562 95.0954 48.4681 95.9892 48.9203 97.3438C49.5167 98.8533 49.6228 100.505 49.2241 102.075C48.7225 103.938 47.5779 106.255 47.7334 107.733C47.8888 109.212 49.323 109.728 51.1388 108.421C52.9546 107.115 53.6682 106.736 54.29 106.709C54.4292 106.699 54.5692 106.715 54.7018 106.758C54.8345 106.8 54.9572 106.868 55.0629 106.957C55.1686 107.046 55.2552 107.154 55.3178 107.275C55.3804 107.397 55.4177 107.529 55.4275 107.665C55.5264 108.284 55.8867 108.105 56.3036 107.218C56.7204 106.331 57.9286 103.092 57.2927 100.527C56.6569 97.9627 55.371 97.8939 55.4134 96.0924C55.4558 94.2909 56.2824 92.2212 56.3884 91.066C56.4944 89.9108 56.1128 89.9796 55.6112 90.8735C55.1095 91.7674 53.6117 93.4451 53.0323 91.3067L50.616 93.4589Z" fill="#FAFAFA"/>
<path d="M53.1737 95.9274L50.5949 97.3714C50.4465 97.4608 50.3264 97.3714 50.3264 97.172V97.1238C50.3275 97.0246 50.3523 96.9269 50.3989 96.8386C50.4455 96.7503 50.5126 96.6737 50.5949 96.615L53.1737 95.1711C53.3221 95.0885 53.4422 95.1711 53.4422 95.3705V95.4255C53.4406 95.5237 53.4155 95.6202 53.3689 95.7073C53.3223 95.7944 53.2554 95.8698 53.1737 95.9274Z" fill="#455A64"/>
<path d="M53.1737 100.28L50.5949 101.724C50.4465 101.806 50.3264 101.724 50.3264 101.525V101.47C50.328 101.371 50.3531 101.275 50.3998 101.188C50.4464 101.101 50.5132 101.025 50.5949 100.968L53.1737 99.5236C53.3221 99.4342 53.4422 99.5236 53.4422 99.723V99.7711C53.4411 99.8704 53.4163 99.9681 53.3697 100.056C53.3231 100.145 53.256 100.221 53.1737 100.28Z" fill="#455A64"/>
<path d="M53.0183 104.942L50.5454 105.066C50.4112 105.066 50.3405 104.894 50.39 104.674C50.4324 104.447 50.5737 104.261 50.7079 104.254L53.1808 104.137C53.315 104.137 53.3857 104.309 53.3362 104.529C53.2938 104.749 53.1737 104.942 53.0183 104.942Z" fill="#455A64"/>
<path d="M50.2416 109.377L53.4917 107.548V106.544L50.2416 108.387V109.377Z" fill="#37474F"/>
<path d="M50.5524 109.198L50.7432 109.095V108.105L50.5524 108.208V109.198Z" fill="#263238"/>
<path d="M51.033 108.93L51.2237 108.827V107.83L51.033 107.94V108.93Z" fill="#263238"/>
<path d="M51.5134 108.662L51.7041 108.552V107.555L51.5134 107.665V108.662Z" fill="#263238"/>
<path d="M51.9937 108.387L52.1845 108.284V107.287L51.9937 107.39V108.387Z" fill="#263238"/>
<path d="M52.4742 108.119L52.665 108.015V107.011L52.4742 107.121V108.119Z" fill="#263238"/>
<path d="M52.9547 107.851L53.1454 107.741V106.737L52.9547 106.847V107.851Z" fill="#263238"/>
<path d="M49.7117 110.333L54.0145 107.898C54.0825 107.846 54.1371 107.779 54.1739 107.703C54.2106 107.626 54.2287 107.543 54.2264 107.458C54.2264 107.28 54.1346 107.19 54.0145 107.252L49.7117 109.672C49.6442 109.728 49.5902 109.798 49.5535 109.876C49.5169 109.955 49.4985 110.04 49.4997 110.126C49.4927 110.312 49.5916 110.401 49.7117 110.333Z" fill="#455A64"/>
<path d="M55.9151 104.137C56.0988 104.24 56.1341 104.612 55.9998 104.962C55.8656 105.313 55.6042 105.519 55.4205 105.416C55.2368 105.313 55.1944 104.949 55.3357 104.591C55.477 104.234 55.7314 104.034 55.9151 104.137Z" fill="#455A64"/>
<path d="M56.1623 101.69C56.346 101.786 56.3813 102.157 56.2471 102.508C56.1129 102.859 55.8444 103.065 55.6607 102.969C55.477 102.872 55.4416 102.494 55.5759 102.143C55.7101 101.793 55.9998 101.586 56.1623 101.69Z" fill="#455A64"/>
<path d="M55.6889 99.6887C55.8726 99.7849 55.9079 100.156 55.7737 100.507C55.6395 100.858 55.378 101.064 55.1943 100.961C55.0106 100.858 54.9683 100.493 55.1096 100.142C55.2509 99.7918 55.5052 99.5924 55.6889 99.6887Z" fill="#455A64"/>
<path d="M50.4182 67.5431L49.6834 67.9557V67.7013L50.4182 67.2887V67.5431Z" fill="#263238"/>
<path d="M49.7682 68.437C49.6834 68.4783 49.6198 68.437 49.6198 68.2926V67.4331C49.6173 67.3747 49.6294 67.3166 49.6553 67.2639C49.6812 67.2111 49.7199 67.1654 49.7682 67.1306C49.8459 67.0824 49.9166 67.1306 49.9166 67.2681V68.1276C49.9164 68.1866 49.9031 68.2448 49.8775 68.2982C49.8518 68.3517 49.8145 68.399 49.7682 68.437Z" fill="#455A64"/>
<path d="M50.4818 65.8036L49.8318 66.168V65.9204L50.4818 65.556V65.8036Z" fill="#263238"/>
<path d="M49.9166 66.6493C49.8318 66.6974 49.7682 66.6493 49.7682 66.5118V65.6454C49.7668 65.5872 49.7795 65.5295 49.8053 65.4769C49.8311 65.4243 49.8692 65.3784 49.9166 65.3429C49.9943 65.2947 50.0649 65.3429 50.0649 65.4804V66.3468C50.0643 66.4046 50.0506 66.4617 50.025 66.5139C49.9994 66.5662 49.9624 66.6124 49.9166 66.6493Z" fill="#455A64"/>
<path d="M50.3334 69.2897L49.5351 69.7367V69.4891L50.3334 69.0422V69.2897Z" fill="#263238"/>
<path d="M49.641 70.2179C49.5562 70.2661 49.4926 70.2179 49.4926 70.0804V69.2209C49.4913 69.1617 49.5039 69.103 49.5297 69.0493C49.5554 68.9957 49.5935 68.9485 49.641 68.9115C49.7187 68.8702 49.7894 68.9115 49.7894 69.049V69.9154C49.7902 69.9735 49.7773 70.0311 49.7515 70.0835C49.7258 70.136 49.688 70.182 49.641 70.2179Z" fill="#455A64"/>
<path d="M53.3079 65.9136L54.0427 65.5011V65.2535L53.3079 65.6661V65.9136Z" fill="#263238"/>
<path d="M53.958 66.0785C54.0049 66.0425 54.0427 65.9965 54.0685 65.9441C54.0942 65.8916 54.1072 65.8341 54.1063 65.7759V64.9095C54.1063 64.7858 54.0427 64.7239 53.958 64.772C53.9122 64.809 53.8752 64.8551 53.8495 64.9074C53.8239 64.9596 53.8103 65.0167 53.8096 65.0746V65.941C53.8096 66.0647 53.8802 66.1266 53.958 66.0785Z" fill="#455A64"/>
<path d="M53.2444 64.2495L53.8944 63.8851V63.6306L53.2444 63.9951V64.2495Z" fill="#263238"/>
<path d="M53.8096 64.4627C53.8571 64.4257 53.8952 64.3785 53.921 64.3248C53.9467 64.2712 53.9594 64.2124 53.958 64.1532V63.2937C53.958 63.17 53.8944 63.1081 53.8096 63.1562C53.7627 63.1921 53.7248 63.2381 53.6991 63.2906C53.6734 63.3431 53.6604 63.4006 53.6613 63.4588V64.3183C53.6613 64.442 53.7319 64.5245 53.8096 64.4627Z" fill="#455A64"/>
<path d="M53.3927 67.5707L54.1911 67.1238V66.8694L53.3927 67.3163V67.5707Z" fill="#263238"/>
<path d="M54.1063 67.6946C54.1545 67.6598 54.1933 67.614 54.2191 67.5613C54.245 67.5086 54.2572 67.4504 54.2546 67.392V66.5325C54.2546 66.4088 54.1911 66.3469 54.1063 66.3882C54.0599 66.4261 54.0226 66.4735 53.997 66.5269C53.9714 66.5804 53.958 66.6386 53.9579 66.6976V67.5571C53.9579 67.6808 54.0285 67.7427 54.1063 67.6946Z" fill="#455A64"/>
<path d="M51.8666 71.0637L51.047 71.5244C51.0294 71.3186 50.9433 71.124 50.8018 70.9701C50.6603 70.8162 50.471 70.7115 50.2627 70.6718C50.1073 70.6718 50.079 70.4586 50.1002 70.3074C50.1568 69.8329 50.3193 68.554 50.3546 67.7357C50.4002 66.9387 50.4002 66.1399 50.3546 65.3429C50.3519 65.1463 50.4006 64.9523 50.4959 64.779C50.7406 64.289 50.9576 63.7863 51.1459 63.2732C51.7041 61.8567 51.6687 61.3135 51.8524 61.2104C52.0361 61.1072 52.1916 61.4785 52.559 61.898C52.731 62.0655 52.935 62.1986 53.1595 62.2899C53.3008 62.338 53.2584 62.6062 53.2372 62.9775C53.2076 63.8539 53.2359 64.7313 53.322 65.6042C53.4209 66.6493 53.647 67.7701 53.6824 67.9489C53.696 68.0524 53.6853 68.1576 53.6511 68.2564C53.6168 68.3553 53.5598 68.4453 53.4845 68.5196C53.0113 69.1456 52.7208 69.8845 52.6438 70.658L51.8666 71.0637Z" fill="#455A64"/>
<path d="M51.0541 71.5244C51.0541 71.5244 51.5063 67.3094 51.8737 67.1031C52.241 66.8968 52.6862 70.603 52.6862 70.603L51.0541 71.5244Z" fill="#F0F0F0"/>
<path d="M51.8666 67.2751C52.0291 67.1857 52.4107 69.4892 52.4884 70.1562C52.4884 70.1562 52.015 67.8733 51.8666 67.9627C51.7183 68.0521 51.5699 68.4509 51.5699 68.4509C51.6285 68.0504 51.7279 67.6565 51.8666 67.2751Z" fill="#FAFAFA"/>
<path d="M50.6797 109.15L50.6161 109.143L51.252 71.5725L51.1319 68.884H51.1954L51.3085 71.5725L50.6797 109.15Z" fill="#E0E0E0"/>
<path d="M51.16 108.875H51.1035L51.485 71.4418L51.2519 66.9586H51.3084L51.5416 71.4418L51.16 108.875Z" fill="#E0E0E0"/>
<path d="M51.6476 108.6H51.584L51.7182 71.3114L51.3296 65.2399L51.3861 65.233L51.7747 71.3045L51.6476 108.6Z" fill="#E0E0E0"/>
<path d="M53.0465 107.782L52.4177 70.7336L52.5308 68.0932L52.5944 68.1001L52.4742 70.7405L53.1031 107.782H53.0465Z" fill="#E0E0E0"/>
<path d="M52.5661 108.057L52.1845 70.8712L52.4177 66.2986L52.4742 66.3055L52.2411 70.8712L52.6226 108.057H52.5661Z" fill="#E0E0E0"/>
<path d="M52.0786 108.325L51.9514 71.0017L52.34 64.6689H52.3966L52.008 71.0017L52.1422 108.325H52.0786Z" fill="#E0E0E0"/>
<path d="M50.8491 65.4529C50.8472 65.3455 50.8711 65.2393 50.919 65.1426C50.9668 65.0458 51.0373 64.9614 51.1247 64.8959C51.2731 64.8065 51.3932 64.8959 51.3932 65.1434C51.397 65.2513 51.3748 65.3586 51.3281 65.4566C51.2815 65.5545 51.2118 65.6404 51.1247 65.7073C50.9763 65.7898 50.8491 65.6729 50.8491 65.4529Z" fill="#263238"/>
<path d="M50.7785 67.1993C50.7747 67.0914 50.7969 66.9841 50.8436 66.8862C50.8902 66.7882 50.9599 66.7023 51.047 66.6355C51.1954 66.553 51.3155 66.6699 51.3155 66.8899C51.3182 66.9966 51.2954 67.1025 51.2488 67.1992C51.2022 67.2959 51.1331 67.3807 51.047 67.4468C50.8986 67.5362 50.7785 67.4193 50.7785 67.1993Z" fill="#263238"/>
<path d="M51.193 68.8775C51.2674 68.6416 51.2219 68.4187 51.0914 68.3796C50.9608 68.3406 50.7946 68.5003 50.7202 68.7362C50.6457 68.9722 50.6912 69.1951 50.8218 69.2341C50.9523 69.2731 51.1185 69.1135 51.193 68.8775Z" fill="#263238"/>
<path d="M52.2199 64.6828C52.2172 64.576 52.24 64.4701 52.2866 64.3734C52.3332 64.2768 52.4023 64.192 52.4884 64.1258C52.6368 64.0433 52.7569 64.1258 52.7569 64.3802C52.7596 64.487 52.7368 64.5929 52.6902 64.6896C52.6436 64.7862 52.5745 64.871 52.4884 64.9372C52.34 65.0197 52.2199 64.9097 52.2199 64.6828Z" fill="#263238"/>
<path d="M52.3259 66.3263C52.3228 66.2178 52.3462 66.1101 52.3941 66.0122C52.442 65.9142 52.5131 65.8286 52.6014 65.7624C52.7498 65.6799 52.8699 65.7624 52.8699 66.0168C52.8738 66.1247 52.8515 66.232 52.8049 66.33C52.7582 66.4279 52.6885 66.5138 52.6014 66.5807C52.4672 66.6632 52.3259 66.5463 52.3259 66.3263Z" fill="#263238"/>
<path d="M52.4672 67.9626C52.4653 67.8552 52.4892 67.749 52.537 67.6522C52.5849 67.5555 52.6553 67.4711 52.7427 67.4056C52.8911 67.3162 53.0112 67.4056 53.0112 67.66C53.014 67.7668 52.9912 67.8727 52.9446 67.9693C52.898 68.066 52.8289 68.1508 52.7427 68.217C52.5873 68.2857 52.4672 68.1757 52.4672 67.9626Z" fill="#263238"/>
<g opacity="0.3">
<path d="M63.249 61.0866C63.2628 61.256 63.2628 61.4261 63.249 61.5954C63.2269 61.7725 63.1891 61.9473 63.1359 62.118C63.0724 62.3102 62.9969 62.4985 62.9099 62.6818C62.8116 62.8942 62.7007 63.1008 62.5778 63.3007L61.7653 64.6759L63.2207 63.8576C63.2363 63.8441 63.2564 63.8366 63.2773 63.8366C63.2981 63.8366 63.3182 63.8441 63.3338 63.8576C63.3681 63.8954 63.3859 63.9448 63.3832 63.9952V64.9234C63.3801 64.988 63.3633 65.0512 63.3338 65.1091C63.3117 65.1653 63.2722 65.2133 63.2207 65.2466L60.1544 66.9656C60.14 66.9787 60.1211 66.9859 60.1014 66.9859C60.0817 66.9859 60.0628 66.9787 60.0484 66.9656C60.0299 66.9479 60.0158 66.9263 60.0072 66.9025C59.9987 66.8786 59.9958 66.8532 59.9989 66.8281V66.0786C59.9893 65.978 59.9893 65.8767 59.9989 65.7761C60.0284 65.6673 60.0736 65.5631 60.1332 65.4666L61.8713 62.6337C61.9817 62.4602 62.0673 62.2728 62.1256 62.0768C62.1578 61.9484 62.1744 61.8169 62.1751 61.6848C62.1751 61.6436 62.1751 61.5886 62.1751 61.5198C62.1689 61.4561 62.1471 61.3948 62.1115 61.341C62.0955 61.3147 62.074 61.292 62.0484 61.2742C62.0229 61.2565 61.9938 61.2441 61.9631 61.2379C61.8703 61.2289 61.7773 61.2534 61.7017 61.3066C61.5991 61.3636 61.5101 61.4409 61.4403 61.5336C61.3765 61.6184 61.3243 61.7108 61.2848 61.8086C61.248 61.8928 61.2196 61.9803 61.2 62.0699C61.2 62.1524 61.2 62.2143 61.1647 62.2487C61.1526 62.326 61.1211 62.3992 61.0729 62.4618C61.031 62.5084 60.9836 62.55 60.9316 62.5856L60.225 62.9844C60.2191 62.9904 60.212 62.9952 60.2041 62.9985C60.1962 63.0018 60.1877 63.0035 60.1791 63.0035C60.1705 63.0035 60.162 63.0018 60.1541 62.9985C60.1463 62.9952 60.1391 62.9904 60.1332 62.9844C60.125 62.9672 60.1207 62.9484 60.1207 62.9294C60.1207 62.9104 60.125 62.8916 60.1332 62.8744C60.1368 62.6081 60.17 62.343 60.2321 62.0836C60.3049 61.7994 60.4067 61.523 60.5359 61.2585C60.6695 60.9883 60.8355 60.7344 61.0305 60.5021C61.2302 60.2716 61.4692 60.0762 61.737 59.9246C61.947 59.7898 62.192 59.7159 62.4435 59.7114C62.6259 59.7066 62.8032 59.7707 62.9381 59.8902C63.0781 60.023 63.1804 60.1888 63.2349 60.3715C63.2777 60.6077 63.2824 60.849 63.249 61.0866Z" fill="#629DFF"/>
<path d="M65.9267 63.7132C65.9106 63.7254 65.8907 63.7321 65.8702 63.7321C65.8497 63.7321 65.8298 63.7254 65.8137 63.7132C65.7793 63.6754 65.7616 63.626 65.7642 63.5757V62.6818L63.9343 63.7132C63.9199 63.7262 63.901 63.7335 63.8813 63.7335C63.8616 63.7335 63.8427 63.7262 63.8283 63.7132C63.8098 63.6955 63.7957 63.6739 63.7871 63.65C63.7786 63.6262 63.7757 63.6007 63.7789 63.5757V62.6474C63.778 62.5064 63.8044 62.3664 63.8566 62.2348L65.5946 57.9717C65.6194 57.9094 65.6502 57.8496 65.6865 57.7929C65.7202 57.754 65.7609 57.7214 65.8066 57.6967L66.6827 57.2016C66.6982 57.188 66.7184 57.1806 66.7392 57.1806C66.7601 57.1806 66.7802 57.188 66.7958 57.2016C66.8301 57.2393 66.8479 57.2887 66.8452 57.3391V60.6809L67.3398 60.3989C67.3559 60.3867 67.3758 60.38 67.3963 60.38C67.4168 60.38 67.4367 60.3867 67.4528 60.3989C67.486 60.4374 67.5035 60.4863 67.5023 60.5365V61.4647C67.4984 61.5314 67.4816 61.5967 67.4528 61.6572C67.4288 61.7105 67.3896 61.7558 67.3398 61.7879L66.8452 62.0698V62.9568C66.8413 63.0235 66.8246 63.0888 66.7958 63.1493C66.7717 63.2026 66.7325 63.2479 66.6827 63.28L65.9267 63.7132ZM65.7995 61.2653V59.6701L64.9446 61.7329L65.7995 61.2653Z" fill="#629DFF"/>
<path d="M59.1582 69.0078L68.2512 63.8989C68.6398 63.6789 68.9578 63.8302 68.9578 64.229C68.9407 64.4572 68.8676 64.6781 68.7447 64.8731C68.6218 65.0681 68.4525 65.2316 68.2512 65.3498L59.1582 70.4587C58.7766 70.6787 58.4516 70.5274 58.4516 70.1286C58.4698 69.9007 58.5434 69.6802 58.6662 69.4854C58.789 69.2905 58.9577 69.1269 59.1582 69.0078Z" fill="#629DFF"/>
</g>
<g opacity="0.3">
<path d="M35.5104 78.6066L44.6034 73.4978C44.992 73.2846 45.31 73.4359 45.31 73.8347C45.2907 74.0623 45.2167 74.2823 45.0939 74.477C44.9712 74.6717 44.8032 74.8356 44.6034 74.9555L35.5104 80.0644C35.1218 80.2775 34.8038 80.1262 34.8038 79.7274C34.8242 79.5001 34.8987 79.2805 35.0213 79.086C35.1439 78.8914 35.3114 78.7273 35.5104 78.6066Z" fill="#629DFF"/>
<path d="M35.5103 81.5566L44.6033 76.4477C44.9919 76.2276 45.3099 76.3789 45.3099 76.7777C45.2928 77.0059 45.2197 77.2268 45.0968 77.4218C44.9738 77.6168 44.8046 77.7803 44.6033 77.8985L35.5103 83.0074C35.1217 83.2274 34.8037 83.0762 34.8037 82.6773C34.8236 82.4499 34.8978 82.2301 35.0205 82.0355C35.1432 81.8409 35.3109 81.6769 35.5103 81.5566Z" fill="#629DFF"/>
<path d="M35.5103 84.5065L44.6033 79.3976C44.9919 79.1776 45.3099 79.3289 45.3099 79.7277C45.2905 79.9553 45.2165 80.1753 45.0938 80.37C44.9711 80.5647 44.8031 80.7286 44.6033 80.8485L35.5103 85.9573C35.1217 86.1705 34.8037 86.0261 34.8037 85.6204C34.8236 85.3938 34.8978 85.175 35.0206 84.9815C35.1433 84.788 35.311 84.6253 35.5103 84.5065Z" fill="#629DFF"/>
</g>
<g opacity="0.3">
<path d="M36.1251 127.605L67.6011 109.906C67.8837 109.741 68.1239 109.858 68.1239 110.161C68.111 110.332 68.057 110.497 67.9662 110.644C67.8753 110.791 67.7503 110.915 67.6011 111.007L36.1251 128.692C35.8354 128.857 35.6023 128.74 35.6023 128.43C35.6189 128.263 35.6746 128.102 35.7652 127.959C35.8559 127.816 35.979 127.695 36.1251 127.605Z" fill="#629DFF"/>
<path d="M36.125 130.534L67.601 112.849C67.8836 112.684 68.1239 112.801 68.1239 113.111C68.1094 113.281 68.0546 113.446 67.964 113.593C67.8733 113.74 67.7491 113.864 67.601 113.956L36.125 131.635C35.8353 131.8 35.6022 131.683 35.6022 131.38C35.6134 131.209 35.6667 131.042 35.7577 130.895C35.8487 130.748 35.9747 130.624 36.125 130.534Z" fill="#629DFF"/>
</g>
<path d="M55.1378 126.491L97.0988 102.913V170.69L55.1449 194.268L55.1378 126.491Z" fill="#E0E0E0"/>
<path d="M56.1269 127.041L98.0808 103.463V171.247L56.1269 194.825V127.041Z" fill="#629DFF"/>
<path opacity="0.7" d="M56.1269 127.041L98.0808 103.463V171.247L56.1269 194.825V127.041Z" fill="white"/>
<path d="M76.2019 153.054C80.0494 146.568 80.0508 139.559 76.2052 137.398C72.3595 135.238 66.1231 138.743 62.2756 145.229C58.4282 151.714 58.4267 158.723 62.2724 160.884C66.118 163.045 72.3545 159.539 76.2019 153.054Z" fill="#FAFAFA"/>
<path d="M92.9374 160.671C96.7848 154.185 96.7863 147.176 92.9407 145.015C89.095 142.855 82.8586 146.36 79.0111 152.846C75.1637 159.331 75.1622 166.34 79.0079 168.501C82.8535 170.662 89.09 167.156 92.9374 160.671Z" fill="#FAFAFA"/>
<path d="M86.9742 115.325C87.1968 115.182 87.4565 115.103 87.7231 115.098C87.82 115.098 87.9158 115.118 88.0045 115.156C88.0932 115.194 88.173 115.249 88.2389 115.318C88.392 115.481 88.4991 115.68 88.5497 115.896C88.6178 116.171 88.6581 116.452 88.6699 116.734C88.6699 116.982 88.6699 117.236 88.6699 117.511C88.6699 117.786 88.6699 118.041 88.6699 118.281C88.6542 118.607 88.6141 118.931 88.5497 119.251C88.4826 119.571 88.3783 119.882 88.2389 120.179C88.1026 120.468 87.9293 120.738 87.7231 120.984C87.5119 121.229 87.2585 121.436 86.9742 121.596C86.7495 121.74 86.4872 121.819 86.2182 121.823C86.116 121.825 86.0145 121.806 85.9206 121.767C85.8267 121.728 85.7426 121.67 85.6742 121.596C85.521 121.433 85.4139 121.234 85.3633 121.018C85.2951 120.745 85.2549 120.467 85.2432 120.186C85.2432 119.952 85.2432 119.698 85.2432 119.423C85.2432 119.148 85.2432 118.887 85.2432 118.632C85.2595 118.307 85.2997 117.983 85.3633 117.663C85.4325 117.359 85.5368 117.064 85.6742 116.783C85.8087 116.491 85.9821 116.218 86.1899 115.971C86.4086 115.711 86.6744 115.492 86.9742 115.325ZM87.5959 118.845C87.5959 118.346 87.5959 117.857 87.5959 117.381C87.5959 117.243 87.5959 117.113 87.5465 117.003C87.5301 116.91 87.4966 116.822 87.4475 116.741C87.4267 116.712 87.3994 116.687 87.3676 116.67C87.3359 116.652 87.3004 116.641 87.2639 116.638C87.1602 116.631 87.0574 116.66 86.9742 116.721C86.859 116.78 86.7579 116.862 86.6774 116.961C86.6013 117.058 86.5394 117.164 86.4937 117.278C86.4462 117.4 86.4107 117.527 86.3878 117.656C86.3767 117.798 86.3767 117.94 86.3878 118.082C86.3878 118.57 86.3878 119.058 86.3878 119.54C86.3759 119.666 86.3759 119.792 86.3878 119.918C86.4018 120.012 86.4381 120.101 86.4937 120.179C86.5149 120.209 86.5421 120.234 86.5737 120.253C86.6053 120.272 86.6407 120.284 86.6774 120.289C86.7834 120.289 86.8868 120.258 86.9742 120.2C87.0859 120.139 87.1844 120.057 87.2639 119.959C87.34 119.863 87.4018 119.756 87.4475 119.643C87.4977 119.521 87.5333 119.394 87.5535 119.265C87.5753 119.126 87.5895 118.986 87.5959 118.845Z" fill="white"/>
<path d="M92.4922 114.273C92.4907 114.443 92.4789 114.613 92.4569 114.782C92.4288 114.958 92.3887 115.133 92.3367 115.304C92.2758 115.496 92.2026 115.685 92.1177 115.868C92.0154 116.08 91.9022 116.286 91.7786 116.487L90.9661 117.862L92.4286 117.044C92.443 117.031 92.4619 117.023 92.4816 117.023C92.5012 117.023 92.5202 117.031 92.5346 117.044C92.5531 117.061 92.5672 117.083 92.5757 117.107C92.5843 117.131 92.5871 117.156 92.584 117.181V118.103C92.5854 118.17 92.5684 118.236 92.5346 118.295C92.5169 118.35 92.4792 118.396 92.4286 118.426L89.3552 120.152C89.3408 120.165 89.3218 120.172 89.3022 120.172C89.2825 120.172 89.2636 120.165 89.2492 120.152C89.2307 120.134 89.2166 120.112 89.208 120.089C89.1995 120.065 89.1966 120.039 89.1997 120.014V119.265C89.2008 119.163 89.2151 119.061 89.2421 118.962C89.2659 118.853 89.3089 118.748 89.3693 118.653L91.1074 115.82C91.2178 115.646 91.3034 115.459 91.3617 115.263C91.3959 115.135 91.4149 115.003 91.4182 114.871C91.4182 114.83 91.4182 114.775 91.4182 114.706C91.4065 114.642 91.3826 114.582 91.3476 114.527C91.3316 114.501 91.3101 114.478 91.2846 114.46C91.259 114.443 91.23 114.43 91.1992 114.424C91.1064 114.416 91.0136 114.44 90.9378 114.493C90.835 114.549 90.7459 114.627 90.6764 114.72C90.6153 114.806 90.5633 114.898 90.5209 114.995C90.4873 115.08 90.459 115.167 90.4362 115.256C90.4362 115.339 90.4362 115.4 90.4008 115.435C90.3887 115.512 90.3572 115.585 90.309 115.648C90.2706 115.698 90.2226 115.74 90.1677 115.772L89.4612 116.171C89.4552 116.177 89.4481 116.181 89.4402 116.185C89.4323 116.188 89.4238 116.19 89.4152 116.19C89.4066 116.19 89.3981 116.188 89.3903 116.185C89.3824 116.181 89.3752 116.177 89.3693 116.171C89.3558 116.135 89.3558 116.096 89.3693 116.06C89.372 115.794 89.4076 115.528 89.4753 115.27C89.5424 114.985 89.6419 114.708 89.772 114.445C89.9082 114.174 90.0765 113.92 90.2737 113.688C90.4718 113.454 90.711 113.256 90.9802 113.104C91.1916 112.973 91.4362 112.901 91.6867 112.898C91.8667 112.895 92.0411 112.958 92.1742 113.076C92.3191 113.205 92.4222 113.373 92.471 113.558C92.5168 113.793 92.524 114.035 92.4922 114.273Z" fill="white"/>
<path d="M84.4024 124.442L93.4955 119.333C93.8841 119.12 94.202 119.271 94.202 119.67C94.1827 119.898 94.1087 120.118 93.9859 120.313C93.8632 120.507 93.6952 120.671 93.4955 120.791L84.4024 125.9C84.0138 126.113 83.6959 125.969 83.6959 125.563C83.7152 125.335 83.7892 125.115 83.9119 124.921C84.0346 124.726 84.2026 124.562 84.4024 124.442Z" fill="white"/>
<path d="M60.783 130.314L69.876 125.206C70.2576 124.992 70.5826 125.137 70.5826 125.542C70.5622 125.77 70.4877 125.989 70.3651 126.184C70.2425 126.378 70.075 126.543 69.876 126.663L60.783 131.772C60.3944 131.985 60.0764 131.834 60.0764 131.435C60.0958 131.208 60.1698 130.988 60.2925 130.793C60.4152 130.598 60.5832 130.434 60.783 130.314Z" fill="white"/>
<path d="M60.783 133.285L69.876 128.176C70.2576 127.956 70.5826 128.107 70.5826 128.506C70.5638 128.734 70.49 128.954 70.3673 129.149C70.2445 129.343 70.0762 129.507 69.876 129.627L60.783 134.736C60.3944 134.956 60.0764 134.804 60.0764 134.406C60.0935 134.177 60.1666 133.956 60.2895 133.761C60.4125 133.566 60.5817 133.403 60.783 133.285Z" fill="white"/>
<path d="M60.783 136.207L69.876 131.098C70.2576 130.885 70.5826 131.037 70.5826 131.435C70.5622 131.663 70.4877 131.882 70.3651 132.077C70.2425 132.271 70.075 132.435 69.876 132.556L60.783 137.665C60.3944 137.878 60.0764 137.727 60.0764 137.328C60.0958 137.1 60.1698 136.88 60.2925 136.686C60.4152 136.491 60.5832 136.327 60.783 136.207Z" fill="white"/>
<path d="M61.3695 184.504L92.8384 166.826C93.1281 166.661 93.3613 166.778 93.3613 167.08C93.3489 167.253 93.2951 167.419 93.2043 167.567C93.1135 167.716 92.9881 167.841 92.8384 167.933L61.3695 185.611C61.0798 185.776 60.8466 185.659 60.8466 185.357C60.859 185.185 60.9128 185.018 61.0036 184.87C61.0944 184.722 61.2197 184.597 61.3695 184.504Z" fill="white"/>
<path d="M61.3695 187.447L92.8384 169.762C93.1281 169.604 93.3613 169.714 93.3613 170.023C93.3478 170.194 93.2935 170.36 93.2028 170.506C93.112 170.653 92.9872 170.777 92.8384 170.869L61.3695 188.547C61.0798 188.712 60.8466 188.595 60.8466 188.293C60.859 188.122 60.9128 187.956 61.0037 187.809C61.0945 187.662 61.2199 187.538 61.3695 187.447Z" fill="white"/>
<path d="M68.5407 158.726C67.4116 158.757 66.3126 158.369 65.4673 157.64C63.4254 155.866 63.1216 152.318 63.1216 150.365C63.121 150.315 63.1385 150.266 63.171 150.227L63.9482 149.333L63.814 147.669C63.8081 147.621 63.8206 147.572 63.8493 147.532C65.1913 145.47 66.9957 143.73 69.1271 142.444C71.0701 141.357 72.8788 141.068 74.5109 141.598C74.558 141.613 74.5987 141.643 74.6268 141.682C74.6549 141.722 74.6688 141.77 74.6663 141.818L74.5321 143.509H75.1397C75.1972 143.511 75.2519 143.534 75.2926 143.574C75.3333 143.613 75.3569 143.667 75.3587 143.723C75.3587 146.377 74.7794 153.15 69.3956 158.609C69.3587 158.643 69.3117 158.665 69.2613 158.671C69.0224 158.703 68.7818 158.721 68.5407 158.726ZM63.5596 150.475C63.5596 152.366 63.8705 155.708 65.764 157.351C66.2236 157.734 66.7622 158.017 67.3435 158.181C67.9248 158.344 68.5354 158.385 69.1342 158.3C74.2141 153.095 74.8853 146.7 74.9136 143.977H74.2919C74.2328 143.975 74.177 143.95 74.1364 143.908C74.1162 143.887 74.1007 143.862 74.0909 143.835C74.0812 143.808 74.0774 143.779 74.0799 143.75L74.2141 142.004C72.7445 141.584 71.1054 141.873 69.3461 142.863C67.2933 144.101 65.5544 145.775 64.2591 147.759L64.3933 149.437C64.3962 149.464 64.3933 149.491 64.3848 149.517C64.3762 149.543 64.3623 149.567 64.3439 149.588L63.5596 150.475Z" fill="#455A64"/>
<path d="M73.6631 142.712L73.55 144.087L64.8809 148.962L64.7749 147.669C65.9378 146.005 67.45 144.599 69.2119 143.544C70.5296 142.717 72.1246 142.419 73.6631 142.712Z" fill="#455A64"/>
<path d="M70.0456 150.805V156.34C69.7347 156.732 69.4027 157.11 69.0423 157.482C68.7111 157.513 68.3774 157.513 68.0461 157.482V151.981L70.0456 150.805Z" fill="#455A64"/>
<path d="M72.8223 149.244V151.568C72.3074 152.877 71.6414 154.125 70.837 155.288V150.351L72.8223 149.244Z" fill="#455A64"/>
<path d="M67.3043 152.366V157.303C66.4837 157.04 65.7789 156.514 65.3048 155.811V153.494L67.3043 152.366Z" fill="#455A64"/>
<path d="M74.4049 144.809C74.3716 145.731 74.2795 146.649 74.1294 147.56L64.358 153.061C64.1924 152.258 64.0955 151.444 64.0684 150.626L74.4049 144.809Z" fill="#455A64"/>
<path d="M69.2402 139.432L69.4663 139.9L69.975 139.714L69.6076 140.381L69.6924 140.993L69.2402 140.938L68.781 141.502L68.8728 140.8L68.5054 140.539L69.0141 140.161L69.2402 139.432Z" fill="#455A64"/>
<path d="M71.282 139.074L71.5081 139.542L72.0168 139.356L71.6494 140.023L71.7342 140.635L71.282 140.58L70.8298 141.144L70.9146 140.436L70.5472 140.182L71.0559 139.796L71.282 139.074Z" fill="#455A64"/>
<path d="M67.1983 141.371L66.9722 142.093L66.4635 142.478L66.8309 142.733L66.7391 143.441L67.1983 142.87L67.6505 142.925L67.5657 142.32L67.9331 141.646L67.4244 141.839L67.1983 141.371Z" fill="#455A64"/>
<path d="M87.3345 152.62C88.5568 152.62 89.4117 153.721 89.4117 155.55C89.4117 158.018 87.8715 160.878 85.9709 161.944C85.5614 162.195 85.0908 162.335 84.6073 162.35C83.385 162.35 82.5372 161.25 82.5372 159.414C82.5372 156.952 84.0703 154.092 85.9709 153.026C86.3809 152.776 86.8512 152.636 87.3345 152.62ZM87.3345 152.345C86.8021 152.362 86.2835 152.514 85.8296 152.785C83.8584 153.892 82.2546 156.87 82.2546 159.414C82.2546 161.367 83.1731 162.625 84.6073 162.625C85.1399 162.609 85.6588 162.457 86.1122 162.185C88.0905 161.078 89.6943 158.101 89.6943 155.55C89.6943 153.604 88.7688 152.345 87.3345 152.345Z" fill="#455A64"/>
<path d="M85.9709 157.53C85.959 157.528 85.9482 157.522 85.9404 157.513C85.9326 157.505 85.9284 157.493 85.9285 157.482V153.624C85.9284 153.612 85.9326 153.601 85.9404 153.592C85.9482 153.583 85.959 153.578 85.9709 153.576C85.984 153.576 85.9966 153.581 86.0058 153.59C86.0151 153.599 86.0203 153.611 86.0203 153.624V157.482C86.0203 157.494 86.0151 157.507 86.0058 157.516C85.9966 157.525 85.984 157.53 85.9709 157.53Z" fill="#455A64"/>
<path d="M83.1448 157.922C83.134 157.921 83.1237 157.918 83.1149 157.911C83.1061 157.905 83.0994 157.897 83.0953 157.887C83.0952 157.876 83.0994 157.864 83.1072 157.855C83.115 157.847 83.1259 157.841 83.1377 157.839L85.9639 157.44C85.97 157.439 85.9763 157.44 85.9822 157.441C85.9882 157.443 85.9938 157.446 85.9985 157.45C86.0032 157.454 86.007 157.459 86.0096 157.464C86.0121 157.47 86.0134 157.476 86.0133 157.482C86.0133 157.482 86.0133 157.523 86.0133 157.53L83.1872 157.922H83.1448Z" fill="#455A64"/>
<path d="M84.2611 161.635C84.2536 161.626 84.2495 161.615 84.2495 161.604C84.2495 161.593 84.2536 161.582 84.2611 161.573L86.0062 157.447C86.0151 157.44 86.0264 157.436 86.038 157.436C86.0496 157.436 86.0609 157.44 86.0698 157.447C86.0767 157.455 86.0806 157.465 86.0806 157.475C86.0806 157.485 86.0767 157.495 86.0698 157.502L84.3176 161.628C84.3149 161.633 84.3111 161.637 84.3065 161.64C84.3019 161.643 84.2966 161.645 84.2911 161.645C84.2856 161.646 84.28 161.645 84.2748 161.644C84.2696 161.642 84.2649 161.639 84.2611 161.635Z" fill="#455A64"/>
<path d="M87.7231 159.668H87.6878L85.9355 157.523C85.9355 157.523 85.9355 157.482 85.9355 157.461C85.9445 157.454 85.9557 157.45 85.9673 157.45C85.979 157.45 85.9902 157.454 85.9991 157.461L87.7513 159.606C87.7588 159.615 87.7629 159.626 87.7629 159.637C87.7629 159.649 87.7588 159.66 87.7513 159.668H87.7231Z" fill="#455A64"/>
<path d="M85.9708 157.53C85.9663 157.526 85.9627 157.521 85.9602 157.516C85.9578 157.51 85.9565 157.505 85.9565 157.499C85.9565 157.493 85.9578 157.487 85.9602 157.482C85.9627 157.476 85.9663 157.472 85.9708 157.468L88.797 154.683C88.8059 154.676 88.8171 154.672 88.8288 154.672C88.8404 154.672 88.8516 154.676 88.8605 154.683C88.8651 154.687 88.8687 154.692 88.8711 154.697C88.8736 154.702 88.8749 154.708 88.8749 154.714C88.8749 154.72 88.8736 154.726 88.8711 154.731C88.8687 154.736 88.8651 154.741 88.8605 154.745L86.0344 157.53H85.9708Z" fill="#455A64"/>
<path d="M84.7273 161.944C84.4403 161.947 84.1576 161.876 83.9078 161.738C83.2012 161.339 82.8056 160.431 82.8056 159.242C82.8056 156.993 84.2186 154.367 85.9496 153.39C86.2555 153.181 86.614 153.055 86.9871 153.027C87.3602 153 87.734 153.07 88.0692 153.232C88.7758 153.624 89.1714 154.539 89.1714 155.728C89.1714 157.977 87.7584 160.603 86.0203 161.573C85.6318 161.808 85.1849 161.936 84.7273 161.944ZM87.2143 153.108C86.7821 153.124 86.3612 153.247 85.992 153.466C84.2822 154.429 82.8903 157.021 82.8903 159.242C82.8903 160.397 83.2789 161.305 83.9501 161.662C84.2677 161.813 84.6213 161.877 84.9733 161.848C85.3253 161.819 85.6627 161.698 85.9496 161.497C87.6594 160.541 89.0513 157.949 89.0513 155.728C89.0513 154.566 88.6627 153.665 87.9915 153.308C87.7552 153.176 87.487 153.107 87.2143 153.108Z" fill="#455A64"/>
<path d="M87.0025 153.081C86.6114 153.418 86.2649 153.802 85.971 154.222C85.6324 154.14 85.278 154.14 84.9394 154.222L85.0313 153.714C85.3132 153.446 85.629 153.215 85.971 153.026C86.2647 152.856 86.5843 152.733 86.9177 152.661L87.0025 153.081Z" fill="#455A64"/>
<path d="M85.9709 154.03C85.7065 153.988 85.4369 153.988 85.1725 154.03L85.222 153.7L85.2856 153.885C85.5246 153.848 85.7693 153.899 85.9709 154.03Z" fill="#FAFAFA"/>
<path d="M83.491 156.423C83.4509 156.883 83.4819 157.347 83.5828 157.798C83.3014 158.278 83.0649 158.782 82.8763 159.304L82.5584 159.235C82.57 158.793 82.6244 158.354 82.7209 157.922C82.8243 157.453 82.966 156.993 83.1448 156.547L83.491 156.423Z" fill="#455A64"/>
<path d="M83.4415 157.839C83.2189 158.218 83.0184 158.608 82.841 159.008H82.6361L82.8127 158.905C82.9712 158.523 83.1828 158.165 83.4415 157.839Z" fill="#FAFAFA"/>
<path d="M83.4062 161.236C83.7864 161.225 84.1588 161.129 84.4942 160.954C84.619 161.295 84.8165 161.607 85.0736 161.869L84.791 162.336C84.5057 162.366 84.2174 162.328 83.9502 162.226C83.6773 162.129 83.4343 161.965 83.2437 161.752L83.4062 161.236Z" fill="#455A64"/>
<path d="M84.4095 161.16C84.5152 161.43 84.6578 161.684 84.8334 161.917L84.6568 162.226L84.7062 161.972C84.5353 161.732 84.4329 161.452 84.4095 161.16Z" fill="#FAFAFA"/>
<path d="M86.8683 160.858C87.1168 160.356 87.3109 159.831 87.4476 159.29C87.8524 159.025 88.2184 158.708 88.5357 158.348L88.677 158.712C88.4782 159.146 88.2419 159.562 87.9704 159.957C87.7259 160.335 87.4443 160.69 87.1297 161.016L86.8683 160.858Z" fill="#455A64"/>
<path d="M87.5394 159.414C87.8449 159.207 88.1331 158.977 88.4014 158.726L88.5003 158.953L88.3519 158.898C88.1197 159.122 87.8433 159.297 87.5394 159.414Z" fill="#FAFAFA"/>
<path d="M89.0938 155.825C88.9293 155.535 88.6844 155.297 88.3873 155.137C88.4735 154.644 88.5043 154.144 88.4791 153.645L88.8465 153.397C89.0379 153.664 89.179 153.962 89.2634 154.277C89.3663 154.643 89.4209 155.019 89.4259 155.398L89.0938 155.825Z" fill="#455A64"/>
<path d="M88.5004 154.992C88.5602 154.598 88.5956 154.201 88.6063 153.803L88.8395 153.631L88.6982 153.851C88.6892 154.239 88.6226 154.623 88.5004 154.992Z" fill="#FAFAFA"/>
<path d="M85.9709 155.783C85.4939 156.368 85.0774 156.996 84.7274 157.66C84.7612 158.233 84.9227 158.791 85.2008 159.297C85.7657 159.105 86.2883 158.811 86.741 158.431C86.9801 157.725 87.1412 156.997 87.2215 156.258C86.8633 155.98 86.4274 155.815 85.9709 155.783Z" fill="#455A64"/>
<path d="M85.9709 156.044C85.5751 156.538 85.2296 157.067 84.9394 157.626C84.9943 158.099 85.1179 158.562 85.3068 159.001C85.2052 158.531 85.1625 158.051 85.1796 157.571C85.3976 157.041 85.6623 156.53 85.9709 156.044Z" fill="#FAFAFA"/>
<path d="M84.0632 163.931C83.658 163.933 83.2557 163.863 82.8762 163.725C82.4097 163.537 81.9884 163.257 81.6393 162.901C81.2902 162.546 81.0209 162.124 80.8485 161.662C80.2691 160.287 80.686 158.286 80.9898 156.849C81.1151 156.338 81.1978 155.819 81.2371 155.295C81.2655 155.041 81.2324 154.785 81.1404 154.546C81.0483 154.307 80.9 154.093 80.7072 153.92C80.6633 153.89 80.6307 153.847 80.6141 153.797C80.5975 153.748 80.598 153.694 80.6153 153.645L81.6116 150.894C81.6307 150.842 81.6683 150.798 81.7175 150.771L89.984 146.129C90.0376 146.098 90.1015 146.089 90.1622 146.103C90.2229 146.117 90.2755 146.154 90.309 146.205L91.3122 147.814C91.3333 147.851 91.3443 147.892 91.3443 147.934C91.3443 147.976 91.3333 148.018 91.3122 148.055C90.9498 148.732 90.7425 149.478 90.7046 150.241C90.7394 150.666 90.8224 151.086 90.9519 151.493C91.4588 153.003 91.5128 154.622 91.1074 156.161C90.2383 159.173 88.2812 162.027 86.1051 163.429C85.4734 163.748 84.7745 163.92 84.0632 163.931ZM81.1241 153.617C81.333 153.84 81.4938 154.102 81.597 154.387C81.7001 154.671 81.7435 154.973 81.7246 155.274C81.6857 155.831 81.5982 156.383 81.4632 156.925C81.1735 158.3 80.7567 160.26 81.3007 161.497C81.4482 161.898 81.6804 162.264 81.9822 162.572C82.284 162.88 82.6487 163.123 83.0529 163.285C83.5174 163.433 84.0084 163.486 84.4948 163.439C84.9813 163.393 85.4526 163.249 85.879 163.017C87.9562 161.642 89.8356 158.891 90.6693 156.017C91.0538 154.562 90.9998 153.029 90.5139 151.603C90.3697 151.156 90.282 150.694 90.2524 150.227C90.2817 149.429 90.4865 148.646 90.853 147.931L90.0476 146.638L82.0637 151.121L81.1241 153.617Z" fill="#455A64"/>
<path d="M90.3373 148.281C90.1235 148.789 89.974 149.32 89.8921 149.863L82.0567 154.264C81.9954 153.874 81.8405 153.504 81.6045 153.184L82.198 151.575L89.7508 147.333L90.3373 148.281Z" fill="#455A64"/>
<path d="M85.9709 164.11L86.296 164.777L87.0025 164.509L86.4867 165.451L86.6139 166.304L85.9709 166.228L85.3351 167.019L85.4552 166.029L84.9394 165.671L85.653 165.135L85.9709 164.11Z" fill="#455A64"/>
<path d="M88.6769 161.91L88.9242 162.418L89.4682 162.212L89.0725 162.934L89.1714 163.594L88.6769 163.532L88.1894 164.144L88.2812 163.381L87.8856 163.106L88.4367 162.694L88.6769 161.91Z" fill="#455A64"/>
<path d="M90.5068 159.503L90.7047 159.916L91.1498 159.751L90.8248 160.335L90.9025 160.865L90.5068 160.817L90.1112 161.305L90.1889 160.693L89.8709 160.466L90.309 160.136L90.5068 159.503Z" fill="#455A64"/>
<path d="M83.2648 164.949L83.0246 165.733L82.4735 166.146L82.8692 166.421L82.7773 167.184L83.2648 166.572L83.7594 166.634L83.6675 165.98L84.0632 165.252L83.5121 165.458L83.2648 164.949Z" fill="#455A64"/>
<path d="M81.442 164.598L81.2441 165.231L80.799 165.561L81.117 165.788L81.0463 166.4L81.442 165.912L81.8306 165.96L81.7599 165.43L82.0779 164.846L81.6327 165.011L81.442 164.598Z" fill="#455A64"/>
<path d="M78.7431 48.4073L97.0917 38.0864V94.0641L78.7431 104.385V48.4073Z" fill="#E0E0E0"/>
<path d="M79.7253 48.9435L98.081 38.6295V94.621L79.7253 104.935V48.9435Z" fill="#629DFF"/>
<path opacity="0.85" d="M79.7253 48.9435L98.081 38.6295V94.621L79.7253 104.935V48.9435Z" fill="white"/>
<g opacity="0.3">
<path d="M82.9893 69.1453C83.0926 67.2559 83.6525 65.4168 84.6236 63.7775C85.5947 62.1383 86.9495 60.7452 88.578 59.7114C91.6726 57.9787 94.1737 59.3814 94.1737 62.8538C94.0697 64.7429 93.5086 66.5815 92.5362 68.2197C91.5638 69.8578 90.2076 71.2493 88.578 72.2808C85.4904 74.0204 82.9893 72.6177 82.9893 69.1453Z" fill="#629DFF"/>
<path d="M86.953 75.5263C87.1756 75.3833 87.4353 75.3047 87.7019 75.2993C87.7988 75.2996 87.8946 75.3193 87.9833 75.3572C88.072 75.395 88.1518 75.4502 88.2177 75.5194C88.3708 75.6825 88.4779 75.8815 88.5285 76.097C88.5966 76.3721 88.6369 76.6531 88.6487 76.9358C88.6487 77.1765 88.6487 77.4378 88.6487 77.7128C88.6487 77.9879 88.6487 78.2423 88.6487 78.4829C88.633 78.8085 88.5929 79.1326 88.5285 79.4525C88.4614 79.7723 88.3571 80.0838 88.2177 80.3807C88.0814 80.669 87.9081 80.9393 87.7019 81.1852C87.4907 81.43 87.2373 81.6371 86.953 81.7972C86.7314 81.9422 86.4711 82.0211 86.2041 82.0241C86.106 82.0247 86.0089 82.0055 85.9188 81.9676C85.8288 81.9297 85.7479 81.874 85.6812 81.8041C85.5281 81.6409 85.421 81.4419 85.3704 81.2265C85.3018 80.9514 85.2615 80.6704 85.2502 80.3876C85.2502 80.1538 85.2502 79.9063 85.2502 79.6312C85.2502 79.3562 85.2502 79.0949 85.2502 78.8405C85.2666 78.515 85.3068 78.191 85.3704 77.871C85.4364 77.553 85.5407 77.2438 85.6812 76.9496C85.8157 76.6567 85.9917 76.3836 86.2041 76.1382C86.4153 75.8934 86.6687 75.6863 86.953 75.5263ZM87.5747 79.0468C87.5747 78.5425 87.5747 78.0543 87.5747 77.5822C87.5747 77.4447 87.5747 77.314 87.5253 77.204C87.5122 77.1109 87.4784 77.0218 87.4264 76.9427C87.4059 76.913 87.3787 76.8882 87.3468 76.8703C87.315 76.8525 87.2793 76.8419 87.2427 76.8396C87.139 76.8322 87.0362 76.8615 86.953 76.9221C86.8386 76.9795 86.7395 77.0619 86.6633 77.1627C86.5849 77.259 86.5207 77.3655 86.4725 77.479C86.428 77.6025 86.3926 77.7289 86.3666 77.8572C86.3555 77.9991 86.3555 78.1416 86.3666 78.2835C86.3666 78.7717 86.3666 79.2599 86.3666 79.7413C86.3547 79.8671 86.3547 79.9936 86.3666 80.1194C86.3806 80.2133 86.4169 80.3028 86.4725 80.3807C86.5191 80.44 86.5875 80.4794 86.6633 80.4907C86.7669 80.4899 86.8678 80.4588 86.953 80.4014C87.0647 80.3403 87.1632 80.2585 87.2427 80.1607C87.3214 80.0658 87.3834 79.959 87.4264 79.8444C87.4765 79.7227 87.5121 79.5958 87.5323 79.4662C87.5534 79.3341 87.5676 79.201 87.5747 79.0674V79.0468Z" fill="#629DFF"/>
<path d="M91.2699 79.3012C91.2548 79.3129 91.2361 79.3193 91.2169 79.3193C91.1976 79.3193 91.1789 79.3129 91.1639 79.3012C91.1454 79.2835 91.1313 79.2619 91.1227 79.238C91.1141 79.2142 91.1113 79.1888 91.1144 79.1637V78.2767L89.2845 79.3012C89.2701 79.3143 89.2512 79.3215 89.2315 79.3215C89.2119 79.3215 89.1929 79.3143 89.1785 79.3012C89.16 79.2835 89.1459 79.2619 89.1374 79.238C89.1288 79.2142 89.1259 79.1888 89.1291 79.1637V78.2354C89.1289 78.0944 89.1552 77.9546 89.2068 77.8229L90.9449 73.5666C90.9684 73.5016 90.9992 73.4394 91.0367 73.3809C91.0704 73.342 91.1111 73.3094 91.1568 73.2847L92.0329 72.7759C92.0402 72.7684 92.0489 72.7624 92.0587 72.7583C92.0684 72.7542 92.0789 72.7521 92.0894 72.7521C92.1 72.7521 92.1105 72.7542 92.1202 72.7583C92.1299 72.7624 92.1387 72.7684 92.146 72.7759C92.1778 72.8147 92.193 72.8639 92.1884 72.9134V76.2551L92.69 75.9732C92.7061 75.9609 92.726 75.9543 92.7465 75.9543C92.767 75.9543 92.7869 75.9609 92.803 75.9732C92.8347 76.0147 92.8498 76.0661 92.8454 76.1176V77.039C92.8443 77.1052 92.8299 77.1706 92.803 77.2315C92.7768 77.2833 92.738 77.3281 92.69 77.3622L92.1884 77.6441V78.5311C92.1872 78.5973 92.1728 78.6627 92.146 78.7236C92.1197 78.7754 92.0809 78.8202 92.0329 78.8543L91.2699 79.3012ZM91.1427 76.8602V75.2581L90.2948 77.3209L91.1427 76.8602Z" fill="#629DFF"/>
<path d="M84.3812 84.6645L93.446 79.5556C93.8346 79.3424 94.1526 79.4937 94.1526 79.8925C94.1332 80.1202 94.0592 80.3402 93.9365 80.5349C93.8138 80.7295 93.6458 80.8934 93.446 81.0133L84.353 86.1222C83.9714 86.3354 83.6464 86.191 83.6464 85.7853C83.6699 85.5554 83.7487 85.3342 83.8763 85.1395C84.004 84.9448 84.1769 84.7821 84.3812 84.6645Z" fill="#629DFF"/>
<path d="M84.3812 52.2233L93.446 47.1144C93.8346 46.9013 94.1526 47.0457 94.1526 47.4514C94.1344 47.6784 94.0608 47.8979 93.9379 48.0916C93.815 48.2854 93.6464 48.4478 93.446 48.5653L84.353 53.6742C83.9714 53.8942 83.6464 53.7429 83.6464 53.3441C83.6699 53.1143 83.7487 52.8931 83.8763 52.6984C84.004 52.5037 84.1769 52.3409 84.3812 52.2233Z" fill="#629DFF"/>
<path d="M84.3812 55.1733L93.446 50.085C93.8346 49.865 94.1526 50.0162 94.1526 50.4151C94.1344 50.643 94.0608 50.8634 93.938 51.0583C93.8152 51.2531 93.6465 51.4168 93.446 51.5358L84.353 56.6447C83.9714 56.8579 83.6464 56.7135 83.6464 56.3078C83.6661 56.0751 83.7431 55.8505 83.871 55.653C83.999 55.4554 84.174 55.2909 84.3812 55.1733Z" fill="#629DFF"/>
<path d="M84.3812 58.1161L93.446 53.0072C93.8346 52.7941 94.1526 52.9385 94.1526 53.3442C94.1332 53.5718 94.0592 53.7918 93.9365 53.9865C93.8138 54.1812 93.6458 54.3451 93.446 54.465L84.353 59.5738C83.9714 59.787 83.6464 59.6357 83.6464 59.2369C83.6699 59.0071 83.7487 58.7859 83.8763 58.5912C84.004 58.3964 84.1769 58.2337 84.3812 58.1161Z" fill="#629DFF"/>
<path d="M84.3812 89.0859L93.446 83.977C93.8346 83.7638 94.1526 83.9082 94.1526 84.3139C94.1344 84.5409 94.0608 84.7604 93.9379 84.9542C93.815 85.1479 93.6464 85.3103 93.446 85.4278L84.353 90.5367C83.9714 90.7568 83.6464 90.6055 83.6464 90.2067C83.6694 89.9767 83.7479 89.7553 83.8756 89.5605C84.0033 89.3657 84.1766 89.203 84.3812 89.0859Z" fill="#629DFF"/>
<path d="M84.3812 92.0288L93.446 86.9268C93.8346 86.7067 94.1526 86.858 94.1526 87.2568C94.1332 87.4844 94.0592 87.7045 93.9365 87.8991C93.8138 88.0938 93.6458 88.2577 93.446 88.3776L84.353 93.4865C83.9714 93.6996 83.6464 93.5553 83.6464 93.1496C83.6683 92.9193 83.7463 92.6974 83.8741 92.5024C84.002 92.3075 84.1758 92.1451 84.3812 92.0288Z" fill="#629DFF"/>
<path d="M84.3812 94.9784L93.446 89.8695C93.8346 89.6564 94.1526 89.8008 94.1526 90.2065C94.1344 90.4335 94.0608 90.653 93.9379 90.8467C93.815 91.0405 93.6464 91.2028 93.446 91.3204L84.353 96.4293C83.9714 96.6493 83.6464 96.498 83.6464 96.0992C83.6699 95.8694 83.7487 95.6482 83.8763 95.4535C84.004 95.2587 84.1769 95.096 84.3812 94.9784Z" fill="#629DFF"/>
</g>
<path d="M31.5396 145.655L49.8883 135.334V191.319L31.5396 201.64V145.655Z" fill="#E0E0E0"/>
<path d="M32.5216 146.198L50.8773 135.884V191.875L32.5216 202.189V146.198Z" fill="#629DFF"/>
<path opacity="0.85" d="M32.5216 146.198L50.8773 135.884V191.875L32.5216 202.189V146.198Z" fill="white"/>
<g opacity="0.3">
<path d="M35.7858 166.4C35.8901 164.512 36.4506 162.674 37.4216 161.036C38.3927 159.398 39.7469 158.006 41.3744 156.973C44.469 155.233 46.9702 156.643 46.9702 160.115C46.8644 162.004 46.3027 163.842 45.3304 165.48C44.3582 167.118 43.0029 168.51 41.3744 169.542C38.2869 171.275 35.7858 169.865 35.7858 166.4Z" fill="#629DFF"/>
<path d="M37.87 175.916C37.8505 175.865 37.8505 175.809 37.87 175.758C37.8772 175.69 37.8988 175.625 37.9336 175.565L39.1842 173.427C39.217 173.362 39.2548 173.3 39.2972 173.241C39.3337 173.176 39.3874 173.122 39.4527 173.083L40.1592 172.684C40.1742 172.673 40.1929 172.666 40.2122 172.666C40.2314 172.666 40.2501 172.673 40.2652 172.684C40.2834 172.704 40.2973 172.727 40.3058 172.751C40.3143 172.776 40.3173 172.803 40.3146 172.829V178.453C40.3151 178.518 40.2981 178.582 40.2652 178.639C40.2454 178.694 40.2084 178.743 40.1592 178.777L39.3961 179.203C39.3811 179.215 39.3624 179.221 39.3431 179.221C39.3239 179.221 39.3052 179.215 39.2902 179.203C39.2719 179.184 39.2581 179.161 39.2495 179.136C39.241 179.111 39.238 179.085 39.2407 179.058V175.229L38.5342 176.404C38.51 176.452 38.4703 176.491 38.4211 176.514C38.4022 176.522 38.381 176.523 38.3615 176.517C38.342 176.51 38.3255 176.497 38.3151 176.48L37.87 175.916Z" fill="#629DFF"/>
<path d="M44.1935 172.348C44.204 172.517 44.204 172.687 44.1935 172.856C44.1662 173.033 44.1261 173.208 44.0734 173.379C44.0136 173.572 43.9404 173.76 43.8543 173.943C43.7537 174.158 43.6404 174.366 43.5152 174.569L42.7027 175.944L44.1652 175.126C44.1803 175.114 44.1989 175.107 44.2182 175.107C44.2375 175.107 44.2562 175.114 44.2712 175.126C44.2895 175.145 44.3033 175.168 44.3118 175.193C44.3204 175.217 44.3234 175.244 44.3207 175.27V176.191C44.3202 176.258 44.3033 176.324 44.2712 176.384C44.2498 176.437 44.213 176.482 44.1652 176.514L41.0918 178.24C41.0774 178.253 41.0585 178.261 41.0388 178.261C41.0191 178.261 41.0002 178.253 40.9858 178.24C40.9673 178.223 40.9532 178.201 40.9447 178.177C40.9361 178.153 40.9332 178.128 40.9364 178.103V177.353C40.9375 177.253 40.9518 177.154 40.9788 177.058C41 176.947 41.0432 176.842 41.1059 176.748L42.844 173.908C42.9545 173.735 43.04 173.548 43.0984 173.352C43.1326 173.223 43.1515 173.092 43.1549 172.96C43.1549 172.918 43.1549 172.863 43.1549 172.801C43.1432 172.736 43.1193 172.673 43.0842 172.616C43.0475 172.567 42.9954 172.531 42.9358 172.513C42.8431 172.504 42.7503 172.529 42.6744 172.581C42.5713 172.641 42.4822 172.72 42.413 172.815C42.3479 172.899 42.2955 172.992 42.2576 173.09C42.224 173.173 42.1957 173.258 42.1728 173.345C42.1728 173.427 42.1728 173.489 42.1375 173.53C42.1241 173.607 42.0926 173.68 42.0456 173.743C42.0089 173.793 41.9604 173.833 41.9043 173.86L41.1978 174.259C41.1919 174.265 41.1847 174.27 41.1768 174.273C41.1689 174.277 41.1604 174.278 41.1519 174.278C41.1433 174.278 41.1348 174.277 41.1269 174.273C41.119 174.27 41.1119 174.265 41.1059 174.259C41.0797 174.228 41.067 174.189 41.0706 174.149C41.0728 173.885 41.1084 173.621 41.1766 173.365C41.2415 173.08 41.3411 172.803 41.4733 172.54C41.6052 172.265 41.7739 172.009 41.975 171.777C42.1715 171.543 42.4111 171.347 42.6815 171.199C42.8934 171.068 43.1372 170.995 43.388 170.986C43.5697 170.985 43.7455 171.049 43.8826 171.165C44.0259 171.295 44.1288 171.462 44.1794 171.646C44.2208 171.878 44.2256 172.115 44.1935 172.348Z" fill="#629DFF"/>
<path d="M37.1776 181.919L46.2707 176.81C46.6593 176.597 46.9772 176.741 46.9772 177.147C46.959 177.374 46.8855 177.594 46.7626 177.787C46.6397 177.981 46.471 178.144 46.2707 178.261L37.1776 183.37C36.789 183.59 36.4711 183.439 36.4711 183.04C36.4909 182.812 36.5651 182.593 36.6878 182.398C36.8105 182.203 36.9782 182.039 37.1776 181.919Z" fill="#629DFF"/>
<path d="M37.1776 149.478L46.2707 144.369C46.6593 144.149 46.9772 144.3 46.9772 144.699C46.959 144.927 46.8855 145.147 46.7626 145.342C46.6398 145.537 46.4712 145.701 46.2707 145.82L37.1776 150.929C36.789 151.149 36.4711 150.997 36.4711 150.599C36.4898 150.371 36.5636 150.151 36.6864 149.956C36.8091 149.761 36.9775 149.597 37.1776 149.478Z" fill="#629DFF"/>
<path d="M37.1776 152.421L46.2707 147.312C46.6593 147.099 46.9772 147.25 46.9772 147.649C46.9579 147.876 46.8839 148.096 46.7612 148.291C46.6384 148.486 46.4704 148.65 46.2707 148.77L37.1776 153.913C36.789 154.126 36.4711 153.975 36.4711 153.576C36.4861 153.343 36.558 153.116 36.6809 152.915C36.8037 152.714 36.974 152.545 37.1776 152.421Z" fill="#629DFF"/>
<path d="M37.1776 155.371L46.2707 150.262C46.6593 150.042 46.9772 150.193 46.9772 150.592C46.9601 150.82 46.8871 151.041 46.7641 151.236C46.6412 151.431 46.472 151.594 46.2707 151.713L37.1776 156.821C36.789 157.042 36.4711 156.89 36.4711 156.491C36.4898 156.264 36.5636 156.043 36.6864 155.849C36.8091 155.654 36.9775 155.49 37.1776 155.371Z" fill="#629DFF"/>
<path d="M37.1776 186.34L46.2707 181.232C46.6593 181.011 46.9772 181.163 46.9772 181.562C46.959 181.789 46.8855 182.01 46.7626 182.205C46.6398 182.4 46.4712 182.563 46.2707 182.682L37.1776 187.791C36.789 188.004 36.4711 187.86 36.4711 187.454C36.4909 187.228 36.5652 187.009 36.6879 186.815C36.8106 186.622 36.9784 186.459 37.1776 186.34Z" fill="#629DFF"/>
<path d="M37.1776 189.283L46.2707 184.167C46.6593 183.954 46.9772 184.099 46.9772 184.504C46.959 184.731 46.8855 184.951 46.7626 185.145C46.6397 185.338 46.471 185.501 46.2707 185.618L37.1776 190.727C36.789 190.947 36.4711 190.796 36.4711 190.397C36.4925 190.171 36.5675 189.953 36.69 189.759C36.8126 189.566 36.9795 189.403 37.1776 189.283Z" fill="#629DFF"/>
<path d="M37.1776 192.233L46.2707 187.124C46.6593 186.904 46.9772 187.055 46.9772 187.454C46.959 187.682 46.8855 187.902 46.7626 188.097C46.6398 188.292 46.4712 188.456 46.2707 188.575L37.1776 193.684C36.789 193.904 36.4711 193.753 36.4711 193.354C36.4898 193.126 36.5636 192.906 36.6864 192.711C36.8091 192.516 36.9775 192.352 37.1776 192.233Z" fill="#629DFF"/>
</g>
<path d="M151.021 98.6572L152.561 112.643L163.527 111.316L162.636 97.7633L151.021 98.6572Z" fill="#FFA8A7"/>
<path d="M155.331 96.6768C155.677 97.0412 157.302 98.2995 157.338 98.8152C157.189 96.6218 161.019 94.9784 162.566 94.1327C165.222 92.6887 167.236 91.7948 168.034 88.7487C168.776 85.9502 169.356 83.1173 169.942 80.2844C170.26 78.7097 170.578 77.0458 170.013 75.5399C169.031 72.9408 166.268 71.93 163.06 71.5862C159.478 71.2011 156.384 69.9772 153.098 68.6639C150.83 67.7631 147.658 66.6011 145.376 68.1275C144.44 68.6855 143.723 69.5329 143.341 70.5342C143.165 71.0374 143.163 71.5827 143.333 72.0876C143.504 72.5925 143.839 73.0295 144.288 73.3327C143.498 73.3096 142.727 73.573 142.126 74.0718C141.524 74.5705 141.135 75.269 141.033 76.0316C140.93 76.7942 141.123 77.5665 141.573 78.1987C142.023 78.8308 142.699 79.2776 143.468 79.4524C143.129 79.8375 142.885 80.2929 142.754 80.7838C142.623 81.2747 142.609 81.7882 142.712 82.2853C142.967 83.4748 143.899 84.0455 144.655 84.8982C146.344 86.8097 147.927 88.7625 149.665 90.6259C151.558 92.6383 153.447 94.6552 155.331 96.6768Z" fill="#263238"/>
<path d="M143.122 86.3768C143.122 86.3768 140.296 90.6468 140.628 91.025C141.283 91.4632 141.996 91.8125 142.748 92.0633L143.122 86.3768Z" fill="#9A4A4D"/>
<path d="M150.576 74.9832C148.202 76.1796 144.097 78.4212 143.051 86.8993C141.97 95.6387 143.97 98.6711 145.171 99.8194C145.998 100.589 150.265 100.871 152.491 100.198C155.267 99.3518 161.294 96.4501 164.12 91.9463C167.441 86.638 168.126 79.5695 164.29 76.8191C158.906 72.8929 152.583 73.9724 150.576 74.9832Z" fill="#FFA8A7"/>
<path d="M151.021 98.6573L151.219 100.452C149.205 100.748 146.69 100.534 145.567 100.039C146.278 100.048 146.989 99.9834 147.686 99.8468C148.847 99.5943 149.968 99.1943 151.021 98.6573Z" fill="#9A4A4D"/>
<path d="M150.413 85.2972C148.914 84.7053 147.608 83.728 146.634 82.4696C145.661 81.2113 145.058 79.7193 144.888 78.153C144.182 72.5697 151.36 70.3969 151.36 70.3969L150.413 85.2972Z" fill="#263238"/>
<path d="M149.876 75.3476C149.876 75.3476 147.813 83.3238 150.293 88.357C150.293 88.357 151.742 85.2491 154.49 86.1361C157.239 87.0231 157.422 90.7911 155.119 92.4689C153.642 93.5484 151.855 92.9571 151.509 92.4276C152.343 94.8515 153.697 97.0756 155.479 98.953C156.556 99.6107 157.776 100.015 159.042 100.135C160.307 100.254 161.584 100.085 162.771 99.6406C164.5 97.358 166.389 95.1939 168.423 93.1634C174.732 86.4249 176.371 74.5568 167.455 75.1276C153.169 69.4961 149.876 75.3476 149.876 75.3476Z" fill="#263238"/>
<path d="M166.671 103.897C172.104 103.085 176.696 107.665 179.12 113.874C181.543 120.083 187.471 134.598 187.372 138.834C187.301 142.073 175.361 156.842 175.912 156.608C176.068 156.54 169.553 148.839 169.553 148.839L176.23 137.204L171.567 127.784L166.671 103.897Z" fill="#FFA8A7"/>
<path d="M165.788 103.807C169.921 103.271 172.231 103.67 175.58 107.383C178.929 111.096 182.116 120.31 182.116 120.31C182.116 120.31 180.865 124.257 170.592 127.255C170.536 126.877 164.742 114.472 164.742 114.472L165.788 103.807Z" fill="#455A64"/>
<path d="M145.15 106.97C145.15 106.97 163.442 103.993 165.788 103.807C168.133 103.622 172.726 107.355 173.432 112.058C174.139 116.762 172.811 126.814 171.51 131.724C170.21 136.633 169.476 140.065 170.535 141.797C170.535 141.797 169.462 145.469 159.351 146.755C149.241 148.041 140.077 144.72 140.077 144.72C140.077 144.72 140.783 139.549 141.002 137.617C141.221 135.685 141.257 129.324 141.257 129.324C141.257 129.324 135.767 125.797 137.908 119.925C139.715 115.311 142.151 110.953 145.15 106.97Z" fill="#FFA8A7"/>
<path d="M140.515 139.095C143.751 140.91 148.789 141.591 153.155 141.584C157.521 141.577 166.409 140.429 170.324 137.768C170.324 137.768 173.856 123.136 174.139 118.199C174.421 113.262 174.181 106.021 167.321 103.615C162.813 103.8 145.143 106.75 145.143 106.75C145.143 106.75 140.042 113.303 137.915 118.783C136.883 121.437 136.233 126.718 140.967 129.469C140.998 132.683 140.847 135.897 140.515 139.095Z" fill="#629DFF"/>
<path d="M142.105 108.531C139.089 108.758 136.064 108.836 133.04 108.765C126.292 108.703 112.183 106.207 112.183 106.207C112.183 106.207 101.267 93.3419 100.878 92.2005C100.49 91.0591 101.656 89.4982 102.292 88.6318C102.927 87.7655 104.121 85.792 104.588 85.2901C105.407 84.41 103.719 84.0593 102.383 84.6506C101.048 85.242 99.8328 86.961 99.2323 87.0985C98.6317 87.236 96.8018 81.8933 95.9045 79.3148C95.0072 76.7363 94.774 75.0861 93.3044 75.4024C92.2376 75.6361 92.287 76.977 92.8169 79.0879C93.0965 80.0021 93.3183 80.9321 93.4811 81.8727C93.4811 82.2234 92.9512 82.2784 92.7039 82.3609C92.2517 82.5122 91.4675 82.746 91.2343 83.1792C91.1352 83.4182 91.0146 83.6483 90.874 83.8668C90.4854 84.3412 89.687 84.3137 89.2701 84.7675C88.9663 85.0907 88.9381 85.5858 88.6908 85.9502C88.5283 86.1909 88.2881 86.3628 88.1256 86.6378C88.0003 86.8872 87.9311 87.1596 87.9226 87.4371C87.914 87.7145 87.9664 87.9906 88.0761 88.2468C88.698 89.9441 89.6585 91.505 90.9022 92.84C91.9055 94.0639 93.0713 95.1984 94.0816 96.6218C94.9931 97.8938 100.582 109.782 104.326 114.499C105.052 115.652 106.197 116.497 107.534 116.865C111.823 117.986 134.933 121.822 134.933 121.822C142.514 121.932 145.263 111.632 142.105 108.531Z" fill="#FFA8A7"/>
<path d="M145.143 106.75C140.458 106.427 130.595 108.49 124.039 107.974C124.039 107.974 125.31 109.501 124.908 113.915C124.708 115.989 123.995 117.985 122.83 119.732C122.83 119.732 138.113 122.758 140.642 122.937C143.433 122.448 145.065 120.681 146.026 118.254C148.796 111.234 145.143 106.75 145.143 106.75Z" fill="#455A64"/>
<path d="M155.769 238.742C155.642 240.255 155.444 241.623 156.052 243.287C156.914 245.68 158.751 246.774 159.825 247.722C161.039 248.812 162.096 250.057 162.969 251.422C163.827 252.917 164.932 254.264 166.24 255.41C167.264 256.269 170.147 256.345 171.532 255.781C172.917 255.217 173.39 254.702 173.305 252.543C173.22 250.384 166.494 249.648 166.494 249.648L155.769 238.742Z" fill="#263238"/>
<path d="M172.436 246.107C173.008 246.32 173.143 247.379 173.242 249.497C173.305 251.092 173.998 253.437 171.73 254.447C169.907 255.259 166.982 254.715 165.752 253.21C164.212 251.326 163.166 249.669 160.969 247.372C159.061 245.378 157.076 244.711 156.228 240.73C155.684 238.165 156.115 237.106 157.882 236.37C160.319 235.359 164.141 238.66 166.049 239.183C167.695 239.63 171.871 245.894 172.436 246.107Z" fill="#37474F"/>
<path d="M166.049 239.176L165.724 239.066C164.619 239.123 163.549 239.465 162.623 240.055C161.697 240.646 160.948 241.465 160.453 242.428C160.128 243.116 161.16 243.666 161.725 243.116C163.089 240.489 165.879 239.905 166.996 239.774C166.726 239.514 166.403 239.31 166.049 239.176Z" fill="#FAFAFA"/>
<path d="M167.632 240.386C166.594 240.498 165.602 240.862 164.746 241.445C163.89 242.028 163.199 242.81 162.735 243.721C162.41 244.408 163.442 244.958 164.007 244.408C164.452 243.595 165.075 242.887 165.834 242.335C166.593 241.784 167.467 241.402 168.395 241.218C168.126 240.929 167.872 240.64 167.632 240.386Z" fill="#FAFAFA"/>
<path d="M157.345 243.673C157.345 243.673 157.535 238.935 164.12 238.275L164.502 238.481C163.767 237.308 162.612 236.44 161.259 236.047C159.069 235.477 157.345 236.047 156.193 237.464C155.041 238.88 156.207 242.751 157.345 243.673Z" fill="#FAFAFA"/>
<path d="M123.572 265.256C123.318 266.081 123.296 266.958 123.509 267.794C123.756 268.303 125.325 269.98 128.511 270.592C131.697 271.204 136.085 270.592 137.971 270.482C139.858 270.372 145.786 271.074 147.665 271.321C150.625 271.713 152.908 271.08 154.024 270.035C154.205 269.827 154.338 269.584 154.415 269.322C154.491 269.06 154.51 268.785 154.469 268.516C154.461 267.817 154.354 267.123 154.151 266.453L123.572 265.256Z" fill="#263238"/>
<path d="M153.649 263.448C153.706 263.689 153.762 263.929 153.805 264.17C154.093 265.396 154.186 266.657 154.08 267.911C153.845 268.331 153.52 268.698 153.128 268.987C152.736 269.276 152.285 269.481 151.805 269.588C149.58 270.276 147.877 270.166 145.411 269.705C142.927 269.356 140.417 269.206 137.908 269.258C135.965 269.389 133.287 269.753 131.344 269.575C129.691 269.507 128.06 269.185 126.512 268.619C125.219 268.076 123.89 267.388 123.579 266.088C123.191 263.338 124.371 262.142 125.699 261.378C127.027 260.615 128.928 260.691 130.949 260.539C132.786 260.423 134.121 260.423 135.746 260.299C137.159 260.232 138.564 260.043 139.943 259.735C141.165 259.357 142.43 257.83 142.953 257.775C142.953 257.775 151.106 257.713 151.883 257.775C152.787 257.851 153.063 260.567 153.169 261.151C153.261 261.619 153.275 262.114 153.402 262.561C153.501 262.857 153.572 263.152 153.649 263.448Z" fill="#37474F"/>
<path d="M128.511 269.21C128.257 267.237 127.918 262.967 131.648 260.498H132.121C130.437 260.021 128.648 260.021 126.964 260.498C123.982 261.268 122.661 263.62 123.431 266.095C123.403 266.075 124.067 268.481 128.511 269.21Z" fill="#FAFAFA"/>
<path d="M139.37 259.88C138.169 260.918 137.752 263.283 137.752 263.283C137.59 264.17 135.944 264.301 136.099 263.448C136.346 262.269 136.826 261.148 137.512 260.148C138.082 259.855 138.738 259.76 139.37 259.88Z" fill="#FAFAFA"/>
<path d="M136.014 260.278C135.104 261.148 134.509 262.282 134.319 263.51C134.149 264.356 132.778 264.342 132.906 263.51C132.906 263.51 133.061 261.413 134.354 260.429C134.598 260.278 134.877 260.185 135.165 260.158C135.454 260.132 135.745 260.173 136.014 260.278Z" fill="#FAFAFA"/>
<path d="M152.152 251.979C152.152 251.979 151.982 256.792 151.685 258.442C151.509 259.439 150.124 260.808 146.775 260.691C144.429 260.615 142.811 259.831 142.67 259.013L142.345 253.038L152.152 251.979Z" fill="#FFA8A7"/>
<path d="M172.938 240.386L172.436 246.739C172.5 247.963 167.264 249.27 165.237 246.506C165.123 246.251 164.53 240.015 164.53 240.015L172.938 240.386Z" fill="#FFA8A7"/>
<path d="M176.76 208.082C176.548 199.948 175.114 196.297 175.114 196.297C175.114 196.297 176.11 183.796 177.523 170.814C179.523 152.937 175.241 149.767 170.536 141.777C165.293 146.012 151.685 147.367 140.042 144.72C136.643 170.209 136.975 198.978 137.42 204.74C137.866 210.503 138.127 213.487 139.54 225.767C140.67 235.573 142.197 253.615 142.197 253.615C146.492 255.877 152.152 253.423 152.152 253.423C152.152 253.423 156.059 222.659 155.783 216.01C155.444 207.883 154.971 205.82 154.971 205.82C154.971 205.82 157.232 189.758 157.797 185.522C157.797 185.522 158.503 192.04 158.941 197.803C159.319 203.727 160.003 209.63 160.99 215.488C162.637 226.345 164.438 241.672 164.438 241.672C168.268 243.246 172.917 241.603 172.917 241.603C172.917 241.603 176.93 214.669 176.76 208.082Z" fill="#455A64"/>
<path d="M144.86 145.579C142.599 164.77 140.197 188.561 141.327 204.569C142.232 217.681 144.945 246.691 145.687 254.509H146.337C145.63 246.815 142.875 217.654 141.977 204.5C140.882 188.548 143.277 164.798 145.51 145.634L144.86 145.579Z" fill="#37474F"/>
<path d="M157.832 185.488L160.121 167.789C164.596 167.626 168.901 166.082 172.415 163.381C172.415 163.381 170.755 167.871 162.714 170.298L159.471 185.543L158.934 197.197L157.832 185.488Z" fill="#37474F"/>
<path d="M183.147 48.5929L176.167 56.3215L178.216 58.955L172.874 61.5404L174.937 63.6514L169.243 67.887L180.222 64.5728L177.848 62.2899L185.147 60.0208L182.172 56.4659L188.708 54.0249L183.147 48.5929Z" fill="#629DFF"/>
<path opacity="0.3" d="M183.147 48.5929L176.167 56.3215L178.216 58.955L172.874 61.5404L174.937 63.6514L169.243 67.887L180.222 64.5728L177.848 62.2899L185.147 60.0208L182.172 56.4659L188.708 54.0249L183.147 48.5929Z" fill="black"/>
<path d="M164.177 58.4393L167.497 59.9176L166.438 66.8143L171.2 58.3361L168.621 56.9678L172.238 50.3943L166.395 49.1291L164.177 58.4393Z" fill="#629DFF"/>
<path opacity="0.3" d="M164.177 58.4393L167.497 59.9176L166.438 66.8143L171.2 58.3361L168.621 56.9678L172.238 50.3943L166.395 49.1291L164.177 58.4393Z" fill="black"/>
<path d="M182.617 65.7623L181.593 69.1659L171.277 70.273L183.564 72.934L184.596 69.8535L192 71.2425L191.435 65.1572L182.617 65.7623Z" fill="#629DFF"/>
<path opacity="0.3" d="M182.617 65.7623L181.593 69.1659L171.277 70.273L183.564 72.934L184.596 69.8535L192 71.2425L191.435 65.1572L182.617 65.7623Z" fill="black"/>
</svg>
