<svg width="49" height="51" viewBox="0 0 49 51" fill="none" xmlns="http://www.w3.org/2000/svg">
<path d="M3.26947 42.933C4.47977 43.8275 5.9029 44.3054 7.35892 44.3061C8.81493 44.3068 10.2384 43.8304 11.4495 42.937C12.6605 42.0437 13.6047 40.7735 14.1625 39.2872C14.7204 37.8009 14.867 36.1651 14.5838 34.5866C14.3005 33.0082 13.6001 31.5581 12.5712 30.4196C11.5423 29.281 10.231 28.5053 8.8031 28.1903C7.37524 27.8754 5.89495 28.0354 4.5494 28.6502C3.20384 29.265 2.05344 30.307 1.24366 31.6443C0.705855 32.5325 0.331627 33.5291 0.142372 34.5771C-0.0468834 35.6252 -0.0474582 36.7041 0.140664 37.7524C0.328785 38.8007 0.701919 39.7978 1.23877 40.6867C1.77562 41.5756 2.46565 42.3389 3.26947 42.933Z" fill="#455A64"/>
<path d="M6.0897 40.1285L14.6994 35.4151C14.8621 37.3565 14.3887 39.2979 13.3652 40.886C12.3418 42.4741 10.8364 43.6032 9.12307 44.0678C7.40975 44.5325 5.60242 44.3017 4.03008 43.4176C2.45773 42.5335 1.22492 41.0548 0.556043 39.2506C1.74487 41.0064 3.32288 41.6309 6.0897 40.1285Z" fill="#37474F"/>
<path d="M12.3963 37.9663L12.7802 31.4323C17.6321 37.2676 23.209 42.3122 29.3439 46.4151L29.1892 49.0311C25.2816 47.7349 18.4844 43.0568 12.3963 37.9663Z" fill="#37474F"/>
<path d="M8.88862 43.6638L12.3751 43.3692L19.1083 48.2712C20.5904 49.3487 22.2992 49.9848 24.0691 50.118C25.8391 50.2511 27.6101 49.8768 29.2107 49.0312C24.6473 47.2637 17.9728 42.5502 12.3965 37.9664L8.88862 43.6638Z" fill="#455A64"/>
<path d="M20.3129 43.0215V43.2159C20.2942 43.3821 20.2407 43.5411 20.1564 43.6802C20.0722 43.8194 19.9596 43.9348 19.8278 44.0172L18.6069 44.683C18.3564 44.8185 18.3457 45.0659 18.575 45.2368L18.7189 45.3429C18.8498 45.4287 18.9972 45.4793 19.149 45.4906C19.3009 45.5018 19.4531 45.4734 19.5932 45.4077L20.83 44.736C20.962 44.6544 21.0744 44.5391 21.1578 44.3997C21.2413 44.2603 21.2934 44.1009 21.3098 43.9347V43.7521C21.3102 43.5836 21.2747 43.4174 21.2062 43.2669C21.1377 43.1165 21.038 42.986 20.9153 42.886L20.7714 42.774C20.5315 42.615 20.3289 42.7269 20.3129 43.0215Z" fill="#BA68C8"/>
<path d="M22.6108 44.4885V44.6771C22.592 44.8447 22.5377 45.005 22.4526 45.1452C22.3674 45.2854 22.2536 45.4015 22.1203 45.4842L20.9049 46.1441C20.6543 46.2855 20.6383 46.533 20.8729 46.7038L21.0168 46.8099C21.1477 46.8957 21.2951 46.9463 21.447 46.9576C21.5988 46.9688 21.751 46.9404 21.8911 46.8747L23.1279 46.203C23.2601 46.1209 23.3724 46.0046 23.455 45.864C23.5376 45.7234 23.5882 45.5628 23.6024 45.3959V45.2132C23.6028 45.0448 23.5673 44.8785 23.4988 44.7281C23.4302 44.5776 23.3306 44.4471 23.2079 44.3471L23.0639 44.2411C22.8294 44.0702 22.6268 44.1998 22.6108 44.4885Z" fill="#BA68C8"/>
<path d="M24.9084 45.9674V46.1619C24.888 46.3289 24.8332 46.4886 24.7481 46.6285C24.6631 46.7684 24.5502 46.8849 24.418 46.969L23.2025 47.6289C22.9519 47.7644 22.9359 48.0119 23.1705 48.1887L23.3144 48.2888C23.4439 48.376 23.5905 48.4274 23.7418 48.4386C23.893 48.4499 24.0445 48.4208 24.1834 48.3536L25.4202 47.682C25.5528 47.6011 25.6656 47.486 25.7492 47.3464C25.8327 47.2069 25.8845 47.0471 25.9 46.8807V46.698C25.898 46.5301 25.8614 46.3648 25.7931 46.2147C25.7247 46.0647 25.6264 45.9338 25.5055 45.8319L25.3616 45.7259C25.127 45.5197 24.9244 45.6316 24.9084 45.9674Z" fill="#BA68C8"/>
<path d="M9.01658 24.6331C7.99835 25.187 7.28399 26.4007 7.06009 28.2153C7.06009 28.4039 7.01743 28.5983 7.00677 28.8045C6.99611 29.0107 7.00677 29.2818 7.00677 29.5292C7.0081 29.9371 7.03302 30.3445 7.0814 30.7488C7.16664 31.5254 7.31292 32.2922 7.51855 33.0407C8.08894 35.119 9.03573 37.0473 10.3014 38.7086C10.8997 39.4846 11.588 40.17 12.3485 40.7472C13.9052 41.9255 15.3659 42.1259 16.4854 41.5661L12.647 43.6577C11.8955 44.0146 11.074 44.1532 10.2603 44.0604C9.4467 43.9676 8.66806 43.6464 7.99834 43.1275C7.2693 42.5806 6.60954 41.9287 6.03651 41.1891C4.72645 39.5066 3.74947 37.5398 3.16839 35.4151C2.96025 34.6693 2.81392 33.9042 2.73124 33.1291C2.68285 32.7228 2.65793 32.3134 2.65661 31.9036C2.65661 31.662 2.65661 31.4205 2.65661 31.1848C2.65661 30.9491 2.68859 30.7901 2.71524 30.5956C2.82669 29.8013 3.10009 29.0453 3.51477 28.3849C3.92946 27.7245 4.47458 27.177 5.10891 26.7836L5.21552 26.7247C5.26018 26.6976 5.3065 26.674 5.35413 26.654L9.01658 24.6331Z" fill="#BA68C8"/>
<path opacity="0.1" d="M12.6308 43.6576C11.8793 44.0145 11.0577 44.1531 10.2441 44.0603C9.43045 43.9675 8.6518 43.6464 7.98209 43.1274C7.25304 42.5806 6.59328 41.9287 6.02025 41.189L10.2851 38.7144C10.8835 39.4904 11.5718 40.1758 12.3322 40.753C13.8889 41.9313 15.3496 42.1317 16.4692 41.5719L12.6308 43.6576Z" fill="black"/>
<path d="M13.2438 25.4111C16.4425 27.7678 18.8255 33.1175 18.5749 37.3478C18.4523 39.4807 17.6793 40.9242 16.5385 41.531L16.4745 41.5664C15.355 42.1555 13.8942 41.9022 12.3376 40.7474C9.13893 38.3907 6.76127 33.0409 7.00649 28.8047C7.13444 26.6955 7.89145 25.2697 9.01631 24.6393C10.1412 24.0088 11.6445 24.2268 13.2438 25.4111Z" fill="#BA68C8"/>
<path opacity="0.2" d="M13.2438 25.4111C16.4425 27.7678 18.8255 33.1175 18.5749 37.3478C18.4523 39.4807 17.6793 40.9242 16.5385 41.531L16.4745 41.5664C15.355 42.1555 13.8942 41.9022 12.3376 40.7474C9.13893 38.3907 6.76127 33.0409 7.00649 28.8047C7.13444 26.6955 7.89145 25.2697 9.01631 24.6393C10.1412 24.0088 11.6445 24.2268 13.2438 25.4111Z" fill="black"/>
<path d="M22.6855 7.83571C22.6855 7.83571 21.8805 15.3301 26.4865 25.623C27.3085 27.4706 28.2436 29.2541 29.2854 30.961C33.1504 37.2829 36.9301 39.7986 36.9301 39.7986C32.2388 38.7381 27.1689 37.984 22.1577 39.2743C20.2028 39.7831 18.2738 40.4066 16.3788 41.142C15.3446 41.7017 13.9798 41.466 12.5458 40.4055C11.5513 39.6431 10.6838 38.6962 9.98151 37.6069C9.49995 36.8826 9.07885 36.1116 8.72338 35.3032C7.78524 33.3043 7.32639 31.073 7.39061 28.8223C7.50789 26.9192 8.16894 25.5759 9.19784 25.0162C10.88 23.8039 12.5029 22.4941 14.0598 21.0922C18.0368 17.4923 20.585 12.5904 22.6855 7.83571Z" fill="#BA68C8"/>
<path opacity="0.6" d="M22.6855 7.83571C22.6855 7.83571 21.8805 15.3301 26.4865 25.623C27.3085 27.4706 28.2436 29.2541 29.2854 30.961C33.1504 37.2829 36.9301 39.7986 36.9301 39.7986C32.2388 38.7381 27.1689 37.984 22.1577 39.2743C20.2028 39.7831 18.2738 40.4066 16.3788 41.142C15.3446 41.7017 13.9798 41.466 12.5458 40.4055C11.5513 39.6431 10.6838 38.6962 9.98151 37.6069C9.49995 36.8826 9.07885 36.1116 8.72338 35.3032C7.78524 33.3043 7.32639 31.073 7.39061 28.8223C7.50789 26.9192 8.16894 25.5759 9.19784 25.0162C10.88 23.8039 12.5029 22.4941 14.0598 21.0922C18.0368 17.4923 20.585 12.5904 22.6855 7.83571Z" fill="white"/>
<path opacity="0.1" d="M29.2854 30.9611C33.1504 37.283 36.9301 39.7988 36.9301 39.7988C32.2388 38.7382 27.1689 37.9841 22.1577 39.2744C20.2028 39.7832 18.2738 40.4067 16.3788 41.1421C15.3446 41.7018 13.9798 41.4661 12.5458 40.4056C11.5513 39.6432 10.6838 38.6963 9.98151 37.607C14.4596 34.7731 22.1364 30.5486 29.2854 30.9611Z" fill="black"/>
<path d="M36.2741 2.64502C39.6007 5.10778 42.5648 8.93155 44.8039 13.3033C47.6507 18.9063 49.2926 25.3991 48.9568 31.0552C48.3544 41.1361 41.7065 44.7536 34.1097 39.1387C32.3001 37.7722 30.6664 36.1411 29.2531 34.2898C25.5173 29.402 22.9674 23.5447 21.8429 17.2684C21.699 16.4141 21.587 15.5716 21.5124 14.7291C21.4804 14.3815 21.4537 14.0279 21.4377 13.6803C21.4111 13.1854 21.3951 12.6964 21.4004 12.2133C21.4058 11.7302 21.4004 11.2117 21.4431 10.7227C22.0135 0.6477 28.656 -2.96986 36.2741 2.64502Z" fill="#BA68C8"/>
<path opacity="0.1" d="M44.7719 13.3093C47.6187 18.9124 49.2607 25.4052 48.9248 31.0613C48.3224 41.1421 41.6746 44.7597 34.0778 39.1448C32.2682 37.7783 30.6345 36.1471 29.2212 34.2959C30.5006 34.5257 32.9529 33.7951 32.4678 32.2809C33.7293 33.9153 35.1814 35.3576 36.786 36.5701C38.9664 38.1845 41.0508 38.9268 42.8208 38.7854C43.5569 38.721 44.2689 38.4655 44.8988 38.0396C45.5288 37.6137 46.0588 37.0295 46.4459 36.3344C47.4149 34.5516 47.9494 32.5217 47.9972 30.4426C48.2851 25.6291 46.9577 20.026 44.6333 15.0297C44.6333 15.0592 45.2571 14.8648 44.7719 13.3093Z" fill="black"/>
<path d="M36.1355 3.85892C39.4888 6.33936 42.4902 10.44 44.6333 15.0533C46.9576 20.0496 48.2851 25.6585 47.9972 30.4662C47.9493 32.5453 47.4148 34.5752 46.4458 36.358C46.0588 37.053 45.5287 37.6373 44.8988 38.0632C44.2689 38.4891 43.5569 38.7446 42.8207 38.809C41.0561 38.974 38.9663 38.2198 36.7859 36.5937C35.1813 35.3812 33.7293 33.9388 32.4678 32.3045C31.9631 31.6642 31.4762 30.9886 31.007 30.2777C30.1815 29.0307 29.43 27.7259 28.7573 26.3714C28.6187 26.0886 28.4855 25.7823 28.3522 25.523C28.1283 25.0517 27.915 24.5744 27.7124 24.0972C27.0206 22.4668 26.4414 20.7809 25.9798 19.0538V18.9949C25.6807 17.886 25.4404 16.7588 25.2601 15.6189C25.1322 14.8176 25.0362 14.0223 24.9776 13.2622C24.9776 12.9323 24.9296 12.6082 24.919 12.2842C24.9083 11.9601 24.919 11.5065 24.919 11.1058C24.919 10.7052 24.9189 10.3635 24.9563 9.99816C25.0053 7.9193 25.5397 5.88975 26.5076 4.10638C28.4055 0.901246 32.0093 0.81876 36.1355 3.85892Z" fill="#BA68C8"/>
<path opacity="0.4" d="M36.1355 3.85892C39.4888 6.33936 42.4902 10.44 44.6333 15.0533C46.9576 20.0496 48.2851 25.6585 47.9972 30.4662C47.9493 32.5453 47.4148 34.5752 46.4458 36.358C46.0588 37.053 45.5287 37.6373 44.8988 38.0632C44.2689 38.4891 43.5569 38.7446 42.8207 38.809C41.0561 38.974 38.9663 38.2198 36.7859 36.5937C35.1813 35.3812 33.7293 33.9388 32.4678 32.3045C31.9631 31.6642 31.4762 30.9886 31.007 30.2777C30.1815 29.0307 29.43 27.7259 28.7573 26.3714C28.6187 26.0886 28.4855 25.7823 28.3522 25.523C28.1283 25.0517 27.915 24.5744 27.7124 24.0972C27.0206 22.4668 26.4414 20.7809 25.9798 19.0538V18.9949C25.6807 17.886 25.4404 16.7588 25.2601 15.6189C25.1322 14.8176 25.0362 14.0223 24.9776 13.2622C24.9776 12.9323 24.9296 12.6082 24.919 12.2842C24.9083 11.9601 24.919 11.5065 24.919 11.1058C24.919 10.7052 24.9189 10.3635 24.9563 9.99816C25.0053 7.9193 25.5397 5.88975 26.5076 4.10638C28.4055 0.901246 32.0093 0.81876 36.1355 3.85892Z" fill="black"/>
<path d="M33.2676 15.5186L37.735 25.3461C35.6932 26.5657 33.1823 28.0327 31.4817 30.9786C31.3217 30.7489 31.1671 30.5191 31.0125 30.2834C30.1851 29.0378 29.4336 27.7329 28.7628 26.3771C28.6189 26.0943 28.4856 25.788 28.3523 25.5287C28.1284 25.0574 27.9152 24.5802 27.7126 24.1029C27.0207 22.4725 26.4416 20.7866 25.98 19.0596V19.0006C25.916 18.7532 25.852 18.5057 25.7934 18.2524C28.9761 18.4998 33.2676 15.5186 33.2676 15.5186Z" fill="#37474F"/>
<path d="M38.2306 24.7569C37.6335 25.7409 36.5673 25.7939 35.3678 24.9101H35.3305C34.339 24.0888 33.5369 23.0204 32.9894 21.7918C32.442 20.5633 32.1646 19.2093 32.1798 17.84V17.7929C32.1947 17.2097 32.3472 16.641 32.6223 16.1431C33.214 15.1651 34.2856 15.1062 35.4851 15.9959H35.5224C36.5113 16.8195 37.3112 17.8885 37.8576 19.1166C38.404 20.3447 38.6815 21.6976 38.6677 23.066V23.1131C38.6476 23.6953 38.4955 24.2626 38.2252 24.7628L38.2306 24.7569Z" fill="#BA68C8"/>
</svg>
