<svg width="13" height="9" viewBox="0 0 13 9" fill="none" xmlns="http://www.w3.org/2000/svg">
<path d="M2.436 1.09175C4.45012 -0.0535137 6.81834 -0.200472 9.05319 0.20493C10.2534 0.422833 11.5042 0.818096 12.3227 1.8164C13.1412 2.8147 13.293 4.55793 12.3595 5.40927C11.7541 5.863 11.0232 6.06752 10.2948 5.98697C8.54735 5.98697 6.616 5.62717 5.20887 6.78764C4.40874 7.44641 3.87991 8.54608 2.90964 8.8704C2.4332 8.99233 1.93369 8.94011 1.48655 8.72162C1.03942 8.50313 0.668945 8.13023 0.431075 7.65925C-0.0218418 6.69128 -0.122188 5.56923 0.150562 4.52245C0.265753 3.79516 0.531973 3.10708 0.928433 2.51195C1.32489 1.91681 1.84085 1.43075 2.436 1.09175Z" fill="#EBEBEB"/>
</svg>
