<svg width="5" height="5" viewBox="0 0 5 5" fill="none" xmlns="http://www.w3.org/2000/svg">
<path d="M0.702378 0.543174C0.702378 0.543174 0.60654 0.694059 0.469624 0.970675C0.273254 1.36359 0.169673 1.80461 0.168408 2.25317C0.161071 2.57838 0.214856 2.90174 0.326384 3.20295C0.437912 3.50415 0.604771 3.77668 0.816474 4.00339C1.07178 4.28302 1.3835 4.49213 1.72615 4.61363C2.06881 4.73513 2.43269 4.76557 2.78806 4.70248C3.1411 4.6224 3.47244 4.45307 3.75597 4.20783C4.0395 3.96258 4.26747 3.64811 4.42191 3.28922C4.54668 2.99439 4.61549 2.67458 4.62412 2.3494C4.63276 2.02423 4.58103 1.70054 4.47212 1.39818C4.32814 0.979717 4.09306 0.606659 3.78754 0.311827C3.56847 0.105622 3.42243 0.0201175 3.43156 0C3.58235 0.0426004 3.72265 0.121629 3.84231 0.231355C4.19046 0.510349 4.46207 0.88972 4.62729 1.32776C4.75953 1.65195 4.8279 2.00335 4.8279 2.35878C4.8279 2.71422 4.75953 3.06562 4.62729 3.38981C4.47024 3.79399 4.22457 4.14888 3.91233 4.42261C3.6001 4.69635 3.23107 4.88036 2.83838 4.95814C2.44568 5.03591 2.0416 5.00502 1.66242 4.86822C1.28323 4.73143 0.940805 4.49302 0.665866 4.17439C0.438432 3.92298 0.261881 3.62135 0.147823 3.28935C0.0337649 2.95735 -0.0152147 2.60249 0.00410953 2.24813C0.0198721 1.7746 0.154129 1.31509 0.39204 0.920378C0.551774 0.643762 0.702378 0.533116 0.702378 0.543174Z" fill="#E0E0E0"/>
</svg>
