<svg width="16" height="22" viewBox="0 0 16 22" fill="none" xmlns="http://www.w3.org/2000/svg">
<path d="M6.85325 18.527C7.56023 17.6075 8.47448 16.8674 9.52182 16.3665C10.5692 15.8656 11.7201 15.6182 12.8812 15.6442C15.0082 15.8075 15.7531 17.3627 14.5518 19.1155C13.8441 20.0342 12.9298 20.7738 11.8826 21.2746C10.8354 21.7754 9.68483 22.0233 8.52386 21.9983C6.40115 21.8393 5.65196 20.2841 6.85325 18.527Z" fill="#0060FF"/>
<g opacity="0.3">
<path d="M6.85325 18.527C7.56023 17.6075 8.47448 16.8674 9.52182 16.3665C10.5692 15.8656 11.7201 15.6182 12.8812 15.6442C15.0082 15.8075 15.7531 17.3627 14.5518 19.1155C13.8441 20.0342 12.9298 20.7738 11.8826 21.2746C10.8354 21.7754 9.68483 22.0233 8.52386 21.9983C6.40115 21.8393 5.65196 20.2841 6.85325 18.527Z" fill="white"/>
</g>
<path d="M7.31393 7.02607L4.46356 1.09304L0.752052 2.88026L3.59812 8.80469C2.29852 9.97508 1.46507 11.5735 1.25046 13.3071C1.03584 15.0407 1.45443 16.7935 2.42954 18.2442C3.40465 19.6949 4.87098 20.7466 6.5599 21.2064C8.24882 21.6662 10.0472 21.5034 11.6257 20.7479C13.2041 19.9923 14.4569 18.6946 15.1544 17.0925C15.852 15.4904 15.9477 13.6911 15.4239 12.0243C14.9002 10.3575 13.7921 8.9348 12.3026 8.01685C10.8132 7.0989 9.04213 6.74717 7.31393 7.02607Z" fill="#0060FF"/>
<path opacity="0.7" d="M7.31393 7.02607L4.46356 1.09304L0.752052 2.88026L3.59812 8.80469C2.29852 9.97508 1.46507 11.5735 1.25046 13.3071C1.03584 15.0407 1.45443 16.7935 2.42954 18.2442C3.40465 19.6949 4.87098 20.7466 6.5599 21.2064C8.24882 21.6662 10.0472 21.5034 11.6257 20.7479C13.2041 19.9923 14.4569 18.6946 15.1544 17.0925C15.852 15.4904 15.9477 13.6911 15.4239 12.0243C14.9002 10.3575 13.7921 8.9348 12.3026 8.01685C10.8132 7.0989 9.04213 6.74717 7.31393 7.02607Z" fill="white"/>
<path opacity="0.2" d="M6.9827 7.24944L4.45525 1.68588L4.22705 1.89639L6.83199 7.31818L6.9827 7.24944Z" fill="white"/>
<path opacity="0.2" d="M5.01038 2.24012C5.01038 2.24012 4.7994 2.75567 3.31824 3.46454C1.83708 4.17341 1.30318 4.02304 1.30318 4.02304L0.752052 2.88026L4.46356 1.09304L5.01038 2.24012Z" fill="#0060FF"/>
<path opacity="0.1" d="M4.71759 1.62577C4.25804 2.16304 3.67638 2.58285 3.02115 2.85018C2.40214 3.1902 1.71217 3.38143 1.00609 3.40869L0.752052 2.88026L4.46356 1.09304L4.71759 1.62577Z" fill="black"/>
<path d="M3.64127 0.00608578C2.4133 0.145226 1.26811 0.693098 0.390471 1.56131C-0.315663 2.34751 -0.040098 2.94038 1.02341 2.88024C2.25205 2.7434 3.39796 2.19518 4.27421 1.32501C5.01048 0.525924 4.72631 -0.0669494 3.64127 0.00608578Z" fill="#0060FF"/>
<path opacity="0.6" d="M3.64127 0.00608578C2.4133 0.145226 1.26811 0.693098 0.390471 1.56131C-0.315663 2.34751 -0.040098 2.94038 1.02341 2.88024C2.25205 2.7434 3.39796 2.19518 4.27421 1.32501C5.01048 0.525924 4.72631 -0.0669494 3.64127 0.00608578Z" fill="white"/>
<path opacity="0.2" d="M1.06674 2.08973C1.28202 2.13699 1.92788 2.15417 3.21958 1.35508C4.34337 0.650506 3.89127 0.126372 2.90096 0.495844C2.16943 0.871406 1.54005 1.41832 1.06674 2.08973Z" fill="white"/>
<path d="M3.15892 0.457118C2.38633 0.620969 1.66434 0.96717 1.05344 1.46672C0.562588 1.89634 0.691758 2.17559 1.34192 2.06819C2.11402 1.90292 2.83569 1.55687 3.4474 1.05858C3.95978 0.611778 3.81769 0.341121 3.15892 0.457118Z" fill="#0060FF"/>
<path opacity="0.5" d="M3.15892 0.457118C2.38633 0.620969 1.66434 0.96717 1.05344 1.46672C0.562588 1.89634 0.691758 2.17559 1.34192 2.06819C2.11402 1.90292 2.83569 1.55687 3.4474 1.05858C3.95978 0.611778 3.81769 0.341121 3.15892 0.457118Z" fill="white"/>
<path opacity="0.2" d="M4.27418 1.34206C4.47264 1.15385 4.6118 0.911984 4.67461 0.646076C4.17946 1.64279 2.19453 2.48914 1.25589 2.60084C0.317249 2.71254 0.0287678 2.17122 0.22683 1.78457C-0.255408 2.46336 0.0632094 2.94883 1.02338 2.89728C2.25202 2.76044 3.39793 2.21222 4.27418 1.34206Z" fill="#0060FF"/>
<path opacity="0.1" d="M3.15925 0.457193C2.77584 0.535974 2.40401 0.66301 2.05268 0.835256L2.46173 1.69449C2.81606 1.53035 3.1475 1.32095 3.44773 1.07155C3.96011 0.611856 3.81802 0.341196 3.15925 0.457193Z" fill="black"/>
<path opacity="0.2" d="M3.64136 0.006063C2.6603 0.119904 1.72641 0.488787 0.933082 1.07581C1.0192 1.03285 2.57355 0.0662092 3.64567 0.0962825C4.58431 0.117763 4.71348 0.478643 4.62737 0.800857C4.82974 0.285314 4.47236 -0.0497874 3.64136 0.006063Z" fill="white"/>
<path d="M14.2719 11.4253C14.6835 12.2842 14.8981 13.2237 14.9003 14.1757C14.9024 15.1276 14.692 16.0681 14.2844 16.9288C13.8767 17.7895 13.2821 18.5488 12.5436 19.1516C11.8051 19.7543 10.9414 20.1854 10.0151 20.4134C9.0888 20.6415 8.12323 20.6608 7.18851 20.47C6.2538 20.2792 5.37342 19.883 4.61132 19.3103C3.84922 18.7376 3.22453 18.0027 2.78265 17.159C2.34076 16.3152 2.09276 15.3839 2.05667 14.4326C2.06132 13.6479 2.31952 12.8855 2.79294 12.2588C4.33869 10.0076 7.80477 8.34924 10.5432 8.55546C11.3268 8.58011 12.0816 8.85577 12.696 9.34166C13.3601 9.91999 13.8967 10.6295 14.2719 11.4253Z" fill="#0060FF"/>
<path opacity="0.1" d="M14.2719 11.4253C14.6835 12.2842 14.8981 13.2237 14.9003 14.1757C14.9024 15.1276 14.692 16.0681 14.2844 16.9288C13.8767 17.7895 13.2821 18.5488 12.5436 19.1516C11.8051 19.7543 10.9414 20.1854 10.0151 20.4134C9.0888 20.6415 8.12323 20.6608 7.18851 20.47C6.2538 20.2792 5.37342 19.883 4.61132 19.3103C3.84922 18.7376 3.22453 18.0027 2.78265 17.159C2.34076 16.3152 2.09276 15.3839 2.05667 14.4326C2.06132 13.6479 2.31952 12.8855 2.79294 12.2588C4.33869 10.0076 7.80477 8.34924 10.5432 8.55546C11.3268 8.58011 12.0816 8.85577 12.696 9.34166C13.3601 9.91999 13.8967 10.6295 14.2719 11.4253Z" fill="black"/>
<path opacity="0.1" d="M14.272 11.4253C13.8972 10.6461 13.3686 9.95053 12.7176 9.38032C12.6401 10.3641 12.4292 13.3715 12.4292 13.3715C13.4367 15.4723 13.2688 19.0038 11.2623 19.9661C12.7942 19.2292 13.971 17.9167 14.5351 16.316C15.0991 14.7152 15.0046 12.9566 14.272 11.4253Z" fill="black"/>
<path d="M12.6789 13.0321C11.1332 15.2876 7.66713 16.9459 4.9287 16.7397C3.13754 16.6022 2.10847 15.6957 2.04819 14.4498C2.05284 13.6651 2.31105 12.9027 2.78447 12.276C4.33021 10.0248 7.7963 8.36644 10.5347 8.57266C11.3183 8.59731 12.0732 8.87297 12.6876 9.35886C13.6305 10.1837 13.6908 11.5542 12.6789 13.0321Z" fill="#0060FF"/>
<g style="mix-blend-mode:hard-light" opacity="0.2">
<path d="M4.53245 15.7215C2.48724 14.9869 2.62933 12.4822 3.3613 11.5714C3.15712 11.794 2.96729 12.0294 2.79294 12.276C2.31952 12.9027 2.06132 13.665 2.05667 14.4498C2.11695 15.6957 3.14601 16.5979 4.93718 16.7397C7.24934 16.9158 10.104 15.7516 11.8263 14.0202C9.639 15.5196 6.54751 16.4519 4.53245 15.7215Z" fill="white"/>
</g>
<g style="mix-blend-mode:hard-light" opacity="0.2">
<path d="M5.82423 8.78745L5.49269 8.10006L2.74997 2.39043C2.32991 2.59402 1.88362 2.7386 1.42381 2.82005L4.31293 8.83471C3.07829 9.75812 2.19891 11.0766 1.82192 12.5695C1.44492 14.0624 1.59318 15.6392 2.24189 17.0361C3.79194 20.254 7.32262 22.256 11.413 20.2969C5.01046 21.1433 1.17839 13.5519 5.82423 8.78745Z" fill="white"/>
</g>
</svg>
