<svg width="112" height="40" viewBox="0 0 112 40" fill="none" xmlns="http://www.w3.org/2000/svg">
<rect width="50" height="40" rx="5" fill="#FBBC05"/>
<rect x="62" width="50" height="40" rx="5" fill="#FBBC05"/>
<path fill-rule="evenodd" clip-rule="evenodd" d="M29.5002 8.36561C28.9479 7.87813 28.0548 7.87813 27.5039 8.36561L15.8273 18.6951C15.5659 18.9228 15.3578 19.1968 15.2156 19.5005C15.0733 19.8043 15 20.1313 15 20.4619C15 20.7924 15.0733 21.1195 15.2156 21.4232C15.3578 21.7269 15.5659 22.001 15.8273 22.2287L27.5884 32.6344C27.8553 32.8669 28.2088 32.9976 28.5771 33C28.9453 33.0023 29.3007 32.876 29.5711 32.6469C29.7051 32.5337 29.8122 32.3965 29.886 32.2439C29.9598 32.0912 29.9986 31.9263 30 31.7593C30.0014 31.5923 29.9654 31.4268 29.8942 31.2731C29.823 31.1194 29.7181 30.9808 29.5861 30.8657L18.8218 21.345C18.691 21.2311 18.5868 21.094 18.5156 20.9421C18.4445 20.7902 18.4078 20.6266 18.4078 20.4612C18.4078 20.2959 18.4445 20.1323 18.5156 19.9804C18.5868 19.8285 18.691 19.6914 18.8218 19.5775L29.5002 10.1318C29.631 10.018 29.7351 9.88107 29.8063 9.72925C29.8774 9.57743 29.9141 9.41393 29.9141 9.24869C29.9141 9.08345 29.8774 8.91994 29.8063 8.76812C29.7351 8.6163 29.631 8.47935 29.5002 8.36561Z" fill="black"/>
<path fill-rule="evenodd" clip-rule="evenodd" d="M80.4998 32.6344C81.0521 33.1219 81.9452 33.1219 82.4961 32.6344L94.1727 22.3049C94.4341 22.0772 94.6422 21.8032 94.7844 21.4995C94.9267 21.1957 95 20.8687 95 20.5381C95 20.2076 94.9267 19.8805 94.7844 19.5768C94.6422 19.2731 94.4341 18.999 94.1727 18.7713L82.4116 8.36562C82.1447 8.13306 81.7912 8.00235 81.4229 8.00003C81.0547 7.99771 80.6993 8.12395 80.4289 8.35312C80.2949 8.46629 80.1878 8.60346 80.114 8.75613C80.0402 8.90881 80.0014 9.07374 80 9.24072C79.9986 9.40769 80.0346 9.57315 80.1058 9.72685C80.177 9.88056 80.2819 10.0192 80.4139 10.1343L91.1782 19.655C91.309 19.7689 91.4132 19.906 91.4844 20.0579C91.5555 20.2098 91.5922 20.3734 91.5922 20.5388C91.5922 20.7041 91.5555 20.8677 91.4844 21.0196C91.4132 21.1715 91.309 21.3086 91.1782 21.4225L80.4998 30.8682C80.369 30.982 80.2649 31.1189 80.1937 31.2707C80.1226 31.4226 80.0859 31.5861 80.0859 31.7513C80.0859 31.9165 80.1226 32.0801 80.1937 32.2319C80.2649 32.3837 80.369 32.5206 80.4998 32.6344Z" fill="black"/>
</svg>
