<svg width="62" height="160" viewBox="0 0 62 160" fill="none" xmlns="http://www.w3.org/2000/svg">
<path d="M59.7084 84.6762C59.2119 65.0579 51.3479 59.6769 48.2514 58.2608L35.6413 55.4582C31.7921 55.9243 15.3968 61.3584 10.8749 62.5975C7.97064 63.3881 8.1041 69.6424 6.63595 79.9442C5.44541 88.3108 4.77806 95.3616 4.06267 107.026C3.4594 116.803 2.74934 127.937 4.31359 141.767C24.2591 148.493 43.3985 151.715 58.2349 139.153C57.8878 136.398 59.3987 113.446 59.5215 106.702C59.6443 99.9579 59.8418 89.9865 59.7084 84.6762Z" fill="#FAFAFA"/>
<path d="M7.47424 63.0638L23.4371 57.4644C23.4371 57.4644 24.7878 62.0548 27.7668 70.9052C30.7458 79.7556 30.575 85.2074 29.6834 100.029C28.7918 114.85 28.5035 146.723 27.2276 159.987C21.2589 160.294 4.89029 155.031 0 147.721C0 147.721 1.69238 120.851 2.45582 105.687C3.21926 90.5236 0.42176 66.6688 7.47424 63.0638Z" fill="#BA68C8"/>
<path opacity="0.15" d="M7.47424 63.0638L23.4371 57.4644C23.4371 57.4644 24.7878 62.0548 27.7668 70.9052C30.7458 79.7556 30.575 85.2074 29.6834 100.029C28.7918 114.85 28.5035 146.723 27.2276 159.987C21.2589 160.294 4.89029 155.031 0 147.721C0 147.721 1.69238 120.851 2.45582 105.687C3.21926 90.5236 0.42176 66.6688 7.47424 63.0638Z" fill="black"/>
<path d="M41.2362 58.0131C46.4575 60.8924 49.6341 67.9196 50.1466 77.242C50.6591 86.5644 52.5277 105.215 52.816 112.242C54.1133 142.788 55.5227 150.995 55.5227 150.995C58.1173 149.52 61.3419 147.774 61.8011 143.573C61.2191 137.035 60.8561 112.048 60.8081 106.212C60.76 100.377 60.461 86.883 60.2742 79.7496C60.0873 72.6162 58.5231 63.6242 53.1256 58.786C49.3195 57.5228 45.3982 56.7312 41.4338 56.4259L41.2362 58.0131Z" fill="#BA68C8"/>
<path opacity="0.15" d="M41.2362 58.0131C46.4575 60.8924 49.6341 67.9196 50.1466 77.242C50.6591 86.5644 52.5277 105.215 52.816 112.242C54.1133 142.788 55.5227 150.995 55.5227 150.995C58.1173 149.52 61.3419 147.774 61.8011 143.573C61.2191 137.035 60.8561 112.048 60.8081 106.212C60.76 100.377 60.461 86.883 60.2742 79.7496C60.0873 72.6162 58.5231 63.6242 53.1256 58.786C49.3195 57.5228 45.3982 56.7312 41.4338 56.4259L41.2362 58.0131Z" fill="black"/>
<path d="M50.5258 82.6348C50.3497 75.7964 47.8565 63.3409 41.45 60.2138C41.2558 59.5073 41.1834 58.7668 41.2364 58.0307L41.5941 54.5259C43.5144 55.4981 45.3257 56.7138 46.9916 58.1487C49.661 60.5088 54.0708 67.5183 54.909 72.8993C52.2663 69.9079 50.7608 74.1738 50.5258 82.6348Z" fill="#BA68C8"/>
<path opacity="0.45" d="M50.5258 82.6348C50.3497 75.7964 47.8565 63.3409 41.45 60.2138C41.2558 59.5073 41.1834 58.7668 41.2364 58.0307L41.5941 54.5259C43.5144 55.4981 45.3257 56.7138 46.9916 58.1487C49.661 60.5088 54.0708 67.5183 54.909 72.8993C52.2663 69.9079 50.7608 74.1738 50.5258 82.6348Z" fill="white"/>
<path d="M24.286 50.7028C23.1488 46.0475 18.4668 41.5574 16.1925 37.6337C13.9982 33.8516 12.6315 30.8838 12.5194 27.1195C12.4554 24.8951 13.459 21.7561 14.8898 20.9714C12.466 12.9234 17.7247 8.51595 20.629 7.40081C21.9925 6.93466 23.3266 6.36896 24.6223 5.70743C26.1759 4.79289 26.4162 3.34733 27.612 1.96077C29.6728 -0.399327 33.4419 -0.818246 35.1503 2.20858C36.4583 -0.0748143 38.487 -0.23412 40.8788 0.178897C41.8866 0.322002 42.8074 0.883169 43.4547 1.74868C44.1021 2.61419 44.4275 3.71931 44.365 4.8401C47.3227 2.5803 50.3978 4.71619 50.8569 6.71638C51.1986 8.19144 51.0171 9.4836 52.0208 10.7285C53.1472 12.1387 55.0371 11.9086 55.5016 10.6341C56.0088 12.7287 55.3948 14.428 53.3021 14.5283C53.707 15.0854 53.996 15.7342 54.1482 16.4287C54.3005 17.1232 54.3123 17.8462 54.1829 18.5464C54.0049 19.4247 53.5894 20.2224 52.9915 20.8337C52.3937 21.4449 51.6417 21.8407 50.8356 21.9685C50.7181 23.1486 50.7608 24.2342 50.1842 25.3081C49.6462 26.3981 48.8767 27.3274 47.942 28.0163C44.9256 30.0106 41.4767 30.9192 38.1347 32.058L34.1787 33.4032C33.9438 33.4858 32.7319 33.6923 32.6091 33.9401L24.286 50.7028Z" fill="#263238"/>
<path d="M18.5682 45.1269C21.7714 46.7966 23.608 44.4365 23.608 44.4365L23.955 52.7736L24.1258 61.801C24.1258 61.801 32.6678 71.8904 44.2689 71.2827C44.8562 68.4034 44.0073 63.3527 42.1334 60.8746L41.8451 53.4934C43.5489 53.3461 45.2427 53.082 46.9169 52.7028C50.2323 51.8472 52.8162 48.6139 53.4248 44.4955C54.0655 40.1883 53.7505 33.285 52.4959 28.3524C52.1537 27.0945 51.9739 25.7895 51.962 24.476C51.9887 20.9889 51.252 19.0418 50.2002 16.2156C46.2229 13.3186 35.7162 13.7316 28.21 19.9151C30.3241 24.24 29.6247 28.9071 26.3681 31.2672C26.6511 32.6655 27.1155 36.2234 25.0067 36.3768C23.4852 36.4889 23.2022 34.4002 21.4885 32.7127C19.7748 31.0253 16.1017 30.9072 14.9272 33.7866C13.2882 37.8164 15.0873 43.2978 18.5682 45.1269Z" fill="#FFA8A7"/>
<path d="M41.8505 53.4935C36.469 53.3578 32.3689 53.1395 29.2297 49.1686C27.2597 46.6728 25.4179 42.5308 25.4179 42.5308C25.4179 42.5308 26.4109 47.6818 28.4556 51.0331C30.0252 53.6115 33.5114 55.535 41.9306 55.4524L41.8505 53.4935Z" fill="#F28F8F"/>
<path d="M37.6328 30.4352C37.6448 30.7623 37.5692 31.086 37.4155 31.3659C37.2618 31.6457 37.0368 31.8692 36.7688 32.0084C36.5007 32.1476 36.2014 32.1964 35.9083 32.1485C35.6153 32.1006 35.3416 31.9582 35.1214 31.7392C34.9012 31.5203 34.7444 31.2343 34.6706 30.9173C34.5967 30.6003 34.6091 30.2662 34.7062 29.9569C34.8034 29.6477 34.9809 29.3769 35.2166 29.1786C35.4522 28.9803 35.7356 28.8633 36.0312 28.8421C36.4345 28.8196 36.8295 28.9746 37.1297 29.2731C37.4298 29.5717 37.6107 29.9895 37.6328 30.4352Z" fill="#263238"/>
<path d="M36.0632 25.6206L32.9507 27.78C32.6963 27.3076 32.617 26.7448 32.7295 26.2092C32.8419 25.6737 33.1373 25.207 33.554 24.9066C33.7597 24.7656 33.9892 24.6721 34.2285 24.6317C34.4678 24.5914 34.712 24.6049 34.9465 24.6716C35.1809 24.7383 35.4007 24.8568 35.5927 25.0199C35.7846 25.183 35.9446 25.3873 36.0632 25.6206Z" fill="#263238"/>
<path d="M50.0614 24.9598L46.4097 24.2518C46.4401 23.9872 46.5187 23.7323 46.6408 23.5023C46.7629 23.2723 46.9259 23.072 47.1201 22.9137C47.3143 22.7554 47.5355 22.6423 47.7703 22.5812C48.0052 22.5201 48.2488 22.5124 48.4865 22.5584C48.9774 22.6594 49.4145 22.9649 49.7076 23.4117C50.0007 23.8586 50.1273 24.4128 50.0614 24.9598Z" fill="#263238"/>
<path d="M49.7357 28.7359C49.7473 29.0617 49.672 29.384 49.5192 29.6629C49.3664 29.9418 49.1428 30.1649 48.8762 30.3045C48.6097 30.4442 48.3119 30.4942 48.0198 30.4484C47.7277 30.4026 47.4543 30.263 47.2334 30.0469C47.0125 29.8308 46.854 29.5477 46.7774 29.2329C46.7008 28.918 46.7097 28.5853 46.8028 28.2759C46.8959 27.9666 47.0691 27.6943 47.3011 27.4928C47.533 27.2914 47.8134 27.1697 48.1074 27.1428C48.3091 27.1284 48.5114 27.1583 48.7026 27.2307C48.8939 27.3032 49.0702 27.4167 49.2216 27.5648C49.373 27.7128 49.4963 27.8925 49.5845 28.0935C49.6728 28.2945 49.7242 28.5129 49.7357 28.7359Z" fill="#263238"/>
<path d="M48.3102 35.2204L43.3079 38.3476L40.7292 27.2197C42.5978 26.2344 45.5394 31.1611 48.3102 35.2204Z" fill="#F28F8F"/>
<path d="M38.1985 41.5513L44.605 42.3715C44.5751 42.8401 44.4601 43.2973 44.2669 43.7158C44.0737 44.1343 43.8061 44.5055 43.4803 44.8073C43.1545 45.109 42.7769 45.3351 42.3703 45.4722C41.9637 45.6092 41.5362 45.6543 41.1135 45.6048C40.2472 45.4778 39.4594 44.9844 38.9157 44.2284C38.372 43.4723 38.1149 42.5126 38.1985 41.5513Z" fill="#B16668"/>
<path d="M39.0582 42.5957C38.7961 42.5969 38.5348 42.6285 38.2787 42.6901C38.4169 43.4401 38.7632 44.1239 39.2694 44.6463C39.7755 45.1687 40.4164 45.5037 41.1029 45.6049C41.4479 45.6421 41.796 45.6162 42.1333 45.5281C42.0906 43.9233 40.7399 42.6193 39.0582 42.5957Z" fill="#F28F8F"/>
<path d="M30.2385 85.1247C29.8648 71.6957 24.8998 70.498 23.3622 74.7403C19.5931 67.0699 19.9241 60.8334 20.2017 58.3612C21.5845 56.2017 22.129 54.821 22.5988 54.0304C22.8892 53.4357 23.3743 52.9861 23.9549 52.7736L24.099 56.1486C24.099 56.1486 24.4781 60.084 27.6599 65.3294C29.9983 69.1822 30.5482 73.8611 30.2385 85.1247Z" fill="#BA68C8"/>
<path opacity="0.45" d="M30.2385 85.1247C29.8648 71.6957 24.8998 70.498 23.3622 74.7403C19.5931 67.0699 19.9241 60.8334 20.2017 58.3612C21.5845 56.2017 22.129 54.821 22.5988 54.0304C22.8892 53.4357 23.3743 52.9861 23.9549 52.7736L24.099 56.1486C24.099 56.1486 24.4781 60.084 27.6599 65.3294C29.9983 69.1822 30.5482 73.8611 30.2385 85.1247Z" fill="white"/>
</svg>
