<svg width="15" height="25" viewBox="0 0 15 25" fill="none" xmlns="http://www.w3.org/2000/svg">
<path fill-rule="evenodd" clip-rule="evenodd" d="M0.49979 24.6344C1.05205 25.1219 1.94522 25.1219 2.49612 24.6344L14.1727 14.3049C14.4341 14.0772 14.6422 13.8032 14.7844 13.4995C14.9267 13.1957 15 12.8687 15 12.5381C15 12.2076 14.9267 11.8805 14.7844 11.5768C14.6422 11.2731 14.4341 10.999 14.1727 10.7713L2.41157 0.365618C2.14465 0.133064 1.79117 0.00235299 1.42292 3.14595e-05C1.05468 -0.00229007 0.699269 0.123952 0.428883 0.353118C0.294937 0.466288 0.187764 0.603458 0.113998 0.756134C0.0402326 0.908811 0.0014458 1.07374 3.96542e-05 1.24072C-0.00136649 1.40769 0.0346379 1.57315 0.105823 1.72685C0.177009 1.88056 0.28186 2.01923 0.413883 2.13428L11.1782 11.655C11.309 11.7689 11.4132 11.906 11.4844 12.0579C11.5555 12.2098 11.5922 12.3734 11.5922 12.5388C11.5922 12.7041 11.5555 12.8677 11.4844 13.0196C11.4132 13.1715 11.309 13.3086 11.1782 13.4225L0.49979 22.8682C0.369034 22.982 0.264906 23.1189 0.193749 23.2707C0.122593 23.4226 0.085897 23.5861 0.085897 23.7513C0.085897 23.9165 0.122593 24.0801 0.193749 24.2319C0.264906 24.3837 0.369034 24.5206 0.49979 24.6344Z" fill="black"/>
</svg>
