<svg width="19" height="2" viewBox="0 0 19 2" fill="none" xmlns="http://www.w3.org/2000/svg">
<path d="M18.9998 0.00027257C18.7596 0.0725253 18.5137 0.124209 18.2649 0.154776C17.814 0.236573 17.0971 0.345637 16.2405 0.468332C14.0096 0.782588 11.7644 0.982789 9.51343 1.06817C7.25522 1.15473 4.99375 1.06053 2.75033 0.78643C1.89367 0.672824 1.20383 0.559216 0.730414 0.459242C0.482363 0.421326 0.237996 0.362033 0 0.282015C0.249862 0.290838 0.498628 0.31971 0.74394 0.368358C1.22187 0.441066 1.91621 0.527409 2.77287 0.618294C5.00625 0.843976 7.25234 0.915337 9.49539 0.831876C12.124 0.74099 14.5001 0.4956 16.2134 0.300196L18.2423 0.0638922C18.4923 0.0186046 18.7459 -0.00269707 18.9998 0.00027257Z" fill="white"/>
</svg>
