<svg width="63" height="62" viewBox="0 0 63 62" fill="none" xmlns="http://www.w3.org/2000/svg">
<path d="M62.8004 15.6819C62.7652 15.1461 62.6948 14.6133 62.5897 14.0869C62.1362 11.9419 61.1713 9.94058 59.7784 8.25575C58.3855 6.57092 56.6065 5.2533 54.5951 4.41677L44.2093 0L32.3399 0.30774C32.3399 0.30774 23.5195 4.36909 21.7434 6.48428C21.6101 6.64032 20.4275 7.81928 20.35 8.27873L11.4179 35.0048L0 42.1782L3.13078 46.2005L19.963 44.5925L22.0014 41.2507C20.8876 43.7689 16.4452 53.9852 16.4452 57.1146C16.4452 57.1146 42.4246 62.719 52.7673 61.6701C57.3173 61.2063 58.3967 60.7772 58.3967 60.7772L55.3605 49.3083C57.8763 49.135 60.4481 47.5746 61.4802 45.4074C63.2735 41.6494 63.123 20.7272 62.8004 15.6819Z" fill="#FFC727"/>
</svg>
