<svg width="53" height="100" viewBox="0 0 53 100" fill="none" xmlns="http://www.w3.org/2000/svg">
<mask id="mask0_403_7512" style="mask-type:luminance" maskUnits="userSpaceOnUse" x="-8" y="-6" width="61" height="114">
<path d="M52.6894 46.9773L42.2196 53.472L35.7853 57.4446C35.5782 57.5582 35.3762 57.6881 35.1792 57.8234C33.9237 58.6459 32.8877 59.8021 32.1718 61.18C31.456 62.5578 31.0845 64.1104 31.0934 65.6874V97.9173C31.0976 99.3527 30.7856 100.769 30.1827 102.051C29.5798 103.333 28.703 104.444 27.6237 105.294C26.127 106.504 24.3064 107.164 22.4317 107.178C20.9197 107.174 19.4353 106.743 18.1287 105.927C14.1901 103.489 10.9196 99.9823 8.64572 95.7605C6.37182 91.5387 5.17455 86.75 5.17416 81.8754V48.4332C5.17503 43.5562 3.97784 38.765 1.70293 34.5411C-0.571972 30.3171 -3.84442 26.8094 -7.78545 24.3704L39.7449 -5.0126C43.6851 -2.57224 46.9572 0.935676 49.2328 5.15919C51.5083 9.38269 52.7074 14.1732 52.7096 19.0502V33.6091C52.6944 37.7765 52.6894 46.9773 52.6894 46.9773Z" fill="white"/>
</mask>
<g mask="url(#mask0_403_7512)">
<path d="M0.653818 24.5438C1.22469 25.0135 1.91109 25.2945 2.62881 25.3521C3.34653 25.4098 4.06436 25.2418 4.69423 24.8685L38.5983 3.89613C39.871 3.10595 40.169 1.63382 39.1741 0.713738C38.1791 -0.206342 36.2751 -0.21716 35.0023 0.567614L1.07806 21.5563C-0.194666 22.341 -0.346183 23.6291 0.653818 24.5438Z" fill="#407BFF"/>
<path opacity="0.4" d="M27.9924 16.6089C27.9103 16.6076 27.8308 16.5778 27.7659 16.5239C27.701 16.47 27.6542 16.3949 27.6325 16.3101C27.6109 16.2252 27.6155 16.135 27.6458 16.0533C27.6761 15.9715 27.7304 15.9024 27.8005 15.8566L43.654 6.04961C43.7393 5.99831 43.84 5.98488 43.9344 6.0122C44.0288 6.03952 44.1095 6.10541 44.1591 6.19574C44.2057 6.28744 44.2175 6.39484 44.1921 6.49563C44.1667 6.59642 44.106 6.68286 44.0227 6.73697L28.1793 16.5548C28.1225 16.5901 28.058 16.6087 27.9924 16.6089Z" fill="black"/>
<path opacity="0.4" d="M29.2145 18.7956C29.1482 18.7959 29.083 18.7776 29.0254 18.7425C28.9678 18.7073 28.9198 18.6566 28.8862 18.5954C28.8408 18.5034 28.8297 18.3964 28.855 18.296C28.8803 18.1956 28.9402 18.1091 29.0225 18.0541L44.8761 8.24716C44.9615 8.20578 45.0583 8.19982 45.1476 8.23046C45.2369 8.2611 45.3124 8.32616 45.3596 8.41303C45.4067 8.49991 45.4221 8.60243 45.4027 8.70076C45.3834 8.79909 45.3307 8.88623 45.2549 8.94534L29.4013 18.7415C29.3448 18.7775 29.2802 18.7963 29.2145 18.7956Z" fill="black"/>
<path opacity="0.4" d="M30.24 21.0742C30.1583 21.0718 30.0796 21.0411 30.0155 20.9868C29.9514 20.9325 29.9054 20.8574 29.8844 20.7728C29.8633 20.6882 29.8684 20.5986 29.8988 20.5173C29.9293 20.436 29.9834 20.3675 30.0531 20.3219L45.9067 10.5149C45.992 10.4636 46.0926 10.4502 46.187 10.4775C46.2815 10.5048 46.3621 10.5707 46.4117 10.661C46.4579 10.7534 46.4689 10.8613 46.4426 10.9621C46.4162 11.063 46.3545 11.149 46.2703 11.2023L30.4218 21.0092C30.3674 21.0472 30.3048 21.0696 30.24 21.0742Z" fill="black"/>
<path opacity="0.4" d="M31.0683 23.4443C31.002 23.4447 30.9368 23.4263 30.8792 23.3912C30.8215 23.3561 30.7736 23.3053 30.74 23.2441C30.6946 23.1521 30.6835 23.0452 30.7088 22.9447C30.7341 22.8443 30.794 22.7579 30.8763 22.7029L46.7299 12.8959C46.8152 12.8446 46.9158 12.8312 47.0102 12.8585C47.1047 12.8858 47.1853 12.9517 47.2349 13.042C47.2815 13.1337 47.2933 13.2411 47.2679 13.3419C47.2425 13.4427 47.1819 13.5292 47.0986 13.5833L31.245 23.3902C31.1915 23.4244 31.1306 23.4431 31.0683 23.4443Z" fill="black"/>
<path opacity="0.4" d="M31.6639 25.7665C31.5983 25.767 31.5337 25.7487 31.4769 25.7135C31.4201 25.6783 31.3731 25.6275 31.3407 25.5663C31.2928 25.4749 31.2803 25.367 31.3058 25.2658C31.3313 25.1646 31.3928 25.0782 31.4771 25.025L47.3205 15.2073C47.3626 15.1811 47.4091 15.1642 47.4573 15.1574C47.5055 15.1506 47.5545 15.1541 47.6014 15.1677C47.6483 15.1813 47.6923 15.2047 47.7308 15.2365C47.7693 15.2684 47.8015 15.3081 47.8255 15.3534C47.8734 15.4448 47.886 15.5526 47.8605 15.6538C47.835 15.755 47.7735 15.8415 47.6892 15.8946L31.8407 25.7016C31.7878 25.7387 31.727 25.761 31.6639 25.7665Z" fill="black"/>
<path opacity="0.4" d="M32.0781 28.2613C31.9943 28.2633 31.9123 28.2351 31.8453 28.1811C31.7783 28.1272 31.7301 28.0507 31.7086 27.9639C31.687 27.8771 31.6933 27.7851 31.7264 27.7025C31.7596 27.62 31.8176 27.5519 31.8913 27.509L47.7398 17.702C47.8252 17.6606 47.9219 17.6547 48.0113 17.6853C48.1006 17.716 48.1761 17.781 48.2232 17.8679C48.2704 17.9548 48.2857 18.0573 48.2664 18.1556C48.2471 18.2539 48.1944 18.3411 48.1185 18.4002L32.265 28.2072C32.2087 28.2437 32.1439 28.2625 32.0781 28.2613Z" fill="black"/>
<path opacity="0.4" d="M32.3003 30.9248C32.2165 30.9268 32.1345 30.8986 32.0675 30.8446C32.0004 30.7907 31.9523 30.7142 31.9307 30.6274C31.9092 30.5406 31.9154 30.4485 31.9486 30.366C31.9817 30.2835 32.0398 30.2153 32.1134 30.1725L47.9619 20.3655C48.0474 20.3241 48.1441 20.3182 48.2334 20.3488C48.3227 20.3794 48.3983 20.4445 48.4454 20.5314C48.4925 20.6182 48.5079 20.7208 48.4886 20.8191C48.4692 20.9174 48.4165 21.0046 48.3407 21.0637L32.4872 30.8652C32.4312 30.9032 32.3665 30.9238 32.3003 30.9248Z" fill="black"/>
<path opacity="0.4" d="M9.6991 49.9161C9.65189 49.9154 9.60566 49.9016 9.56493 49.8759C9.52421 49.8503 9.49039 49.8138 9.46678 49.77C9.43217 49.7039 9.42337 49.6258 9.4423 49.5528C9.46122 49.4798 9.50634 49.4178 9.56779 49.3803L48.0274 25.5665C48.0885 25.5289 48.1609 25.5187 48.2289 25.5379C48.297 25.5572 48.3552 25.6044 48.3911 25.6693C48.4091 25.7015 48.4209 25.7373 48.4258 25.7745C48.4308 25.8116 48.4287 25.8495 48.4197 25.8858C48.4108 25.9221 48.3952 25.9562 48.3738 25.9859C48.3523 26.0157 48.3256 26.0405 48.2951 26.059L9.83042 49.8728C9.79122 49.9 9.74577 49.915 9.6991 49.9161Z" fill="black"/>
<path opacity="0.4" d="M9.6991 52.4601C9.65189 52.4593 9.60566 52.4455 9.56493 52.4199C9.52421 52.3943 9.49039 52.3578 9.46678 52.3139C9.43217 52.2479 9.42337 52.1698 9.4423 52.0968C9.46122 52.0238 9.50634 51.9617 9.56779 51.9243L48.0274 28.1104C48.0891 28.0733 48.1619 28.0639 48.2301 28.0842C48.2982 28.1045 48.3561 28.1528 48.3911 28.2187C48.409 28.2505 48.4207 28.2858 48.4256 28.3226C48.4304 28.3594 48.4283 28.3968 48.4194 28.4327C48.4104 28.4686 48.3948 28.5021 48.3734 28.5314C48.3521 28.5606 48.3254 28.585 48.2951 28.6029L9.83042 52.4168C9.79039 52.442 9.74542 52.4568 9.6991 52.4601Z" fill="black"/>
<path opacity="0.4" d="M9.6991 55.0036C9.65189 55.0029 9.60566 54.989 9.56493 54.9634C9.52421 54.9378 9.49039 54.9013 9.46678 54.8574C9.43217 54.7914 9.42337 54.7133 9.4423 54.6403C9.46122 54.5673 9.50634 54.5052 9.56779 54.4678L48.0274 30.6539C48.089 30.6159 48.1622 30.6056 48.2309 30.6254C48.2996 30.6452 48.3581 30.6934 48.3936 30.7595C48.4291 30.8255 48.4386 30.9039 48.4202 30.9775C48.4017 31.0511 48.3567 31.1138 48.2951 31.1519L9.83042 54.9657C9.78996 54.989 9.74501 55.002 9.6991 55.0036Z" fill="black"/>
<path opacity="0.4" d="M9.69946 57.5469C9.65225 57.5462 9.60602 57.5323 9.56529 57.5067C9.52457 57.4811 9.49075 57.4446 9.46714 57.4008C9.44943 57.3686 9.43797 57.333 9.43347 57.296C9.42897 57.259 9.43152 57.2214 9.44096 57.1855C9.4504 57.1496 9.46654 57.1161 9.4884 57.087C9.51026 57.058 9.53739 57.034 9.56815 57.0165L48.0278 33.2027C48.088 33.1744 48.1557 33.1708 48.2182 33.1926C48.2807 33.2145 48.3335 33.2602 48.3666 33.321C48.3996 33.3819 48.4107 33.4536 48.3975 33.5226C48.3844 33.5916 48.3481 33.653 48.2955 33.6952L9.83078 57.509C9.79128 57.5348 9.74571 57.5479 9.69946 57.5469Z" fill="black"/>
<path opacity="0.4" d="M9.69928 46.2141C9.63544 46.2238 9.57051 46.208 9.51686 46.1696C9.46321 46.1313 9.4246 46.0732 9.40837 46.0063C9.39215 45.9394 9.39944 45.8685 9.42888 45.807C9.45831 45.7455 9.50782 45.6978 9.56797 45.6729L29.9266 33.0732C29.9568 33.049 29.9915 33.032 30.0283 33.0231C30.0651 33.0143 30.1032 33.0139 30.1402 33.022C30.1772 33.03 30.2121 33.0464 30.2428 33.0699C30.2734 33.0935 30.2991 33.1237 30.3181 33.1587C30.3371 33.1936 30.349 33.2325 30.3529 33.2727C30.3569 33.3129 30.353 33.3535 30.3413 33.3919C30.3296 33.4304 30.3104 33.4657 30.2851 33.4957C30.2598 33.5256 30.2288 33.5495 30.1942 33.5658L9.8306 46.1654C9.7922 46.195 9.74655 46.212 9.69928 46.2141Z" fill="black"/>
<path d="M9.12371 31.6063C10.742 34.9675 11.6849 38.655 11.8914 42.4308C11.8852 42.5113 11.9012 42.5921 11.9375 42.6629C11.9739 42.7338 12.0289 42.7916 12.0957 42.8291C12.1625 42.8667 12.2382 42.8823 12.3132 42.874C12.3883 42.8657 12.4594 42.8339 12.5177 42.7826L13.649 42.0844C13.8121 41.9649 13.9441 41.8028 14.0325 41.6134C14.1209 41.424 14.1627 41.2135 14.154 41.0019C14.0287 39.0378 13.7191 37.0922 13.2298 35.1946C12.7541 33.4792 12.1442 31.81 11.4065 30.2045C11.3656 30.1227 11.3095 30.0506 11.2418 29.9926C11.174 29.9346 11.096 29.8919 11.0125 29.8671C10.9289 29.8423 10.8416 29.8359 10.7556 29.8483C10.6697 29.8608 10.587 29.8917 10.5126 29.9393L9.39644 30.6267C9.24595 30.7249 9.13476 30.8794 9.08439 31.0603C9.03401 31.2413 9.04802 31.4358 9.12371 31.6063Z" fill="#407BFF"/>
<path d="M12.4722 26.5676C13.6096 28.5184 14.5251 30.6079 15.1995 32.7917C15.8764 34.9976 16.2855 37.2878 16.4167 39.6057C16.4088 39.6856 16.4232 39.7663 16.4582 39.8375C16.4932 39.9087 16.5471 39.9671 16.6131 40.0054C16.6792 40.0437 16.7543 40.06 16.829 40.0525C16.9037 40.0449 16.9747 40.0137 17.0328 39.9629L18.1642 39.2593C18.3329 39.1436 18.4709 38.9832 18.5647 38.7935C18.6585 38.6038 18.7049 38.3914 18.6995 38.1768C18.544 35.8755 18.132 33.6024 17.4722 31.4061C16.8104 29.2328 15.9012 27.155 14.7652 25.2199C14.6649 25.0599 14.5126 24.9456 14.3379 24.8996C14.1632 24.8535 13.9788 24.879 13.8207 24.971L12.6945 25.6421C12.6206 25.6845 12.5558 25.7429 12.504 25.8136C12.4523 25.8842 12.4148 25.9656 12.3939 26.0526C12.3731 26.1396 12.3692 26.2303 12.3827 26.3189C12.3962 26.4075 12.4267 26.4922 12.4722 26.5676Z" fill="#407BFF"/>
<path d="M21.4214 28.9489L20.3103 29.6362C20.1528 29.7428 20.0315 29.9008 19.9642 30.087C19.8969 30.2731 19.8872 30.4775 19.9366 30.67C20.4874 32.6686 20.8262 34.7274 20.9467 36.8074C20.9399 36.887 20.9552 36.9669 20.9906 37.0372C21.026 37.1074 21.08 37.1649 21.1458 37.2025C21.2116 37.2401 21.2862 37.256 21.3604 37.2483C21.4346 37.2406 21.505 37.2096 21.5628 37.1592L22.6941 36.4611C22.8625 36.345 23.0002 36.1845 23.094 35.9949C23.1878 35.8053 23.2344 35.5931 23.2295 35.3786C23.0879 33.3042 22.7391 31.2521 22.1891 29.2574C22.1681 29.1745 22.129 29.0983 22.0751 29.0348C22.0212 28.9713 21.954 28.9225 21.879 28.8924C21.804 28.8622 21.7234 28.8516 21.6438 28.8615C21.5643 28.8713 21.488 28.9013 21.4214 28.9489Z" fill="#407BFF"/>
<path d="M25.9468 24.1104C25.9161 24.025 25.8677 23.9481 25.8052 23.8855C25.7428 23.823 25.6679 23.7764 25.5863 23.7493C25.5046 23.7222 25.4183 23.7153 25.3338 23.7291C25.2493 23.7429 25.1688 23.7771 25.0983 23.829L23.9771 24.5109C23.8218 24.613 23.7045 24.7699 23.6455 24.9546C23.5865 25.1394 23.5894 25.3404 23.6539 25.523C23.8559 26.0643 24.0478 26.6055 24.2398 27.2225C24.9172 29.4262 25.3246 31.7149 25.4519 34.0311C25.4455 34.1111 25.4611 34.1915 25.4968 34.2621C25.5325 34.3328 25.5868 34.3907 25.6528 34.4287C25.7189 34.4667 25.7939 34.4831 25.8686 34.4759C25.9433 34.4687 26.0144 34.4383 26.0731 34.3883L27.2044 33.6901C27.3721 33.5733 27.5093 33.4126 27.603 33.2232C27.6967 33.0338 27.7437 32.822 27.7398 32.6076C27.5826 30.2968 27.1672 28.0146 26.5024 25.8099C26.3458 25.22 26.1539 24.6571 25.9468 24.1104Z" fill="#407BFF"/>
<path opacity="0.4" d="M10.482 41.3268C10.4566 41.2808 10.4156 41.2472 10.3675 41.233C10.3194 41.2189 10.2681 41.2253 10.2244 41.251L9.74964 41.5433C9.64358 40.8451 9.52236 40.1523 9.3759 39.4704L10.0173 39.0753C10.0538 39.0446 10.0787 39.0008 10.0873 38.952C10.096 38.9032 10.0879 38.8526 10.0645 38.8097C10.0411 38.7668 10.004 38.7345 9.96002 38.7186C9.91607 38.7028 9.86824 38.7045 9.82539 38.7235L9.27994 39.0645C9.11832 38.3771 8.94156 37.6952 8.73449 37.0295L9.3456 36.656C9.38913 36.6295 9.42104 36.5855 9.4343 36.5337C9.44756 36.4819 9.44108 36.4267 9.4163 36.38C9.39152 36.3334 9.35047 36.2992 9.30216 36.285C9.25386 36.2707 9.20226 36.2777 9.15873 36.3042L8.60823 36.6452C8.39611 35.9957 8.17388 35.3517 7.9163 34.7239C7.9182 34.7077 7.9182 34.6913 7.9163 34.6752L8.52236 34.3017C8.54411 34.2888 8.56324 34.2713 8.57861 34.2503C8.59398 34.2294 8.60529 34.2053 8.61188 34.1796C8.61847 34.1539 8.6202 34.1271 8.61697 34.1006C8.61374 34.0742 8.60562 34.0487 8.59308 34.0257C8.56773 33.9797 8.52668 33.946 8.4786 33.9319C8.43053 33.9178 8.3792 33.9242 8.3355 33.9499L7.76479 34.3017C7.50216 33.6685 7.20923 33.0407 6.89105 32.4128L7.49206 32.0394C7.51381 32.0265 7.53294 32.009 7.54831 31.988C7.56368 31.9671 7.57499 31.943 7.58157 31.9173C7.58816 31.8916 7.58989 31.8647 7.58666 31.8383C7.58343 31.8119 7.57531 31.7864 7.56277 31.7634C7.53743 31.7174 7.49637 31.6837 7.4483 31.6696C7.40022 31.6554 7.3489 31.6619 7.3052 31.6876L6.70923 32.061C6.386 31.4549 6.04256 30.8541 5.66883 30.2588L6.35065 29.842C6.37251 29.8292 6.39167 29.8117 6.40694 29.7906C6.42222 29.7694 6.43328 29.7452 6.43944 29.7193C6.44559 29.6934 6.44671 29.6664 6.44273 29.6401C6.43875 29.6137 6.42976 29.5885 6.4163 29.566C6.40423 29.5427 6.38794 29.5222 6.36837 29.5057C6.34881 29.4893 6.32637 29.4771 6.30238 29.4701C6.27839 29.463 6.25332 29.4612 6.22866 29.4646C6.20399 29.4681 6.18021 29.4768 6.15873 29.4902L5.46176 29.9286C5.05772 29.3062 4.63852 28.6892 4.18398 28.0776C4.15054 28.0425 4.10625 28.0217 4.05947 28.0191C4.01269 28.0165 3.96664 28.0323 3.93 28.0636C3.89336 28.0949 3.86866 28.1394 3.86055 28.1889C3.85245 28.2383 3.8615 28.2892 3.886 28.332C4.33044 28.922 4.74458 29.5227 5.13347 30.1289L4.48701 30.5294C4.45167 30.5514 4.42402 30.5851 4.4083 30.6255C4.39258 30.666 4.38965 30.7108 4.39996 30.7531C4.41027 30.7955 4.43326 30.8331 4.4654 30.8601C4.49754 30.8872 4.53707 30.9022 4.57792 30.9028C4.60917 30.9132 4.64263 30.9132 4.67388 30.9028L5.34559 30.4915C5.71428 31.0868 6.06277 31.6822 6.38095 32.2884L5.62842 32.7538C5.59271 32.776 5.56487 32.8103 5.54924 32.8512C5.53362 32.8922 5.53109 32.9375 5.54205 32.9802C5.55301 33.0228 5.57684 33.0604 5.60983 33.087C5.64282 33.1136 5.6831 33.1278 5.72438 33.1273C5.75392 33.1376 5.78576 33.1376 5.81529 33.1273L6.56277 32.6672C6.88095 33.295 7.17388 33.9283 7.43651 34.5615L6.65873 35.0432C6.62302 35.0654 6.59517 35.0996 6.57955 35.1406C6.56392 35.1816 6.56139 35.2269 6.57235 35.2696C6.58331 35.3122 6.60715 35.3498 6.64013 35.3764C6.67312 35.403 6.7134 35.4171 6.75468 35.4166C6.78686 35.4178 6.81861 35.4084 6.8456 35.3896L7.58802 34.9295C7.8456 35.5682 8.09307 36.2285 8.29004 36.8942L7.49711 37.3867C7.46177 37.4087 7.43412 37.4424 7.4184 37.4828C7.40268 37.5233 7.39975 37.5681 7.41006 37.6104C7.42038 37.6528 7.44337 37.6904 7.47551 37.7174C7.50765 37.7445 7.54717 37.7595 7.58802 37.7601C7.61927 37.7705 7.65273 37.7705 7.68398 37.7601L8.41631 37.3055C8.62338 37.9766 8.80014 38.6531 8.95671 39.3459L8.16883 39.833C8.14708 39.846 8.12796 39.8634 8.11259 39.8844C8.09721 39.9053 8.0859 39.9294 8.07932 39.9551C8.07273 39.9808 8.071 40.0077 8.07423 40.0341C8.07746 40.0605 8.08558 40.086 8.09812 40.109C8.11443 40.1393 8.13803 40.1643 8.16647 40.1815C8.19491 40.1986 8.22712 40.2072 8.25974 40.2065C8.29099 40.2169 8.32445 40.2169 8.3557 40.2065L9.05267 39.7789C9.19913 40.4608 9.31529 41.159 9.4163 41.8572L8.56277 42.3984C8.52706 42.4206 8.49922 42.4549 8.48359 42.4958C8.46796 42.5368 8.46543 42.5821 8.47639 42.6248C8.48735 42.6674 8.51119 42.705 8.54418 42.7316C8.57717 42.7582 8.61744 42.7724 8.65873 42.7719C8.69091 42.7731 8.72266 42.7636 8.74964 42.7448L9.47692 42.2956C9.58803 43.1453 9.66378 44.0113 9.70923 44.888C9.71182 44.9393 9.73265 44.9874 9.76742 45.0227C9.80219 45.0579 9.84824 45.0775 9.8961 45.0775C9.92065 45.0761 9.94471 45.0695 9.96689 45.0582C9.98907 45.0468 10.0089 45.0308 10.0254 45.0112C10.0418 44.9916 10.0544 44.9687 10.0626 44.9439C10.0707 44.919 10.0742 44.8927 10.0729 44.8664C10.0274 43.9247 9.94156 42.9938 9.82035 42.0791L10.4163 41.7111C10.4587 41.7092 10.4992 41.6919 10.5312 41.6621C10.5632 41.6323 10.5848 41.5917 10.5924 41.547C10.6001 41.5023 10.5933 41.4562 10.5732 41.4162C10.5531 41.3761 10.521 41.3446 10.482 41.3268Z" fill="black"/>
<g opacity="0.15">
<path d="M12.4113 80.8847C12.2506 79.3613 12.1932 77.8275 12.2395 76.2952C12.391 75.7052 14.684 67.2676 18.9062 64.6426C19.1629 64.4698 19.4445 64.3436 19.7395 64.2692C19.8519 64.2397 19.9673 64.2252 20.083 64.2259C21.2042 64.2259 21.7042 65.8929 22.189 67.5057C22.3718 68.1664 22.5945 68.8136 22.8557 69.4433C23.1436 70.0927 23.6335 70.9533 24.5628 70.9533C24.9723 70.9356 25.3706 70.8052 25.7193 70.5744C27.7395 69.335 28.3305 65.9794 28.9517 62.429C29.2001 60.8392 29.5374 59.2668 29.9618 57.7204C30.5779 55.6475 31.3759 54.3648 32.487 53.6828C32.7691 53.4894 33.0923 53.3758 33.4264 53.3527C34.6032 53.3527 35.0476 55.5988 35.4769 57.7691C35.6628 58.9055 35.9503 60.0202 36.3355 61.0976C36.7648 62.1422 37.3456 62.6509 38.0577 62.6509C38.4766 62.6286 38.8832 62.4927 39.2396 62.2558C41.7295 60.7188 42.482 58.1046 43.2093 55.5825C43.8305 53.4177 44.4113 51.4151 46.0527 50.3922C46.4187 50.1411 46.8406 49.9991 47.2749 49.9809C47.4589 49.9803 47.6417 50.0132 47.8153 50.0783C47.8605 50.4807 47.8858 50.8854 47.8911 51.2906L47.9214 56.3998C47.9618 57.3794 48.0274 58.1479 48.1083 58.8082L12.4113 80.8847Z" fill="#407BFF"/>
<path d="M48.4012 58.9436C48.2952 58.1805 48.2346 57.3199 48.1891 56.3836L48.1638 51.2744C48.1567 50.8036 48.123 50.3337 48.0628 49.8673C47.819 49.7405 47.5511 49.6756 47.28 49.6778C46.7994 49.6951 46.332 49.8502 45.9265 50.1271C42.2598 52.411 43.6588 59.1817 39.1083 61.9961C38.7839 62.2171 38.4114 62.3439 38.0275 62.3641C37.3457 62.3641 36.8911 61.8229 36.5477 60.9786C35.477 58.3915 35.5022 53.0713 33.3962 53.0713C33.0153 53.0911 32.646 53.2181 32.3254 53.4393C31.0224 54.2458 30.2396 55.7883 29.6941 57.6392C28.3355 62.1963 28.4164 68.599 25.5881 70.3255C25.284 70.5303 24.9365 70.6495 24.578 70.6719C23.9062 70.6719 23.4618 70.1307 23.1083 69.3242C22.2345 67.3542 21.9264 63.9391 20.078 63.9391C19.9437 63.9401 19.81 63.9565 19.679 63.9878C19.358 64.0712 19.0512 64.2082 18.7699 64.3937C14.2699 67.1973 11.9668 76.2519 11.9668 76.2519C11.9164 77.953 11.989 79.6557 12.184 81.3448L12.6891 81.0255C12.6497 80.8235 12.621 80.6193 12.6032 80.4139C12.4829 79.0595 12.4407 77.6985 12.4769 76.3385C12.6891 75.5375 14.9466 67.4246 19.0174 64.8862C19.2514 64.7302 19.5071 64.6151 19.7749 64.5453C19.8674 64.5203 19.9624 64.5076 20.0578 64.5074C20.982 64.5074 21.4568 66.0769 21.9113 67.5923C22.096 68.2661 22.3221 68.926 22.5881 69.5678C22.7749 69.9791 23.3305 71.2402 24.5376 71.2402C24.9942 71.2246 25.4388 71.0789 25.8254 70.818C27.9618 69.5191 28.5578 66.0986 29.184 62.4778C29.4343 60.9008 29.7716 59.3412 30.1941 57.807C30.7901 55.8099 31.5477 54.5597 32.5881 53.9319C32.8277 53.7616 33.1043 53.6609 33.3911 53.6396C34.3507 53.6396 34.7951 55.864 35.184 57.8287C35.3717 58.9835 35.6626 60.1162 36.0527 61.2113C36.5224 62.3533 37.184 62.9378 38.0224 62.9378C38.5012 62.9191 38.9666 62.764 39.3709 62.4886C41.9517 60.892 42.7548 58.1047 43.4618 55.6475C44.0679 53.5584 44.6335 51.5884 46.1891 50.6196C46.5136 50.3939 46.8885 50.265 47.275 50.2461C47.3737 50.2451 47.4722 50.2578 47.5679 50.284C47.6234 50.8577 47.6285 51.269 47.6285 51.2744V56.4107C47.6689 57.2929 47.7245 58.0343 47.7952 58.6405C47.817 58.8415 47.8524 59.0404 47.9012 59.2359L48.3709 58.9436" fill="black"/>
</g>
<g opacity="0.4">
<path d="M11.9671 73.67V76.2516C11.9162 77.9527 11.9888 79.6555 12.1842 81.3446L48.3964 58.9433C48.2903 58.1802 48.2247 57.3197 48.1843 56.3779L48.159 51.2742C48.159 51.2742 48.159 43.6375 43.6136 46.4411C38.856 49.3853 40.1994 58.7268 36.8257 60.816C33.4519 62.9051 34.5631 54.5811 30.0378 57.3846C25.5125 60.1881 27.7752 66.4176 23.2499 69.2157C18.7247 72.0139 20.9873 57.8933 16.462 60.6915C11.9368 63.4896 11.9671 70.4497 11.9671 73.67Z" fill="#407BFF"/>
</g>
<path opacity="0.4" d="M10.3155 85.2849C10.2825 85.2846 10.2502 85.2749 10.2218 85.2569C10.1934 85.2388 10.17 85.213 10.1539 85.1821C10.1414 85.159 10.1333 85.1336 10.13 85.1071C10.1268 85.0807 10.1285 85.0538 10.1351 85.0281C10.1417 85.0024 10.153 84.9784 10.1684 84.9574C10.1837 84.9365 10.2029 84.919 10.2246 84.9061L48.7398 61.2708C48.7828 61.2454 48.8333 61.2391 48.8806 61.2533C48.9278 61.2675 48.968 61.301 48.9923 61.3466C49.0051 61.3693 49.0135 61.3945 49.0171 61.4207C49.0207 61.4469 49.0194 61.4736 49.0133 61.4993C49.0072 61.525 48.9964 61.5491 48.9815 61.5703C48.9667 61.5914 48.948 61.6092 48.9267 61.6226L10.4115 85.2579C10.382 85.2751 10.3491 85.2844 10.3155 85.2849Z" fill="black"/>
<path d="M16.5127 62.0558C16.4627 62.0558 16.4146 62.0349 16.3788 61.9975C16.3429 61.9601 16.3221 61.9091 16.3208 61.8555V61.4496C16.3201 61.4231 16.3245 61.3967 16.3336 61.3721C16.3428 61.3475 16.3565 61.3251 16.374 61.3064C16.3915 61.2876 16.4124 61.2729 16.4354 61.2631C16.4584 61.2533 16.483 61.2486 16.5077 61.2494C16.5573 61.2494 16.6048 61.2705 16.6398 61.308C16.6749 61.3456 16.6946 61.3965 16.6946 61.4496V61.8555C16.6934 61.9073 16.674 61.9567 16.6403 61.9938C16.6066 62.0309 16.561 62.0531 16.5127 62.0558Z" fill="white"/>
<path d="M16.5931 77.5781C16.5464 77.5771 16.5017 77.5578 16.4673 77.5239C16.4329 77.49 16.4112 77.4439 16.4063 77.3941C16.4063 77.1343 16.3659 76.8529 16.3507 76.6147C16.3493 76.5884 16.3528 76.5621 16.361 76.5372C16.3692 76.5124 16.3818 76.4895 16.3982 76.4699C16.4146 76.4503 16.4345 76.4343 16.4567 76.423C16.4789 76.4116 16.5029 76.405 16.5275 76.4037C16.5521 76.3997 16.5771 76.4016 16.601 76.4091C16.6248 76.4165 16.6469 76.4295 16.6656 76.447C16.6843 76.4645 16.6993 76.4861 16.7094 76.5104C16.7196 76.5347 16.7247 76.561 16.7245 76.5877C16.7245 76.8475 16.7598 77.1018 16.78 77.3562C16.7828 77.3825 16.7807 77.4092 16.7738 77.4346C16.7669 77.4601 16.7554 77.4838 16.7399 77.5044C16.7244 77.5251 16.7052 77.5422 16.6835 77.5549C16.6618 77.5675 16.6379 77.5754 16.6133 77.5781H16.5931ZM16.5073 76.0302C16.4572 76.0302 16.4092 76.0093 16.3733 75.9719C16.3375 75.9345 16.3167 75.8835 16.3154 75.8299C16.3154 75.608 16.3154 75.3483 16.3154 75.0506C16.3154 74.9975 16.335 74.9465 16.3701 74.909C16.4051 74.8714 16.4527 74.8503 16.5022 74.8503C16.6133 74.8503 16.6891 74.9369 16.6941 75.0506C16.6941 75.3429 16.6941 75.5918 16.6941 75.8245C16.6948 75.8513 16.6905 75.8779 16.6814 75.9028C16.6723 75.9278 16.6587 75.9505 16.6412 75.9696C16.6238 75.9888 16.603 76.004 16.58 76.0144C16.557 76.0248 16.5323 76.0302 16.5073 76.0302ZM16.5073 74.4769C16.4581 74.4755 16.4113 74.454 16.3766 74.4167C16.3418 74.3795 16.3217 74.3293 16.3204 74.2766V73.4973C16.3217 73.4446 16.3418 73.3945 16.3766 73.3572C16.4113 73.3199 16.4581 73.2984 16.5073 73.297C16.5564 73.2984 16.6032 73.3199 16.638 73.3572C16.6728 73.3945 16.6929 73.4446 16.6941 73.4973V74.2766C16.6928 74.3302 16.672 74.3812 16.6362 74.4186C16.6003 74.456 16.5523 74.4769 16.5022 74.4769H16.5073ZM16.5073 72.9236C16.4577 72.9236 16.4102 72.9025 16.3751 72.8649C16.3401 72.8274 16.3204 72.7764 16.3204 72.7233V71.944C16.3217 71.8904 16.3425 71.8394 16.3784 71.802C16.4142 71.7646 16.4623 71.7437 16.5123 71.7437C16.5615 71.7451 16.6083 71.7666 16.6431 71.8039C16.6778 71.8411 16.6979 71.8913 16.6992 71.944V72.7233C16.6992 72.7764 16.6795 72.8274 16.6445 72.8649C16.6094 72.9025 16.5619 72.9236 16.5123 72.9236H16.5073ZM16.5073 71.3703C16.4581 71.3689 16.4113 71.3474 16.3766 71.3101C16.3418 71.2728 16.3217 71.2227 16.3204 71.17V70.3744C16.3278 70.3263 16.3509 70.2825 16.3856 70.2509C16.4202 70.2193 16.4643 70.202 16.5098 70.202C16.5553 70.202 16.5994 70.2193 16.6341 70.2509C16.6688 70.2825 16.6918 70.3263 16.6992 70.3744V71.1538C16.7009 71.1841 16.6964 71.2145 16.6859 71.2427C16.6754 71.2709 16.6591 71.2963 16.6384 71.317C16.6176 71.3377 16.5928 71.3532 16.5658 71.3625C16.5387 71.3717 16.5101 71.3743 16.482 71.3703H16.5073ZM16.5073 69.817C16.4577 69.817 16.4102 69.7959 16.3751 69.7583C16.3401 69.7207 16.3204 69.6698 16.3204 69.6167V68.8428C16.3204 68.7896 16.3401 68.7387 16.3751 68.7011C16.4102 68.6636 16.4577 68.6425 16.5073 68.6425C16.5568 68.6425 16.6044 68.6636 16.6394 68.7011C16.6745 68.7387 16.6941 68.7896 16.6941 68.8428V69.6167C16.6967 69.6468 16.6929 69.6771 16.683 69.7053C16.6731 69.7336 16.6573 69.7591 16.6369 69.7799C16.6165 69.8007 16.592 69.8163 16.5652 69.8256C16.5383 69.8348 16.5099 69.8374 16.482 69.8332L16.5073 69.817ZM16.5073 68.2636C16.4826 68.2644 16.4579 68.2597 16.4349 68.2499C16.412 68.2401 16.3911 68.2254 16.3736 68.2066C16.3561 68.1879 16.3424 68.1655 16.3332 68.1409C16.3241 68.1163 16.3197 68.0899 16.3204 68.0634V67.2894C16.3204 67.2363 16.3401 67.1854 16.3751 67.1478C16.4102 67.1103 16.4577 67.0892 16.5073 67.0892C16.5568 67.0892 16.6044 67.1103 16.6394 67.1478C16.6745 67.1854 16.6941 67.2363 16.6941 67.2894V68.0634C16.6953 68.0924 16.6904 68.1213 16.6797 68.148C16.6691 68.1747 16.653 68.1986 16.6327 68.2178C16.6123 68.237 16.5883 68.251 16.5622 68.259C16.5361 68.2669 16.5087 68.2685 16.482 68.2636H16.5073ZM16.5073 66.7103C16.4826 66.7111 16.4579 66.7064 16.4349 66.6966C16.412 66.6868 16.3911 66.6721 16.3736 66.6533C16.3561 66.6346 16.3424 66.6122 16.3332 66.5876C16.3241 66.5629 16.3197 66.5366 16.3204 66.5101V65.7361C16.3204 65.6825 16.3399 65.631 16.3748 65.5926C16.4097 65.5542 16.4573 65.5319 16.5073 65.5305C16.5323 65.5304 16.557 65.5358 16.58 65.5462C16.603 65.5566 16.6238 65.5719 16.6412 65.591C16.6587 65.6102 16.6723 65.6329 16.6814 65.6578C16.6905 65.6828 16.6948 65.7094 16.6941 65.7361V66.5101C16.6953 66.5391 16.6904 66.568 16.6797 66.5947C16.6691 66.6214 16.653 66.6453 16.6327 66.6645C16.6123 66.6836 16.5883 66.6977 16.5622 66.7057C16.5361 66.7136 16.5087 66.7152 16.482 66.7103H16.5073ZM16.5073 65.1624C16.4573 65.161 16.4097 65.1387 16.3748 65.1003C16.3399 65.0619 16.3204 65.0104 16.3204 64.9568V64.1828C16.3278 64.1347 16.3509 64.0909 16.3856 64.0593C16.4202 64.0277 16.4643 64.0104 16.5098 64.0104C16.5553 64.0104 16.5994 64.0277 16.6341 64.0593C16.6688 64.0909 16.6918 64.1347 16.6992 64.1828V64.9622C16.698 64.9909 16.6913 65.019 16.6795 65.0449C16.6678 65.0707 16.6512 65.0937 16.6309 65.1125C16.6106 65.1312 16.5869 65.1453 16.5613 65.1539C16.5357 65.1625 16.5087 65.1654 16.482 65.1624H16.5073ZM16.5073 63.6091C16.4581 63.6078 16.4113 63.5862 16.3766 63.5489C16.3418 63.5117 16.3217 63.4615 16.3204 63.4089V62.6349C16.3204 62.5804 16.3406 62.5281 16.3766 62.4895C16.4126 62.4509 16.4614 62.4293 16.5123 62.4293C16.5619 62.4293 16.6094 62.4504 16.6445 62.4879C16.6795 62.5255 16.6992 62.5764 16.6992 62.6295V63.4089C16.6987 63.4379 16.6925 63.4664 16.681 63.4926C16.6695 63.5189 16.653 63.5422 16.6325 63.5611C16.612 63.58 16.588 63.5941 16.562 63.6024C16.5361 63.6106 16.5088 63.6129 16.482 63.6091H16.5073Z" fill="white"/>
<path d="M16.7143 78.7469C16.6691 78.7463 16.6256 78.7285 16.5914 78.6968C16.5572 78.6651 16.5346 78.6216 16.5274 78.5737L16.482 78.1678C16.4793 78.1415 16.4815 78.1149 16.4885 78.0895C16.4954 78.0642 16.5069 78.0405 16.5224 78.0199C16.5379 77.9993 16.557 77.9821 16.5787 77.9694C16.6003 77.9568 16.6241 77.9487 16.6486 77.9459C16.6732 77.9431 16.698 77.9454 16.7217 77.9529C16.7454 77.9603 16.7675 77.9727 16.7867 77.9893C16.8059 78.0058 16.8219 78.0263 16.8338 78.0495C16.8456 78.0727 16.853 78.0982 16.8557 78.1245L16.9012 78.5196C16.9047 78.5459 16.9033 78.5728 16.8971 78.5985C16.8909 78.6243 16.8799 78.6484 16.8648 78.6696C16.8498 78.6908 16.831 78.7085 16.8095 78.7218C16.7879 78.735 16.7642 78.7436 16.7395 78.7469H16.7143Z" fill="white"/>
<path d="M43.6438 47.0478C43.5929 47.0478 43.5441 47.0262 43.5081 46.9876C43.4721 46.949 43.4519 46.8967 43.4519 46.8422V46.4417C43.4519 46.3871 43.4721 46.3348 43.5081 46.2962C43.5441 46.2577 43.5929 46.236 43.6438 46.236C43.6938 46.2374 43.7414 46.2597 43.7763 46.2981C43.8112 46.3365 43.8307 46.3881 43.8307 46.4417V46.8422C43.8307 46.8958 43.8112 46.9473 43.7763 46.9857C43.7414 47.0241 43.6938 47.0464 43.6438 47.0478Z" fill="white"/>
<path d="M43.7498 62.5698C43.7031 62.5687 43.6584 62.5495 43.624 62.5156C43.5896 62.4817 43.5679 62.4355 43.563 62.3857C43.5377 62.126 43.5226 61.8445 43.5074 61.6064C43.5046 61.5527 43.5216 61.5 43.5546 61.4595C43.5876 61.419 43.6342 61.3941 43.6842 61.3899C43.7089 61.3877 43.7337 61.3909 43.7572 61.3993C43.7807 61.4078 43.8024 61.4213 43.8208 61.439C43.8393 61.4568 43.8541 61.4784 43.8645 61.5025C43.8749 61.5266 43.8806 61.5528 43.8812 61.5793C43.8812 61.8391 43.9165 62.0935 43.9367 62.3479C43.9395 62.3746 43.9372 62.4017 43.93 62.4274C43.9228 62.4532 43.9109 62.4772 43.8948 62.4979C43.8788 62.5186 43.8591 62.5357 43.8367 62.548C43.8144 62.5604 43.79 62.5677 43.765 62.5698H43.7498ZM43.664 61.0219C43.6139 61.0219 43.5659 61.001 43.53 60.9636C43.4942 60.9262 43.4734 60.8752 43.4721 60.8216C43.4721 60.5997 43.4721 60.3399 43.4721 60.0423C43.4721 59.9891 43.4918 59.9382 43.5268 59.9007C43.5618 59.8631 43.6094 59.842 43.6589 59.842C43.7085 59.842 43.756 59.8631 43.7911 59.9007C43.8261 59.9382 43.8458 59.9891 43.8458 60.0423C43.8458 60.3345 43.8458 60.5835 43.8458 60.8162C43.8465 60.8429 43.8421 60.8696 43.8331 60.8945C43.824 60.9194 43.8103 60.9421 43.7929 60.9613C43.7755 60.9805 43.7546 60.9957 43.7316 61.0061C43.7086 61.0165 43.6839 61.0219 43.6589 61.0219H43.664ZM43.664 59.4686C43.6394 59.4686 43.6151 59.4634 43.5925 59.4533C43.5698 59.4432 43.5492 59.4285 43.5318 59.4099C43.5145 59.3913 43.5007 59.3692 43.4913 59.3449C43.4819 59.3206 43.4771 59.2946 43.4771 59.2683V58.4673C43.4771 58.4142 43.4968 58.3632 43.5318 58.3257C43.5669 58.2881 43.6144 58.267 43.664 58.267C43.714 58.267 43.7621 58.2879 43.7979 58.3253C43.8338 58.3628 43.8546 58.4137 43.8559 58.4673V59.2412C43.8566 59.268 43.8522 59.2946 43.8432 59.3195C43.8341 59.3445 43.8204 59.3672 43.803 59.3864C43.7856 59.4055 43.7647 59.4208 43.7417 59.4312C43.7187 59.4416 43.694 59.4469 43.669 59.4469L43.664 59.4686ZM43.664 57.9152C43.6139 57.9153 43.5659 57.8943 43.53 57.8569C43.4942 57.8195 43.4734 57.7686 43.4721 57.715V56.9356C43.4733 56.883 43.4934 56.8328 43.5282 56.7955C43.563 56.7583 43.6098 56.7367 43.6589 56.7354C43.709 56.7354 43.757 56.7563 43.7929 56.7937C43.8287 56.8311 43.8495 56.882 43.8509 56.9356V57.715C43.8496 57.7677 43.8295 57.8178 43.7947 57.8551C43.7599 57.8923 43.7131 57.9139 43.664 57.9152ZM43.664 56.3619C43.6148 56.3606 43.568 56.339 43.5333 56.3018C43.4985 56.2645 43.4784 56.2144 43.4771 56.1617V55.3823C43.4771 55.3292 43.4968 55.2783 43.5318 55.2407C43.5669 55.2032 43.6144 55.1821 43.664 55.1821C43.7135 55.1821 43.7611 55.2032 43.7961 55.2407C43.8312 55.2783 43.8509 55.3292 43.8509 55.3823V56.1617C43.8511 56.1904 43.8456 56.2189 43.8346 56.2451C43.8237 56.2714 43.8076 56.2948 43.7875 56.3138C43.7674 56.3328 43.7437 56.3469 43.718 56.3552C43.6923 56.3635 43.6653 56.3658 43.6387 56.3619H43.664ZM43.664 54.8086C43.6139 54.8086 43.5659 54.7877 43.53 54.7503C43.4942 54.7129 43.4734 54.662 43.4721 54.6084V53.829C43.4794 53.7809 43.5025 53.7371 43.5372 53.7055C43.5719 53.6739 43.6159 53.6566 43.6615 53.6566C43.707 53.6566 43.751 53.6739 43.7857 53.7055C43.8204 53.7371 43.8435 53.7809 43.8509 53.829V54.6084C43.8503 54.6368 43.8442 54.6649 43.833 54.6907C43.8219 54.7165 43.8058 54.7396 43.7858 54.7584C43.7659 54.7772 43.7425 54.7914 43.7172 54.8001C43.6919 54.8087 43.6652 54.8116 43.6387 54.8086H43.664ZM43.664 53.2553C43.639 53.256 43.6142 53.2514 43.5909 53.2416C43.5677 53.2319 43.5465 53.2173 43.5286 53.1986C43.5107 53.1799 43.4965 53.1576 43.4868 53.133C43.477 53.1083 43.4721 53.0818 43.4721 53.0551V52.2811C43.4676 52.2517 43.4691 52.2215 43.4765 52.1928C43.484 52.1641 43.4972 52.1374 43.5152 52.1147C43.5332 52.092 43.5556 52.0737 43.5809 52.0612C43.6061 52.0487 43.6336 52.0422 43.6615 52.0422C43.6893 52.0422 43.7168 52.0487 43.742 52.0612C43.7673 52.0737 43.7897 52.092 43.8077 52.1147C43.8257 52.1374 43.8389 52.1641 43.8464 52.1928C43.8538 52.2215 43.8554 52.2517 43.8509 52.2811V53.0551C43.8511 53.0838 43.8456 53.1123 43.8346 53.1385C43.8237 53.1647 43.8076 53.1882 43.7875 53.2072C43.7674 53.2262 43.7437 53.2403 43.718 53.2486C43.6923 53.2569 43.6653 53.2592 43.6387 53.2553H43.664ZM43.664 51.702C43.639 51.7027 43.6142 51.6981 43.5909 51.6883C43.5677 51.6786 43.5465 51.664 43.5286 51.6453C43.5107 51.6266 43.4965 51.6043 43.4868 51.5797C43.477 51.555 43.4721 51.5285 43.4721 51.5017V50.7278C43.4714 50.7011 43.4757 50.6744 43.4848 50.6495C43.4939 50.6246 43.5076 50.6019 43.525 50.5827C43.5424 50.5635 43.5632 50.5483 43.5862 50.5379C43.6092 50.5275 43.634 50.5221 43.6589 50.5221C43.709 50.5235 43.7565 50.5458 43.7914 50.5843C43.8263 50.6227 43.8458 50.6742 43.8458 50.7278V51.5017C43.846 51.53 43.8405 51.5579 43.8299 51.5837C43.8193 51.6096 43.8037 51.6327 43.7841 51.6516C43.7646 51.6705 43.7415 51.6848 43.7165 51.6934C43.6914 51.7021 43.6649 51.705 43.6387 51.702H43.664ZM43.664 50.1541C43.639 50.1541 43.6143 50.1488 43.5913 50.1383C43.5683 50.1279 43.5474 50.1127 43.53 50.0935C43.5126 50.0744 43.4989 50.0517 43.4899 50.0267C43.4808 50.0018 43.4764 49.9752 43.4771 49.9484V49.1745C43.4771 49.1214 43.4968 49.0704 43.5318 49.0329C43.5669 48.9953 43.6144 48.9742 43.664 48.9742C43.7135 48.9742 43.7611 48.9953 43.7961 49.0329C43.8312 49.0704 43.8509 49.1214 43.8509 49.1745V49.9484C43.851 49.9774 43.8455 50.006 43.8346 50.0325C43.8237 50.059 43.8077 50.0827 43.7877 50.1021C43.7677 50.1215 43.7441 50.1362 43.7184 50.1451C43.6927 50.1541 43.6656 50.1572 43.6387 50.1541H43.664ZM43.664 48.6008C43.614 48.5994 43.5664 48.5771 43.5315 48.5387C43.4966 48.5002 43.4771 48.4488 43.4771 48.3951V47.6428C43.4845 47.5947 43.5076 47.5509 43.5423 47.5193C43.5769 47.4877 43.621 47.4704 43.6665 47.4704C43.712 47.4704 43.7561 47.4877 43.7908 47.5193C43.8255 47.5509 43.8485 47.5947 43.8559 47.6428V48.4222C43.8528 48.4493 43.8447 48.4755 43.832 48.4992C43.8194 48.5229 43.8025 48.5437 43.7823 48.5603C43.762 48.5769 43.7389 48.5891 43.7143 48.596C43.6897 48.603 43.664 48.6046 43.6387 48.6008H43.664Z" fill="white"/>
<path d="M43.871 63.7389C43.8258 63.7383 43.7823 63.7205 43.7481 63.6888C43.7139 63.6572 43.6913 63.6136 43.6841 63.5657L43.6387 63.1598C43.6351 63.1338 43.6366 63.1073 43.6428 63.0818C43.6491 63.0564 43.6602 63.0326 43.6753 63.0119C43.6904 62.9911 43.7092 62.9739 43.7307 62.9612C43.7522 62.9485 43.7759 62.9406 43.8003 62.9379C43.8249 62.9341 43.8499 62.9356 43.8739 62.9423C43.8979 62.949 43.9205 62.9607 43.9402 62.9768C43.96 62.9929 43.9765 63.0131 43.9889 63.0362C44.0013 63.0592 44.0093 63.0847 44.0124 63.1111L44.0579 63.5116C44.0614 63.5379 44.06 63.5648 44.0538 63.5905C44.0476 63.6163 44.0366 63.6404 44.0216 63.6616C44.0065 63.6828 43.9877 63.7005 43.9662 63.7138C43.9446 63.7271 43.9209 63.7356 43.8962 63.7389H43.871Z" fill="white"/>
<path d="M30.063 58.6891C30.013 58.6891 29.9649 58.6682 29.9291 58.6308C29.8932 58.5934 29.8724 58.5424 29.8711 58.4888V58.0829C29.8785 58.0348 29.9016 57.991 29.9363 57.9594C29.971 57.9278 30.015 57.9105 30.0605 57.9105C30.106 57.9105 30.1501 57.9278 30.1848 57.9594C30.2195 57.991 30.2425 58.0348 30.2499 58.0829V58.4672C30.252 58.4951 30.2487 58.5231 30.2403 58.5496C30.2319 58.5761 30.2186 58.6005 30.2011 58.6213C30.1836 58.642 30.1623 58.6588 30.1386 58.6704C30.1148 58.6821 30.0891 58.6884 30.063 58.6891Z" fill="white"/>
<path d="M30.149 69.2921C30.1019 69.2923 30.0565 69.2734 30.0219 69.2393C29.9873 69.2052 29.9659 69.1583 29.9621 69.1081C29.9621 68.8591 29.9217 68.6047 29.9065 68.3504C29.9038 68.2967 29.9207 68.2439 29.9537 68.2035C29.9868 68.163 30.0333 68.138 30.0833 68.1339C30.1084 68.1308 30.1338 68.1335 30.1579 68.1416C30.182 68.1497 30.2043 68.163 30.2233 68.1809C30.2423 68.1987 30.2576 68.2206 30.2683 68.2451C30.279 68.2696 30.2848 68.2962 30.2853 68.3233C30.2853 68.5723 30.3156 68.8212 30.3358 69.0702C30.3386 69.0965 30.3365 69.1232 30.3297 69.1486C30.3228 69.1741 30.3112 69.1978 30.2957 69.2184C30.2802 69.2391 30.2611 69.2562 30.2393 69.2688C30.2176 69.2815 30.1938 69.2894 30.1692 69.2921H30.149ZM30.0631 67.7821C30.0131 67.7821 29.965 67.7612 29.9292 67.7238C29.8933 67.6864 29.8725 67.6354 29.8712 67.5818V66.8241C29.8705 66.7974 29.8748 66.7707 29.8839 66.7458C29.893 66.7209 29.9067 66.6982 29.9241 66.679C29.9415 66.6598 29.9623 66.6446 29.9854 66.6342C30.0084 66.6238 30.0331 66.6184 30.0581 66.6184C30.1072 66.6198 30.154 66.6414 30.1888 66.6786C30.2235 66.7159 30.2436 66.766 30.2449 66.8187V67.5764C30.2449 67.63 30.2254 67.6815 30.1905 67.7199C30.1556 67.7584 30.1081 67.7807 30.0581 67.7821H30.0631ZM30.0631 66.2667C30.0384 66.2674 30.0138 66.2627 29.9908 66.2529C29.9678 66.2431 29.9469 66.2284 29.9294 66.2097C29.9119 66.1909 29.8982 66.1685 29.889 66.1439C29.8799 66.1193 29.8755 66.0929 29.8762 66.0664V65.3087C29.8762 65.2551 29.8957 65.2036 29.9306 65.1651C29.9656 65.1267 30.0131 65.1044 30.0631 65.103C30.0881 65.103 30.1128 65.1084 30.1358 65.1188C30.1588 65.1292 30.1796 65.1444 30.1971 65.1636C30.2145 65.1827 30.2281 65.2055 30.2372 65.2304C30.2463 65.2553 30.2506 65.2819 30.25 65.3087V66.0447C30.25 66.0979 30.2303 66.1488 30.1952 66.1863C30.1602 66.2239 30.1127 66.245 30.0631 66.245V66.2667ZM30.0631 64.7512C30.0131 64.7512 29.965 64.7303 29.9292 64.6929C29.8933 64.6555 29.8725 64.6046 29.8712 64.551V63.7933C29.8712 63.7401 29.8909 63.6892 29.9259 63.6517C29.961 63.6141 30.0085 63.593 30.0581 63.593C30.083 63.5923 30.1079 63.5969 30.1311 63.6067C30.1544 63.6164 30.1756 63.631 30.1935 63.6497C30.2114 63.6684 30.2256 63.6907 30.2353 63.7153C30.245 63.74 30.25 63.7665 30.25 63.7933V64.551C30.2487 64.6036 30.2286 64.6538 30.1938 64.6911C30.1591 64.7283 30.1123 64.7498 30.0631 64.7512ZM30.0631 63.2358C30.0135 63.2358 29.966 63.2147 29.931 63.1771C29.8959 63.1396 29.8762 63.0887 29.8762 63.0355V62.2562C29.8836 62.208 29.9067 62.1643 29.9414 62.1327C29.9761 62.1011 30.0201 62.0838 30.0656 62.0838C30.1112 62.0838 30.1552 62.1011 30.1899 62.1327C30.2246 62.1643 30.2477 62.208 30.255 62.2562V63.0139C30.2572 63.0425 30.2537 63.0712 30.2447 63.0982C30.2356 63.1252 30.2213 63.1497 30.2026 63.1703C30.1839 63.1908 30.1614 63.2068 30.1364 63.2171C30.1115 63.2275 30.0848 63.232 30.0581 63.2304L30.0631 63.2358ZM30.0631 61.7258C30.0131 61.7244 29.9656 61.7021 29.9306 61.6637C29.8957 61.6252 29.8762 61.5737 29.8762 61.5201V60.7624C29.8836 60.7143 29.9067 60.6705 29.9414 60.6389C29.9761 60.6073 30.0201 60.59 30.0656 60.59C30.1112 60.59 30.1552 60.6073 30.1899 60.6389C30.2246 60.6705 30.2477 60.7143 30.255 60.7624V61.5201C30.2524 61.5737 30.2303 61.6241 30.1935 61.6605C30.1567 61.6969 30.1081 61.7164 30.0581 61.715L30.0631 61.7258ZM30.0631 60.2104C30.0131 60.2089 29.9656 60.1867 29.9306 60.1482C29.8957 60.1098 29.8762 60.0583 29.8762 60.0047V59.2524C29.8717 59.223 29.8733 59.1928 29.8807 59.1641C29.8882 59.1354 29.9013 59.1087 29.9194 59.086C29.9374 59.0633 29.9598 59.045 29.985 59.0325C30.0103 59.02 30.0378 59.0135 30.0656 59.0135C30.0935 59.0135 30.121 59.02 30.1462 59.0325C30.1715 59.045 30.1939 59.0633 30.2119 59.086C30.2299 59.1087 30.2431 59.1354 30.2506 59.1641C30.258 59.1928 30.2595 59.223 30.255 59.2524V60.0101C30.2524 60.0628 30.2311 60.1123 30.1954 60.1486C30.1597 60.1848 30.1123 60.205 30.0631 60.2049V60.2104Z" fill="white"/>
<path d="M30.2902 70.4389C30.245 70.4382 30.2014 70.4205 30.1673 70.3888C30.1331 70.3571 30.1104 70.3135 30.1033 70.2657L30.0578 69.8597C30.0543 69.8333 30.0559 69.8064 30.0625 69.7806C30.0691 69.7549 30.0806 69.7308 30.0962 69.71C30.1118 69.6892 30.1313 69.672 30.1533 69.6596C30.1754 69.6472 30.1996 69.6398 30.2245 69.6379C30.2733 69.6317 30.3225 69.6465 30.3612 69.6789C30.4 69.7113 30.4253 69.7588 30.4316 69.811L30.477 70.2116C30.4806 70.2379 30.4792 70.2647 30.473 70.2905C30.4667 70.3162 30.4558 70.3404 30.4407 70.3615C30.4257 70.3827 30.4068 70.4004 30.3853 70.4137C30.3638 70.427 30.34 70.4355 30.3154 70.4389H30.2902Z" fill="white"/>
<path opacity="0.4" d="M16.4821 59.8963C16.8407 59.6744 17.1336 59.8205 17.1336 60.2264C17.1146 60.457 17.0459 60.6797 16.9328 60.877C16.8197 61.0742 16.6655 61.2406 16.4821 61.363C16.1235 61.5849 15.8306 61.4333 15.8306 61.0328C15.8484 60.8019 15.9167 60.5787 16.0298 60.3813C16.143 60.1838 16.2979 60.0177 16.4821 59.8963Z" fill="black"/>
<path opacity="0.4" d="M30.0631 56.53C30.4217 56.3081 30.7146 56.4542 30.7146 56.8602C30.696 57.0901 30.6274 57.3123 30.5143 57.5087C30.4011 57.7051 30.2466 57.8704 30.0631 57.9913C29.7045 58.2186 29.4116 58.0671 29.4116 57.6666C29.4294 57.4357 29.4977 57.2125 29.6109 57.015C29.724 56.8176 29.879 56.6515 30.0631 56.53Z" fill="black"/>
<path opacity="0.4" d="M43.6387 45.7053C43.9973 45.4834 44.2902 45.6349 44.2902 46.0354C44.2724 46.2664 44.2042 46.4896 44.091 46.687C43.9778 46.8844 43.8229 47.0506 43.6387 47.172C43.2751 47.3939 42.9872 47.2478 42.9872 46.8419C43.0046 46.6108 43.0727 46.3875 43.186 46.19C43.2992 45.9925 43.4543 45.8264 43.6387 45.7053Z" fill="black"/>
<path opacity="0.4" d="M10.5681 64.594C10.5899 64.5811 10.609 64.5636 10.6244 64.5426C10.6397 64.5217 10.651 64.4976 10.6576 64.4719C10.6642 64.4462 10.666 64.4194 10.6627 64.3929C10.6595 64.3665 10.6514 64.341 10.6388 64.318C10.6263 64.2951 10.6097 64.2752 10.59 64.2592C10.5702 64.2433 10.5477 64.2317 10.5237 64.2252C10.4998 64.2186 10.4749 64.2172 10.4504 64.2211C10.4259 64.225 10.4024 64.234 10.3812 64.2476L9.8762 64.5507V62.467L10.558 62.0448C10.5798 62.0319 10.5989 62.0145 10.6143 61.9935C10.6296 61.9725 10.6409 61.9485 10.6475 61.9228C10.6541 61.8971 10.6558 61.8702 10.6526 61.8438C10.6494 61.8173 10.6413 61.7919 10.6287 61.7688C10.6034 61.7228 10.5623 61.6892 10.5143 61.675C10.4662 61.6609 10.4149 61.6674 10.3711 61.693L9.8661 62.0016V59.8042C9.86482 59.7515 9.84473 59.7014 9.80995 59.6641C9.77518 59.6268 9.72839 59.6053 9.67923 59.6039C9.62967 59.6039 9.58214 59.625 9.54709 59.6626C9.51205 59.7001 9.49236 59.7511 9.49236 59.8042V62.2559L8.80549 62.6781C8.78416 62.6915 8.76551 62.7093 8.75065 62.7304C8.73578 62.7516 8.72498 62.7757 8.71887 62.8014C8.71277 62.8271 8.71148 62.8538 8.71507 62.88C8.71867 62.9062 8.72709 62.9314 8.73983 62.9541C8.75614 62.9844 8.77975 63.0094 8.80818 63.0266C8.83662 63.0437 8.86883 63.0523 8.90145 63.0515C8.93522 63.0528 8.9686 63.0434 8.99741 63.0245L9.50246 62.7214V64.8051L8.81559 65.2272C8.77988 65.2494 8.75204 65.2837 8.73641 65.3247C8.72079 65.3656 8.71825 65.411 8.72921 65.4536C8.74018 65.4963 8.76401 65.5338 8.797 65.5604C8.82999 65.5871 8.87026 65.6012 8.91155 65.6007C8.94532 65.602 8.97871 65.5926 9.00751 65.5736L9.51256 65.2705V67.3543L8.82569 67.7764C8.80383 67.7893 8.78467 67.8068 8.7694 67.8279C8.75412 67.849 8.74306 67.8732 8.73691 67.8991C8.73075 67.925 8.72963 67.952 8.73361 67.9784C8.73759 68.0047 8.74658 68.0299 8.76003 68.0524C8.77567 68.0837 8.799 68.1098 8.82748 68.128C8.85596 68.1461 8.88853 68.1555 8.92165 68.1553C8.95362 68.1547 8.98491 68.1454 9.01256 68.1282L9.51761 67.8197V69.9034L8.83074 70.3256C8.80899 70.3385 8.78987 70.356 8.7745 70.3769C8.75913 70.3979 8.74781 70.4219 8.74123 70.4476C8.73464 70.4734 8.73291 70.5002 8.73614 70.5266C8.73937 70.5531 8.74749 70.5786 8.76003 70.6016C8.7773 70.6326 8.80168 70.6583 8.83086 70.6763C8.86004 70.6943 8.89303 70.704 8.9267 70.7044C8.95866 70.7039 8.98997 70.6946 9.01761 70.6774L9.52266 70.3689V72.4526L8.83579 72.8747C8.81404 72.8877 8.79492 72.9051 8.77955 72.9261C8.76417 72.9471 8.75286 72.9711 8.74628 72.9968C8.73969 73.0225 8.73796 73.0494 8.74119 73.0758C8.74442 73.1023 8.75255 73.1277 8.76509 73.1508C8.78235 73.1817 8.80673 73.2074 8.83591 73.2254C8.86509 73.2434 8.89809 73.2531 8.93176 73.2536C8.96168 73.2608 8.99273 73.2608 9.02266 73.2536L9.52771 72.9451V75.0288L8.84084 75.451C8.79791 75.4781 8.76652 75.5221 8.75333 75.5736C8.74013 75.6251 8.74616 75.6801 8.77014 75.727C8.7874 75.758 8.81179 75.7837 8.84097 75.8017C8.87014 75.8197 8.90314 75.8294 8.9368 75.8298C8.96865 75.8284 8.99975 75.8191 9.02771 75.8027L9.53276 75.4942V77.578L8.8459 78.0001C8.80297 78.0273 8.77158 78.0713 8.75838 78.1228C8.74519 78.1743 8.75121 78.2293 8.77518 78.2761C8.79163 78.3067 8.81514 78.3322 8.84345 78.3502C8.87175 78.3682 8.9039 78.3781 8.9368 78.379C8.97036 78.3784 9.0033 78.3691 9.03276 78.3519L9.53782 78.0434C9.53782 78.7362 9.53782 79.4289 9.53782 80.1163L8.83579 80.5493C8.79778 80.5699 8.76746 80.6038 8.74988 80.6453C8.73229 80.6869 8.72849 80.7337 8.73909 80.7779C8.7497 80.8221 8.77409 80.8611 8.80821 80.8884C8.84233 80.9157 8.88413 80.9298 8.9267 80.9281C8.96026 80.9276 8.99319 80.9183 9.02266 80.9011L9.56307 80.5655C9.60347 81.3232 9.66408 82.0809 9.74994 82.8224C9.75707 82.8702 9.77972 82.9138 9.81391 82.9455C9.84809 82.9772 9.89161 82.9949 9.9368 82.9956C9.96144 82.9923 9.98521 82.9837 10.0067 82.9705C10.0282 82.9572 10.0471 82.9394 10.0621 82.9183C10.0772 82.8971 10.0881 82.873 10.0944 82.8472C10.1006 82.8215 10.102 82.7946 10.0984 82.7683C10.0075 81.9727 9.94186 81.1446 9.90145 80.3436L10.5479 79.9431C10.5915 79.9165 10.6234 79.8726 10.6366 79.8208C10.6499 79.769 10.6434 79.7137 10.6186 79.6671C10.5938 79.6204 10.5528 79.5862 10.5045 79.572C10.4562 79.5578 10.4046 79.5648 10.3611 79.5913L9.8863 79.8836C9.8863 79.1962 9.856 78.5034 9.8863 77.8107L10.5631 77.3885C10.6056 77.3624 10.6369 77.3194 10.6502 77.2687C10.6634 77.2181 10.6575 77.1639 10.6338 77.1179C10.6217 77.0946 10.6054 77.0741 10.5858 77.0576C10.5663 77.0412 10.5438 77.0291 10.5199 77.022C10.4959 77.0149 10.4708 77.0131 10.4461 77.0166C10.4215 77.02 10.3977 77.0287 10.3762 77.0422L9.87115 77.3452V75.2615L10.5479 74.8394C10.5703 74.8269 10.5901 74.8097 10.6061 74.7888C10.6222 74.7679 10.6341 74.7437 10.6411 74.7177C10.6482 74.6918 10.6503 74.6645 10.6473 74.6377C10.6442 74.6108 10.6361 74.5849 10.6235 74.5615C10.6109 74.538 10.5939 74.5176 10.5737 74.5014C10.5535 74.4852 10.5305 74.4735 10.5059 74.4671C10.4814 74.4607 10.4559 74.4597 10.431 74.4642C10.4061 74.4686 10.3823 74.4784 10.3611 74.493L9.856 74.7961V72.7124L10.5378 72.2902C10.5591 72.2768 10.5778 72.259 10.5927 72.2379C10.6075 72.2167 10.6183 72.1926 10.6244 72.1669C10.6305 72.1412 10.6318 72.1145 10.6282 72.0883C10.6246 72.0621 10.6162 72.0369 10.6035 72.0142C10.5773 71.9691 10.5359 71.9366 10.4879 71.9235C10.4399 71.9104 10.389 71.9177 10.3459 71.9438L9.84084 72.2469V70.1632L10.5227 69.741C10.5655 69.7138 10.5965 69.6694 10.6088 69.6176C10.6211 69.5658 10.6138 69.511 10.5883 69.465C10.5629 69.4191 10.5214 69.3859 10.4731 69.3727C10.4248 69.3595 10.3736 69.3674 10.3307 69.3947L9.82569 69.6977V67.614L10.5075 67.1919C10.5294 67.179 10.5485 67.1615 10.5638 67.1404C10.5791 67.1193 10.5901 67.095 10.5963 67.0692C10.6025 67.0433 10.6036 67.0163 10.5996 66.9899C10.5956 66.9636 10.5866 66.9383 10.5732 66.9159C10.5617 66.8926 10.5458 66.8722 10.5266 66.8558C10.5073 66.8395 10.4851 66.8277 10.4614 66.8211C10.4376 66.8144 10.4128 66.8132 10.3886 66.8174C10.3644 66.8216 10.3412 66.8312 10.3206 66.8455L9.8156 67.1486V65.0162L10.5681 64.594Z" fill="black"/>
<path d="M57.7551 77.0964L21.5632 99.4759C20.2905 100.261 18.447 100.169 17.5228 99.1674C16.5985 98.1662 16.9824 96.6291 18.2551 95.8443L54.4168 73.4702C55.0256 73.0961 55.7297 72.9396 56.4272 73.0233C57.1246 73.107 57.779 73.4265 58.2955 73.9356C59.245 74.9423 59.0279 76.3278 57.7551 77.0964Z" fill="#407BFF"/>
<path opacity="0.4" d="M10.9874 87.9801C10.9235 87.9898 10.8586 87.9739 10.8049 87.9356C10.7513 87.8973 10.7127 87.8391 10.6965 87.7723C10.6802 87.7054 10.6875 87.6344 10.717 87.573C10.7464 87.5115 10.7959 87.4638 10.8561 87.4389L51.5985 62.2558C51.6587 62.2275 51.7265 62.2239 51.789 62.2457C51.8514 62.2676 51.9042 62.3132 51.9373 62.3741C51.9704 62.4349 51.9814 62.5067 51.9683 62.5757C51.9552 62.6447 51.9188 62.7061 51.8662 62.7483L11.1187 87.9584C11.0777 87.9786 11.0322 87.9861 10.9874 87.9801Z" fill="black"/>
<path opacity="0.4" d="M11.8205 90.3457C11.7732 90.345 11.727 90.3311 11.6863 90.3055C11.6456 90.2799 11.6117 90.2434 11.5881 90.1996C11.5531 90.1341 11.5435 90.0566 11.5615 89.9836C11.5794 89.9107 11.6235 89.8483 11.6841 89.8099L52.4367 64.5997C52.4667 64.5804 52.5001 64.5677 52.5348 64.5624C52.5695 64.5572 52.6048 64.5594 52.6387 64.569C52.6726 64.5785 52.7043 64.5953 52.7321 64.6182C52.7599 64.6412 52.783 64.6698 52.8003 64.7025C52.8353 64.768 52.8449 64.8455 52.8269 64.9185C52.809 64.9914 52.7649 65.0538 52.7043 65.0922L11.9669 90.3024C11.9234 90.3326 11.8723 90.3477 11.8205 90.3457Z" fill="black"/>
<path opacity="0.4" d="M12.8458 92.6073C12.7852 92.6092 12.7258 92.5891 12.6773 92.5501C12.6288 92.5111 12.5941 92.4557 12.5789 92.3928C12.5636 92.3299 12.5687 92.2634 12.5934 92.2041C12.618 92.1447 12.6607 92.0961 12.7144 92.0661L53.4721 66.8451C53.5322 66.8168 53.6 66.8133 53.6625 66.8351C53.725 66.8569 53.7778 66.9026 53.8108 66.9635C53.8439 67.0243 53.8549 67.0961 53.8418 67.1651C53.8287 67.2341 53.7924 67.2955 53.7397 67.3376L12.9771 92.5641C12.9365 92.5878 12.8918 92.6025 12.8458 92.6073Z" fill="black"/>
<path opacity="0.4" d="M14.063 94.7617C14.0158 94.761 13.9696 94.7472 13.9288 94.7216C13.8881 94.6959 13.8543 94.6594 13.8307 94.6156C13.8128 94.5838 13.801 94.5485 13.7962 94.5117C13.7913 94.4749 13.7934 94.4375 13.8024 94.4016C13.8113 94.3657 13.8269 94.3321 13.8483 94.3029C13.8697 94.2736 13.8963 94.2493 13.9266 94.2313L54.6893 69.0103C54.7495 68.9821 54.8173 68.9785 54.8797 69.0003C54.9422 69.0221 54.995 69.0678 55.0281 69.1287C55.0611 69.1895 55.0722 69.2613 55.0591 69.3303C55.0459 69.3993 55.0096 69.4607 54.957 69.5028L14.1943 94.7293C14.1543 94.7532 14.1088 94.7644 14.063 94.7617Z" fill="black"/>
</g>
</svg>
