<svg width="41" height="68" viewBox="0 0 41 68" fill="none" xmlns="http://www.w3.org/2000/svg">
<path d="M21.659 67.9293L18.5219 61.1392L21.0512 52.6968V47.5438L13.3131 52.6968V57.8573L16.6397 64.504C16.6896 64.608 16.7677 64.6901 16.8619 64.7379L21.659 67.9293Z" fill="#F26E6E"/>
<path opacity="0.2" d="M21.659 67.9293L18.5219 61.1392L21.0512 52.6968V47.5438L13.3131 52.6968V57.8573L16.6397 64.504C16.6896 64.608 16.7677 64.6901 16.8619 64.7379L21.659 67.9293Z" fill="black"/>
<path d="M40.1351 6.5467C40.0919 5.6171 39.8593 4.71238 39.4562 3.90613C39.053 3.09987 38.4907 2.41485 37.815 1.90678L35.9262 0.639296C35.2069 0.219001 34.4121 0 33.606 0C32.7999 0 32.0051 0.219001 31.2859 0.639296L2.32668 19.976C1.65179 20.4845 1.09047 21.1698 0.688425 21.9761C0.286382 22.7824 0.0549865 23.6869 0.0130855 24.616V61.3958C0.0555033 62.3247 0.287117 63.229 0.689113 64.0352C1.09111 64.8414 1.65215 65.5268 2.32668 66.0357L4.21548 67.2956C4.93469 67.7159 5.72948 67.9349 6.5356 67.9349C7.34172 67.9349 8.13653 67.7159 8.85574 67.2956L18.169 61.0789L21.489 67.7181C21.537 67.8119 21.6071 67.888 21.6912 67.9375C21.7752 67.987 21.8698 68.0078 21.9637 67.9975C22.0577 67.9872 22.1471 67.9462 22.2216 67.8794C22.2961 67.8125 22.3526 67.7226 22.3844 67.62L25.894 55.9259L37.815 47.9589C38.4903 47.4504 39.0524 46.7652 39.4555 45.9591C39.8586 45.1529 40.0914 44.2484 40.1351 43.319V6.5467Z" fill="#F26E6E"/>
<path opacity="0.2" d="M0.013074 61.4033C0.0554918 62.3322 0.287105 63.2365 0.689101 64.0427C1.0911 64.8489 1.65214 65.5343 2.32667 66.0432L4.21546 67.3031C4.86936 67.6825 5.58549 67.8974 6.31663 67.9339C7.04777 67.9703 7.77729 67.8273 8.45706 67.5144C7.36561 67.9897 6.53559 67.2805 6.53559 65.7565V28.9692C6.55648 28.0417 6.78138 27.1356 7.18915 26.3361L0.653559 21.9829C0.245256 22.7849 0.0203533 23.6935 0 24.6235L0.013074 61.4033Z" fill="black"/>
<path opacity="0.5" d="M40.0567 5.78466C39.7888 4.64543 38.8934 4.27574 37.8215 5.0302L8.8558 24.3669C8.16785 24.8552 7.60413 25.545 7.22191 26.3663L0.686315 22.0206C1.06854 21.1993 1.63226 20.5096 2.32021 20.0213L31.2859 0.63926C32.0061 0.222433 32.8005 0.00538095 33.6061 0.00538095C34.4117 0.00538095 35.2061 0.222433 35.9262 0.63926L37.8215 1.90675C38.4034 2.34319 38.9017 2.91232 39.2861 3.57918C39.6705 4.24604 39.9327 4.99656 40.0567 5.78466Z" fill="white"/>
<path d="M13.5744 38.0906C13.5965 35.814 14.0097 33.565 14.79 31.474V31.4287C15.6854 29.0371 16.9925 27.0152 18.45 26.0268C20.9531 24.3217 23.0249 27.7772 23.3647 31.8512C23.6654 27.3245 25.711 21.0927 28.2076 19.4027C29.665 18.4143 30.9852 18.6482 31.8937 19.8252C32.6649 20.8437 33.142 22.5412 33.155 24.7669C33.155 31.6475 29.5932 37.8944 26.6195 44.4658L23.3517 50.8108L20.2277 48.7813C17.2213 46.3368 13.6006 44.9788 13.5744 38.0906Z" fill="#FAFAFA"/>
</svg>
