<svg width="7" height="15" viewBox="0 0 7 15" fill="none" xmlns="http://www.w3.org/2000/svg">
<path d="M6.10775 0C6.10775 0 5.91106 0.1133 5.60709 0.384236C5.18342 0.778513 4.81708 1.24203 4.52085 1.75862C4.30706 2.10784 4.12442 2.47903 3.97549 2.867C3.83802 3.32344 3.75097 3.79646 3.71623 4.27586C3.65474 4.83345 3.47395 5.36697 3.18875 5.83251C2.86523 6.28316 2.59903 6.78036 2.39753 7.31034C2.09148 8.20574 2.09148 9.19326 2.39753 10.0887L2.42883 10.1823L2.35284 10.2364C1.31642 10.9741 0.565964 12.1101 0.247401 13.4236C0.137597 13.9414 0.0702753 14.469 0.046246 15C0.00996448 14.8625 -0.00514814 14.7193 0.0015419 14.5763C-0.00327983 14.1769 0.0357489 13.7783 0.11777 13.3892C0.402933 12.0093 1.16243 10.8051 2.23661 10.0295L2.19191 10.1773C1.86832 9.22438 1.86832 8.17463 2.19191 7.22167C2.39816 6.67633 2.67522 6.16689 3.01441 5.70936C3.2863 5.26804 3.458 4.76121 3.51507 4.23152C3.56894 3.29266 3.88076 2.39408 4.40909 1.65516C4.72461 1.13161 5.12101 0.673107 5.58027 0.300485C5.70394 0.197905 5.83918 0.113465 5.98258 0.0492641C6.02223 0.0270449 6.06429 0.0104879 6.10775 0Z" fill="#EB996E"/>
</svg>
