<svg width="50" height="50" viewBox="0 0 50 50" fill="none" xmlns="http://www.w3.org/2000/svg">
<g clip-path="url(#clip0_357_1347)">
<path d="M26.7722 45.0195L24.5994 42.8466L19.4138 37.6611L13.115 31.3622L7.69995 25.9472C6.82104 25.0683 5.95679 24.1796 5.06323 23.3105L5.02417 23.2714V26.7236L7.19702 24.5507L12.3826 19.3652L18.6814 13.0663L24.0964 7.65129C24.9753 6.77238 25.864 5.90324 26.7332 5.01457L26.7722 4.97551C27.2166 4.53117 27.4851 3.87688 27.4851 3.24699C27.4851 2.64641 27.2214 1.93352 26.7722 1.51848C26.3083 1.09367 25.698 0.776289 25.0437 0.805586C24.3943 0.834883 23.7839 1.05461 23.3152 1.51848L21.1423 3.69133L15.9568 8.87688L9.65796 15.1757L4.24292 20.5907C3.36401 21.4696 2.47534 22.3388 1.6062 23.2275L1.56714 23.2665C0.634521 24.1991 0.634521 25.7861 1.56714 26.7187C2.29468 27.4511 3.02222 28.1737 3.74487 28.9013L8.93042 34.0868L15.2292 40.3857L20.6443 45.8007C21.5232 46.6796 22.3923 47.5683 23.281 48.4374L23.3201 48.4765C23.7644 48.9208 24.4187 49.1894 25.0486 49.1894C25.6492 49.1894 26.3621 48.9257 26.7771 48.4765C27.2019 48.0126 27.5193 47.4023 27.49 46.748C27.4558 46.0986 27.241 45.4882 26.7722 45.0195Z" fill="black"/>
<path d="M3.28606 27.4414H44.9462C45.5077 27.4414 46.0741 27.4463 46.6357 27.4414H46.7089C47.3339 27.4414 47.9931 27.1679 48.4374 26.7285C48.8622 26.3037 49.1796 25.6103 49.1503 25C49.121 24.3701 48.9159 23.7158 48.4374 23.2715C47.9589 22.832 47.373 22.5586 46.7089 22.5586H5.04875C4.48723 22.5586 3.92082 22.5537 3.3593 22.5586H3.28606C2.66106 22.5586 2.00188 22.832 1.55754 23.2715C1.13273 23.6963 0.815352 24.3896 0.844649 25C0.873946 25.6299 1.07902 26.2842 1.55754 26.7285C2.04094 27.1631 2.62688 27.4414 3.28606 27.4414Z" fill="black"/>
</g>
<defs>
<clipPath id="clip0_357_1347">
<rect width="50" height="50" fill="white"/>
</clipPath>
</defs>
</svg>
