<svg width="25" height="22" viewBox="0 0 25 22" fill="none" xmlns="http://www.w3.org/2000/svg">
<path d="M24.322 9.70801C23.6893 12.5318 22.8326 15.2824 21.763 17.9249C21.1051 19.55 20.2302 22.1244 18.6119 21.9953C18.7237 21.5549 18.8224 21.122 18.9013 20.7119C18.9013 20.7119 18.7961 18.9577 13.8622 17.5376C8.92829 16.1175 7.61916 17.5376 7.61916 17.5376L7.40207 18.4868C6.5389 18.1793 5.69116 17.8167 4.86276 17.4009C3.71152 16.8085 1.86295 15.8213 1.24457 14.4771C1.03274 13.9701 0.894922 13.4261 0.836701 12.8672C0.672238 11.7812 0.5012 10.7028 0.336737 9.61689C0.0350771 8.12478 -0.0647849 6.58777 0.0407009 5.06041C0.0655888 4.51809 0.20062 3.99013 0.434889 3.51917C0.669159 3.04821 0.9961 2.64747 1.3893 2.3493C1.86434 2.10318 2.38199 1.98627 2.90236 2.00756C4.69829 1.90884 6.97446 1.02033 8.75724 0.822879C10.4216 0.633026 12.0465 0.184974 13.6977 0.0179031C15.3987 -0.0731985 17.1003 0.183903 18.7237 0.777317C22.2235 2.05313 25.2562 5.72109 24.322 9.70801Z" fill="#455A64"/>
</svg>
