<svg width="17" height="11" viewBox="0 0 17 11" fill="none" xmlns="http://www.w3.org/2000/svg">
<path opacity="0.4" d="M0.380528 10.8699C0.312704 10.8698 0.246143 10.8502 0.187824 10.8131C0.129505 10.776 0.081576 10.7227 0.0490576 10.659C-3.63502e-05 10.5652 -0.0128941 10.4546 0.0132497 10.3509C0.0393935 10.2471 0.102458 10.1584 0.188899 10.1039L16.4361 0.0525774C16.5236 -3.27467e-05 16.6268 -0.0138199 16.7237 0.0141964C16.8205 0.0422126 16.9032 0.109794 16.9541 0.202426C17.0014 0.297117 17.0127 0.407749 16.9857 0.511185C16.9587 0.614621 16.8954 0.702854 16.8091 0.757444L0.566981 10.8366C0.508107 10.8631 0.444252 10.8745 0.380528 10.8699Z" fill="black"/>
</svg>
