<svg width="24" height="25" viewBox="0 0 24 25" fill="none" xmlns="http://www.w3.org/2000/svg">
<path d="M15.0399 11.1603C15.2399 11.3528 15.3781 11.6001 15.4373 11.8709C15.4965 12.1418 15.4739 12.4241 15.3723 12.6821C15.2708 12.9401 15.0949 13.1623 14.8668 13.3206C14.6388 13.479 14.3688 13.5663 14.0911 13.5716C13.8133 13.5769 13.5402 13.5 13.3062 13.3505C13.0723 13.201 12.888 12.9856 12.7766 12.7317C12.6652 12.4777 12.6318 12.1965 12.6805 11.9236C12.7292 11.6507 12.8579 11.3983 13.0503 11.1984C13.1784 11.0653 13.3314 10.9588 13.5008 10.8848C13.6701 10.8109 13.8524 10.771 14.0372 10.7675C14.222 10.764 14.4057 10.7969 14.5778 10.8643C14.7499 10.9317 14.9069 11.0323 15.0399 11.1603Z" fill="#0060FF"/>
<path opacity="0.3" d="M15.0399 11.1603C15.2399 11.3528 15.3781 11.6001 15.4373 11.8709C15.4965 12.1418 15.4739 12.4241 15.3723 12.6821C15.2708 12.9401 15.0949 13.1623 14.8668 13.3206C14.6388 13.479 14.3688 13.5663 14.0911 13.5716C13.8133 13.5769 13.5402 13.5 13.3062 13.3505C13.0723 13.201 12.888 12.9856 12.7766 12.7317C12.6652 12.4777 12.6318 12.1965 12.6805 11.9236C12.7292 11.6507 12.8579 11.3983 13.0503 11.1984C13.1784 11.0653 13.3314 10.9588 13.5008 10.8848C13.6701 10.8109 13.8524 10.771 14.0372 10.7675C14.222 10.764 14.4057 10.7969 14.5778 10.8643C14.7499 10.9317 14.9069 11.0323 15.0399 11.1603Z" fill="white"/>
<path opacity="0.2" d="M14.3459 13.0863C14.0129 13.18 13.6568 13.1451 13.3485 12.9886C13.0402 12.832 12.8023 12.5653 12.6823 12.2416C12.6861 12.4487 12.7357 12.6524 12.8276 12.8382C12.9195 13.024 13.0514 13.1872 13.2138 13.3162C13.3763 13.4452 13.5653 13.5368 13.7673 13.5844C13.9694 13.6321 14.1795 13.6347 14.3826 13.5919C14.5857 13.5491 14.7769 13.4621 14.9425 13.3371C15.108 13.2121 15.2438 13.0521 15.3402 12.8686C15.4366 12.6852 15.4912 12.4827 15.5 12.2757C15.5089 12.0688 15.4718 11.8624 15.3915 11.6714C15.4846 12.0262 15.074 12.8498 14.3459 13.0863Z" fill="black"/>
<path d="M13.5921 8.55844C13.8912 8.84877 14.0977 9.22086 14.1855 9.62794C14.2734 10.035 14.2386 10.4589 14.0857 10.8464C13.9328 11.2338 13.6684 11.5675 13.326 11.8054C12.9835 12.0434 12.5782 12.1751 12.1609 12.1838C11.7437 12.1926 11.3332 12.0781 10.981 11.8547C10.6288 11.6314 10.3506 11.3091 10.1815 10.9284C10.0123 10.5478 9.95971 10.1257 10.0303 9.71529C10.1008 9.30488 10.2914 8.92444 10.5781 8.6218C10.7707 8.41838 11.002 8.25521 11.2584 8.14176C11.5149 8.02831 11.7914 7.96685 12.0718 7.96096C12.3522 7.95506 12.6311 8.00485 12.892 8.10742C13.153 8.20999 13.391 8.3633 13.5921 8.55844Z" fill="#0060FF"/>
<path opacity="0.2" d="M12.504 11.4433C11.9977 11.5848 11.4564 11.5292 10.9896 11.2877C10.5228 11.0462 10.1653 10.6368 9.9895 10.1423C10.0034 10.4475 10.0835 10.7461 10.2243 11.0174C10.3651 11.2887 10.5633 11.5263 10.805 11.7138C11.0468 11.9013 11.3265 12.0343 11.6247 12.1034C11.923 12.1726 12.2327 12.1764 12.5326 12.1145C12.8324 12.0526 13.1153 11.9265 13.3616 11.745C13.6079 11.5634 13.8117 11.3307 13.9591 11.0629C14.1065 10.7951 14.1939 10.4986 14.2153 10.1938C14.2367 9.88903 14.1915 9.58324 14.083 9.29755C14.2608 9.84665 13.6427 11.0927 12.504 11.4433Z" fill="black"/>
<path d="M13.4016 12.4275C13.7014 12.7176 13.9084 13.0897 13.9968 13.4969C14.0851 13.9041 14.0507 14.3283 13.898 14.7161C13.7452 15.1039 13.4809 15.4379 13.1384 15.6762C12.7958 15.9144 12.3902 16.0463 11.9727 16.055C11.5552 16.0638 11.1445 15.9492 10.7921 15.7256C10.4398 15.502 10.1616 15.1793 9.9926 14.7983C9.8236 14.4173 9.77133 13.9949 9.84237 13.5843C9.91341 13.1738 10.1046 12.7933 10.3918 12.4909C10.5844 12.2881 10.8154 12.1255 11.0715 12.0124C11.3275 11.8993 11.6035 11.8381 11.8835 11.8322C12.1634 11.8263 12.4417 11.8759 12.7023 11.9781C12.9629 12.0803 13.2006 12.233 13.4016 12.4275Z" fill="#0060FF"/>
<path opacity="0.2" d="M12.3138 15.3208C11.8069 15.4611 11.2656 15.4044 10.799 15.1622C10.3323 14.92 9.97509 14.5102 9.79926 14.0156C9.81317 14.3208 9.89328 14.6194 10.0341 14.8907C10.1749 15.162 10.373 15.3996 10.6148 15.5871C10.8565 15.7746 11.1362 15.9075 11.4345 15.9767C11.7327 16.0459 12.0425 16.0497 12.3423 15.9878C12.6422 15.9259 12.925 15.7998 13.1713 15.6183C13.4176 15.4367 13.6215 15.204 13.7689 14.9362C13.9163 14.6684 14.0037 14.3719 14.0251 14.0671C14.0464 13.7623 14.0013 13.4565 13.8927 13.1709C14.0705 13.7199 13.4525 14.9617 12.3138 15.3208Z" fill="black"/>
<path d="M10.8027 11.325C11.0045 11.5173 11.1446 11.765 11.2052 12.0367C11.2658 12.3085 11.2442 12.592 11.1432 12.8515C11.0421 13.111 10.8662 13.3348 10.6376 13.4944C10.409 13.6541 10.1381 13.7425 9.85916 13.7484C9.58021 13.7543 9.30578 13.6775 9.07061 13.5277C8.83544 13.3779 8.65012 13.1618 8.53811 12.9068C8.4261 12.6519 8.39245 12.3695 8.44141 12.0954C8.49037 11.8213 8.61974 11.5679 8.81315 11.3672C9.0717 11.099 9.42628 10.9439 9.79919 10.936C10.1721 10.9281 10.533 11.068 10.8027 11.325Z" fill="#0060FF"/>
<path opacity="0.3" d="M10.8027 11.325C11.0045 11.5173 11.1446 11.765 11.2052 12.0367C11.2658 12.3085 11.2442 12.592 11.1432 12.8515C11.0421 13.111 10.8662 13.3348 10.6376 13.4944C10.409 13.6541 10.1381 13.7425 9.85916 13.7484C9.58021 13.7543 9.30578 13.6775 9.07061 13.5277C8.83544 13.3779 8.65012 13.1618 8.53811 12.9068C8.4261 12.6519 8.39245 12.3695 8.44141 12.0954C8.49037 11.8213 8.61974 11.5679 8.81315 11.3672C9.0717 11.099 9.42628 10.9439 9.79919 10.936C10.1721 10.9281 10.533 11.068 10.8027 11.325Z" fill="white"/>
<path opacity="0.2" d="M10.0827 13.2342C9.74972 13.3279 9.39362 13.2929 9.08531 13.1364C8.777 12.9798 8.53912 12.7131 8.41905 12.3894C8.42288 12.5965 8.4725 12.8003 8.5644 12.986C8.65629 13.1718 8.78816 13.335 8.95061 13.464C9.11305 13.593 9.30206 13.6846 9.5041 13.7323C9.70615 13.7799 9.91625 13.7825 10.1194 13.7397C10.3225 13.697 10.5137 13.61 10.6792 13.4849C10.8448 13.3599 10.9806 13.1999 11.077 13.0165C11.1734 12.833 11.2279 12.6305 11.2368 12.4236C11.2457 12.2166 11.2086 12.0102 11.1283 11.8192C11.2426 12.1782 10.8362 13.0019 10.0827 13.2342Z" fill="black"/>
<path d="M11.6026 8.03044C6.75142 5.88475 2.56483 5.11179 1.19329 6.11284C1.01652 6.23481 0.878116 6.40437 0.794181 6.60178C0.710245 6.79919 0.684232 7.01633 0.719175 7.22792C0.930833 9.21734 5.037 12.6175 10.248 15.2532C10.1571 15.1419 10.0803 15.0199 10.0194 14.8899C5.01583 12.2965 1.1298 9.07372 0.93507 7.18991C0.911557 7.0486 0.921092 6.90378 0.962949 6.76677C1.00481 6.62975 1.07785 6.50425 1.17636 6.40006C1.21913 6.35103 1.26742 6.30709 1.32029 6.26912C1.96796 5.80027 3.3395 5.76648 5.13013 6.11284C7.32743 6.5825 9.46661 7.29068 11.5095 8.22474C17.6306 10.9322 22.8036 14.911 23.0364 17.0947C23.0655 17.2688 23.0449 17.4476 22.9767 17.6105C22.9086 17.7734 22.7957 17.9138 22.6512 18.0155C21.36 18.9532 17.1692 18.1507 12.4535 16.0683L12.3773 16.0346C12.2384 16.0653 12.0963 16.0795 11.954 16.0768L12.3773 16.2711C17.237 18.4168 21.4193 19.1897 22.7909 18.1929C22.8533 18.1477 22.9114 18.0968 22.9644 18.0409C23.0855 17.9134 23.1756 17.7599 23.2277 17.5922C23.2798 17.4245 23.2926 17.247 23.265 17.0736C23.1803 16.2711 22.4607 15.232 21.2881 14.117C19.1715 12.1022 15.586 9.79177 11.6026 8.03044Z" fill="#455A64"/>
<path d="M14.2652 0.0896816C12.119 0.828848 9.32938 6.82666 8.05096 13.458C7.0477 18.6618 7.23396 22.9067 8.52084 24.0176C8.68019 24.1605 8.87649 24.256 9.08747 24.2934C9.29846 24.3307 9.5157 24.3083 9.71459 24.2287C10.1538 24.0493 10.5452 23.7702 10.8575 23.4136C12.7667 21.4241 14.8663 16.3598 15.9373 10.8562C16.9448 5.65244 16.7586 1.41173 15.4759 0.296647C15.3151 0.150285 15.1155 0.0529994 14.9009 0.0163179C14.6864 -0.0203637 14.4658 0.00509674 14.2652 0.0896816ZM15.7172 10.8097C15.6368 11.2321 15.5563 11.6122 15.4675 12.0135C15.5054 12.3434 15.4276 12.6763 15.2473 12.9554C13.8546 18.6195 11.4967 23.3798 9.64686 24.0176C9.48339 24.086 9.30374 24.1064 9.12902 24.0765C8.9543 24.0466 8.79178 23.9675 8.66054 23.8486C7.45832 22.8053 7.29323 18.552 8.26686 13.5003C9.32091 8.00932 11.3867 3.00411 13.2493 1.06538C13.5498 0.726519 13.9252 0.461918 14.3457 0.292423C14.5088 0.224384 14.6881 0.204535 14.8622 0.235236C15.0363 0.265937 15.1979 0.345896 15.3278 0.4656L15.3743 0.507838C16.53 1.62292 16.6739 5.82561 15.7172 10.8097Z" fill="#455A64"/>
<path d="M13.0758 8.15292C6.51443 9.8171 0.67691 12.9512 0.0588687 15.1264C-0.00898256 15.3303 -0.0183867 15.5491 0.0317268 15.7581C0.0818403 15.9671 0.189484 16.1579 0.342496 16.3091C1.52778 17.5213 5.7821 17.4622 10.9254 16.1528L11.4291 16.0261C11.2996 15.9966 11.1734 15.9542 11.0524 15.8994L10.8746 15.9416C5.87522 17.2088 1.6082 17.2975 0.494883 16.1528C0.368491 16.03 0.279845 15.8738 0.239354 15.7024C0.198863 15.5311 0.208203 15.3518 0.266289 15.1856C0.426261 14.7329 0.691788 14.3246 1.04096 13.9944C2.91625 12.0388 7.78015 9.72418 13.1266 8.36411C18.1175 7.09697 22.3888 7.01249 23.4979 8.15714C23.6247 8.27966 23.7136 8.43591 23.7542 8.60736C23.7947 8.7788 23.7851 8.95824 23.7264 9.1244C23.2185 10.9195 18.9726 13.3989 13.7193 15.1138C13.654 15.2264 13.5743 15.33 13.4822 15.4221C17.8127 14.0409 21.5252 12.1191 23.1296 10.4338C23.497 10.0822 23.7743 9.64759 23.9381 9.16663C24.008 8.96327 24.0188 8.74434 23.9694 8.53508C23.92 8.32583 23.8123 8.13478 23.6587 7.98397C22.465 6.78863 18.2106 6.84776 13.0758 8.15292Z" fill="#455A64"/>
<path d="M1.56562 13.23C1.69202 13.3525 1.77926 13.5096 1.81637 13.6815C1.85348 13.8534 1.8388 14.0325 1.77417 14.1961C1.70954 14.3596 1.59785 14.5005 1.45317 14.6009C1.30848 14.7013 1.13727 14.7567 0.961071 14.7603C0.784874 14.7638 0.611563 14.7152 0.46297 14.6207C0.314377 14.5261 0.197136 14.3898 0.126002 14.2289C0.0548679 14.0681 0.033026 13.8898 0.0632176 13.7165C0.0934092 13.5433 0.174287 13.3828 0.295674 13.2553C0.377341 13.1704 0.474996 13.1023 0.583048 13.0551C0.6911 13.0078 0.807424 12.9823 0.925377 12.9799C1.04333 12.9776 1.1606 12.9985 1.27046 13.0414C1.38032 13.0843 1.48062 13.1484 1.56562 13.23Z" fill="#0060FF"/>
<path opacity="0.5" d="M1.56562 13.23C1.69202 13.3525 1.77926 13.5096 1.81637 13.6815C1.85348 13.8534 1.8388 14.0325 1.77417 14.1961C1.70954 14.3596 1.59785 14.5005 1.45317 14.6009C1.30848 14.7013 1.13727 14.7567 0.961071 14.7603C0.784874 14.7638 0.611563 14.7152 0.46297 14.6207C0.314377 14.5261 0.197136 14.3898 0.126002 14.2289C0.0548679 14.0681 0.033026 13.8898 0.0632176 13.7165C0.0934092 13.5433 0.174287 13.3828 0.295674 13.2553C0.377341 13.1704 0.474996 13.1023 0.583048 13.0551C0.6911 13.0078 0.807424 12.9823 0.925377 12.9799C1.04333 12.9776 1.1606 12.9985 1.27046 13.0414C1.38032 13.0843 1.48062 13.1484 1.56562 13.23Z" fill="white"/>
<path opacity="0.2" d="M1.10849 14.4423C0.896284 14.5075 0.66688 14.487 0.469717 14.3851C0.272554 14.2831 0.123406 14.108 0.054424 13.8974C0.0578893 14.0281 0.0901296 14.1564 0.148846 14.2733C0.207562 14.3901 0.291327 14.4927 0.394195 14.5736C0.497064 14.6546 0.616519 14.7119 0.744095 14.7417C0.87167 14.7714 1.00423 14.7728 1.1324 14.7457C1.26057 14.7186 1.3812 14.6637 1.48574 14.5849C1.59027 14.5061 1.67615 14.4054 1.73729 14.2897C1.79843 14.1741 1.83332 14.0465 1.83951 13.9159C1.8457 13.7854 1.82302 13.655 1.77308 13.5342C1.77768 13.7374 1.71509 13.9364 1.59496 14.1006C1.47484 14.2647 1.30387 14.3848 1.10849 14.4423Z" fill="black"/>
<path d="M13.1269 1.10345C13.2537 1.22556 13.3415 1.38238 13.3791 1.55415C13.4168 1.72593 13.4027 1.90498 13.3386 2.06878C13.2745 2.23258 13.1633 2.3738 13.019 2.47467C12.8746 2.57554 12.7036 2.63155 12.5274 2.63566C12.3512 2.63976 12.1778 2.59177 12.0289 2.49772C11.88 2.40368 11.7623 2.26779 11.6906 2.10715C11.6189 1.94651 11.5965 1.7683 11.6261 1.59497C11.6557 1.42163 11.736 1.2609 11.857 1.13301C11.9383 1.04777 12.0358 0.979385 12.1437 0.93176C12.2516 0.884134 12.3678 0.858207 12.4858 0.85546C12.6038 0.852714 12.7211 0.873205 12.8311 0.915757C12.9411 0.958309 13.0416 1.02209 13.1269 1.10345Z" fill="#0060FF"/>
<path opacity="0.5" d="M13.1269 1.10345C13.2537 1.22556 13.3415 1.38238 13.3791 1.55415C13.4168 1.72593 13.4027 1.90498 13.3386 2.06878C13.2745 2.23258 13.1633 2.3738 13.019 2.47467C12.8746 2.57554 12.7036 2.63155 12.5274 2.63566C12.3512 2.63976 12.1778 2.59177 12.0289 2.49772C11.88 2.40368 11.7623 2.26779 11.6906 2.10715C11.6189 1.94651 11.5965 1.7683 11.6261 1.59497C11.6557 1.42163 11.736 1.2609 11.857 1.13301C11.9383 1.04777 12.0358 0.979385 12.1437 0.93176C12.2516 0.884134 12.3678 0.858207 12.4858 0.85546C12.6038 0.852714 12.7211 0.873205 12.8311 0.915757C12.9411 0.958309 13.0416 1.02209 13.1269 1.10345Z" fill="white"/>
<path opacity="0.2" d="M12.6521 2.31989C12.4388 2.37858 12.2111 2.35459 12.0148 2.25274C11.8185 2.15089 11.6681 1.97872 11.5938 1.77079C11.602 2.00537 11.7006 2.22775 11.8689 2.39169C12.0164 2.53597 12.2094 2.62481 12.4151 2.64308C12.6208 2.66135 12.8265 2.60793 12.9972 2.4919C13.1679 2.37588 13.293 2.20442 13.3512 2.00671C13.4095 1.80901 13.3973 1.59728 13.3167 1.40755C13.3215 1.6113 13.2591 1.81098 13.139 1.97583C13.0189 2.14069 12.8478 2.26158 12.6521 2.31989Z" fill="black"/>
<path d="M19.2093 17.8171C19.3357 17.9396 19.4229 18.0967 19.4601 18.2686C19.4972 18.4405 19.4825 18.6195 19.4178 18.7831C19.3532 18.9467 19.2415 19.0876 19.0968 19.188C18.9522 19.2884 18.7809 19.3438 18.6047 19.3473C18.4285 19.3508 18.2552 19.3023 18.1067 19.2077C17.9581 19.1132 17.8408 18.9769 17.7697 18.816C17.6985 18.6551 17.6767 18.4768 17.7069 18.3036C17.7371 18.1303 17.818 17.9699 17.9393 17.8424C18.021 17.7575 18.1187 17.6894 18.2267 17.6421C18.3348 17.5949 18.4511 17.5693 18.5691 17.567C18.687 17.5646 18.8043 17.5855 18.9141 17.6284C19.024 17.6713 19.1243 17.7354 19.2093 17.8171Z" fill="#0060FF"/>
<path opacity="0.5" d="M19.2093 17.8171C19.3357 17.9396 19.4229 18.0967 19.4601 18.2686C19.4972 18.4405 19.4825 18.6195 19.4178 18.7831C19.3532 18.9467 19.2415 19.0876 19.0968 19.188C18.9522 19.2884 18.7809 19.3438 18.6047 19.3473C18.4285 19.3508 18.2552 19.3023 18.1067 19.2077C17.9581 19.1132 17.8408 18.9769 17.7697 18.816C17.6985 18.6551 17.6767 18.4768 17.7069 18.3036C17.7371 18.1303 17.818 17.9699 17.9393 17.8424C18.021 17.7575 18.1187 17.6894 18.2267 17.6421C18.3348 17.5949 18.4511 17.5693 18.5691 17.567C18.687 17.5646 18.8043 17.5855 18.9141 17.6284C19.024 17.6713 19.1243 17.7354 19.2093 17.8171Z" fill="white"/>
<path opacity="0.2" d="M18.7526 19.0292C18.5404 19.0945 18.311 19.0739 18.1139 18.972C17.9167 18.8701 17.7676 18.695 17.6986 18.4844C17.7009 18.6009 17.7264 18.7158 17.7736 18.8224C17.8209 18.929 17.8889 19.0251 17.9737 19.1053C18.1217 19.2469 18.314 19.3333 18.5183 19.3502C18.7227 19.3671 18.9266 19.3133 19.0959 19.1979C19.2652 19.0825 19.3895 18.9124 19.448 18.7164C19.5065 18.5203 19.4957 18.3101 19.4172 18.1211C19.4218 18.3243 19.3592 18.5234 19.2391 18.6875C19.119 18.8516 18.948 18.9717 18.7526 19.0292Z" fill="black"/>
</svg>
