<svg width="9" height="12" viewBox="0 0 9 12" fill="none" xmlns="http://www.w3.org/2000/svg">
<path d="M4.5 5.14286C5.00858 5.14286 5.50574 4.99205 5.92861 4.70949C6.35148 4.42694 6.68107 4.02534 6.87569 3.55547C7.07032 3.08561 7.12124 2.56858 7.02202 2.06977C6.9228 1.57096 6.6779 1.11278 6.31827 0.753155C5.95865 0.393534 5.50047 0.14863 5.00166 0.0494104C4.50285 -0.0498087 3.98582 0.00111415 3.51596 0.195739C3.04609 0.390365 2.64449 0.719951 2.36194 1.14282C2.07938 1.56569 1.92857 2.06285 1.92857 2.57143C1.92857 3.25342 2.19949 3.90747 2.68173 4.3897C3.16396 4.87194 3.81801 5.14286 4.5 5.14286ZM4.5 1.28572C4.75429 1.28572 5.00287 1.36112 5.2143 1.5024C5.42574 1.64367 5.59053 1.84447 5.68785 2.07941C5.78516 2.31434 5.81062 2.57286 5.76101 2.82226C5.7114 3.07166 5.58895 3.30076 5.40914 3.48057C5.22933 3.66038 5.00023 3.78283 4.75083 3.83244C4.50143 3.88205 4.24291 3.85659 4.00798 3.75928C3.77304 3.66196 3.57224 3.49717 3.43097 3.28573C3.28969 3.0743 3.21429 2.82572 3.21429 2.57143C3.21429 2.23044 3.34974 1.90341 3.59086 1.66229C3.83198 1.42117 4.15901 1.28572 4.5 1.28572ZM4.5 6.42857C3.30653 6.42857 2.16193 6.90268 1.31802 7.74659C0.474106 8.59051 0 9.7351 0 10.9286C0 11.0991 0.0677295 11.2626 0.188289 11.3831C0.308848 11.5037 0.472361 11.5714 0.642857 11.5714C0.813353 11.5714 0.976867 11.5037 1.09743 11.3831C1.21798 11.2626 1.28571 11.0991 1.28571 10.9286C1.28571 10.0761 1.62436 9.25852 2.22716 8.65573C2.82995 8.05293 3.64752 7.71429 4.5 7.71429C5.35248 7.71429 6.17005 8.05293 6.77284 8.65573C7.37564 9.25852 7.71429 10.0761 7.71429 10.9286C7.71429 11.0991 7.78201 11.2626 7.90257 11.3831C8.02313 11.5037 8.18665 11.5714 8.35714 11.5714C8.52764 11.5714 8.69115 11.5037 8.81171 11.3831C8.93227 11.2626 9 11.0991 9 10.9286C9 9.7351 8.52589 8.59051 7.68198 7.74659C6.83807 6.90268 5.69347 6.42857 4.5 6.42857Z" fill="black"/>
</svg>
