<svg width="46" height="77" viewBox="0 0 46 77" fill="none" xmlns="http://www.w3.org/2000/svg">
<path d="M33.8652 0C24.1777 3.23845 19.8544 5.02579 16.7053 11.9451C13.5562 18.8644 8.08001 35.9828 5.027 46.4001C2.40632 55.3073 0.97588 63.4181 2.71055 67.5178L21.5731 60.7578L31.5327 33.8179C31.5327 33.8179 38.0017 17.1066 33.8652 0Z" fill="#455A64"/>
<path d="M21.146 52.7177C22.5231 52.5289 23.9002 52.7649 25.2078 52.234C25.5305 52.1443 25.8324 51.9802 26.0936 51.7525C26.3549 51.5248 26.5696 51.2386 26.7237 50.9126C27.0172 50.0219 26.4568 49.0781 25.8537 48.4056C24.1559 46.604 22.022 45.3849 19.7103 44.8959C15.2435 43.9001 10.6016 44.7146 6.63355 47.1905C4.26906 48.6003 1.37617 50.5115 1.21071 53.8384C1.15734 54.8412 1.36016 55.8735 1.08795 56.8292C0.906479 57.4662 0.522185 58.0089 0.314025 58.6401C0.145496 59.2121 0.0537784 59.8083 0.0418107 60.4097C-0.0501813 61.1309 0.0101047 61.8658 0.217947 62.5569C0.37807 62.9816 0.65562 63.3532 0.82108 63.778C0.998141 64.448 1.13718 65.1297 1.2374 65.8189C1.58967 67.1875 2.9347 68.7684 4.0609 67.3939C5.08035 66.1434 5.42729 64.4445 6.09447 62.9639C6.8684 61.2592 8.31484 59.9496 9.67589 58.8347C11.5279 57.3473 13.5068 56.0632 15.5844 55.0005C17.1481 54.0891 18.801 53.3786 20.5109 52.8828C20.7244 52.7885 20.9325 52.7472 21.146 52.7177Z" fill="#37474F"/>
<path d="M28.1754 46.0105C26.3873 48.37 20.9965 49.072 17.2016 50.2459C13.4067 51.4197 8.73643 53.4135 6.14243 57.7963C3.85801 61.6483 1.44549 64.8218 2.58236 67.8538C3.36697 69.942 7.69029 71.051 12.7609 71.0923C17.8314 71.1336 22.3682 66.0252 27.7057 62.4505C32.2852 59.3831 34.3881 57.9556 34.3881 57.9556L28.1754 46.0105Z" fill="#F28F8F"/>
<path d="M34.6123 49.3789C32.963 47.4795 32.6908 45.5741 30.2196 43.952C27.7484 42.3298 26.1792 42.3534 23.5478 40.802C20.9165 39.2506 18.7761 38.4425 16.7586 39.1149C14.741 39.7874 15.0346 41.0674 16.5237 42.1469C18.0129 43.2264 20.5749 44.6598 22.3469 46.1463C24.1189 47.6328 25.8589 48.5058 25.8216 51.0069C25.6783 54.9878 25.3433 58.9574 24.8181 62.899C24.2844 67.1048 23.4411 70.5025 23.7186 70.9626C23.9962 71.4227 25.6294 71.6646 26.6756 69.3346C27.7217 67.0045 29.1735 58.4512 29.1735 58.4512C29.1735 58.4512 29.8086 64.4149 30.0435 68.5205C30.2783 72.6261 30.3424 75.7643 30.4331 76.6373C30.5238 77.5103 33.1659 76.8968 33.6356 73.8177C34.1053 70.7385 33.7156 61.554 33.7156 61.554C33.7156 61.554 35.8506 65.7717 37.1903 68.5087C38.53 71.2458 40.2273 74.962 40.7824 75.8822C41.3375 76.8025 43.0348 75.2275 42.6772 72.7618C42.3196 70.2961 39.5708 64.2144 39.5708 64.2144C39.5708 64.2144 42.9494 68.2728 43.5472 68.6739C44.145 69.075 45.9811 68.7978 45.3993 66.0725C45.0096 64.2439 43.9795 63.07 41.2681 59.5071C38.5567 55.9442 38.5994 54.499 37.7828 52.8769C36.6939 50.7297 35.8132 50.7297 34.6123 49.3789Z" fill="#FFA8A7"/>
<path d="M27.7165 50.6589C30.4439 52.0628 33.1713 50.7533 33.5556 50.0042C33.3421 52.0982 29.5419 53.2485 27.7165 50.6589Z" fill="#F28F8F"/>
<path d="M45.4526 67.6416C45.1911 68.0191 44.3851 68.1312 43.7233 67.4764C43.0615 66.8217 41.3588 64.6568 40.6009 63.6599C39.843 62.663 37.233 59.1237 37.233 59.1237L39.5761 64.2144C39.5761 64.2144 42.9547 68.2728 43.5525 68.6739C43.7362 68.7718 43.9377 68.8222 44.1417 68.8213C44.3457 68.8205 44.5468 68.7683 44.7299 68.6689C44.913 68.5694 45.0732 68.4252 45.1984 68.2473C45.3236 68.0693 45.4105 67.8622 45.4526 67.6416Z" fill="#F28F8F"/>
</svg>
