<svg width="50" height="50" viewBox="0 0 50 50" fill="none" xmlns="http://www.w3.org/2000/svg">
<path d="M36.1251 11.3748C35.6306 11.3748 35.1473 11.5215 34.7362 11.7962C34.325 12.0709 34.0046 12.4613 33.8154 12.9181C33.6262 13.3749 33.5767 13.8776 33.6731 14.3626C33.7696 14.8475 34.0077 15.293 34.3573 15.6426C34.7069 15.9922 35.1524 16.2303 35.6374 16.3268C36.1223 16.4233 36.625 16.3738 37.0818 16.1845C37.5386 15.9953 37.9291 15.6749 38.2038 15.2638C38.4785 14.8526 38.6251 14.3693 38.6251 13.8748C38.6251 13.2118 38.3617 12.5759 37.8928 12.1071C37.424 11.6382 36.7881 11.3748 36.1251 11.3748ZM45.7084 16.4165C45.6679 14.688 45.3442 12.9778 44.7501 11.354C44.2204 9.9647 43.3959 8.70667 42.3334 7.6665C41.3018 6.59864 40.0408 5.77937 38.6459 5.27067C37.0264 4.65851 35.3143 4.32736 33.5834 4.2915C31.3751 4.1665 30.6667 4.1665 25.0001 4.1665C19.3334 4.1665 18.6251 4.1665 16.4167 4.2915C14.6858 4.32736 12.9737 4.65851 11.3542 5.27067C9.96191 5.78452 8.70203 6.60309 7.66675 7.6665C6.59889 8.69812 5.77962 9.95909 5.27091 11.354C4.65875 12.9735 4.3276 14.6856 4.29175 16.4165C4.16675 18.6248 4.16675 19.3332 4.16675 24.9998C4.16675 30.6665 4.16675 31.3748 4.29175 33.5832C4.3276 35.3141 4.65875 37.0262 5.27091 38.6457C5.77962 40.0406 6.59889 41.3015 7.66675 42.3332C8.70203 43.3966 9.96191 44.2151 11.3542 44.729C12.9737 45.3412 14.6858 45.6723 16.4167 45.7082C18.6251 45.8332 19.3334 45.8332 25.0001 45.8332C30.6667 45.8332 31.3751 45.8332 33.5834 45.7082C35.3143 45.6723 37.0264 45.3412 38.6459 44.729C40.0408 44.2203 41.3018 43.401 42.3334 42.3332C43.4006 41.2969 44.2258 40.0377 44.7501 38.6457C45.3442 37.0219 45.6679 35.3117 45.7084 33.5832C45.7084 31.3748 45.8334 30.6665 45.8334 24.9998C45.8334 19.3332 45.8334 18.6248 45.7084 16.4165ZM41.9584 33.3332C41.9432 34.6556 41.7037 35.9659 41.2501 37.2082C40.9174 38.1148 40.3832 38.9341 39.6876 39.604C39.0118 40.2926 38.1943 40.8257 37.2917 41.1665C36.0495 41.6202 34.7392 41.8597 33.4167 41.8748C31.3334 41.979 30.5626 41.9998 25.0834 41.9998C19.6042 41.9998 18.8334 41.9998 16.7501 41.8748C15.3769 41.9005 14.0097 41.6891 12.7084 41.2498C11.8455 40.8917 11.0654 40.3598 10.4167 39.6873C9.72527 39.0181 9.19767 38.1982 8.87508 37.2915C8.36645 36.0314 8.08434 34.6914 8.04175 33.3332C8.04175 31.2498 7.91675 30.479 7.91675 24.9998C7.91675 19.5207 7.91675 18.7498 8.04175 16.6665C8.05109 15.3145 8.29789 13.9747 8.77091 12.7082C9.13768 11.8288 9.70063 11.045 10.4167 10.4165C11.0497 9.70019 11.8319 9.13129 12.7084 8.74984C13.9783 8.29159 15.3167 8.05209 16.6667 8.0415C18.7501 8.0415 19.5209 7.9165 25.0001 7.9165C30.4792 7.9165 31.2501 7.9165 33.3334 8.0415C34.6559 8.05667 35.9661 8.29618 37.2084 8.74984C38.1551 9.1012 39.0049 9.67243 39.6876 10.4165C40.3703 11.0565 40.9037 11.8389 41.2501 12.7082C41.7131 13.9768 41.9528 15.316 41.9584 16.6665C42.0626 18.7498 42.0834 19.5207 42.0834 24.9998C42.0834 30.479 42.0626 31.2498 41.9584 33.3332ZM25.0001 14.3123C22.8872 14.3165 20.8229 14.9468 19.0681 16.1236C17.3133 17.3005 15.9467 18.9711 15.141 20.9243C14.3353 22.8776 14.1266 25.0258 14.5413 27.0976C14.956 29.1694 15.9756 31.0718 17.4711 32.5644C18.9666 34.057 20.8709 35.0728 22.9435 35.4835C25.0161 35.8942 27.164 35.6813 29.1156 34.8718C31.0673 34.0623 32.7352 32.6924 33.9087 30.9353C35.0821 29.1782 35.7084 27.1127 35.7084 24.9998C35.7112 23.5938 35.4359 22.2011 34.8985 20.9018C34.3611 19.6026 33.5721 18.4224 32.5769 17.4291C31.5817 16.4359 30.4 15.6492 29.0997 15.1143C27.7993 14.5794 26.4061 14.3068 25.0001 14.3123ZM25.0001 31.9373C23.628 31.9373 22.2867 31.5305 21.1458 30.7682C20.0049 30.0059 19.1157 28.9224 18.5907 27.6547C18.0656 26.387 17.9282 24.9921 18.1959 23.6464C18.4636 22.3007 19.1243 21.0645 20.0945 20.0943C21.0648 19.1241 22.3009 18.4633 23.6466 18.1956C24.9924 17.928 26.3873 18.0653 27.6549 18.5904C28.9226 19.1155 30.0061 20.0047 30.7684 21.1456C31.5307 22.2864 31.9376 23.6277 31.9376 24.9998C31.9376 25.9109 31.7581 26.813 31.4095 27.6547C31.0609 28.4964 30.5498 29.2612 29.9056 29.9054C29.2614 30.5496 28.4966 31.0606 27.6549 31.4093C26.8133 31.7579 25.9111 31.9373 25.0001 31.9373Z" fill="white"/>
</svg>
