<svg width="25" height="15" viewBox="0 0 25 15" fill="none" xmlns="http://www.w3.org/2000/svg">
<path fill-rule="evenodd" clip-rule="evenodd" d="M24.6344 14.5002C25.1219 13.9479 25.1219 13.0548 24.6344 12.5039L14.3049 0.827271C14.0772 0.565896 13.8032 0.357771 13.4995 0.215554C13.1957 0.0733376 12.8687 -9.53674e-07 12.5381 -9.53674e-07C12.2076 -9.53674e-07 11.8805 0.0733376 11.5768 0.215554C11.2731 0.357771 10.999 0.565896 10.7713 0.827271L0.365618 12.5884C0.133064 12.8553 0.00235299 13.2088 3.14595e-05 13.5771C-0.00229007 13.9453 0.123952 14.3007 0.353118 14.5711C0.466288 14.7051 0.603458 14.8122 0.756134 14.886C0.908811 14.9598 1.07374 14.9986 1.24072 15C1.40769 15.0014 1.57315 14.9654 1.72685 14.8942C1.88056 14.823 2.01923 14.7181 2.13428 14.5861L11.655 3.82176C11.7689 3.69097 11.906 3.58682 12.0579 3.51564C12.2098 3.44447 12.3734 3.40777 12.5388 3.40777C12.7041 3.40777 12.8677 3.44447 13.0196 3.51564C13.1715 3.58682 13.3086 3.69097 13.4225 3.82176L22.8682 14.5002C22.982 14.631 23.1189 14.7351 23.2707 14.8063C23.4226 14.8774 23.5861 14.9141 23.7513 14.9141C23.9165 14.9141 24.0801 14.8774 24.2319 14.8063C24.3837 14.7351 24.5206 14.631 24.6344 14.5002Z" fill="black"/>
</svg>
