<svg width="13" height="15" viewBox="0 0 13 15" fill="none" xmlns="http://www.w3.org/2000/svg">
<path d="M6.14951 1.40472C3.93002 1.40472 2.12626 3.20848 2.12626 5.42797V7.36583C2.12626 7.77486 1.95192 8.39847 1.74405 8.74715L0.972933 10.0279C0.496849 10.8191 0.825414 11.6975 1.69712 11.9926C4.58715 12.9581 7.70516 12.9581 10.5952 11.9926C11.4066 11.7244 11.7619 10.7655 11.3194 10.0279L10.5483 8.74715C10.3471 8.39847 10.1728 7.77486 10.1728 7.36583V5.42797C10.1728 3.21518 8.36229 1.40472 6.14951 1.40472Z" stroke="#292D32" stroke-width="1.5" stroke-miterlimit="10" stroke-linecap="round"/>
<path d="M7.39023 1.59924C7.18236 1.53889 6.96779 1.49195 6.74651 1.46513C6.10279 1.38467 5.48589 1.43161 4.90922 1.59924C5.10368 1.10304 5.58647 0.754359 6.14973 0.754359C6.71298 0.754359 7.19577 1.10304 7.39023 1.59924Z" stroke="#292D32" stroke-width="1.5" stroke-miterlimit="10" stroke-linecap="round" stroke-linejoin="round"/>
<path d="M8.16141 12.234C8.16141 13.3404 7.25618 14.2456 6.14979 14.2456C5.59995 14.2456 5.09034 14.0177 4.72824 13.6556C4.36615 13.2935 4.13817 12.7839 4.13817 12.234" stroke="#292D32" stroke-width="1.5" stroke-miterlimit="10"/>
</svg>
