<svg width="14" height="82" viewBox="0 0 14 82" fill="none" xmlns="http://www.w3.org/2000/svg">
<path d="M10.0459 81.9999C10.714 81.0408 11.2949 80.0164 11.7805 78.9405C12.3269 77.6721 12.7117 76.3319 12.9246 74.9554C13.2464 72.9345 13.1747 70.865 12.7138 68.8748C12.2529 66.8845 11.4127 65.0159 10.2452 63.3846C8.7607 61.3454 7.16354 59.4018 5.46215 57.5639C3.54686 55.5212 1.99185 53.1299 0.870991 50.5037C0.297099 49.0863 0.000749706 47.5596 0 46.0166C0.0252691 44.4203 0.426209 42.8561 1.16624 41.4667C2.6425 38.6662 4.85688 36.5638 6.33314 34.0928C7.09705 32.9083 7.63381 31.5755 7.91273 30.1704C8.14118 28.8123 8.15614 27.4232 7.95702 26.0599C7.54562 23.5294 6.80014 21.0733 5.74264 18.7643C4.81321 16.721 3.98777 14.6261 3.26991 12.4886C1.96342 8.56633 2.33249 4.94212 3.26991 2.83976C3.59157 2.02218 4.04913 1.27282 4.62068 0.627573C4.81748 0.396432 5.03503 0.186244 5.27023 0C5.27023 0 5.05618 0.227502 4.67974 0.682491C4.13573 1.34957 3.70377 2.11114 3.40277 2.9339C2.54654 5.02841 2.22177 8.5428 3.54302 12.4259C4.27715 14.5356 5.11232 16.6041 6.04527 18.6232C7.14386 20.9535 7.92191 23.4395 8.35561 26.0049C8.56203 27.4124 8.54706 28.8466 8.31132 30.2489C8.03128 31.7076 7.47912 33.092 6.68744 34.3202C5.15213 36.8462 2.95989 38.9486 1.52054 41.6707C0.810475 43.0029 0.422444 44.5015 0.391207 46.0323C0.386135 47.5174 0.657044 48.9889 1.18839 50.3625C2.28877 52.9522 3.81332 55.3135 5.69097 57.3364C7.39814 59.1879 8.99557 61.1502 10.474 63.212C11.7568 65.0458 12.6393 67.1601 13.0575 69.4014C13.636 72.6574 13.2195 76.0246 11.8691 79.0111C11.5044 79.8129 11.0669 80.5748 10.5626 81.286L10.1493 81.8273L10.0459 81.9999Z" fill="#455A64"/>
</svg>
