<svg width="19" height="15" viewBox="0 0 19 15" fill="none" xmlns="http://www.w3.org/2000/svg">
<path d="M18.4977 11.6997C18.362 11.6521 18.216 11.6419 18.075 11.6702L17.3353 9.98319C17.4631 9.88982 17.5602 9.76063 17.6143 9.61206C17.6877 9.40737 17.6767 9.18196 17.5835 8.98542C17.4904 8.78887 17.3228 8.6373 17.1177 8.56403C16.9125 8.49077 16.6866 8.50182 16.4896 8.59475C16.2926 8.68769 16.1407 8.85489 16.0673 9.05958C16.0263 9.1729 16.0118 9.29408 16.025 9.41384L14.1272 10.0043C14 9.73725 13.7796 9.52568 13.5073 9.40922C13.2349 9.29275 12.9294 9.2794 12.6479 9.37167L11.5362 7.09848C11.7452 6.95823 11.9048 6.75616 11.9927 6.52069C12.079 6.26631 12.079 5.99064 11.9927 5.73625L13.2607 5.13316C13.3516 5.25341 13.4747 5.34553 13.6158 5.39886C13.7662 5.45579 13.9301 5.46686 14.0867 5.43067C14.2434 5.39448 14.3858 5.31266 14.4958 5.19559C14.6058 5.07852 14.6784 4.93149 14.7045 4.77315C14.7306 4.61481 14.7089 4.45231 14.6423 4.30627C14.5757 4.16023 14.467 4.03723 14.3302 3.9529C14.1934 3.86856 14.0346 3.82669 13.8739 3.8326C13.7131 3.8385 13.5578 3.89192 13.4276 3.98606C13.2973 4.08021 13.1981 4.21084 13.1424 4.36138C13.0866 4.5082 13.0763 4.66834 13.1128 4.82107L11.8448 5.42416C11.7027 5.2081 11.4955 5.04269 11.253 4.95181C11.1694 4.92234 11.083 4.90115 10.9952 4.88855V3.41667C11.1268 3.38701 11.2489 3.32526 11.3507 3.23694C11.4525 3.14862 11.5308 3.03648 11.5785 2.91058C11.6379 2.71364 11.62 2.50151 11.5284 2.31727C11.4368 2.13302 11.2783 1.99047 11.0852 1.91855C10.8921 1.84662 10.6788 1.85072 10.4886 1.93001C10.2984 2.00929 10.1455 2.15782 10.0611 2.34545C10.03 2.43219 10.0129 2.52329 10.0104 2.61536L9.3045 2.75876C9.23352 2.58613 9.10467 2.44344 8.93997 2.35507C8.77526 2.26669 8.58492 2.23811 8.40144 2.27421C8.21797 2.3103 8.05274 2.40884 7.93399 2.55298C7.81523 2.69712 7.7503 2.87792 7.7503 3.06452C7.7503 3.25111 7.81523 3.43192 7.93399 3.57606C8.05274 3.7202 8.21797 3.81873 8.40144 3.85483C8.58492 3.89093 8.77526 3.86235 8.93997 3.77397C9.10467 3.6856 9.23352 3.54291 9.3045 3.37028C9.33627 3.28387 9.35203 3.19241 9.351 3.10037L10.0653 2.95276C10.1089 3.05021 10.1718 3.13783 10.2502 3.21033C10.3287 3.28282 10.4211 3.33867 10.5218 3.3745C10.5587 3.38827 10.597 3.39817 10.6359 3.40402V4.88012C10.4193 4.9117 10.2152 5.00078 10.0449 5.13804C9.87466 5.2753 9.74448 5.45568 9.668 5.66034C9.6302 5.76361 9.60604 5.87136 9.59615 5.98086L6.61629 6.15378C6.57455 5.9514 6.48211 5.76287 6.34759 5.60578C6.21307 5.4487 6.04085 5.32818 5.84702 5.25547C5.74217 5.21738 5.63274 5.19328 5.52156 5.18377L5.34826 2.14301C5.51264 2.09767 5.65841 2.00156 5.76466 1.86845C5.87091 1.73534 5.93218 1.57208 5.93969 1.40207C5.9472 1.23207 5.90056 1.06406 5.80646 0.922143C5.71236 0.780223 5.57563 0.671684 5.41589 0.61209C5.31598 0.574945 5.20972 0.557808 5.10317 0.561658C4.99662 0.565508 4.89187 0.590269 4.79492 0.634526C4.69797 0.678784 4.6107 0.74167 4.53812 0.819592C4.46553 0.897514 4.40904 0.988944 4.37188 1.08866C4.3696 1.11391 4.3696 1.13932 4.37188 1.16457L2.41912 1.08022C2.38712 0.785001 2.24746 0.511818 2.02673 0.312647C1.806 0.113476 1.51959 0.00221589 1.222 3.2746e-05C0.924405 -0.0021504 0.63639 0.104895 0.412748 0.300806C0.189105 0.496717 0.0454414 0.767822 0.00908776 1.06254C-0.0272659 1.35726 0.0462274 1.65504 0.215586 1.89921C0.384944 2.14338 0.638349 2.31692 0.927593 2.3868C1.21684 2.45669 1.52173 2.41804 1.78428 2.27822C2.04683 2.1384 2.2487 1.90716 2.35149 1.62849C2.37569 1.56274 2.39407 1.495 2.40644 1.42605L4.35498 1.5104C4.37912 1.64858 4.439 1.77807 4.52871 1.88607C4.61841 1.99407 4.73482 2.07682 4.86641 2.12614C4.91597 2.14409 4.96684 2.15819 5.01858 2.16832L5.19187 5.20486C5.00237 5.23981 4.82389 5.31915 4.67112 5.43636C4.51835 5.55357 4.39565 5.7053 4.31312 5.87906C4.23058 6.05282 4.19057 6.24365 4.19638 6.43585C4.20219 6.62805 4.25365 6.81613 4.34652 6.98461L2.96437 8.06849C2.89367 8.0062 2.81197 7.95758 2.72345 7.9251C2.54675 7.85824 2.35226 7.85467 2.17322 7.915C1.99417 7.97533 1.84168 8.09582 1.74177 8.25588C1.64187 8.41594 1.60076 8.60564 1.62546 8.79258C1.65016 8.97952 1.73915 9.15211 1.87722 9.28086C2.01528 9.40961 2.19387 9.48654 2.38247 9.4985C2.57106 9.51047 2.75798 9.45672 2.91127 9.34645C3.06457 9.23619 3.17474 9.07623 3.22297 8.89392C3.2712 8.7116 3.2545 8.51823 3.17571 8.34684L4.5959 7.26718C4.71455 7.38885 4.85897 7.48251 5.01858 7.54131C5.16779 7.59956 5.32773 7.62544 5.48775 7.61722L5.74981 9.05114C5.64688 9.09311 5.55387 9.15604 5.47672 9.23592C5.39957 9.31581 5.33998 9.41088 5.30177 9.51506C5.24507 9.66498 5.23421 9.8283 5.27059 9.98437C5.30696 10.1404 5.38892 10.2822 5.50609 10.3918C5.62327 10.5014 5.77039 10.5738 5.92883 10.5999C6.08727 10.626 6.24992 10.6046 6.39617 10.5384C6.54243 10.4723 6.66572 10.3643 6.75044 10.2282C6.83516 10.0921 6.87751 9.93391 6.87211 9.77377C6.86672 9.61362 6.81382 9.45868 6.72013 9.32854C6.62644 9.19841 6.49616 9.09893 6.34578 9.04271C6.26546 9.01482 6.18139 8.99918 6.0964 8.99632L5.83434 7.5624C6.00675 7.50713 6.16456 7.41405 6.29622 7.28999C6.42787 7.16592 6.53001 7.01402 6.59516 6.84544C6.63508 6.74133 6.6593 6.63189 6.66701 6.52069L9.6511 6.34778C9.68382 6.51674 9.75227 6.6768 9.85189 6.81727C9.95151 6.95775 10.08 7.07541 10.2288 7.16242C10.3776 7.24943 10.5433 7.30378 10.7148 7.32184C10.8863 7.33991 11.0597 7.32127 11.2235 7.26718L12.3478 9.54037C12.1395 9.68316 11.9801 9.88631 11.8913 10.1224C11.8008 10.3675 11.7919 10.6352 11.8659 10.8857L10.0907 11.687C10.0011 11.5572 9.87447 11.4572 9.72718 11.4002C9.57747 11.3453 9.4148 11.3358 9.2597 11.373C9.1046 11.4102 8.96403 11.4924 8.85571 11.6093C8.7474 11.7261 8.67621 11.8724 8.65113 12.0296C8.62605 12.1867 8.6482 12.3478 8.71478 12.4925C8.78137 12.6371 8.88941 12.7588 9.02526 12.8422C9.16111 12.9257 9.31869 12.9671 9.4781 12.9612C9.63751 12.9553 9.79161 12.9025 9.92094 12.8093C10.0503 12.7162 10.1491 12.5869 10.2048 12.4377C10.2556 12.2928 10.2659 12.1368 10.2344 11.9865L12.0096 11.1852C12.1512 11.408 12.362 11.5783 12.6098 11.6702C12.663 11.6914 12.7182 11.707 12.7747 11.7166L12.6605 13.2264C12.4673 13.2566 12.2918 13.3562 12.167 13.5064C12.0421 13.6566 11.9765 13.8471 11.9823 14.0421C11.9882 14.2372 12.0653 14.4234 12.199 14.5658C12.3327 14.7082 12.5138 14.7971 12.7085 14.8157C12.9032 14.8343 13.098 14.7813 13.2564 14.6668C13.4147 14.5523 13.5257 14.3841 13.5686 14.1937C13.6115 14.0033 13.5833 13.8038 13.4892 13.6327C13.3952 13.4616 13.2418 13.3306 13.0579 13.2643H13.0071L13.1086 11.7461C13.2783 11.7349 13.4438 11.6883 13.5944 11.6093C13.745 11.5304 13.8773 11.4208 13.9828 11.2877C14.0884 11.1545 14.1648 11.0008 14.2071 10.8364C14.2495 10.6721 14.2568 10.5006 14.2287 10.3332L16.1223 9.7428C16.2169 9.90789 16.3664 10.0347 16.5449 10.1013C16.6807 10.1482 16.8261 10.1598 16.9676 10.135L17.7073 11.822C17.5787 11.9127 17.4812 12.0409 17.4283 12.1889C17.372 12.3391 17.3617 12.5026 17.3987 12.6587C17.4356 12.8147 17.5182 12.9563 17.6359 13.0655C17.7536 13.1747 17.9011 13.2466 18.0598 13.272C18.2185 13.2974 18.3812 13.2753 18.5272 13.2083C18.6733 13.1414 18.7961 13.0327 18.8802 12.896C18.9642 12.7593 19.0057 12.6008 18.9994 12.4406C18.993 12.2804 18.9392 12.1256 18.8446 11.996C18.75 11.8663 18.619 11.7676 18.4681 11.7123L18.4977 11.6997Z" fill="#0060FF"/>
</svg>
