<svg width="31" height="56" viewBox="0 0 31 56" fill="none" xmlns="http://www.w3.org/2000/svg">
<path d="M27.488 3.55922C26.0369 1.93512 24.1295 0.794968 22.0196 0.29051C19.9097 -0.213948 17.6975 -0.0587841 15.6772 0.735353C13.657 1.52949 11.9247 2.92493 10.7108 4.73594C9.49691 6.54695 8.85906 8.68763 8.88216 10.873C8.91226 13.6677 9.99559 16.601 8.88216 19.1661C8.10836 20.9859 6.3028 22.3594 6.06636 24.3221C5.77833 26.5969 7.71286 28.655 7.60968 30.9557C7.5452 32.4549 6.61233 33.7764 5.54189 34.8163C4.47145 35.8561 3.22476 36.7097 2.2403 37.8493C-0.489531 40.9776 -0.661489 45.917 1.38051 49.5219C3.42251 53.1268 7.42912 55.3972 11.5303 55.8868C15.6315 56.3764 19.8187 55.2369 23.4513 53.2481C25.8157 51.9483 28.0383 50.2498 29.444 47.9361C30.8498 45.6224 31.3356 42.624 30.2221 40.137" fill="#263238"/>
</svg>
