<svg width="21" height="18" viewBox="0 0 21 18" fill="none" xmlns="http://www.w3.org/2000/svg">
<path d="M20.249 0C20.1887 0.0722203 20.1197 0.135044 20.0439 0.186735L19.4285 0.678136C18.8934 1.10074 18.122 1.71499 17.199 2.49141C15.3083 4.03932 12.7398 6.24572 9.96621 8.74695C7.19261 11.2482 4.69994 13.5725 2.91628 15.2678L0.789266 17.2826L0.209581 17.8231C0.146863 17.8917 0.076429 17.9512 0 18C0 18 0.0535072 17.9214 0.178364 17.7887L0.726845 17.2089C1.20843 16.7175 1.90851 16 2.79142 15.1401C4.54833 13.4104 7.01425 11.0713 9.80122 8.56021C12.5882 6.04915 15.1522 3.86733 17.083 2.35382C18.0373 1.59214 18.8266 1.00246 19.3795 0.604429L20.0172 0.152348C20.0901 0.093871 20.1677 0.0428659 20.249 0Z" fill="#263238"/>
</svg>
