<svg width="223" height="241" viewBox="0 0 223 241" fill="none" xmlns="http://www.w3.org/2000/svg">
<path d="M46.3956 5.52738C46.3956 5.52738 49.3919 78.5902 49.956 124.321C50.4908 168.069 35.0406 216.678 37.2383 231.984L223 241C223 241 214.363 127.955 217.659 92.2388C220.809 58.1868 220.787 1.70605 220.787 1.70605L46.3956 5.52738Z" fill="#E0E0E0"/>
<path d="M39.0625 3.15554C39.0625 3.15554 42.132 76.2184 42.7254 121.949C43.2748 165.697 35.0259 218.717 37.2896 234.023L217.234 228.114C217.234 228.114 210.678 125.611 214.048 89.9086C217.256 55.8565 217.22 0 217.22 0L39.0625 3.15554Z" fill="#EBEBEB"/>
<path d="M36.7182 3.16248C36.7182 3.16248 32.1909 83.6114 32.7769 129.342C33.341 173.083 34.9747 218.717 37.2823 234.023L212.326 235.5C212.326 235.5 205.579 132.997 209.037 97.2946C212.326 63.2148 212.326 2.64233 212.326 2.64233L36.7182 3.16248Z" fill="#FAFAFA"/>
<path d="M212.714 235.847L36.9673 234.37L36.916 234.072C34.3739 217.365 32.9015 167.216 32.4106 129.349C31.8246 84.1314 36.308 3.95993 36.3519 3.1277V2.80174L212.678 2.27466V2.62142C212.678 3.22479 212.678 63.6516 209.389 97.3084C205.967 132.574 212.612 234.432 212.678 235.459L212.714 235.847ZM37.6266 233.676L211.982 235.147C211.542 228.322 205.389 131.506 208.722 97.2599C211.857 64.9485 211.997 7.98931 212.004 2.98899L37.1065 3.50914C36.7915 9.17524 32.6231 85.6086 33.1872 129.335C33.634 166.966 35.0919 216.72 37.5973 233.676H37.6266Z" fill="#263238"/>
<path d="M120.57 50.877H48.5275V116.866H120.57V50.877Z" fill="#FFD250"/>
<g opacity="0.3">
<path d="M54.1098 111.214L74.0435 77.2588L90.3435 98.9661L100.248 87.4397L114.988 111.214H54.1098Z" fill="black"/>
</g>
<g opacity="0.3">
<path d="M97.3103 70.6563C97.3103 71.6274 97.0061 72.5767 96.4362 73.3842C95.8663 74.1917 95.0562 74.821 94.1085 75.1927C93.1607 75.5643 92.1178 75.6615 91.1117 75.4721C90.1056 75.2826 89.1814 74.815 88.456 74.1283C87.7307 73.4416 87.2367 72.5667 87.0366 71.6142C86.8364 70.6617 86.9391 69.6744 87.3317 68.7772C87.7243 67.88 88.3891 67.1131 89.242 66.5736C90.095 66.0341 91.0978 65.7461 92.1236 65.7461C93.4992 65.7461 94.8184 66.2634 95.7911 67.1842C96.7638 68.1051 97.3103 69.354 97.3103 70.6563Z" fill="black"/>
</g>
<g opacity="0.3">
<path d="M114.988 111.401C114.979 111.311 114.979 111.22 114.988 111.13C114.988 110.929 114.988 110.68 114.988 110.361C114.988 109.667 114.988 108.668 114.988 107.392C114.988 104.771 114.944 100.991 114.907 96.1849C114.87 86.5449 114.819 72.8201 114.76 56.3419L115.054 56.6193L54.183 56.6679L54.52 56.3488V71.1625C54.52 76.0172 54.52 80.7609 54.52 85.3798C54.52 94.6245 54.52 103.363 54.4834 111.401L54.183 111.117L98.1967 111.262L110.614 111.332L113.903 111.366H114.76H115.061H114.79H113.969L110.739 111.401L98.3872 111.477L54.183 111.623H53.89V111.338C53.89 103.3 53.89 94.5621 53.89 85.3174C53.89 80.6985 53.89 75.9479 53.89 71.1001V56.3488C53.5823 56.6332 54.3002 55.9466 54.2343 56.0159L115.105 56.0645H115.398V56.3419C115.332 72.8963 115.281 86.6767 115.244 96.3583C115.244 101.137 115.185 104.903 115.171 107.503C115.171 108.759 115.171 109.729 115.134 110.423C115.134 110.728 115.134 110.971 115.134 111.158C115.093 111.243 115.044 111.324 114.988 111.401Z" fill="black"/>
</g>
<path d="M188.737 177.237H139.207V222.601H188.737V177.237Z" fill="#FFD250"/>
<g opacity="0.4">
<path d="M143.046 218.717L156.745 195.373L167.954 210.291L174.759 202.371L184.891 218.717H143.046Z" fill="black"/>
</g>
<g opacity="0.4">
<path d="M172.723 190.823C172.724 191.492 172.516 192.146 172.124 192.702C171.733 193.259 171.176 193.693 170.524 193.949C169.871 194.206 169.153 194.273 168.461 194.143C167.768 194.013 167.132 193.691 166.632 193.219C166.133 192.746 165.793 192.143 165.655 191.488C165.518 190.832 165.589 190.152 165.86 189.535C166.131 188.917 166.59 188.39 167.177 188.019C167.765 187.649 168.456 187.452 169.162 187.453C170.107 187.453 171.012 187.808 171.68 188.44C172.348 189.072 172.723 189.929 172.723 190.823Z" fill="black"/>
</g>
<g opacity="0.4">
<path d="M184.891 218.842C184.891 218.842 184.891 218.779 184.891 218.655C184.891 218.53 184.891 218.349 184.891 218.128C184.891 217.665 184.891 216.986 184.891 216.089C184.891 214.285 184.891 211.685 184.84 208.384C184.84 201.753 184.781 192.321 184.737 180.989L184.935 181.183H143.09L143.324 180.962V191.149C143.324 194.478 143.324 197.745 143.324 200.921C143.324 207.274 143.324 213.28 143.324 218.807L143.119 218.613L173.375 218.71L181.909 218.766H184.173H184.759H184.964C184.903 218.773 184.842 218.773 184.781 218.766H184.217H182.019L173.529 218.814L143.141 218.911H142.936V218.717C142.936 213.169 142.936 207.184 142.936 200.831C142.936 197.655 142.936 194.388 142.936 191.059V180.996L143.17 180.767L185.015 180.802H185.221V180.989C185.177 192.37 185.14 201.85 185.118 208.501C185.118 211.789 185.074 214.376 185.067 216.165C185.067 217.025 185.067 217.698 185.067 218.169C185.067 218.384 185.067 218.551 185.067 218.675C185.067 218.8 184.898 218.849 184.891 218.842Z" fill="black"/>
</g>
<path d="M79.6111 21.5549V32.5126H78.6001L71.1644 23.6216V32.5126H69.941V21.5549H70.9373L78.395 30.4459V21.5549H79.6111Z" fill="#263238"/>
<path d="M91.5668 31.507V32.5126H83.3911V21.5549H91.325V22.5536H84.6146V26.4582H90.5998V27.4499H84.6146V31.514L91.5668 31.507Z" fill="#263238"/>
<path d="M110.167 21.5549L106.263 32.5126H104.973L101.589 23.1639L98.1822 32.5126H96.9075L93.0028 21.5549H94.2628L97.6034 30.9799L101.054 21.5549H102.197L105.603 31.0216L109.032 21.5549H110.167Z" fill="#263238"/>
<path d="M111.295 31.1807L111.772 30.2861C112.826 31.1615 114.186 31.6359 115.588 31.6176C117.786 31.6176 118.702 30.7577 118.702 29.6758C118.702 26.6728 111.574 28.5176 111.574 24.4674C111.574 22.8515 112.892 21.4575 115.837 21.4575C117.108 21.443 118.356 21.7805 119.427 22.4284L119.017 23.3577C118.07 22.7739 116.967 22.4586 115.837 22.4492C113.72 22.4492 112.782 23.3369 112.782 24.4327C112.782 27.4426 119.903 25.6256 119.903 29.6133C119.903 31.2293 118.548 32.6024 115.588 32.6024C114.019 32.6558 112.487 32.1483 111.295 31.1807Z" fill="#263238"/>
<path d="M131.632 25.3138C131.632 27.644 129.844 29.0519 126.899 29.0519H123.793V32.5195H122.57V21.5618H126.899C129.844 21.5549 131.632 22.9905 131.632 25.3138ZM130.409 25.3138C130.409 23.5591 129.185 22.5397 126.87 22.5397H123.793V28.0185H126.87C129.185 28.0324 130.409 27.0337 130.409 25.3138Z" fill="#263238"/>
<path d="M140.95 29.586H134.504L133.119 32.5126H131.844L137.134 21.5549H138.335L143.624 32.5126H142.335L140.95 29.586ZM140.511 28.6428L137.727 22.7617L134.95 28.6428H140.511Z" fill="#263238"/>
<path d="M154.613 25.3138C154.613 27.644 152.826 29.0519 149.881 29.0519H146.774V32.5195H145.551V21.5618H149.881C152.826 21.5549 154.613 22.9905 154.613 25.3138ZM153.39 25.3138C153.39 23.5591 152.166 22.5397 149.851 22.5397H146.774V28.0185H149.851C152.166 28.0324 153.39 27.0337 153.39 25.3138Z" fill="#263238"/>
<path d="M165.441 31.507V32.5126H157.258V21.5549H165.192V22.5536H158.481V26.4582H164.466V27.4499H158.481V31.514L165.441 31.507Z" fill="#263238"/>
<path d="M176.224 32.5125L173.58 28.9894C173.279 28.9894 172.979 29.0379 172.649 29.0379H169.543V32.5056H168.32V21.5479H172.649C175.58 21.5479 177.382 22.9349 177.382 25.3068C177.429 26.0844 177.191 26.8535 176.71 27.485C176.228 28.1165 175.532 28.5718 174.737 28.7744L177.565 32.5333L176.224 32.5125ZM176.158 25.3137C176.158 23.5591 174.935 22.5396 172.62 22.5396H169.543V28.0392H172.62C174.964 28.0531 176.158 27.0336 176.158 25.3137Z" fill="#263238"/>
<path d="M201.74 37.7625H201.337H200.165L195.645 37.8527L179.016 38.1162L124.16 38.8444L69.289 39.4686L52.6593 39.6142H48.1392L52.6593 39.5241L69.2816 39.2605L124.152 38.5323L179.016 37.9081L195.638 37.7625H200.165H201.337C201.601 37.7486 201.74 37.7625 201.74 37.7625Z" fill="#263238"/>
<path d="M198.209 13.9122C198.209 13.9122 198.077 13.9122 197.814 13.9122H196.634L192.114 14.0023L175.484 14.2659L120.628 14.9594L65.7579 15.5836L49.1355 15.7292H44.6155H43.436C43.1723 15.7292 43.0331 15.7292 43.0331 15.7292H43.436H44.6081L49.1282 15.639L65.7579 15.3755L120.621 14.682L175.484 14.0578L192.114 13.9122H196.634H197.806C198.077 13.8983 198.209 13.9122 198.209 13.9122Z" fill="#263238"/>
<path d="M194.795 56.8829C194.795 56.98 181.44 57.0633 164.972 57.0633C148.503 57.0633 135.141 56.98 135.141 56.8829C135.141 56.7859 148.489 56.7026 164.972 56.7026C181.455 56.7026 194.795 56.7859 194.795 56.8829Z" fill="#263238"/>
<path d="M194.795 65.9264C194.795 66.0235 181.44 66.1067 164.972 66.1067C148.503 66.1067 135.141 66.0235 135.141 65.9264C135.141 65.8293 148.489 65.7461 164.972 65.7461C181.455 65.7461 194.795 65.8224 194.795 65.9264Z" fill="#263238"/>
<path d="M194.795 75.0048C194.795 75.1019 181.44 75.1851 164.972 75.1851C148.503 75.1851 135.141 75.1019 135.141 75.0048C135.141 74.9077 148.489 74.8245 164.972 74.8245C181.455 74.8245 194.795 74.8661 194.795 75.0048Z" fill="#263238"/>
<path d="M194.795 84.0206C194.795 84.1247 181.44 84.201 164.972 84.201C148.503 84.201 135.141 84.1247 135.141 84.0206C135.141 83.9166 148.489 83.8403 164.972 83.8403C181.455 83.8403 194.795 83.9097 194.795 84.0206Z" fill="#263238"/>
<path d="M194.795 93.0365C194.795 93.1405 181.44 93.2168 164.972 93.2168C148.503 93.2168 135.141 93.1405 135.141 93.0365C135.141 92.9325 148.489 92.8562 164.972 92.8562C181.455 92.8562 194.795 92.9533 194.795 93.0365Z" fill="#263238"/>
<path d="M116.746 169.81C116.746 169.907 103.391 169.99 86.9223 169.99C70.4538 169.99 57.0914 169.907 57.0914 169.81C57.0914 169.713 70.4391 169.629 86.9223 169.629C103.405 169.629 116.746 169.713 116.746 169.81Z" fill="#263238"/>
<path d="M116.746 180.767C116.746 180.864 103.391 180.948 86.9223 180.948C70.4538 180.948 57.0914 180.864 57.0914 180.767C57.0914 180.67 70.4391 180.587 86.9223 180.587C103.405 180.587 116.746 180.663 116.746 180.767Z" fill="#263238"/>
<path d="M116.746 191.718C116.746 191.822 103.391 191.898 86.9223 191.898C70.4538 191.898 57.0914 191.822 57.0914 191.718C57.0914 191.614 70.4391 191.538 86.9223 191.538C103.405 191.538 116.746 191.621 116.746 191.718Z" fill="#263238"/>
<path d="M116.746 202.676C116.746 202.773 103.391 202.856 86.9223 202.856C70.4538 202.856 57.0914 202.773 57.0914 202.676C57.0914 202.579 70.4391 202.496 86.9223 202.496C103.405 202.496 116.746 202.572 116.746 202.676Z" fill="#263238"/>
<path d="M92.4973 214.459C92.4973 214.556 84.5707 214.639 74.7907 214.639C65.0107 214.639 57.0914 214.556 57.0914 214.459C57.0914 214.362 65.0107 214.278 74.7907 214.278C84.5707 214.278 92.4973 214.355 92.4973 214.459Z" fill="#263238"/>
<path d="M167.199 102.094C166.782 102.151 166.36 102.174 165.939 102.163L162.503 102.219C159.573 102.219 155.595 102.274 151.17 102.274C146.745 102.274 142.731 102.274 139.83 102.219L136.394 102.163C135.975 102.174 135.556 102.15 135.141 102.094C135.556 102.037 135.975 102.014 136.394 102.025L139.83 101.969C142.76 101.969 146.745 101.914 151.17 101.914C155.595 101.914 159.602 101.914 162.503 101.969L165.939 102.025C166.36 102.014 166.782 102.037 167.199 102.094Z" fill="#263238"/>
<path d="M197.674 158.921C197.674 159.018 165.697 159.102 126.262 159.102C86.827 159.102 54.8204 158.984 54.8204 158.921C54.8204 158.859 86.7904 158.741 126.233 158.741C165.675 158.741 197.674 158.79 197.674 158.921Z" fill="#263238"/>
<path d="M197.674 146.951C197.674 147.048 165.697 147.131 126.262 147.131C86.827 147.131 54.8497 147.048 54.8497 146.951C54.8497 146.854 86.8197 146.771 126.262 146.771C165.704 146.771 197.674 146.847 197.674 146.951Z" fill="#263238"/>
<path d="M197.674 136.846C197.674 136.943 165.697 137.027 126.262 137.027C86.827 137.027 54.8497 136.943 54.8497 136.846C54.8497 136.749 86.8197 136.666 126.262 136.666C165.704 136.666 197.674 136.728 197.674 136.846Z" fill="#263238"/>
<path d="M121.574 128.989C121.574 129.086 106.057 129.169 86.9223 129.169C67.7872 129.169 52.2637 129.086 52.2637 128.989C52.2637 128.892 67.7799 128.809 86.9223 128.809C106.065 128.809 121.574 128.885 121.574 128.989Z" fill="#FFD250"/>
<path d="M103.684 130.008C109.706 128.621 113.442 121.575 111.01 116.138C109.713 113.204 106.922 110.666 107.083 107.483C107.193 105.319 108.702 103.426 109.046 101.283C109.698 97.267 106.299 93.8063 104.739 90.0266C103.12 86.129 103.479 81.7875 103.501 77.5917C103.523 73.3959 103.039 68.8949 100.175 65.6978L96.6217 114.439L103.684 130.008Z" fill="#263238"/>
<path d="M63.5382 55.3296C58.3149 58.3603 54.6813 63.4369 52.5494 68.8672C50.4176 74.2975 49.5752 80.1162 48.9378 85.8863C47.2536 101.132 46.6882 116.471 47.2455 131.791C67.0253 134.156 86.9443 136.528 106.834 135.258C103.384 113.759 101.2 92.2598 103.962 70.705" fill="#263238"/>
<path d="M107.852 127.858C107.852 127.858 108.094 127.928 108.585 127.935C109.268 127.93 109.932 127.721 110.482 127.338C111.364 126.751 111.987 125.877 112.233 124.883C112.477 123.547 112.291 122.172 111.698 120.937C111.12 119.55 110.138 118.163 109.274 116.547C108.81 115.716 108.46 114.833 108.233 113.918C108.036 112.938 108.004 111.933 108.138 110.943C108.547 108.86 109.229 106.833 110.167 104.91C111.017 102.891 111.925 100.748 111.962 98.4597C111.895 96.2303 111.158 94.0652 109.838 92.218C108.651 90.3594 107.281 88.681 106.175 86.9472C104.528 84.3728 103.442 81.513 102.979 78.5357C102.516 75.5583 102.686 72.5234 103.479 69.6091C103.653 68.9762 103.866 68.3533 104.116 67.7435L104.307 67.265C104.329 67.2098 104.356 67.1565 104.387 67.1055C104.383 67.1652 104.368 67.2239 104.343 67.2789C104.343 67.4106 104.248 67.5701 104.182 67.7643C104.028 68.1874 103.845 68.8185 103.625 69.6438C103.049 71.976 102.857 74.3784 103.054 76.7663C103.338 80.3078 104.511 83.7339 106.475 86.76C107.574 88.466 108.944 90.1374 110.138 92.0238C111.332 93.9102 112.387 96.0809 112.336 98.4736C112.284 100.866 111.361 103.03 110.504 105.048C109.571 106.942 108.892 108.939 108.482 110.992C108.345 111.946 108.369 112.916 108.556 113.863C108.767 114.751 109.099 115.609 109.545 116.415C110.38 118.003 111.369 119.411 111.94 120.854C112.537 122.134 112.711 123.556 112.438 124.932C112.166 125.966 111.498 126.869 110.563 127.463C109.983 127.848 109.285 128.04 108.578 128.011C108.396 128.002 108.216 127.972 108.043 127.921C107.976 127.911 107.911 127.89 107.852 127.858Z" fill="#263238"/>
<path d="M158.679 130.854C157.683 131.888 156.752 132.089 156.298 130.078C155.294 125.646 152.804 122.581 151.544 122.199C150.284 121.818 149.295 123.371 150.166 124.502C150.99 125.82 151.618 127.239 152.034 128.718C152.419 129.892 152.595 131.118 152.555 132.346C152.518 133.407 152.445 134.35 152.371 135.189C152.371 135.189 151.903 140.044 150.474 142.298L163.082 151.022L168.093 145.668C168.093 145.668 171.353 143.019 170.415 139.031C169.477 135.043 165.719 129.967 165.719 129.967C164.43 129.37 167.829 122.387 169.148 120.112C170.466 117.837 169.88 116.339 168.349 116.589C167.316 116.762 163.111 123.635 161.858 125.917C161.177 127.165 159.88 129.613 158.679 130.854Z" fill="#FFBE9D"/>
<path d="M102.197 201.226C98.5338 191.26 99.5887 189.811 99.0466 186.246L96.651 200.81L107.948 233.947L63.8166 234.19H26.7478L34.711 191.448L26.3961 181.648L26.2203 185.809L1.01205 189.048C1.01205 189.048 12.6015 155.835 18.2644 141.417C23.9273 126.998 34.711 122.255 34.711 122.255C55.2234 115.618 70.5344 115.229 88.2703 119.321C95.5379 121.025 102.123 124.698 107.221 129.89C112.319 135.081 115.707 141.567 116.973 148.553C116.973 148.747 117.046 148.941 117.076 149.129L123.837 179.859L150.43 139.634L166.173 151.348L150.152 178.943L136.65 202.697C127.068 214.41 106.812 211.92 102.219 201.24" fill="#455A64"/>
<path d="M38.3226 155.849C38.2127 155.849 38.6083 153.914 38.894 151.528C39.1797 149.143 39.2603 147.194 39.3775 147.194C39.5437 148.651 39.5092 150.122 39.2749 151.57C39.1566 153.03 38.8364 154.468 38.3226 155.849Z" fill="#263238"/>
<path d="M96.0284 151.022C96.0284 151.022 96.1236 151.112 96.2775 151.314L96.9295 152.194C97.2778 152.656 97.5958 153.138 97.8818 153.637C98.2188 154.219 98.6584 154.857 99.01 155.62C99.442 156.436 99.826 157.275 100.16 158.131C100.563 159.046 100.893 160.059 101.208 161.113C101.862 163.436 102.275 165.815 102.439 168.215C102.567 170.613 102.471 173.017 102.153 175.4C102.065 175.948 101.984 176.482 101.904 177.002C101.823 177.522 101.691 178.014 101.596 178.5C101.413 179.464 101.149 180.344 100.929 181.156C100.71 181.967 100.446 182.682 100.241 183.313C100.036 183.944 99.8232 184.485 99.64 184.915L99.2225 185.92C99.1819 186.04 99.1253 186.154 99.054 186.26C99.0735 186.134 99.1079 186.011 99.1565 185.893C99.2444 185.622 99.3616 185.282 99.5008 184.873C99.64 184.464 99.8525 183.895 100.036 183.257C100.219 182.619 100.482 181.905 100.666 181.093C100.849 180.282 101.113 179.401 101.288 178.437C101.376 177.959 101.493 177.466 101.574 176.946C101.655 176.426 101.721 175.906 101.801 175.358C102.098 172.995 102.184 170.612 102.058 168.236C101.895 165.862 101.5 163.508 100.878 161.203C100.548 160.149 100.263 159.123 99.8745 158.242C99.5566 157.387 99.1897 156.549 98.7756 155.731C98.4386 154.961 98.043 154.344 97.706 153.734C97.369 153.124 97.076 152.666 96.8123 152.271L96.2188 151.355C96.1465 151.249 96.0828 151.138 96.0284 151.022Z" fill="#263238"/>
<path d="M123.53 190.643C123.389 188.672 123.372 186.694 123.478 184.72C123.465 182.744 123.576 180.769 123.808 178.805C123.957 180.776 123.974 182.754 123.859 184.727C123.882 186.704 123.771 188.68 123.53 190.643Z" fill="#263238"/>
<path d="M128.856 190.082C127.923 188.358 127.104 186.581 126.401 184.762C125.583 182.986 124.881 181.163 124.299 179.304C125.237 181.026 126.057 182.802 126.753 184.624C127.57 186.401 128.272 188.223 128.856 190.082Z" fill="#263238"/>
<path d="M100.49 211.872H100.299L99.7498 211.824L98.8634 211.74C98.4601 211.693 98.0532 211.679 97.6473 211.699C95.0527 211.691 92.4709 212.044 89.9845 212.746C86.8197 213.55 83.1788 214.91 78.9957 216.068C76.8133 216.705 74.5625 217.11 72.2852 217.275C69.8221 217.461 67.3451 217.161 65.0107 216.394C62.7217 215.544 60.5156 214.507 58.4174 213.294C56.4884 212.177 54.4643 211.214 52.3662 210.416C48.7583 209.177 44.8688 208.864 41.0918 209.507C39.643 209.738 38.2238 210.113 36.8574 210.624C35.822 211 34.818 211.45 33.8538 211.969C33.07 212.42 32.4619 212.774 32.081 213.051L31.6268 213.349C31.5242 213.412 31.4729 213.446 31.4656 213.439C32.1837 212.847 32.9559 212.315 33.7732 211.851C34.7351 211.316 35.7393 210.852 36.7768 210.464C38.1521 209.927 39.5838 209.529 41.0478 209.278C44.8746 208.598 48.8236 208.892 52.4908 210.131C54.6131 210.926 56.6596 211.891 58.6079 213.016C60.6765 214.218 62.8534 215.244 65.1132 216.082C67.3976 216.835 69.8226 217.13 72.234 216.949C74.4851 216.79 76.7109 216.397 78.8712 215.777C83.0323 214.639 86.6952 213.308 89.8599 212.531C92.3658 211.847 94.9668 211.527 97.5741 211.581C97.9812 211.577 98.3879 211.605 98.7902 211.664L99.6839 211.782L100.226 211.865C100.314 211.855 100.403 211.857 100.49 211.872Z" fill="#F5F5F5"/>
<path d="M98.2408 185.622C98.0436 185.666 97.8424 185.691 97.6401 185.698L96.9075 185.761C96.6218 185.795 96.2994 185.886 95.9331 185.955C93.8887 186.48 91.9691 187.37 90.2776 188.577C89.1787 189.305 88.0212 190.172 86.7758 191.094C85.4588 192.102 84.087 193.044 82.666 193.917C81.0948 194.882 79.3603 195.586 77.5379 195.997C76.5585 196.197 75.5583 196.293 74.5563 196.282C73.5299 196.258 72.5076 196.149 71.5014 195.956C67.4209 195.151 63.9045 193.383 60.7178 191.905C57.9291 190.501 54.9627 189.438 51.8901 188.743C49.8255 188.292 47.6836 188.259 45.6046 188.646C45.0416 188.763 44.4883 188.918 43.9489 189.111C43.7635 189.184 43.5725 189.245 43.3775 189.291C43.5496 189.192 43.7311 189.108 43.9196 189.041C44.4514 188.818 45.0029 188.639 45.5679 188.507C47.669 188.063 49.8476 188.063 51.9487 188.507C55.0419 189.174 58.0311 190.216 60.8423 191.607C64.0364 193.071 67.5455 194.818 71.5454 195.602C72.5302 195.789 73.5302 195.896 74.5343 195.921C75.5061 195.932 76.4764 195.844 77.4281 195.657C79.2264 195.257 80.9387 194.568 82.4902 193.618C83.9035 192.759 85.2703 191.833 86.5854 190.844C87.8381 189.929 89.0102 189.076 90.1311 188.348C91.861 187.146 93.8256 186.281 95.9112 185.802C96.2848 185.74 96.6438 185.671 96.9002 185.643H97.6327C97.8349 185.625 98.0379 185.618 98.2408 185.622Z" fill="#F5F5F5"/>
<path d="M138.811 196.802C138.743 196.91 138.662 197.01 138.57 197.1C138.327 197.378 138.06 197.635 137.771 197.87C136.692 198.723 135.43 199.343 134.072 199.687C132.058 200.189 129.959 200.31 127.896 200.04C125.405 199.658 122.954 199.073 120.57 198.293C118.194 197.517 115.739 196.983 113.244 196.698C111.21 196.53 109.162 196.766 107.23 197.391C105.93 197.811 104.744 198.498 103.757 199.402C103.495 199.653 103.251 199.92 103.025 200.2C102.949 200.304 102.861 200.4 102.761 200.484C102.811 200.368 102.877 200.258 102.959 200.158C103.163 199.855 103.396 199.569 103.655 199.305C104.626 198.341 105.823 197.604 107.149 197.155C109.109 196.478 111.201 196.211 113.281 196.372C115.799 196.636 118.278 197.164 120.673 197.946C123.039 198.725 125.47 199.317 127.94 199.715C129.962 199.988 132.021 199.894 134.006 199.437C135.335 199.12 136.582 198.549 137.669 197.759C138.438 197.183 138.775 196.767 138.811 196.802Z" fill="#F5F5F5"/>
<path d="M151.419 176.599C151.419 176.599 151.36 176.668 151.221 176.779C151.022 176.944 150.803 177.086 150.569 177.202C149.691 177.627 148.713 177.834 147.727 177.806C146.275 177.756 144.851 177.421 143.544 176.821C142.079 176.183 140.562 175.268 138.899 174.512C137.511 173.819 135.967 173.453 134.397 173.443C132.828 173.433 131.279 173.781 129.881 174.456C128.73 175.037 127.683 175.789 126.782 176.682C126.782 176.682 126.826 176.599 126.929 176.46C127.086 176.26 127.258 176.07 127.442 175.892C128.116 175.227 128.897 174.667 129.757 174.234C131.039 173.581 132.456 173.2 133.91 173.118C135.688 173.05 137.455 173.417 139.038 174.186C140.731 174.955 142.218 175.878 143.661 176.516C144.922 177.114 146.297 177.465 147.705 177.549C148.654 177.602 149.603 177.44 150.474 177.078C151.104 176.807 151.397 176.564 151.419 176.599Z" fill="#F5F5F5"/>
<path d="M160.21 158.803C159.931 158.928 159.645 159.037 159.353 159.129C158.589 159.456 157.854 159.841 157.155 160.281C156.121 160.96 155.01 161.53 153.844 161.98C152.387 162.503 150.838 162.755 149.28 162.722C147.722 162.691 146.186 162.368 144.76 161.772C143.603 161.285 142.534 160.627 141.595 159.823C140.959 159.29 140.394 158.687 139.91 158.027C139.734 157.791 139.617 157.604 139.537 157.472C139.456 157.34 139.427 157.271 139.441 157.264C140.143 158.113 140.925 158.9 141.778 159.615C142.722 160.368 143.779 160.985 144.914 161.446C146.304 162.01 147.797 162.313 149.309 162.34C150.819 162.367 152.321 162.132 153.741 161.647C154.895 161.217 156 160.678 157.038 160.038C157.758 159.613 158.521 159.257 159.316 158.977C159.603 158.875 159.905 158.817 160.21 158.803Z" fill="#F5F5F5"/>
<path d="M121.83 171.224C121.83 171.259 121.53 171.169 121.002 171.176C120.25 171.2 119.514 171.385 118.848 171.717C117.87 172.244 116.95 172.862 116.101 173.562C115.012 174.42 113.748 175.055 112.387 175.427C109.899 176.107 107.239 175.945 104.863 174.969C104.153 174.679 103.484 174.306 102.871 173.86C102.641 173.702 102.432 173.518 102.248 173.312C103.105 173.865 104.015 174.341 104.966 174.734C107.3 175.615 109.877 175.737 112.292 175.08C115.163 174.387 116.9 172.223 118.746 171.488C119.451 171.161 120.232 171.006 121.017 171.037C121.228 171.046 121.438 171.081 121.64 171.141C121.764 171.183 121.837 171.211 121.83 171.224Z" fill="#F5F5F5"/>
<path d="M117.09 153.616C116.234 153.133 115.309 152.768 114.343 152.534C113.296 152.309 112.212 152.287 111.156 152.472C109.863 152.68 108.651 153.212 107.647 154.011C106.702 154.894 105.818 155.835 105.003 156.827C104.297 157.658 103.361 158.287 102.299 158.644C101.582 158.899 100.794 158.916 100.065 158.693C99.8699 158.631 99.6868 158.539 99.5228 158.422C99.4129 158.346 99.3616 158.297 99.3689 158.29C99.3763 158.283 99.6253 158.429 100.102 158.554C100.802 158.716 101.538 158.662 102.204 158.401C103.201 158.027 104.074 157.407 104.731 156.605C105.542 155.587 106.431 154.628 107.391 153.734C108.435 152.897 109.702 152.348 111.054 152.146C112.155 151.969 113.284 152.016 114.365 152.284C115.091 152.458 115.781 152.744 116.409 153.13C116.663 153.255 116.894 153.419 117.09 153.616Z" fill="#F5F5F5"/>
<path d="M58.8716 171.516C58.8716 171.481 59.4796 171.703 60.6078 171.869C62.2044 172.08 63.8283 172.012 65.3989 171.668C67.7303 171.147 69.9671 170.301 72.0361 169.158C74.4097 167.937 76.9078 166.384 79.7649 165.087C82.4577 163.887 85.3557 163.155 88.3215 162.923C90.7359 162.727 93.1675 162.853 95.5448 163.297C97.144 163.608 98.7052 164.072 100.204 164.685C100.739 164.886 101.134 165.094 101.405 165.219C101.548 165.275 101.684 165.347 101.808 165.434C101.808 165.434 101.215 165.205 100.153 164.816C98.6436 164.269 97.0838 163.855 95.4935 163.582C93.1379 163.177 90.735 163.076 88.3508 163.284C85.431 163.531 82.5795 164.261 79.9261 165.44C77.1056 166.696 74.6075 168.263 72.2046 169.477C70.1012 170.62 67.826 171.452 65.4575 171.946C63.8523 172.271 62.196 172.302 60.5785 172.036C60.1423 171.961 59.7135 171.852 59.2965 171.71C59.1462 171.664 59.0032 171.599 58.8716 171.516Z" fill="#F5F5F5"/>
<path d="M64.1975 139.01C64.0724 139.109 63.9346 139.193 63.7873 139.26C63.3774 139.468 62.9483 139.639 62.5052 139.773C60.8564 140.231 59.1158 140.31 57.4284 140.002C56.2639 139.81 55.1244 139.501 54.0292 139.079C52.7759 138.593 51.553 138.04 50.3663 137.422C47.8682 136.139 45.1869 134.599 42.0441 133.774C40.5208 133.361 38.9574 133.093 37.3776 132.976C36.645 132.893 35.8611 132.914 35.1285 132.893C34.3959 132.872 33.6634 132.893 32.9674 133.004C30.474 133.226 28.0282 133.791 25.7075 134.682C24.149 135.297 22.6552 136.049 21.246 136.93C20.7479 137.242 20.3889 137.519 20.1252 137.685C20.0019 137.784 19.8666 137.867 19.7223 137.935C19.8284 137.82 19.9489 137.717 20.0812 137.63C20.323 137.443 20.6746 137.151 21.1655 136.812C22.5532 135.877 24.0413 135.085 25.6049 134.447C27.9395 133.512 30.4088 132.913 32.9308 132.671C33.6634 132.588 34.3959 132.581 35.1285 132.546C35.8611 132.512 36.645 132.546 37.4215 132.623C39.0242 132.735 40.6102 133.005 42.154 133.427C45.3554 134.266 48.066 135.841 50.5421 137.124C51.7058 137.749 52.9068 138.309 54.1391 138.802C55.2098 139.228 56.3245 139.546 57.465 139.752C59.1176 140.076 60.8266 140.039 62.4613 139.641C63.0523 139.463 63.632 139.252 64.1975 139.01Z" fill="#F5F5F5"/>
<path d="M114.446 140.89C114.446 140.89 114.38 140.966 114.218 141.084C113.993 141.256 113.747 141.403 113.486 141.521C112.471 141.941 111.352 142.085 110.255 141.937C108.635 141.73 107.089 141.164 105.742 140.286C104.189 139.364 102.68 138.116 100.907 137.103C99.2458 136.144 97.3732 135.56 95.4349 135.397C93.8534 135.254 92.2575 135.369 90.7171 135.737C89.3037 136.118 87.9473 136.668 86.6806 137.374C86.6806 137.374 86.7538 137.297 86.915 137.186C87.1483 137.014 87.393 136.857 87.6476 136.715C88.5808 136.18 89.5862 135.767 90.6365 135.487C92.2066 135.077 93.8412 134.934 95.4642 135.064C97.458 135.219 99.3865 135.81 101.098 136.791C102.907 137.831 104.409 139.087 105.926 140.009C107.225 140.871 108.712 141.444 110.277 141.687C111.334 141.852 112.418 141.749 113.42 141.389C114.094 141.139 114.424 140.89 114.446 140.89Z" fill="#F5F5F5"/>
<path d="M37.971 157.396C37.6056 157.397 37.2406 157.371 36.8794 157.319L33.9491 156.973L29.5536 156.411C27.9052 156.196 26.1031 155.967 24.1984 155.891C22.4172 155.797 20.6309 155.93 18.8871 156.286C17.4682 156.589 16.1102 157.107 14.8652 157.819C13.7315 158.505 12.7223 159.36 11.8763 160.35C11.9092 160.266 11.9535 160.187 12.0081 160.114C12.149 159.895 12.3082 159.686 12.4843 159.49C13.1194 158.754 13.8735 158.117 14.7187 157.604C15.9731 156.842 17.3555 156.289 18.8065 155.967C20.5807 155.583 22.403 155.436 24.2203 155.53C26.0217 155.623 27.8166 155.806 29.5975 156.078L33.993 156.716L36.9234 157.181C37.2795 157.218 37.6307 157.29 37.971 157.396Z" fill="#F5F5F5"/>
<path d="M100.109 87.7866C100.419 88.1934 100.646 88.6523 100.775 89.139C101.143 90.4674 101.181 91.8585 100.885 93.2031C100.6 94.923 99.8012 96.8441 99.3689 99.0495C99.1354 100.195 99.1354 101.372 99.3689 102.517C99.6897 103.746 100.091 104.955 100.57 106.137C101.062 107.348 101.311 108.634 101.303 109.931C101.22 111.137 100.93 112.322 100.446 113.44C99.5814 115.562 98.629 117.407 98.5118 119.113C98.3038 120.015 98.3634 120.953 98.6841 121.825C99.0048 122.696 99.5739 123.467 100.329 124.051C100.205 123.998 100.09 123.93 99.9843 123.85C99.6682 123.624 99.3914 123.352 99.1638 123.045C98.3758 121.871 98.049 120.472 98.2408 119.092C98.3245 118.143 98.5464 117.21 98.9001 116.318C99.2517 115.361 99.7132 114.369 100.116 113.308C100.577 112.224 100.852 111.077 100.929 109.91C100.929 108.655 100.681 107.41 100.197 106.241C99.7131 105.044 99.3118 103.819 98.9953 102.573C98.7458 101.384 98.7458 100.161 98.9953 98.9732C99.4568 96.7192 100.277 94.812 100.585 93.1406C100.893 91.8274 100.893 90.4661 100.585 89.1529C100.46 88.6876 100.3 88.2312 100.109 87.7866Z" fill="#455A64"/>
<path d="M80.9883 125.313C82.2704 118.524 83.7575 111.401 83.7575 111.401C83.7575 111.401 93.2811 111.491 97.303 100.395C101.156 89.8185 103.94 64.3315 103.94 64.3315C97.8471 60.7423 90.7398 59.0039 83.5727 59.3498C76.4056 59.6957 69.5219 62.1092 63.8458 66.2664L54.3662 121.554C53.2673 127.969 58.2196 133.975 65.4868 135.036C72.8273 136.146 79.7649 131.777 80.9883 125.313Z" fill="#FFBE9D"/>
<path d="M96.8635 83.4312C96.7967 83.8135 96.5747 84.1559 96.2448 84.3853C95.9148 84.6147 95.5033 84.7128 95.0979 84.6587C94.8986 84.6398 94.7053 84.5834 94.5292 84.493C94.3532 84.4026 94.1979 84.2799 94.0724 84.1321C93.9469 83.9842 93.8538 83.8143 93.7984 83.632C93.7431 83.4498 93.7266 83.2589 93.75 83.0706C93.8185 82.6891 94.041 82.3477 94.3704 82.1187C94.6999 81.8896 95.1105 81.7907 95.5155 81.843C95.7172 81.8562 95.9137 81.9088 96.0929 81.9974C96.272 82.086 96.4299 82.2088 96.5565 82.358C96.6831 82.5071 96.7757 82.6795 96.8285 82.8642C96.8814 83.0489 96.8933 83.2419 96.8635 83.4312Z" fill="#263238"/>
<path d="M99.6766 82.2105C99.4495 82.37 98.4312 81.3506 96.7463 81.0801C95.0613 80.8096 93.7134 81.3922 93.5669 81.1633C93.5009 81.0662 93.7573 80.7541 94.358 80.4698C95.1657 80.1164 96.0695 80.0098 96.9441 80.1646C97.8107 80.3024 98.6072 80.7013 99.2151 81.302C99.6766 81.7667 99.7865 82.1412 99.6766 82.2105Z" fill="#263238"/>
<path d="M79.7796 80.865C79.7146 81.2481 79.493 81.5917 79.1626 81.8214C78.8323 82.0511 78.4197 82.1485 78.0141 82.0926C77.8132 82.0793 77.6173 82.0269 77.4387 81.9387C77.2601 81.8505 77.1027 81.7284 76.9762 81.58C76.8497 81.4316 76.7569 81.2601 76.7035 81.0762C76.6502 80.8924 76.6375 80.7001 76.6661 80.5113C76.7347 80.1294 76.9569 79.7874 77.2861 79.5572C77.6153 79.327 78.0259 79.2265 78.4317 79.2769C78.631 79.2958 78.8243 79.3521 79.0004 79.4426C79.1765 79.533 79.3318 79.6557 79.4572 79.8035C79.5827 79.9513 79.6758 80.1213 79.7312 80.3036C79.7865 80.4858 79.803 80.6767 79.7796 80.865Z" fill="#263238"/>
<path d="M82.2118 79.8595C81.9847 80.019 80.9664 78.9995 79.2814 78.729C77.5965 78.4585 76.2485 79.0411 76.102 78.8122C76.0288 78.7151 76.2852 78.4031 76.8932 78.1187C77.6982 77.765 78.5998 77.6583 79.4719 77.8136C80.3401 77.9527 81.1385 78.3513 81.7502 78.9509C82.2118 79.4433 82.3217 79.8178 82.2118 79.8595Z" fill="#263238"/>
<path d="M86.0725 92.5719C86.9994 92.4642 87.9367 92.4642 88.8636 92.5719C89.2959 92.5719 89.7134 92.5719 89.838 92.3222C89.9501 91.9117 89.9271 91.4786 89.772 91.0808C89.5596 90.0405 89.3252 88.9517 89.0907 87.8143C88.153 83.1608 87.5596 79.3672 87.7574 79.3325C87.9552 79.2978 88.8709 83.0359 89.8087 87.6895C90.0284 88.8338 90.2336 89.9296 90.4387 90.9699C90.6144 91.5001 90.5885 92.0718 90.3654 92.5858C90.2768 92.7179 90.1575 92.829 90.0166 92.9108C89.8756 92.9925 89.7168 93.0426 89.5523 93.0574C89.309 93.0857 89.063 93.0857 88.8197 93.0574C87.8862 93.0038 86.9635 92.8408 86.0725 92.5719Z" fill="#263238"/>
<path d="M83.7575 111.401C78.0655 110.539 72.739 108.195 68.3732 104.632C68.3732 104.632 70.8274 113.128 83.0909 114.071L83.7575 111.401Z" fill="#EB996E"/>
<path d="M84.6659 96.2544C84.4202 95.8237 84.0625 95.4595 83.6266 95.1962C83.1908 94.9328 82.6912 94.7791 82.1751 94.7494C81.8026 94.7186 81.4273 94.7598 81.0721 94.8707C80.7169 94.9816 80.3893 95.1598 80.1092 95.3944C79.8355 95.6189 79.642 95.9181 79.5554 96.251C79.4688 96.5839 79.4934 96.934 79.6257 97.2531C79.8402 97.5795 80.1529 97.8378 80.5237 97.9948C80.8944 98.1517 81.3062 98.2002 81.7063 98.1339C82.5427 98.006 83.3429 97.7181 84.0579 97.2878C84.2715 97.1954 84.4633 97.0633 84.622 96.8994C84.6985 96.8231 84.7493 96.7268 84.7675 96.623C84.7858 96.5191 84.7708 96.4125 84.7245 96.3168" fill="#EB996E"/>
<path d="M80.9737 92.8491C81.2521 92.8491 80.9737 94.5898 82.2557 96.0601C83.5378 97.5304 85.5304 97.6621 85.5011 97.9049C85.5011 98.0158 85.0103 98.1615 84.1971 98.0505C83.137 97.8844 82.171 97.3744 81.4646 96.608C80.7929 95.866 80.4515 94.9064 80.5122 93.931C80.5781 93.2028 80.8565 92.8144 80.9737 92.8491Z" fill="#263238"/>
<path d="M71.9996 58.1451C75.2229 64.8723 85.6623 73.0559 93.7207 75.9618C92.9881 74.5747 88.4608 70.6702 87.7282 69.2831C90.9808 72.6259 95.6767 77.1685 100.651 78.2989C101.224 78.4794 101.84 78.4986 102.424 78.3544C102.749 78.1894 103.029 77.956 103.244 77.6723C103.458 77.3885 103.601 77.062 103.662 76.7177C104.624 73.3184 105.194 69.8304 105.361 66.3148C105.534 63.3546 104.504 60.444 102.482 58.1798C99.7352 55.2531 95.2518 53.8522 90.9296 52.9853C87.3106 52.2917 83.5231 51.7924 79.9408 52.4443C76.3584 53.0962 73.0398 55.0381 71.9629 57.9024" fill="#263238"/>
<path d="M52.7766 83.4795C52.7152 80.8683 52.818 78.2561 53.0842 75.6565C53.8974 69.713 55.8534 48.1166 76.9152 53.6717L74.6735 59.2199C74.6735 59.2199 76.2925 73.0904 65.4796 80.5805C65.4796 80.5805 65.5235 94.451 58.0438 99.4652C58.0438 99.4652 52.8205 90.0541 52.7766 83.5141" fill="#263238"/>
<path d="M65.9338 79.6305C64.6898 79.1539 63.3315 79.01 62.0071 79.2144C60.6772 79.4345 59.4926 80.1422 58.7105 81.184C57.9882 82.2661 57.7264 83.5673 57.9779 84.825C58.2355 86.0826 58.7916 87.2683 59.6042 88.2926C60.1295 89.0587 60.837 89.6976 61.6701 90.1582C62.0899 90.3794 62.5606 90.4996 63.041 90.508C63.5213 90.5165 63.9965 90.413 64.4246 90.2067" fill="#FFBE9D"/>
<path d="M63.8386 86.9057C63.9778 86.982 63.2818 87.5992 62.161 87.1276C61.865 86.9747 61.6039 86.768 61.3927 86.5192C61.1815 86.2705 61.0243 85.9846 60.9302 85.6781C60.6945 84.9919 60.6024 84.2687 60.6592 83.549C60.7033 82.7713 61.0383 82.0338 61.6042 81.4684C61.8401 81.225 62.1318 81.0359 62.4569 80.9156C62.782 80.7954 63.1318 80.7473 63.4796 80.7749C64.6957 80.9552 64.9448 81.8083 64.7836 81.8083C64.6224 81.8083 64.2708 81.3991 63.443 81.4476C62.6152 81.4962 61.7287 82.3215 61.6628 83.5837C61.5969 84.8459 61.8679 86.0942 62.5199 86.4965C63.1719 86.8987 63.78 86.7947 63.8386 86.9057Z" fill="#EB996E"/>
<path d="M62.7324 92.2041C60.7984 92.8976 60.0365 95.2417 60.3369 97.1905C60.6372 99.1394 61.7068 100.901 62.4321 102.739C63.1573 104.577 63.4943 106.782 62.3808 108.446C61.4797 109.799 59.7801 110.583 59.0841 112.032C57.8387 114.626 60.3881 117.317 61.2819 120.035C61.8788 121.871 61.6918 123.855 60.761 125.561C59.8302 127.267 58.2298 128.56 56.3033 129.162C54.3768 129.764 52.2779 129.627 50.457 128.78C48.6362 127.933 47.2386 126.445 46.5643 124.633C44.5057 119.085 49.7876 113.051 48.3005 107.351" fill="#263238"/>
<path d="M61.0108 56.0229C55.4358 60.2465 48.9378 70.2541 48.469 76.9951C48.1613 81.3019 49.0184 85.8861 46.9598 89.7352C45.795 91.9129 43.817 93.5843 42.1467 95.4498C40.4765 97.3154 39.0333 99.611 39.2897 102.045C39.6633 105.478 43.2603 107.94 43.8464 111.345C44.198 113.377 43.4141 115.41 42.9306 117.421C42.4471 119.432 42.3372 121.755 43.7584 123.316C46.0441 125.812 52.4762 131.472 54.2124 128.6C55.9487 125.729 53.9194 115.118 53.6557 111.817C52.2736 94.3896 53.9319 76.8657 58.564 59.9483" fill="#263238"/>
<path d="M42.0368 118.836C42.3059 118.83 42.5736 118.798 42.8353 118.738C43.1463 118.649 43.437 118.506 43.6924 118.315C44.0342 118.047 44.3157 117.717 44.5203 117.344C44.7847 116.884 44.9444 116.376 44.9891 115.853C45.0328 115.232 44.904 114.61 44.6155 114.05C43.8399 112.698 42.7128 111.554 41.3409 110.728C40.6083 110.222 39.8171 109.709 39.0479 109.098C38.221 108.479 37.523 107.719 36.9893 106.858C36.7242 106.392 36.5294 105.892 36.4105 105.374C36.3031 104.837 36.2686 104.29 36.308 103.744C36.4263 102.614 36.7773 101.516 37.3409 100.513C38.4398 98.4321 40.3592 96.7607 42.1467 94.9645C43.0724 94.0733 43.8997 93.095 44.6155 92.0447C45.3128 90.9507 45.8083 89.7523 46.0807 88.5008C46.6521 85.9486 46.4836 83.3618 46.3957 80.872C46.3517 79.6376 46.3078 78.41 46.3444 77.2102C46.3444 76.6138 46.4103 76.0173 46.4909 75.4348C46.5276 75.1435 46.5495 74.8522 46.5935 74.5609L46.7693 73.7148C47.6341 69.7119 49.6262 66.0047 52.5348 62.986C53.6469 61.8409 54.8736 60.8003 56.1977 59.879C56.8057 59.4976 57.3625 59.13 57.8973 58.8318C58.4321 58.5336 58.9302 58.27 59.3624 58.0689L60.6005 57.5349C60.9595 57.3962 61.2818 57.2991 61.5309 57.2159L62.1096 57.0286C62.1731 57.003 62.2395 56.9843 62.3074 56.9731C62.3074 56.9731 62.2488 56.9731 62.1243 57.0633L61.5602 57.2783C61.3111 57.3823 60.9961 57.4864 60.6445 57.632L59.4284 58.1937C58.9742 58.4018 58.498 58.6931 57.9632 58.9774C57.4284 59.2618 56.8936 59.671 56.3002 60.0385C54.9976 60.969 53.7908 62.0139 52.6959 63.1594C49.8555 66.1605 47.9154 69.8266 47.077 73.7773C47.0184 74.0547 46.9671 74.3321 46.9085 74.6164C46.8499 74.9008 46.8426 75.1851 46.8133 75.4695C46.7327 76.0451 46.6961 76.6276 46.6741 77.2241C46.6741 78.41 46.6741 79.6237 46.7327 80.8582C46.8279 83.3271 47.0037 85.9347 46.4177 88.5563C46.1322 89.8475 45.617 91.0834 44.8939 92.2112C44.163 93.2815 43.3186 94.2784 42.3738 95.1864C40.5643 96.9826 38.7109 98.6055 37.612 100.631C37.0669 101.592 36.7236 102.645 36.601 103.731C36.56 104.248 36.5896 104.767 36.6889 105.277C36.7955 105.762 36.9757 106.229 37.2237 106.664C37.7301 107.499 38.3987 108.236 39.1944 108.835C39.927 109.438 40.7255 109.958 41.4581 110.472C42.8534 111.342 43.9907 112.536 44.762 113.939C45.0599 114.531 45.1863 115.187 45.1283 115.84C45.07 116.384 44.8929 116.91 44.6082 117.386C44.3853 117.767 44.0839 118.102 43.7218 118.371C43.4502 118.562 43.1415 118.701 42.8133 118.78C42.6148 118.828 42.4098 118.846 42.2053 118.836H42.0368Z" fill="#263238"/>
<path d="M50.4982 128.177C50.4174 128.167 50.3386 128.146 50.2638 128.115C50.0467 128.018 49.8524 127.882 49.6923 127.713C49.3908 127.381 49.1723 126.989 49.0531 126.567C48.9338 126.144 48.917 125.701 49.0037 125.271C49.1429 124.113 50.0806 122.99 50.8352 121.61C51.2299 120.867 51.4404 120.048 51.4505 119.217C51.4403 118.283 51.2491 117.36 50.8865 116.491C50.4959 115.523 50.0051 114.594 49.4213 113.717C48.8132 112.809 48.088 111.907 47.3993 110.943C46.6595 109.942 46.0311 108.87 45.5239 107.746C44.9665 106.539 44.7738 105.209 44.9672 103.904C45.2463 102.542 45.9212 101.281 46.9159 100.263C47.8682 99.1949 48.9891 98.2656 50.0367 97.2392C51.1106 96.2295 51.9994 95.0576 52.6666 93.7715C53.3156 92.4203 53.7595 90.9891 53.9853 89.5202C54.4835 86.5381 54.3516 83.5628 54.3809 80.6986C54.3809 79.263 54.4322 77.8482 54.5567 76.475L54.6666 75.4417L54.8424 74.436C54.9549 73.772 55.1065 73.1144 55.2966 72.4664C56.618 67.938 59.2432 63.8465 62.8789 60.6488C64.2831 59.4328 65.812 58.3525 67.4429 57.4239C68.1755 57.0494 68.8568 56.6749 69.5088 56.3975C70.1608 56.1201 70.7615 55.8565 71.3183 55.7039L72.7834 55.2254C73.2157 55.1006 73.5966 55.0312 73.897 54.9549L74.5856 54.8024C74.6627 54.7838 74.741 54.7699 74.82 54.7607C74.7477 54.7944 74.6715 54.82 74.5929 54.837L73.9116 55.0243C73.6186 55.1075 73.245 55.1977 72.8201 55.3225L71.3549 55.8357C70.8055 56.023 70.2267 56.3073 69.5747 56.5778C68.9227 56.8482 68.2634 57.2713 67.5381 57.625C65.9347 58.5622 64.4329 59.6471 63.0547 60.8638C59.4568 64.0602 56.8717 68.1431 55.5897 72.6537C55.3975 73.2886 55.2507 73.9351 55.1501 74.5886L54.9743 75.5804L54.8644 76.5999C54.7472 77.9869 54.7032 79.374 54.7032 80.761C54.8079 83.7251 54.6781 86.6924 54.315 89.6381C54.0793 91.1403 53.6231 92.6039 52.9597 93.9865C52.2765 95.316 51.36 96.526 50.2491 97.5651C49.1942 98.5985 48.0514 99.5278 47.143 100.561C46.1876 101.528 45.5379 102.73 45.2675 104.029C45.0757 105.276 45.2558 106.549 45.7877 107.704C46.2769 108.811 46.8858 109.866 47.6045 110.853C48.2858 111.817 49.011 112.726 49.6191 113.627C50.2167 114.503 50.7222 115.432 51.1282 116.401C51.488 117.304 51.6741 118.26 51.6777 119.224C51.6603 120.087 51.4322 120.934 51.011 121.7C50.2198 123.087 49.2894 124.19 49.1356 125.292C49.0446 125.705 49.0513 126.132 49.1552 126.542C49.259 126.952 49.4575 127.335 49.7363 127.664C49.9484 127.885 50.2083 128.06 50.4982 128.177Z" fill="#455A64"/>
<path d="M102.131 78.1326C102.039 78.0497 101.958 77.9565 101.889 77.8552L101.259 77.0022C100.688 76.2185 99.9183 75.1505 98.988 73.8536L91.6035 63.3883C90.2761 61.4637 88.693 59.7086 86.893 58.1661C85.4088 56.9293 83.6593 56.0113 81.7649 55.4752C80.4882 55.1143 79.1486 54.9965 77.8236 55.1284C76.8859 55.2394 76.3584 55.4058 76.3584 55.3642C76.4701 55.3082 76.5881 55.264 76.71 55.2324C77.0611 55.1227 77.4213 55.0415 77.7869 54.9897C79.1351 54.8002 80.5102 54.8805 81.8235 55.2255C83.772 55.7396 85.576 56.6562 87.1054 57.9095C88.9444 59.4575 90.558 61.2299 91.9039 63.1802C94.8342 67.272 97.347 71.0101 99.2297 73.708C100.116 75.0326 100.856 76.1214 101.427 76.9259L101.999 77.8136C102.058 77.9136 102.103 78.021 102.131 78.1326Z" fill="#455A64"/>
<path d="M71.0252 120.639L80.4829 159.15L88.7904 157.763L82.1385 118.835L71.0252 120.639Z" fill="#263238"/>
<path d="M79.4939 115.687C82.2118 114.841 83.003 110.326 83.003 107.621C83.003 103.959 79.5891 102.136 76.754 101.782C75.3279 101.634 73.8877 101.896 72.6213 102.534C71.355 103.173 70.3214 104.157 69.6553 105.36C69.0274 106.583 68.7795 107.949 68.9403 109.3C69.1011 110.65 69.6641 111.93 70.5637 112.989C71.4924 114.024 72.6945 114.806 74.0472 115.257C75.3999 115.708 76.8547 115.811 78.2632 115.555" fill="#263238"/>
<path d="M64.8422 113.912L67.0107 129.849L92.4241 124.724L87.97 110.506L64.8422 113.912Z" fill="#FFD250"/>
<g opacity="0.4">
<path d="M89.208 114.459L71.0252 116.755L72.9373 123.302L90.9955 120.181L89.208 114.459Z" fill="#FAFAFA"/>
</g>
<path d="M83.003 108.003C82.3305 108.185 81.6412 108.305 80.9444 108.363C79.6697 108.53 77.8969 108.71 75.9336 108.828C73.9702 108.946 72.19 108.988 70.9007 108.974C70.2028 109.006 69.5033 108.971 68.8128 108.87C69.5001 108.76 70.1964 108.709 70.8934 108.717C72.1827 108.662 73.9556 108.585 75.9116 108.467C77.8676 108.35 79.6331 108.211 80.9151 108.107C81.6062 108.012 82.3052 107.977 83.003 108.003Z" fill="#FAFAFA"/>
<path d="M72.9886 128.642L83.4499 126.534V127.505L73.1717 129.377L72.9886 128.642Z" fill="#263238"/>
<path d="M55.9925 150.03L60.5052 147.783C60.5052 147.783 67.9996 132.699 70.0728 131.909C71.7797 131.257 81.4645 128.51 84.8344 127.553C85.1433 127.467 85.4758 127.499 85.7597 127.643C86.0437 127.787 86.2561 128.032 86.3508 128.323C86.448 128.606 86.4261 128.913 86.2895 129.18C86.153 129.448 85.9125 129.655 85.6183 129.759L74.3511 133.531L74.5855 134.419L86.0212 131.18C87.2153 130.924 88.5339 132.45 84.915 133.857L75.4646 136.985L75.6478 137.547L85.7574 135.986C86.2629 135.903 87.6329 135.765 87.794 136.229C87.794 136.229 88.7611 137.207 86.1091 138.344C85.1934 138.733 76.7027 140.938 76.7027 140.938L77.2595 141.562L86.5486 140.779C86.8743 140.754 87.198 140.845 87.4558 141.035C87.7136 141.225 87.8866 141.5 87.9406 141.805C87.9909 142.115 87.9142 142.431 87.7262 142.689C87.5382 142.947 87.2532 143.127 86.9296 143.192L77.362 145.113L72.1973 152.319C71.0979 153.857 69.4778 154.994 67.604 155.544L58.2928 158.283L55.9925 150.03Z" fill="#FFBE9D"/>
<path d="M84.8564 127.553C84.8564 127.553 84.7465 127.616 84.5341 127.692L83.5671 128.011L79.9994 129.1L74.7174 130.702L71.5893 131.631L70.7761 131.874L70.3586 131.999C70.2275 132.027 70.1016 132.074 69.9849 132.137C69.5284 132.459 69.1321 132.85 68.8128 133.296C67.5259 135.049 66.3634 136.882 65.333 138.781C64.3514 140.522 63.5016 142.11 62.7983 143.449L61.1426 146.618C60.9595 146.965 60.813 147.249 60.6884 147.478C60.5639 147.707 60.5199 147.776 60.5053 147.769C60.5263 147.659 60.5633 147.552 60.6152 147.45L61.0108 146.563C61.3624 145.793 61.8825 144.69 62.5565 143.338C63.2305 141.985 64.0217 140.383 65.018 138.629C66.0439 136.706 67.209 134.852 68.5051 133.081C68.8534 132.594 69.2899 132.169 69.7945 131.825C69.9336 131.754 70.0811 131.698 70.234 131.659L70.6516 131.534L71.4721 131.298L74.6075 130.383L79.9188 128.857L83.5085 127.858L84.4828 127.609C84.6049 127.578 84.7302 127.559 84.8564 127.553Z" fill="#EB996E"/>
<path d="M5.19512 206.012C6.8772 207.525 8.87129 208.693 11.0524 209.442C13.2336 210.192 15.5547 210.507 17.8704 210.367C20.1862 210.228 22.4465 209.637 24.5099 208.632C26.5732 207.628 28.3951 206.23 29.8613 204.527L69.4208 158.339L55.3552 141.444L5.73723 182.501C3.98134 183.959 2.56494 185.747 1.57796 187.752C0.590983 189.756 0.0549909 191.933 0.00401328 194.143C-0.0469643 196.354 0.388188 198.551 1.28184 200.594C2.17549 202.637 3.50812 204.482 5.19512 206.012Z" fill="#455A64"/>
<path d="M32.1908 202.613C32.1908 202.613 32.2421 202.53 32.3593 202.378C32.4765 202.225 32.6597 202.003 32.8868 201.726L34.96 199.208L42.7327 189.887L69.2816 158.228V158.443L59.5309 146.75L55.2086 141.555H55.4797C41.0258 153.595 28.4327 164.601 19.2387 172.376C14.6527 176.273 10.9459 179.394 8.36715 181.523L5.43681 183.958L4.66027 184.582L4.38922 184.79C4.38922 184.79 4.4698 184.707 4.6383 184.561L5.37088 183.909L8.30122 181.419L19.0995 172.195C28.2422 164.372 40.806 153.338 55.2599 141.285L55.4138 141.16L55.5383 141.313L59.8606 146.5L69.5746 158.228L69.6625 158.339L69.5746 158.45L42.9232 190.04L35.0406 199.298L32.9234 201.781L32.3666 202.412L32.1908 202.613Z" fill="#263238"/>
<path d="M37.2384 196.184C36.9939 196.623 36.6544 197.009 36.2421 197.315C35.103 198.149 33.7043 198.603 32.2642 198.605C31.2751 198.639 30.2864 198.526 29.3338 198.272C28.2554 197.965 27.2124 197.556 26.2203 197.051C24.1178 196.032 21.9787 194.596 19.4146 193.826C16.9983 193.099 14.447 192.863 11.9276 193.133C9.87328 193.373 7.87398 193.928 6.00833 194.777C4.75208 195.357 3.56986 196.072 2.48459 196.906C1.752 197.516 1.33443 197.877 1.31245 197.849C1.29048 197.821 1.39304 197.745 1.56886 197.565C1.74468 197.384 2.01574 197.107 2.38936 196.802C3.45141 195.913 4.62802 195.156 5.89111 194.548C7.76963 193.649 9.79617 193.061 11.8837 192.807C14.4528 192.496 17.0628 192.718 19.5318 193.459C22.1692 194.25 24.3156 195.706 26.3888 196.725C27.3522 197.233 28.3686 197.644 29.4217 197.953C30.3383 198.214 31.2925 198.338 32.2495 198.321C33.6444 198.343 35.0103 197.942 36.1469 197.176C36.5382 196.874 36.9032 196.542 37.2384 196.184Z" fill="#F5F5F5"/>
<path d="M56.791 172.75C56.791 172.75 56.6958 172.84 56.498 172.972C56.1977 173.166 55.8817 173.338 55.5529 173.485C54.3782 174.062 53.0974 174.42 51.7801 174.54C49.8137 174.715 47.8345 174.367 46.066 173.534C44.0587 172.632 42.1686 171.183 40.0002 170.004C37.9435 168.918 35.6938 168.199 33.363 167.882C31.4584 167.62 29.524 167.62 27.6195 167.882C26.3346 168.055 25.0709 168.348 23.8467 168.756C22.9822 169.047 22.506 169.241 22.4987 169.213C22.4914 169.186 22.6013 169.144 22.8211 169.04C23.1378 168.885 23.463 168.746 23.7954 168.624C25.0157 168.161 26.2857 167.826 27.5829 167.625C29.5217 167.324 31.4973 167.301 33.4435 167.556C35.8219 167.858 38.1185 168.582 40.2126 169.692C42.4104 170.892 44.2931 172.341 46.2418 173.236C47.954 174.059 49.8725 174.422 51.7875 174.283C53.0787 174.189 54.3416 173.877 55.5163 173.361C56.3441 173.007 56.769 172.723 56.791 172.75Z" fill="#F5F5F5"/>
<path d="M167.236 132.796C167.195 133.074 167.121 133.346 167.016 133.608C166.855 134.121 166.584 134.863 166.217 135.757C165.851 136.652 165.375 137.713 164.789 138.858C164.516 139.5 164.107 140.083 163.587 140.571C163.431 140.709 163.247 140.816 163.045 140.883C162.843 140.951 162.628 140.978 162.415 140.963C162.201 140.948 161.993 140.891 161.804 140.796C161.615 140.701 161.449 140.57 161.316 140.411C161.043 140.107 160.864 139.737 160.796 139.343C160.748 138.972 160.776 138.595 160.877 138.233C161.078 137.585 161.343 136.956 161.668 136.354L163.133 133.289L164.173 131.208C164.288 130.951 164.433 130.706 164.606 130.48C164.538 130.752 164.44 131.018 164.313 131.27C164.056 131.832 163.749 132.533 163.375 133.351C163.001 134.169 162.481 135.3 161.91 136.444C161.616 137.033 161.371 137.643 161.177 138.268C161.097 138.588 161.077 138.919 161.119 139.246C161.171 139.573 161.318 139.881 161.543 140.134C161.644 140.257 161.772 140.359 161.917 140.433C162.063 140.507 162.223 140.551 162.387 140.562C162.552 140.573 162.717 140.551 162.872 140.498C163.027 140.444 163.169 140.36 163.287 140.252C163.77 139.8 164.153 139.263 164.415 138.67C165.016 137.54 165.514 136.5 165.88 135.619C166.247 134.738 166.613 134.017 166.789 133.538C166.908 133.276 167.058 133.027 167.236 132.796Z" fill="#EB996E"/>
<path d="M164.43 142.568C164.43 142.623 163.932 142.45 163.082 142.415C161.947 142.37 160.826 142.666 159.88 143.261L159.573 143.463V143.109C159.613 142.46 159.613 141.809 159.573 141.16C159.458 139.628 159.112 138.119 158.547 136.68C158.115 135.57 157.734 134.925 157.815 134.897C158.248 135.402 158.589 135.972 158.825 136.583C159.481 138.026 159.872 139.565 159.983 141.132C160.031 141.797 160.031 142.465 159.983 143.13L159.697 142.977C160.712 142.354 161.923 142.079 163.126 142.2C163.585 142.222 164.032 142.348 164.43 142.568Z" fill="#EB996E"/>
<path d="M169.741 136.645C169.704 136.87 169.63 137.088 169.521 137.29C169.36 137.693 169.111 138.275 168.789 138.989L168.269 140.162C168.077 140.627 167.831 141.072 167.536 141.486C167.364 141.728 167.141 141.934 166.881 142.091C166.622 142.249 166.331 142.354 166.027 142.402C165.685 142.454 165.335 142.39 165.038 142.221C164.741 142.04 164.515 141.772 164.393 141.458C164.199 140.875 164.171 140.253 164.313 139.655C164.418 139.119 164.573 138.592 164.774 138.081C165.115 137.225 165.514 136.391 165.968 135.584L166.906 133.954C166.997 133.744 167.118 133.545 167.265 133.365C167.008 134.171 166.669 134.951 166.254 135.695C165.917 136.389 165.521 137.235 165.148 138.192C164.965 138.689 164.823 139.2 164.723 139.718C164.6 140.253 164.625 140.81 164.796 141.334C164.881 141.567 165.05 141.765 165.274 141.892C165.498 142.019 165.762 142.067 166.02 142.027C166.277 141.989 166.523 141.902 166.744 141.771C166.964 141.64 167.154 141.467 167.302 141.264C167.589 140.875 167.835 140.459 168.034 140.023L168.591 138.865C168.943 138.171 169.228 137.595 169.433 137.207C169.509 137.008 169.612 136.819 169.741 136.645Z" fill="#EB996E"/>
</svg>
