<svg width="7" height="11" viewBox="0 0 7 11" fill="none" xmlns="http://www.w3.org/2000/svg">
<path d="M0.278718 10.9937C0.230296 10.9948 0.182601 10.9811 0.141242 10.9541C0.0851355 10.9206 0.0417284 10.8671 0.0185479 10.803C-0.00463252 10.7388 -0.00613529 10.6679 0.0143199 10.6027L3.21884 0.204351C3.23737 0.142684 3.27435 0.0892717 3.32405 0.0523948C3.37376 0.0155178 3.43342 -0.00277702 3.4938 0.000341781C4.24342 0.0390239 4.96763 0.303652 5.58315 0.763774C6.19867 1.2239 6.68051 1.86084 6.97327 2.60137C6.99646 2.65471 7.0048 2.71407 6.9973 2.77236C6.9898 2.83066 6.96677 2.8854 6.93097 2.93003L0.484956 10.8917C0.459572 10.9238 0.427961 10.9495 0.392342 10.9671C0.356723 10.9847 0.317947 10.9938 0.278718 10.9937ZM3.67888 0.612353L0.976732 9.37304L6.39161 2.68636C6.14107 2.12219 5.76054 1.63571 5.28591 1.27284C4.81129 0.909964 4.25822 0.682657 3.67888 0.612353Z" fill="white"/>
</svg>
