<svg width="13" height="3" viewBox="0 0 13 3" fill="none" xmlns="http://www.w3.org/2000/svg">
<path d="M0 0.0973105C0.646676 0.0850915 1.29346 0.115623 1.93617 0.188711C3.47559 0.471618 4.98585 0.89691 6.44783 1.45919C7.93283 2.02278 9.50882 2.30327 11.0955 2.28638C11.5754 2.26307 12.0505 2.18019 12.5102 2.03959C12.6809 1.99271 12.8454 1.92519 12.9999 1.83851C12.3749 1.99988 11.7354 2.09786 11.091 2.131C9.52709 2.10303 7.97957 1.80469 6.51584 1.24897C5.04245 0.681721 3.51331 0.274211 1.9543 0.0333296C1.47618 -0.0111099 0.995035 -0.0111099 0.516921 0.0333296C0.342488 0.0300448 0.168461 0.0515839 0 0.0973105Z" fill="#455A64"/>
</svg>
