<svg width="126" height="116" viewBox="0 0 126 116" fill="none" xmlns="http://www.w3.org/2000/svg">
<path d="M64.7261 31.6639C55.7696 20.0067 47.4408 6.01945 40.5493 1.79323C28.1471 -5.80463 2.9536 10.8933 0.19825 48.9961C-2.5571 87.0989 23.8917 108.45 49.4556 114.312C62.5419 117.303 79.7393 114.272 86.4864 111.789C107.054 104.211 118.571 93.6085 123.517 78.9536C128.915 62.8899 124.829 53.229 117.799 49.1163C114.633 47.3105 110.993 46.6719 107.45 47.3003C82.4444 51.4664 71.6615 40.6905 64.7261 31.6639Z" fill="#629DFF"/>
<path opacity="0.2" d="M95.9763 107.736L97.1061 107.175C98.9011 97.828 97.8906 89.0684 94.062 80.9631C90.2962 73.0515 83.9005 65.6405 74.4294 58.263C60.4644 47.4271 54.9725 37.1453 49.6878 27.2039C47.7484 23.5586 45.9219 20.1135 43.7001 16.7152C38.7605 9.13066 33.8335 5.14479 28.2036 4.18337C25.9072 3.8143 23.5665 3.90031 21.2995 4.43707C20.5254 4.97119 19.7555 5.5565 18.9898 6.19299C21.8829 5.12017 24.9745 4.7952 28.009 5.24493C33.3502 6.15961 38.0513 9.99859 42.8402 17.3294C45.0244 20.6676 46.8508 24.1127 48.7777 27.7314C54.1252 37.7795 59.661 48.1615 73.8017 59.1109C86.0282 68.6316 101.035 83.7072 95.9763 107.736Z" fill="black"/>
<path opacity="0.1" d="M49.4555 114.312C62.5419 117.303 79.7392 114.272 86.4864 111.789C107.054 104.211 118.571 93.6084 123.517 78.9535C123.649 78.5596 123.762 78.179 123.881 77.7918L123.58 77.6649C118.314 75.8422 112.653 78.0255 107.437 79.995C94.3194 84.949 79.4945 88.6144 66.7973 82.5588C58.4371 78.5529 49.8196 72.3237 45.3759 63.7978C40.9322 55.2719 38.8798 45.5309 35.6537 36.4242C34.1976 32.3181 32.8419 27.0103 29.5656 23.0111C26.4964 19.2723 22.4481 16.5549 17.7847 16.5616C13.9561 16.5616 10.4162 17.7901 7.11483 21.9429C3.54983 29.2269 0.982775 38.2803 0.210775 49.0361C-2.55712 87.1055 23.8917 108.45 49.4555 114.312Z" fill="black"/>
</svg>
