<svg width="48" height="88" viewBox="0 0 48 88" fill="none" xmlns="http://www.w3.org/2000/svg">
<path d="M22.323 19.3047V87.1435C22.3206 87.2813 22.364 87.4168 22.4483 87.5342C22.5326 87.6517 22.6542 87.7462 22.7989 87.8066C23.0722 87.9386 23.382 88.0054 23.6958 87.9998C24.0094 88.0041 24.3188 87.9375 24.5927 87.8066C24.7356 87.7442 24.8556 87.6493 24.9396 87.5323C25.0235 87.4153 25.0682 87.2808 25.0686 87.1435V19.3047H22.323Z" fill="#37474F"/>
<path d="M23.696 73.9012C18.339 73.9012 12.982 72.8935 8.90015 70.8779C4.81833 68.8624 2.62183 66.1785 2.62183 63.3066C2.62183 60.4348 4.84884 57.7352 8.90015 55.7353C17.0577 51.7043 30.3343 51.7043 38.4857 55.7353C42.5431 57.7352 44.7701 60.4348 44.7701 63.3066C44.7701 66.1785 42.5431 68.8781 38.4857 70.8779C34.41 72.8935 29.053 73.9012 23.696 73.9012ZM23.696 53.6102C18.5281 53.6102 13.3664 54.5814 9.43707 56.5238C5.72743 58.3566 3.68347 60.7637 3.68347 63.3119C3.68347 65.86 5.72743 68.2619 9.43707 70.0999C17.2956 73.9848 30.0902 73.9848 37.9549 70.0999C41.6645 68.2671 43.7085 65.86 43.7085 63.3119C43.7085 60.7637 41.6645 58.3618 37.9549 56.5238C34.0256 54.5814 28.8577 53.6102 23.696 53.6102Z" fill="#37474F"/>
<path d="M11.6762 15.5813L0.00429188 80.2558C-0.0131244 80.4013 0.0227375 80.5477 0.106911 80.675C0.191084 80.8022 0.319406 80.9039 0.4741 80.966C0.751026 81.0895 1.0587 81.154 1.371 81.154C1.68329 81.154 1.99098 81.0895 2.2679 80.966C2.40102 80.9054 2.51431 80.8173 2.59744 80.7097C2.68056 80.6021 2.73088 80.4783 2.74381 80.3498L14.4279 15.6022L11.6762 15.5813Z" fill="#37474F"/>
<path d="M47.4549 80.261L35.8623 15.8424L35.8135 15.5813H33.0557L44.7459 80.3655C44.7612 80.4914 44.8119 80.6123 44.8937 80.7178C44.9755 80.8233 45.086 80.9102 45.2157 80.9712C45.4926 81.0947 45.8003 81.1592 46.1126 81.1592C46.4249 81.1592 46.7326 81.0947 47.0095 80.9712C47.1597 80.906 47.2829 80.8029 47.3625 80.676C47.4421 80.549 47.4744 80.4042 47.4549 80.261Z" fill="#37474F"/>
<path d="M10.3828 4.08358C17.6251 0.506798 29.3703 0.506798 36.6187 4.08358C40.2429 5.87459 42.0489 8.21908 42.0489 10.5636V13.4407C42.0489 15.7904 40.2185 18.1401 36.6187 19.9206C29.3764 23.5026 17.6312 23.5026 10.3828 19.9206C6.75858 18.1296 4.95257 15.7852 4.95257 13.4354V10.5583C4.95257 8.21907 6.75858 5.87459 10.3828 4.08358Z" fill="#263238"/>
<path d="M10.3828 2.68406C17.6251 -0.892724 29.3703 -0.892724 36.6187 2.68406C40.2429 4.47506 42.0489 6.81955 42.0489 9.16404V12.0464C42.0489 14.3909 40.2185 16.7458 36.6187 18.5264C29.3764 22.1031 17.6312 22.1031 10.3828 18.5264C6.75858 16.7354 4.95257 14.3909 4.95257 12.0464V9.16404C4.95257 6.81955 6.75858 4.47506 10.3828 2.68406Z" fill="#FA00FF"/>
<path opacity="0.5" d="M10.3828 2.68406C17.6251 -0.892724 29.3703 -0.892724 36.6187 2.68406C40.2429 4.47506 42.0489 6.81955 42.0489 9.16404V12.0464C42.0489 14.3909 40.2185 16.7458 36.6187 18.5264C29.3764 22.1031 17.6312 22.1031 10.3828 18.5264C6.75858 16.7354 4.95257 14.3909 4.95257 12.0464V9.16404C4.95257 6.81955 6.75858 4.47506 10.3828 2.68406Z" fill="black"/>
<path d="M23.4946 18.3278C33.7385 18.3278 42.0428 14.2249 42.0428 9.16387C42.0428 4.1028 33.7385 0 23.4946 0C13.2507 0 4.94643 4.1028 4.94643 9.16387C4.94643 14.2249 13.2507 18.3278 23.4946 18.3278Z" fill="#FA00FF"/>
<path opacity="0.3" d="M23.4946 18.3278C33.7385 18.3278 42.0428 14.2249 42.0428 9.16387C42.0428 4.1028 33.7385 0 23.4946 0C13.2507 0 4.94643 4.1028 4.94643 9.16387C4.94643 14.2249 13.2507 18.3278 23.4946 18.3278Z" fill="black"/>
</svg>
