<svg width="27" height="27" viewBox="0 0 27 27" fill="none" xmlns="http://www.w3.org/2000/svg">
<path d="M13.5 10.9688C13.3387 10.9688 13.1808 10.9226 13.0449 10.8356C12.9091 10.7486 12.8011 10.6245 12.7336 10.478C12.6661 10.3315 12.642 10.1688 12.6642 10.009C12.6864 9.84923 12.7539 9.69918 12.8587 9.5766L16.8075 4.93598C16.8795 4.85177 16.9674 4.78257 17.0662 4.73233C17.1649 4.68209 17.2726 4.6518 17.3831 4.64318C17.4936 4.63456 17.6047 4.64779 17.71 4.6821C17.8154 4.71642 17.913 4.77115 17.9972 4.84317C18.0814 4.91519 18.1506 5.00309 18.2008 5.10186C18.2511 5.20062 18.2814 5.30832 18.29 5.41879C18.2986 5.52926 18.2854 5.64035 18.2511 5.74571C18.2167 5.85107 18.162 5.94864 18.09 6.03285L14.1412 10.6735C14.062 10.7661 13.9637 10.8404 13.853 10.8914C13.7423 10.9424 13.6219 10.9688 13.5 10.9688Z" fill="#FFB300"/>
<path d="M18.5625 6.75C18.0619 6.75 17.5725 6.60155 17.1562 6.32341C16.74 6.04527 16.4155 5.64994 16.2239 5.18742C16.0323 4.72489 15.9822 4.21594 16.0799 3.72493C16.1776 3.23391 16.4186 2.78289 16.7726 2.42889C17.1266 2.07489 17.5777 1.83381 18.0687 1.73614C18.5597 1.63847 19.0686 1.6886 19.5312 1.88018C19.9937 2.07177 20.389 2.3962 20.6672 2.81246C20.9453 3.22873 21.0938 3.71812 21.0938 4.21875C21.0938 4.89008 20.8271 5.53391 20.3524 6.00862C19.8777 6.48332 19.2338 6.75 18.5625 6.75ZM18.5625 3.375C18.3956 3.375 18.2325 3.42449 18.0937 3.5172C17.955 3.60991 17.8468 3.74169 17.783 3.89586C17.7191 4.05004 17.7024 4.21969 17.735 4.38336C17.7675 4.54703 17.8479 4.69737 17.9659 4.81537C18.0839 4.93337 18.2342 5.01373 18.3979 5.04629C18.5616 5.07884 18.7312 5.06214 18.8854 4.99827C19.0396 4.93441 19.1713 4.82627 19.2641 4.68751C19.3568 4.54876 19.4063 4.38563 19.4063 4.21875C19.4063 3.99497 19.3174 3.78036 19.1591 3.62213C19.0009 3.4639 18.7863 3.375 18.5625 3.375Z" fill="#FFB300"/>
<path d="M21.0938 25.3125H5.90625C5.68247 25.3125 5.46786 25.2236 5.30963 25.0654C5.1514 24.9071 5.0625 24.6925 5.0625 24.4688V10.125C5.0625 9.90122 5.1514 9.68661 5.30963 9.52838C5.46786 9.37015 5.68247 9.28125 5.90625 9.28125H21.0938C21.3175 9.28125 21.5321 9.37015 21.6904 9.52838C21.8486 9.68661 21.9375 9.90122 21.9375 10.125V24.4688C21.9375 24.6925 21.8486 24.9071 21.6904 25.0654C21.5321 25.2236 21.3175 25.3125 21.0938 25.3125ZM6.75 23.625H20.25V10.9688H6.75V23.625Z" fill="black"/>
<path d="M16.875 12.6562H16.0312C15.5653 12.6562 15.1875 13.034 15.1875 13.5V15.1875C15.1875 15.6535 15.5653 16.0312 16.0312 16.0312H16.875C17.341 16.0312 17.7188 15.6535 17.7188 15.1875V13.5C17.7188 13.034 17.341 12.6562 16.875 12.6562Z" fill="black"/>
<path d="M10.9688 12.6562H10.125C9.65901 12.6562 9.28125 13.034 9.28125 13.5V15.1875C9.28125 15.6535 9.65901 16.0312 10.125 16.0312H10.9688C11.4347 16.0312 11.8125 15.6535 11.8125 15.1875V13.5C11.8125 13.034 11.4347 12.6562 10.9688 12.6562Z" fill="black"/>
<path d="M16.0312 21.0939H10.9688C10.745 21.0939 10.5304 21.005 10.3721 20.8467C10.2139 20.6885 10.125 20.4739 10.125 20.2501C10.125 20.0263 10.2139 19.8117 10.3721 19.6535C10.5304 19.4953 10.745 19.4064 10.9688 19.4064H16.0312C16.255 19.4064 16.4696 19.4953 16.6279 19.6535C16.7861 19.8117 16.875 20.0263 16.875 20.2501C16.875 20.4739 16.7861 20.6885 16.6279 20.8467C16.4696 21.005 16.255 21.0939 16.0312 21.0939ZM23.625 20.1995H21.0938C20.87 20.1995 20.6554 20.1106 20.4971 19.9524C20.3389 19.7941 20.25 19.5795 20.25 19.3557C20.25 19.132 20.3389 18.9173 20.4971 18.7591C20.6554 18.6009 20.87 18.512 21.0938 18.512H22.7812V14.3439H21.0938C20.87 14.3439 20.6554 14.255 20.4971 14.0967C20.3389 13.9385 20.25 13.7239 20.25 13.5001C20.25 13.2763 20.3389 13.0617 20.4971 12.9035C20.6554 12.7453 20.87 12.6564 21.0938 12.6564H23.625C23.8488 12.6564 24.0634 12.7453 24.2216 12.9035C24.3799 13.0617 24.4688 13.2763 24.4688 13.5001V19.3557C24.4688 19.5795 24.3799 19.7941 24.2216 19.9524C24.0634 20.1106 23.8488 20.1995 23.625 20.1995ZM5.90625 20.1995H3.375C3.15122 20.1995 2.93661 20.1106 2.77838 19.9524C2.62014 19.7941 2.53125 19.5795 2.53125 19.3557V13.5001C2.53125 13.2763 2.62014 13.0617 2.77838 12.9035C2.93661 12.7453 3.15122 12.6564 3.375 12.6564H5.90625C6.13003 12.6564 6.34464 12.7453 6.50287 12.9035C6.66111 13.0617 6.75 13.2763 6.75 13.5001C6.75 13.7239 6.66111 13.9385 6.50287 14.0967C6.34464 14.255 6.13003 14.3439 5.90625 14.3439H4.21875V18.512H5.90625C6.13003 18.512 6.34464 18.6009 6.50287 18.7591C6.66111 18.9173 6.75 19.132 6.75 19.3557C6.75 19.5795 6.66111 19.7941 6.50287 19.9524C6.34464 20.1106 6.13003 20.1995 5.90625 20.1995ZM13.5 10.9689C13.3781 10.9689 13.2577 10.9425 13.147 10.8915C13.0363 10.8405 12.938 10.7662 12.8587 10.6735L9.48375 6.69948C9.3409 6.52989 9.27055 6.31088 9.28792 6.08983C9.30529 5.86877 9.40898 5.66343 9.57656 5.51823C9.66077 5.44621 9.75834 5.39147 9.8637 5.35715C9.96907 5.32284 10.0802 5.30961 10.1906 5.31823C10.3011 5.32685 10.4088 5.35714 10.5076 5.40738C10.6063 5.45763 10.6942 5.52683 10.7663 5.61105L14.1413 9.57667C14.2461 9.69924 14.3136 9.8493 14.3358 10.0091C14.358 10.1688 14.3339 10.3316 14.2664 10.4781C14.1989 10.6246 14.0909 10.7487 13.955 10.8357C13.8192 10.9226 13.6613 10.9689 13.5 10.9689Z" fill="black"/>
<path d="M9.00281 7.4165C8.50217 7.4165 8.01278 7.26805 7.59652 6.98991C7.18026 6.71177 6.85582 6.31645 6.66424 5.85392C6.47265 5.3914 6.42253 4.88245 6.5202 4.39143C6.61786 3.90042 6.85894 3.44939 7.21294 3.09539C7.56695 2.74139 8.01797 2.50031 8.50899 2.40264C9 2.30497 9.50895 2.3551 9.97148 2.54668C10.434 2.73827 10.8293 3.06271 11.1075 3.47897C11.3856 3.89523 11.5341 4.38462 11.5341 4.88525C11.5341 5.55658 11.2674 6.20042 10.7927 6.67512C10.318 7.14982 9.67414 7.4165 9.00281 7.4165ZM9.00281 4.0415C8.83593 4.0415 8.6728 4.09099 8.53405 4.1837C8.39529 4.27641 8.28715 4.40819 8.22329 4.56237C8.15942 4.71654 8.14271 4.88619 8.17527 5.04986C8.20783 5.21353 8.28819 5.36388 8.40619 5.48188C8.52419 5.59988 8.67453 5.68024 8.8382 5.71279C9.00187 5.74535 9.17152 5.72864 9.3257 5.66478C9.47987 5.60092 9.61165 5.49277 9.70436 5.35402C9.79707 5.21526 9.84656 5.05213 9.84656 4.88525C9.84656 4.66148 9.75766 4.44687 9.59943 4.28863C9.4412 4.1304 9.22659 4.0415 9.00281 4.0415Z" fill="black"/>
</svg>
