<svg width="27" height="52" viewBox="0 0 27 52" fill="none" xmlns="http://www.w3.org/2000/svg">
<path d="M0 51.6461L17.319 43.0037L24.2203 46.0477L0 51.6461Z" fill="#0060FF"/>
<path d="M0 51.6461L15.2583 41.4711L12.5248 37.553L0 51.6461Z" fill="#0060FF"/>
<path d="M15.2583 41.4711L14.9706 44.1774L0 51.6462L15.2583 41.4711Z" fill="#0060FF"/>
<path opacity="0.2" d="M15.2583 41.4711L14.9706 44.1774L0 51.6462L15.2583 41.4711Z" fill="black"/>
<path d="M19.0666 39.8499C19.0134 39.8503 18.9621 39.8307 18.9227 39.795C18.8804 39.7569 18.8546 39.704 18.8507 39.6473C18.8467 39.5906 18.865 39.5346 18.9016 39.491C19.0454 39.3306 19.1851 39.1702 19.3247 39.0055C19.343 38.9838 19.3654 38.966 19.3907 38.953C19.4159 38.94 19.4435 38.9321 19.4718 38.9297C19.5001 38.9274 19.5286 38.9306 19.5556 38.9393C19.5826 38.9479 19.6077 38.9618 19.6294 38.9802C19.6509 38.9981 19.6687 39.0201 19.6817 39.0449C19.6947 39.0697 19.7026 39.0969 19.705 39.1248C19.7073 39.1527 19.7041 39.1807 19.6955 39.2074C19.6869 39.234 19.673 39.2587 19.6547 39.2799C19.5151 39.4488 19.3755 39.6093 19.2316 39.7739C19.2117 39.7983 19.1865 39.8178 19.1579 39.8309C19.1293 39.8441 19.0981 39.8506 19.0666 39.8499Z" fill="#E0E0E0"/>
<path d="M20.8053 37.7093C20.7581 37.7102 20.712 37.6954 20.6742 37.6671C20.629 37.6327 20.5992 37.582 20.5913 37.5259C20.5834 37.4697 20.598 37.4128 20.6319 37.3673C20.8857 37.0296 21.1354 36.6918 21.3766 36.3498C21.3926 36.3264 21.4132 36.3064 21.4372 36.2911C21.4612 36.2758 21.488 36.2655 21.516 36.2608C21.5441 36.256 21.5728 36.257 21.6004 36.2636C21.6281 36.2702 21.6541 36.2823 21.677 36.2991C21.7226 36.3329 21.7534 36.383 21.7628 36.4388C21.7723 36.4947 21.7597 36.5521 21.7278 36.5989C21.4824 36.9409 21.2327 37.2871 20.9746 37.6249C20.9551 37.6513 20.9296 37.6728 20.9002 37.6875C20.8708 37.7022 20.8383 37.7096 20.8053 37.7093ZM22.7095 34.927C22.6704 34.9261 22.6323 34.9144 22.5994 34.8932C22.5507 34.8635 22.5157 34.8157 22.5022 34.7603C22.4888 34.7049 22.4978 34.6464 22.5275 34.5977C22.7475 34.2388 22.9507 33.8799 23.1622 33.5168C23.1743 33.4895 23.1919 33.4649 23.214 33.4447C23.2361 33.4246 23.2622 33.4092 23.2905 33.3996C23.3189 33.39 23.349 33.3864 23.3788 33.389C23.4086 33.3917 23.4376 33.4005 23.4638 33.4149C23.4901 33.4293 23.513 33.449 23.5312 33.4728C23.5494 33.4965 23.5624 33.5238 23.5695 33.5528C23.5765 33.5819 23.5775 33.6121 23.5722 33.6415C23.5669 33.6709 23.5555 33.6989 23.5388 33.7237C23.3357 34.0953 23.1157 34.4583 22.8956 34.8214C22.8765 34.8537 22.8493 34.8804 22.8166 34.8989C22.7839 34.9174 22.747 34.9271 22.7095 34.927ZM24.3174 31.9716C24.2868 31.9794 24.2548 31.9794 24.2243 31.9716C24.1989 31.9598 24.1761 31.9431 24.1572 31.9225C24.1383 31.9018 24.1237 31.8776 24.1143 31.8513C24.1048 31.825 24.1007 31.7971 24.1022 31.7692C24.1036 31.7412 24.1106 31.7139 24.1227 31.6887C24.3005 31.3045 24.4697 30.9203 24.6305 30.5403C24.6407 30.514 24.6561 30.49 24.6758 30.4697C24.6955 30.4495 24.7191 30.4334 24.7451 30.4223C24.7711 30.4113 24.7991 30.4056 24.8274 30.4056C24.8557 30.4055 24.8837 30.4112 24.9098 30.4221C24.9626 30.4445 25.0046 30.4866 25.0267 30.5395C25.0488 30.5923 25.0494 30.6517 25.0283 30.705C24.8675 31.0892 24.694 31.4818 24.512 31.8702C24.4898 31.9003 24.4603 31.9243 24.4262 31.9398C24.3922 31.9553 24.3547 31.9619 24.3174 31.9589V31.9716ZM25.5614 28.8388C25.539 28.8429 25.5161 28.8429 25.4937 28.8388C25.4642 28.8317 25.4365 28.8185 25.4124 28.8C25.3883 28.7815 25.3685 28.7581 25.3541 28.7314C25.3397 28.7047 25.3312 28.6753 25.329 28.645C25.3268 28.6148 25.331 28.5845 25.3414 28.556C25.4725 28.1338 25.5953 27.7538 25.701 27.3569C25.7084 27.3294 25.7211 27.3036 25.7385 27.281C25.756 27.2584 25.7777 27.2395 25.8025 27.2254C25.8273 27.2112 25.8547 27.2021 25.883 27.1986C25.9113 27.1951 25.9401 27.1973 25.9676 27.2049C25.995 27.2117 26.0207 27.224 26.0431 27.241C26.0655 27.2581 26.0843 27.2795 26.0981 27.304C26.112 27.3285 26.1207 27.3556 26.1237 27.3835C26.1268 27.4115 26.124 27.4398 26.1157 27.4667C26.0099 27.8889 25.8872 28.2815 25.7518 28.6911C25.7364 28.7295 25.7103 28.7626 25.6765 28.7866C25.6427 28.8105 25.6028 28.8243 25.5614 28.8262V28.8388ZM26.4077 25.571H26.3696C26.3416 25.5664 26.3148 25.5563 26.2908 25.5412C26.2668 25.5261 26.2461 25.5064 26.23 25.4831C26.2138 25.4599 26.2024 25.4336 26.1966 25.4059C26.1908 25.3782 26.1906 25.3497 26.1961 25.3219C26.2723 24.8997 26.3357 24.4775 26.3865 24.0849C26.3939 24.0283 26.4234 23.9771 26.4686 23.9422C26.5139 23.9074 26.571 23.8919 26.6277 23.8991C26.656 23.9022 26.6833 23.9109 26.7081 23.9248C26.7329 23.9387 26.7547 23.9575 26.7721 23.9799C26.7894 24.0024 26.8021 24.0281 26.8093 24.0556C26.8165 24.083 26.818 24.1117 26.8139 24.1397C26.7631 24.5619 26.6954 24.9841 26.6192 25.4063C26.6054 25.4555 26.5742 25.4979 26.5314 25.5259C26.4886 25.5538 26.4372 25.5653 26.3865 25.5583L26.4077 25.571ZM26.7758 22.2229C26.7476 22.2219 26.72 22.2152 26.6944 22.2033C26.6689 22.1914 26.646 22.1745 26.6271 22.1537C26.6081 22.1329 26.5936 22.1085 26.5842 22.0819C26.5749 22.0554 26.571 22.0272 26.5727 21.9992C26.5727 21.6741 26.5727 21.3448 26.5727 21.0154V20.7452C26.5721 20.7172 26.5772 20.6893 26.5876 20.6632C26.598 20.6371 26.6134 20.6133 26.6331 20.5932C26.6528 20.5732 26.6764 20.5572 26.7023 20.5464C26.7283 20.5355 26.7561 20.5299 26.7843 20.5299C26.8408 20.5299 26.895 20.552 26.9354 20.5915C26.9757 20.631 26.999 20.6846 27.0001 20.741V21.0154C27.0001 21.349 27.0001 21.6825 27.0001 22.0161C26.9992 22.0463 26.9919 22.076 26.9787 22.1032C26.9656 22.1305 26.9468 22.1546 26.9236 22.1742C26.9005 22.1937 26.8735 22.2081 26.8443 22.2165C26.8152 22.2249 26.7847 22.2271 26.7546 22.2229H26.7758ZM26.6827 18.8453C26.6294 18.8455 26.578 18.8256 26.5388 18.7896C26.4996 18.7536 26.4754 18.7041 26.4711 18.6511C26.4288 18.2289 26.3781 17.8067 26.3188 17.3845C26.3179 17.3323 26.336 17.2815 26.3698 17.2417C26.4036 17.2018 26.4508 17.1756 26.5026 17.1678C26.5543 17.1601 26.6071 17.1714 26.6512 17.1996C26.6952 17.2278 26.7275 17.271 26.7419 17.3212C26.8054 17.7434 26.8562 18.1656 26.8943 18.5878C26.8972 18.6161 26.8945 18.6447 26.8862 18.6719C26.878 18.6992 26.8645 18.7245 26.8464 18.7465C26.8283 18.7685 26.806 18.7867 26.7808 18.8C26.7556 18.8134 26.728 18.8216 26.6996 18.8242L26.6827 18.8453ZM26.1496 15.5184C26.101 15.5181 26.054 15.5017 26.0157 15.472C25.9775 15.4422 25.9501 15.4006 25.938 15.3537C25.8449 14.9315 25.7391 14.5389 25.6206 14.142C25.6044 14.086 25.6111 14.0259 25.6392 13.9748C25.6674 13.9237 25.7147 13.8859 25.7709 13.8697C25.827 13.8534 25.8872 13.8601 25.9384 13.8882C25.9896 13.9163 26.0275 13.9636 26.0438 14.0196C26.1623 14.4418 26.2723 14.8429 26.3654 15.2566C26.3722 15.2841 26.3735 15.3126 26.3691 15.3406C26.3647 15.3686 26.3547 15.3954 26.3397 15.4194C26.3247 15.4434 26.305 15.4642 26.2818 15.4805C26.2586 15.4968 26.2323 15.5082 26.2046 15.5142L26.1496 15.5184ZM25.1383 12.3054C25.0954 12.3051 25.0536 12.2922 25.0182 12.2681C24.9828 12.244 24.9553 12.21 24.9394 12.1703C24.7828 11.7861 24.6136 11.3977 24.4359 11.0219C24.4238 10.9962 24.4169 10.9683 24.4157 10.9399C24.4145 10.9114 24.4189 10.8831 24.4288 10.8564C24.4386 10.8297 24.4537 10.8052 24.473 10.7843C24.4924 10.7635 24.5157 10.7467 24.5416 10.7348C24.5939 10.7116 24.6532 10.7097 24.707 10.7294C24.7607 10.7491 24.8046 10.7889 24.8294 10.8404C25.0071 11.2246 25.1806 11.6172 25.3371 12.0099C25.3481 12.0359 25.3537 12.0638 25.3537 12.0921C25.3536 12.1203 25.3479 12.1482 25.3369 12.1742C25.3258 12.2002 25.3097 12.2237 25.2894 12.2433C25.2691 12.2629 25.245 12.2783 25.2187 12.2885C25.1869 12.3029 25.1515 12.3073 25.1171 12.3012L25.1383 12.3054ZM23.6361 9.28668C23.5992 9.28646 23.563 9.2766 23.5311 9.25808C23.4992 9.23957 23.4726 9.21304 23.4542 9.18113C23.2384 8.82648 23.0099 8.47183 22.7772 8.12985C22.761 8.10656 22.7497 8.08034 22.7437 8.05267C22.7378 8.025 22.7373 7.99644 22.7424 7.9686C22.7475 7.94077 22.7581 7.91421 22.7735 7.89044C22.7889 7.86667 22.8088 7.84617 22.8322 7.83009C22.8555 7.81401 22.8818 7.80267 22.9095 7.79673C22.9373 7.79079 22.9659 7.79035 22.9938 7.79545C23.0217 7.80054 23.0483 7.81107 23.0721 7.82643C23.0959 7.8418 23.1165 7.86169 23.1326 7.88497C23.3696 8.2354 23.6023 8.59849 23.8223 8.96159C23.8368 8.98597 23.8464 9.01297 23.8504 9.04103C23.8544 9.0691 23.8528 9.09769 23.8458 9.12515C23.8387 9.1526 23.8262 9.1784 23.8091 9.20105C23.792 9.2237 23.7706 9.24276 23.7461 9.25713C23.7065 9.28009 23.6603 9.28902 23.615 9.28246L23.6361 9.28668ZM21.6812 6.53815C21.6499 6.53822 21.6188 6.53146 21.5903 6.51833C21.5618 6.50521 21.5365 6.48603 21.5162 6.46215C21.2496 6.14128 20.9704 5.82463 20.6699 5.52487C20.6306 5.48399 20.6087 5.42953 20.6087 5.37287C20.6087 5.31622 20.6306 5.26176 20.6699 5.22088C20.6897 5.20045 20.7133 5.1842 20.7395 5.1731C20.7657 5.162 20.7938 5.15628 20.8223 5.15628C20.8507 5.15628 20.8789 5.162 20.905 5.1731C20.9312 5.1842 20.9549 5.20045 20.9746 5.22088C21.2623 5.52909 21.5501 5.84996 21.8209 6.17928C21.8393 6.20088 21.8532 6.22589 21.8619 6.25288C21.8705 6.27986 21.8738 6.30829 21.8714 6.33653C21.8691 6.36477 21.8612 6.39227 21.8481 6.41745C21.8351 6.44263 21.8172 6.465 21.7955 6.48326C21.7566 6.51357 21.7093 6.53126 21.6601 6.53393L21.6812 6.53815ZM19.3328 4.11893C19.2795 4.1202 19.2278 4.10048 19.189 4.06405C18.8758 3.78962 18.55 3.51941 18.2242 3.26187C18.1801 3.22554 18.1518 3.17348 18.1455 3.11672C18.1392 3.05997 18.1553 3.00299 18.1904 2.95788C18.2081 2.9356 18.23 2.91703 18.255 2.90326C18.2799 2.88949 18.3073 2.88078 18.3356 2.87764C18.364 2.8745 18.3926 2.87699 18.42 2.88496C18.4473 2.89294 18.4729 2.90624 18.495 2.9241C18.8251 3.18587 19.1551 3.4603 19.4725 3.74318C19.5048 3.77201 19.5276 3.80988 19.538 3.85185C19.5485 3.89383 19.546 3.93796 19.5309 3.97851C19.5159 4.01906 19.4889 4.05414 19.4536 4.07919C19.4182 4.10423 19.3762 4.11808 19.3328 4.11893ZM16.6417 2.08392C16.5999 2.08309 16.5591 2.07145 16.5232 2.05015C16.1678 1.82216 15.8039 1.60683 15.4442 1.41262C15.3952 1.38425 15.3591 1.33815 15.3434 1.28389C15.3276 1.22963 15.3334 1.1714 15.3596 1.1213C15.3873 1.07172 15.4332 1.03479 15.4877 1.01826C15.5421 1.00172 15.6008 1.00688 15.6516 1.03264C16.0197 1.2353 16.392 1.45484 16.7559 1.68705C16.7798 1.70206 16.8005 1.72168 16.8166 1.74477C16.8328 1.76785 16.8442 1.79393 16.8501 1.82148C16.856 1.84902 16.8563 1.87746 16.8511 1.90513C16.8458 1.9328 16.835 1.95914 16.8194 1.9826C16.7985 2.01553 16.7688 2.04204 16.7337 2.05918C16.6986 2.07632 16.6594 2.08342 16.6205 2.0797L16.6417 2.08392Z" fill="#E0E0E0"/>
<path d="M13.591 0.572341C13.5701 0.576335 13.5485 0.576335 13.5276 0.572341C13.334 0.508625 13.136 0.459235 12.9352 0.424571C12.9073 0.420952 12.8804 0.411817 12.8561 0.397702C12.8317 0.383587 12.8105 0.364774 12.7936 0.342365C12.7766 0.319956 12.7643 0.294401 12.7574 0.267194C12.7505 0.239988 12.7491 0.211675 12.7532 0.183916C12.7574 0.155904 12.767 0.128982 12.7816 0.10469C12.7962 0.0803984 12.8154 0.0592145 12.8382 0.0423513C12.861 0.0254881 12.8869 0.0132768 12.9144 0.0064162C12.942 -0.00044443 12.9706 -0.00181953 12.9986 0.00236964C13.2227 0.0374787 13.4436 0.0911425 13.6587 0.162806C13.686 0.170944 13.7113 0.184479 13.7332 0.202605C13.7551 0.22073 13.7731 0.243073 13.7861 0.268297C13.7992 0.293521 13.807 0.321108 13.8091 0.34941C13.8112 0.377712 13.8075 0.406147 13.7984 0.433015C13.7826 0.474836 13.7541 0.510718 13.717 0.535683C13.6798 0.560648 13.6358 0.57346 13.591 0.572341Z" fill="#E0E0E0"/>
</svg>
