<svg width="8" height="7" viewBox="0 0 8 7" fill="none" xmlns="http://www.w3.org/2000/svg">
<path opacity="0.4" d="M0.371056 6.98153C0.266676 6.97423 0.169211 6.92307 0.0998402 6.83918C0.0304693 6.75528 -0.00518946 6.64542 0.000611404 6.5335L0.111743 4.59394L7.4044 0.0569556C7.49563 0.000551668 7.60403 -0.0147124 7.70576 0.0145356C7.80749 0.0437836 7.89421 0.115144 7.94684 0.212911C7.99948 0.310678 8.01372 0.426849 7.98643 0.535864C7.95913 0.644879 7.89254 0.737805 7.80131 0.794209L0.847351 5.10435L0.76269 6.59021C0.755971 6.69653 0.711753 6.79614 0.639025 6.86881C0.566297 6.94148 0.470495 6.98177 0.371056 6.98153Z" fill="black"/>
</svg>
