<svg width="4" height="6" viewBox="0 0 4 6" fill="none" xmlns="http://www.w3.org/2000/svg">
<path d="M0.000606675 5.69515C0.378389 5.86169 0.794881 5.8893 1.18805 5.77386C1.60858 5.64408 1.98755 5.38669 2.28175 5.03103C2.64427 4.59968 2.88879 4.0642 2.98708 3.48633C3.08931 2.90814 3.0237 2.30915 2.79958 1.77436C2.6157 1.3359 2.34222 0.950322 2.00052 0.647811C1.67066 0.38202 1.31041 0.165337 0.92913 0.00336567C1.04266 -0.00782591 1.15703 0.00897427 1.26394 0.0525556C1.56586 0.144888 1.85017 0.296546 2.10319 0.500226C2.48229 0.807277 2.78857 1.21061 2.996 1.67597C3.25092 2.25115 3.32926 2.90208 3.21921 3.5306C3.10994 4.15883 2.83693 4.73835 2.43354 5.19829C2.10604 5.57457 1.6853 5.83634 1.22376 5.95096C0.91445 6.03142 0.590708 6.01264 0.290769 5.89685C0.0809574 5.80338 -0.00832149 5.70499 0.000606675 5.69515Z" fill="#E0E0E0"/>
</svg>
