<svg width="17" height="17" viewBox="0 0 17 17" fill="none" xmlns="http://www.w3.org/2000/svg">
<mask id="mask0_277_346" style="mask-type:alpha" maskUnits="userSpaceOnUse" x="-2" y="-2" width="21" height="21">
<rect x="-1.70007" y="-1.70001" width="20.3999" height="20.3999" fill="#D9D9D9"/>
</mask>
<g mask="url(#mask0_277_346)">
<path d="M11.3049 12.4949L12.4949 11.3049L9.34995 8.15996V4.24998H7.64996V8.83996L11.3049 12.4949ZM8.49996 16.9999C7.32413 16.9999 6.21914 16.7768 5.18497 16.3305C4.15081 15.8843 3.25123 15.2787 2.48624 14.5137C1.72124 13.7487 1.11562 12.8491 0.669372 11.8149C0.223124 10.7808 0 9.67579 0 8.49996C0 7.32413 0.223124 6.21914 0.669372 5.18497C1.11562 4.15081 1.72124 3.25123 2.48624 2.48624C3.25123 1.72124 4.15081 1.11562 5.18497 0.669372C6.21914 0.223124 7.32413 0 8.49996 0C9.67579 0 10.7808 0.223124 11.8149 0.669372C12.8491 1.11562 13.7487 1.72124 14.5137 2.48624C15.2787 3.25123 15.8843 4.15081 16.3305 5.18497C16.7768 6.21914 16.9999 7.32413 16.9999 8.49996C16.9999 9.67579 16.7768 10.7808 16.3305 11.8149C15.8843 12.8491 15.2787 13.7487 14.5137 14.5137C13.7487 15.2787 12.8491 15.8843 11.8149 16.3305C10.7808 16.7768 9.67579 16.9999 8.49996 16.9999ZM8.49996 15.2999C10.3841 15.2999 11.9885 14.6376 13.3131 13.3131C14.6376 11.9885 15.2999 10.3841 15.2999 8.49996C15.2999 6.6158 14.6376 5.01143 13.3131 3.68686C11.9885 2.36228 10.3841 1.69999 8.49996 1.69999C6.6158 1.69999 5.01143 2.36228 3.68686 3.68686C2.36228 5.01143 1.69999 6.6158 1.69999 8.49996C1.69999 10.3841 2.36228 11.9885 3.68686 13.3131C5.01143 14.6376 6.6158 15.2999 8.49996 15.2999Z" fill="#1C1B1F"/>
</g>
</svg>
