<svg width="8" height="12" viewBox="0 0 8 12" fill="none" xmlns="http://www.w3.org/2000/svg">
<path d="M0.271728 11.9999C0.214362 12.0012 0.158269 11.9818 0.112378 11.9449C0.0707627 11.9118 0.0385942 11.867 0.0195181 11.8154C0.000441975 11.7638 -0.00478449 11.7075 0.00442706 11.6529L2.01945 0.360427C2.02875 0.303605 2.05385 0.251118 2.09145 0.209837C2.12906 0.168556 2.17742 0.140397 2.23021 0.129062C2.81306 -0.0292942 3.42206 -0.0421001 4.01027 0.0916074C4.59847 0.225315 5.15017 0.501978 5.62284 0.900268C6.79999 1.92485 7.45281 3.7702 7.45281 6.08929C7.45185 6.5587 7.42611 7.02768 7.37571 7.49397C7.37029 7.53837 7.35543 7.58082 7.33225 7.61807C7.30908 7.65532 7.27823 7.68637 7.24207 7.7088L0.405375 11.9614C0.364194 11.9851 0.318456 11.9983 0.271728 11.9999ZM2.54377 0.663389L0.672676 11.1296L6.87709 7.27362C6.91757 6.87848 6.93816 6.48131 6.93877 6.08379C6.93877 3.94098 6.35792 2.25536 5.30414 1.34094C4.9184 1.01829 4.47123 0.790369 3.99425 0.673291C3.51726 0.556212 3.02211 0.552824 2.54377 0.663389Z" fill="white"/>
</svg>
