<svg width="23" height="23" viewBox="0 0 23 23" fill="none" xmlns="http://www.w3.org/2000/svg">
<path d="M22.5023 21.1305C22.3843 21.2891 22.2516 21.4361 22.106 21.5694C21.6974 21.9469 21.2276 22.2512 20.7171 22.469C19.9065 22.8187 19.0341 22.9993 18.1525 23C16.9861 22.9988 15.8331 22.7491 14.7693 22.2672C13.4889 21.6798 12.2913 20.9242 11.2076 20.0202C10.0276 19.0635 8.79975 18.0147 7.53704 16.8737C6.20711 15.6834 4.97249 14.3892 3.84471 13.0031C2.65857 11.4956 1.59006 9.89781 0.648765 8.22402C0.44412 7.85977 0.243831 7.49553 0.0391858 7.14006L0 7.06545L0.0609513 7.00402L6.74023 0.0614385L6.79683 0L6.87086 0.0438808C11.225 2.76474 14.8999 5.19157 17.5037 6.86358L20.5516 8.82084L21.3571 9.34307L21.5661 9.47911L21.6314 9.53177C21.6314 9.53177 21.6053 9.53178 21.5531 9.49667L21.3397 9.37379L20.5168 8.87789C19.7983 8.43905 18.7751 7.79833 17.4427 6.9733C14.8303 5.32761 11.1466 2.9315 6.76635 0.22381H6.89698L0.239473 7.14883V7.01279C0.439764 7.37265 0.644416 7.7325 0.844707 8.09674C1.78571 9.76275 2.85273 11.3532 4.0363 12.8539C5.15375 14.2339 6.37822 15.5223 7.69814 16.7069C10.2279 18.9538 12.4877 21.0954 14.852 22.1092C15.8931 22.5928 17.0236 22.8499 18.1699 22.864C19.0364 22.8718 19.8959 22.7077 20.6996 22.3812C21.207 22.1739 21.6776 21.8849 22.093 21.5255C22.376 21.2754 22.5023 21.1217 22.5023 21.1305Z" fill="#263238"/>
</svg>
