<svg width="100" height="48" viewBox="0 0 100 48" fill="none" xmlns="http://www.w3.org/2000/svg">
<path d="M57.374 0.672315L10.9872 23.5874C10.1242 24.0699 9.4059 24.7194 8.89057 25.4835C8.37525 26.2475 8.07732 27.1047 8.02092 27.9856V30.989C6.26311 31.8613 1.30705 30.5764 0.330484 28.0796C0.330484 30.6495 0.940839 35.523 8.02092 35.7058V39.3204C8.02092 40.9396 9.35149 41.5978 10.9872 40.7882L57.374 17.8783C58.237 17.3958 58.9553 16.7463 59.4706 15.9822C59.986 15.2182 60.2839 14.361 60.3403 13.4801V2.14009C60.3403 0.520835 59.0097 -0.142538 57.374 0.672315Z" fill="white"/>
<path d="M9.67487 41.4307C9.34566 41.4322 9.02166 41.3602 8.73493 41.2218C8.38028 41.012 8.09689 40.7255 7.91357 40.3915C7.73024 40.0576 7.65353 39.688 7.69123 39.3204V35.9879C2.58869 35.7476 0.000794389 33.0889 0.000794389 28.0797C-0.00494097 28.0084 0.0205332 27.9379 0.0722455 27.8819C0.123958 27.8258 0.198203 27.7883 0.280508 27.7765C0.362813 27.7648 0.447272 27.7797 0.517427 27.8184C0.587582 27.857 0.638403 27.9167 0.659975 27.9856C1.09333 29.0303 2.39337 30.0019 4.14508 30.5608C5.52447 30.9996 6.90998 31.0831 7.69123 30.8115V27.9856C7.75139 27.0538 8.06665 26.147 8.6116 25.3386C9.15655 24.5301 9.91592 23.8427 10.8284 23.3316L57.2152 0.421658C57.5519 0.182858 57.966 0.0379872 58.4018 0.00650041C58.8376 -0.0249863 59.2742 0.058429 59.653 0.24553C60.0318 0.432631 60.3346 0.714454 60.5207 1.05314C60.7068 1.39184 60.7673 1.77116 60.6942 2.14017V13.4802C60.634 14.4114 60.3187 15.3174 59.7737 16.125C59.2288 16.9326 58.4694 17.6191 57.557 18.1291L11.1702 41.0442C10.7194 41.2819 10.2041 41.4151 9.67487 41.4307ZM0.739324 29.2602C1.12995 33.23 3.58356 35.2984 8.06355 35.4133C8.15206 35.4161 8.23589 35.4481 8.29737 35.5026C8.35886 35.5572 8.39319 35.6301 8.39313 35.7059V39.3204C8.32063 39.5841 8.34896 39.8606 8.47395 40.1094C8.59895 40.3582 8.814 40.566 9.08743 40.7024C9.36087 40.8387 9.67823 40.8962 9.99276 40.8665C10.3073 40.8369 10.6024 40.7215 10.8345 40.5375L57.2213 17.6224C58.0342 17.168 58.7109 16.5563 59.1965 15.8368C59.6821 15.1172 59.9631 14.3099 60.0167 13.4802V2.14017C60.0873 1.87697 60.0576 1.60134 59.9319 1.35364C59.8062 1.10595 59.5912 0.899214 59.3182 0.763727C59.0452 0.62824 58.7288 0.571128 58.4151 0.60075C58.1015 0.630372 57.8071 0.745165 57.5753 0.92833L11.1885 23.8382C10.3755 24.2937 9.69884 24.9064 9.21326 25.6268C8.72769 26.3472 8.44676 27.1552 8.39313 27.9856V30.9891C8.39247 31.0407 8.37642 31.0913 8.34651 31.1361C8.3166 31.1809 8.27383 31.2184 8.22223 31.2451C7.3006 31.6995 5.61603 31.6472 3.94977 31.1092C2.70419 30.7522 1.5948 30.1133 0.739324 29.2602Z" fill="#E0E0E0"/>
<path d="M14.8139 26.669C16.9807 25.6557 18.6286 26.6272 18.4761 28.8472C18.3235 31.0671 16.4802 33.6893 14.3135 34.7026C12.1467 35.716 10.5049 34.7496 10.6513 32.5297C10.7978 30.3097 12.6533 27.6876 14.8139 26.669Z" fill="#FA00FF"/>
<g opacity="0.5">
<path d="M14.8139 26.669C16.9807 25.6557 18.6286 26.6272 18.4761 28.8472C18.3235 31.0671 16.4802 33.6893 14.3135 34.7026C12.1467 35.716 10.5049 34.7496 10.6513 32.5297C10.7978 30.3097 12.6533 27.6876 14.8139 26.669Z" fill="white"/>
</g>
<path d="M14.5272 28.1995C15.0887 27.9226 15.5404 28.1472 15.5404 28.6957C15.5208 28.9954 15.4189 29.2869 15.2428 29.5465C15.0668 29.8061 14.8216 30.0264 14.5272 30.1896C13.9718 30.4664 13.5201 30.2418 13.5201 29.6934C13.538 29.3939 13.6386 29.1024 13.8137 28.8427C13.9888 28.5831 14.2333 28.3626 14.5272 28.1995Z" fill="white"/>
<path d="M16.5168 31.3492C16.5168 30.4455 15.7722 30.0433 14.8627 30.4925L14.289 30.7746C13.8054 31.0438 13.403 31.4069 13.1145 31.8345C12.826 32.262 12.6596 32.7418 12.6288 33.2348V33.4751C12.6288 33.4751 13.0256 34.1646 14.5759 33.3759C15.4462 32.9771 16.131 32.3357 16.5168 31.5581V31.3492Z" fill="white"/>
<path d="M22.883 21.853L40.5283 13.1403C41.5353 12.618 42.3593 12.7799 42.3593 13.4537C42.3593 14.1275 41.5476 15.0782 40.5283 15.5849L22.8281 24.6527C21.8271 25.1751 20.997 24.94 20.997 24.1617C21.079 23.6776 21.2923 23.2167 21.6198 22.8158C21.9473 22.4149 22.3799 22.0851 22.883 21.853Z" fill="#455A64"/>
<path d="M22.6694 28.001L54.8715 11.9599C55.7504 11.5263 56.4645 11.6465 56.4645 12.2367C56.4645 12.8269 55.7565 13.6575 54.8776 14.1014L22.6694 30.4508C21.7905 30.8947 21.0824 30.7015 21.0824 30.0224C21.1453 29.6032 21.3215 29.2022 21.5969 28.8513C21.8724 28.5004 22.2396 28.2093 22.6694 28.001Z" fill="#E0E0E0"/>
<path d="M96.6624 6.74214L50.2757 29.6521C49.4116 30.1335 48.6925 30.7828 48.1771 31.5471C47.6616 32.3114 47.3643 33.169 47.3093 34.0502V37.8528C45.4783 38.6207 40.7236 37.3305 39.7349 34.8964C39.7349 37.4506 40.3452 42.2771 47.3093 42.5121V45.3902C47.3093 47.0095 48.6338 47.6624 50.2757 46.8528L96.6624 23.9428C97.5265 23.4614 98.2455 22.8121 98.761 22.0478C99.2764 21.2835 99.5737 20.4259 99.6287 19.5447V8.21515C99.6287 6.58544 98.3042 5.92729 96.6624 6.74214Z" fill="white"/>
<path d="M48.9633 47.4949C48.6337 47.4989 48.309 47.4267 48.0234 47.2859C47.6708 47.0759 47.3892 46.7901 47.207 46.4572C47.0248 46.1242 46.9485 45.7561 46.9858 45.3899V42.7781C43.4518 42.5797 39.4113 41.0074 39.4113 34.8856C39.4102 34.8168 39.4379 34.7501 39.4895 34.6974C39.541 34.6447 39.6129 34.6095 39.6921 34.5983C39.7726 34.5858 39.8557 34.5984 39.9262 34.6338C39.9968 34.6693 40.0501 34.7253 40.0766 34.7915C40.4794 35.7892 41.6391 36.6929 43.2626 37.2674C44.6603 37.7637 46.113 37.9047 46.9858 37.6435V34.0394C47.045 33.1073 47.3598 32.2002 47.9049 31.3917C48.4499 30.5831 49.2098 29.8958 50.123 29.3853L96.5097 6.4754C96.8623 6.2643 97.2738 6.13668 97.7025 6.10549C98.1312 6.07431 98.562 6.14064 98.9511 6.29779C99.307 6.50508 99.5911 6.79052 99.7736 7.12413C99.9562 7.45774 100.03 7.82724 99.9887 8.19389V19.5339C99.93 20.4654 99.6153 21.3719 99.0702 22.1797C98.5251 22.9875 97.7649 23.6737 96.8515 24.1828L50.4648 47.0979C50.0134 47.3401 49.4957 47.477 48.9633 47.4949ZM40.1498 36.0817C40.5405 40.0045 42.9514 42.073 47.3398 42.2192C47.4278 42.2232 47.5108 42.2556 47.5719 42.3099C47.6331 42.3642 47.6679 42.4363 47.6694 42.5117V45.3899C47.6324 45.6534 47.6772 45.9205 47.7994 46.1645C47.9216 46.4084 48.1167 46.6205 48.3652 46.7793C48.651 46.8827 48.9633 46.9208 49.2715 46.8896C49.5797 46.8585 49.8732 46.7593 50.123 46.6017L96.5097 23.6865C97.324 23.2334 98.0017 22.622 98.4875 21.9022C98.9733 21.1824 99.2534 20.3745 99.3051 19.5444V8.21479C99.3758 7.95159 99.3461 7.67596 99.2204 7.42826C99.0947 7.18057 98.8796 6.97383 98.6066 6.83835C98.3337 6.70286 98.0172 6.64575 97.7035 6.67537C97.3899 6.70499 97.0956 6.81979 96.8637 7.00295L50.477 29.9129C49.6632 30.3678 48.9861 30.9803 48.5004 31.7008C48.0148 32.4214 47.7342 33.2297 47.6816 34.0603V37.8629C47.6809 37.9177 47.6622 37.9713 47.6277 38.0175C47.5931 38.0636 47.5441 38.1006 47.4863 38.1241C46.467 38.5472 44.7153 38.4323 43.0185 37.8316C41.9078 37.4605 40.9221 36.8592 40.1498 36.0817Z" fill="#E0E0E0"/>
<path d="M54.1086 32.7648C56.2692 31.7462 57.9172 32.7178 57.7707 34.9377C57.6242 37.1577 55.7748 39.7798 53.6142 40.7932C51.4535 41.8065 49.7995 40.8402 49.9521 38.6202C50.1047 36.4003 51.9662 33.752 54.1086 32.7648Z" fill="#FA00FF"/>
<g opacity="0.5">
<path d="M54.1086 32.7648C56.2692 31.7462 57.9172 32.7178 57.7707 34.9377C57.6242 37.1577 55.7748 39.7798 53.6142 40.7932C51.4535 41.8065 49.7995 40.8402 49.9521 38.6202C50.1047 36.4003 51.9662 33.752 54.1086 32.7648Z" fill="white"/>
</g>
<path d="M53.7973 34.2641C54.3527 33.9872 54.8044 34.2118 54.8044 34.7603C54.785 35.0594 54.6838 35.3504 54.5088 35.6099C54.3339 35.8694 54.0902 36.0901 53.7973 36.2542C53.2419 36.531 52.7902 36.3064 52.7902 35.758C52.8081 35.4585 52.9087 35.167 53.0838 34.9073C53.2588 34.6476 53.5034 34.4272 53.7973 34.2641Z" fill="white"/>
<path d="M55.8053 37.4137C55.8053 36.5101 55.0668 36.1079 54.1513 36.5571L53.5775 36.8444C53.0959 37.1137 52.6951 37.4762 52.4078 37.9028C52.1204 38.3293 51.9545 38.8078 51.9235 39.2994V39.5553C51.9235 39.5553 52.3141 40.2448 53.8644 39.4561C54.7347 39.0574 55.4196 38.416 55.8053 37.6383V37.4137Z" fill="white"/>
<path d="M62.1713 27.9178L79.8227 19.1843C80.8297 18.6619 81.6537 18.8239 81.6537 19.4977C81.6537 20.1715 80.8419 21.1222 79.8227 21.6288L62.1225 30.6967C61.1215 31.219 60.2914 30.984 60.2914 30.2057C60.3763 29.7258 60.5903 29.2694 60.9166 28.8723C61.2428 28.4753 61.6723 28.1486 62.1713 27.9178Z" fill="#455A64"/>
<path d="M63.2273 37.2412C63.1826 37.2425 63.1384 37.2334 63.0991 37.2151L62.3972 36.8913L62.1958 36.8077C61.772 36.7009 61.4075 36.4665 61.1697 36.1478C60.9319 35.8291 60.8368 35.4475 60.9019 35.0735C60.8856 34.7476 60.9667 34.4235 61.1376 34.1319C61.3085 33.8404 61.5635 33.5909 61.8784 33.4072C62.0026 33.3527 62.1403 33.3244 62.2799 33.3248C62.4195 33.3252 62.557 33.3543 62.6807 33.4095C62.8045 33.4648 62.911 33.5447 62.9912 33.6424C63.0714 33.7402 63.1231 33.853 63.1419 33.9714C63.1953 33.39 63.4697 32.8396 63.9231 32.4043C64.0642 32.2962 64.2374 32.2234 64.4237 32.1939C64.6099 32.1644 64.8021 32.1794 64.979 32.2372C65.1511 32.3153 65.2952 32.4319 65.3962 32.5744C65.4972 32.7169 65.5513 32.8801 65.5528 33.0468C65.6626 34.0393 64.9424 35.0213 64.387 35.81L64.149 36.1391L63.4471 37.1524C63.4223 37.182 63.3891 37.2056 63.3506 37.2212C63.3122 37.2367 63.2698 37.2436 63.2273 37.2412Z" fill="#FA00FF"/>
<path d="M69.9653 33.9143C69.9228 33.9136 69.8811 33.9047 69.8433 33.8882L69.1414 33.5643L68.9338 33.4807C68.5087 33.3739 68.1434 33.1387 67.9055 32.8188C67.6675 32.499 67.5732 32.1162 67.6399 31.7414C67.6257 31.4165 67.7079 31.0938 67.8786 30.8034C68.0494 30.513 68.3032 30.2642 68.6164 30.0803C68.7406 30.0257 68.8783 29.9975 69.0179 29.9979C69.1575 29.9983 69.295 30.0273 69.4187 30.0826C69.5425 30.1379 69.6489 30.2177 69.7292 30.3155C69.8094 30.4132 69.8611 30.5261 69.8799 30.6444C69.9294 30.0545 70.2039 29.4948 70.6611 29.0513C70.8029 28.9442 70.976 28.872 71.162 28.8426C71.348 28.8131 71.5398 28.8275 71.717 28.8841C71.8891 28.9636 72.0331 29.0811 72.134 29.2244C72.235 29.3678 72.2891 29.5317 72.2908 29.699C72.4006 30.6914 71.6804 31.6682 71.125 32.457L70.8869 32.7651L70.185 33.8098C70.1616 33.8416 70.1291 33.8678 70.0907 33.886C70.0524 33.9043 70.0092 33.914 69.9653 33.9143Z" fill="#FA00FF"/>
<path d="M76.7037 30.5866C76.6603 30.5867 76.6178 30.5758 76.5817 30.5553L75.8798 30.2314L75.6722 30.1478C75.2484 30.041 74.8839 29.8067 74.6461 29.488C74.4083 29.1692 74.3132 28.7877 74.3783 28.4137C74.3637 28.088 74.4456 27.7644 74.6163 27.4731C74.7871 27.1818 75.0411 26.9321 75.3549 26.7474C75.4791 26.6929 75.6167 26.6646 75.7563 26.665C75.8959 26.6654 76.0334 26.6944 76.1571 26.7497C76.2809 26.805 76.3874 26.8848 76.4676 26.9826C76.5479 27.0803 76.5995 27.1931 76.6183 27.3115C76.6717 26.7302 76.9461 26.1798 77.3996 25.7445C77.5413 25.6374 77.7145 25.5652 77.9005 25.5358C78.0864 25.5063 78.2783 25.5207 78.4554 25.5773C78.6266 25.6564 78.7701 25.7731 78.8709 25.9154C78.9718 26.0577 79.0264 26.2205 79.0292 26.387C79.139 27.3794 78.4188 28.3614 77.8634 29.1502L77.6254 29.4792L76.9235 30.4978C76.8983 30.527 76.865 30.5504 76.8267 30.5659C76.7883 30.5814 76.7461 30.5885 76.7037 30.5866Z" fill="#FA00FF"/>
</svg>
