<svg width="25" height="62" viewBox="0 0 25 62" fill="none" xmlns="http://www.w3.org/2000/svg">
<path d="M0.473255 62.0002C0.343836 61.8006 0.245251 61.5803 0.181227 61.3477C-0.0134238 60.6697 -0.0519426 59.9519 0.0689108 59.2547C0.261848 58.1591 0.672877 57.1199 1.27446 56.2068C1.9334 55.1246 2.86189 54.0264 3.63314 52.6497C4.43356 51.1275 4.85134 49.4117 4.84618 47.668C4.83218 45.6549 4.6921 43.6451 4.42686 41.6518C4.11045 39.4107 4.19684 37.1262 4.68145 34.9194C5.35083 32.5809 6.57577 30.465 8.2382 28.7759C9.86427 27.0982 11.5873 25.5301 13.3974 24.0807C15.0702 22.7223 16.6515 21.2412 18.1297 19.6481C20.9377 16.6241 22.9893 13.3693 23.8804 10.2896C24.2852 8.91172 24.5365 7.48814 24.6292 6.04803C24.6881 4.95777 24.6681 3.86432 24.5693 2.77732C24.5244 2.33168 24.4869 1.94173 24.4495 1.59159C24.412 1.24144 24.3596 0.962912 24.3222 0.724174L24.2473 0.183041C24.239 0.122349 24.239 0.0606923 24.2473 0C24.2726 0.0553578 24.2903 0.114331 24.2997 0.175075L24.412 0.708255C24.457 0.946993 24.5169 1.23348 24.5768 1.56771C24.6367 1.90195 24.6816 2.31576 24.734 2.7614C24.8593 3.85688 24.9018 4.96126 24.8613 6.06395C24.7883 7.52624 24.5521 8.97413 24.1575 10.3771C23.2889 13.5205 21.2222 16.8469 18.4068 19.9267C16.9374 21.5384 15.3609 23.0357 13.6894 24.407C11.8813 25.8478 10.156 27.4024 8.52274 29.0624C6.90391 30.7038 5.70775 32.7586 5.04836 35.0308C4.57496 37.1879 4.48607 39.4201 4.78628 41.612C5.04036 43.6248 5.17042 45.6531 5.17565 47.6839C5.16759 49.4768 4.72947 51.238 3.90271 52.8008C3.09402 54.2014 2.15054 55.2758 1.48412 56.3421C0.885901 57.2227 0.465279 58.2251 0.248618 59.2866C0.11152 59.9595 0.12434 60.6571 0.286057 61.3238C0.375912 61.7774 0.495718 61.9923 0.473255 62.0002Z" fill="#455A64"/>
</svg>
