<svg width="17" height="12" viewBox="0 0 17 12" fill="none" xmlns="http://www.w3.org/2000/svg">
<path d="M0.687348 11.4012C0.511418 11.0685 0.31997 10.7469 0.118168 10.4253C0.0668991 10.3503 0.0311121 10.2646 0.0131888 10.1737C-0.00473461 10.0828 -0.00438712 9.98879 0.0142152 9.89804C0.0328175 9.80728 0.0692462 9.72181 0.121073 9.64732C0.1729 9.57283 0.238935 9.51102 0.31479 9.466L15.4448 0.106026C15.6036 0.00570995 15.7924 -0.0249206 15.9718 0.0205529C16.1512 0.0660264 16.3072 0.184082 16.4072 0.350008C16.5883 0.666073 16.7642 1.00432 16.9246 1.35365C17.0063 1.53079 17.0223 1.73446 16.9695 1.92374C16.9167 2.11302 16.799 2.27386 16.6401 2.37393L1.59287 11.6785C1.51671 11.7252 1.43258 11.7552 1.34544 11.7666C1.2583 11.7779 1.16991 11.7705 1.0855 11.7446C1.0011 11.7188 0.922383 11.6751 0.853999 11.6161C0.785614 11.5571 0.728945 11.484 0.687348 11.4012Z" fill="#407BFF"/>
</svg>
