<svg width="46" height="91" viewBox="0 0 46 91" fill="none" xmlns="http://www.w3.org/2000/svg">
<path d="M44.087 15.0503C43.0231 6.41342 35.4874 -3.00867 19.5885 0.917202L3.96289 6.29564C2.78314 6.51485 1.72355 7.19605 0.993206 8.20481C0.262858 9.21358 -0.0851964 10.4766 0.0177176 11.7447L5.81728 77.0398C6.15918 80.8593 7.82857 84.4063 10.4994 86.9877C13.1702 89.5692 16.6506 90.9999 20.2608 91.0002C22.22 90.9992 24.1588 90.5762 25.96 89.7569C27.7612 88.9376 29.3875 87.7389 30.7408 86.2331C32.0941 84.7274 33.1462 82.9459 33.8338 80.996C34.5214 79.0462 34.83 76.9685 34.7412 74.8884C34.4087 67.0367 34.1575 60.7553 34.1649 60.7553C34.1723 60.7553 44.4564 58.1799 45.6976 43.5993C46.3403 36.3678 45.2617 24.6216 44.087 15.0503Z" fill="#FFBE9D"/>
</svg>
