<svg width="61" height="57" viewBox="0 0 61 57" fill="none" xmlns="http://www.w3.org/2000/svg">
<path d="M44.3398 0.294822C44.8183 0.0779217 45.3571 -0.0225776 45.8977 0.00425318C46.4382 0.031084 46.9598 0.184223 47.4058 0.447009C49.8953 1.67496 51.9188 5.22763 51.9188 8.36574V15.7597C51.9188 15.8488 51.8775 15.9342 51.8039 15.9972C51.7303 16.0602 51.6305 16.0956 51.5264 16.0956C51.4223 16.0956 51.3225 16.0602 51.2489 15.9972C51.1753 15.9342 51.1339 15.8488 51.1339 15.7597V8.36574C51.1339 5.44279 49.2944 2.1525 47.0133 1.019C46.6913 0.820457 46.3117 0.701296 45.916 0.674464C45.5204 0.647633 45.1237 0.714154 44.7691 0.866816C43.8309 1.32861 43.2913 2.5041 43.2913 4.08889V11.4356C43.2913 11.5247 43.2499 11.6101 43.1763 11.6731C43.1027 11.7361 43.0029 11.7715 42.8988 11.7715C42.7948 11.7715 42.695 11.7361 42.6214 11.6731C42.5478 11.6101 42.5064 11.5247 42.5064 11.4356V4.08889C42.4758 2.26795 43.1564 0.877313 44.3398 0.294822Z" fill="#263238"/>
<path d="M25.0427 42.6908L27.4586 7.1431L34.3876 3.73212L36.6564 36.9498L25.0427 42.6908Z" fill="#FA00FF"/>
<path opacity="0.4" d="M25.0427 42.6908L27.4586 7.1431L34.3876 3.73212L36.6564 36.9498L25.0427 42.6908Z" fill="white"/>
<path d="M58.7251 15.7598L61 48.9775L36.6566 36.9498L34.3878 3.73212L58.7251 15.7598Z" fill="#FA00FF"/>
<path opacity="0.3" d="M58.7251 15.7598L61 48.9775L36.6566 36.9498L34.3878 3.73212L58.7251 15.7598Z" fill="white"/>
<path opacity="0.05" d="M58.7251 15.7598L61 48.9775L36.6566 36.9498L34.3878 3.73212L58.7251 15.7598Z" fill="black"/>
<path d="M58.7248 15.7597L51.7958 19.1707L49.3799 54.7184L60.9997 48.9775L58.7248 15.7597Z" fill="#FA00FF"/>
<path opacity="0.55" d="M58.7248 15.7597L51.7958 19.1707L49.3799 54.7184L60.9997 48.9775L58.7248 15.7597Z" fill="white"/>
<path opacity="0.2" d="M49.3799 54.7182L54.3712 48.7148L54.9967 27.7662L55.6221 48.3528L60.9997 48.9772L49.3799 54.7182Z" fill="#FA00FF"/>
<path opacity="0.05" d="M49.3799 54.7182L54.3712 48.7148L54.9967 27.7662L55.6221 48.3528L60.9997 48.9772L49.3799 54.7182Z" fill="black"/>
<path d="M25.0368 42.6908L49.3802 54.7184L51.7962 19.1707L27.4588 7.14307L25.0368 42.6908ZM43.6837 18.7142C43.6837 18.2366 44.07 18.0425 44.5544 18.2786C44.8063 18.4199 45.0158 18.6098 45.166 18.8332C45.3162 19.0565 45.4029 19.307 45.419 19.5643C45.419 20.0418 45.0327 20.236 44.5544 19.9999C44.2997 19.8608 44.0877 19.6714 43.9362 19.4477C43.7847 19.224 43.6981 18.9724 43.6837 18.7142ZM35.0562 14.4216C35.0562 13.9388 35.4425 13.7446 35.9269 13.9808C36.1794 14.1232 36.3895 14.314 36.5407 14.5381C36.6918 14.7622 36.7798 15.0134 36.7977 15.2717C36.7977 15.744 36.4052 15.9434 35.9269 15.7073C35.6722 15.5682 35.4602 15.3788 35.3087 15.1551C35.1572 14.9314 35.0706 14.6799 35.0562 14.4216Z" fill="#FA00FF"/>
<path opacity="0.7" d="M25.0368 42.6908L49.3802 54.7184L51.7962 19.1707L27.4588 7.14307L25.0368 42.6908ZM43.6837 18.7142C43.6837 18.2366 44.07 18.0425 44.5544 18.2786C44.8063 18.4199 45.0158 18.6098 45.166 18.8332C45.3162 19.0565 45.4029 19.307 45.419 19.5643C45.419 20.0418 45.0327 20.236 44.5544 19.9999C44.2997 19.8608 44.0877 19.6714 43.9362 19.4477C43.7847 19.224 43.6981 18.9724 43.6837 18.7142ZM35.0562 14.4216C35.0562 13.9388 35.4425 13.7446 35.9269 13.9808C36.1794 14.1232 36.3895 14.314 36.5407 14.5381C36.6918 14.7622 36.7798 15.0134 36.7977 15.2717C36.7977 15.744 36.4052 15.9434 35.9269 15.7073C35.6722 15.5682 35.4602 15.3788 35.3087 15.1551C35.1572 14.9314 35.0706 14.6799 35.0562 14.4216Z" fill="white"/>
<path d="M37.3983 3.6742C37.8768 3.4573 38.4156 3.3568 38.9561 3.38363C39.4967 3.41046 40.0183 3.5636 40.4642 3.82639C42.9538 5.05434 44.9773 8.60701 44.9773 11.7451V19.1391C44.9773 19.2281 44.9359 19.3136 44.8623 19.3766C44.7887 19.4395 44.6889 19.4749 44.5848 19.4749C44.4807 19.4749 44.3809 19.4395 44.3073 19.3766C44.2337 19.3136 44.1924 19.2281 44.1924 19.1391V11.7451C44.1924 8.82216 42.3528 5.53188 40.0718 4.39838C39.7488 4.19938 39.3682 4.07997 38.9715 4.05314C38.5747 4.02631 38.1769 4.09307 37.8214 4.24619C36.8894 4.70799 36.3498 5.88348 36.3498 7.47352V14.8203C36.3498 14.9093 36.3084 14.9948 36.2348 15.0577C36.1612 15.1207 36.0614 15.1561 35.9573 15.1561C35.8532 15.1561 35.7534 15.1207 35.6798 15.0577C35.6062 14.9948 35.5649 14.9093 35.5649 14.8203V7.47352C35.5342 5.66308 36.2149 4.26194 37.3983 3.6742Z" fill="#37474F"/>
<path d="M16.8447 9.27867C17.2582 9.09396 17.7226 9.00906 18.1882 9.0331C18.6538 9.05713 19.103 9.18919 19.4875 9.41509C21.6582 10.4646 23.4242 13.6132 23.4242 16.321V22.7756C23.4307 22.8172 23.4268 22.8594 23.4127 22.8996C23.3986 22.9397 23.3746 22.9768 23.3423 23.0083C23.3101 23.0398 23.2704 23.0651 23.2258 23.0824C23.1812 23.0997 23.1328 23.1087 23.0838 23.1087C23.0349 23.1087 22.9865 23.0997 22.9419 23.0824C22.8973 23.0651 22.8576 23.0398 22.8254 23.0083C22.7931 22.9768 22.7692 22.9397 22.755 22.8996C22.7409 22.8594 22.737 22.8172 22.7435 22.7756V16.321C22.7435 13.7707 21.1309 10.9002 19.1503 9.91887C18.8666 9.74698 18.5338 9.64404 18.1873 9.62095C17.8407 9.59785 17.4933 9.65545 17.1819 9.78767C16.3664 10.1917 15.9004 11.215 15.9004 12.6004V19.0288C15.8988 19.1063 15.8621 19.1803 15.7981 19.2351C15.734 19.2899 15.6476 19.3213 15.557 19.3227C15.4664 19.3213 15.38 19.2899 15.3159 19.2351C15.2519 19.1803 15.2152 19.1063 15.2136 19.0288V12.6004C15.2197 10.9999 15.8145 9.79294 16.8447 9.27867Z" fill="#263238"/>
<path d="M0 46.2803L2.1155 15.2614L8.15536 12.2807L10.1421 41.2741L0 46.2803Z" fill="#FA00FF"/>
<path opacity="0.2" d="M0 46.2803L2.1155 15.2614L8.15536 12.2807L10.1421 41.2741L0 46.2803Z" fill="black"/>
<path d="M29.4025 22.776L31.3831 51.7694L10.1424 41.2741L8.15565 12.2807L29.4025 22.776Z" fill="#FA00FF"/>
<path opacity="0.3" d="M29.4025 22.776L31.3831 51.7694L10.1424 41.2741L8.15565 12.2807L29.4025 22.776Z" fill="black"/>
<path d="M29.4025 22.776L23.3565 25.7567L21.241 56.7757L31.3831 51.7694L29.4025 22.776Z" fill="#FA00FF"/>
<path opacity="0.15" d="M29.4025 22.776L23.3565 25.7567L21.241 56.7757L31.3831 51.7694L29.4025 22.776Z" fill="black"/>
<path opacity="0.15" d="M21.241 56.7756L25.6007 51.5384L26.1465 33.2556L26.6922 51.2236L31.3831 51.7693L21.241 56.7756Z" fill="black"/>
<path d="M0 46.2802L21.2407 56.7756L23.3562 25.7514L2.1155 15.256L0 46.2802ZM16.2739 25.3578C16.2739 24.938 16.6112 24.7701 17.0281 24.9747C17.2499 25.0968 17.4345 25.2624 17.5668 25.4577C17.699 25.6529 17.775 25.8723 17.7885 26.0977C17.7885 26.5123 17.4512 26.6855 17.0281 26.4808C16.8079 26.3578 16.6247 26.1919 16.4936 25.9967C16.3626 25.8016 16.2873 25.5826 16.2739 25.3578ZM8.74403 21.6057C8.74403 21.1912 9.08127 21.018 9.50437 21.2279C9.72466 21.3509 9.90783 21.5168 10.0389 21.712C10.17 21.9071 10.2453 22.1261 10.2586 22.3509C10.2586 22.7654 9.92134 22.9334 9.50437 22.734C9.28179 22.6113 9.09667 22.445 8.96441 22.2487C8.83215 22.0525 8.75659 21.832 8.74403 21.6057Z" fill="#FA00FF"/>
<path d="M10.7861 12.2282C11.2007 12.0436 11.6661 11.9587 12.1327 11.9828C12.5992 12.0068 13.0493 12.1388 13.4351 12.3646C15.6058 13.4141 17.3717 16.5627 17.3717 19.2705V25.7252C17.3717 25.8031 17.3356 25.8778 17.2712 25.933C17.2068 25.9881 17.1194 26.019 17.0283 26.019C16.9378 26.0177 16.8513 25.9863 16.7873 25.9315C16.7232 25.8766 16.6865 25.8027 16.685 25.7252V19.2705C16.685 16.7202 15.0784 13.8497 13.0917 12.8736C12.8101 12.7003 12.4785 12.596 12.1328 12.572C11.787 12.5479 11.4401 12.6051 11.1295 12.7372C10.314 13.1413 9.84181 14.1698 9.84181 15.5552V21.9783C9.84834 22.0199 9.84441 22.0621 9.8303 22.1022C9.81619 22.1423 9.79223 22.1794 9.76 22.211C9.72777 22.2425 9.68801 22.2678 9.64343 22.2851C9.59885 22.3024 9.55046 22.3114 9.50149 22.3114C9.45253 22.3114 9.40414 22.3024 9.35956 22.2851C9.31497 22.2678 9.27524 22.2425 9.24301 22.211C9.21078 22.1794 9.1868 22.1423 9.17269 22.1022C9.15858 22.0621 9.15465 22.0199 9.16118 21.9783V15.5552C9.16118 13.9546 9.75597 12.7424 10.7861 12.2282Z" fill="#37474F"/>
</svg>
