<svg width="12" height="5" viewBox="0 0 12 5" fill="none" xmlns="http://www.w3.org/2000/svg">
<path d="M12.0001 3.11964C11.8526 3.24374 11.6928 3.35209 11.5232 3.44297C11.0663 3.70313 10.5876 3.92243 10.0926 4.09835C8.44659 4.68224 6.67983 4.83264 4.95992 4.53528C4.01344 4.37196 3.09607 4.06867 2.2375 3.63521C1.52236 3.29098 0.910566 2.7618 0.464455 2.10161C0.170378 1.64914 0.00954304 1.12194 0.000599029 0.581111C-0.00323328 0.434211 0.0113345 0.287411 0.0439524 0.144186C0.0656278 0.0480625 0.0829617 0 0.0916319 0C0.100302 0 0.0612864 0.209723 0.0916319 0.57237C0.133156 1.08866 0.309654 1.58465 0.603167 2.00985C1.31412 3.11964 3.05249 3.95854 4.99894 4.30808C6.68586 4.59425 8.41628 4.46839 10.045 3.94106C10.7124 3.70688 11.3652 3.43258 12.0001 3.11964Z" fill="#455A64"/>
</svg>
