<svg width="35" height="41" viewBox="0 0 35 41" fill="none" xmlns="http://www.w3.org/2000/svg">
<path d="M12.4898 0.479858C12.4898 0.479858 13.5681 0.142377 22.7183 0H25.337C25.337 0 31.1784 4.58244 32.3429 6.32788C33.5075 8.07333 37.0936 12.0124 32.725 17.6442L32.1088 28.5757L34.7768 35.1461C34.7768 35.1461 34.9247 39.9659 26.6002 40.8834C18.2757 41.801 8.91602 37.0023 8.91602 37.0023C6.14549 38.2428 3.11506 39.001 0 39.2329C0.377717 37.1463 0.900332 35.0808 1.56508 33.0474C3.22258 28.5018 4.9109 27.4525 5.05878 25.2535C5.20666 23.0546 4.02361 18.0925 4.02361 18.0925C4.02361 18.0925 8.39844 17.3859 9.32886 12.7454C10.01 9.06238 9.29071 5.28949 7.277 1.98273L12.4898 0.479858Z" fill="#F0F0F0"/>
</svg>
