<svg width="10" height="8" viewBox="0 0 10 8" fill="none" xmlns="http://www.w3.org/2000/svg">
<path d="M9.71939 0.357125C9.54165 0.128388 9.30122 0 9.05061 0C8.8 0 8.55957 0.128388 8.38183 0.357125L4.97628 4.70463L1.61816 0.357125C1.44042 0.128388 1.19999 0 0.949379 0C0.698767 0 0.458337 0.128388 0.280601 0.357125C0.191688 0.471293 0.121116 0.607123 0.0729554 0.75678C0.0247951 0.906436 0 1.06696 0 1.22908C0 1.39121 0.0247951 1.55173 0.0729554 1.70138C0.121116 1.85104 0.191688 1.98687 0.280601 2.10104L4.30276 7.30822C4.39094 7.42333 4.49586 7.51469 4.61146 7.57704C4.72706 7.63939 4.85105 7.67149 4.97628 7.67149C5.10151 7.67149 5.2255 7.63939 5.3411 7.57704C5.45669 7.51469 5.56161 7.42333 5.6498 7.30822L9.71939 2.10104C9.8083 1.98687 9.87887 1.85104 9.92703 1.70138C9.97519 1.55173 9.99999 1.39121 9.99999 1.22908C9.99999 1.06696 9.97519 0.906436 9.92703 0.75678C9.87887 0.607123 9.8083 0.471293 9.71939 0.357125Z" fill="black"/>
</svg>
