<svg width="37" height="25" viewBox="0 0 37 25" fill="none" xmlns="http://www.w3.org/2000/svg">
<path d="M0.0359866 23.089C0.143361 23.4561 0.250739 23.8178 0.342774 24.1849C0.362193 24.267 0.399107 24.3432 0.450628 24.4074C0.50215 24.4717 0.566874 24.5222 0.639708 24.5552C0.712543 24.5881 0.791511 24.6024 0.870404 24.5971C0.949297 24.5918 1.02596 24.567 1.09439 24.5246L36.5638 2.58008C36.7266 2.4715 36.8538 2.31142 36.928 2.12198C37.0022 1.93255 37.0197 1.72311 36.978 1.52259C36.8808 1.14452 36.7786 0.777404 36.6763 0.42673C36.6576 0.338454 36.6188 0.256514 36.5634 0.188232C36.5079 0.11995 36.4375 0.0674523 36.3585 0.0354316C36.2795 0.00341083 36.1944 -0.00713874 36.1106 0.00473099C36.0269 0.0166007 35.9472 0.0505054 35.8787 0.103438L0.399011 22.048C0.240903 22.1554 0.119876 22.3152 0.0543445 22.5032C-0.0111874 22.6911 -0.0176326 22.8968 0.0359866 23.089Z" fill="#407BFF"/>
</svg>
