<svg width="3" height="8" viewBox="0 0 3 8" fill="none" xmlns="http://www.w3.org/2000/svg">
<path d="M1.67111 7.99901C1.99786 7.29448 2.25856 6.55748 2.44945 5.79866C2.6386 4.8823 2.63915 3.93333 2.45107 3.01672C2.26299 2.10011 1.89073 1.23752 1.35977 0.488044H1.66333L1.60106 0.562514C0.956321 1.34259 0.539751 2.30563 0.402421 3.33361C0.300645 4.17203 0.394191 5.02419 0.674839 5.8152C0.938849 6.56288 1.2726 7.28063 1.67111 7.95766C1.08778 7.43272 0.649321 6.74945 0.402421 5.98065C0.0656087 5.14427 -0.0630526 4.22986 0.0288158 3.32535C0.156994 2.20729 0.602197 1.15711 1.30529 0.314339L1.39869 0.190265L1.56214 0L1.71003 0.206799C2.34463 1.08142 2.75494 2.11602 2.90089 3.20953C3.02268 4.09289 2.97502 4.99331 2.76079 5.85657C2.6217 6.4423 2.39574 7.00076 2.09142 7.51097C1.84235 7.85012 1.68668 8.01556 1.67111 7.99901Z" fill="#FAFAFA"/>
</svg>
