<svg width="6" height="5" viewBox="0 0 6 5" fill="none" xmlns="http://www.w3.org/2000/svg">
<path d="M5.76657 1.22886C5.36159 0.756611 4.85019 0.401668 4.28051 0.197458C3.71083 -0.00675254 3.10161 -0.0535098 2.51023 0.0615777C2.07973 0.134067 1.66742 0.298098 1.29795 0.543863C0.928487 0.789627 0.609464 1.11207 0.35997 1.4919C0.125502 1.85482 0 2.28472 0 2.72495C0 3.16517 0.125502 3.59507 0.35997 3.95799C0.697655 4.31133 1.12736 4.54881 1.59347 4.63967C2.05958 4.73054 2.54062 4.67062 2.97432 4.46766C3.88121 4.06888 4.70423 3.48203 5.3953 2.74139C5.60491 2.55822 5.78064 2.33522 5.91353 2.08376C5.97735 1.96413 6.00696 1.82731 5.99871 1.69006C5.99047 1.55281 5.94474 1.42109 5.86712 1.31105" fill="#EB996E"/>
</svg>
