<svg width="12" height="10" viewBox="0 0 12 10" fill="none" xmlns="http://www.w3.org/2000/svg">
<path d="M0 9.72857C0.0149352 9.49425 0.0556907 9.2628 0.121359 9.03933C0.268135 8.4194 0.464952 7.81519 0.709459 7.23393C1.50541 5.29126 2.74623 3.61017 4.31004 2.35578C5.87385 1.10139 7.70686 0.316834 9.62902 0.079198C10.205 0.00165108 10.786 -0.0190029 11.3653 0.0174775C11.5792 0.020253 11.7922 0.0495763 12.0001 0.10491C11.2201 0.10977 10.4409 0.163019 9.66636 0.264375C7.7879 0.549847 6.00258 1.34254 4.46924 2.57194C2.93589 3.80134 1.70206 5.42932 0.877489 7.31108C0.546063 8.09907 0.253146 8.90606 0 9.72857Z" fill="#263238"/>
</svg>
