<svg width="14" height="19" viewBox="0 0 14 19" fill="none" xmlns="http://www.w3.org/2000/svg">
<path d="M3.49053 18.9996C2.794 19.009 2.10781 18.8186 1.50306 18.4482C0.898318 18.0777 0.397043 17.5407 0.0511705 16.8927C0.0178723 16.842 0 16.7815 0 16.7195C0 16.6575 0.0178723 16.597 0.0511705 16.5463L6.26745 8.0959L12.7381 0.105483C12.7678 0.0668151 12.8064 0.0370736 12.8501 0.0191568C12.8937 0.00123988 12.941 -0.00423557 12.9872 0.00326418C13.0325 0.00972404 13.0756 0.0281542 13.1126 0.0569038C13.1496 0.0856534 13.1794 0.123824 13.1992 0.167961C13.6876 1.33052 13.9249 2.59619 13.8934 3.87069C13.8934 9.16923 10.6342 15.5014 6.62782 17.9774C5.68342 18.6062 4.6017 18.9587 3.49053 18.9996ZM0.634101 16.728C1.84768 18.6532 3.97808 18.9201 6.36815 17.4379C10.2209 15.0584 13.3529 8.9591 13.3529 3.84797C13.3723 2.82104 13.216 1.79899 12.8918 0.832399L6.71791 8.45368L0.634101 16.728Z" fill="white"/>
</svg>
