<svg width="22" height="105" viewBox="0 0 22 105" fill="none" xmlns="http://www.w3.org/2000/svg">
<path d="M20.5039 84.5562C20.3191 84.4649 20.1095 84.4168 19.8961 84.4168C19.6826 84.4168 19.473 84.4649 19.2882 84.5562L10.8386 88.7181V4.31075C10.8387 3.9163 10.9602 3.52883 11.1907 3.18728C11.4212 2.84572 11.7527 2.5621 12.1519 2.36493C12.5511 2.16776 13.0039 2.06397 13.4648 2.06399C13.9257 2.06402 14.3785 2.16787 14.7777 2.36509L15.9935 0.575496C15.227 0.197989 14.358 -0.000473748 13.4736 8.49205e-07C12.5893 0.000475446 11.7206 0.199873 10.9547 0.578203C10.1887 0.956532 9.55245 1.5005 9.10958 2.1556C8.66672 2.8107 8.43284 3.55391 8.43137 4.31075V89.925L0.607884 93.7955C0.424136 93.8863 0.271358 94.0167 0.164716 94.1736C0.0580736 94.3306 0.00128065 94.5087 0 94.6903V104.403C0.0106067 104.493 0.0487578 104.58 0.110621 104.654C0.172483 104.728 0.255907 104.787 0.352583 104.824C0.61704 104.94 0.909735 105 1.20666 105C1.50359 105 1.79628 104.94 2.06074 104.824C2.15855 104.787 2.24322 104.729 2.30619 104.655C2.36916 104.581 2.40821 104.494 2.41939 104.403V95.2886L18.6924 87.2354V95.1429C18.703 95.2334 18.7412 95.3199 18.8031 95.3939C18.8649 95.4678 18.9484 95.5266 19.045 95.5643C19.3095 95.6799 19.6022 95.7401 19.8991 95.7401C20.196 95.7401 20.4887 95.6799 20.7532 95.5643C20.8499 95.5266 20.9333 95.4678 20.9951 95.3939C21.057 95.3199 21.0951 95.2334 21.1057 95.1429V85.451C21.1051 85.27 21.0492 85.0922 20.9437 84.9352C20.8381 84.7783 20.6866 84.6477 20.5039 84.5562Z" fill="#F0F0F0"/>
</svg>
