<svg width="5" height="3" viewBox="0 0 5 3" fill="none" xmlns="http://www.w3.org/2000/svg">
<path d="M4.73495 3.00007C4.46522 2.7987 4.24011 2.54286 4.074 2.24887C3.87084 1.9523 3.69807 1.63571 3.55837 1.30396C3.47448 1.10641 3.40094 0.904552 3.33805 0.699227C3.33062 0.658958 3.31463 0.620789 3.29116 0.58735C3.26769 0.55391 3.23732 0.525992 3.20212 0.50552C3.10666 0.472516 3.00743 0.451882 2.9068 0.444106C2.26461 0.359065 1.65521 0.250396 1.16771 0.203151H1.20052C1.0248 0.304378 0.866501 0.433618 0.731765 0.585843C0.595826 0.727579 0.478632 0.850414 0.375506 0.944904C0.169253 1.14333 0.00988104 1.21893 0.000505902 1.1953C-0.00886923 1.17168 0.113015 1.08192 0.286455 0.864588L0.609884 0.472452C0.750203 0.279718 0.929064 0.118772 1.1349 0H1.16771C1.6974 0.0283471 2.28804 0.122839 2.93493 0.20788C3.06202 0.216548 3.18696 0.24524 3.30524 0.292918C3.36786 0.328008 3.42292 0.375333 3.46719 0.432117C3.51145 0.488902 3.54405 0.554005 3.56306 0.623633C3.62869 0.845685 3.68493 1.03467 3.75993 1.22365C3.89036 1.55097 4.04713 1.86699 4.22869 2.16855C4.54275 2.6788 4.76308 2.97172 4.73495 3.00007Z" fill="#EB996E"/>
</svg>
