<svg width="50" height="50" viewBox="0 0 50 50" fill="none" xmlns="http://www.w3.org/2000/svg">
<path d="M42.2228 23.5271L25.5561 6.86046C25.2647 6.56919 24.8936 6.37084 24.4895 6.2905C24.0854 6.21015 23.6666 6.2514 23.286 6.40905C22.9053 6.56669 22.58 6.83365 22.3511 7.17617C22.1222 7.51869 21.9999 7.9214 21.9998 8.33338V15.7188C16.3088 16.2454 11.0191 18.8768 7.16586 23.098C3.31266 27.3192 1.17332 32.8263 1.1665 38.5417V41.6667C1.16683 42.0992 1.30173 42.5208 1.55249 42.8731C1.80325 43.2255 2.15744 43.491 2.56593 43.633C2.97442 43.775 3.41697 43.7863 3.83219 43.6654C4.24741 43.5445 4.61472 43.2974 4.88317 42.9584C6.92421 40.5312 9.4285 38.5351 12.2497 37.0868C15.0709 35.6384 18.1525 34.7668 21.3144 34.523C21.4186 34.5105 21.679 34.4896 21.9998 34.4688V41.6667C21.9999 42.0787 22.1222 42.4814 22.3511 42.8239C22.58 43.1664 22.9053 43.4334 23.286 43.591C23.6666 43.7487 24.0854 43.7899 24.4895 43.7096C24.8936 43.6292 25.2647 43.4309 25.5561 43.1396L42.2228 26.473C42.6133 26.0823 42.8327 25.5525 42.8327 25C42.8327 24.4476 42.6133 23.9178 42.2228 23.5271ZM26.1665 36.6375V32.2917C26.1665 31.7392 25.947 31.2093 25.5563 30.8186C25.1656 30.4279 24.6357 30.2084 24.0832 30.2084C23.5519 30.2084 21.3832 30.3125 20.829 30.3855C15.2141 30.9028 9.86946 33.0361 5.4415 36.5271C5.9441 31.9322 8.12388 27.6841 11.5635 24.5962C15.0031 21.5083 19.4608 19.7976 24.0832 19.7917C24.6357 19.7917 25.1656 19.5722 25.5563 19.1815C25.947 18.7908 26.1665 18.2609 26.1665 17.7084V13.3625L37.804 25L26.1665 36.6375Z" fill="white"/>
</svg>
