<svg width="37" height="24" viewBox="0 0 37 24" fill="none" xmlns="http://www.w3.org/2000/svg">
<path d="M31.8094 7.81686C31.5073 8.61796 31.1233 9.37854 30.665 10.0839C30.0951 10.8297 28.2338 11.87 28.0869 13.2881C27.9399 14.7062 28.2427 18.0332 26.2301 20.5652C24.9327 22.1401 23.2909 23.3227 21.4612 24L13.5219 23.1462L0.840386 17.6455C0.556957 17.5666 0.313083 17.3679 0.16145 17.0925C0.00981706 16.817 -0.0374053 16.4869 0.0299785 16.1734C0.10857 15.8326 0.277688 15.5254 0.515668 15.2911C0.753648 15.0568 1.04966 14.9061 1.36581 14.8584L1.66859 14.8044C1.66859 14.8044 0.93835 14.1468 1.98475 12.9937C2.8753 12.0123 4.77664 12.5668 5.75625 12.925C6.73585 13.2832 12.4799 15.9281 13.5085 16.3354C14.4213 16.6936 15.1249 17.0125 15.1249 17.0125C15.1249 17.0125 7.77334 11.5461 7.67093 10.8297C7.55071 9.97101 7.63086 9.57846 8.38338 8.97981C9.27393 8.2683 10.7344 9.02888 12.1504 9.68641C13.2057 10.1771 19.9339 13.8377 19.9339 13.8377C19.9339 13.8377 20.2366 13.5138 19.9339 12.8563C19.6311 12.1988 17.3958 9.02887 17.044 8.44004C16.6922 7.8512 16.5987 7.51753 16.9505 7.02193C17.4403 6.32023 18.7316 5.98655 19.9205 7.18385C20.673 7.94934 23.3491 9.93176 23.3491 9.93176L35.7011 5.74621e-05C35.7011 5.74621e-05 37.2373 -0.0441045 36.703 2.31615C36.1687 4.6764 31.8094 7.81686 31.8094 7.81686Z" fill="#FFBE9D"/>
</svg>
