<svg width="37" height="24" viewBox="0 0 37 24" fill="none" xmlns="http://www.w3.org/2000/svg">
<path opacity="0.4" d="M36.5401 0C36.4893 0 36.4406 0.02164 36.4046 0.0601612C36.3687 0.0986824 36.3485 0.150932 36.3485 0.205409V1.18379L33.6448 2.85407V2.12433C33.6374 2.07625 33.6144 2.03255 33.5797 2.00101C33.5451 1.96946 33.5011 1.95215 33.4556 1.95215C33.4102 1.95215 33.3662 1.96946 33.3315 2.00101C33.2969 2.03255 33.2738 2.07625 33.2665 2.12433V3.08651L30.5628 4.76219V4.04327C30.5673 4.01388 30.5658 3.98378 30.5583 3.95508C30.5509 3.92638 30.5377 3.89977 30.5198 3.87707C30.5018 3.85437 30.4794 3.83613 30.4541 3.82363C30.4289 3.81112 30.4015 3.80465 30.3737 3.80465C30.3459 3.80465 30.3184 3.81112 30.2932 3.82363C30.2679 3.83613 30.2456 3.85437 30.2276 3.87707C30.2096 3.89977 30.1964 3.92638 30.189 3.95508C30.1815 3.98378 30.18 4.01388 30.1845 4.04327V4.99463L27.4808 6.66491V5.96219C27.4808 5.90864 27.4614 5.8572 27.4265 5.81883C27.3916 5.78046 27.3442 5.75819 27.2942 5.75678C27.2693 5.75677 27.2446 5.76213 27.2216 5.77252C27.1986 5.78291 27.1778 5.79813 27.1604 5.81728C27.143 5.83642 27.1294 5.85911 27.1203 5.884C27.1112 5.90889 27.1069 5.93548 27.1076 5.96219V6.89734L24.3989 8.57303V7.88113C24.3989 7.82809 24.3792 7.77722 24.3442 7.73971C24.3092 7.7022 24.2617 7.68113 24.2122 7.68113C24.1627 7.68113 24.1152 7.7022 24.0802 7.73971C24.0452 7.77722 24.0256 7.82809 24.0256 7.88113V8.80546L21.3169 10.4811V9.80005C21.3176 9.77359 21.3132 9.74724 21.3041 9.72264C21.2949 9.69804 21.2812 9.67569 21.2638 9.65697C21.2463 9.63824 21.2254 9.62355 21.2025 9.61376C21.1795 9.60398 21.1549 9.59931 21.1302 9.60006C21.1057 9.60006 21.0814 9.60523 21.0588 9.61528C21.0362 9.62533 21.0156 9.64006 20.9983 9.65863C20.9809 9.67721 20.9672 9.69925 20.9578 9.72351C20.9484 9.74778 20.9436 9.77379 20.9436 9.80005V10.7136L18.2298 12.3839V11.719C18.2225 11.6709 18.1994 11.6272 18.1648 11.5957C18.1301 11.5641 18.0861 11.5468 18.0407 11.5468C17.9952 11.5468 17.9512 11.5641 17.9166 11.5957C17.8819 11.6272 17.8589 11.6709 17.8515 11.719V12.6163L15.1479 14.292V13.6379C15.1405 13.5898 15.1174 13.5461 15.0828 13.5146C15.0481 13.483 15.0042 13.4657 14.9587 13.4657C14.9132 13.4657 14.8692 13.483 14.8346 13.5146C14.7999 13.5461 14.7769 13.5898 14.7695 13.6379V14.5244L12.0659 16.1947V15.5785C12.0585 15.5304 12.0355 15.4867 12.0008 15.4551C11.9662 15.4236 11.9222 15.4063 11.8767 15.4063C11.8312 15.4063 11.7873 15.4236 11.7526 15.4551C11.718 15.4867 11.6949 15.5304 11.6876 15.5785V16.4487L8.98389 18.1244V17.4974C8.97654 17.4493 8.95347 17.4056 8.91882 17.3741C8.88417 17.3425 8.8402 17.3252 8.79473 17.3252C8.74927 17.3252 8.70528 17.3425 8.67063 17.3741C8.63598 17.4056 8.61293 17.4493 8.60558 17.4974V18.3569L5.90189 20.0325V19.4163C5.89454 19.3682 5.87148 19.3245 5.83683 19.293C5.80218 19.2614 5.7582 19.2441 5.71274 19.2441C5.66727 19.2441 5.62329 19.2614 5.58864 19.293C5.55399 19.3245 5.53093 19.3682 5.52358 19.4163V20.265L2.81991 21.9353V21.3352C2.81256 21.2872 2.7895 21.2435 2.75485 21.2119C2.7202 21.1804 2.67622 21.1631 2.63075 21.1631C2.58529 21.1631 2.54131 21.1804 2.50666 21.2119C2.47201 21.2435 2.44895 21.2872 2.4416 21.3352V22.1677L0.0960646 23.6218C0.0743392 23.6347 0.0552377 23.6521 0.0398858 23.6731C0.0245338 23.694 0.0132363 23.718 0.00665873 23.7437C8.11517e-05 23.7694 -0.00164658 23.7962 0.00157886 23.8226C0.0048043 23.849 0.0129226 23.8744 0.0254466 23.8974C0.0426882 23.9284 0.0670388 23.9541 0.09618 23.972C0.125321 23.99 0.158281 23.9997 0.191905 24.0001C0.224534 23.9994 0.256187 23.9881 0.282696 23.9677L2.4416 22.6325V23.4542C2.44895 23.5023 2.47201 23.546 2.50666 23.5775C2.54131 23.6091 2.58529 23.6264 2.63075 23.6264C2.67622 23.6264 2.7202 23.6091 2.75485 23.5775C2.7895 23.546 2.81256 23.5023 2.81991 23.4542V22.4001L5.52358 20.7298V21.5244C5.53093 21.5725 5.55399 21.6162 5.58864 21.6478C5.62329 21.6793 5.66727 21.6966 5.71274 21.6966C5.7582 21.6966 5.80218 21.6793 5.83683 21.6478C5.87148 21.6162 5.89454 21.5725 5.90189 21.5244V20.4866L8.60558 18.8109V19.6055C8.61293 19.6536 8.63598 19.6973 8.67063 19.7288C8.70528 19.7604 8.74927 19.7777 8.79473 19.7777C8.8402 19.7777 8.88417 19.7604 8.91882 19.7288C8.95347 19.6973 8.97654 19.6536 8.98389 19.6055V18.5785L11.6876 16.9082V17.6866C11.6949 17.7347 11.718 17.7784 11.7526 17.8099C11.7873 17.8415 11.8312 17.8588 11.8767 17.8588C11.9222 17.8588 11.9662 17.8415 12.0008 17.8099C12.0355 17.7784 12.0585 17.7347 12.0659 17.6866V16.6596L14.7695 14.9893V15.7568C14.7769 15.8049 14.7999 15.8486 14.8346 15.8802C14.8692 15.9117 14.9132 15.929 14.9587 15.929C15.0042 15.929 15.0481 15.9117 15.0828 15.8802C15.1174 15.8486 15.1405 15.8049 15.1479 15.7568V14.7568L17.8515 13.0812V13.8379C17.8589 13.886 17.8819 13.9297 17.9166 13.9613C17.9512 13.9928 17.9952 14.0101 18.0407 14.0101C18.0861 14.0101 18.1301 13.9928 18.1648 13.9613C18.1994 13.9297 18.2225 13.886 18.2298 13.8379V12.8757L20.9335 11.2055V11.946C20.9348 11.9986 20.9548 12.0487 20.9896 12.0859C21.0243 12.1231 21.0711 12.1446 21.1201 12.146C21.1447 12.146 21.1689 12.1408 21.1916 12.1308C21.2142 12.1207 21.2348 12.106 21.2521 12.0874C21.2694 12.0689 21.2832 12.0468 21.2926 12.0226C21.302 11.9983 21.3068 11.9723 21.3068 11.946V10.973L24.0155 9.29735V10.0271C24.0155 10.0801 24.0352 10.131 24.0702 10.1685C24.1052 10.206 24.1526 10.2271 24.2021 10.2271C24.2516 10.2271 24.2991 10.206 24.3341 10.1685C24.3691 10.131 24.3888 10.0801 24.3888 10.0271V9.03789L27.0975 7.3622V8.08113C27.0975 8.13417 27.1171 8.18504 27.1521 8.22255C27.1871 8.26006 27.2346 8.28113 27.2841 8.28113C27.3332 8.27976 27.3799 8.25825 27.4147 8.22103C27.4494 8.18382 27.4695 8.13374 27.4707 8.08113V7.12977L30.1744 5.45949V6.16219C30.1818 6.21027 30.2048 6.25399 30.2395 6.28553C30.2741 6.31708 30.3181 6.33439 30.3636 6.33439C30.409 6.33439 30.453 6.31708 30.4877 6.28553C30.5223 6.25399 30.5454 6.21027 30.5527 6.16219V5.22706L33.2564 3.55137V4.22705C33.2638 4.27513 33.2868 4.31885 33.3215 4.35039C33.3561 4.38194 33.4001 4.39926 33.4456 4.39926C33.491 4.39926 33.535 4.38194 33.5696 4.35039C33.6043 4.31885 33.6274 4.27513 33.6347 4.22705V3.30273L36.3384 1.63245V2.30813C36.3457 2.35621 36.3688 2.39991 36.4035 2.43146C36.4381 2.463 36.4821 2.48032 36.5275 2.48032C36.573 2.48032 36.617 2.463 36.6516 2.43146C36.6863 2.39991 36.7093 2.35621 36.7167 2.30813V0.189193C36.7132 0.140257 36.6935 0.0942711 36.6611 0.0595673C36.6287 0.0248635 36.5858 0.00373249 36.5401 0Z" fill="black"/>
</svg>
