<svg width="3" height="2" viewBox="0 0 3 2" fill="none" xmlns="http://www.w3.org/2000/svg">
<path d="M2.66157 0.663662C2.64785 0.569242 2.61118 0.48027 2.55522 0.405541C2.49926 0.330812 2.42593 0.272917 2.34249 0.237582C2.05715 0.09578 1.74815 0.0157327 1.43347 0.00209516C1.11879 -0.0115424 0.804711 0.0415014 0.509473 0.158142C0.224336 0.280912 0.0817509 0.447007 0.068173 0.627551C0.054595 0.808094 0.00708872 1.18363 0.000299737 1.3064C-0.00648924 1.42917 0.102115 1.63138 0.319362 1.76137C0.89573 2.04621 1.55454 2.07736 2.15239 1.84803C2.42395 1.73248 2.57331 1.56638 2.59367 1.39305C2.61404 1.21973 2.66836 0.800875 2.66157 0.663662Z" fill="#263238"/>
</svg>
