<svg width="116" height="174" viewBox="0 0 116 174" fill="none" xmlns="http://www.w3.org/2000/svg">
<path d="M75.6177 104.028L71.1287 103.59V5.54367L75.6177 5.97495V104.028Z" fill="#E0E0E0"/>
<path d="M59.2189 40.526L42.1468 81.0174L30.9244 72.0232C30.523 71.7025 30.0099 71.5525 29.4973 71.606C28.9847 71.6594 28.5143 71.912 28.1889 72.3084C28.0901 72.4358 28.0054 72.5734 27.9364 72.7188L2.62987 127.783V135.198C2.62987 136.089 3.26113 136.45 4.03267 136.005L13.9435 130.329L69.7258 98.3937C70.1332 98.1277 70.4722 97.7709 70.7158 97.3518C70.9594 96.9327 71.1007 96.4629 71.1286 95.9799V52.3653L62.6136 40.1782C62.3214 39.7579 61.8728 39.4697 61.3665 39.3771C60.8602 39.2845 60.3375 39.395 59.9132 39.6844C59.6029 39.8906 59.3612 40.1835 59.2189 40.526Z" fill="#E0E0E0"/>
<path d="M7.89792 47.8783V66.9032C10.0512 67.6823 12.8077 67.3136 15.8027 65.5955C22.7115 61.6375 28.3157 52.0172 28.3157 44.1012C28.3157 40.4423 27.1233 37.799 25.1524 36.3938L9.30072 45.4367C8.88806 45.7039 8.54556 46.0647 8.3016 46.4893C8.05764 46.9139 7.91925 47.3901 7.89792 47.8783Z" fill="#E0E0E0"/>
<path d="M67.1589 42.5084L61.9756 39.5868V45.4786L67.1589 42.5084Z" fill="#E0E0E0"/>
<path d="M35.9044 74.7912L30.6439 71.8349L30.5598 77.6919L35.9044 74.7912Z" fill="#E0E0E0"/>
<path d="M79.0201 3.90903C79.0274 3.8513 79.0274 3.79287 79.0201 3.73513C78.9419 3.32712 78.7818 2.93887 78.5493 2.59351C78.3167 2.24814 78.0164 1.95272 77.6664 1.72482L75.1974 0.333608C74.7629 0.11431 74.2822 0 73.7946 0C73.307 0 72.8264 0.11431 72.3918 0.333608L1.42412 40.9363C1.00716 41.1955 0.662324 41.5542 0.42112 41.9797C0.167342 42.4011 0.0272393 42.8802 0.0143067 43.3709V148.749C0.0421977 149.232 0.183571 149.701 0.42714 150.12C0.67071 150.54 1.00973 150.896 1.41711 151.162L3.87201 152.554C4.25368 152.745 4.67104 152.857 5.09818 152.882C5.52532 152.908 5.95311 152.845 6.35497 152.7L6.45316 152.665L6.68463 152.554L37.8969 134.739L77.6593 111.979C78.0675 111.714 78.4071 111.357 78.6507 110.938C78.8944 110.518 79.0353 110.048 79.0621 109.565V4.13163C79.0359 4.06021 79.0217 3.98501 79.0201 3.90903ZM75.6183 99.4022C75.5904 99.8851 75.449 100.355 75.2054 100.774C74.9619 101.193 74.6228 101.55 74.2155 101.816L37.932 122.601L9.30085 138.989C8.52931 139.434 7.89805 139.073 7.89805 138.182V47.8784C7.92594 47.3955 8.06732 46.9257 8.31089 46.5066C8.55445 46.0875 8.89347 45.7307 9.30085 45.4647L74.2084 8.29137C74.987 7.83922 75.6112 8.20094 75.6112 9.09132L75.6183 99.4022Z" fill="#F5F5F5"/>
<path d="M37.9317 122.601C37.9317 126.865 37.8897 130.948 37.8686 134.704L6.67032 152.581L6.43886 152.693L6.34066 152.727C5.9388 152.873 5.51102 152.935 5.08388 152.91C4.65674 152.885 4.23937 152.773 3.8577 152.581L1.4028 151.19C0.995419 150.924 0.656408 150.567 0.412839 150.148C0.16927 149.729 0.027891 149.259 0 148.776V43.3708C0.0129326 42.8801 0.153035 42.401 0.406814 41.9796L5.67433 45.0055L8.31861 46.5149C8.05907 46.9342 7.91628 47.4143 7.90479 47.9062V138.217C7.90479 139.107 8.53605 139.469 9.30759 139.024L37.9317 122.601Z" fill="#E0E0E0"/>
<path d="M64.4865 43.4893L47.4144 83.9598L36.192 74.9656C35.993 74.8053 35.7639 74.6856 35.518 74.6134C35.2722 74.5413 35.0143 74.5181 34.7594 74.5453C34.5044 74.5724 34.2574 74.6494 34.0326 74.7717C33.8078 74.8939 33.6096 75.0591 33.4495 75.2578C33.3492 75.3816 33.2644 75.5171 33.197 75.6612L7.89046 130.739V145.173C7.89046 146.057 8.52172 146.418 9.29326 145.973L19.2041 140.304L74.2149 108.793C74.6223 108.527 74.9613 108.17 75.2049 107.751C75.4484 107.332 75.5898 106.862 75.6177 106.379V55.7529L67.9023 43.1346C67.612 42.7104 67.1637 42.4179 66.656 42.3213C66.1483 42.2248 65.6228 42.3322 65.1949 42.6198C64.8784 42.8351 64.6322 43.1373 64.4865 43.4893Z" fill="#F5F5F5"/>
<path d="M79.02 3.90906C79.0273 3.85133 79.0273 3.7929 79.02 3.73516C78.8516 3.15085 78.3186 2.95608 77.6663 3.33171L6.67049 43.9622C6.25796 44.2228 5.915 44.5783 5.67077 44.9986C5.42653 45.4188 5.28825 45.8913 5.26768 46.376V151.761C5.26768 152.519 5.73061 152.894 6.34083 152.714H6.43902L6.67049 152.602L37.8968 134.739L77.6592 111.979C78.0674 111.714 78.407 111.357 78.6507 110.938C78.8943 110.518 79.0352 110.048 79.062 109.565V4.13166C79.0358 4.06024 79.0216 3.98504 79.02 3.90906ZM75.6182 106.358C75.5903 106.841 75.4489 107.311 75.2053 107.73C74.9618 108.149 74.6227 108.506 74.2154 108.772L37.9319 129.557L9.30074 145.945C8.5292 146.39 7.89794 146.029 7.89794 145.138V47.8785C7.92583 47.3955 8.06721 46.9257 8.31078 46.5066C8.55434 46.0875 8.89336 45.7307 9.30074 45.4647L74.2083 8.2914C74.9869 7.83925 75.6111 8.20097 75.6111 9.09135L75.6182 106.358Z" fill="#F0F0F0"/>
<path d="M94.0719 114.587L89.5829 114.149V16.1032L94.0719 16.5345V114.587Z" fill="#E0E0E0"/>
<path d="M77.6729 51.0851L60.6008 91.6113L49.3784 82.6171C48.9762 82.2972 48.4625 82.1483 47.9499 82.2031C47.4372 82.2579 46.9673 82.5117 46.643 82.9092C46.5442 83.0342 46.4595 83.1695 46.3905 83.3127L21.0839 138.335V145.75C21.0839 146.641 21.7152 147.003 22.4867 146.557L32.3975 140.881L88.1799 108.946C88.5881 108.681 88.9276 108.324 89.1713 107.905C89.415 107.485 89.5559 107.015 89.5827 106.532V62.9174L81.0677 50.7304C80.8695 50.445 80.5973 50.2178 80.2799 50.0729C79.9625 49.928 79.6115 49.8707 79.264 49.9071C78.9165 49.9434 78.5853 50.072 78.3053 50.2793C78.0252 50.4866 77.8068 50.765 77.6729 51.0851Z" fill="#E0E0E0"/>
<path d="M26.3508 58.4379V77.4628C28.5041 78.2419 31.2606 77.8732 34.2556 76.1551C41.1433 72.197 46.7545 62.5768 46.7545 54.6608C46.7545 51.0019 45.5621 48.3586 43.5912 46.9534L27.7395 55.9963C27.3307 56.2662 26.9918 56.628 26.7505 57.0523C26.5092 57.4765 26.3722 57.9513 26.3508 58.4379Z" fill="#E0E0E0"/>
<path d="M85.6125 53.0675L80.4292 50.1459V56.0377L85.6125 53.0675Z" fill="#E0E0E0"/>
<path d="M54.3581 85.3508L49.0976 82.3945L49.0135 88.2515L54.3581 85.3508Z" fill="#E0E0E0"/>
<path d="M97.4667 14.4682C97.4741 14.4104 97.4741 14.352 97.4667 14.2943C97.3837 13.8918 97.2213 13.5095 96.9891 13.1693C96.7568 12.8291 96.4591 12.5377 96.113 12.3118L93.6441 10.9206C93.2096 10.7013 92.7289 10.587 92.2413 10.587C91.7537 10.587 91.2731 10.7013 90.8385 10.9206L19.8778 51.4954C19.4624 51.7565 19.1179 52.1148 18.8748 52.5388C18.6231 52.9611 18.4831 53.4397 18.468 53.93V159.308C18.4948 159.791 18.6357 160.261 18.8794 160.68C19.1231 161.1 19.4627 161.456 19.8708 161.722L22.3257 163.113C22.7069 163.306 23.1243 163.419 23.5517 163.444C23.9791 163.469 24.4071 163.406 24.8087 163.259L24.9069 163.224L25.1383 163.113L56.3506 145.263L96.113 122.503C96.5212 122.238 96.8608 121.881 97.1045 121.462C97.3481 121.043 97.489 120.573 97.5158 120.089V14.6908C97.4873 14.6198 97.4707 14.5446 97.4667 14.4682ZM94.072 109.961C94.0452 110.444 93.9043 110.915 93.6606 111.334C93.4169 111.753 93.0773 112.11 92.6692 112.375L56.3857 133.16L27.7546 149.548C26.983 149.994 26.3518 149.632 26.3518 148.741V58.4376C26.3802 57.9548 26.5218 57.4852 26.7653 57.0662C27.0088 56.6472 27.3476 56.2902 27.7546 56.0238L92.6622 18.8505C93.4407 18.3984 94.065 18.7601 94.065 19.6505L94.072 109.961Z" fill="#F5F5F5"/>
<path d="M56.3858 133.16C56.3858 137.424 56.3437 141.507 56.3227 145.264L25.1244 163.141L24.8929 163.252L24.7947 163.287C24.3932 163.434 23.9652 163.497 23.5378 163.472C23.1104 163.447 22.6929 163.334 22.3118 163.141L19.8569 161.75C19.4487 161.484 19.1091 161.128 18.8655 160.709C18.6218 160.289 18.4809 159.819 18.4541 159.336V53.9304C18.4692 53.44 18.6091 52.9614 18.8609 52.5392L24.1284 55.5581L26.7727 57.0676C26.5156 57.4879 26.373 57.9673 26.3589 58.4588V148.742C26.3589 149.632 26.9901 149.994 27.7617 149.549L56.3858 133.16Z" fill="#E0E0E0"/>
<path d="M82.9405 54.0485L65.8684 94.5399L54.646 85.5457C54.2426 85.2254 53.7279 85.0764 53.2141 85.1311C52.7003 85.1859 52.2292 85.4399 51.9036 85.8378C51.8063 85.9638 51.7218 86.099 51.6511 86.2413L26.3445 141.299V155.698C26.3445 156.581 26.9758 156.943 27.7473 156.498L37.6371 150.829L92.6479 119.317C93.0561 119.052 93.3957 118.696 93.6393 118.276C93.883 117.857 94.0239 117.387 94.0507 116.904V66.3121L86.3353 53.6938C86.0439 53.2707 85.5951 52.9796 85.0875 52.8844C84.5799 52.7892 84.055 52.8977 83.6279 53.186C83.3211 53.4032 83.0827 53.7023 82.9405 54.0485Z" fill="#F5F5F5"/>
<path d="M97.4666 14.4682C97.474 14.4104 97.474 14.352 97.4666 14.2943C97.2983 13.7099 96.7652 13.5152 96.1129 13.8908L25.1242 54.5213C24.7129 54.7832 24.3709 55.139 24.1268 55.559C23.8827 55.9789 23.7437 56.4508 23.7214 56.935V162.32C23.7214 163.078 24.1843 163.454 24.7945 163.273H24.8927L25.1242 163.161L56.3505 145.298L96.1129 122.538C96.5211 122.273 96.8607 121.916 97.1044 121.497C97.348 121.077 97.4889 120.607 97.5157 120.124V14.6907C97.4871 14.6197 97.4706 14.5445 97.4666 14.4682ZM94.0719 116.917C94.0451 117.401 93.9041 117.871 93.6605 118.29C93.4168 118.709 93.0772 119.066 92.6691 119.331L56.3856 140.116L27.7544 156.504C26.9829 156.95 26.3516 156.588 26.3516 155.698V58.4376C26.3801 57.9547 26.5217 57.4852 26.7652 57.0661C27.0087 56.6471 27.3474 56.2902 27.7544 56.0238L92.662 18.8505C93.4406 18.3983 94.0648 18.7601 94.0648 19.6504L94.0719 116.917Z" fill="#F0F0F0"/>
<path d="M112.533 125.14L108.044 124.701V26.6555L112.533 27.0868V125.14Z" fill="#263238"/>
<path d="M96.1334 61.6374L79.0613 102.129L67.8389 93.1345C67.4375 92.8139 66.9244 92.6639 66.4118 92.7173C65.8992 92.7707 65.4288 93.0233 65.1034 93.4197C65.0046 93.5471 64.9199 93.6847 64.8509 93.8301L39.5444 148.888V156.303C39.5444 157.193 40.1756 157.555 40.9472 157.11L50.858 151.433L106.64 119.498C107.048 119.233 107.388 118.876 107.632 118.457C107.875 118.038 108.016 117.568 108.043 117.084V73.4697L99.5281 61.2826C99.3299 60.9972 99.0578 60.7701 98.7403 60.6252C98.4229 60.4803 98.0719 60.423 97.7244 60.4593C97.3769 60.4956 97.0457 60.6242 96.7657 60.8315C96.4857 61.0389 96.2672 61.3173 96.1334 61.6374Z" fill="#1A5FFF"/>
<path d="M44.8125 68.9902V88.015C46.9658 88.7941 49.7224 88.4255 52.7173 86.7073C59.6261 82.7493 65.2303 73.129 65.2303 65.213C65.2303 61.5541 64.0379 58.9108 62.067 57.5057L46.2154 66.5486C45.8031 66.8161 45.4609 67.177 45.217 67.6015C44.9731 68.0261 44.8344 68.502 44.8125 68.9902Z" fill="#1A5FFF"/>
<path opacity="0.5" d="M96.1334 61.6374L79.0613 102.129L67.8389 93.1345C67.4375 92.8139 66.9244 92.6639 66.4118 92.7173C65.8992 92.7707 65.4288 93.0233 65.1034 93.4197C65.0046 93.5471 64.9199 93.6847 64.8509 93.8301L39.5444 148.888V156.303C39.5444 157.193 40.1756 157.555 40.9472 157.11L50.858 151.433L106.64 119.498C107.048 119.233 107.388 118.876 107.632 118.457C107.875 118.038 108.016 117.568 108.043 117.084V73.4697L99.5281 61.2826C99.3299 60.9972 99.0578 60.7701 98.7403 60.6252C98.4229 60.4803 98.0719 60.423 97.7244 60.4593C97.3769 60.4956 97.0457 60.6242 96.7657 60.8315C96.4857 61.0389 96.2672 61.3173 96.1334 61.6374Z" fill="white"/>
<path d="M104.074 63.6202L98.8905 60.6986V66.5904L104.074 63.6202Z" fill="#1A5FFF"/>
<path d="M72.8199 95.903L67.5594 92.9467L67.4752 98.8037L72.8199 95.903Z" fill="#1A5FFF"/>
<path opacity="0.5" d="M104.074 63.6202L98.8905 60.6986V66.5904L104.074 63.6202Z" fill="white"/>
<path opacity="0.5" d="M72.8199 95.903L67.5594 92.9467L67.4752 98.8037L72.8199 95.903Z" fill="white"/>
<path d="M115.928 25.0209C115.935 24.9631 115.935 24.9047 115.928 24.847C115.848 24.4395 115.687 24.0518 115.455 23.7067C115.222 23.3615 114.923 23.0657 114.574 22.8366L112.105 21.4454C111.67 21.2261 111.19 21.1118 110.702 21.1118C110.215 21.1118 109.734 21.2261 109.299 21.4454L38.3387 62.0481C37.9218 62.3073 37.577 62.6661 37.3358 63.0915C37.0831 63.5134 36.9431 63.9922 36.9289 64.4827V169.86C36.9557 170.344 37.0966 170.814 37.3403 171.233C37.584 171.652 37.9236 172.009 38.3317 172.274L40.7866 173.665C41.1683 173.857 41.5857 173.969 42.0128 173.994C42.4399 174.019 42.8677 173.957 43.2696 173.811L43.3678 173.777L43.5993 173.665L74.8116 155.816L114.574 133.056C114.982 132.791 115.322 132.434 115.565 132.015C115.809 131.595 115.95 131.125 115.977 130.642V25.2435C115.948 25.1724 115.932 25.0972 115.928 25.0209ZM112.533 120.514C112.506 120.997 112.365 121.467 112.122 121.887C111.878 122.306 111.538 122.663 111.13 122.928L74.8466 143.713L46.2155 160.101C45.4439 160.546 44.8127 160.185 44.8127 159.294V68.9903C44.8406 68.5073 44.9819 68.0375 45.2255 67.6184C45.4691 67.1993 45.8081 66.8425 46.2155 66.5765L111.123 29.4032C111.902 28.951 112.526 29.3128 112.526 30.2031L112.533 120.514Z" fill="#455A64"/>
<path d="M74.8464 143.712C74.8464 147.976 74.8043 152.06 74.7832 155.816L43.5849 173.693L43.3535 173.804H43.2553C42.8534 173.95 42.4256 174.012 41.9985 173.987C41.5714 173.962 41.154 173.85 40.7723 173.658L38.3174 172.267C37.9093 172.002 37.5697 171.645 37.326 171.226C37.0823 170.807 36.9414 170.337 36.9146 169.853V64.4826C36.9288 63.9921 37.0688 63.5133 37.3214 63.0914L42.589 66.1103L45.2332 67.6198C44.9737 68.0391 44.8309 68.5192 44.8194 69.011V159.294C44.8194 160.184 45.4507 160.546 46.2222 160.101L74.8464 143.712Z" fill="#263238"/>
<path opacity="0.7" d="M44.8125 68.9902V88.015C46.9658 88.7941 49.7224 88.4255 52.7173 86.7073C59.6261 82.7493 65.2303 73.129 65.2303 65.213C65.2303 61.5541 64.0379 58.9108 62.067 57.5057L46.2154 66.5486C45.8031 66.8161 45.4609 67.177 45.217 67.6015C44.9731 68.0261 44.8344 68.502 44.8125 68.9902Z" fill="white"/>
<path d="M101.401 64.6007L84.3292 105.092L73.1068 96.0978C72.9075 95.9383 72.6783 95.8194 72.4326 95.7478C72.1868 95.6762 71.9292 95.6533 71.6746 95.6804C71.4199 95.7075 71.1731 95.7841 70.9483 95.9059C70.7235 96.0276 70.5251 96.1921 70.3644 96.3899C70.2656 96.5149 70.1809 96.6502 70.1119 96.7934L44.8053 151.851V166.25C44.8053 167.133 45.4366 167.495 46.2081 167.05L56.1189 161.381L111.13 129.87C111.537 129.604 111.876 129.247 112.12 128.828C112.363 128.409 112.505 127.939 112.533 127.456V76.8642L104.817 64.2459C104.619 63.9571 104.345 63.7271 104.026 63.5801C103.706 63.4331 103.353 63.3747 103.002 63.411C102.652 63.4474 102.318 63.5772 102.036 63.7867C101.754 63.9962 101.535 64.2774 101.401 64.6007Z" fill="#1A5FFF"/>
<path d="M115.927 25.0209C115.935 24.9631 115.935 24.9047 115.927 24.847C115.759 24.2627 115.226 24.0679 114.574 24.4435L43.585 65.074C43.1733 65.3355 42.831 65.6912 42.5868 66.1112C42.3427 66.5313 42.2039 67.0034 42.1822 67.4878V172.872C42.1822 173.631 42.6451 174.006 43.2553 173.825L43.3535 173.791L43.585 173.679L74.8113 155.816L114.574 133.056C114.982 132.791 115.321 132.434 115.565 132.015C115.809 131.595 115.95 131.125 115.977 130.642V25.2435C115.948 25.1725 115.931 25.0973 115.927 25.0209ZM112.533 127.47C112.506 127.953 112.365 128.423 112.121 128.843C111.878 129.262 111.538 129.619 111.13 129.884L74.8464 150.669L46.2152 167.057C45.4437 167.502 44.8124 167.141 44.8124 166.25V68.9903C44.8403 68.5073 44.9817 68.0376 45.2253 67.6185C45.4689 67.1994 45.8079 66.8425 46.2152 66.5765L111.123 29.4032C111.901 28.9511 112.526 29.3128 112.526 30.2032L112.533 127.47Z" fill="#37474F"/>
</svg>
