<svg width="17" height="4" viewBox="0 0 17 4" fill="none" xmlns="http://www.w3.org/2000/svg">
<path d="M17.0001 1.89563C17.0001 1.89563 16.9767 1.94211 16.9252 2.02476L16.6908 2.36566C16.4658 2.68074 16.1612 3.11979 15.7534 3.66214L15.7112 3.71895L15.6737 3.66214L13.4333 0.21693H13.5645L11.3381 3.68796L11.2678 3.79642L11.1928 3.69313L8.55398 0.237596H8.70397C8.66179 0.304743 8.61023 0.371883 8.55867 0.439031L6.21511 3.69828L6.14012 3.80676L6.06512 3.69313C5.26363 2.44831 4.51838 1.28098 3.84344 0.227271H3.96998L1.23271 3.66729L1.18115 3.72929L1.14366 3.65697L0.285921 2.07124L0.0656264 1.64771C0.0391228 1.6004 0.0171256 1.5502 0 1.49791C0 1.49791 0.0328155 1.53922 0.093748 1.63219L0.332781 2.04025C0.553075 2.41731 0.857748 2.939 1.2374 3.58982H1.14835L3.84811 0.108465L3.91374 0.0206495L3.97468 0.113635L6.21979 3.56915H6.06982L8.41337 0.304746L8.55867 0.103295L8.63367 0L8.70866 0.103295L11.3381 3.56915H11.1928L13.438 0.11879L13.5036 0.015495L13.5692 0.11879L15.7768 3.59499H15.6971L16.6346 2.3295L16.8924 2.00409C16.9243 1.96337 16.9605 1.92697 17.0001 1.89563Z" fill="#F5F5F5"/>
</svg>
