<svg width="72" height="137" viewBox="0 0 72 137" fill="none" xmlns="http://www.w3.org/2000/svg">
<path d="M59.9493 112.731L56.0093 79.9323L52.7914 79.768L58.3277 112.727C58.3403 112.787 58.3661 112.845 58.4033 112.894C58.4406 112.944 58.4883 112.984 58.5431 113.013C58.7163 113.113 58.9106 113.17 59.1103 113.18C59.3099 113.191 59.5091 113.154 59.6917 113.072C59.7621 113.046 59.8233 113 59.8676 112.939C59.9119 112.878 59.9374 112.806 59.9408 112.731H59.9493Z" fill="#263238"/>
<path d="M56.0093 79.9323L52.7914 79.768L53.8303 85.9535C54.4574 85.813 55.0577 85.5725 55.6081 85.2414C55.9956 85.0312 56.3183 84.7194 56.5414 84.3397L56.0093 79.9323Z" fill="#263238"/>
<path d="M10.5748 76.5361H7.35268L2.66523 107.506C2.66682 107.581 2.68992 107.655 2.73181 107.717C2.7737 107.78 2.83264 107.83 2.90171 107.86C3.07963 107.95 3.27642 107.997 3.47603 107.997C3.67564 107.997 3.87243 107.95 4.05035 107.86C4.10655 107.833 4.15614 107.795 4.19556 107.746C4.23499 107.698 4.26327 107.642 4.27839 107.582L10.5748 76.5361Z" fill="#37474F"/>
<path d="M7.33998 76.5361L6.03087 85.1782C6.79561 85.7732 7.62586 86.2793 8.50552 86.6867L10.5747 76.5361H7.33998Z" fill="#263238"/>
<path d="M35.7435 125.136L32.7114 91.7809L29.4936 91.6166L34.1388 125.123C34.1504 125.184 34.1753 125.242 34.2118 125.292C34.2483 125.342 34.2955 125.384 34.3499 125.414C34.5207 125.515 34.7129 125.574 34.911 125.587C35.109 125.601 35.3074 125.567 35.4901 125.49C35.5611 125.464 35.6228 125.417 35.6678 125.357C35.7128 125.296 35.7391 125.224 35.7435 125.148V125.136Z" fill="#37474F"/>
<path d="M33.1504 96.5844L32.7281 91.7893L29.5102 91.625L30.2239 96.7993C30.9249 97.0184 32.2129 96.8878 33.1504 96.5844Z" fill="#263238"/>
<path d="M30.8448 64.915H27.6227L22.931 95.8893C22.9315 95.9638 22.9537 96.0365 22.995 96.0986C23.0362 96.1607 23.0947 96.2095 23.1633 96.239C23.3412 96.3293 23.538 96.3763 23.7376 96.3763C23.9372 96.3763 24.134 96.3293 24.3119 96.239C24.3684 96.2132 24.4186 96.1753 24.4587 96.1279C24.4989 96.0806 24.5281 96.025 24.5442 95.9651L30.8448 64.915Z" fill="#263238"/>
<path d="M1.34792 39.0309C0.618908 40.8322 0.184057 42.7385 0.0599275 44.6772C-0.307468 49.0045 1.09877 65.0036 1.98136 71.2692C3.24824 81.74 4.81917 81.7611 7.09533 83.514C11.0058 86.5267 22.2557 92.4384 25.9718 93.8963C32.7032 96.5424 38.2183 92.4637 42.3146 90.4411C46.4108 88.4186 54.1388 83.8553 55.8575 82.6038C56.8837 81.858 57.4158 81.108 57.4031 80.3158C57.4031 79.9998 57.4031 78.7147 57.4031 78.3818C57.4031 77.3705 56.5079 76.275 54.6244 75.0699C51.149 72.8156 38.5773 65.505 33.7082 62.8125C33.7066 62.8019 33.7016 62.7922 33.694 62.7846C33.6864 62.777 33.6766 62.772 33.666 62.7704C29.9203 60.5035 27.7286 43.0886 25.1315 34.8805C25.0766 34.7036 25.0217 34.535 24.9626 34.3707C24.9034 34.2063 24.8739 34.1094 24.8274 33.9872C24.667 33.5406 24.498 33.1445 24.3207 32.7569" fill="#0060FF"/>
<path d="M57.403 78.3775C57.403 77.3662 56.5077 76.2707 54.6243 75.0656C51.1488 72.8113 38.5772 65.5007 33.7081 62.8082C33.7065 62.7976 33.7015 62.7879 33.6939 62.7803C33.6863 62.7727 33.6765 62.7677 33.6659 62.7661C29.9201 60.4992 27.7284 43.0843 25.1313 34.8762C24.9762 34.3629 24.7944 33.858 24.5866 33.3635C24.5866 33.3256 24.557 33.2919 24.5401 33.254C24.4937 33.1444 24.4472 33.0349 24.3923 32.9211C24.3374 32.8073 24.3459 32.8073 24.3205 32.7526C23.9097 31.8176 23.3218 30.9706 22.5891 30.2581C22.3363 30.0222 22.0521 29.8223 21.7446 29.664C21.3223 29.4238 20.4354 28.935 20.2159 28.8213C17.6821 27.3001 11.656 30.5404 7.49638 32.8115C4.90772 34.2273 2.70335 35.9128 1.35623 39.0477C0.62722 40.849 0.192372 42.7552 0.0682427 44.6939C-0.299152 49.0213 1.10708 65.0204 1.98967 71.286C3.25655 81.7568 4.82749 81.7779 7.10365 83.5307C11.0141 86.5435 22.264 92.4551 25.9802 93.913C32.7115 96.5592 38.2267 92.4804 42.3229 90.4579C46.4191 88.4354 54.1471 83.872 55.8658 82.6206C56.892 81.8748 57.4241 81.1248 57.4114 80.3326C57.3945 79.9829 57.403 78.7188 57.403 78.3775Z" fill="#0060FF"/>
<path opacity="0.35" d="M57.403 78.3775C57.403 77.3662 56.5077 76.2707 54.6243 75.0656C51.1488 72.8113 38.5772 65.5007 33.7081 62.8082C33.7065 62.7976 33.7015 62.7879 33.6939 62.7803C33.6863 62.7727 33.6765 62.7677 33.6659 62.7661C29.9201 60.4992 27.7284 43.0843 25.1313 34.8762C24.9762 34.3629 24.7944 33.858 24.5866 33.3635C24.5866 33.3256 24.557 33.2919 24.5401 33.254C24.4937 33.1444 24.4472 33.0349 24.3923 32.9211C24.3374 32.8073 24.3459 32.8073 24.3205 32.7526C23.9097 31.8176 23.3218 30.9706 22.5891 30.2581C22.3363 30.0222 22.0521 29.8223 21.7446 29.664C21.3223 29.4238 20.4354 28.935 20.2159 28.8213C17.6821 27.3001 11.656 30.5404 7.49638 32.8115C4.90772 34.2273 2.70335 35.9128 1.35623 39.0477C0.62722 40.849 0.192372 42.7552 0.0682427 44.6939C-0.299152 49.0213 1.10708 65.0204 1.98967 71.286C3.25655 81.7568 4.82749 81.7779 7.10365 83.5307C11.0141 86.5435 22.264 92.4551 25.9802 93.913C32.7115 96.5592 38.2267 92.4804 42.3229 90.4579C46.4191 88.4354 54.1471 83.872 55.8658 82.6206C56.892 81.8748 57.4241 81.1248 57.4114 80.3326C57.3945 79.9829 57.403 78.7188 57.403 78.3775Z" fill="black"/>
<path d="M42.3063 88.4901C46.411 86.4718 54.1306 81.9042 55.8535 80.6528C58.1846 78.9673 57.965 77.2313 54.6246 75.0655C49.9794 72.057 31.0353 61.3292 31.0353 61.3292C31.0353 61.3292 4.43086 76.8479 5.44014 79.4477C6.44942 82.0475 21.2973 90.1081 25.9678 91.941C32.7034 94.5872 38.2059 90.5168 42.3063 88.4901Z" fill="#0060FF"/>
<path d="M21.7363 29.664C19.2025 28.3409 13.2651 31.5517 9.21104 33.768C6.61394 35.188 4.40534 36.8692 3.05823 40.0168L1.36905 39.0308C2.71194 35.8959 4.92054 34.2104 7.5092 32.7947C11.6688 30.5235 17.6822 27.2833 20.2287 28.8044C20.4272 28.935 21.314 29.4196 21.7363 29.664Z" fill="#0060FF"/>
<path d="M25.1315 34.8972C25.0766 34.7203 24.2109 31.7075 22.5977 30.2623C21.8403 29.5842 20.8578 29.2104 19.8401 29.2131C17.64 29.2131 12.3233 32.0783 9.2237 33.7722C8.9661 33.9112 8.7085 34.0587 8.45934 34.1936L8.17218 34.3663C8.05394 34.4337 7.93992 34.5096 7.83013 34.5812C7.72033 34.6528 7.66121 34.6865 7.57675 34.7455C7.0299 35.1014 6.50916 35.4956 6.01849 35.9253C5.93825 35.997 5.85802 36.0644 5.78201 36.1402C5.46848 36.4287 5.17236 36.7354 4.89519 37.0588C4.84451 37.1136 4.79384 37.1726 4.74738 37.2316L4.57425 37.4507C4.51513 37.5223 4.46023 37.5981 4.4011 37.674L4.23641 37.9057C4.01199 38.2246 3.80477 38.5551 3.61564 38.8959C3.58921 38.9381 3.56524 38.9817 3.54385 39.0266C3.49317 39.115 3.44672 39.212 3.40027 39.3047C3.35382 39.3974 3.26514 39.5828 3.19757 39.726C2.39643 41.5982 1.92225 43.5933 1.79556 45.6251C1.19168 52.7376 3.57341 78.2173 6.01849 80.2441C6.01849 80.2441 5.64265 77.9434 10.5708 74.8506C13.9196 72.7438 16.2718 70.9783 19.8613 69.2297C28.5732 64.9613 33.6871 62.7449 33.6871 62.7449C29.9203 60.4991 27.7286 43.0843 25.1315 34.8972Z" fill="#0060FF"/>
<path opacity="0.15" d="M25.1315 34.8972C25.0766 34.7203 24.2109 31.7075 22.5977 30.2623C21.8403 29.5842 20.8578 29.2104 19.8401 29.2131C17.64 29.2131 12.3233 32.0783 9.2237 33.7722C8.9661 33.9112 8.7085 34.0587 8.45934 34.1936L8.17218 34.3663C8.05394 34.4337 7.93992 34.5096 7.83013 34.5812C7.72033 34.6528 7.66121 34.6865 7.57675 34.7455C7.0299 35.1014 6.50916 35.4956 6.01849 35.9253C5.93825 35.997 5.85802 36.0644 5.78201 36.1402C5.46848 36.4287 5.17236 36.7354 4.89519 37.0588C4.84451 37.1136 4.79384 37.1726 4.74738 37.2316L4.57425 37.4507C4.51513 37.5223 4.46023 37.5981 4.4011 37.674L4.23641 37.9057C4.01199 38.2246 3.80477 38.5551 3.61564 38.8959C3.58921 38.9381 3.56524 38.9817 3.54385 39.0266C3.49317 39.115 3.44672 39.212 3.40027 39.3047C3.35382 39.3974 3.26514 39.5828 3.19757 39.726C2.39643 41.5982 1.92225 43.5933 1.79556 45.6251C1.19168 52.7376 3.57341 78.2173 6.01849 80.2441C6.01849 80.2441 5.64265 77.9434 10.5708 74.8506C13.9196 72.7438 16.2718 70.9783 19.8613 69.2297C28.5732 64.9613 33.6871 62.7449 33.6871 62.7449C29.9203 60.4991 27.7286 43.0843 25.1315 34.8972Z" fill="black"/>
<path d="M43.8347 96.7149C41.5458 96.5885 39.7469 98.552 39.6117 99.1462C39.4217 99.9467 39.6328 101.527 40.7139 103.406C41.673 105.288 42.1805 107.367 42.1962 109.478C42.1962 111.281 41.6767 115.798 43.6615 117.905C45.6463 120.012 49.8186 121.638 51.001 118.457C51.3895 117.416 50.1564 114.008 49.5525 111.5C48.3152 106.507 47.2721 101.531 47.2721 101.531L43.8347 96.7149Z" fill="#263238"/>
<path opacity="0.15" d="M40.2919 98.1938C40.3172 99.8793 41.6432 103.773 44.2066 107.312C46.7403 110.784 50.2454 115.28 51.0731 117.846C51.0393 116.645 50.3594 114.496 49.8315 112.575C49.8315 112.533 49.8104 112.491 49.7977 112.453L49.709 112.12C49.709 112.069 49.6795 112.019 49.6668 111.968C49.6288 111.825 49.595 111.686 49.5613 111.547V111.517C49.177 109.958 48.8053 108.399 48.4844 106.992C48.2268 105.867 47.9988 104.843 47.8087 103.992L47.5596 102.854C47.5258 102.69 47.492 102.542 47.4625 102.403C47.3484 101.86 47.2809 101.56 47.2809 101.56L43.8434 96.7401C43.6914 96.7401 43.5478 96.7401 43.4211 96.7401C42.2379 96.8376 41.1283 97.3531 40.2919 98.1938Z" fill="black"/>
<path d="M43.4463 100.806C44.0196 103.233 44.4092 105.699 44.6118 108.184C44.7807 110.902 45.4986 112.642 46.5332 113.78C47.6776 115.044 50.3339 115.575 49.7976 112.802C49.4302 110.877 47.2638 101.535 47.2638 101.535L43.4463 100.806Z" fill="#FFA8A7"/>
<path d="M49.388 114.598C49.7765 114.324 49.9834 113.755 49.8103 112.803C49.7258 112.381 49.5527 111.538 49.3331 110.552C49.0332 109.318 48.7461 108.1 48.4885 106.979C48.2309 105.859 48.0028 104.83 47.8128 103.979L47.5637 102.842C47.5299 102.677 47.4961 102.53 47.4665 102.391C47.3525 101.86 47.2892 101.548 47.2849 101.548L43.459 100.819C44.0031 103.132 44.3841 105.481 44.5992 107.847C46.1574 109.988 48.0282 112.457 49.388 114.598Z" fill="#F28F8F"/>
<path d="M56.1866 91.4605L51.6301 101.995L44.7087 96.0828L47.5929 83.9013L56.1866 91.4605Z" fill="#F28F8F"/>
<path d="M49.9407 64.919C45.6548 63.0939 41.2767 61.4919 36.8243 60.1197L28.3109 68.2857L36.8201 74.1847L48.222 79.6076C48.222 79.6076 47.6181 80.9096 46.9298 84.4491C46.7397 85.4308 46.5624 86.1134 46.4188 87.0362C49.6282 90.4071 51.3343 95.6446 54.2355 96.462C54.2355 96.462 58.3444 88.0348 61.0259 81.1835C63.5597 74.7409 61.7945 72.554 61.2202 71.6987C60.2193 70.2155 57.6476 68.2351 49.9407 64.919Z" fill="#455A64"/>
<path d="M52.1623 91.0139C52.1623 90.9169 52.12 90.8242 52.1031 90.7316C51.93 89.8888 51.7569 89.084 51.6006 88.3424C51.5982 88.3186 51.5982 88.2946 51.6006 88.2708L51.3726 87.2342C51.372 87.2244 51.372 87.2146 51.3726 87.2048C51.1868 86.362 51.0179 85.6626 50.8869 85.1696C50.4646 83.5473 49.088 81.5543 48.0407 80.1975C47.6449 81.4066 47.3261 82.6394 47.0863 83.8886C47.0863 83.9181 47.0863 83.9519 47.1116 83.9771L49.1893 89.5096L50.2704 92.3917L50.5956 92.8889L50.6842 93.028C50.9883 93.4886 51.2923 93.9184 51.5964 94.3173L51.7062 94.4564C51.7991 94.5701 51.8878 94.6797 51.9807 94.785C52.0736 94.8904 52.0609 94.882 52.1031 94.9325C52.1454 94.9831 52.289 95.139 52.3819 95.2359L52.4874 95.337C52.6971 95.5469 52.923 95.7399 53.1631 95.9143C52.8802 94.4437 52.5719 92.9016 52.2721 91.431C52.2172 91.292 52.1876 91.1529 52.1623 91.0139Z" fill="#37474F"/>
<path d="M47.1452 79.1062C46.4231 78.411 44.8691 76.932 44.1258 76.3126C41.3345 73.9656 35.2577 69.1705 35.2577 69.1705L33.8008 69.5371L36.8286 74.2016L47.1452 79.1062Z" fill="#37474F"/>
<path d="M51.8794 121.276C51.322 121.276 51.3642 122.228 51.1277 123.446C50.8071 124.626 50.8483 125.875 51.2459 127.032C51.8203 128.507 54.2316 128.616 55.5702 130.525C56.9089 132.434 58.881 135.889 63.2011 136.744C67.5211 137.6 70.8024 136.142 71.5751 134.852C72.3479 133.563 71.6258 132.358 68.8514 130.82C65.8953 129.189 65.0507 128.713 65.0507 128.713L51.8794 121.276Z" fill="#263238"/>
<path d="M45.4561 107.843C45.8389 108.498 46.2612 109.177 46.7229 109.882C48.6486 113.308 50.9459 117.437 51.6173 119.372C51.9594 120.336 51.9171 120.766 51.934 121.9C51.9834 122.55 52.2616 123.162 52.7195 123.627C53.1966 124.145 53.6998 124.639 54.2271 125.106C55.6291 126.37 57.8673 129.792 60.1856 131.321C62.504 132.851 66.4609 132.404 67.3435 131.456C67.4334 131.377 67.5054 131.28 67.5547 131.171C67.604 131.062 67.6295 130.944 67.6295 130.824C67.6295 130.705 67.604 130.586 67.5547 130.477C67.5054 130.368 67.4334 130.271 67.3435 130.192C66.9212 129.771 65.8402 128.865 65.3545 128.363C63.1708 126.159 61.2944 123.672 59.776 120.968C59.0074 119.57 57.7744 115.735 56.5877 111.699C56.5877 111.699 55.8065 108.652 54.7296 104.535" fill="#FFA8A7"/>
<path d="M48.8052 83.4885C47.3145 79.8437 32.5849 68.6397 32.5849 68.6397C32.5849 68.6397 34.1431 62.3699 35.0004 58.0172L10.9043 61.4681C10.0598 64.5146 9.63746 68.783 10.993 72.0022C12.7793 76.2621 17.6272 79.772 23.7547 83.164C29.4852 86.3368 35.731 89.3538 37.1836 90.108C38.4505 90.7696 38.9362 91.7935 39.2698 94.5197C39.5865 97.1279 41.1236 100.52 45.4564 107.852C48.3575 108.441 53.4208 106.356 54.7215 104.54C52.7452 96.9804 49.768 85.8481 48.8052 83.4885Z" fill="#455A64"/>
<path d="M37.0398 65.1255C36.5497 66.9478 35.3944 68.5215 33.8008 69.5371L34.6158 70.2155C34.6158 70.2155 37.006 68.6986 37.0398 65.1255Z" fill="#37474F"/>
<path d="M27.9098 27.7931C32.669 27.7931 35.6758 29.4786 39.4173 36.8102C42.0439 41.9635 47.1833 54.7265 47.1833 54.7265L40.2407 57.912C37.6014 53.1422 34.5651 47.2094 30.8954 39.1109L27.9098 27.7931Z" fill="#FFA8A7"/>
<path d="M35.2872 46.0085C37.9984 41.7612 36.8582 38.6979 35.9291 36.9155C34.0626 33.3466 27.9056 27.7931 27.9056 27.7931C27.9056 27.7931 26.5247 27.5529 20.9546 27.9321C17.8574 28.138 14.7948 28.7036 11.8289 29.6175C12.9944 33.5699 14.2866 35.1332 14.0079 37.3916C13.7292 39.6501 11.1912 43.9396 11.1912 43.9396L12.3187 48.0184C12.3187 48.0184 12.9986 50.892 13.3407 52.232C13.5772 53.1463 13.0028 55.1815 12.4961 56.3444C11.1865 59.2099 10.3085 62.2527 9.89053 65.3742C19.7469 69.0611 32.8211 66.5793 37.1876 60.0946C36.9004 58.4555 35.1901 55.1309 35.0465 53.3528C34.903 51.5747 35.0677 49.1392 35.2872 46.0085Z" fill="#F5F5F5"/>
<path d="M28.4042 46.6953C28.4042 46.6953 26.3181 49.2951 21.8291 48.545C17.3401 47.795 16.4533 44.4157 16.4533 44.4157C16.4533 44.4157 16.1872 48.7515 21.5546 49.6448C26.8375 50.4875 28.4042 46.6953 28.4042 46.6953Z" fill="#E0E0E0"/>
<path d="M16.778 23.6259C17.9942 27.4182 25.8108 19.6862 27.0524 18.3926C27.5718 17.8491 27.8969 16.9811 28.3657 16.3743C28.7389 15.8918 29.1483 15.4382 29.5903 15.0175C30.3378 14.3433 31.3809 14.1495 32.1494 13.4543C32.8437 12.8251 33.3816 12.0431 33.7204 11.1705C34.0556 10.3122 34.2088 9.39389 34.1703 8.47354C34.1317 7.55319 33.9023 6.65082 33.4965 5.82342C33.0476 4.97773 32.4529 4.21751 31.7398 3.57757C29.8744 1.82641 27.5384 0.655104 25.0169 0.206681C20.8531 -0.522273 16.0009 0.678607 13.142 3.78404C10.6083 6.52709 9.76367 10.037 10.186 12.6326C11.1995 19.0541 16.1107 21.536 16.778 23.6259Z" fill="#263238"/>
<path d="M29.8227 4.72357C31.2374 5.56629 32.9984 9.08887 32.8379 16.5217C32.7196 22.0415 30.9376 23.925 29.9156 24.3758C28.4239 24.9245 26.8103 25.0556 25.2493 24.7551V28.0754C25.2493 28.0754 29.2484 30.928 28.3996 32.7356C27.6606 34.3115 23.3827 34.4211 20.887 32.7356C19.3176 31.6446 17.9345 30.3087 16.7907 28.779L16.7654 19.7029C16.7654 19.7029 15.5788 20.7268 14.1683 19.3659C13.1548 18.3883 12.4791 15.8854 13.1168 14.5708C13.2744 14.2379 13.5106 13.9481 13.8049 13.7261C14.0993 13.5041 14.4432 13.3566 14.8072 13.2961C15.1712 13.2357 15.5444 13.2641 15.895 13.3789C16.2456 13.4938 16.5631 13.6916 16.8203 13.9556C16.8203 13.9556 19.1725 14.1452 23.5305 11.596C27.12 9.49337 29.2695 6.71661 29.8227 4.72357Z" fill="#FFA8A7"/>
<path d="M25.2496 24.7508C23.2184 24.4896 18.7421 22.8758 18.0706 21.2283C18.1881 22.1138 18.6415 22.9206 19.3375 23.4825C21.0647 25.0205 25.2496 26.0107 25.2496 26.0107V24.7508Z" fill="#F28F8F"/>
<path d="M30.1778 2.9666C31.7951 5.18296 31.6769 10.9177 25.8366 12.2365C26.587 11.5531 27.0653 10.6225 27.1837 9.61567C27.1837 9.61567 25.4312 12.4809 18.6703 13.4669L19.063 2.72221L30.1778 2.9666Z" fill="#263238"/>
<path d="M16.8292 17.2632V13.9513L18.9407 12.9527V15.1438C18.9424 15.4215 18.889 15.6968 18.7836 15.9539C18.6783 16.211 18.523 16.4447 18.3268 16.6417C18.1305 16.8386 17.8972 16.995 17.6402 17.1016C17.3832 17.2083 17.1076 17.2632 16.8292 17.2632Z" fill="#263238"/>
<path d="M24.9326 13.6481C24.9737 13.7515 24.9939 13.8621 24.9921 13.9733C24.9903 14.0846 24.9666 14.1944 24.9223 14.2966C24.878 14.3987 24.814 14.4911 24.7338 14.5685C24.6537 14.6459 24.5591 14.7069 24.4554 14.7478C24.3517 14.7888 24.241 14.8089 24.1295 14.8072C24.0179 14.8054 23.9079 14.7817 23.8055 14.7375C23.7032 14.6933 23.6106 14.6294 23.533 14.5495C23.4554 14.4695 23.3943 14.3752 23.3533 14.2717C23.3089 14.1781 23.2856 14.0759 23.2851 13.9723C23.2847 13.8688 23.3069 13.7664 23.3504 13.6724C23.3939 13.5784 23.4576 13.495 23.5369 13.4282C23.6161 13.3614 23.7091 13.3127 23.8093 13.2857C23.9064 13.2332 24.0131 13.2008 24.123 13.1907C24.2329 13.1805 24.3438 13.1928 24.4488 13.2267C24.5539 13.2605 24.6509 13.3154 24.7341 13.3878C24.8172 13.4602 24.8848 13.5488 24.9326 13.6481Z" fill="#263238"/>
<path d="M31.2926 13.9808C31.2563 14.089 31.1985 14.1886 31.1225 14.2738C31.0465 14.3589 30.954 14.4278 30.8506 14.4763C30.7471 14.5247 30.6349 14.5517 30.5207 14.5557C30.4065 14.5596 30.2927 14.5403 30.1862 14.4991C29.9738 14.4113 29.8046 14.2436 29.7153 14.0322C29.626 13.8208 29.6237 13.5829 29.709 13.3699C29.7504 13.2729 29.812 13.1859 29.8896 13.1144C29.9672 13.043 30.0591 12.9887 30.1593 12.9553C30.2594 12.9218 30.3655 12.91 30.4706 12.9204C30.5757 12.9309 30.6774 12.9634 30.769 13.0159C31.2039 13.1845 31.47 13.5258 31.2926 13.9808Z" fill="#263238"/>
<path d="M31.6895 11.9836L30.0003 11.0061C30.059 10.8932 30.1401 10.7934 30.2386 10.7128C30.3372 10.6321 30.4511 10.5722 30.5735 10.5368C30.6959 10.5013 30.8242 10.491 30.9507 10.5065C31.0772 10.522 31.1992 10.5629 31.3094 10.6268C31.534 10.7622 31.6983 10.9779 31.7689 11.2301C31.8396 11.4822 31.8111 11.7517 31.6895 11.9836Z" fill="#263238"/>
<path d="M24.8951 19.3489L27.45 19.9304C27.4194 20.0981 27.3552 20.2578 27.2612 20.4001C27.1672 20.5423 27.0453 20.6642 26.9029 20.7582C26.7605 20.8523 26.6006 20.9167 26.4326 20.9475C26.2646 20.9783 26.0921 20.9749 25.9255 20.9375C25.5819 20.8559 25.2831 20.6452 25.0911 20.3493C24.8992 20.0535 24.829 19.6951 24.8951 19.3489Z" fill="#B16668"/>
<path d="M25.2538 19.7915C25.1325 19.7929 25.0118 19.8099 24.8948 19.842C24.9409 20.105 25.063 20.3487 25.246 20.5434C25.4291 20.738 25.6652 20.875 25.9252 20.9376C26.1657 20.9911 26.4167 20.9736 26.6474 20.887C26.5717 20.575 26.3931 20.2974 26.1404 20.0988C25.8877 19.9001 25.5755 19.7919 25.2538 19.7915Z" fill="#F28F8F"/>
<path d="M24.1434 17.7394C23.4969 17.7406 22.8745 17.4951 22.4034 17.0533C21.9324 16.6115 21.6484 16.0068 21.6096 15.3629C21.5839 15.1888 21.5939 15.0113 21.6389 14.8411C21.6839 14.6709 21.763 14.5115 21.8715 14.3727C22.2557 13.9514 22.9821 13.8966 23.8267 13.8418L24.2912 13.8123C25.1358 13.7533 25.8621 13.7028 26.3013 14.0862C26.4276 14.2087 26.5275 14.3555 26.5951 14.5178C26.6626 14.6801 26.6963 14.8544 26.694 15.0301C26.7369 15.703 26.5108 16.3655 26.0652 16.8725C25.6196 17.3795 24.9908 17.6897 24.3165 17.7352L24.1434 17.7394ZM25.1316 14.0188C24.8782 14.0188 24.5995 14.0188 24.287 14.0609L23.8182 14.0904C23.0328 14.1368 22.3529 14.1789 22.0362 14.5371C21.9496 14.6514 21.8871 14.782 21.8522 14.921C21.8174 15.06 21.811 15.2046 21.8335 15.3461C21.8934 15.938 22.1812 16.4837 22.6363 16.8681C23.0914 17.2525 23.6783 17.4457 24.2733 17.4069C24.8683 17.3681 25.425 17.1004 25.8262 16.6602C26.2273 16.22 26.4415 15.6416 26.4238 15.0469C26.4273 14.9036 26.4018 14.7611 26.3488 14.6279C26.2958 14.4947 26.2165 14.3735 26.1155 14.2716C25.8269 14.0759 25.479 13.9866 25.1316 14.0188Z" fill="#263238"/>
<path d="M31.0648 17.7394C30.4183 17.7406 29.7959 17.4951 29.3248 17.0533C28.8538 16.6115 28.5698 16.0068 28.531 15.3629C28.5059 15.1885 28.5165 15.0108 28.5623 14.8406C28.608 14.6704 28.6879 14.5112 28.7971 14.3727C29.1814 13.9514 29.9077 13.8966 30.7481 13.8418L31.2168 13.8123C32.0614 13.7533 32.7835 13.7028 33.2227 14.0862C33.349 14.2087 33.4489 14.3555 33.5164 14.5178C33.584 14.6801 33.6177 14.8544 33.6154 15.0301C33.6395 15.3636 33.5971 15.6985 33.4905 16.0155C33.384 16.3325 33.2154 16.6253 32.9947 16.8769C32.774 17.1285 32.5054 17.3339 32.2046 17.4812C31.9038 17.6286 31.5766 17.7149 31.2422 17.7352L31.0648 17.7394ZM32.053 14.0188C31.7996 14.0188 31.5209 14.0188 31.2084 14.0609L30.7396 14.0904C29.9499 14.1368 29.2743 14.1789 28.9575 14.5371C28.871 14.6514 28.8085 14.782 28.7736 14.921C28.7388 15.06 28.7324 15.2046 28.7548 15.3461C28.7742 15.6469 28.8528 15.941 28.9862 16.2115C29.1196 16.482 29.3052 16.7236 29.5323 16.9225C29.7595 17.1213 30.0237 17.2735 30.3098 17.3703C30.596 17.4671 30.8984 17.5066 31.1999 17.4866C31.8077 17.4444 32.3741 17.1643 32.7759 16.7074C33.1777 16.2505 33.3823 15.6536 33.3452 15.0469C33.3477 14.9038 33.3218 14.7615 33.2688 14.6285C33.2159 14.4954 33.1371 14.3741 33.0369 14.2716C32.7478 14.0769 32.4003 13.9876 32.053 14.0188Z" fill="#263238"/>
<path d="M26.9809 13.1296L27.3272 18.6115L29.975 17.7393L26.9809 13.1296Z" fill="#F28F8F"/>
<path d="M26.6432 15.6958L26.4067 15.62C26.4854 15.2925 26.6592 14.9954 26.9063 14.7661C27.1535 14.5367 27.463 14.3852 27.7961 14.3306C27.9954 14.3069 28.1973 14.3456 28.3736 14.4415C28.5499 14.5374 28.692 14.6857 28.78 14.8658L28.5604 14.9795C28.4941 14.8423 28.3874 14.7284 28.2547 14.6532C28.1219 14.5779 27.9693 14.5448 27.8172 14.5582C27.53 14.6092 27.2648 14.7449 27.0556 14.9476C26.8464 15.1504 26.7027 15.411 26.6432 15.6958Z" fill="#263238"/>
<path d="M16.9816 13.8695L16.9339 14.1135L21.721 15.0463L21.7687 14.8023L16.9816 13.8695Z" fill="#263238"/>
<path d="M47.5131 43.9185C47.5131 43.9185 47.4286 43.139 48.4337 42.3342C49.4388 41.5294 50.7732 40.8637 51.1406 38.9633L52.5975 39.7302L50.3509 43.8595L47.5131 43.9185Z" fill="#0060FF"/>
<path opacity="0.75" d="M47.5131 43.9185C47.5131 43.9185 47.4286 43.139 48.4337 42.3342C49.4388 41.5294 50.7732 40.8637 51.1406 38.9633L52.5975 39.7302L50.3509 43.8595L47.5131 43.9185Z" fill="white"/>
<path d="M47.5129 43.9185C47.5129 43.9185 45.9208 43.2021 42.5298 44.0364C39.1388 44.8707 36.3812 45.8946 29.8061 46.0084L31.5502 46.9228L48.5813 45.271L47.5129 43.9185Z" fill="#0060FF"/>
<path opacity="0.75" d="M47.5129 43.9185C47.5129 43.9185 45.9208 43.2021 42.5298 44.0364C39.1388 44.8707 36.3812 45.8946 29.8061 46.0084L31.5502 46.9228L48.5813 45.271L47.5129 43.9185Z" fill="white"/>
<path d="M29.806 46.0085L24.4766 65.8209L26.2165 66.7353L31.5501 46.9229L29.806 46.0085Z" fill="#0060FF"/>
<path opacity="0.8" d="M29.806 46.0085L24.4766 65.8209L26.2165 66.7353L31.5501 46.9229L29.806 46.0085Z" fill="white"/>
<path opacity="0.1" d="M29.806 46.0085L24.4766 65.8209L26.2165 66.7353L31.5501 46.9229L29.806 46.0085Z" fill="black"/>
<g opacity="0.1">
<path d="M51.1783 39.9956C51.0327 40.4117 50.8092 40.7963 50.5195 41.1291C50.2243 41.4552 49.9084 41.762 49.5736 42.0476C49.2368 42.3192 48.9271 42.6226 48.6488 42.9536C48.5201 43.1203 48.4137 43.3031 48.3321 43.4971C48.2529 43.6818 48.2182 43.8824 48.2307 44.0828L48.0238 44.1207C48.0118 43.8811 48.0597 43.6422 48.1631 43.4255C48.2582 43.2206 48.3803 43.0292 48.5263 42.8567C48.8227 42.5287 49.1508 42.2309 49.506 41.9676C49.8494 41.6979 50.1739 41.405 50.4773 41.0912C50.7794 40.7744 51.0174 40.4024 51.1783 39.9956Z" fill="black"/>
<path d="M50.9458 41.1122C50.8113 41.3636 50.6438 41.596 50.4475 41.8032C50.2617 42.0181 50.0675 42.2246 49.8859 42.4395C49.7006 42.6505 49.5366 42.8791 49.396 43.1221C49.2581 43.3544 49.1757 43.6154 49.1553 43.8847H48.9484C48.9832 43.5828 49.0904 43.2938 49.2609 43.042C49.419 42.8007 49.6016 42.5762 49.8056 42.372C50.0041 42.1656 50.2279 41.9507 50.4095 41.7695C50.6167 41.575 50.797 41.354 50.9458 41.1122Z" fill="black"/>
<path d="M36.3814 45.8947C37.3112 45.7748 38.2333 45.6017 39.1432 45.3764C40.0553 45.1573 40.9548 44.896 41.8627 44.6474C42.7708 44.3912 43.7038 44.233 44.6457 44.1755C45.118 44.1418 45.5922 44.1418 46.0646 44.1755C46.3032 44.1941 46.5403 44.2293 46.774 44.2808C47.0211 44.3345 47.2542 44.4393 47.4581 44.5884L47.3188 44.7443C47.1435 44.613 46.9418 44.521 46.7276 44.4747C46.5046 44.4174 46.2772 44.3793 46.0477 44.3609C45.5845 44.3173 45.1187 44.3075 44.6541 44.3314C43.7196 44.3724 42.7923 44.5137 41.8881 44.7528C40.9801 44.9845 40.0722 45.2331 39.1558 45.4354C38.2401 45.6389 37.3139 45.7922 36.3814 45.8947Z" fill="black"/>
<path d="M40.8872 45.6334C41.4108 45.5449 41.9302 45.4143 42.4497 45.2921C42.9691 45.1699 43.4927 45.0561 44.0206 44.9634C44.549 44.8668 45.0841 44.8105 45.6211 44.7949C46.1673 44.7747 46.7127 44.8547 47.23 45.0308L47.154 45.2247C46.664 45.0416 46.1443 44.9502 45.6211 44.955C45.0897 44.953 44.5589 44.991 44.0333 45.0688C43.5096 45.1446 42.9817 45.2415 42.4581 45.3469C41.9345 45.4522 41.4024 45.5617 40.8872 45.6334Z" fill="black"/>
</g>
<path d="M52.5633 38.7316L49.9408 43.6278L44.223 64.8686L45.0929 65.3279L47.6689 59.3572L53.4332 39.1909L52.5633 38.7316Z" fill="#0060FF"/>
<path opacity="0.2" d="M50.811 44.0829L53.4334 39.1909L47.6691 59.3572L45.0931 65.3279L50.811 44.0829Z" fill="black"/>
<path d="M47.2003 45.3511L30.4268 47.0787L24.709 68.3237L25.5789 68.783L42.3524 67.0512L48.0702 45.8062L47.2003 45.3511Z" fill="#0060FF"/>
<path opacity="0.2" d="M31.297 47.5381L25.5791 68.7831L42.3526 67.0513L48.0705 45.8063L31.297 47.5381Z" fill="black"/>
<path opacity="0.35" d="M30.4268 47.0787L31.2968 47.538L25.5789 68.783L24.709 68.3237L30.4268 47.0787Z" fill="black"/>
<path d="M48.0704 45.8062L50.8111 44.0828L45.0933 65.3279C44.7005 66.4782 43.7588 67.0133 42.3526 67.0512L48.0704 45.8062Z" fill="#0060FF"/>
<path opacity="0.35" d="M48.0704 45.8062L50.8111 44.0828L45.0933 65.3279C44.6499 66.5456 43.6786 67.0386 42.3526 67.0512L48.0704 45.8062Z" fill="black"/>
<path d="M49.8482 43.573C49.3161 43.2907 48.273 43.4423 47.5171 43.9185C46.7612 44.3946 46.5796 45.0098 47.0948 45.2921L48.0577 45.8062L50.7983 44.0828L49.9284 43.6235L49.8482 43.573Z" fill="#455A64"/>
<path d="M49.941 43.6236C49.8058 44.4368 48.7923 44.9803 47.2003 45.3511L48.0702 45.8062C49.4426 45.5955 50.3379 45.0014 50.8109 44.0828L49.941 43.6236Z" fill="#0060FF"/>
<path d="M12.1077 29.5333C7.96504 30.5277 6.61792 31.6106 5.55374 36.4942C4.42622 41.6685 3.01998 51.069 2.85106 57.2673C2.79617 59.3235 2.53012 60.714 7.52585 62.193C13.3451 63.9121 21.0646 64.6453 23.2225 64.8265C24.6034 64.9402 27.6439 65.2057 28.7123 65.0793C32.0906 64.6579 33.8643 62.6775 34.9158 61.6326C35.4986 61.0595 36.0686 60.3685 36.056 59.5258C36.0201 59.2657 36.0201 59.002 36.056 58.742C36.157 58.5007 36.2829 58.2705 36.4318 58.0552C36.5665 57.7961 36.6139 57.5006 36.567 57.2125C36.4954 56.9616 36.4459 56.705 36.4192 56.4456C36.4192 55.9189 36.9132 55.5355 37.1286 55.0551C37.1666 54.9855 37.1842 54.9067 37.1793 54.8276C37.1793 54.6506 36.9724 54.5495 36.8034 54.5116C36.0085 54.4148 35.2045 54.5949 34.5273 55.0214C32.4158 56.315 31.1912 57.9204 28.1929 58.0089C27.4834 58.0089 26.622 57.7434 26.8078 57.0566L27.1709 55.6998C25.4818 56.0453 24.5527 57.7181 23.1507 58.0089C21.8838 58.2659 11.8121 54.9034 11.8121 54.9034L14.4852 43.4508C14.4852 43.4508 16.204 32.7904 12.1077 29.5333Z" fill="#FFA8A7"/>
<path d="M50.0805 50.9089C49.7886 51.6648 49.4178 52.3879 48.9741 53.0663C48.6574 53.6225 48.7039 54.2672 49.0755 54.4273L48.0704 57.9415C48.0704 57.9415 48.5687 57.9962 49.5907 56.8038C50.6126 55.6113 51.3179 53.3823 51.5121 52.1688C51.7064 50.9553 51.8499 48.7979 50.8238 48.2965L50.0805 50.9089Z" fill="#FFA8A7"/>
<path d="M11.9135 17.1663C10.1652 18.797 9.04617 22.387 11.4912 25.0753C11.1003 25.5334 10.8309 26.082 10.7077 26.671C10.5845 27.2599 10.6114 27.8703 10.786 28.4462C11.1091 29.4726 11.7659 30.3622 12.6526 30.9743C12.3958 31.4741 12.2683 32.03 12.2816 32.5915C12.2948 33.1529 12.4485 33.7022 12.7286 34.1893C13.3353 35.1738 14.2649 35.9182 15.3595 36.2961C15.3595 36.2961 14.8358 37.4549 16.0182 38.976C17.1246 40.396 19.0545 40.4929 19.0545 40.4929C19.0545 40.4929 18.6322 41.6558 19.7555 43.021C20.7775 44.2851 22.6356 44.4579 22.6356 44.4579C22.4462 44.8917 22.3731 45.3673 22.4235 45.8378C22.4738 46.3083 22.6459 46.7577 22.9227 47.1419C23.2147 47.5213 23.3846 47.98 23.4103 48.4576C23.4359 48.9352 23.316 49.4093 23.0663 49.8176C23.8644 49.4295 24.5398 48.8292 25.0181 48.0828C25.4965 47.3364 25.7592 46.4729 25.7774 45.5871C25.9083 43.4803 24.3712 43.1643 24.3712 43.1643C24.3712 43.1643 24.4937 41.0828 23.6744 40.0547C22.7369 38.8749 21.9852 38.9676 21.9852 38.9676C22.0464 37.8969 21.7798 36.8329 21.2209 35.9169C20.3298 34.6528 19.3206 34.7371 19.3206 34.7371C19.3206 34.7371 19.8358 33.0938 19.5106 31.8255C19.1179 30.3002 18.1804 29.9631 18.1804 29.9631C18.483 29.2149 18.5325 28.3886 18.3214 27.6098C18.1102 26.831 17.65 26.1423 17.0106 25.6483C17.1938 25.1547 17.256 24.6245 17.1922 24.1019C17.112 22.8379 16.8797 23.0401 16.7699 21.4137C13.9532 20.1117 13.5858 19.0751 11.9135 17.1663Z" fill="#263238"/>
</svg>
