<svg width="15" height="15" viewBox="0 0 15 15" fill="none" xmlns="http://www.w3.org/2000/svg">
<path fill-rule="evenodd" clip-rule="evenodd" d="M11.9999 3.56562C11.92 3.58798 11.8891 3.64333 11.8482 3.68409C11.1402 4.39034 10.4335 5.09792 9.72596 5.80461C9.67871 5.85176 9.63107 5.90087 9.57582 5.93738C9.42279 6.03866 9.23511 6.01518 9.10874 5.88583C8.98207 5.75624 8.96279 5.56846 9.0671 5.41758C9.10479 5.36306 9.15438 5.31615 9.20163 5.26885C9.90408 4.56563 10.6068 3.86269 11.3107 3.16093C11.3533 3.11841 11.4066 3.08673 11.4573 3.04832C11.3876 2.9771 11.3302 3.00204 11.2803 3.0019C10.6523 2.99975 10.0242 3.0037 9.39614 2.99887C9.09112 2.99653 8.90866 2.71103 9.0426 2.45682C9.1104 2.32815 9.21935 2.25767 9.3673 2.25762C10.3734 2.25733 11.3796 2.25513 12.3857 2.25991C12.5986 2.26094 12.74 2.40435 12.7411 2.62156C12.746 3.62151 12.7458 4.62156 12.7417 5.62157C12.7408 5.84669 12.5857 5.99581 12.3782 5.99883C12.1653 6.00191 12.0031 5.84395 12.0017 5.61449C11.9977 4.99253 12.0001 4.37057 11.9999 3.74857C11.9999 3.69034 11.9999 3.63196 11.9999 3.56562ZM14.9458 1.45617C14.73 0.573317 13.9972 0.0031005 13.0637 0.00163612C11.2152 -0.00139019 9.36685 0.000708704 7.51845 0.000708704C5.66391 0.000708704 3.80941 -0.00095089 1.95486 0.00134325C0.818332 0.00275879 0.00239789 0.812836 0.00166575 1.94512C-0.000579587 5.64806 -0.000530776 9.35105 0.00166575 13.054C0.00234911 14.1857 0.818869 14.998 1.95442 14.9986C5.65126 15.0004 9.34815 15.0004 13.045 14.9986C14.1894 14.998 14.9984 14.1847 14.9988 13.0361C15.0002 9.34539 14.9992 5.6546 14.9997 1.96386C14.9997 1.79253 14.9864 1.62267 14.9458 1.45617ZM3.00026 11.4619C3.06933 11.3964 3.11282 11.357 3.15431 11.3155C3.86174 10.6085 4.56882 9.90105 5.27635 9.19411C5.31935 9.15111 5.36181 9.10606 5.41097 9.07106C5.56629 8.9606 5.763 8.98037 5.89337 9.11465C6.01877 9.24385 6.03683 9.43153 5.93208 9.58333C5.8944 9.63796 5.84524 9.68525 5.79799 9.73255C5.09545 10.4358 4.39276 11.139 3.6886 11.8406C3.64628 11.8828 3.59161 11.9126 3.53812 11.9515C3.61529 12.021 3.67201 11.998 3.72228 11.9982C4.35044 12.0003 4.9786 12.0001 5.60675 11.9995C5.76861 11.9993 5.88888 12.068 5.96117 12.212C6.02731 12.3438 6.01062 12.4728 5.92656 12.5915C5.85027 12.6992 5.74191 12.7435 5.61119 12.7435C4.62325 12.7428 3.63525 12.745 2.64726 12.7419C2.39968 12.7411 2.25867 12.6033 2.25764 12.356C2.25359 11.3681 2.25384 10.3801 2.2572 9.39209C2.25798 9.15555 2.41189 9.00179 2.62588 9.00101C2.84475 9.00023 2.99846 9.16258 2.99933 9.40757C3.00182 10.0784 3.00026 10.7492 3.00026 11.4619ZM14.2432 13.0636C14.2426 13.6538 13.9131 14.0887 13.3717 14.2149C13.2605 14.2408 13.142 14.2431 13.0269 14.2432C9.34226 14.2446 5.65757 14.2448 1.97293 14.244C1.21225 14.2438 0.756742 13.7873 0.756644 13.0266C0.75601 9.34203 0.755961 5.65734 0.756644 1.9727C0.756791 1.21168 1.21171 0.756321 1.97337 0.756174C5.65801 0.755296 9.34265 0.755296 13.0273 0.756174C13.7882 0.756321 14.2432 1.21227 14.2436 1.97314C14.2446 3.82159 14.244 5.66999 14.244 7.51838C14.2439 9.36678 14.2451 11.2152 14.2432 13.0636Z" fill="white"/>
</svg>
