<svg width="7" height="11" viewBox="0 0 7 11" fill="none" xmlns="http://www.w3.org/2000/svg">
<path d="M3.49348 10.9997C3.44236 11.0006 3.39202 10.9862 3.3481 10.9582C3.30418 10.9302 3.26842 10.8896 3.24483 10.841L0.0333118 4.43415C0.00688075 4.38135 -0.00421735 4.3213 0.0014392 4.26169C0.00709575 4.20209 0.0292474 4.14565 0.0650553 4.09964C0.978164 2.86961 2.09125 1.82663 3.35063 1.02098C4.35518 0.340551 5.52198 -0.0138936 6.71029 0.000416823C6.75356 0.00191193 6.79586 0.0145577 6.83362 0.0372541C6.87137 0.0599506 6.90347 0.0920376 6.92722 0.130827C6.95265 0.167826 6.96932 0.210906 6.97577 0.25634C6.98222 0.301774 6.97827 0.348196 6.96426 0.391629L3.75802 10.7956C3.73999 10.851 3.70747 10.8998 3.66432 10.9359C3.62117 10.9721 3.56921 10.9943 3.51465 10.9997H3.49348ZM0.610007 4.32642L3.42999 9.9508L6.31348 0.595749C5.36246 0.677702 4.44314 1.00026 3.63105 1.53693C2.48179 2.2736 1.45978 3.21728 0.610007 4.32642Z" fill="white"/>
</svg>
