<svg width="8" height="15" viewBox="0 0 8 15" fill="none" xmlns="http://www.w3.org/2000/svg">
<path d="M1.12919 14.9998C1.08541 14.9952 1.04321 14.9799 1.00581 14.9551C0.968408 14.9303 0.936819 14.8966 0.913464 14.8567C0.273138 13.6137 -0.0410482 12.208 0.00429787 10.789C0.00429787 7.26066 1.47334 3.16542 3.84639 0.104997C3.87504 0.0699869 3.91072 0.0423962 3.95075 0.0242828C3.99079 0.00616933 4.03412 -0.00199732 4.07752 0.000412843C4.12247 0.00532765 4.16564 0.0219471 4.20324 0.0488078C4.24083 0.0756685 4.27174 0.111956 4.29326 0.154534L7.4111 6.37996C7.43592 6.42922 7.44672 6.4852 7.44216 6.54097C7.43759 6.59673 7.41785 6.64984 7.38541 6.69371L1.33978 14.8897C1.3143 14.9234 1.28226 14.9507 1.24587 14.9698C1.20949 14.9888 1.16966 14.999 1.12919 14.9998ZM3.99021 0.815064C1.8483 3.73237 0.528228 7.51937 0.528228 10.789C0.498878 11.9586 0.718449 13.12 1.17029 14.1852L6.82041 6.47905L3.99021 0.815064Z" fill="white"/>
</svg>
