<svg width="37" height="38" viewBox="0 0 37 38" fill="none" xmlns="http://www.w3.org/2000/svg">
<path d="M34.0789 12.1522C32.3219 13.3761 30.2084 13.8483 28.1325 14.1476C28.2576 15.9102 27.6948 17.6396 27.1446 19.3091C26.7631 20.4665 25.4 24.0915 24.0181 22.0495C23.0365 20.5729 22.1423 19.2293 20.2039 19.5419C17.0025 20.0474 16.571 24.3908 18.5844 27.0314C20.5979 29.672 22.4862 28.661 22.4862 28.661C22.4862 28.661 22.68 33.317 20.2915 36.5961C18.999 37.2591 17.5922 37.6325 16.1584 37.6932C14.7246 37.7538 13.2943 37.5004 11.9564 36.9486C8.91757 35.8046 4.57811 31.581 3.0149 28.3351C-1.28079 19.3889 -1.12447 10.9283 4.37802 8.45402C5.0033 4.23037 8.12971 2.34137 11.6563 1.47004C16.596 0.259482 21.6296 3.665 26.4192 1.61637C27.4322 1.18403 28.3639 0.558797 29.3956 0.192969C29.6737 0.0583525 29.9768 -0.00740323 30.2823 0.00066162C30.5877 0.00872647 30.8874 0.0904066 31.1589 0.239534C31.5643 0.610726 31.8233 1.13085 31.8842 1.69618C32.1691 2.69729 32.0794 3.77675 31.6341 4.70927C32.3436 4.32143 33.1016 4.0437 33.8851 3.8845C34.2778 3.80928 34.681 3.82375 35.068 3.92696C35.455 4.03017 35.817 4.21975 36.1299 4.48313C36.6624 5.04339 36.9695 5.80176 36.9865 6.59828C37.1491 8.81985 35.8235 10.9283 34.0789 12.1522Z" fill="#263238"/>
</svg>
