<svg width="63" height="65" viewBox="0 0 63 65" fill="none" xmlns="http://www.w3.org/2000/svg">
<path d="M62.7244 12.8867L52.4411 0.502508C52.3738 0.386414 52.2837 0.28489 52.1761 0.20392C52.0685 0.122949 51.9457 0.0641711 51.8148 0.031076C51.6839 -0.00201913 51.5477 -0.00875866 51.4141 0.0112338C51.2806 0.0312263 51.1525 0.0775633 51.0373 0.147495C50.8111 0.280693 50.6452 0.495031 50.574 0.746159L37.0619 30.1787L24.3219 22.8901C23.9059 22.6611 23.4196 22.5913 22.9552 22.6939C22.4908 22.7966 22.0805 23.0645 21.8019 23.4471L0 54.6477V64.136C0 64.9087 0.540483 65.222 1.21433 64.8321L61.5101 30.304C61.864 30.0753 62.1585 29.767 62.3696 29.4041C62.5806 29.0411 62.7022 28.6339 62.7244 28.2156V12.9006V12.8867Z" fill="#1A5FFF"/>
</svg>
