<svg width="26" height="6" viewBox="0 0 26 6" fill="none" xmlns="http://www.w3.org/2000/svg">
<path d="M0 5.36114C0.071964 5.2954 0.15196 5.24114 0.237645 5.19997C0.397602 5.10428 0.635257 4.95823 0.94146 4.787C1.55844 4.43445 2.45878 3.94088 3.59218 3.3768C6.53105 1.85869 9.64979 0.805761 12.856 0.249212C16.079 -0.28689 19.372 0.0448799 22.4534 1.21619C23.3794 1.58426 24.2691 2.05507 25.1087 2.62134C25.4103 2.81273 25.6251 2.99907 25.7759 3.12498C25.8557 3.17917 25.9307 3.24156 25.9999 3.31133C25.9999 3.31133 25.6662 3.09981 25.063 2.72208C24.2127 2.196 23.321 1.75603 22.3986 1.40757C19.3313 0.298849 16.071 -0.00299693 12.8788 0.526207C9.69567 1.08093 6.59304 2.09701 3.65159 3.54804C2.51361 4.09196 1.60414 4.55531 0.973455 4.88267L0.251355 5.25034C0.171091 5.29632 0.0868988 5.33343 0 5.36114Z" fill="#263238"/>
</svg>
