<svg width="35" height="84" viewBox="0 0 35 84" fill="none" xmlns="http://www.w3.org/2000/svg">
<path d="M5.0519 29.7849C6.05383 27.6127 8.08806 22.551 8.40989 17.9208L10.7903 15.1717L11.4946 14.361C11.4157 19.0848 14.5308 18.3001 16.6683 16.8918C19.0304 15.3328 20.4938 13.4256 20.7732 11.3677C21.0525 9.30979 21.4351 9.17987 21.4351 9.17987L23.2568 9.47608C23.2568 9.47608 23.7061 21.0752 23.2568 23.8658C22.8074 26.6565 16.4314 31.8948 12.6484 30.2318C11.9851 29.8778 11.477 29.3462 11.2032 28.7196C11.1084 28.5338 10.9484 28.3778 10.7454 28.2733C10.5423 28.1688 10.3064 28.1209 10.0701 28.1364C9.83393 28.1518 9.60915 28.2297 9.427 28.3593C9.24485 28.489 9.11434 28.6639 9.05356 28.8599C8.33703 31.0789 5.9506 32.9549 5.0519 33.0173C4.15319 33.0796 3.94066 32.191 5.0519 29.7849Z" fill="#FA00FF"/>
<path d="M32.0435 11.8144C32.022 11.5818 31.9145 11.3612 31.7365 11.1846C31.5585 11.008 31.3193 10.8845 31.0537 10.8322L17.6156 8.61837C17.553 8.61309 17.49 8.61309 17.4274 8.61837C17.4274 7.28801 17.3302 6.39937 16.134 6.02001C15.3263 5.78096 15.0592 4.74161 15.4417 3.30731C15.8546 1.74829 17.2634 0.776504 18.0103 0.844061C18.6175 0.901225 18.6904 1.82105 18.6904 2.216C18.6904 2.32764 18.7423 2.4347 18.8345 2.51365C18.9267 2.59259 19.0518 2.63693 19.1823 2.63693C19.3127 2.63693 19.4378 2.59259 19.5301 2.51365C19.6223 2.4347 19.6741 2.32764 19.6741 2.216C19.6741 0.355573 18.5872 0.0541624 18.1196 0.00739183C16.6805 -0.11733 14.962 1.35334 14.4762 3.12543C13.7111 5.96804 15.3021 6.67479 15.8061 6.8203C16.3101 6.96581 16.4133 7.37115 16.4133 8.89899H16.3829C16.1644 9.04776 15.9721 9.22279 15.8121 9.41866L2.41657 24.9101C1.56645 25.8923 1.40856 27.1967 2.07045 27.8307C2.17138 27.9323 2.29706 28.0138 2.43866 28.0694C2.58027 28.1251 2.73439 28.1536 2.89022 28.1529C3.1629 28.1452 3.42861 28.0771 3.66141 27.9554L30.5315 14.6778C31.0638 14.3632 31.4859 13.9304 31.7523 13.4258C32.0187 12.9213 32.1194 12.3642 32.0435 11.8144ZM30.1064 14.0126L3.20599 27.2902C2.87808 27.4513 2.78091 27.3526 2.73841 27.3162C2.45301 27.0408 2.46515 26.1469 3.13918 25.3726L16.5712 9.89157C16.9112 9.50181 17.2634 9.37189 17.4456 9.37189L30.8837 11.5857C31.0233 11.5857 31.1144 11.726 31.1569 11.9391C31.2037 12.3327 31.1317 12.7301 30.9478 13.0931C30.7639 13.4562 30.4742 13.7727 30.1064 14.0126Z" fill="#263238"/>
<path d="M33.7986 61.0952C33.7986 61.0952 32.4262 51.2474 30.6106 43.946C29.5176 39.5599 28.716 36.1977 28.6675 31.7025C28.5825 24.0269 28.1817 21.5949 28.1817 21.5949C26.8028 20.2423 25.7244 18.6854 24.9998 17.0009C23.6274 13.727 24.18 9.63199 24.18 9.63199L21.4353 9.17987C21.8239 11.534 21.4353 15.6134 21.2653 18.8562C21.0953 22.0989 19.9901 26.0225 16.6139 27.6334C13.2377 29.2444 12.7276 26.2355 12.3997 23.341C12.0718 20.4464 12.0779 18.1962 11.7925 13.9868L9.04777 17.1672C9.35726 19.9522 9.23884 22.7598 8.69556 25.5184C7.8758 29.4887 7.52968 31.8064 5.39829 32.8925C5.31035 32.9437 5.21109 32.9788 5.10665 32.9958C5.0022 33.0128 4.89478 33.0112 4.79106 32.9913C4.54817 32.9393 4.22633 32.747 4.27491 32.0714C4.15043 33.9269 4.15043 35.7869 4.27491 37.6423C4.54816 42.2934 1.74276 68.3602 0.376482 78.7796C0.139661 81.3104 0 82.9682 0 82.9682C0.98572 83.3466 2.00006 83.6678 3.03617 83.9296C4.47531 84.2154 5.24648 82.3082 5.24648 82.3082C5.75731 82.5004 6.33127 82.5312 6.86615 82.3951C7.40104 82.259 7.86211 81.9649 8.16727 81.5651C8.16727 81.5651 8.39195 83.1657 9.38174 83.5762C10.3715 83.9868 11.8107 82.4901 13.7174 81.8457C15.3266 81.2948 17.4519 80.9363 18.5145 80.3179C19.1932 79.8478 19.6292 79.1686 19.729 78.4263C19.729 78.4263 20.1966 78.7952 21.6357 78.182C22.0807 77.9714 22.4714 77.6862 22.7844 77.3433C23.0974 77.0004 23.3263 76.6069 23.4574 76.1865C23.4574 76.1865 25.9531 75.0536 26.864 74.009C27.4159 73.269 27.6319 72.3817 27.4712 71.5146C28.0393 71.3864 28.5474 71.1117 28.9266 70.7277C29.3057 70.3437 29.5375 69.8691 29.5905 69.3684C29.5905 69.3684 30.9507 68.8955 32.1651 68.4953C33.3796 68.0952 34.339 65.8969 34.339 65.8969C34.339 65.8969 34.1568 63.9378 33.7986 61.0952Z" fill="#FA00FF"/>
<path opacity="0.5" d="M33.7986 61.0952C33.7986 61.0952 32.4262 51.2474 30.6106 43.946C29.5176 39.5599 28.716 36.1977 28.6675 31.7025C28.5825 24.0269 28.1817 21.5949 28.1817 21.5949C26.8028 20.2423 25.7244 18.6854 24.9998 17.0009C23.6274 13.727 24.18 9.63199 24.18 9.63199L21.4353 9.17987C21.8239 11.534 21.4353 15.6134 21.2653 18.8562C21.0953 22.0989 19.9901 26.0225 16.6139 27.6334C13.2377 29.2444 12.7276 26.2355 12.3997 23.341C12.0718 20.4464 12.0779 18.1962 11.7925 13.9868L9.04777 17.1672C9.35726 19.9522 9.23884 22.7598 8.69556 25.5184C7.8758 29.4887 7.52968 31.8064 5.39829 32.8925C5.31035 32.9437 5.21109 32.9788 5.10665 32.9958C5.0022 33.0128 4.89478 33.0112 4.79106 32.9913C4.54817 32.9393 4.22633 32.747 4.27491 32.0714C4.15043 33.9269 4.15043 35.7869 4.27491 37.6423C4.54816 42.2934 1.74276 68.3602 0.376482 78.7796C0.139661 81.3104 0 82.9682 0 82.9682C0.98572 83.3466 2.00006 83.6678 3.03617 83.9296C4.47531 84.2154 5.24648 82.3082 5.24648 82.3082C5.75731 82.5004 6.33127 82.5312 6.86615 82.3951C7.40104 82.259 7.86211 81.9649 8.16727 81.5651C8.16727 81.5651 8.39195 83.1657 9.38174 83.5762C10.3715 83.9868 11.8107 82.4901 13.7174 81.8457C15.3266 81.2948 17.4519 80.9363 18.5145 80.3179C19.1932 79.8478 19.6292 79.1686 19.729 78.4263C19.729 78.4263 20.1966 78.7952 21.6357 78.182C22.0807 77.9714 22.4714 77.6862 22.7844 77.3433C23.0974 77.0004 23.3263 76.6069 23.4574 76.1865C23.4574 76.1865 25.9531 75.0536 26.864 74.009C27.4159 73.269 27.6319 72.3817 27.4712 71.5146C28.0393 71.3864 28.5474 71.1117 28.9266 70.7277C29.3057 70.3437 29.5375 69.8691 29.5905 69.3684C29.5905 69.3684 30.9507 68.8955 32.1651 68.4953C33.3796 68.0952 34.339 65.8969 34.339 65.8969C34.339 65.8969 34.1568 63.9378 33.7986 61.0952Z" fill="white"/>
<path d="M17.1907 30.4708C17.1907 30.8502 17.4215 31.0373 17.713 30.897C17.8779 30.7848 18.0103 30.6416 18.0998 30.4784C18.1894 30.3153 18.2336 30.1366 18.2291 29.9564C18.2291 29.577 17.9984 29.3847 17.713 29.525C17.5461 29.6372 17.412 29.781 17.3214 29.9452C17.2307 30.1093 17.186 30.2893 17.1907 30.4708Z" fill="#37474F"/>
<path d="M17.1907 33.4486C17.1907 33.8279 17.4214 34.0202 17.7129 33.8747C17.8778 33.7626 18.0102 33.6193 18.0998 33.4562C18.1893 33.293 18.2336 33.1143 18.229 32.9341C18.229 32.5547 17.9983 32.3624 17.7129 32.5028C17.5464 32.6152 17.4125 32.7591 17.3219 32.9232C17.2313 33.0873 17.1864 33.2671 17.1907 33.4486Z" fill="#37474F"/>
<path d="M17.1907 36.4263C17.1907 36.8057 17.4215 36.9979 17.713 36.8576C17.8773 36.7439 18.0092 36.5996 18.0987 36.4357C18.1881 36.2718 18.2327 36.0927 18.2291 35.9118C18.2291 35.5325 17.9984 35.3402 17.713 35.4857C17.5462 35.5967 17.4121 35.7396 17.3214 35.903C17.2308 36.0663 17.186 36.2455 17.1907 36.4263Z" fill="#37474F"/>
<path opacity="0.5" d="M8.20979 81.6063C7.90463 82.0062 7.44356 82.3003 6.90868 82.4364C6.3738 82.5725 5.79983 82.5417 5.28901 82.3495C5.28901 82.3495 4.51781 84.2567 3.07867 83.9708C2.04257 83.709 1.02822 83.3878 0.0425039 83.0095C0.0425039 83.0095 0.182165 81.3517 0.418985 78.8209C1.54405 79.1656 2.71143 79.3992 3.89844 79.5173C5.3558 79.564 5.29508 78.057 5.29508 78.057C7.39004 78.7897 8.40411 76.9761 8.40411 76.9761C9.13887 77.8491 10.6691 77.5581 12.4969 76.3421C14.3246 75.126 17.2636 75.3027 18.3324 74.4608C19.4011 73.619 19.8019 71.9664 19.8019 71.9664C20.1545 72.0523 20.5256 72.067 20.886 72.0093C21.2464 71.9516 21.5862 71.8231 21.8786 71.6338C22.6459 71.1059 23.1863 70.3747 23.4149 69.5551C24.3903 69.5178 25.3177 69.1828 26.0295 68.6109C26.7412 68.0389 27.1902 67.2678 27.2951 66.4371C27.7926 66.2369 28.2292 65.9409 28.5705 65.5721C28.9119 65.2033 29.1487 64.7719 29.2626 64.3116C29.2626 64.3116 31.6915 63.792 33.8229 61.126C34.1811 63.9738 34.4301 65.9538 34.4301 65.9538C34.4301 65.9538 33.4646 68.1416 32.2562 68.5522C31.0478 68.9627 29.6815 69.4252 29.6815 69.4252C29.6286 69.9259 29.3968 70.4005 29.0177 70.7845C28.6385 71.1685 28.1303 71.4433 27.5623 71.5715C27.723 72.4385 27.507 73.3259 26.9551 74.0659C26.0442 75.1052 23.5485 76.2433 23.5485 76.2433C23.4174 76.6638 23.1885 77.0572 22.8755 77.4001C22.5625 77.743 22.1718 78.0283 21.7268 78.2389C20.2877 78.8521 19.8201 78.4831 19.8201 78.4831C19.7203 79.2254 19.2843 79.9046 18.6056 80.3747C17.543 80.9931 15.4177 81.3517 13.8085 81.9026C11.9078 82.547 10.4869 84.0436 9.47283 83.6331C8.45875 83.2225 8.20979 81.6063 8.20979 81.6063Z" fill="#FA00FF"/>
<path opacity="0.1" d="M26.7545 43.2548C26.7545 43.2548 28.7037 52.9208 30.6469 69.0358L29.6328 69.384C29.566 66.7856 28.4851 53.747 26.7545 43.2548Z" fill="black"/>
<path opacity="0.1" d="M28.4852 71.1246C28.1923 71.3083 27.8632 71.4456 27.5137 71.5299C27.5683 69.2953 26.8639 59.5047 25.4855 50.0882C25.4855 50.0882 26.7485 53.4973 28.4852 71.1246Z" fill="black"/>
<path opacity="0.1" d="M22.3278 41.0358C23.7426 56.7975 24.7263 74.0507 24.5381 75.6824C23.9308 75.9994 23.4997 76.2021 23.4997 76.2021C23.4268 71.8057 23.4633 60.5599 22.3278 41.0358Z" fill="black"/>
<path opacity="0.1" d="M19.7835 61.4431C19.7835 57.1142 19.3706 50.7326 19.3706 50.7326C19.3706 50.7326 20.3664 57.9249 20.6336 66.8788C20.7975 72.325 20.6336 76.2745 20.4879 78.5403C20.247 78.5867 19.9945 78.5513 19.7835 78.4416C19.9656 75.5574 19.7835 65.7771 19.7835 61.4431Z" fill="black"/>
<path opacity="0.1" d="M13.268 49.9065C13.268 53.6013 13.1405 54.2509 13.1587 58.9592C13.1769 63.6674 13.1951 77.4075 12.8551 79.3771C12.8551 79.3771 12.5818 69.7164 12.5029 64.9718C12.4239 60.2272 12.6911 56.5271 13.268 49.9065Z" fill="black"/>
<path opacity="0.1" d="M10.0677 49.4282C9.13868 57.2233 8.56181 68.5469 8.20961 81.5803L10.0677 49.4282Z" fill="black"/>
<path opacity="0.1" d="M4.54817 83.4306C4.54817 78.9302 4.70604 72.0238 5.2647 66.7439C5.87193 61.0691 6.47916 55.1188 6.47916 55.1188C6.47916 55.1188 6.25448 61.4848 5.73226 66.8218C5.21004 72.1589 5.28898 80.0319 5.31935 82.3237C5.13543 82.7266 4.87485 83.1006 4.54817 83.4306Z" fill="black"/>
</svg>
