<svg width="1" height="12" viewBox="0 0 1 12" fill="none" xmlns="http://www.w3.org/2000/svg">
<path d="M0.546599 0C0.560599 0.157618 0.560599 0.316177 0.546599 0.473795C0.546599 0.828037 0.524625 1.25755 0.511444 1.75792C0.471904 2.90478 0.419185 4.37489 0.362071 6.0044C0.304957 7.63391 0.234666 9.16158 0.173158 10.2464L0.0940803 11.5306C0.0930782 11.689 0.0724089 11.8467 0.0325664 11.9999C0.00143893 11.8441 -0.00743644 11.6845 0.0062071 11.5261C0.0062071 11.2206 0.0062071 10.7822 0.0062071 10.2376C0.0062071 9.15272 0.067714 7.65162 0.129222 5.99554C0.190729 4.33946 0.269806 2.83836 0.344493 1.75349C0.350663 1.16347 0.418411 0.575739 0.546599 0Z" fill="#263238"/>
</svg>
