<svg width="28" height="26" viewBox="0 0 28 26" fill="none" xmlns="http://www.w3.org/2000/svg">
<path d="M27.977 10.8651C27.9571 10.6507 27.8575 10.4474 27.6929 10.2849C27.5282 10.1224 27.3072 10.0093 27.062 9.96202L14.673 7.92087C14.6162 7.91556 14.559 7.91556 14.5022 7.92087C14.5022 6.69409 14.4107 5.87449 13.3127 5.55082C12.5624 5.32635 12.3184 4.37103 12.6722 3.05028C13.0565 1.63557 14.3741 0.716785 15.039 0.774209C15.6063 0.831633 15.649 1.67733 15.649 2.04275C15.649 2.1452 15.6966 2.24346 15.7812 2.31591C15.8659 2.38835 15.9807 2.42906 16.1004 2.42906C16.2207 2.42907 16.3361 2.38853 16.4218 2.31623C16.5074 2.24393 16.5563 2.14568 16.5579 2.04275C16.5579 0.330475 15.5514 0.0485797 15.1244 0.0068169C13.7946 -0.108031 12.2086 1.24403 11.7755 2.87278C11.0741 5.48296 12.5319 6.14594 12.9955 6.28167C13.4591 6.4174 13.6055 6.80371 13.6055 8.19232C13.4055 8.32281 13.2288 8.47757 13.0809 8.65171L0.691969 22.9346C-0.0888219 23.8325 -0.229123 25.0227 0.37477 25.6231C0.467413 25.7173 0.58327 25.7929 0.714038 25.8443C0.844806 25.8958 0.98725 25.9218 1.13117 25.9206C1.38178 25.9144 1.62597 25.8514 1.83876 25.7379L26.6106 13.5014C27.0941 13.2076 27.4762 12.8077 27.7166 12.3438C27.9571 11.8799 28.047 11.3691 27.977 10.8651ZM26.147 12.8906L1.40566 25.1271C1.10066 25.2785 1.00916 25.1898 0.972561 25.1585C0.710264 24.9027 0.722468 24.0778 1.33856 23.3627L13.7153 9.0589C14.0264 8.70392 14.3253 8.56818 14.5205 8.59951L26.9034 10.6354C27.0376 10.6633 27.123 10.7729 27.1596 10.9643C27.2031 11.3316 27.1344 11.7023 26.9601 12.04C26.7858 12.3777 26.5119 12.6708 26.1653 12.8906H26.147Z" fill="#FA00FF"/>
</svg>
