<svg width="91" height="74" viewBox="0 0 91 74" fill="none" xmlns="http://www.w3.org/2000/svg">
<path d="M89.2582 37.8692C86.095 49.7897 77.7094 59.3167 50.8508 65.0529L52.2751 73.4362L41.9371 66.5268C41.7558 66.568 21.6665 67.47 12.006 61.498C-0.241683 53.9224 -2.59947 36.354 4.41522 23.9737C10.4537 13.303 19.4688 6.8239 38.9179 2.59099C60.0526 -2.01333 76.7919 1.51213 84.4147 10.9448C91.0453 19.1158 90.9386 31.5198 89.2582 37.8692Z" fill="white"/>
<path d="M52.275 73.9965C52.1834 73.9961 52.0934 73.9697 52.0136 73.9198L41.7983 67.0929C39.4779 67.199 20.9356 67.6825 11.7605 61.9875C9.04371 60.3048 6.66814 58.024 4.78078 55.2861C2.89341 52.5482 1.53438 49.4114 0.787753 46.0699C-0.0704954 42.2899 -0.229395 38.3573 0.320575 34.5078C0.870545 30.6583 2.11806 26.9711 3.98837 23.6673C10.5123 12.1241 20.2795 6.05768 38.8271 2.01932C59.6311 -2.50836 76.8078 0.681059 84.7986 10.55C91.5679 18.9038 91.4666 31.5554 89.7543 38.0226C85.9295 52.4487 74.818 60.4252 51.4535 65.4953L52.7818 73.3362C52.8057 73.4462 52.7986 73.5616 52.7614 73.667C52.7242 73.7724 52.6587 73.8626 52.5738 73.9257C52.4839 73.985 52.3789 74.0099 52.275 73.9965ZM41.969 65.961C42.0526 65.9646 42.1337 65.9932 42.2037 66.0435L51.5656 72.3163L50.3547 65.1592C50.3363 65.0148 50.367 64.8679 50.4409 64.747C50.5148 64.6262 50.6266 64.5399 50.7547 64.5048C79.5603 58.3618 86.0415 47.9977 88.7674 37.7161C90.4211 31.4846 90.5224 19.3165 84.0358 11.3046C76.2797 1.73634 59.4497 -1.32338 39.0138 3.12766C20.7863 7.09527 11.2058 13.0202 4.87388 24.2568C3.07251 27.4302 1.86907 30.9726 1.33562 34.6721C0.802162 38.3715 0.949658 42.1519 1.76928 45.7869C2.48561 48.9782 3.78566 51.9735 5.58931 54.5884C7.39296 57.2033 9.66201 59.3823 12.2566 60.9912C21.7358 66.8512 41.697 65.9669 41.8837 65.9492L41.969 65.961Z" fill="#455A64"/>
</svg>
