<svg width="5" height="15" viewBox="0 0 5 15" fill="none" xmlns="http://www.w3.org/2000/svg">
<path d="M0 14.8127C0 14.7113 1.02615 14.5997 2.6873 14.4983C3.10604 14.4983 3.50637 14.4222 3.60761 14.118C3.66934 13.6528 3.5986 13.178 3.40514 12.759L2.37439 9.20933C0.947915 4.179 -0.0552188 0.0563532 0.128842 0.000573354C0.312903 -0.0552065 1.62434 3.96602 3.05081 8.99635C3.39132 10.2387 3.71804 11.4202 4.03094 12.546C4.15978 13.0531 4.39445 13.6717 4.14137 14.336C4.07093 14.4908 3.96916 14.6258 3.8439 14.7304C3.71864 14.835 3.57326 14.9065 3.41894 14.9394C3.18426 14.9909 2.94463 15.0097 2.7057 14.9952C1.03074 14.9851 0.00460152 14.9141 0 14.8127Z" fill="#263238"/>
</svg>
