<svg width="287" height="35" viewBox="0 0 287 35" fill="none" xmlns="http://www.w3.org/2000/svg">
<circle cx="17.5" cy="17.5" r="17.5" fill="#D9D9D9"/>
<rect x="11.1626" y="9" width="12.6751" height="17.2039" fill="white" fill-opacity="0.01"/>
<mask id="mask0_443_1175" style="mask-type:luminance" maskUnits="userSpaceOnUse" x="11" y="9" width="13" height="18">
<rect x="11.1626" y="9" width="12.6751" height="17.2039" fill="white"/>
</mask>
<g mask="url(#mask0_443_1175)">
<path fill-rule="evenodd" clip-rule="evenodd" d="M14.2305 14.8019C14.2305 13.9256 14.2295 13.0494 14.2307 12.1732C14.2331 10.327 15.5543 9.01794 17.3977 9.00028C18.2185 8.9924 18.9744 9.14971 19.621 9.67678C20.3502 10.2713 20.757 11.0428 20.7647 11.9865C20.78 13.8667 20.7839 15.7473 20.7648 17.6275C20.7485 19.2388 19.4535 20.5379 17.8436 20.6078C17.1052 20.6398 16.3845 20.5914 15.7352 20.1864C14.7868 19.5948 14.2638 18.7438 14.2367 17.6224C14.214 16.6827 14.232 15.7421 14.232 14.8019C14.2315 14.8019 14.231 14.8019 14.2305 14.8019ZM16.8771 24.9748C16.8771 24.3707 16.8771 23.7848 16.8771 23.2177C16.402 23.0999 15.9184 23.0257 15.4679 22.8609C13.124 22.0031 11.7131 20.3364 11.246 17.8831C11.1854 17.565 11.1751 17.2354 11.1632 16.9103C11.1492 16.5332 11.3931 16.2675 11.7378 16.254C12.1034 16.2396 12.3798 16.4944 12.3845 16.8853C12.3933 17.6321 12.5488 18.3428 12.8603 19.0203C13.7897 21.0418 15.9597 22.2287 18.1892 21.935C20.3746 21.6471 22.1658 19.9308 22.5316 17.7627C22.5824 17.4616 22.589 17.1529 22.6157 16.8477C22.6417 16.5525 22.8283 16.3232 23.0902 16.2654C23.3512 16.2078 23.628 16.3131 23.7496 16.5445C23.8062 16.6524 23.84 16.7873 23.8375 16.9091C23.7949 18.9847 22.9447 20.6612 21.3076 21.93C20.3766 22.6515 19.3067 23.0475 18.1269 23.1774C18.1269 23.7735 18.1269 24.3646 18.1269 24.9748C18.2018 24.9748 18.2703 24.9748 18.3389 24.9748C18.9402 24.9748 19.5416 24.9719 20.143 24.976C20.5053 24.9785 20.7701 25.2407 20.7715 25.5857C20.7729 25.9332 20.5111 26.201 20.1494 26.2016C18.3837 26.2047 16.618 26.2047 14.8523 26.2017C14.4908 26.2011 14.2287 25.933 14.23 25.5856C14.2313 25.238 14.4929 24.9785 14.8578 24.976C15.4591 24.9719 16.0605 24.9748 16.6618 24.9748C16.7306 24.9748 16.7993 24.9748 16.8771 24.9748Z" fill="black"/>
</g>
<circle cx="101.5" cy="17.5" r="17.5" fill="#D9D9D9"/>
<rect x="91.915" y="7.91479" width="19.1704" height="19.1704" fill="white" fill-opacity="0.01"/>
<mask id="mask1_443_1175" style="mask-type:luminance" maskUnits="userSpaceOnUse" x="91" y="7" width="21" height="21">
<rect x="91.915" y="7.91479" width="19.1704" height="19.1704" fill="white"/>
</mask>
<g mask="url(#mask1_443_1175)">
<path fill-rule="evenodd" clip-rule="evenodd" d="M111.093 17.837C111.024 17.7621 111.029 17.6872 111.093 17.6123C111.093 17.6872 111.093 17.7621 111.093 17.837Z" fill="#161616"/>
<path fill-rule="evenodd" clip-rule="evenodd" d="M101.201 27.0924C101.276 27.0252 101.35 27.0265 101.425 27.0924C101.35 27.0924 101.276 27.0924 101.201 27.0924Z" fill="#101010"/>
<path fill-rule="evenodd" clip-rule="evenodd" d="M111.093 17.3878C111.029 17.3129 111.024 17.238 111.093 17.1631C111.093 17.238 111.093 17.3129 111.093 17.3878Z" fill="#161616"/>
<path fill-rule="evenodd" clip-rule="evenodd" d="M101.575 27.0934C101.638 27.0274 101.7 27.0262 101.762 27.0934C101.7 27.0934 101.638 27.0934 101.575 27.0934Z" fill="#101010"/>
<path fill-rule="evenodd" clip-rule="evenodd" d="M91.9588 17.0111C91.966 17.0538 91.979 17.0975 91.915 17.1257C91.915 17.0882 91.915 17.0508 91.915 17.0133C91.9281 16.9973 91.9427 16.9966 91.9588 17.0111Z" fill="#434343"/>
<path fill-rule="evenodd" clip-rule="evenodd" d="M91.915 17.8745C91.979 17.9026 91.966 17.9464 91.9587 17.9891C91.9427 18.0039 91.9282 18.0024 91.915 17.9869C91.915 17.9494 91.915 17.912 91.915 17.8745Z" fill="#434343"/>
<path fill-rule="evenodd" clip-rule="evenodd" d="M101.086 7.96283C101.049 7.96351 101.011 7.96419 100.974 7.96472C100.963 7.95266 100.96 7.9412 100.964 7.93043C100.968 7.92003 100.972 7.91479 100.976 7.91479C101.014 7.91479 101.051 7.91479 101.088 7.91479C101.101 7.92701 101.105 7.93817 101.1 7.94833C101.095 7.95797 101.091 7.96283 101.086 7.96283Z" fill="#4E4E4E"/>
<path fill-rule="evenodd" clip-rule="evenodd" d="M102.026 7.96472C101.989 7.96412 101.952 7.96343 101.915 7.96283C101.901 7.95372 101.896 7.94363 101.9 7.9324C101.904 7.92071 101.908 7.91479 101.912 7.91479C101.95 7.91479 101.987 7.91479 102.024 7.91479C102.036 7.92489 102.04 7.93566 102.037 7.94712C102.034 7.95888 102.03 7.96472 102.026 7.96472Z" fill="#4E4E4E"/>
<path fill-rule="evenodd" clip-rule="evenodd" d="M102.027 27.0575C102.066 27.0587 102.115 27.0155 102.137 27.097C102.099 27.097 102.062 27.097 102.024 27.097C102.012 27.0866 102.008 27.0773 102.013 27.069C102.018 27.0614 102.022 27.0575 102.027 27.0575Z" fill="#7B7B7B"/>
<path fill-rule="evenodd" clip-rule="evenodd" d="M100.899 7.95909C100.869 7.96462 100.835 7.98009 100.826 7.91479C100.851 7.91479 100.876 7.91479 100.901 7.91479C100.914 7.92557 100.918 7.93572 100.913 7.94531C100.908 7.95447 100.904 7.95909 100.899 7.95909Z" fill="#909090"/>
<path fill-rule="evenodd" clip-rule="evenodd" d="M100.899 7.96268C100.901 7.94672 100.901 7.93076 100.901 7.91479C100.926 7.91479 100.951 7.91479 100.976 7.91479C100.976 7.93151 100.976 7.94816 100.974 7.96472C100.949 7.96397 100.924 7.96336 100.899 7.96268Z" fill="#717171"/>
<path fill-rule="evenodd" clip-rule="evenodd" d="M111.056 16.9739C111.05 16.9434 111.039 16.9115 111.101 16.9011C111.101 16.9261 111.101 16.9511 111.101 16.976C111.084 16.9938 111.069 16.9922 111.056 16.9739Z" fill="#747474"/>
<path fill-rule="evenodd" clip-rule="evenodd" d="M91.965 17.0111C91.9483 17.0119 91.9317 17.0126 91.915 17.0133C91.915 16.9883 91.915 16.9633 91.915 16.9384C91.9302 16.9226 91.9466 16.9212 91.9645 16.9366C91.9647 16.9614 91.9648 16.9862 91.965 17.0111Z" fill="#616161"/>
<path fill-rule="evenodd" clip-rule="evenodd" d="M111.055 18.0264C111.047 17.9941 111.048 17.9646 111.101 17.9495C111.101 17.9744 111.101 17.9994 111.101 18.0244C111.087 18.0403 111.072 18.0411 111.055 18.0264Z" fill="#555555"/>
<path fill-rule="evenodd" clip-rule="evenodd" d="M91.915 17.9868C91.9317 17.9875 91.9484 17.9883 91.965 17.9891C91.9648 18.0139 91.9647 18.0387 91.9647 18.0635C91.9467 18.0788 91.9303 18.0774 91.915 18.0617C91.915 18.0367 91.915 18.0118 91.915 17.9868Z" fill="#616161"/>
<path fill-rule="evenodd" clip-rule="evenodd" d="M111.055 18.0262C111.07 18.0256 111.085 18.0249 111.1 18.0242C111.1 18.0491 111.1 18.0741 111.1 18.0991C111.038 18.0889 111.049 18.057 111.055 18.0262Z" fill="#757575"/>
<path fill-rule="evenodd" clip-rule="evenodd" d="M91.915 18.0618C91.9298 18.0623 91.9446 18.0629 91.9594 18.0636C91.9656 18.0945 91.9791 18.1276 91.915 18.1367C91.915 18.1116 91.915 18.0867 91.915 18.0618Z" fill="#818181"/>
<path fill-rule="evenodd" clip-rule="evenodd" d="M91.9594 16.9366C91.9446 16.9373 91.9298 16.9379 91.915 16.9384C91.915 16.9135 91.915 16.8885 91.915 16.8635C91.979 16.8727 91.9656 16.9058 91.9594 16.9366Z" fill="#808080"/>
<path fill-rule="evenodd" clip-rule="evenodd" d="M102.174 7.91479C102.165 7.98009 102.131 7.96462 102.101 7.95909C102.087 7.95021 102.083 7.94062 102.087 7.93047C102.091 7.92004 102.095 7.91479 102.099 7.91479C102.124 7.91479 102.149 7.91479 102.174 7.91479Z" fill="#909090"/>
<path fill-rule="evenodd" clip-rule="evenodd" d="M102.099 7.91487C102.099 7.93091 102.1 7.94687 102.101 7.96276C102.076 7.96344 102.051 7.96419 102.026 7.96472C102.025 7.94808 102.024 7.93151 102.024 7.91479C102.049 7.91487 102.074 7.91487 102.099 7.91487Z" fill="#717171"/>
<path fill-rule="evenodd" clip-rule="evenodd" d="M100.826 27.0995C100.835 27.034 100.869 27.0496 100.899 27.0556C100.913 27.0644 100.917 27.0738 100.913 27.0838C100.909 27.0942 100.905 27.0995 100.901 27.0995C100.876 27.0995 100.851 27.0995 100.826 27.0995Z" fill="#939393"/>
<path fill-rule="evenodd" clip-rule="evenodd" d="M100.901 27.1039C100.901 27.0872 100.9 27.0705 100.899 27.054C100.924 27.0541 100.949 27.0543 100.974 27.0544C100.987 27.0641 100.992 27.0746 100.988 27.086C100.984 27.0978 100.98 27.1039 100.976 27.1039C100.951 27.1039 100.926 27.1039 100.901 27.1039Z" fill="#737373"/>
<path fill-rule="evenodd" clip-rule="evenodd" d="M100.976 27.101C100.976 27.0858 100.975 27.0706 100.974 27.0554C101.006 27.0462 101.036 27.0473 101.051 27.101C101.026 27.101 101.001 27.101 100.976 27.101Z" fill="#565656"/>
<path fill-rule="evenodd" clip-rule="evenodd" d="M101.912 7.91479C101.913 7.93038 101.914 7.94603 101.915 7.96154C101.882 7.96989 101.854 7.96427 101.837 7.91479C101.862 7.91479 101.887 7.91479 101.912 7.91479Z" fill="#363636"/>
<path fill-rule="evenodd" clip-rule="evenodd" d="M101.086 7.96154C101.087 7.94596 101.088 7.93045 101.088 7.91479C101.113 7.91479 101.138 7.91479 101.163 7.91479C101.147 7.96427 101.118 7.96989 101.086 7.96154Z" fill="#363636"/>
<path fill-rule="evenodd" clip-rule="evenodd" d="M102.027 27.0568C102.027 27.0715 102.026 27.0863 102.025 27.101C102 27.101 101.975 27.101 101.95 27.101C101.965 27.0454 101.995 27.0459 102.027 27.0568Z" fill="#565656"/>
<path fill-rule="evenodd" clip-rule="evenodd" d="M111.056 16.9736C111.071 16.9739 111.086 16.9746 111.101 16.9758C111.101 17.0007 111.101 17.0257 111.101 17.0507C111.048 17.0354 111.046 17.0061 111.056 16.9736Z" fill="#555555"/>
<path fill-rule="evenodd" clip-rule="evenodd" d="M111.085 16.7511C111.045 16.5438 111.064 16.3315 111.033 16.1234C110.674 13.7358 109.568 11.7575 107.749 10.1813C106.473 9.07605 104.994 8.37364 103.339 8.03852C102.978 7.96537 102.612 7.96243 102.249 7.91479C102.224 7.91479 102.199 7.91479 102.174 7.91479C102.15 7.94096 102.118 7.93202 102.088 7.93412C102.065 7.93407 102.041 7.93407 102.018 7.93412C101.987 7.93407 101.956 7.93412 101.925 7.93412C101.895 7.93192 101.862 7.94121 101.837 7.91479C101.613 7.91479 101.388 7.91479 101.163 7.91479C101.139 7.94121 101.106 7.93192 101.076 7.93412C101.045 7.93407 101.014 7.93412 100.983 7.93412C100.959 7.93407 100.936 7.93407 100.913 7.93412C100.883 7.93202 100.851 7.94091 100.826 7.91479C100.776 7.91479 100.726 7.91479 100.676 7.91479C100.512 7.95189 100.343 7.93572 100.179 7.95843C98.5312 8.18541 97.0418 8.80528 95.715 9.80296C94.744 10.5331 93.9324 11.4166 93.2974 12.4563C92.6634 13.4945 92.227 14.6081 92.0141 15.8087C91.9609 16.1092 91.96 16.4134 91.9151 16.7137C91.9151 16.7636 91.9151 16.8136 91.9151 16.8635C91.9409 16.8874 91.9325 16.919 91.9344 16.9483C91.9344 16.9711 91.9344 16.9939 91.9344 17.0168C91.9298 17.0534 91.9469 17.0938 91.915 17.1256C91.915 17.3753 91.915 17.6249 91.915 17.8745C91.9468 17.9062 91.9298 17.9465 91.9344 17.9831C91.9343 18.006 91.9344 18.0288 91.9344 18.0516C91.9324 18.081 91.9408 18.1127 91.915 18.1365C91.915 18.1865 91.915 18.2364 91.915 18.2863C91.9494 18.4632 91.9346 18.6445 91.9586 18.8213C92.1417 20.1696 92.6016 21.4189 93.3177 22.5745C93.8442 23.424 94.4929 24.1686 95.251 24.8188C96.328 25.7429 97.5513 26.3932 98.916 26.7799C99.4923 26.9432 100.079 27.0455 100.676 27.0852C100.726 27.0852 100.776 27.0852 100.826 27.0852C100.849 27.0607 100.878 27.0672 100.906 27.0658C100.928 27.0659 100.949 27.0659 100.971 27.0658C100.999 27.0673 101.029 27.0606 101.051 27.0852C101.101 27.0852 101.151 27.0852 101.201 27.0852C101.276 27.0546 101.35 27.0546 101.425 27.0852C101.475 27.0852 101.525 27.0852 101.575 27.0852C101.638 27.0547 101.7 27.0547 101.762 27.0852C101.825 27.0852 101.887 27.0852 101.95 27.0852C101.973 27.0599 102.003 27.0675 102.032 27.0658C102.067 27.0697 102.106 27.0548 102.137 27.0852C102.174 27.0852 102.212 27.0852 102.249 27.0852C102.885 27.0509 103.508 26.9473 104.121 26.7719C105.561 26.3596 106.839 25.6508 107.949 24.6496C108.613 24.0502 109.189 23.3704 109.663 22.6065C110.314 21.5557 110.761 20.4273 110.984 19.2097C111.039 18.9034 111.041 18.5928 111.085 18.2863C111.085 18.2239 111.085 18.1614 111.085 18.099C111.062 18.0784 111.067 18.0506 111.066 18.0242C111.067 17.9978 111.062 17.97 111.085 17.9492C111.085 17.9118 111.085 17.8744 111.085 17.8369C111.055 17.762 111.055 17.6871 111.085 17.6122C111.085 17.5373 111.085 17.4624 111.085 17.3875C111.055 17.3126 111.055 17.2378 111.085 17.1629C111.085 17.1254 111.085 17.088 111.085 17.0505C111.062 17.0299 111.067 17.0021 111.066 16.9757C111.067 16.9493 111.062 16.9215 111.085 16.9008C111.085 16.851 111.085 16.8011 111.085 16.7511ZM101.505 25.8869C96.8867 25.8915 93.1171 22.126 93.1135 17.5045C93.1099 12.8846 96.8728 9.1175 101.496 9.11305C106.115 9.10856 109.883 12.872 109.887 17.4952C109.891 22.1143 106.128 25.8824 101.505 25.8869Z" fill="black"/>
<path fill-rule="evenodd" clip-rule="evenodd" d="M101.09 23.3128C99.3281 23.2538 97.6371 22.3413 96.487 20.4773C96.2496 20.0926 96.4046 19.6657 96.8098 19.5457C97.0766 19.4667 97.3384 19.5749 97.5047 19.8504C97.8543 20.4296 98.3007 20.9156 98.8546 21.3058C100.97 22.7961 104.032 22.1831 105.404 19.9922C105.441 19.9342 105.476 19.8755 105.514 19.8184C105.708 19.5227 106.057 19.4358 106.344 19.6109C106.627 19.7838 106.711 20.1383 106.533 20.4449C106.173 21.0661 105.714 21.6042 105.152 22.052C104.106 22.8853 102.865 23.3129 101.09 23.3128Z" fill="black"/>
<path fill-rule="evenodd" clip-rule="evenodd" d="M106.638 15.1322C106.641 15.7981 106.108 16.3367 105.446 16.3379C104.788 16.3392 104.24 15.7925 104.243 15.1362C104.245 14.4847 104.782 13.9457 105.432 13.9422C106.1 13.9386 106.635 14.4666 106.638 15.1322Z" fill="black"/>
<path fill-rule="evenodd" clip-rule="evenodd" d="M96.3628 15.1465C96.3597 14.4792 96.8895 13.9434 97.5541 13.9419C98.2146 13.9404 98.7597 14.4831 98.7579 15.1405C98.7562 15.7914 98.219 16.3325 97.5693 16.3378C96.9055 16.3432 96.366 15.8105 96.3628 15.1465Z" fill="black"/>
</g>
<circle cx="143.5" cy="17.5" r="17.5" fill="#D9D9D9"/>
<rect x="139.122" y="8.74902" width="8.75624" height="17.502" fill="white" fill-opacity="0.01"/>
<mask id="mask2_443_1175" style="mask-type:luminance" maskUnits="userSpaceOnUse" x="139" y="8" width="9" height="19">
<rect x="139.122" y="8.74902" width="8.75624" height="17.502" fill="white"/>
</mask>
<g mask="url(#mask2_443_1175)">
<path fill-rule="evenodd" clip-rule="evenodd" d="M143.021 26.2511C142.796 26.1558 142.55 26.1563 142.318 26.0865C140.946 25.6726 139.985 24.8042 139.434 23.4849C139.203 22.9314 139.123 22.3477 139.123 21.7498C139.125 18.5026 139.118 15.2555 139.127 12.0084C139.131 10.6399 139.765 9.64438 140.993 9.03576C141.264 8.90143 141.556 8.82448 141.856 8.78277C141.892 8.77778 141.939 8.79764 141.961 8.74902C142.189 8.74902 142.417 8.74902 142.645 8.74902C142.767 8.81386 142.906 8.80048 143.036 8.83432C144.537 9.22607 145.483 10.4432 145.485 12.0028C145.488 14.3157 145.486 16.6285 145.486 18.9413C145.486 19.4141 145.493 19.8871 145.482 20.3596C145.458 21.3888 144.647 22.1975 143.578 22.2696C142.619 22.3345 141.709 21.6008 141.544 20.6351C141.52 20.4935 141.513 20.3524 141.513 20.2102C141.513 17.772 141.514 15.3339 141.51 12.8958C141.509 12.7516 141.549 12.7152 141.689 12.7209C141.974 12.7327 142.259 12.733 142.543 12.7209C142.685 12.7148 142.71 12.765 142.709 12.8939C142.706 15.3207 142.708 17.7473 142.705 20.1741C142.705 20.4096 142.744 20.625 142.904 20.8078C143.115 21.048 143.45 21.137 143.758 21.0309C144.062 20.9265 144.267 20.6602 144.288 20.3446C144.291 20.2935 144.292 20.2422 144.292 20.191C144.292 17.4623 144.293 14.7337 144.292 12.005C144.291 11.0616 143.769 10.3204 142.916 10.0407C141.663 9.63017 140.334 10.5554 140.325 11.8735C140.308 14.078 140.319 16.2826 140.319 18.4872C140.319 19.6094 140.313 20.7317 140.32 21.8538C140.329 23.4323 141.402 24.7193 142.936 25.0055C144.696 25.3341 146.413 24.0906 146.648 22.3199C146.674 22.1269 146.68 21.9344 146.68 21.7409C146.68 18.8015 146.682 15.8621 146.676 12.9226C146.676 12.7555 146.717 12.7117 146.881 12.7204C147.159 12.7351 147.439 12.7315 147.718 12.7213C147.845 12.7166 147.879 12.7499 147.878 12.8796C147.873 14.1386 147.875 15.3975 147.875 16.6565C147.875 18.3597 147.877 20.063 147.874 21.7663C147.872 23.299 147.265 24.5326 146.026 25.441C145.427 25.8798 144.749 26.1285 144.013 26.2184C143.977 26.2227 143.93 26.1975 143.91 26.251C143.613 26.2511 143.317 26.2511 143.021 26.2511Z" fill="black"/>
</g>
<circle cx="185.5" cy="17.5" r="17.5" fill="#D9D9D9"/>
<rect x="176" y="10" width="18.3527" height="14.4217" fill="white" fill-opacity="0.01"/>
<mask id="mask3_443_1175" style="mask-type:luminance" maskUnits="userSpaceOnUse" x="176" y="10" width="19" height="15">
<rect x="176" y="10" width="18.3527" height="14.4217" fill="white"/>
</mask>
<g mask="url(#mask3_443_1175)">
<path fill-rule="evenodd" clip-rule="evenodd" d="M185.832 15.5771C185.832 16.503 185.833 17.4214 185.831 18.3398C185.831 18.4355 185.831 18.5328 185.815 18.6265C185.755 18.9685 185.466 19.1925 185.125 19.1681C184.786 19.144 184.526 18.878 184.524 18.5298C184.518 17.6177 184.521 16.7054 184.521 15.7933C184.521 15.7201 184.521 15.6469 184.521 15.5128C184.257 15.7758 184.033 16.0008 183.808 16.2243C183.623 16.4068 183.406 16.483 183.151 16.4133C182.683 16.2858 182.492 15.7141 182.826 15.3654C183.456 14.7066 184.106 14.066 184.76 13.4302C184.992 13.2047 185.366 13.2119 185.604 13.4434C186.247 14.0701 186.883 14.7048 187.51 15.3484C187.761 15.6061 187.732 16.016 187.48 16.2574C187.226 16.5001 186.836 16.5011 186.57 16.2503C186.335 16.0295 186.109 15.7996 185.879 15.5742C185.876 15.5713 185.867 15.5747 185.832 15.5771ZM180.583 22.4491C180.487 22.4491 180.414 22.4491 180.34 22.4491C179.572 22.4491 178.803 22.4503 178.035 22.4488C176.845 22.4466 176.003 21.6072 176.002 20.4136C175.999 17.6352 176 14.8567 176.001 12.0784C176.002 10.8288 176.825 10.0029 178.075 10.0022C181.526 10.0003 184.977 10.0015 188.427 10.0015C189.724 10.0015 191.021 9.99725 192.317 10.003C193.324 10.0075 194.093 10.6092 194.301 11.5515C194.339 11.724 194.35 11.9053 194.35 12.0826C194.353 14.8473 194.354 17.612 194.351 20.3766C194.35 21.4672 193.694 22.2587 192.657 22.4292C192.542 22.448 192.424 22.448 192.308 22.4482C191.54 22.4498 190.771 22.4491 190.003 22.4491C189.929 22.4491 189.856 22.4491 189.758 22.4491C189.758 22.6177 189.76 22.7667 189.758 22.9156C189.751 23.7953 189.135 24.4155 188.251 24.4191C187.037 24.4241 185.823 24.4204 184.609 24.4204C183.785 24.4204 182.962 24.4219 182.139 24.42C181.198 24.4177 180.586 23.8013 180.583 22.8557C180.582 22.7272 180.583 22.5987 180.583 22.4491ZM185.174 21.1377C187.527 21.1377 189.88 21.1379 192.233 21.1376C192.809 21.1376 193.042 20.9039 193.042 20.3252C193.042 17.5951 193.042 14.8649 193.042 12.1348C193.042 11.5424 192.811 11.3094 192.222 11.3094C187.523 11.3093 182.824 11.3093 178.126 11.3094C177.544 11.3094 177.313 11.5389 177.313 12.1145C177.312 14.8515 177.312 17.5885 177.313 20.3255C177.313 20.919 177.534 21.1376 178.136 21.1377C180.482 21.1378 182.828 21.1377 185.174 21.1377ZM188.428 22.466C186.243 22.466 184.074 22.466 181.894 22.466C181.894 22.5783 181.894 22.6739 181.894 22.7695C181.895 23.1007 181.9 23.1063 182.226 23.1063C184.119 23.1064 186.012 23.1063 187.904 23.1063C188.504 23.1063 188.515 23.0928 188.428 22.466Z" fill="black"/>
</g>
<circle cx="227.5" cy="17.5" r="17.5" fill="#D9D9D9"/>
<circle cx="227.214" cy="11.7857" r="1.78571" transform="rotate(90 227.214 11.7857)" fill="black"/>
<ellipse cx="227.214" cy="17.5001" rx="1.78571" ry="1.78571" transform="rotate(90 227.214 17.5001)" fill="black"/>
<ellipse cx="227.214" cy="23.2142" rx="1.78571" ry="1.78571" transform="rotate(90 227.214 23.2142)" fill="black"/>
<circle cx="269.5" cy="17.5" r="17.5" fill="#FF0051"/>
<rect x="280.106" y="17.5" width="15.0001" height="15.0001" transform="rotate(135 280.106 17.5)" fill="white" fill-opacity="0.01"/>
<mask id="mask4_443_1175" style="mask-type:luminance" maskUnits="userSpaceOnUse" x="258" y="6" width="23" height="23">
<rect x="280.106" y="17.5" width="15.0001" height="15.0001" transform="rotate(135 280.106 17.5)" fill="white"/>
</mask>
<g mask="url(#mask4_443_1175)">
<path fill-rule="evenodd" clip-rule="evenodd" d="M277.206 20.4002C276.972 20.5478 276.725 20.6559 276.441 20.6481C276.12 20.6393 275.844 20.5219 275.611 20.3006C275.132 19.8463 274.628 19.4235 274.063 19.0796C273.826 18.9355 273.579 18.8067 273.341 18.6633C272.987 18.4496 272.806 18.1294 272.755 17.7197C272.669 17.0371 272.57 16.3563 272.471 15.6755C272.465 15.6364 272.417 15.5841 272.377 15.5721C270.859 15.1082 269.32 14.9563 267.754 15.2941C267.383 15.3742 267.016 15.4751 266.645 15.5611C266.559 15.5811 266.531 15.624 266.52 15.7088C266.428 16.4054 266.335 17.1018 266.235 17.7972C266.182 18.1665 265.983 18.4502 265.67 18.647C265.296 18.8832 264.899 19.0868 264.537 19.3412C264.187 19.5873 263.846 19.8554 263.544 20.1576C263.059 20.6444 262.454 20.8271 261.793 20.4002C261.075 19.6821 260.357 18.9639 259.639 18.2458C259.562 18.0502 259.458 17.8605 259.413 17.6578C259.341 17.3285 259.465 17.0311 259.639 16.7542C259.812 16.5816 259.984 16.4089 260.157 16.2363C260.196 16.2078 260.236 16.1806 260.274 16.1505C260.701 15.8105 261.114 15.4517 261.556 15.133C262.789 14.2445 264.144 13.5971 265.602 13.1748C267.912 12.5057 270.244 12.4326 272.591 12.967C274.635 13.4323 276.475 14.3238 278.113 15.631C278.36 15.8281 278.6 16.0343 278.843 16.2363C279.015 16.4089 279.188 16.5816 279.361 16.7542C279.438 16.9498 279.542 17.1394 279.586 17.3422C279.658 17.6712 279.535 17.9691 279.361 18.2458C278.643 18.9639 277.924 19.6821 277.206 20.4002Z" fill="white"/>
</g>
<circle cx="59.5" cy="17.5" r="17.5" fill="#FF0051"/>
<rect x="51" y="9" width="17.054" height="17.054" fill="white" fill-opacity="0.01"/>
<mask id="mask5_443_1175" style="mask-type:luminance" maskUnits="userSpaceOnUse" x="51" y="9" width="18" height="18">
<rect x="51" y="9" width="17.054" height="17.054" fill="white"/>
</mask>
<g mask="url(#mask5_443_1175)">
<path fill-rule="evenodd" clip-rule="evenodd" d="M68.054 21.2576C67.9256 21.6161 67.6816 21.809 67.2902 21.7889C66.9423 21.771 66.6983 21.5525 66.6461 21.2073C66.6329 21.12 66.6307 21.0305 66.6307 20.942C66.6298 19.1717 66.6301 17.4012 66.6301 15.6309C66.6301 15.5669 66.6301 15.5029 66.6301 15.4089C66.5581 15.4569 66.513 15.4847 66.4702 15.5158C65.5097 16.2133 64.5493 16.9111 63.5892 17.6091C63.2165 17.88 62.8409 17.8522 62.5123 17.527C62.3269 17.3435 62.149 17.152 61.9571 16.9756C61.7412 16.7771 61.6549 16.5368 61.657 16.2482C61.6624 15.5156 61.6593 14.7831 61.6587 14.0505C61.6582 13.5191 61.4037 13.2641 60.8736 13.2637C60.1244 13.263 59.3752 13.2658 58.626 13.2627C58.0863 13.2604 57.7716 12.828 57.928 12.3116C58.011 12.0374 58.2284 11.8511 58.5498 11.8474C59.4096 11.8375 60.2727 11.8048 61.1291 11.8619C62.2949 11.9397 63.069 12.8178 63.0814 13.9878C63.0881 14.6204 63.082 15.2532 63.0838 15.8859C63.084 15.9532 63.0986 16.0204 63.1111 16.1272C63.1997 16.0672 63.2535 16.0327 63.3054 15.9955C64.491 15.1455 65.6759 14.2945 66.8622 13.4455C67.2302 13.1821 67.5562 13.1937 67.8497 13.4946C67.9388 13.5859 67.9871 13.717 68.0541 13.8298C68.054 16.3057 68.054 18.7816 68.054 21.2576ZM51.866 9C52.0404 9.13157 52.2319 9.24583 52.3864 9.39765C53.1465 10.1447 53.8969 10.9017 54.6506 11.6553C57.2722 14.2768 59.8938 16.8984 62.5153 19.52C64.2301 21.2348 65.9466 22.9479 67.6569 24.6671C67.8095 24.8206 67.9226 25.0134 68.054 25.188C68.054 25.2879 68.054 25.3878 68.054 25.4877C67.9509 25.7621 67.7739 25.9626 67.4878 26.054C67.3879 26.054 67.288 26.054 67.188 26.054C67.0372 25.9457 66.8682 25.8555 66.7381 25.7264C65.5055 24.5029 64.2796 23.2728 63.0515 22.0448C63.0136 22.0069 62.9731 21.9717 62.9306 21.9323C62.9133 21.9531 62.9004 21.9637 62.8937 21.9774C62.4772 22.8335 61.7746 23.2145 60.842 23.2145C60.1429 23.2145 59.4437 23.2145 58.7446 23.2145C56.8803 23.2144 55.0159 23.2184 53.1515 23.2128C52.1484 23.2097 51.3476 22.6132 51.0848 21.6928C51.0532 21.582 51.0282 21.4693 51 21.3575C51 18.8038 51 16.2502 51 13.6966C51.0105 13.6659 51.0247 13.636 51.0308 13.6046C51.2 12.7272 51.7146 12.1641 52.5706 11.9126C52.6569 11.8872 52.7465 11.8729 52.8559 11.8487C52.3567 11.3496 51.8705 10.8734 51.3975 10.3846C51.247 10.2291 51.1315 10.0398 51 9.86603C51 9.76612 51 9.66617 51 9.56625C51.0988 9.28752 51.2871 9.09836 51.5663 9C51.6662 9 51.7661 9 51.866 9ZM57.0399 21.7904C57.4728 21.7904 57.9057 21.7904 58.3386 21.7904C59.2045 21.7904 60.0704 21.7926 60.9362 21.7894C61.3818 21.7878 61.6509 21.5167 61.6583 21.0736C61.66 20.9737 61.6687 20.8724 61.6554 20.7744C61.6457 20.704 61.6226 20.6201 61.5751 20.5726C59.1682 18.1599 56.7584 15.7503 54.346 13.3432C54.3016 13.2989 54.223 13.2685 54.1596 13.267C53.8434 13.2593 53.5269 13.2632 53.2105 13.2635C52.6756 13.2642 52.4246 13.5121 52.4244 14.0465C52.4235 16.3666 52.4235 18.6866 52.4244 21.0067C52.4246 21.5409 52.676 21.7902 53.2102 21.7903C54.4867 21.7907 55.7633 21.7904 57.0399 21.7904Z" fill="white"/>
</g>
</svg>
