<svg width="27" height="27" viewBox="0 0 27 27" fill="none" xmlns="http://www.w3.org/2000/svg">
<path d="M25.1472 14.986C25.0005 15.2961 21.664 20.4165 22.3253 23.9263H13.8317L13.2391 21.5909C11.3815 22.0497 11.0066 22.0321 9.75792 21.8379C8.50496 21.6438 8.60202 20.3025 8.72115 19.7202C8.84028 19.1333 8.82703 19.0142 8.39907 18.5421C7.97101 18.0701 9.25057 16.3846 7.84757 15.9876C7.74599 15.9611 7.28723 15.9037 7.20332 15.8684C6.86358 15.7449 6.75328 15.3213 6.94307 15.0169L8.93292 12.0696C9.06519 11.849 9.08727 11.5799 8.9858 11.3461L8.81378 10.9666C8.73429 10.7902 8.72557 10.596 8.78287 10.4151C8.78287 10.4151 9.16849 9.17696 9.33437 8.77827C9.33626 8.77369 9.34127 8.76515 9.34321 8.76061C10.6944 5.53871 13.6715 3.07349 17.4305 3.07349C23.7013 3.07349 27.8045 9.47328 25.1516 14.9816C25.1516 14.9816 25.1516 14.986 25.1472 14.986Z" fill="#DDDDDD"/>
<path opacity="0.06" d="M25.1496 14.9799V14.9852C24.9988 15.303 21.6708 20.4118 22.324 23.9274H19.4404C19.3239 23.3295 19.0435 20.6998 21.5674 16.1599C21.832 15.7895 22.0648 15.398 22.2606 14.9852C22.2659 14.9852 22.2659 14.9799 22.2659 14.9799C22.7844 13.9005 23.0754 12.6941 23.0754 11.4189C23.0754 7.29706 20.0171 3.87361 16.001 3.19635C22.8022 2.02353 28.0805 8.94041 25.1496 14.9799Z" fill="black"/>
<path d="M22.3353 24.4456C22.3333 24.4458 22.3292 24.4461 22.3252 24.4456H13.8319C13.5941 24.4456 13.3872 24.2843 13.3284 24.0541L12.8619 22.2153C11.9989 22.4153 11.4984 22.4863 11.0111 22.4863C10.0035 22.4863 8.9786 22.3474 8.49104 21.6453C8.0073 20.9499 8.13508 19.9943 8.21266 19.6158C8.29683 19.202 8.29683 19.202 8.0144 18.891C7.29199 18.0947 8.66366 16.6389 7.5119 16.4558C7.22034 16.4097 7.10068 16.3884 7.00281 16.3473C6.39386 16.1278 6.13292 15.3357 6.50234 14.7422L8.50219 11.7789C8.5964 11.6177 8.41584 11.3906 8.34094 11.1808C8.21012 10.8908 8.19136 10.5632 8.28821 10.2582C8.35679 10.0365 8.77107 8.72438 8.88299 8.52028C10.4174 4.8555 13.7001 2.5542 17.4305 2.5542C24.1109 2.5542 28.4257 9.37848 25.6196 15.2069L25.6191 15.2066C25.4538 15.5459 22.2815 20.4629 22.8191 23.7362C22.8419 23.795 22.8546 23.8591 22.8546 23.9263C22.8546 24.2131 22.6223 24.4456 22.3353 24.4456ZM14.236 23.4071H21.735C21.5217 20.5614 23.1965 17.3881 24.6972 14.7277C27.1483 9.58616 23.3248 3.59267 17.4305 3.59267C14.126 3.59267 11.2104 5.64981 9.82207 8.96143C9.64535 9.39643 9.38807 10.2182 9.27901 10.5693C9.2643 10.6147 9.25518 10.6814 9.28712 10.7531C9.32778 10.9127 9.83939 11.5682 9.37789 12.3367L7.37347 15.3073C7.36029 15.3286 7.37195 15.3722 7.38007 15.3806C7.42926 15.3932 7.55805 15.4118 7.67417 15.43C9.74685 15.761 8.8193 17.6275 8.8252 18.2394C9.34189 18.8215 9.37485 19.1105 9.23034 19.8234C9.1487 20.222 9.13552 20.7534 9.34341 21.0523C9.59552 21.4158 10.8229 21.4478 11.0111 21.4478C11.4913 21.4478 12.0222 21.3565 13.1144 21.0868C13.3943 21.0188 13.6722 21.1864 13.7427 21.463L14.236 23.4071ZM2.58124 23.184C-0.179708 19.6589 -0.179708 14.7351 2.58124 11.2097C2.7582 10.9839 3.08475 10.944 3.30989 11.1213C3.53604 11.298 3.57559 11.6243 3.39862 11.8502C0.933289 14.9983 0.933289 19.3957 3.39862 22.5436C3.57559 22.7695 3.53604 23.0958 3.30989 23.2725C3.08301 23.4508 2.75648 23.4078 2.58124 23.184Z" fill="#293C66"/>
<path d="M4.64702 21.0739C3.04522 18.7518 3.04826 15.6372 4.65362 13.324C4.81689 13.0885 5.13989 13.0294 5.37618 13.1937C5.61146 13.357 5.67028 13.6805 5.5065 13.9163C4.14605 15.8763 4.14402 18.5158 5.50193 20.4842C5.6647 20.7203 5.60537 21.0438 5.36908 21.2065C5.13601 21.3678 4.81155 21.312 4.64702 21.0739Z" fill="#293C66"/>
</svg>
