<svg width="200" height="108" viewBox="0 0 200 108" fill="none" xmlns="http://www.w3.org/2000/svg">
<path d="M178.081 50.3172C190.187 50.3172 200 44.2448 200 36.7541C200 29.2633 190.187 23.1909 178.081 23.1909C165.975 23.1909 156.162 29.2633 156.162 36.7541C156.162 44.2448 165.975 50.3172 178.081 50.3172Z" fill="#E0E0E0"/>
<path d="M38.1638 46.3678L136.209 107.027L181.148 79.2275L83.0781 18.5518L38.1638 46.3678Z" fill="#E0E0E0"/>
<path d="M20.7353 58.3248L0.450477 45.7747C0.319131 45.7269 0.205046 45.6363 0.124248 45.5155C0.0434504 45.3947 0 45.2498 0 45.1011C0 44.9525 0.0434504 44.8076 0.124248 44.6868C0.205046 44.566 0.319131 44.4753 0.450477 44.4276L71.8044 0.278689C72.1418 0.0954696 72.5147 0 72.893 0C73.2713 0 73.6442 0.0954696 73.9817 0.278689L94.2715 12.8341C94.4029 12.8819 94.517 12.9726 94.5978 13.0934C94.6786 13.2142 94.722 13.3591 94.722 13.5077C94.722 13.6564 94.6786 13.8013 94.5978 13.9221C94.517 14.0429 94.4029 14.1335 94.2715 14.1813L22.9126 58.3248C22.5752 58.508 22.2022 58.6035 21.824 58.6035C21.4457 58.6035 21.0727 58.508 20.7353 58.3248Z" fill="#E0E0E0"/>
</svg>
