<svg width="8" height="6" viewBox="0 0 8 6" fill="none" xmlns="http://www.w3.org/2000/svg">
<path d="M1.29373 4.05091C1.45226 3.36191 1.79802 2.7145 2.30305 2.16104C3.28678 2.11967 4.2596 1.96565 5.19551 1.70307C5.61961 1.60411 6.00292 1.40564 6.30217 1.13008C6.60142 0.854522 6.80468 0.512842 6.88898 0.143635C6.99059 -0.436079 2.82464 0.926251 2.82464 0.926251C2.1438 1.1815 1.54122 1.56814 1.0641 2.05592C0.586971 2.5437 0.248238 3.11937 0.0744297 3.73786C-0.0152397 4.03595 -0.0240099 4.34766 0.0487857 4.64911C0.121581 4.95055 0.274019 5.23374 0.494419 5.477C0.887305 5.73207 1.56469 6.17266 4.17264 4.71178C5.3777 3.9691 6.65866 3.32106 7.9999 2.77554V1.61611L1.97791 4.51468L1.29373 4.05091Z" fill="#F0997A"/>
</svg>
