<svg width="8" height="9" viewBox="0 0 8 9" fill="none" xmlns="http://www.w3.org/2000/svg">
<path d="M0.00180927 9.00003C0.00180927 8.92822 1.15796 8.34578 2.92973 7.16493C3.96099 6.47667 4.86858 5.59857 5.6099 4.57183C6.51558 3.3344 6.94254 1.77615 6.80359 0.215418C6.60839 0.0558425 7.06635 0.422866 7.0138 0.390951H6.87116H6.72851C6.63092 0.390951 6.53332 0.390949 6.44323 0.438822C6.35314 0.486694 6.06786 0.526606 5.88017 0.582458C5.51603 0.683955 5.15966 0.814641 4.81411 0.973409C4.16111 1.27469 3.54986 1.66929 2.99729 2.14629C2.05687 2.96044 1.31086 3.99933 0.820122 5.1782C0.391973 6.28615 0.138333 7.46145 0.0693739 8.65695C0.000514514 8.33522 -0.0172476 8.00351 0.0168217 7.67556C0.0601402 6.7793 0.245425 5.89725 0.564871 5.06651C1.04316 3.82638 1.80117 2.73034 2.77207 1.87501C3.34174 1.3636 3.97922 0.944199 4.66396 0.630328C5.02242 0.45626 5.39412 0.314797 5.77507 0.207455C5.97026 0.151604 6.16546 0.0957509 6.36816 0.0558571L6.66845 0H6.81861H6.96875L7.18647 0.175534C7.34865 1.84624 6.88469 3.51754 5.89518 4.82714C5.1185 5.87926 4.16052 6.76471 3.07237 7.4362C2.34527 7.89299 1.59318 8.3033 0.820122 8.66494C0.558761 8.80587 0.284578 8.91814 0.00180927 9.00003Z" fill="#FAFAFA"/>
</svg>
