<svg width="260" height="200" viewBox="0 0 260 200" fill="none" xmlns="http://www.w3.org/2000/svg">
<path d="M180.073 81.1838C186.553 80.6417 193.136 80.0996 199.582 80.8492C206.027 81.5987 212.41 83.8407 215.905 87.7491C218.841 91.035 219.415 95.1107 219.912 98.9589L224.181 132.187C224.548 135.004 224.872 137.929 223.587 140.606C220.741 146.462 210.262 149.226 201.91 147.399C198.201 146.604 194.72 145.024 191.717 142.773C188.713 140.521 186.261 137.653 184.536 134.375C181.558 128.553 181.178 122.248 180.833 116.065L178.933 82.3951L179.776 81.8597" fill="#263238"/>
<path d="M0 138.598L2.01026 145.444L193.972 199.452L260 157.236V151.481L0 138.598Z" fill="#263238"/>
<path d="M68.8599 107.612L260 151.481L193.972 193.222L0 138.598L68.8599 107.612Z" fill="#455A64"/>
<path d="M169.705 145.277L133.147 162.396L66.1247 144.688L99.0279 127.275L169.705 145.277Z" fill="#263238"/>
<path d="M129.395 144.554L139.101 147.66L148.089 142.928L133.133 138.277L124.401 142.667L129.395 144.554Z" fill="#455A64"/>
<path d="M57.5927 96.8774C57.8967 98.0552 66.1242 144.688 66.1242 144.688L133.133 162.396L124.311 112.511L57.5927 96.8774Z" fill="#263238"/>
<path d="M128.269 134.857C128.366 134.857 129.541 140.994 130.888 148.596C132.235 156.199 133.25 162.383 133.147 162.396C133.043 162.409 131.882 156.259 130.535 148.657C129.188 141.054 128.173 134.87 128.269 134.857Z" fill="#455A64"/>
<path d="M97.1692 128.405C97.9843 130.447 97.1692 132.648 95.3592 133.331C93.5493 134.014 91.4216 132.909 90.6065 130.868C89.7913 128.827 90.6065 126.625 92.4095 125.943C94.2125 125.26 96.354 126.364 97.1692 128.405Z" fill="#455A64"/>
<path d="M124.311 112.511C127.295 109.165 129.029 86.4108 129.029 86.4108L151.135 88.82C151.135 88.82 147.95 122.155 137.851 126.157L127.744 130.172" fill="#FFBE9D"/>
<path d="M196.936 119.652C196.936 119.652 206.718 130.273 206.13 139.12L188.77 135.104L195.464 119.625" fill="#3E78FD"/>
<path d="M210.883 89.9309C210.455 71.3327 202.87 62.231 202.559 61.0532C199.751 58.0829 196.336 55.7122 192.53 54.0921C188.723 52.472 184.611 51.6381 180.453 51.6436L159.846 51.9649C154.553 52.5762 149.403 54.0396 144.607 56.2948L144.096 56.4354V56.5358C138.266 59.4871 132.007 64.0781 131.019 71.8213L128.525 86.8993L142.853 87.5685C141.395 92.6146 139.785 93.2637 141.471 98.2429L146.928 107.017C146.928 114.01 146.445 109.774 144.227 124.946L199.575 137.661C202.787 134.596 200.342 126.284 191.776 111.179C190.498 108.917 197.136 86.1631 197.136 86.1631L209.502 90.3191" fill="#3E78FD"/>
<path d="M146.085 81.7996C145.948 82.1296 145.782 82.4475 145.588 82.7499C145.243 83.3523 144.745 84.2089 144.158 85.2864C143.025 87.4346 141.443 90.5466 141.291 94.2609C141.202 95.9932 141.525 97.7223 142.238 99.3137C142.855 100.603 143.642 101.808 144.579 102.901C145.374 103.844 146.065 104.567 146.534 105.083C146.789 105.332 147.02 105.603 147.225 105.892C146.941 105.665 146.675 105.417 146.431 105.149C145.933 104.668 145.208 103.965 144.358 103.028C143.374 101.942 142.551 100.728 141.913 99.4207C141.156 97.7893 140.811 96.007 140.904 94.2207C140.987 92.4498 141.362 90.7031 142.017 89.0475C142.544 87.7023 143.177 86.3979 143.909 85.1458C144.524 84.075 145.063 83.2318 145.436 82.6563C145.629 82.3544 145.846 82.0679 146.085 81.7996Z" fill="#263238"/>
<path d="M208.873 73.8423L208.714 73.9761C208.604 74.0564 208.445 74.1903 208.224 74.3442C207.56 74.7761 206.836 75.1163 206.075 75.3548C204.107 76.024 200.956 76.1244 197.392 75.0804C195.61 74.5718 193.724 73.8222 191.7 73.0726C189.573 72.2133 187.33 71.6521 185.04 71.4062C182.505 71.2166 179.955 71.4659 177.51 72.1424C174.875 72.8704 172.281 73.7327 169.739 74.7257C167.184 75.7269 164.562 76.5587 161.891 77.2153C159.383 77.8205 156.78 77.9657 154.216 77.6436C151.926 77.2432 149.696 76.5688 147.578 75.6358C145.574 74.806 143.73 74.0029 141.975 73.4474C140.411 72.9385 138.786 72.6302 137.139 72.5306C135.893 72.4639 134.644 72.5858 133.437 72.8919C132.41 73.1836 131.439 73.6357 130.563 74.2304C130.563 74.2304 130.611 74.1836 130.722 74.0966C130.832 74.0096 130.998 73.8891 131.226 73.7419C131.902 73.3304 132.631 73.0086 133.395 72.7849C134.616 72.4463 135.885 72.3016 137.153 72.3566C138.826 72.4323 140.481 72.7272 142.072 73.2333C143.847 73.7753 145.705 74.5717 147.709 75.3882C149.809 76.3139 152.017 76.9882 154.285 77.3959C156.809 77.7032 159.37 77.5511 161.836 76.9475C164.491 76.2931 167.097 75.4635 169.635 74.4647C172.187 73.4665 174.793 72.6041 177.441 71.8814C179.927 71.1985 182.52 70.9514 185.095 71.1519C187.411 71.4082 189.677 71.9851 191.824 72.8652C193.855 73.6281 195.72 74.3844 197.482 74.9064C201.005 75.9638 204.1 75.8902 206.055 75.2878C207.069 74.9582 208.021 74.4698 208.873 73.8423Z" fill="#263238"/>
<path d="M191.878 107.09C191.738 107.162 191.59 107.218 191.436 107.257L190.138 107.659C188.538 108.15 186.903 108.528 185.247 108.79C184.105 108.964 182.948 109.032 181.793 108.991C180.455 108.923 179.13 108.698 177.848 108.321C175.133 107.558 172.384 106.16 169.379 105.049C167.911 104.524 166.406 104.106 164.875 103.797C163.444 103.532 161.997 103.355 160.543 103.269C158.075 103.149 155.601 103.313 153.172 103.757C151.526 104.057 149.909 104.489 148.337 105.049C147.777 105.223 147.356 105.417 147.066 105.517C146.92 105.583 146.767 105.633 146.61 105.665C146.748 105.586 146.891 105.514 147.038 105.45C147.321 105.33 147.729 105.122 148.288 104.922C149.851 104.308 151.47 103.837 153.124 103.516C155.568 103.032 158.065 102.841 160.557 102.947C162.03 103.026 163.495 103.198 164.944 103.463C166.494 103.772 168.019 104.195 169.503 104.728C172.543 105.845 175.271 107.244 177.945 108.014C179.201 108.383 180.497 108.607 181.806 108.683C182.96 108.737 184.117 108.686 185.261 108.529C186.909 108.289 188.54 107.949 190.145 107.512L191.464 107.17C191.599 107.13 191.738 107.103 191.878 107.09Z" fill="#263238"/>
<path d="M166.782 126.726C166.473 126.734 166.164 126.702 165.863 126.632C165.033 126.493 164.211 126.305 163.404 126.07C161.332 125.521 158.638 124.383 155.543 123.5C152.92 122.683 150.124 122.535 147.426 123.072C146.329 123.359 145.28 123.796 144.31 124.37C144.31 124.37 144.359 124.303 144.483 124.209C144.659 124.066 144.846 123.936 145.042 123.821C145.759 123.378 146.542 123.044 147.364 122.831C149.436 122.235 152.503 122.275 155.653 123.165C158.803 124.055 161.463 125.227 163.487 125.842C164.496 126.157 165.325 126.378 165.898 126.512C166.199 126.557 166.495 126.629 166.782 126.726Z" fill="#263238"/>
<g opacity="0.1">
<path d="M192.328 85.8216C192.328 85.8216 183.306 105.089 191.174 117.684L194.863 116.346L191.775 111.126C191.566 110.334 191.531 109.509 191.672 108.703C192.128 105.959 193.005 101.482 194.179 96.9712L192.328 85.8216Z" fill="black"/>
</g>
<path d="M177.268 16.2742C181.717 20.0354 183.7 25.9515 183.845 31.6668C183.99 37.3821 183.472 43.8671 183.61 49.83L192.632 49.656C198.593 49.83 205.35 49.221 211.056 48.7927C212.01 48.8015 212.95 48.5709 213.784 48.1234C215.097 47.2601 215.394 45.5402 215.574 44.0143C215.857 41.6117 216.126 39.1288 215.415 36.8133C214.703 34.4977 212.727 32.3628 210.24 32.1888C209.363 32.1286 208.444 32.3093 207.629 31.988C207.167 31.7606 206.766 31.4305 206.46 31.0246C206.154 30.6187 205.951 30.1486 205.868 29.6524C205.64 28.6753 205.674 27.6447 205.522 26.6676C205.273 25.1893 204.617 23.8035 203.624 22.6554C202.631 21.5073 201.337 20.6393 199.878 20.1425C198.027 19.5334 195.796 19.4732 194.58 17.9741C193.102 16.1739 194.069 13.5705 194.152 11.2817C194.205 9.69043 193.788 8.11745 192.95 6.7481C192.111 5.37875 190.886 4.27009 189.419 3.55273C187.952 2.83537 186.304 2.53921 184.669 2.69915C183.034 2.85908 181.48 3.46843 180.19 4.45543" fill="#263238"/>
<path d="M170.291 62.5922C167.572 62.5859 164.96 61.5639 162.999 59.7389C161.038 57.9139 159.879 55.4265 159.763 52.7945C159.57 48.3909 159.411 44.2148 159.411 44.2148C159.411 44.2148 150.714 43.4318 150.092 35.1265C149.47 26.8212 149.733 7.64743 149.733 7.64743C154.48 5.32398 159.782 4.27078 165.091 4.59668C170.399 4.92258 175.521 6.61575 179.928 9.50123L181.261 10.3779L180.867 52.4465C180.842 55.147 179.716 57.7285 177.735 59.6287C175.754 61.5289 173.079 62.5941 170.291 62.5922Z" fill="#FFBE9D"/>
<path d="M153.547 23.4017C153.722 23.2323 153.841 23.0165 153.889 22.7815C153.937 22.5465 153.912 22.303 153.818 22.0817C153.723 21.8603 153.563 21.6712 153.357 21.5381C153.151 21.405 152.91 21.3339 152.662 21.3339C152.415 21.3339 152.173 21.405 151.968 21.5381C151.762 21.6712 151.602 21.8603 151.507 22.0817C151.413 22.303 151.388 22.5465 151.436 22.7815C151.484 23.0165 151.603 23.2323 151.778 23.4017C151.894 23.515 152.032 23.605 152.183 23.6664C152.335 23.7278 152.498 23.7594 152.662 23.7594C152.827 23.7594 152.99 23.7278 153.142 23.6664C153.293 23.605 153.431 23.515 153.547 23.4017Z" fill="#263238"/>
<path d="M150.465 20.8584C150.61 20.9989 151.412 20.3163 152.593 20.2427C153.774 20.1691 154.666 20.7045 154.79 20.5505C154.914 20.3966 154.7 20.2293 154.306 19.975C153.778 19.6562 153.158 19.5083 152.538 19.5528C151.917 19.5973 151.327 19.8319 150.852 20.2226C150.507 20.5305 150.396 20.8249 150.465 20.8584Z" fill="#263238"/>
<path d="M164.136 21.5679C163.934 21.7056 163.778 21.8983 163.688 22.1218C163.599 22.3452 163.58 22.5894 163.634 22.8233C163.688 23.0571 163.812 23.2703 163.991 23.4358C164.17 23.6012 164.396 23.7115 164.639 23.7527C164.883 23.794 165.134 23.7642 165.36 23.6673C165.586 23.5704 165.778 23.4106 165.91 23.2083C166.043 23.0059 166.11 22.77 166.104 22.5304C166.098 22.2909 166.019 22.0584 165.877 21.8624C165.686 21.5999 165.396 21.4214 165.069 21.3662C164.743 21.311 164.407 21.3835 164.136 21.5679Z" fill="#263238"/>
<path d="M163.356 21.1128C163.501 21.2533 164.302 20.5707 165.484 20.4971C166.665 20.4234 167.556 20.9588 167.681 20.8049C167.805 20.651 167.591 20.4837 167.204 20.2294C166.676 19.9095 166.056 19.7617 165.435 19.8077C164.814 19.8488 164.222 20.0836 163.75 20.477C163.398 20.7848 163.287 21.0525 163.356 21.1128Z" fill="#263238"/>
<path d="M159.163 30.0069C158.539 29.8098 157.885 29.717 157.228 29.7325C156.918 29.7325 156.669 29.6655 156.641 29.5049C156.609 29.2055 156.667 28.9036 156.807 28.6349C157.063 27.8586 157.318 27.0756 157.595 26.2524C158.672 22.8594 159.405 20.0686 159.225 20.0151C159.045 19.9615 158.03 22.692 156.945 26.0383C156.697 26.8681 156.455 27.6578 156.213 28.4341C156.038 28.8318 156.006 29.2751 156.123 29.6923C156.175 29.8036 156.252 29.9019 156.349 29.9796C156.446 30.0574 156.56 30.1125 156.683 30.1407C156.858 30.1732 157.037 30.1844 157.215 30.1742C158.417 30.1942 159.163 30.1006 159.163 30.0069Z" fill="#263238"/>
<path d="M163.087 31.0442C164.275 30.2612 159.805 32.9917 157.394 33.0519C157.832 33.6292 158.46 34.045 159.174 34.231C159.889 34.4171 160.647 34.3624 161.325 34.0758C163.84 32.985 163.087 31.0442 163.087 31.0442Z" fill="white"/>
<path d="M159.363 44.0944C163.327 43.9316 167.152 42.6267 170.347 40.3466C170.347 40.3466 168.088 46.4903 159.48 46.2494L159.363 44.0944Z" fill="#EB996E"/>
<path d="M180.66 27.5174C177.559 29.94 173.801 23.6692 172.136 19.7408C170.471 15.8123 169.96 11.4623 169.718 7.17241C169.635 5.76701 169.621 4.22775 170.464 3.1235C171.307 2.01925 171.659 3.31088 172.723 2.29364C174.554 0.540223 172.813 0.533533 174.643 0.74769C177.773 1.11577 184.591 6.36932 185.164 9.54821C185.738 12.7271 185.275 15.993 184.812 19.192C184.598 20.6509 184.384 22.1166 184.177 23.5755C184.102 24.613 183.796 25.6223 183.279 26.5336C182.705 27.3902 181.579 27.9457 180.66 27.5174Z" fill="#263238"/>
<path d="M180.771 20.644C180.771 20.3205 180.899 20.0093 181.129 19.775C181.36 19.5407 181.674 19.4013 182.008 19.3859C183.611 19.3457 186.229 19.9614 186.477 24.2445C186.83 30.3547 180.757 28.8288 180.737 28.6548C180.716 28.4808 180.757 23.0265 180.771 20.644Z" fill="#FFBE9D"/>
<path d="M182.125 26.2526C182.125 26.2526 182.243 26.3195 182.429 26.3931C182.559 26.446 182.699 26.4732 182.84 26.4732C182.981 26.4732 183.121 26.446 183.251 26.3931C183.907 26.1187 184.412 25.0546 184.377 23.9638C184.365 23.4374 184.23 22.9204 183.983 22.4513C183.912 22.2643 183.794 22.0967 183.642 21.9628C183.489 21.8288 183.305 21.7324 183.106 21.6817C182.978 21.6541 182.844 21.672 182.729 21.7322C182.613 21.7924 182.524 21.8909 182.477 22.0096C182.401 22.1836 182.477 22.3041 182.415 22.3174C182.353 22.3308 182.27 22.2171 182.312 21.9627C182.336 21.8104 182.414 21.6709 182.533 21.5679C182.7 21.4311 182.916 21.3637 183.134 21.3805C183.395 21.4155 183.643 21.5152 183.854 21.6699C184.064 21.8246 184.23 22.0291 184.336 22.2639C184.638 22.7789 184.804 23.3582 184.819 23.9504C184.819 25.1818 184.26 26.3731 183.362 26.6742C183.196 26.7325 183.019 26.7532 182.844 26.7346C182.67 26.716 182.501 26.6587 182.353 26.5671C182.146 26.3998 182.104 26.266 182.125 26.2526Z" fill="#EB996E"/>
<path d="M170.43 3.16381C169.523 5.97879 167.971 8.55903 165.891 10.7121C163.811 12.8651 161.256 14.5354 158.417 15.5983C158.187 15.7172 157.931 15.7795 157.67 15.7795C157.41 15.7795 157.154 15.7172 156.924 15.5983C156.399 15.1968 156.6 14.3535 157.042 13.865C157.484 13.3764 158.099 13.0351 158.423 12.4663L155.211 14.2264C154.703 14.542 154.142 14.7685 153.553 14.8956C153.257 14.9567 152.949 14.9425 152.66 14.8546C152.37 14.7667 152.11 14.6079 151.902 14.3937C151.807 14.2825 151.737 14.1533 151.696 14.0144C151.656 13.8754 151.645 13.7298 151.666 13.5868C151.687 13.4438 151.738 13.3065 151.817 13.1839C151.896 13.0612 152 12.9559 152.123 12.8745C151.398 14.0256 149.54 14.1327 148.469 13.2694C147.965 12.8014 147.604 12.2072 147.427 11.5527C147.25 10.8982 147.264 10.2091 147.467 9.56176C147.893 8.26997 148.671 7.11373 149.719 6.21555C154.161 2.0261 160.62 0.506923 166.803 0.0986855C168.709 -0.0894487 170.634 -0.0082918 172.516 0.339613C174.381 0.741158 177.269 0.593929 180.633 4.16099" fill="#263238"/>
<path d="M155.246 17.7329C155.177 17.927 154.051 17.6794 152.662 17.7329C151.274 17.7864 150.148 18.034 150.072 17.8533C149.996 17.6727 151.101 17.0636 152.641 17.0369C154.182 17.0101 155.322 17.5656 155.246 17.7329Z" fill="#263238"/>
<path d="M167.867 17.8737C167.798 18.0611 166.706 17.8269 165.366 17.7667C164.026 17.7064 162.921 17.8202 162.865 17.6261C162.81 17.4321 163.936 16.997 165.401 17.0707C166.865 17.1443 167.936 17.6997 167.867 17.8737Z" fill="#263238"/>
<path d="M184.384 14.2864C184.28 14.2262 184.619 13.6172 184.86 12.5732C185.182 11.221 185.103 9.8081 184.632 8.49751C184.131 7.19794 183.265 6.05986 182.132 5.21153C181.254 4.54229 180.591 4.29467 180.633 4.18759C180.674 4.08051 181.399 4.1876 182.422 4.80999C183.76 5.61153 184.778 6.82874 185.31 8.26299C185.842 9.69723 185.856 11.2638 185.351 12.707C184.957 13.7979 184.446 14.3333 184.384 14.2864Z" fill="#455A64"/>
<path d="M192.329 85.8216L197.247 115.489L157.643 129.818L164.054 142.627L205.73 130.012C209.013 129.011 211.807 126.884 213.587 124.031C215.368 121.178 216.013 117.793 215.402 114.512L210.076 85.835L192.329 85.8216Z" fill="#FFBE9D"/>
<path d="M157.884 129.731C157.884 129.731 150.513 127.455 146.976 126.578C145.595 126.237 139.702 129.255 135.626 131.758C135.626 131.758 130.017 134.984 130.473 135.975C130.97 137.072 133.043 136.845 136.338 135.346C136.338 135.346 135.184 138.578 137.45 138.511C137.45 138.511 136.324 142.011 138.445 142.373C140.566 142.734 141.063 138.27 142.928 138.029C144.793 137.788 148.662 137.547 148.662 137.547C148.662 137.547 151.874 142.707 154.368 143.069C156.862 143.43 164.288 142.613 164.288 142.613L157.884 129.731Z" fill="#FFBE9D"/>
<path d="M142.963 131.149C141.167 132.521 139.226 133.705 137.174 134.683C138.027 133.957 138.952 133.316 139.937 132.769C140.885 132.129 141.899 131.587 142.963 131.149Z" fill="#EB996E"/>
<path d="M143.598 133.137C142.522 133.808 141.384 134.381 140.2 134.85C139.065 135.42 137.879 135.886 136.656 136.242C137.727 135.568 138.863 134.994 140.048 134.529C141.184 133.959 142.373 133.493 143.598 133.137Z" fill="#EB996E"/>
<path d="M142.452 137.942C141.693 138.216 140.897 138.38 140.089 138.431C139.292 138.605 138.473 138.666 137.658 138.611C138.415 138.333 139.211 138.166 140.02 138.116C140.817 137.942 141.637 137.883 142.452 137.942Z" fill="#EB996E"/>
</svg>
