<svg width="74" height="59" viewBox="0 0 74 59" fill="none" xmlns="http://www.w3.org/2000/svg">
<path opacity="0.2" d="M44.2831 0.155006L30.4952 6.96317C18.1609 14.4584 7.28625 36.0436 4.1601 42.529C2.43111 45.9938 1.03968 49.5749 0 53.2357C0 53.2357 5.09064 57.5975 9.83462 58.2586L10.9902 55.3802C10.9902 55.3802 14.9253 57.3477 21.8648 56.4993V58.9925C21.8648 58.9925 28.9504 59.2163 35.1297 57.1864V53.2357C35.1297 53.2357 38.9371 52.7413 44.6237 48.952L45.5847 51.8304C49.4122 50.4839 52.9312 48.5684 55.9789 46.1725L54.2516 41.8628C54.2516 41.8628 56.4107 41.1965 60.1329 37.5791L61.4283 40.0566C63.8794 38.3252 65.9885 36.2672 67.6746 33.9616L65.7162 28.996C65.7162 28.996 67.4495 26.5288 69.5296 23.9784L70.746 25.9667C70.746 25.9667 72.1935 24.7383 73.4646 20.4337C73.4707 20.4494 58.0163 -2.07274 44.2831 0.155006Z" fill="black"/>
</svg>
