<svg width="5" height="5" viewBox="0 0 5 5" fill="none" xmlns="http://www.w3.org/2000/svg">
<path d="M0.000445041 0.545405C0.000445041 0.545405 -0.0356033 0.422691 0.541169 0.13126C0.762605 0.00791557 1.01737 -0.030013 1.26214 0.0239031C1.26214 0.0239031 3.42503 0.369007 4.70113 4.1346C4.7216 4.2967 4.68908 4.46136 4.60901 4.60099C4.52895 4.74061 4.40621 4.8467 4.26136 4.90152C4.19911 4.94584 4.12898 4.97613 4.05531 4.99049C3.98163 5.00484 3.90597 5.00298 3.833 4.98501C3.76003 4.96704 3.69131 4.93334 3.63106 4.88601C3.57081 4.83867 3.52031 4.7787 3.4827 4.70979C3.4827 4.70979 2.09125 0.752475 0.000445041 0.545405Z" fill="#FAFAFA"/>
</svg>
