<svg width="163" height="127" viewBox="0 0 163 127" fill="none" xmlns="http://www.w3.org/2000/svg">
<path d="M9.90447 21.1774C9.92293 21.2194 9.93636 21.2638 9.94444 21.3096L10.0422 21.7012C10.0914 21.917 10.1522 22.1295 10.2243 22.3375C10.3042 22.5822 10.3886 22.871 10.5174 23.1793L10.7128 23.6688L10.966 24.1974C11.0529 24.3917 11.1508 24.5797 11.2591 24.7603C11.3702 24.9463 11.4679 25.1519 11.6011 25.3477C12.8488 27.3585 14.596 28.9304 16.6335 29.8752C17.2516 30.1604 17.8925 30.3816 18.5478 30.536C19.2448 30.6884 19.9492 30.7963 20.6575 30.859C22.1099 31.0157 23.6822 31.1038 25.1879 31.7694C26.7087 32.5124 28.0572 33.6252 29.1321 35.0244C30.2697 36.3538 31.1894 37.8907 31.8503 39.5666C32.1491 40.3757 32.3319 41.231 32.3922 42.102C32.4439 42.9341 32.3961 43.7701 32.2501 44.5885C31.9531 46.0885 31.5522 47.5612 31.0508 48.9937C30.6233 50.2363 30.305 51.5214 30.1003 52.8311C29.9343 53.9113 29.9721 55.0177 30.2114 56.0811C30.3922 56.8833 30.7202 57.6363 31.1752 58.2935C31.4626 58.7105 31.8144 59.0684 32.2145 59.3507C32.4855 59.5416 32.6587 59.615 32.6587 59.6248C32.5045 59.5576 32.3559 59.4757 32.2145 59.3801C31.805 59.1043 31.4439 58.7495 31.1485 58.3327C30.6779 57.6754 30.3374 56.9167 30.1492 56.1056C29.8979 55.0297 29.8511 53.9083 30.0115 52.8115C30.2143 51.4944 30.5295 50.2013 30.9531 48.9496C31.4462 47.5158 31.8412 46.0433 32.1346 44.5444C32.2726 43.7381 32.3174 42.9158 32.2678 42.0971C32.2084 41.2439 32.027 40.4064 31.7304 39.6155C31.0741 37.957 30.1636 36.4354 29.0388 35.1174C27.9781 33.7375 26.648 32.6398 25.148 31.9065C23.6778 31.2457 22.1188 31.1576 20.662 30.9961C19.9494 30.927 19.2407 30.8159 18.5389 30.6632C17.8706 30.5153 17.2164 30.299 16.5846 30.0172C14.5299 29.057 12.7746 27.4561 11.5345 25.4113C11.4013 25.2155 11.2991 25.0099 11.1925 24.819C11.0871 24.6339 10.9907 24.4428 10.9038 24.2464L10.6551 23.7177L10.4641 23.2283C10.3545 22.9507 10.2596 22.6663 10.1798 22.3766C10.1131 22.1668 10.0582 21.9527 10.0155 21.7354C9.97997 21.5641 9.94888 21.4319 9.93111 21.339C9.91855 21.2859 9.90964 21.2319 9.90447 21.1774Z" fill="#455A64"/>
<path d="M18.9344 15.9891L19.0321 16.087L19.3075 16.3807C19.4274 16.5128 19.5606 16.689 19.7516 16.8701C19.9426 17.0512 20.0892 17.3204 20.2668 17.6141C20.7155 18.3188 21.084 19.0816 21.3639 19.8852C21.744 20.9475 21.9703 22.069 22.0346 23.2087C22.0648 23.8703 22.0425 24.5336 21.968 25.191C21.8771 25.9032 21.7375 26.6067 21.5505 27.2957C21.1818 28.725 20.6621 30.1933 20.2713 31.8037C20.0792 32.6249 19.9705 33.467 19.947 34.3146C19.9297 35.1985 20.0118 36.0814 20.1913 36.9431C20.5663 38.7704 21.3169 40.4785 22.3855 41.9356C23.4571 43.3802 24.7819 44.5721 26.2807 45.4402C27.6717 46.2595 29.1703 46.8343 30.7223 47.1435C32.2058 47.447 33.6449 47.5253 34.9774 47.7504C36.2249 47.9146 37.4366 48.3188 38.5573 48.9447C40.1565 49.9324 41.408 51.4839 42.1105 53.3499C42.3008 53.8512 42.4495 54.3706 42.5547 54.9015C42.5813 55.0826 42.5991 55.2196 42.6169 55.3224C42.6199 55.3697 42.6199 55.4171 42.6169 55.4644C42.6169 55.4644 42.6169 55.4154 42.5858 55.3224C42.5547 55.2294 42.5414 55.0875 42.5103 54.9113C42.4007 54.3864 42.2521 53.8724 42.0661 53.3744C41.7546 52.5934 41.3466 51.8637 40.8536 51.206C40.2003 50.3349 39.4011 49.6104 38.4995 49.072C37.3856 48.4596 36.1831 48.067 34.9463 47.9119C33.6138 47.6917 32.1791 47.6183 30.6823 47.3197C29.1159 47.0066 27.6027 46.4287 26.1963 45.6066C24.6791 44.729 23.3378 43.5238 22.2522 42.0629C21.1769 40.5899 20.4177 38.8681 20.0314 37.0263C19.8556 36.1507 19.7751 35.2552 19.7916 34.3587C19.8156 33.4995 19.9258 32.6459 20.1203 31.8135C20.4978 30.1885 21.0441 28.7201 21.4172 27.3006C21.6126 26.6205 21.7611 25.9251 21.8614 25.2204C21.9406 24.5717 21.9659 23.9163 21.9369 23.2625C21.8348 21.2725 21.2437 19.3506 20.2269 17.7022C20.0536 17.4036 19.8715 17.1687 19.725 16.9485C19.5784 16.7282 19.4318 16.5667 19.3163 16.459L19.0543 16.1506C19.0099 16.1009 18.9698 16.0468 18.9344 15.9891Z" fill="#455A64"/>
<path d="M41.0047 51.0642C40.8998 51.1922 40.7838 51.3086 40.6582 51.4117C40.4273 51.632 40.0853 51.9354 39.6544 52.2976C38.5369 53.2489 37.3746 54.1345 36.1722 54.9505C34.9688 55.7662 33.7279 56.5128 32.4546 57.1874C31.966 57.4468 31.5663 57.6475 31.2909 57.7747C31.1493 57.8541 31.0004 57.9164 30.8468 57.9607C30.979 57.8685 31.1171 57.7867 31.2598 57.716L32.4058 57.0846C33.3696 56.5462 34.6843 55.763 36.0878 54.8086C37.4914 53.8541 38.7172 52.9095 39.5878 52.2046L40.6138 51.3628C40.7368 51.2521 40.8675 51.1523 41.0047 51.0642Z" fill="#455A64"/>
<path d="M38.6195 49.0084C38.5098 49.0979 38.3923 49.1749 38.2686 49.2384L37.3003 49.816C36.4831 50.3055 35.3638 51.0005 34.1512 51.8179C32.9387 52.6353 31.8727 53.4282 31.1088 54.0107L30.2204 54.7057C30.1119 54.7948 29.9976 54.8749 29.8784 54.9456C29.972 54.8373 30.0746 54.739 30.1849 54.6519C30.3892 54.4708 30.6913 54.2212 31.0732 53.9177C31.8239 53.3059 32.8898 52.5031 34.1024 51.6808C35.3149 50.8585 36.4475 50.1782 37.2781 49.723C37.6956 49.488 38.0332 49.3069 38.273 49.1895C38.3839 49.1189 38.4998 49.0583 38.6195 49.0084Z" fill="#455A64"/>
<path d="M35.1995 48.2155C34.9851 48.4216 34.7547 48.6067 34.5111 48.7686C34.0669 49.0867 33.4673 49.5175 32.7833 49.9727C32.0993 50.4279 31.473 50.8145 31.0067 51.0886C30.7633 51.2484 30.5077 51.3844 30.2427 51.4949C30.467 51.3105 30.7047 51.1468 30.9534 51.0054L32.7034 49.8503L34.4533 48.6903C34.6883 48.5071 34.9381 48.3482 35.1995 48.2155Z" fill="#455A64"/>
<path d="M32.0104 44.055C31.8522 44.2151 31.6778 44.3547 31.4908 44.4711L30.2072 45.4207L28.9324 46.3996C28.7648 46.5466 28.5831 46.6729 28.3906 46.7765C28.5291 46.5896 28.6905 46.4249 28.8702 46.287C29.1812 46.0129 29.6209 45.6556 30.1228 45.2787C30.6247 44.9018 31.091 44.5837 31.4552 44.3683C31.6274 44.2381 31.814 44.1328 32.0104 44.055Z" fill="#455A64"/>
<path d="M31.7571 40.3448C31.7571 40.3693 31.3796 40.5945 30.7711 40.9811C30.1626 41.3678 29.332 41.9307 28.457 42.6062C27.582 43.2816 26.8181 43.9571 26.2806 44.4563C25.9974 44.7407 25.7009 45.0087 25.3923 45.2591C25.4529 45.1672 25.5213 45.082 25.5966 45.0045C25.7343 44.8479 25.9431 44.6325 26.2051 44.3682C27.5733 43.0069 29.0872 41.835 30.7133 40.8784C31.0242 40.6973 31.2818 40.5602 31.4595 40.4672C31.5534 40.4121 31.6534 40.371 31.7571 40.3448Z" fill="#455A64"/>
<path d="M30.0917 37.4668C30.1139 37.506 28.5549 38.7443 26.6095 40.2421C24.6641 41.7398 23.0562 42.9145 23.0562 42.8803C23.0562 42.846 24.5886 41.5979 26.534 40.105C28.4794 38.6122 30.065 37.4277 30.0917 37.4668Z" fill="#455A64"/>
<path d="M28.7638 34.2216C28.6714 34.3149 28.5701 34.397 28.4618 34.4664C28.2397 34.6328 27.9599 34.8433 27.6223 35.088C26.9117 35.6117 25.9345 36.3459 24.873 37.178C23.8114 38.0101 22.8698 38.7932 22.208 39.361L21.3997 40.0365C21.3051 40.1247 21.2024 40.2018 21.0932 40.2665C21.1732 40.1606 21.2641 40.0654 21.3641 39.9826C21.5418 39.8113 21.8083 39.5666 22.1414 39.268C22.8076 38.6758 23.7404 37.8779 24.8064 37.0458C25.8723 36.2138 26.8584 35.4893 27.5823 34.9901C27.9466 34.7405 28.2441 34.5447 28.4707 34.4125C28.5622 34.338 28.6604 34.274 28.7638 34.2216Z" fill="#455A64"/>
<path d="M26.0232 32.4254C26.0499 32.4596 24.7263 33.5169 23.074 34.7846C21.4217 36.0523 20.0582 37.041 20.0315 37.0068C20.0049 36.9725 21.3329 35.9104 22.9852 34.6476C24.6374 33.3847 26.001 32.3862 26.0232 32.4254Z" fill="#455A64"/>
<path d="M23.1492 30.6143C22.6786 31.1395 22.1707 31.6223 21.6302 32.0583C21.1229 32.5402 20.584 32.9803 20.0179 33.3749C20.4905 32.8445 20.9982 32.3537 21.5369 31.9065C22.045 31.433 22.5839 31.0011 23.1492 30.6143Z" fill="#455A64"/>
<path d="M21.2127 26.0672C21.015 26.3084 20.7979 26.5295 20.5643 26.7279C20.1512 27.1146 19.5649 27.6383 18.8987 28.1963C18.2324 28.7543 17.6151 29.2144 17.1576 29.5424C16.9196 29.7325 16.6652 29.8965 16.3981 30.0318C16.6179 29.8149 16.8525 29.6169 17.0998 29.4396C17.544 29.0872 18.148 28.6026 18.8098 28.0593C19.4716 27.516 20.0668 27.0069 20.4976 26.6398C20.7217 26.4282 20.9609 26.2367 21.2127 26.0672Z" fill="#455A64"/>
<path d="M22.0477 22.9738C21.957 23.07 21.8572 23.1554 21.7501 23.2283C21.5592 23.385 21.2705 23.6003 20.9151 23.8597C20.2 24.3835 19.1962 25.0834 18.0636 25.8176C16.931 26.5518 15.8784 27.1489 15.11 27.5699C14.728 27.7804 14.4127 27.9468 14.195 28.0593C14.0853 28.1258 13.9691 28.1784 13.8486 28.216C13.949 28.1351 14.0561 28.0646 14.1684 28.0055L15.0567 27.472C15.8118 27.0266 16.8333 26.4001 17.9837 25.6757C19.1341 24.9512 20.1245 24.2758 20.8529 23.7765L21.7146 23.1892C21.8178 23.1035 21.9296 23.0313 22.0477 22.9738Z" fill="#455A64"/>
<path d="M20.7156 19.6699C20.6145 19.7694 20.506 19.8595 20.3913 19.9391C20.1781 20.1055 19.8672 20.3404 19.4763 20.6292C18.6991 21.197 17.6153 21.9704 16.4028 22.7976C15.1902 23.6248 14.0843 24.3492 13.2937 24.8582C12.8895 25.1127 12.5608 25.3183 12.3298 25.4553C12.2133 25.5311 12.0915 25.5966 11.9656 25.6511C12.0691 25.5549 12.1807 25.4697 12.2988 25.3966L13.2404 24.7554L16.3495 22.6556L19.4586 20.5313L20.4002 19.8852C20.4989 19.8026 20.6045 19.7305 20.7156 19.6699Z" fill="#455A64"/>
<path d="M137.583 117.245C137.56 117.269 137.232 116.907 136.592 116.305C136.272 116.006 135.877 115.644 135.397 115.257C134.856 114.819 134.286 114.427 133.692 114.083C133.349 113.889 132.992 113.725 132.626 113.593C132.241 113.439 131.836 113.359 131.426 113.358C131.224 113.358 131.025 113.41 130.845 113.51C130.668 113.611 130.527 113.775 130.445 113.975C130.359 114.194 130.318 114.431 130.325 114.67C130.329 114.927 130.359 115.183 130.414 115.434C130.533 115.964 130.706 116.478 130.929 116.966C131.163 117.484 131.425 117.986 131.715 118.468C132.959 120.493 134.517 122.261 136.317 123.691C136.742 124.027 137.187 124.331 137.649 124.601C138.085 124.864 138.547 125.071 139.026 125.218C139.251 125.287 139.482 125.328 139.714 125.34C139.93 125.354 140.145 125.316 140.345 125.228C140.533 125.146 140.689 124.995 140.789 124.802C140.884 124.606 140.937 124.388 140.945 124.166C140.958 123.714 140.898 123.263 140.767 122.834C140.646 122.426 140.498 122.029 140.323 121.645C140.027 120.981 139.687 120.341 139.306 119.731C138.968 119.193 138.657 118.752 138.391 118.385C137.867 117.666 137.547 117.289 137.569 117.264C137.591 117.24 137.667 117.338 137.831 117.509C137.996 117.68 138.222 117.935 138.502 118.282C138.846 118.703 139.171 119.142 139.475 119.599C139.881 120.206 140.244 120.847 140.558 121.518C140.739 121.913 140.895 122.322 141.025 122.741C141.174 123.213 141.245 123.71 141.233 124.21C141.229 124.485 141.165 124.755 141.047 124.998C140.919 125.258 140.716 125.463 140.47 125.58C140.225 125.693 139.961 125.744 139.697 125.732C139.437 125.723 139.179 125.682 138.928 125.61C138.424 125.458 137.937 125.245 137.476 124.973C136.994 124.682 136.531 124.355 136.09 123.994C134.245 122.544 132.654 120.736 131.395 118.659C131.096 118.164 130.828 117.647 130.591 117.112C130.361 116.596 130.184 116.052 130.063 115.492C130.002 115.215 129.973 114.931 129.974 114.646C129.967 114.353 130.022 114.063 130.134 113.799C130.248 113.53 130.44 113.311 130.68 113.177C130.904 113.057 131.151 112.995 131.4 112.996C131.846 113.001 132.289 113.094 132.706 113.27C133.082 113.424 133.447 113.609 133.798 113.823C134.396 114.188 134.967 114.606 135.504 115.071C135.979 115.483 136.366 115.859 136.672 116.182C136.978 116.506 137.205 116.765 137.352 116.946C137.498 117.127 137.591 117.235 137.583 117.245Z" fill="#455A64"/>
<path d="M133.323 118.419C133.35 118.419 133.221 118.909 133.052 119.78C132.968 120.221 132.874 120.759 132.799 121.385C132.713 122.094 132.677 122.809 132.692 123.524C132.701 123.937 132.74 124.348 132.808 124.753C132.872 125.184 133.006 125.598 133.203 125.977C133.304 126.162 133.44 126.321 133.603 126.442C133.765 126.558 133.956 126.616 134.149 126.608C134.361 126.602 134.568 126.545 134.758 126.442C134.959 126.328 135.147 126.189 135.317 126.026C135.68 125.679 136.007 125.288 136.29 124.861C136.59 124.41 136.861 123.937 137.103 123.446C138.112 121.359 138.767 119.087 139.035 116.74C139.093 116.186 139.118 115.629 139.11 115.071C139.103 114.542 139.042 114.015 138.928 113.5C138.87 113.26 138.79 113.027 138.688 112.805C138.595 112.6 138.461 112.419 138.298 112.277C138.145 112.145 137.958 112.07 137.765 112.061C137.569 112.057 137.375 112.101 137.196 112.188C136.838 112.372 136.511 112.624 136.232 112.932C135.965 113.222 135.718 113.535 135.495 113.867C135.102 114.438 134.752 115.041 134.447 115.673C134.18 116.231 133.976 116.731 133.816 117.142C133.496 117.969 133.35 118.439 133.323 118.429C133.327 118.307 133.349 118.186 133.39 118.072C133.447 117.842 133.541 117.509 133.678 117.093C133.816 116.677 134.007 116.158 134.26 115.58C134.548 114.922 134.885 114.292 135.268 113.696C135.492 113.346 135.743 113.018 136.019 112.717C136.318 112.37 136.671 112.087 137.063 111.88C137.282 111.771 137.52 111.716 137.76 111.719C138.02 111.726 138.271 111.822 138.48 111.993C138.682 112.166 138.849 112.384 138.968 112.634C139.087 112.879 139.179 113.139 139.244 113.407C139.37 113.948 139.439 114.503 139.448 115.062C139.463 115.639 139.441 116.216 139.381 116.789C139.122 119.191 138.452 121.516 137.405 123.642C137.154 124.153 136.87 124.644 136.557 125.11C136.256 125.56 135.909 125.969 135.522 126.329C135.33 126.507 135.119 126.66 134.895 126.784C134.667 126.915 134.415 126.988 134.158 127C133.9 127.006 133.646 126.926 133.43 126.77C133.232 126.617 133.065 126.42 132.941 126.192C132.731 125.775 132.591 125.318 132.528 124.846C132.462 124.424 132.429 123.997 132.43 123.568C132.427 122.837 132.482 122.106 132.595 121.385C132.675 120.845 132.78 120.309 132.91 119.78C133.017 119.344 133.119 119.012 133.19 118.801C133.213 118.666 133.258 118.537 133.323 118.419Z" fill="#455A64"/>
<path d="M134.78 116.163C134.78 116.197 134.336 116.324 133.585 116.628C133.203 116.78 132.741 116.975 132.213 117.235C131.62 117.527 131.05 117.871 130.507 118.263C130.192 118.485 129.895 118.737 129.619 119.016C129.32 119.301 129.071 119.645 128.886 120.03C128.795 120.22 128.743 120.431 128.735 120.646C128.731 120.861 128.788 121.072 128.899 121.248C129.014 121.436 129.166 121.594 129.343 121.708C129.537 121.836 129.742 121.939 129.956 122.017C130.416 122.172 130.889 122.27 131.369 122.31C131.874 122.347 132.382 122.347 132.888 122.31C133.957 122.241 135.017 122.059 136.055 121.767C137.094 121.481 138.107 121.088 139.079 120.592C139.539 120.355 139.984 120.085 140.412 119.785C140.817 119.508 141.191 119.179 141.527 118.806C141.685 118.628 141.822 118.429 141.935 118.214C142.045 118.019 142.115 117.8 142.14 117.572C142.16 117.361 142.121 117.147 142.028 116.961C141.929 116.768 141.792 116.601 141.629 116.471C141.297 116.238 140.93 116.072 140.545 115.982C140.182 115.883 139.812 115.816 139.439 115.781C138.792 115.725 138.141 115.725 137.494 115.781C136.921 115.83 136.428 115.899 136.023 115.962C135.224 116.099 134.784 116.212 134.775 116.178C134.873 116.119 134.978 116.078 135.086 116.055C135.291 115.987 135.597 115.899 136.001 115.806C136.405 115.713 136.89 115.624 137.476 115.556C138.135 115.479 138.799 115.462 139.461 115.507C139.849 115.533 140.234 115.595 140.612 115.693C141.037 115.788 141.443 115.97 141.806 116.231C142.007 116.378 142.176 116.572 142.299 116.799C142.431 117.046 142.489 117.332 142.464 117.617C142.441 117.899 142.361 118.171 142.228 118.414C142.103 118.652 141.954 118.874 141.784 119.075C141.432 119.48 141.039 119.838 140.612 120.142C140.173 120.458 139.716 120.741 139.244 120.989C138.245 121.502 137.204 121.906 136.134 122.198C135.074 122.496 133.989 122.678 132.897 122.741C132.374 122.773 131.85 122.763 131.329 122.712C130.823 122.668 130.323 122.558 129.841 122.384C129.601 122.298 129.372 122.182 129.157 122.036C128.938 121.889 128.751 121.692 128.606 121.459C128.465 121.221 128.394 120.94 128.402 120.656C128.413 120.389 128.478 120.128 128.593 119.893C128.802 119.475 129.079 119.104 129.41 118.796C129.703 118.514 130.017 118.259 130.347 118.033C130.914 117.652 131.508 117.325 132.124 117.054C132.584 116.845 133.054 116.662 133.532 116.505C133.923 116.378 134.234 116.295 134.442 116.246C134.55 116.198 134.664 116.17 134.78 116.163Z" fill="#455A64"/>
<path d="M137.018 118.987C137.075 119.239 137.063 119.504 136.984 119.748C136.904 119.992 136.761 120.205 136.572 120.359C136.383 120.514 136.156 120.603 135.921 120.615C135.686 120.628 135.453 120.564 135.251 120.43C135.049 120.297 134.888 120.1 134.787 119.866C134.686 119.631 134.651 119.369 134.686 119.112C134.721 118.856 134.824 118.616 134.982 118.424C135.14 118.232 135.346 118.096 135.575 118.033C135.881 117.95 136.204 118.003 136.475 118.182C136.745 118.361 136.941 118.65 137.018 118.987Z" fill="#455A64"/>
<path d="M161.282 96.5158L161.149 96.4473L160.763 96.2319L159.275 95.3802L153.807 92.2134H153.856L137.014 99.3057L136.863 99.3694L136.907 99.1981L137.422 97.1472C138.599 92.4679 139.714 88.0383 140.691 84.1421V84.1128L150.019 76.4086L152.684 74.2354L153.39 73.6627L153.572 73.5208C153.61 73.4849 153.633 73.4702 153.638 73.4767L153.581 73.5306L153.403 73.6872L152.71 74.2745L150.081 76.482L140.78 84.24L140.807 84.196C139.83 88.1117 138.724 92.5169 137.551 97.2108C137.373 97.9108 137.2 98.6107 137.036 99.2617L136.929 99.154L153.807 92.1106H153.834L159.275 95.3264L160.745 96.2025L161.127 96.4375L161.282 96.5158Z" fill="#FF2000"/>
<path d="M139.177 99.0806L138.169 99.4085L137.844 100.51L137.249 99.5554H136.197L136.836 98.6352L136.512 97.5339L137.502 97.9206L138.351 97.2402L138.324 98.4002L139.177 99.0806Z" fill="#FF2000"/>
<path d="M142.086 83.7849L141.451 84.0394L141.278 84.7638L140.86 84.1764L140.181 84.2205L140.563 83.5989L140.314 82.9038L140.967 83.1094L141.491 82.6346L141.513 83.3835L142.086 83.7849Z" fill="#FF2000"/>
<path d="M154.838 73.0019L154.376 73.7703L154.683 74.622L153.879 74.3724L153.239 74.9597L153.204 74.0395L152.502 73.5501L153.284 73.2319L153.488 72.3411L154.008 73.0606L154.838 73.0019Z" fill="#FF2000"/>
<path d="M162.304 95.5467L161.838 96.3152L162.149 97.1668L161.345 96.9172L160.701 97.5046L160.669 96.5844L159.963 96.0949L160.745 95.7768L160.954 94.8859L161.469 95.6054L162.304 95.5467Z" fill="#FF2000"/>
<path d="M154.469 91.7728L154.172 92.2623L154.372 92.8056L153.856 92.6441L153.448 93.021L153.43 92.4336L152.977 92.1204L153.479 91.9148L153.608 91.347L153.941 91.812L154.469 91.7728Z" fill="#FF2000"/>
<path d="M110.981 13.9765C111.74 8.85404 108.587 4.02372 103.939 3.18765C99.2903 2.35157 94.9071 5.82634 94.1484 10.9488C93.3897 16.0712 96.5429 20.9015 101.191 21.7376C105.839 22.5737 110.223 19.0989 110.981 13.9765Z" fill="#FF2000"/>
<g opacity="0.3">
<path d="M101.446 15.4018C101.446 15.7048 101.364 16.001 101.211 16.253C101.059 16.5049 100.841 16.7013 100.587 16.8172C100.333 16.9332 100.054 16.9635 99.7842 16.9044C99.5146 16.8453 99.2668 16.6994 99.0724 16.4851C98.878 16.2709 98.7456 15.9979 98.6919 15.7007C98.6383 15.4035 98.6658 15.0955 98.7711 14.8156C98.8763 14.5356 99.0545 14.2963 99.2831 14.128C99.5117 13.9597 99.7805 13.8698 100.055 13.8698C100.424 13.8698 100.778 14.0312 101.038 14.3185C101.299 14.6058 101.446 14.9955 101.446 15.4018Z" fill="white"/>
</g>
<g opacity="0.3">
<path d="M99.4914 10.9771C99.4914 11.1533 99.444 11.3255 99.3552 11.472C99.2663 11.6185 99.1401 11.7327 98.9924 11.8001C98.8447 11.8675 98.6821 11.8851 98.5253 11.8508C98.3685 11.8164 98.2245 11.7316 98.1114 11.607C97.9984 11.4824 97.9214 11.3237 97.8902 11.1509C97.859 10.9781 97.875 10.7989 97.9362 10.6362C97.9974 10.4734 98.101 10.3343 98.2339 10.2364C98.3669 10.1385 98.5231 10.0862 98.683 10.0862C98.8974 10.0862 99.103 10.1801 99.2546 10.3472C99.4062 10.5142 99.4914 10.7408 99.4914 10.9771Z" fill="white"/>
</g>
<path d="M94.2993 14.7557C94.3393 14.9172 87.0018 22.6752 88.8939 24.3296C90.786 25.984 98.7409 21.7403 105.523 15.7052C112.305 9.67013 118.497 2.33795 116.8 0.399676C115.104 -1.5386 106.634 4.20281 106.634 4.20281L107.664 4.91254C107.664 4.91254 112.785 1.2905 114.406 2.69526C116.028 4.10003 111.408 9.59671 104.888 14.8438C98.3678 20.0908 92.0652 23.7716 91.0881 22.3326C90.1109 20.8935 94.7257 16.1017 94.7257 16.1017L94.2993 14.7557Z" fill="#FF2000"/>
<g opacity="0.3">
<path d="M94.2993 14.7557C94.3393 14.9172 87.0018 22.6752 88.8939 24.3296C90.786 25.984 98.7409 21.7403 105.523 15.7052C112.305 9.67013 118.497 2.33795 116.8 0.399676C115.104 -1.5386 106.634 4.20281 106.634 4.20281L107.664 4.91254C107.664 4.91254 112.785 1.2905 114.406 2.69526C116.028 4.10003 111.408 9.59671 104.888 14.8438C98.3678 20.0908 92.0652 23.7716 91.0881 22.3326C90.1109 20.8935 94.7257 16.1017 94.7257 16.1017L94.2993 14.7557Z" fill="black"/>
</g>
<g opacity="0.3">
<path d="M97.8926 5.84749C97.9592 5.94049 97.3818 6.47889 96.7289 7.5655C95.8612 8.9583 95.3824 10.6005 95.3516 12.2896C95.3209 13.9787 95.7394 15.6408 96.5556 17.0709C97.173 18.182 97.7282 18.7498 97.6572 18.8379C97.5861 18.926 96.9287 18.4659 96.1692 17.3695C95.7296 16.7172 95.3808 15.9963 95.1344 15.2305C94.5043 13.3265 94.5423 11.2317 95.2409 9.35694C95.5142 8.60302 95.8885 7.89852 96.3513 7.26693C97.1331 6.19011 97.8348 5.78386 97.8926 5.84749Z" fill="white"/>
</g>
<path d="M115.472 20.7516C115.496 19.6724 115.809 18.6251 116.372 17.7419C116.935 16.8588 117.724 16.1796 118.637 15.7903C119.551 15.4009 120.549 15.3189 121.505 15.5545C122.46 15.7902 123.332 16.333 124.008 17.1142C124.684 17.8954 125.134 18.88 125.302 19.9435C125.47 21.0069 125.349 22.1014 124.952 23.0886C124.556 24.0758 123.903 24.9112 123.076 25.4893C122.248 26.0675 121.284 26.3622 120.305 26.3364C118.992 26.3018 117.746 25.694 116.839 24.6467C115.933 23.5994 115.441 22.1983 115.472 20.7516Z" fill="#FF2000"/>
<g opacity="0.4">
<path d="M122.037 18.7937C122.04 18.6174 122.091 18.4462 122.183 18.3019C122.275 18.1575 122.404 18.0465 122.553 17.9828C122.703 17.9192 122.866 17.9058 123.022 17.9444C123.178 17.983 123.32 18.0718 123.43 18.1995C123.541 18.3273 123.614 18.4883 123.641 18.6621C123.669 18.8359 123.649 19.0147 123.583 19.1758C123.518 19.337 123.411 19.4732 123.276 19.5672C123.141 19.6613 122.983 19.7089 122.823 19.7041C122.717 19.7016 122.612 19.676 122.516 19.6288C122.419 19.5816 122.331 19.5138 122.258 19.4291C122.185 19.3445 122.128 19.2448 122.09 19.1358C122.052 19.0267 122.034 18.9105 122.037 18.7937Z" fill="black"/>
</g>
<g opacity="0.4">
<path d="M123.653 20.8691C123.656 20.7659 123.687 20.666 123.741 20.5822C123.796 20.4983 123.872 20.4343 123.96 20.3983C124.047 20.3623 124.143 20.356 124.234 20.3801C124.325 20.4043 124.408 20.4578 124.471 20.5338C124.534 20.6099 124.575 20.705 124.589 20.807C124.603 20.9091 124.59 21.0134 124.549 21.1066C124.509 21.1999 124.445 21.2779 124.364 21.3306C124.284 21.3833 124.191 21.4084 124.097 21.4026C123.975 21.3938 123.861 21.3334 123.778 21.234C123.696 21.1346 123.651 21.0039 123.653 20.8691Z" fill="black"/>
</g>
<g opacity="0.4">
<path d="M123.019 22.4599C123.065 22.4611 123.109 22.4823 123.141 22.5189C123.174 22.5555 123.192 22.6046 123.192 22.6557C123.191 22.6807 123.186 22.7054 123.177 22.7283C123.168 22.7513 123.154 22.7719 123.138 22.7892C123.121 22.8065 123.102 22.82 123.081 22.829C123.059 22.838 123.037 22.8423 123.014 22.8416C122.991 22.8417 122.968 22.8366 122.947 22.8266C122.926 22.8167 122.907 22.8021 122.891 22.7838C122.876 22.7654 122.863 22.7438 122.856 22.72C122.848 22.6963 122.844 22.6711 122.845 22.6459C122.846 22.5961 122.865 22.5488 122.898 22.514C122.93 22.4793 122.973 22.4598 123.019 22.4599Z" fill="black"/>
</g>
<path d="M135.921 61.4653C135.877 61.4653 135.846 54.5541 135.846 46.0325C135.846 37.5109 135.877 30.5997 135.921 30.5997C135.966 30.5997 135.997 37.506 135.997 46.0325C135.997 54.559 135.961 61.4653 135.921 61.4653Z" fill="#263238"/>
<path d="M136.756 30.864C136.399 30.2939 136.081 29.695 135.806 29.0725H135.939V29.1117C135.71 29.7733 135.438 30.4161 135.126 31.0353C135.301 30.3535 135.527 29.6889 135.801 29.048V29.0089L135.863 28.8523L135.935 28.9991C136.253 29.5955 136.528 30.2191 136.756 30.864Z" fill="#263238"/>
<path d="M135.766 26.9532C135.739 26.9874 135.508 26.821 135.322 26.5126C135.135 26.2043 135.091 25.9057 135.131 25.8959C135.171 25.8861 135.277 26.1406 135.446 26.4245C135.615 26.7084 135.793 26.9189 135.766 26.9532Z" fill="#263238"/>
<path d="M135.326 27.844C135.41 27.4646 135.529 27.0956 135.681 26.7427C135.782 26.3688 135.919 26.0079 136.09 25.6659C136.063 26.0594 135.971 26.4441 135.819 26.8014C135.714 27.1794 135.547 27.5328 135.326 27.844Z" fill="#263238"/>
<path d="M133.914 34.6622C134.015 34.351 134.101 34.0341 134.171 33.7127C134.186 33.3866 134.186 33.0598 134.171 32.7337C134.329 33.0431 134.375 33.4067 134.3 33.7518C134.278 34.0977 134.141 34.4222 133.914 34.6622Z" fill="#263238"/>
<path d="M134.189 33.3749C134.189 33.3749 134.153 33.5071 133.976 33.556C133.871 33.5807 133.761 33.5597 133.669 33.4973C133.615 33.4544 133.571 33.3987 133.539 33.3343C133.507 33.2698 133.488 33.1983 133.485 33.1249C133.482 33.0516 133.493 32.9784 133.519 32.9106C133.545 32.8429 133.584 32.7825 133.634 32.7337C133.721 32.665 133.829 32.6337 133.936 32.6456C134.118 32.6456 134.18 32.7925 134.162 32.8023C134.145 32.8121 134.069 32.7533 133.931 32.7631C133.89 32.7623 133.849 32.771 133.811 32.7887C133.773 32.8064 133.738 32.8327 133.71 32.8658C133.681 32.899 133.66 32.9383 133.646 32.9813C133.632 33.0243 133.626 33.07 133.629 33.1155C133.631 33.1612 133.641 33.206 133.659 33.2473C133.677 33.2886 133.702 33.3255 133.733 33.3557C133.764 33.3859 133.801 33.4088 133.84 33.4231C133.88 33.4373 133.921 33.4426 133.962 33.4386C134.1 33.4435 134.171 33.3554 134.189 33.3749Z" fill="#263238"/>
<path d="M157.725 59.2724C157.725 59.3165 152.359 59.3556 145.733 59.3556C139.106 59.3556 133.74 59.3165 133.74 59.2724C133.74 59.2284 139.101 59.1892 145.733 59.1892C152.364 59.1892 157.725 59.2284 157.725 59.2724Z" fill="#263238"/>
<path d="M157.969 59.2382C157.621 59.1784 157.283 59.063 156.966 58.8956C156.635 58.7811 156.322 58.6163 156.033 58.4061C156.375 58.4674 156.708 58.5846 157.019 58.7536C157.355 58.8633 157.676 59.0265 157.969 59.2382Z" fill="#263238"/>
<path d="M158.231 59.3361C157.725 59.653 157.172 59.8669 156.597 59.9675C156.841 59.7914 157.11 59.6592 157.392 59.5759C157.657 59.4428 157.941 59.3616 158.231 59.3361Z" fill="#263238"/>
<path d="M134.793 60.1095C134.876 60.1725 134.946 60.2537 135 60.348C135.053 60.4423 135.089 60.5477 135.104 60.6577C135.157 60.8972 135.14 61.1491 135.055 61.3772C135.006 61.518 134.923 61.6415 134.815 61.7345C134.749 61.7817 134.672 61.8068 134.593 61.8068C134.514 61.8068 134.437 61.7817 134.371 61.7345C134.258 61.6423 134.167 61.5208 134.107 61.3808C134.046 61.2408 134.018 61.0866 134.024 60.9318C134.021 60.8067 134.043 60.6824 134.09 60.568C134.136 60.4537 134.205 60.3522 134.291 60.271C134.349 60.216 134.416 60.1743 134.488 60.1483C134.56 60.1222 134.637 60.1123 134.713 60.1192C134.819 60.1192 134.868 60.1731 134.864 60.178C134.859 60.1829 134.806 60.178 134.713 60.178C134.581 60.1911 134.457 60.2532 134.362 60.3542C134.294 60.4274 134.24 60.516 134.206 60.614C134.171 60.712 134.156 60.817 134.162 60.922C134.159 61.0496 134.184 61.1762 134.233 61.2918C134.282 61.4073 134.355 61.5086 134.446 61.5876C134.49 61.6186 134.541 61.6351 134.593 61.6351C134.645 61.6351 134.696 61.6186 134.74 61.5876C134.827 61.5138 134.896 61.4159 134.939 61.3037C135.017 61.1034 135.042 60.8827 135.01 60.6674C134.964 60.4703 134.891 60.2821 134.793 60.1095Z" fill="#263238"/>
<path d="M154.3 60.457C154.3 60.457 154.385 60.4031 154.5 60.5108C154.534 60.5434 154.561 60.5842 154.579 60.63C154.597 60.6758 154.605 60.7254 154.602 60.7751C154.591 60.9022 154.541 61.0213 154.46 61.1128C154.292 61.3184 153.981 61.3967 153.838 61.6463C153.806 61.7115 153.789 61.7848 153.789 61.8593C153.789 61.9337 153.806 62.007 153.838 62.0722C153.875 62.1405 153.929 62.1957 153.994 62.2313C154.059 62.2668 154.131 62.2813 154.203 62.2729C154.275 62.2662 154.344 62.2355 154.4 62.1848C154.457 62.1341 154.498 62.0659 154.518 61.989C154.54 61.9176 154.544 61.8413 154.531 61.7675C154.517 61.6938 154.487 61.6251 154.443 61.568C154.353 61.4537 154.244 61.359 154.123 61.289C154.057 61.2619 153.997 61.2188 153.948 61.1629C153.898 61.107 153.861 61.0397 153.838 60.966C153.825 60.9025 153.825 60.8365 153.838 60.773C153.851 60.7095 153.877 60.65 153.914 60.5989C153.967 60.5255 154.035 60.4683 154.114 60.4325C154.243 60.3835 154.318 60.3933 154.323 60.4031C154.327 60.4129 154.252 60.4031 154.141 60.4912C154.076 60.5297 154.021 60.5852 153.981 60.6527C153.955 60.6938 153.938 60.7406 153.931 60.7897C153.924 60.8388 153.928 60.889 153.941 60.9366C153.985 61.1471 154.34 61.1765 154.549 61.475C154.609 61.5519 154.651 61.6444 154.669 61.7437C154.688 61.8431 154.683 61.946 154.656 62.0428C154.625 62.1493 154.567 62.2433 154.488 62.313C154.409 62.3828 154.313 62.425 154.212 62.4344C154.112 62.4462 154.011 62.4262 153.921 62.3767C153.832 62.3272 153.757 62.2504 153.705 62.1554C153.659 62.0658 153.635 61.9646 153.635 61.8617C153.635 61.7588 153.659 61.6576 153.705 61.568C153.796 61.4278 153.918 61.3164 154.061 61.245C154.17 61.1863 154.273 61.1141 154.367 61.0296C154.437 60.9608 154.485 60.8676 154.5 60.7653C154.504 60.7278 154.501 60.6898 154.491 60.6537C154.481 60.6175 154.464 60.5839 154.443 60.5548C154.389 60.457 154.3 60.4716 154.3 60.457Z" fill="#263238"/>
<path d="M154.238 59.8402C154.136 59.3572 154.136 58.8548 154.238 58.3718C154.34 58.8548 154.34 59.3572 154.238 59.8402Z" fill="#263238"/>
<path d="M160.648 59.3018C160.517 59.3534 160.378 59.3767 160.239 59.3703L159.795 59.3997C159.762 59.412 159.726 59.412 159.693 59.3997C159.671 59.3843 159.654 59.3619 159.645 59.3356C159.635 59.3093 159.633 59.2804 159.639 59.2528C159.655 59.1911 159.687 59.1363 159.733 59.0962L159.928 58.8711C160.061 58.757 160.149 58.5902 160.172 58.4061C160.176 58.3398 160.16 58.274 160.126 58.2191C160.092 58.1641 160.043 58.1231 159.986 58.1026C159.895 58.0906 159.804 58.1094 159.724 58.1565C159.657 58.1858 159.622 58.2054 159.613 58.1956C159.604 58.1858 159.635 58.1516 159.693 58.1026C159.779 58.0211 159.89 57.979 160.004 57.9851C160.092 58.0048 160.171 58.0583 160.227 58.1362C160.284 58.2142 160.313 58.3115 160.31 58.411C160.293 58.6332 160.198 58.8392 160.044 58.9836L159.839 59.2039C159.804 59.2382 159.777 59.2724 159.777 59.2871H159.804H160.248C160.381 59.2673 160.516 59.2723 160.648 59.3018Z" fill="#263238"/>
<path d="M139.11 59.2724C139.11 59.2724 139.11 59.106 139.11 58.8172C139.11 58.5284 139.11 58.1026 139.088 57.6082C139.088 56.5804 139.062 55.1609 139.057 53.5359L139.128 53.6191H137.738L137.814 53.5359V55.2343C137.814 55.7777 137.814 56.2965 137.814 56.786C137.814 57.7649 137.814 58.597 137.791 59.2675L137.747 59.2186L138.76 59.2431C138.999 59.2431 139.133 59.2431 139.137 59.2675C139.02 59.2758 138.903 59.2758 138.786 59.2675L137.747 59.292H137.702V59.2431C137.702 58.5725 137.702 57.7306 137.702 56.7615C137.702 56.272 137.702 55.7532 137.702 55.2099V53.5114L137.778 53.4282H139.199V53.5065C139.199 55.1658 139.199 56.6097 139.164 57.6327C139.164 58.1222 139.164 58.5235 139.164 58.827C139.157 58.9769 139.14 59.1259 139.11 59.2724Z" fill="#263238"/>
<path d="M152.368 59.2725C152.363 59.2139 152.363 59.1549 152.368 59.0963C152.368 58.969 152.368 58.8124 152.368 58.6068C152.368 58.1663 152.368 57.5692 152.346 56.8301C152.346 55.3323 152.32 53.257 152.315 50.9026L152.391 50.981H150.996L151.071 50.9026V52.1948C151.071 52.6207 151.071 53.0367 151.071 53.443C151.071 54.2604 151.071 55.0288 151.071 55.7483C151.071 57.1678 151.049 58.3719 151.045 59.2529L151.005 59.2089H152.022H152.297H152.4C152.283 59.2179 152.165 59.2179 152.049 59.2089L151.005 59.2333H150.965V59.1893C150.965 58.3082 150.965 57.1042 150.938 55.6847C150.938 54.9652 150.938 54.2163 150.938 53.3793C150.938 52.9731 150.938 52.557 150.938 52.1312V50.839L151.014 50.7558H152.479V50.839C152.479 53.2276 152.479 55.3323 152.448 56.8252C152.448 57.5545 152.448 58.1467 152.426 58.5823C152.426 58.7683 152.426 58.925 152.426 59.0718C152.426 59.2186 152.368 59.2774 152.368 59.2725Z" fill="#263238"/>
<path d="M142.464 59.2725C142.458 59.2008 142.458 59.1288 142.464 59.0571C142.464 58.9005 142.464 58.6998 142.464 58.4502C142.464 57.9166 142.464 57.1678 142.441 56.2378C142.441 54.3631 142.441 51.7739 142.41 48.8518L142.486 48.935H141.091C141.242 48.7686 141.131 48.8909 141.167 48.8567V50.511C141.167 51.0544 141.167 51.583 141.167 52.1018C141.167 53.1346 141.167 54.1086 141.167 55.0043C141.167 56.786 141.144 58.2544 141.135 59.2725L141.1 59.2333H142.126H142.397H142.495H142.41H142.144H141.1H141.064V59.1941C141.064 58.1761 141.064 56.7077 141.038 54.926C141.038 54.0303 141.038 53.0563 141.038 52.0235C141.038 51.5047 141.038 50.976 141.038 50.4327V48.7783C141.073 48.7392 140.962 48.8567 141.113 48.6902H142.579V48.7686C142.579 51.7053 142.557 54.324 142.548 56.2133C142.548 57.1335 142.548 57.8775 142.526 58.4061C142.526 58.6508 142.526 58.8466 142.526 58.9935C142.526 59.1403 142.464 59.2774 142.464 59.2725Z" fill="#263238"/>
<path d="M145.742 59.2383C145.74 59.2106 145.74 59.1828 145.742 59.1551V58.8956C145.742 58.6705 145.742 58.3572 145.742 57.9608C145.742 57.1434 145.742 55.9735 145.719 54.5345C145.719 51.6271 145.697 47.6086 145.684 43.0957L145.759 43.1789H144.351L144.422 43.1006V48.2743C144.422 49.9091 144.422 51.446 144.422 52.8459C144.422 55.626 144.396 57.8531 144.387 59.2089L144.36 59.1795H145.386H145.75C145.75 59.1795 145.724 59.1795 145.666 59.1795H145.417H144.374H144.342V59.1453C144.342 57.765 144.343 55.5379 144.311 52.7822C144.311 51.3824 144.311 49.8454 144.311 48.2106C144.311 47.3883 144.311 46.5465 144.311 45.6801V43.037C144.343 42.9978 144.236 43.1153 144.387 42.9489H145.853V43.0321C145.853 47.5645 145.853 51.6075 145.822 54.5296C145.822 55.9686 145.822 57.1336 145.799 57.9559C145.799 58.3474 145.799 58.6558 145.799 58.8761V59.111C145.746 59.2187 145.746 59.2432 145.742 59.2383Z" fill="#263238"/>
<path d="M149.104 59.2381C149.104 59.2381 149.104 59.1892 149.104 59.0962C149.104 59.0032 149.104 58.8564 149.104 58.6802C149.104 58.3131 149.104 57.7795 149.104 57.0992C149.104 55.7238 149.104 53.7366 149.082 51.2844C149.082 46.3897 149.082 39.5715 149.05 31.9848L149.126 32.068H147.731C147.878 31.9065 147.776 32.0288 147.807 31.9946V36.6787C147.807 38.2059 147.807 39.6938 147.807 41.128C147.807 44.0011 147.807 46.6638 147.807 49.0475C147.807 53.7953 147.776 57.4027 147.767 59.2381H148.811H149.162C149.162 59.2381 149.135 59.2381 149.077 59.2381H148.824H147.767H147.745V59.2088C147.745 57.3733 147.722 53.7659 147.709 49.0181C147.709 46.6345 147.709 43.9718 147.709 41.0986C147.709 39.6645 147.709 38.1618 147.709 36.6494V31.975C147.745 31.9358 147.634 32.0484 147.785 31.882H149.25V31.975C149.25 39.5862 149.25 46.4044 149.219 51.3333C149.219 53.7806 149.219 55.7385 149.197 57.1286C149.197 57.804 149.197 58.3277 149.197 58.6948C149.197 58.8662 149.197 58.9983 149.197 59.0962C149.197 59.1941 149.104 59.243 149.104 59.2381Z" fill="#263238"/>
<path d="M0 60.8534L1.1859 83.775L35.9857 81.5871L0 60.8534ZM5.81403 69.747L20.7822 78.5573L6.31593 79.453L5.81403 69.747Z" fill="#FF2000"/>
<path d="M3.45552 62.8554C3.34459 63.3604 3.15848 63.8417 2.90476 64.2797C2.71749 64.7601 2.45768 65.2019 2.13637 65.5866C2.2451 65.0761 2.43131 64.5896 2.68713 64.1475C2.87681 63.6731 3.13645 63.2364 3.45552 62.8554Z" fill="#263238"/>
<path d="M8.79416 65.8949C8.68302 66.3937 8.49686 66.8685 8.24341 67.2996C8.05957 67.768 7.80249 68.1971 7.48389 68.5673C7.59137 68.068 7.77618 67.5927 8.03021 67.1626C8.21321 66.6926 8.47205 66.2631 8.79416 65.8949Z" fill="#263238"/>
<path d="M14.1287 68.9345C13.9739 69.4158 13.7455 69.8644 13.4536 70.261C13.2256 70.7094 12.9244 71.1076 12.5653 71.4357C12.7195 70.9526 12.9479 70.5022 13.2404 70.1043C13.4708 69.6591 13.7717 69.2629 14.1287 68.9345Z" fill="#263238"/>
<path d="M19.3786 72.1111C19.2288 72.5964 19 73.0475 18.7035 73.4424C18.4702 73.8869 18.1697 74.2841 17.8151 74.6172C17.9649 74.1319 18.1937 73.6807 18.4903 73.2858C18.7236 72.8414 19.024 72.4441 19.3786 72.1111Z" fill="#263238"/>
<path d="M24.8595 75.2095C24.7295 75.7159 24.5222 76.1943 24.2465 76.624C24.0405 77.0955 23.7643 77.5257 23.4293 77.8966C23.7591 76.9153 24.2432 76.0056 24.8595 75.2095Z" fill="#263238"/>
<path d="M30.5494 78.4741C30.4444 78.9538 30.2608 79.4083 30.0075 79.8152C29.8226 80.2642 29.567 80.6736 29.2524 81.0242C29.3597 80.543 29.5448 80.087 29.7987 79.6782C29.979 79.229 30.2336 78.8207 30.5494 78.4741Z" fill="#263238"/>
<path d="M5.12108 63.8147C5.17882 63.8539 5.0811 64.1867 4.899 64.5685C4.71689 64.9503 4.52147 65.2195 4.45484 65.1852C4.38822 65.151 4.49482 64.8132 4.67692 64.4364C4.85903 64.0595 5.06334 63.7903 5.12108 63.8147Z" fill="#263238"/>
<path d="M6.86662 64.7691C6.9288 64.8034 6.82664 65.1411 6.64454 65.518C6.46243 65.8949 6.27144 66.1739 6.20038 66.1396C6.12931 66.1053 6.24479 65.7676 6.42246 65.3858C6.60012 65.004 6.80888 64.7397 6.86662 64.7691Z" fill="#263238"/>
<path d="M10.7621 67.0451C10.8198 67.0843 10.7221 67.4171 10.54 67.7989C10.3579 68.1807 10.1625 68.4548 10.0958 68.4156C10.0292 68.3765 10.1358 68.0436 10.3179 67.6668C10.5 67.2899 10.7043 67.0109 10.7621 67.0451Z" fill="#263238"/>
<path d="M12.5117 68.0094C12.5694 68.0437 12.4717 68.3814 12.2896 68.7583C12.1075 69.1352 11.9121 69.4142 11.8455 69.3799C11.7788 69.3456 11.8854 69.0079 12.0675 68.6261C12.2497 68.2443 12.4495 67.9751 12.5117 68.0094Z" fill="#263238"/>
<path d="M16.0342 70.1827C16.0964 70.2169 15.9942 70.5547 15.8121 70.9315C15.63 71.3084 15.439 71.5874 15.3679 71.5532C15.2969 71.5189 15.4079 71.1812 15.59 70.7994C15.7721 70.4176 15.9764 70.1533 16.0342 70.1827Z" fill="#263238"/>
<path d="M17.7042 71.1322C17.7664 71.1664 17.6642 71.5042 17.4821 71.881C17.3 72.2579 17.109 72.5369 17.038 72.5027C16.9669 72.4684 17.0779 72.1258 17.2601 71.7489C17.4422 71.372 17.6465 71.1322 17.7042 71.1322Z" fill="#263238"/>
<path d="M21.306 73.2075C21.3638 73.2467 21.266 73.5795 21.0839 73.9613C20.9018 74.3431 20.7108 74.6123 20.6398 74.578C20.5687 74.5438 20.6797 74.206 20.8619 73.8291C21.044 73.4523 21.2483 73.1733 21.306 73.2075Z" fill="#263238"/>
<path d="M23.2429 74.3381C23.3006 74.3773 23.2029 74.7101 23.0208 75.0919C22.8387 75.4737 22.6433 75.7478 22.5766 75.7086C22.51 75.6694 22.6166 75.3366 22.7987 74.9597C22.9808 74.5828 23.1851 74.3038 23.2429 74.3381Z" fill="#263238"/>
<path d="M26.7251 76.3597C26.7828 76.3939 26.6851 76.7317 26.503 77.1086C26.3209 77.4855 26.1254 77.7644 26.0588 77.7302C25.9922 77.6959 26.0988 77.3582 26.2809 76.9764C26.463 76.5946 26.6629 76.3254 26.7251 76.3597Z" fill="#263238"/>
<path d="M28.7325 77.4952C28.7902 77.5343 28.6925 77.8721 28.5104 78.2489C28.3283 78.6258 28.1329 78.9048 28.0663 78.8657C27.9996 78.8265 28.1062 78.4937 28.2883 78.1168C28.4705 77.7399 28.6748 77.4609 28.7325 77.4952Z" fill="#263238"/>
<path d="M59.5171 28.96C59.5171 28.96 59.5171 28.9306 59.5171 28.8768C59.5171 28.8229 59.5171 28.7348 59.5171 28.632C59.5171 28.4167 59.5171 28.1034 59.5171 27.6971C59.5171 26.8748 59.5171 25.6806 59.5171 24.1632C59.5171 21.1285 59.4949 16.8213 59.4815 11.6134L59.5482 11.6819H43.8072L43.8783 11.5987C43.8783 17.9617 43.8783 23.9038 43.8783 28.9453L43.8161 28.8719L55.2043 28.911H58.4111H58.4378H55.2487L43.8161 28.9453H43.705V28.8719C43.705 23.8304 43.705 17.8785 43.705 11.5253V11.442H43.7806H59.5215H59.5837V11.5155C59.5837 16.7234 59.5615 21.0649 59.5526 24.1143C59.5526 25.6218 59.5526 26.8112 59.5526 27.6286C59.5526 28.03 59.5526 28.3334 59.5526 28.5488V28.8621L59.5171 28.96Z" fill="#FF2000"/>
<path d="M59.5173 28.9599C59.5553 28.9259 59.5954 28.8948 59.6372 28.8669L59.997 28.6124L61.3917 27.6335L66.5172 24.1436L66.4906 24.1974C66.4906 19.6699 66.4906 13.6739 66.4906 7.11023L66.5617 7.19344H66.5217H51.0028H51.0294L45.7306 10.4386L44.2827 11.3294L43.9051 11.5546L43.7763 11.628C43.8149 11.5964 43.855 11.567 43.8963 11.5399L44.2694 11.2951L45.6995 10.3798L50.9584 7.05149H66.4773H66.5927V7.1347C66.5927 13.6984 66.5927 19.6944 66.5927 24.2219V24.2562H66.5661L61.4139 27.7265L60.0059 28.6662L59.6372 28.9061L59.5173 28.9599Z" fill="#FF2000"/>
<path d="M66.5437 7.09072C66.5659 7.12988 65.0114 8.17243 63.0704 9.42057C61.1294 10.6687 59.5171 11.6525 59.5171 11.6134C59.5171 11.5742 61.0495 10.5317 62.9949 9.27862C64.9403 8.0256 66.5259 7.05156 66.5437 7.09072Z" fill="#FF2000"/>
<path d="M44.5225 28.2453C44.5225 28.2845 44.3893 28.4264 44.185 28.5537C43.9806 28.6809 43.7941 28.7592 43.7763 28.7201C43.7586 28.6809 43.9051 28.5439 44.1095 28.4117C44.3138 28.2796 44.5003 28.2061 44.5225 28.2453Z" fill="#FF2000"/>
<path d="M46.0148 27.3007C46.037 27.3398 45.886 27.4818 45.6772 27.609C45.4685 27.7363 45.2864 27.8146 45.2686 27.7754C45.2509 27.7363 45.3974 27.5992 45.6062 27.4671C45.8149 27.3349 45.9926 27.2615 46.0148 27.3007Z" fill="#FF2000"/>
<path d="M47.5073 26.356C47.5295 26.3952 47.3785 26.5371 47.1742 26.6644C46.9699 26.7916 46.7833 26.87 46.7611 26.8308C46.7389 26.7916 46.8899 26.6546 47.0987 26.5224C47.3074 26.3903 47.4895 26.3169 47.5073 26.356Z" fill="#FF2000"/>
<path d="M49.004 25.4114C49.004 25.4505 48.8707 25.5876 48.6664 25.7197C48.4621 25.8519 48.2756 25.9253 48.2534 25.8862C48.2312 25.847 48.3866 25.7099 48.5909 25.5778C48.7952 25.4456 48.9818 25.3722 49.004 25.4114Z" fill="#FF2000"/>
<path d="M50.4961 24.4667C50.4961 24.5059 50.3673 24.6429 50.1585 24.7751C49.9497 24.9072 49.7676 24.9807 49.7499 24.9415C49.7321 24.9023 49.8787 24.7653 50.083 24.6331C50.2873 24.501 50.4738 24.4276 50.4961 24.4667Z" fill="#FF2000"/>
<path d="M50.8738 22.8074C50.9138 22.8074 50.9449 23.0179 50.9449 23.2968C50.9449 23.5758 50.9094 23.7863 50.865 23.7863C50.8205 23.7863 50.7939 23.5758 50.7939 23.2968C50.7939 23.0179 50.8339 22.8025 50.8738 22.8074Z" fill="#FF2000"/>
<path d="M50.887 20.9082C50.927 20.9082 50.9625 21.1187 50.9581 21.3977C50.9537 21.6767 50.9226 21.8872 50.8826 21.8872C50.8426 21.8872 50.8071 21.6718 50.8071 21.3977C50.8071 21.1236 50.8471 20.9082 50.887 20.9082Z" fill="#FF2000"/>
<path d="M50.9007 19.0091C50.9407 19.0091 50.9762 19.2244 50.9718 19.4985C50.9673 19.7726 50.9362 19.988 50.8963 19.988C50.8563 19.988 50.8208 19.7726 50.8208 19.4985C50.8208 19.2244 50.8607 19.0091 50.9007 19.0091Z" fill="#FF2000"/>
<path d="M50.9137 17.11C50.9537 17.11 50.9892 17.3254 50.9848 17.5995C50.9804 17.8736 50.9493 18.0889 50.9093 18.0889C50.8693 18.0889 50.8338 17.8785 50.8382 17.5995C50.8427 17.3205 50.8738 17.11 50.9137 17.11Z" fill="#FF2000"/>
<path d="M50.9269 15.2159C50.9669 15.2159 51.0024 15.4263 50.998 15.7053C50.9935 15.9843 50.9624 16.1948 50.9225 16.1948C50.8825 16.1948 50.847 15.9843 50.8514 15.7053C50.8558 15.4263 50.8869 15.2159 50.9269 15.2159Z" fill="#FF2000"/>
<path d="M50.9406 13.3167C50.985 13.3167 51.0161 13.5271 51.0117 13.8061C51.0072 14.0851 50.9761 14.2956 50.9361 14.2956C50.8962 14.2956 50.8606 14.0802 50.8651 13.8061C50.8695 13.532 50.9006 13.3167 50.9406 13.3167Z" fill="#FF2000"/>
<path d="M50.9538 11.4175C50.9982 11.4175 51.0293 11.6329 51.0248 11.907C51.0204 12.1811 50.9893 12.3964 50.9493 12.3964C50.9094 12.3964 50.8738 12.1811 50.8783 11.907C50.8827 11.6329 50.9138 11.4175 50.9538 11.4175Z" fill="#FF2000"/>
<path d="M50.967 9.51845C51.0114 9.51845 51.0425 9.73382 51.038 10.0079C51.0336 10.282 51.0025 10.4974 50.9625 10.4974C50.9225 10.4974 50.887 10.2869 50.8914 10.0079C50.8959 9.72892 50.927 9.51845 50.967 9.51845Z" fill="#FF2000"/>
<path d="M50.9806 7.62416C51.025 7.62416 51.0561 7.83463 51.0517 8.11363C51.0472 8.39262 51.0162 8.60309 50.9762 8.60309C50.9362 8.60309 50.9007 8.39262 50.9051 8.11363C50.9096 7.83463 50.9407 7.62416 50.9806 7.62416Z" fill="#FF2000"/>
<path d="M65.6865 24.1828C65.6865 24.1437 65.8775 24.1094 66.1306 24.1094C66.3838 24.1094 66.5748 24.1437 66.5748 24.1828C66.5748 24.222 66.3838 24.2611 66.1306 24.2611C65.8775 24.2611 65.6865 24.2269 65.6865 24.1828Z" fill="#FF2000"/>
<path d="M63.9632 24.1828C63.9632 24.1437 64.1542 24.1094 64.4074 24.1094C64.6606 24.1094 64.8515 24.1437 64.8515 24.1828C64.8515 24.222 64.6561 24.2611 64.4074 24.2611C64.1587 24.2611 63.9632 24.2269 63.9632 24.1828Z" fill="#FF2000"/>
<path d="M62.24 24.1828C62.24 24.1437 62.431 24.1094 62.6841 24.1094C62.9373 24.1094 63.1283 24.1437 63.1283 24.1828C63.1283 24.222 62.9373 24.2611 62.6841 24.2611C62.431 24.2611 62.24 24.2269 62.24 24.1828Z" fill="#FF2000"/>
<path d="M60.5167 24.1828C60.5167 24.1437 60.7121 24.1094 60.9609 24.1094C61.2096 24.1094 61.405 24.1437 61.405 24.1828C61.405 24.222 61.214 24.2611 60.9609 24.2611C60.7077 24.2611 60.5167 24.2269 60.5167 24.1828Z" fill="#FF2000"/>
<path d="M58.8066 24.1828C58.8066 24.1437 58.9976 24.1094 59.2508 24.1094C59.504 24.1094 59.695 24.1437 59.695 24.1828C59.695 24.222 59.504 24.2611 59.2508 24.2611C58.9976 24.2611 58.8066 24.2269 58.8066 24.1828Z" fill="#FF2000"/>
<path d="M57.0741 24.1828C57.0741 24.1437 57.2651 24.1094 57.5183 24.1094C57.7714 24.1094 57.9624 24.1437 57.9624 24.1828C57.9624 24.222 57.767 24.2611 57.5183 24.2611C57.2695 24.2611 57.0741 24.2269 57.0741 24.1828Z" fill="#FF2000"/>
<path d="M55.3508 24.1828C55.3508 24.1437 55.5418 24.1094 55.795 24.1094C56.0482 24.1094 56.2392 24.1437 56.2392 24.1828C56.2392 24.222 56.0482 24.2611 55.795 24.2611C55.5418 24.2611 55.3508 24.2269 55.3508 24.1828Z" fill="#FF2000"/>
<path d="M53.6276 24.1828C53.6276 24.1437 53.823 24.1094 54.0717 24.1094C54.3205 24.1094 54.5159 24.1437 54.5159 24.1828C54.5159 24.222 54.3249 24.2611 54.0717 24.2611C53.8186 24.2611 53.6276 24.2269 53.6276 24.1828Z" fill="#FF2000"/>
<path d="M51.9087 24.1828C51.9087 24.1437 52.0997 24.1094 52.3529 24.1094C52.606 24.1094 52.797 24.1437 52.797 24.1828C52.797 24.222 52.606 24.2611 52.3529 24.2611C52.0997 24.2611 51.9087 24.2269 51.9087 24.1828Z" fill="#FF2000"/>
<path d="M50.8647 24.1828C50.8647 24.1437 50.9047 24.1094 50.9535 24.1094C51.0024 24.1094 51.0468 24.1437 51.0468 24.1828C51.0468 24.222 51.0068 24.2611 50.9535 24.2611C50.943 24.2625 50.9324 24.2615 50.9222 24.2583C50.912 24.2551 50.9025 24.2497 50.8943 24.2424C50.886 24.2351 50.8791 24.2261 50.8741 24.2159C50.869 24.2056 50.8658 24.1944 50.8647 24.1828Z" fill="#FF2000"/>
<path d="M68.4494 18.4022C68.5808 18.4163 68.7132 18.4163 68.8447 18.4022C69.0173 18.3602 69.1796 18.2776 69.3206 18.1602C69.4616 18.0428 69.578 17.8933 69.6619 17.7219C69.7729 17.4625 69.8267 17.1779 69.819 16.8913C69.8113 16.6046 69.7423 16.324 69.6175 16.0724C69.5886 16.0032 69.5455 15.9424 69.4915 15.8948C69.4375 15.8472 69.3742 15.8141 69.3066 15.7983C69.1646 15.7787 69.0212 15.8208 68.9069 15.9157C68.6699 16.1692 68.4969 16.4864 68.405 16.8359C68.2806 17.2156 68.2059 17.6127 68.1829 18.0155H68.0363C68.0363 16.7576 68.0141 15.6612 68.0141 14.8781C68.0141 14.511 68.0141 14.2026 68.0141 13.9579C68.002 13.8473 68.002 13.7356 68.0141 13.625C68.0345 13.7346 68.0449 13.8461 68.0452 13.9579C68.0452 14.2026 68.0452 14.511 68.0807 14.8781C68.1074 15.6612 68.134 16.7576 68.1562 18.0155H68.0097C68.0335 17.5976 68.1113 17.1856 68.2406 16.7919C68.3017 16.6078 68.3729 16.428 68.4538 16.2535C68.5343 16.076 68.6496 15.9205 68.7914 15.7983C68.8641 15.7373 68.9471 15.693 69.0356 15.6678C69.1241 15.6426 69.2162 15.637 69.3066 15.6514C69.3926 15.6743 69.473 15.7178 69.542 15.7787C69.6111 15.8396 69.6672 15.9164 69.7063 16.0038C69.8378 16.2793 69.9065 16.5859 69.9065 16.8971C69.9065 17.2084 69.8378 17.5149 69.7063 17.7904C69.6146 17.9704 69.487 18.1252 69.3331 18.243C69.1793 18.3609 69.0031 18.4387 68.818 18.4707C68.718 18.4888 68.616 18.4888 68.516 18.4707C68.4905 18.4521 68.468 18.429 68.4494 18.4022Z" fill="#FF2000"/>
<path d="M24.7927 99.6336C24.7927 99.6336 24.8549 99.6336 24.9748 99.6924C25.0948 99.7511 25.2724 99.7951 25.499 99.8979C26.1623 100.186 26.7965 100.551 27.3911 100.985C28.3383 101.671 29.1783 102.523 29.8784 103.505C30.818 104.804 31.4553 106.337 31.7349 107.969C32.0523 109.959 31.8121 112.007 31.0465 113.843C30.625 114.865 30.038 115.794 29.3143 116.584C28.9354 116.997 28.5203 117.367 28.0751 117.69C27.8397 117.837 27.6309 117.993 27.3644 118.13C27.0979 118.268 26.8758 118.4 26.6138 118.502C24.544 119.408 22.1722 119.447 19.7915 119.198C18.6012 119.07 17.402 118.879 16.1805 118.669C14.94 118.473 13.717 118.16 12.5251 117.734C11.3198 117.312 10.2058 116.622 9.25165 115.708C8.79434 115.246 8.39145 114.723 8.05243 114.151C7.73093 113.579 7.47296 112.966 7.28403 112.325C6.92616 111.079 6.80668 109.764 6.93315 108.464C7.05817 107.223 7.38622 106.017 7.90141 104.905C8.91586 102.873 10.4474 101.213 12.3075 100.128C13.9101 99.1744 15.6607 98.5601 17.4686 98.317C18.9552 98.1227 20.4568 98.1112 21.9457 98.2827C23.067 98.4138 24.1806 98.6148 25.2813 98.8847C26.1696 99.1099 26.8803 99.3155 27.3511 99.4574L27.8841 99.6287L28.0662 99.6972L27.8796 99.6483L27.3422 99.4966C26.8714 99.3644 26.1741 99.1686 25.268 98.9582C24.1666 98.7014 23.053 98.5134 21.9324 98.3953C20.4545 98.2312 18.9646 98.2509 17.4908 98.454C15.7023 98.706 13.9719 99.3217 12.3874 100.27C10.5582 101.345 9.05331 102.985 8.05686 104.988C7.5537 106.084 7.23611 107.272 7.11969 108.493C6.99822 109.767 7.11616 111.055 7.46614 112.276C7.6479 112.902 7.89849 113.5 8.21232 114.058C8.5405 114.616 8.93152 115.126 9.37601 115.575C10.3137 116.47 11.4061 117.146 12.5873 117.563C13.7722 117.985 14.9877 118.294 16.2205 118.488C17.433 118.698 18.6367 118.889 19.8182 119.016C22.1722 119.266 24.5307 119.232 26.5649 118.341C28.5048 117.515 30.0706 115.88 30.9221 113.789C31.6807 111.983 31.9253 109.966 31.6239 108.003C31.3492 106.395 30.726 104.884 29.8073 103.598C29.1193 102.621 28.2948 101.77 27.3644 101.078C26.7749 100.64 26.1488 100.267 25.4945 99.9616C25.268 99.8588 25.0948 99.7951 24.9748 99.7413L24.7927 99.6336Z" fill="#263238"/>
<path d="M12.9336 112.281C12.8161 112.315 12.6952 112.331 12.5739 112.33L11.5834 112.384H11.2547C11.1294 112.403 11.0024 112.403 10.8772 112.384C10.798 112.357 10.7312 112.298 10.6906 112.218C10.6571 112.145 10.6374 112.065 10.6329 111.983L10.6062 111.537C10.5751 110.921 10.5396 110.255 10.5041 109.58C10.4685 108.904 10.4286 108.214 10.4241 107.592C10.4166 107.287 10.4809 106.986 10.6107 106.716C10.7391 106.493 10.929 106.322 11.1525 106.227C11.4731 106.104 11.8147 106.062 12.1519 106.104C12.2746 106.108 12.396 106.133 12.5117 106.178C12.3905 106.189 12.2686 106.189 12.1475 106.178C11.8248 106.163 11.5027 106.221 11.2014 106.349C11.0112 106.446 10.8552 106.61 10.7572 106.814C10.6462 107.06 10.5927 107.333 10.6018 107.607C10.6018 108.204 10.6684 108.885 10.6951 109.565C10.7217 110.245 10.7572 110.93 10.7883 111.523C10.815 111.812 10.7572 112.174 10.9394 112.223C11.0498 112.24 11.162 112.24 11.2725 112.223H12.6049C12.7163 112.227 12.8268 112.246 12.9336 112.281Z" fill="#263238"/>
<path d="M12.4363 109.075C12.1373 109.176 11.8243 109.216 11.5125 109.193C11.2013 109.23 10.8866 109.204 10.5842 109.115C10.8827 109.012 11.1961 108.972 11.508 108.997C11.8192 108.96 12.134 108.986 12.4363 109.075Z" fill="#263238"/>
<path d="M17.0556 108.165C16.5894 108.237 16.1182 108.264 15.6476 108.243C15.1805 108.284 14.7112 108.284 14.2441 108.243C14.6962 108.086 15.1694 108.015 15.6432 108.033C16.1174 107.992 16.5945 108.036 17.0556 108.165Z" fill="#263238"/>
<path d="M17.3312 110.505C16.8741 110.62 16.4036 110.656 15.9365 110.612C15.4703 110.633 15.004 110.572 14.5552 110.431C15.016 110.382 15.4801 110.382 15.9409 110.431C16.4054 110.409 16.8707 110.434 17.3312 110.505Z" fill="#263238"/>
<path d="M24.7971 111.909C24.7971 111.909 24.7971 111.699 24.7971 111.312C24.7757 110.766 24.686 110.226 24.5306 109.707C24.4594 109.343 24.2777 109.016 24.0153 108.782C23.9403 108.735 23.8546 108.713 23.7687 108.72C23.6827 108.726 23.6002 108.759 23.5312 108.816C23.3745 108.944 23.248 109.112 23.1626 109.305C22.8072 110.268 22.6553 111.308 22.7184 112.345H22.5452C22.5959 111.595 22.587 110.842 22.5185 110.093C22.494 109.79 22.4555 109.487 22.4031 109.188C22.3591 108.911 22.2268 108.661 22.03 108.483C21.9355 108.408 21.8221 108.368 21.7057 108.368C21.5894 108.368 21.4759 108.408 21.3815 108.483C21.1821 108.627 21.0369 108.847 20.9729 109.1C20.9092 109.354 20.8676 109.615 20.8485 109.878C20.8218 110.138 20.7996 110.392 20.7908 110.642C20.7663 111.106 20.7663 111.572 20.7908 112.037H20.6531C20.6175 110.935 20.5864 110.035 20.5642 109.374C20.5642 109.08 20.5642 108.84 20.5642 108.65C20.5546 108.565 20.5546 108.48 20.5642 108.395C20.5819 108.479 20.5924 108.564 20.5953 108.65L20.6486 109.374C20.6842 110.03 20.7375 110.93 20.7996 112.027H20.662C20.6393 111.557 20.6393 111.087 20.662 110.617C20.662 110.368 20.6886 110.128 20.7153 109.844C20.7333 109.569 20.7765 109.297 20.8441 109.031C20.917 108.735 21.0841 108.478 21.3149 108.307C21.4477 108.215 21.602 108.167 21.759 108.17C21.9189 108.171 22.0744 108.227 22.2032 108.331C22.4355 108.536 22.5931 108.826 22.6473 109.149C22.704 109.456 22.7455 109.767 22.7717 110.079C22.8314 110.839 22.8314 111.604 22.7717 112.365H22.5985C22.5398 111.301 22.7071 110.237 23.0871 109.257C23.1881 109.031 23.3413 108.838 23.5312 108.699C23.6222 108.626 23.7301 108.585 23.842 108.579C23.9539 108.573 24.065 108.602 24.1619 108.664C24.4489 108.92 24.6453 109.279 24.7171 109.677C24.8638 110.211 24.9387 110.765 24.9392 111.322C24.9392 111.518 24.9392 111.67 24.917 111.767C24.8842 111.822 24.8437 111.869 24.7971 111.909Z" fill="#263238"/>
<path d="M28.688 111.601C28.688 111.601 28.6258 111.684 28.4748 111.767C28.2599 111.883 28.0252 111.946 27.7864 111.953C27.4255 111.966 27.0696 111.858 26.7648 111.645C26.3911 111.372 26.1248 110.954 26.0193 110.473C25.9139 109.993 25.9771 109.487 26.1963 109.056C26.3802 108.714 26.6523 108.439 26.978 108.268C27.193 108.154 27.4278 108.092 27.6665 108.087C27.7539 108.079 27.8417 108.093 27.9241 108.126C27.6159 108.154 27.3149 108.244 27.0358 108.39C26.7456 108.565 26.5056 108.827 26.3429 109.144C26.1567 109.539 26.1063 109.995 26.201 110.427C26.2956 110.86 26.529 111.24 26.8581 111.498C27.1353 111.7 27.4588 111.81 27.7908 111.816C28.0996 111.808 28.404 111.735 28.688 111.601Z" fill="#263238"/>
<path d="M29.7363 106.055C29.0668 106.1 28.404 106.227 27.7598 106.432L27.4622 106.54L27.6843 106.29C28.112 105.86 28.4828 105.366 28.7858 104.822C29.0226 104.367 29.1045 103.835 29.0167 103.319C28.9679 103.089 28.8435 102.908 28.6747 102.903C28.4991 102.907 28.3269 102.957 28.1728 103.05C27.9373 103.184 27.7288 103.369 27.5599 103.593C27.44 103.755 27.3911 103.863 27.3778 103.853C27.396 103.741 27.4404 103.636 27.5066 103.549C27.6598 103.291 27.8689 103.079 28.1151 102.933C28.2861 102.815 28.4822 102.749 28.6836 102.742C28.7455 102.744 28.8063 102.76 28.8622 102.79C28.918 102.819 28.9676 102.861 29.0079 102.913C29.0875 103.016 29.1438 103.139 29.1722 103.27C29.282 103.831 29.1997 104.417 28.9412 104.915C28.632 105.482 28.2438 105.993 27.7909 106.427L27.7154 106.281C28.1884 106.124 28.6784 106.038 29.1722 106.026C29.3603 105.999 29.5513 106.009 29.7363 106.055Z" fill="#263238"/>
</svg>
