<svg width="10" height="25" viewBox="0 0 10 25" fill="none" xmlns="http://www.w3.org/2000/svg">
<path d="M8.17734 21.1714L6.3519 18.6701L8.83364 13.098L9.7029 0.0482199C9.7029 0.0482199 7.90353 -0.429265 7.72099 1.62085C7.61233 2.8255 7.51671 3.90312 7.51671 3.90312L5.47393 3.24166L2.56625 4.11777C2.56625 4.11777 2.69664 5.60717 3.87014 5.31367C4.5614 5.13744 5.27445 5.06366 5.98681 5.09464L7.09947 6.74174V7.33312L5.62171 6.26864H2.701L0.892928 7.84126C0.892928 7.84126 1.50576 9.3 2.45325 8.85756C2.45325 8.85756 0.875541 13.1593 0.714727 13.9697C0.714727 13.9697 -0.893409 18.1619 0.714727 20.5887C1.81409 22.1894 3.07869 23.6681 4.48733 25L8.17734 21.1714Z" fill="#FFBE9D"/>
</svg>
