<svg width="40" height="40" viewBox="0 0 40 40" fill="none" xmlns="http://www.w3.org/2000/svg">
<path d="M32.8572 22.143V32.8573C32.8572 33.2442 32.7158 33.579 32.4331 33.8617C32.1503 34.1445 31.8155 34.2859 31.4286 34.2859H22.8572V25.7144H17.1429V34.2859H8.57145C8.18455 34.2859 7.84972 34.1445 7.56699 33.8617C7.28425 33.579 7.14288 33.2442 7.14288 32.8573V22.143C7.14288 22.1281 7.1466 22.1058 7.15404 22.076C7.16148 22.0463 7.1652 22.0239 7.1652 22.0091L20 11.4287L32.8348 22.0091C32.8497 22.0388 32.8572 22.0835 32.8572 22.143ZM37.8348 20.6028L36.4509 22.2546C36.3319 22.3885 36.1756 22.4704 35.9822 22.5001H35.9152C35.7217 22.5001 35.5655 22.4481 35.4464 22.3439L20 9.46443L4.55359 22.3439C4.37502 22.4629 4.19645 22.515 4.01788 22.5001C3.82443 22.4704 3.66818 22.3885 3.54913 22.2546L2.1652 20.6028C2.04615 20.454 1.99407 20.2792 2.00895 20.0783C2.02383 19.8774 2.10568 19.7174 2.25449 19.5984L18.3036 6.22782C18.7798 5.84091 19.3453 5.64746 20 5.64746C20.6548 5.64746 21.2203 5.84091 21.6964 6.22782L27.1429 10.7814V6.42871C27.1429 6.22038 27.2098 6.04925 27.3438 5.91532C27.4777 5.78139 27.6488 5.71443 27.8572 5.71443H32.1429C32.3512 5.71443 32.5223 5.78139 32.6563 5.91532C32.7902 6.04925 32.8572 6.22038 32.8572 6.42871V15.5359L37.7456 19.5984C37.8944 19.7174 37.9762 19.8774 37.9911 20.0783C38.006 20.2792 37.9539 20.454 37.8348 20.6028Z" fill="white"/>
</svg>
