<svg width="9" height="18" viewBox="0 0 9 18" fill="none" xmlns="http://www.w3.org/2000/svg">
<path d="M0.0301438 17.3946C0.0934236 17.1126 0.129535 16.824 0.137888 16.5337C0.191762 15.9103 0.26359 15.1237 0.344401 14.1886C0.449528 13.0339 0.60988 11.8862 0.824783 10.7501C1.10428 9.36488 1.48411 8.00658 1.96063 6.68825C2.42691 5.37114 3.06024 4.1335 3.84174 3.01228C4.47844 2.10102 5.29124 1.35741 6.22117 0.835395C6.85114 0.490166 7.5271 0.258018 8.22351 0.147705C8.48572 0.137863 8.74616 0.0963862 9.00018 0.0240186C8.7376 -0.0080062 8.47262 -0.0080062 8.21004 0.0240186C7.48736 0.0849229 6.78037 0.287653 6.12242 0.622657C5.14197 1.13161 4.28267 1.88544 3.61277 2.82428C2.79604 3.95846 2.1378 5.22081 1.65984 6.5695C1.17739 7.90668 0.800365 9.28718 0.532967 10.6957C0.331572 11.8481 0.193635 13.0129 0.119926 14.1837C0.0525831 15.1731 0.0256504 15.9845 0.0121819 16.5436C-0.00872815 16.8272 -0.00270566 17.1124 0.0301438 17.3946Z" fill="#E0E0E0"/>
</svg>
