<svg width="204" height="116" viewBox="0 0 204 116" fill="none" xmlns="http://www.w3.org/2000/svg">
<rect y="97.4431" width="31.2" height="18.5568" fill="#004DFF"/>
<rect y="88.1648" width="31.2" height="9.27841" fill="#5085FF"/>
<rect y="80.6724" width="31.2" height="7.49251" fill="#90BAFF"/>
<path d="M0 79.9775C0 77.7684 1.79086 75.9775 4 75.9775H27.2C29.4091 75.9775 31.2 77.7684 31.2 79.9775V80.6723H0V79.9775Z" fill="#DBE9FF"/>
<rect x="43.2" y="84.8518" width="31.2" height="31.148" fill="#004DFF"/>
<rect x="43.2" y="69.7234" width="31.2" height="15.1285" fill="#5085FF"/>
<rect x="43.2" y="52.5715" width="31.2" height="17.1517" fill="#90BAFF"/>
<path d="M43.2 48.2961C43.2 46.087 44.9908 44.2961 47.2 44.2961H70.4C72.6091 44.2961 74.4 46.087 74.4 48.2961V52.5717H43.2V48.2961Z" fill="#DBE9FF"/>
<rect x="86.4" y="75.7937" width="31.2" height="40.2062" fill="#004DFF"/>
<rect x="86.4" y="57.1274" width="31.2" height="18.6664" fill="#5085FF"/>
<rect x="86.4" y="36.1172" width="31.2" height="21.0103" fill="#90BAFF"/>
<path d="M86.4 28.7251C86.4 26.516 88.1909 24.7251 90.4 24.7251H113.6C115.809 24.7251 117.6 26.516 117.6 28.7251V36.1171H86.4V28.7251Z" fill="#DBE9FF"/>
<rect x="129.6" y="69.2546" width="31.2" height="46.7453" fill="#004DFF"/>
<rect x="129.6" y="45.4021" width="31.2" height="23.8526" fill="#5085FF"/>
<rect x="129.6" y="19.2056" width="31.2" height="26.1965" fill="#90BAFF"/>
<path d="M129.6 11.8135C129.6 9.60433 131.391 7.81348 133.6 7.81348H156.8C159.009 7.81348 160.8 9.60434 160.8 11.8135V19.2055H129.6V11.8135Z" fill="#DBE9FF"/>
<rect x="172.8" y="73.8804" width="31.2" height="42.1197" fill="#004DFF"/>
<rect x="172.8" y="53.5859" width="31.2" height="20.2944" fill="#5085FF"/>
<rect x="172.8" y="32.3899" width="31.2" height="21.1962" fill="#90BAFF"/>
<path d="M172.8 25.042C172.8 22.8329 174.591 21.042 176.8 21.042H200C202.209 21.042 204 22.8329 204 25.042V32.3898H172.8V25.042Z" fill="#DBE9FF"/>
</svg>
