<svg width="50" height="50" viewBox="0 0 50 50" fill="none" xmlns="http://www.w3.org/2000/svg">
<path d="M37.8906 14.4532H12.1094C11.9022 14.4532 11.7035 14.5356 11.5569 14.6821C11.4104 14.8286 11.3281 15.0273 11.3281 15.2345C11.3281 15.4417 11.4104 15.6404 11.5569 15.7869C11.7035 15.9334 11.9022 16.0157 12.1094 16.0157H37.8906C38.0978 16.0157 38.2965 15.9334 38.4431 15.7869C38.5896 15.6404 38.6719 15.4417 38.6719 15.2345C38.6719 15.0273 38.5896 14.8286 38.4431 14.6821C38.2965 14.5356 38.0978 14.4532 37.8906 14.4532ZM38.6719 19.1408C38.6719 18.9336 38.5896 18.7349 38.443 18.5884C38.2965 18.4419 38.0978 18.3596 37.8906 18.3595H12.1094C11.9022 18.3595 11.7035 18.4418 11.5569 18.5884C11.4104 18.7349 11.3281 18.9336 11.3281 19.1408C11.3281 19.348 11.4104 19.5467 11.5569 19.6932C11.7035 19.8397 11.9022 19.922 12.1094 19.922H37.8906C38.0978 19.922 38.2965 19.8397 38.443 19.6932C38.5896 19.5467 38.6719 19.348 38.6719 19.1408ZM23.8281 23.0471C23.8281 22.8399 23.7458 22.6412 23.5993 22.4947C23.4528 22.3481 23.2541 22.2658 23.0469 22.2658H12.1094C11.9022 22.2658 11.7035 22.3481 11.5569 22.4946C11.4104 22.6412 11.3281 22.8399 11.3281 23.0471C11.3281 23.2543 11.4104 23.453 11.5569 23.5995C11.7035 23.746 11.9022 23.8283 12.1094 23.8283H23.0469C23.2541 23.8283 23.4528 23.746 23.5993 23.5995C23.7458 23.453 23.8281 23.2543 23.8281 23.0471ZM11.3281 30.469C11.3281 31.0871 11.5114 31.6913 11.8548 32.2052C12.1982 32.7191 12.6862 33.1196 13.2573 33.3561C13.8283 33.5926 14.4566 33.6545 15.0628 33.5339C15.669 33.4134 16.2258 33.1157 16.6628 32.6787C17.0999 32.2416 17.3975 31.6848 17.5181 31.0786C17.6387 30.4724 17.5768 29.8441 17.3402 29.2731C17.1037 28.7021 16.7032 28.214 16.1893 27.8706C15.6754 27.5273 15.0712 27.344 14.4531 27.344C13.6246 27.3449 12.8303 27.6745 12.2444 28.2603C11.6586 28.8462 11.3291 29.6405 11.3281 30.469ZM16.0156 30.469C16.0156 30.778 15.924 31.0801 15.7523 31.3371C15.5806 31.594 15.3366 31.7943 15.0511 31.9126C14.7656 32.0308 14.4514 32.0618 14.1483 32.0015C13.8452 31.9412 13.5668 31.7924 13.3483 31.5739C13.1298 31.3554 12.9809 31.0769 12.9206 30.7738C12.8604 30.4707 12.8913 30.1566 13.0096 29.8711C13.1278 29.5856 13.3281 29.3415 13.585 29.1698C13.842 28.9982 14.1441 28.9065 14.4531 28.9065C14.8675 28.9065 15.265 29.0711 15.558 29.3642C15.851 29.6572 16.0156 30.0546 16.0156 30.469Z" fill="white"/>
<path d="M47.6562 3.90625H2.34375C1.72235 3.90693 1.12661 4.15408 0.687214 4.59348C0.247823 5.03287 0.000676205 5.62862 0 6.25002L0 38.2816C0.000676205 38.903 0.247823 39.4987 0.687214 39.9381C1.12661 40.3775 1.72235 40.6246 2.34375 40.6253H26.0148L27.1302 39.0628H2.34375C2.13663 39.0626 1.93808 38.9802 1.79162 38.8337C1.64517 38.6873 1.56277 38.4887 1.5625 38.2816V6.25002C1.56277 6.0429 1.64517 5.84434 1.79162 5.69789C1.93808 5.55144 2.13663 5.46904 2.34375 5.46877H47.6562C47.8634 5.46904 48.0619 5.55144 48.2084 5.69789C48.3548 5.84434 48.4372 6.0429 48.4375 6.25002V38.2816C48.4372 38.4887 48.3548 38.6872 48.2084 38.8337C48.0619 38.9801 47.8634 39.0625 47.6562 39.0628H42.4013L43.5168 40.6253H47.6562C48.2776 40.6246 48.8734 40.3775 49.3128 39.9381C49.7522 39.4987 49.9993 38.9029 50 38.2815V6.25002C49.9993 5.62862 49.7522 5.03287 49.3128 4.59348C48.8734 4.15408 48.2776 3.90693 47.6562 3.90625Z" fill="white"/>
<path d="M32.3859 41.9291L31.0215 43.8163L30.8666 43.0522C30.8329 42.7882 30.6994 42.5472 30.4935 42.3785C30.3803 42.2861 30.2494 42.2177 30.1088 42.1776C29.9682 42.1375 29.821 42.1266 29.676 42.1455L28.6987 42.2439L30.1866 40.1595C29.6591 40.0531 29.1613 39.8329 28.7278 39.5141L26.7627 42.2668C26.642 42.431 26.5728 42.6274 26.5641 42.8311C26.5553 43.0348 26.6073 43.2364 26.7135 43.4104C26.8213 43.5862 26.9778 43.7268 27.1641 43.8153C27.3503 43.9037 27.5582 43.9362 27.7626 43.9086L29.412 43.7423L29.7027 45.1763C29.7268 45.3779 29.8097 45.568 29.9411 45.7229C30.0725 45.8778 30.2466 45.9905 30.4416 46.0472C30.5433 46.078 30.649 46.0937 30.7552 46.0937C30.9232 46.0938 31.0889 46.0543 31.2389 45.9785C31.3889 45.9027 31.5189 45.7927 31.6185 45.6573L34.4296 41.7688C34.0197 41.9351 33.5825 42.0238 33.1402 42.0303C32.8854 42.0295 32.6318 41.9955 32.3859 41.9291ZM40.8034 39.5141C40.3699 39.8328 39.872 40.053 39.3445 40.1594L40.8325 42.2439L39.8551 42.1455C39.7102 42.1265 39.5629 42.1374 39.4223 42.1775C39.2817 42.2176 39.1508 42.286 39.0377 42.3785C38.8318 42.5472 38.6983 42.7882 38.6646 43.0522L38.5097 43.8159L37.1426 41.9252C36.4625 42.0936 35.7461 42.0381 35.1001 41.7668L37.9165 45.6626C38.0159 45.7968 38.1455 45.9057 38.2947 45.9805C38.4439 46.0554 38.6087 46.0942 38.7756 46.0937C38.882 46.0936 38.9877 46.078 39.0896 46.0472C39.2846 45.9905 39.4587 45.8778 39.59 45.7229C39.7214 45.568 39.8044 45.3779 39.8285 45.1763L40.1191 43.7423L41.7686 43.9086C41.973 43.9363 42.1809 43.904 42.3672 43.8155C42.5535 43.7271 42.71 43.5863 42.8177 43.4104C42.9235 43.2379 42.9758 43.0378 42.9679 42.8356C42.9601 42.6333 42.8926 42.4379 42.7738 42.274L40.8034 39.5141ZM36.8183 40.3995C37.3309 40.1763 37.7356 39.7612 37.9459 39.2432C38.0177 39.0938 38.106 38.953 38.2091 38.8232C38.3676 38.7622 38.5326 38.7197 38.7008 38.6966C38.9792 38.7037 39.2551 38.6431 39.5049 38.5202C39.7547 38.3972 39.9709 38.2154 40.135 37.9905C40.2991 37.7656 40.4062 37.5042 40.4471 37.2288C40.488 36.9534 40.4615 36.6722 40.3698 36.4093C40.3395 36.24 40.329 36.0678 40.3385 35.8962C40.4282 35.7612 40.5326 35.6366 40.6498 35.5246C41.0814 35.1617 41.3531 34.6437 41.4062 34.0823C41.3531 33.5208 41.0814 33.0028 40.6498 32.6399C40.5335 32.5285 40.4295 32.405 40.3396 32.2714C40.329 32.0988 40.3391 31.9255 40.3698 31.7553C40.5038 31.2196 40.4204 30.6527 40.1378 30.1783C39.7715 29.7609 39.2549 29.5056 38.7008 29.468C38.5335 29.4448 38.3693 29.4028 38.2114 29.3428C38.1071 29.2127 38.0179 29.0712 37.9455 28.9209C37.7355 28.4029 37.3306 27.9879 36.8179 27.7651C36.2842 27.6452 35.7248 27.7408 35.2611 28.031C35.1047 28.1155 34.9382 28.18 34.7656 28.2228C34.593 28.18 34.4265 28.1155 34.2701 28.031C33.8062 27.741 33.2467 27.6454 32.7129 27.7651C32.2003 27.9883 31.7956 28.4033 31.5853 28.9213C31.5135 29.0707 31.4252 29.2116 31.3221 29.3413C31.1636 29.4023 30.9986 29.4448 30.8304 29.468C30.2764 29.5054 29.7597 29.7607 29.3934 30.1779C29.1108 30.6524 29.0274 31.2195 29.1614 31.7553C29.1917 31.9245 29.2022 32.0967 29.1927 32.2684C29.1029 32.4033 28.9986 32.5279 28.8814 32.6399C28.4498 33.0028 28.1781 33.5208 28.125 34.0823C28.1781 34.6437 28.4498 35.1617 28.8814 35.5246C28.9977 35.636 29.1017 35.7596 29.1916 35.8931C29.2022 36.0658 29.192 36.239 29.1614 36.4093C29.0698 36.6722 29.0433 36.9534 29.0842 37.2287C29.1251 37.5041 29.2322 37.7655 29.3963 37.9904C29.5604 38.2153 29.7766 38.397 30.0264 38.52C30.2762 38.643 30.552 38.7036 30.8304 38.6966C30.9977 38.7198 31.1618 38.7618 31.3198 38.8217C31.4241 38.9518 31.5133 39.0934 31.5857 39.2436C31.7957 39.7617 32.2006 40.1767 32.7133 40.3995C32.8523 40.4446 32.9975 40.4674 33.1436 40.467C33.5391 40.4405 33.9238 40.3267 34.2701 40.1336C34.4265 40.0491 34.593 39.9846 34.7656 39.9417C34.9382 39.9846 35.1047 40.0491 35.2611 40.1336C35.725 40.4236 36.2845 40.5191 36.8183 40.3995ZM33.6033 38.7206C33.4717 38.7867 33.336 38.8442 33.197 38.8926C33.1082 38.7664 33.0284 38.6341 32.9582 38.4967C32.8135 38.1202 32.5628 37.7937 32.2364 37.5567C31.91 37.3196 31.5219 37.1823 31.1191 37.1611C30.9683 37.1366 30.8193 37.1017 30.6732 37.0566C30.6756 36.9059 30.6884 36.7555 30.7114 36.6065C30.7899 36.2104 30.7785 35.8016 30.6778 35.4106C30.5322 35.0442 30.3055 34.7155 30.0148 34.4492C29.9003 34.3357 29.7953 34.2129 29.7008 34.0822C29.7953 33.9516 29.9003 33.8288 30.0148 33.7153C30.3055 33.449 30.5322 33.1203 30.6778 32.7539C30.7784 32.3627 30.7899 31.9539 30.7114 31.5576C30.6885 31.4086 30.6758 31.2582 30.6732 31.1075C30.8193 31.0628 30.9683 31.028 31.1191 31.0034C31.522 30.9826 31.9103 30.8453 32.2367 30.6083C32.5631 30.3712 32.8138 30.0445 32.9582 29.6678C33.0283 29.5303 33.1081 29.398 33.197 29.2718C33.336 29.3203 33.4717 29.3778 33.6033 29.4439C33.9499 29.6668 34.3534 29.7853 34.7656 29.7853C35.1778 29.7853 35.5812 29.6668 35.9279 29.4439C36.0595 29.3778 36.1952 29.3203 36.3342 29.2718C36.423 29.3981 36.5028 29.5304 36.573 29.6678C36.7177 30.0443 36.9684 30.3708 37.2948 30.6078C37.6212 30.8449 38.0092 30.9822 38.412 31.0034C38.5629 31.0279 38.7119 31.0628 38.858 31.1079C38.8556 31.2586 38.8428 31.409 38.8198 31.558C38.7413 31.9541 38.7527 32.3629 38.8534 32.7539C38.999 33.1203 39.2256 33.449 39.5164 33.7153C39.6309 33.8288 39.7359 33.9516 39.8303 34.0822C39.7359 34.2129 39.6309 34.3357 39.5164 34.4492C39.2256 34.7155 38.999 35.0442 38.8534 35.4106C38.7527 35.8018 38.7413 36.2106 38.8198 36.6069C38.8427 36.7559 38.8554 36.9063 38.858 37.057C38.7119 37.1017 38.5629 37.1365 38.412 37.1611C38.0091 37.1819 37.6209 37.3192 37.2945 37.5562C36.9681 37.7933 36.7174 38.12 36.573 38.4967C36.5028 38.6341 36.423 38.7665 36.3342 38.8926C36.1952 38.8442 36.0595 38.7867 35.9279 38.7206C35.5812 38.4977 35.1778 38.3792 34.7656 38.3792C34.3534 38.3792 33.9499 38.4977 33.6033 38.7206Z" fill="white"/>
<path d="M37.5 34.0823C37.5 33.5414 37.3396 33.0128 37.0392 32.5631C36.7387 32.1135 36.3117 31.763 35.812 31.556C35.3124 31.3491 34.7626 31.2949 34.2322 31.4004C33.7017 31.506 33.2145 31.7664 32.8321 32.1488C32.4497 32.5312 32.1893 33.0184 32.0838 33.5488C31.9783 34.0793 32.0324 34.629 32.2394 35.1287C32.4464 35.6283 32.7968 36.0554 33.2465 36.3558C33.6962 36.6563 34.2248 36.8167 34.7656 36.8167C35.4906 36.8158 36.1856 36.5274 36.6982 36.0148C37.2108 35.5022 37.4991 34.8072 37.5 34.0823ZM34.7656 35.2541C34.5339 35.2541 34.3073 35.1854 34.1146 35.0566C33.9219 34.9279 33.7717 34.7448 33.683 34.5307C33.5943 34.3166 33.5711 34.081 33.6163 33.8536C33.6615 33.6263 33.7731 33.4175 33.937 33.2536C34.1009 33.0897 34.3097 32.9781 34.537 32.9329C34.7643 32.8877 34.9999 32.9109 35.2141 32.9996C35.4282 33.0883 35.6112 33.2385 35.74 33.4312C35.8688 33.6239 35.9375 33.8505 35.9375 34.0823C35.9372 34.393 35.8136 34.6908 35.5939 34.9105C35.3742 35.1302 35.0763 35.2538 34.7656 35.2541Z" fill="white"/>
<path d="M45.3125 37.5003C45.7268 37.4998 46.124 37.3351 46.4169 37.0422C46.7098 36.7492 46.8746 36.352 46.875 35.9378V8.59375C46.8746 8.17948 46.7098 7.78229 46.4169 7.48935C46.124 7.19642 45.7268 7.03166 45.3125 7.03125H4.6875C4.27323 7.03166 3.87604 7.19642 3.5831 7.48935C3.29017 7.78229 3.12541 8.17948 3.125 8.59375V35.9377C3.12541 36.352 3.29017 36.7492 3.5831 37.0421C3.87604 37.3351 4.27323 37.4998 4.6875 37.5002H27.581C27.5395 37.1434 27.5409 36.7829 27.5852 36.4264C27.4431 36.2717 27.3104 36.1085 27.1879 35.9377H4.6875V14.679L10.7086 8.65784C10.7272 8.63743 10.7447 8.61604 10.761 8.59375H39.239C39.2553 8.61604 39.2728 8.63743 39.2914 8.65784L45.3128 14.6793L45.3136 35.9377H42.3432C42.2207 36.1084 42.0881 36.2716 41.946 36.4264C41.9903 36.7829 41.9918 37.1434 41.9502 37.5002L45.3125 37.5003ZM4.6875 12.4695V8.59373H8.56323L4.6875 12.4695ZM41.4368 8.59373H45.3125L45.3127 12.4697L41.4368 8.59373Z" fill="white"/>
</svg>
