<svg width="16" height="2" viewBox="0 0 16 2" fill="none" xmlns="http://www.w3.org/2000/svg">
<path d="M16.0002 0C16.0002 0 15.9682 0.0553938 15.8859 0.135952C15.7709 0.262095 15.6472 0.378245 15.5159 0.483362C15.0379 0.876189 14.5078 1.18529 13.9442 1.39972C13.1062 1.70672 12.2318 1.87637 11.3491 1.90321C10.2816 1.94051 9.21315 1.89846 8.15086 1.77734C5.86643 1.56084 3.83785 1.19328 2.37124 0.906293C1.63565 0.760281 1.0417 0.634402 0.635072 0.538739C0.418513 0.506413 0.205648 0.449036 0 0.367554C0.217658 0.371205 0.434671 0.39479 0.648785 0.43805L2.39865 0.720004C3.86983 0.966714 5.90754 1.29901 8.1737 1.51551C9.23604 1.63649 10.3041 1.68526 11.3719 1.66153C12.2367 1.64151 13.0947 1.48901 13.9213 1.20839C14.6653 0.922714 15.3661 0.515354 16.0002 0Z" fill="#263238"/>
</svg>
