<svg width="23" height="32" viewBox="0 0 23 32" fill="none" xmlns="http://www.w3.org/2000/svg">
<path d="M9.60704 31.2902L21.9861 25.2298C23.3379 24.568 23.3379 23.4945 21.9861 22.8275L18.1865 20.9515C17.4319 20.6233 16.5974 20.4523 15.7509 20.4523C14.9044 20.4523 14.0699 20.6233 13.3153 20.9515L1.00926 27.0328C-0.336422 27.6998 -0.336422 28.7785 1.00926 29.4455L4.72359 31.2798C5.48012 31.6077 6.31586 31.7794 7.16386 31.7812C8.01187 31.783 8.8486 31.6149 9.60704 31.2902Z" fill="#E0E0E0"/>
<path d="M18.9904 4.93799C18.418 2.81709 17.4498 1.6915 16.2442 1.14434C15.8247 0.947753 15.3439 0.868192 14.8691 0.916773C14.3942 0.965354 13.9489 1.13964 13.5954 1.41531C15.6413 1.06096 17.4133 3.64566 17.736 6.6837C17.8334 7.63212 17.9369 9.68006 17.9369 9.68006L19.855 10.6285C19.7792 8.71241 19.4897 6.80692 18.9904 4.93799Z" fill="#FA00FF"/>
<path opacity="0.25" d="M18.9904 4.93799C18.418 2.81709 17.4498 1.6915 16.2442 1.14434C15.8247 0.947753 15.3439 0.868192 14.8691 0.916773C14.3942 0.965354 13.9489 1.13964 13.5954 1.41531C15.6413 1.06096 17.4133 3.64566 17.736 6.6837C17.8334 7.63212 17.9369 9.68006 17.9369 9.68006L19.855 10.6285C19.7792 8.71241 19.4897 6.80692 18.9904 4.93799Z" fill="black"/>
<path d="M19.9341 11.1543L19.8549 10.6332L19.794 10.6697V10.6332L17.876 9.6848C17.6324 10.2997 17.3341 11.1283 17.0235 12.0558C13.0778 14.0048 6.4407 17.2669 6.4407 17.2669L8.48054 30.4665L21.773 23.8433C22.0373 23.7133 22.235 23.5031 22.3271 23.2544C22.8934 21.8891 20.5552 13.3638 19.9341 11.1543Z" fill="#FA00FF"/>
<path opacity="0.2" d="M19.9341 11.1543L19.8549 10.6332L19.794 10.6697V10.6332L17.876 9.6848C17.6324 10.2997 17.3341 11.1283 17.0235 12.0558C13.0778 14.0048 6.4407 17.2669 6.4407 17.2669L8.48054 30.4665L21.773 23.8433C22.0373 23.7133 22.235 23.5031 22.3271 23.2544C22.8934 21.8891 20.5552 13.3638 19.9341 11.1543Z" fill="white"/>
<path d="M19.855 10.6283L6.42855 17.262L4.5105 16.3136L17.9369 9.6799L19.855 10.6283Z" fill="#FA00FF"/>
<path opacity="0.5" d="M19.855 10.6283L6.42855 17.262L4.5105 16.3136L17.9369 9.6799L19.855 10.6283Z" fill="white"/>
<path opacity="0.2" d="M7.21396 20.1073C7.21396 20.1073 7.1348 20.4096 8.43177 20.6284C9.72875 20.8473 15.1602 20.8108 15.8726 20.446C16.5851 20.0813 18.5092 18.0698 19.3799 16.7097C19.9123 15.8733 20.3664 15.002 20.7378 14.1042L7.21396 20.1073Z" fill="black"/>
<path d="M4.5106 16.3136C3.3963 19.0807 1.26511 26.1782 1.58783 27.2568C1.91055 28.3355 3.54244 29.1276 4.5106 29.607C5.47876 30.0865 8.32844 31.4882 8.97389 29.9145C9.61933 28.3407 6.42866 17.2829 6.42866 17.2829L4.5106 16.3136Z" fill="#FA00FF"/>
<path d="M6.42845 17.262C6.42845 17.4236 6.72071 19.4454 7.21393 20.1073C7.70714 20.7691 14.2955 20.373 15.422 20.1073C16.5485 19.8415 20.5977 14.8962 20.7439 14.1458C20.89 13.3954 19.8549 10.6283 19.8549 10.6283L6.42845 17.262Z" fill="#FA00FF"/>
<path opacity="0.35" d="M6.42845 17.262C6.42845 17.4236 6.72071 19.4454 7.21393 20.1073C7.70714 20.7691 14.2955 20.373 15.422 20.1073C16.5485 19.8415 20.5977 14.8962 20.7439 14.1458C20.89 13.3954 19.8549 10.6283 19.8549 10.6283L6.42845 17.262Z" fill="white"/>
<path d="M15.1724 19.0808C15.2028 19.3309 15.422 19.4091 15.6534 19.2631C15.7749 19.1766 15.8713 19.0671 15.9347 18.9431C15.9981 18.8192 16.0269 18.6843 16.0187 18.5492C15.9822 18.3043 15.7691 18.2262 15.5377 18.3721C15.4155 18.4569 15.3187 18.5655 15.2551 18.6887C15.1916 18.8119 15.1632 18.9463 15.1724 19.0808Z" fill="#FA00FF"/>
<path d="M13.3518 0.0549568C6.30677 1.09717 4.5105 16.3135 4.5105 16.3135L6.42855 17.2619C6.77563 8.26758 10.6057 2.67091 13.1265 1.58701C16.6095 0.0966466 18.7955 3.15033 19.3009 6.20922C18.4423 1.80587 17.1392 -0.382772 13.3518 0.0549568Z" fill="#FA00FF"/>
<path opacity="0.15" d="M13.3518 0.0549568C6.30677 1.09717 4.5105 16.3135 4.5105 16.3135L6.42855 17.2619C6.77563 8.26758 10.6057 2.67091 13.1265 1.58701C16.6095 0.0966466 18.7955 3.15033 19.3009 6.20922C18.4423 1.80587 17.1392 -0.382772 13.3518 0.0549568Z" fill="black"/>
</svg>
