<svg width="96" height="79" viewBox="0 0 96 79" fill="none" xmlns="http://www.w3.org/2000/svg">
<path d="M33.4961 20.3012C33.4961 29.2787 27.1708 40.1869 19.3133 44.6966C16.0523 46.5646 13.0583 47.0246 10.6687 46.2788C8.81325 44.599 7.70984 41.7831 7.70984 38.0471C7.70984 29.0835 14.0352 18.1683 21.8997 13.6517C25.1537 11.7907 28.1547 11.3306 30.5513 12.0764C32.3997 13.7702 33.4961 16.5722 33.4961 20.3012Z" fill="#1A5FFF"/>
<path d="M36.069 21.7858C36.069 30.7563 29.7437 41.6575 21.8862 46.1463C18.0207 48.3558 14.5207 48.5998 11.9625 47.1988L11.7516 47.0803C11.3581 46.8422 10.9907 46.5643 10.6552 46.2508C8.79977 44.571 7.69636 41.7551 7.69636 38.0191C7.69636 29.0556 14.0217 18.1404 21.8862 13.6237C25.1402 11.7627 28.1412 11.3027 30.5378 12.0485C30.9373 12.1672 31.3235 12.326 31.6905 12.5225L31.7537 12.5573L32.1543 12.7873C34.5931 14.3486 36.069 17.4364 36.069 21.7858Z" fill="#1A5FFF"/>
<path d="M29.5326 11.3165L29.1039 11.0726C26.5667 9.74825 23.1159 10.0131 19.3207 12.1878C11.4703 16.6696 5.14496 27.5778 5.14496 36.5483C5.12502 38.0416 5.33355 39.5292 5.76344 40.9604C6.21774 42.5093 7.10175 43.9004 8.31466 44.9752C8.58692 45.2061 8.87846 45.4136 9.18614 45.5955H9.23534L9.29859 45.6374L9.53755 45.7698L11.7584 47.0453C11.365 46.8073 10.9975 46.5293 10.6621 46.2159C8.80663 44.5361 7.70321 41.7201 7.70321 37.9842C7.70321 29.0206 14.0285 18.1054 21.893 13.5888C25.1471 11.7278 28.1481 11.2677 30.5447 12.0135C30.9442 12.1322 31.3304 12.291 31.6973 12.4875L29.5326 11.3165Z" fill="#455A64"/>
<path d="M8.30024 44.9751C8.5725 45.2059 8.86406 45.4135 9.17175 45.5954L4.1466 42.7167H4.09039C1.56728 41.2321 0 38.0956 0 33.6556C0 24.692 6.32533 13.7768 14.1828 9.26022C16.0866 8.08507 18.2672 7.42427 20.5081 7.34344C21.8041 7.32583 23.0819 7.64802 24.212 8.27743L29.1317 11.0655C26.5945 9.74115 23.1437 10.006 19.3485 12.1807C11.4699 16.6694 5.14461 27.5777 5.14461 36.5482C5.12467 38.0414 5.3332 39.5291 5.76309 40.9603C6.20314 42.5121 7.08384 43.9058 8.30024 44.9751Z" fill="#263238"/>
<path d="M51.5304 30.6449C51.5304 39.6154 45.205 50.5166 37.3476 55.0403C35.4443 56.2176 33.2637 56.8808 31.0222 56.964C29.7365 56.9772 28.4696 56.6577 27.3465 56.037L11.9759 47.1919L11.7651 47.0734C11.3716 46.8354 11.0042 46.5574 10.6687 46.244C8.81325 44.5642 7.70984 41.7483 7.70984 38.0123C7.70984 29.0487 14.0352 18.1335 21.8997 13.6169C25.1537 11.7559 28.1547 11.2958 30.5513 12.0416C30.9508 12.1603 31.337 12.3191 31.704 12.5156L31.7672 12.5505L32.1678 12.7805L47.3837 21.4861C49.956 22.9917 51.5304 26.1491 51.5304 30.6449Z" fill="#263238"/>
<path d="M43.2019 78.153C40.1657 79.4216 35.8926 79.2613 33.1586 77.7L23.5231 72.1866C21.9232 71.1512 20.5919 69.7566 19.6371 68.1157C18.6822 66.4748 18.1306 64.6339 18.027 62.7421V36.9527C18.0317 36.2742 18.1142 35.5984 18.273 34.9383C18.3222 34.7083 18.3855 34.4853 18.4558 34.2413V34.1786C18.519 33.9695 18.5893 33.7674 18.6666 33.5583C18.7439 33.3492 18.8774 33.0216 18.9969 32.7567L19.257 32.213L19.5522 31.6833L19.6154 31.5579L40.2501 43.407C39.2568 45.0318 38.7002 46.8821 38.6336 48.781V74.5704C38.6547 77.6582 40.6225 79.1149 43.2019 78.153Z" fill="#263238"/>
<path d="M95.3931 16.2654V42.0548C95.2923 43.9472 94.7419 45.7892 93.7867 47.4305C92.8316 49.0718 91.4988 50.466 89.8971 51.4993L44.1579 77.693L44.0384 77.7557C43.9485 77.8114 43.8545 77.8604 43.7573 77.9021L43.448 78.0484L43.202 78.146C40.6227 79.1079 38.6548 77.6511 38.6548 74.5494V48.76C38.7619 46.8683 39.3157 45.028 40.2716 43.3875C41.2275 41.747 42.5587 40.3522 44.1579 39.3155C46.7539 37.7734 48.9728 35.6794 50.6548 33.1846C52.3368 30.6897 53.4399 27.8559 53.8848 24.8874C54.0579 23.937 54.4083 23.0269 54.918 22.2039C55.4012 21.3858 56.0732 20.6931 56.8788 20.1826L66.8517 14.4671C67.1471 14.2647 67.4912 14.1433 67.8491 14.1151C68.207 14.087 68.5661 14.1531 68.8899 14.3068L69.0867 14.4183C69.6215 14.8052 70.0414 15.3276 70.3026 15.9308C70.7053 16.7332 71.2635 17.4491 71.9453 18.0375C72.627 18.6259 73.419 19.0753 74.2759 19.3601C75.1329 19.6449 76.038 19.7595 76.9396 19.6973C77.8412 19.6351 78.7216 19.3974 79.5305 18.9977L79.903 18.7955L89.89 13.087C92.7856 11.4281 95.1541 12.627 95.372 15.7566C95.386 15.9517 95.3931 16.112 95.3931 16.2654Z" fill="#37474F"/>
<path d="M43.7992 15.8748L34.269 10.4172C33.7563 11.2387 33.4057 12.1493 33.2358 13.1007C32.786 16.063 31.6806 18.8899 29.9989 21.3784C28.3171 23.8669 26.1008 25.9554 23.5089 27.4939C21.8859 28.4985 20.5482 29.8972 19.6223 31.5575L40.257 43.4067C41.177 41.7403 42.5159 40.3381 44.1435 39.3362C46.7444 37.793 48.9673 35.6963 50.6519 33.1976C52.3364 30.6989 53.4405 27.8605 53.8846 24.8871C54.0577 23.9367 54.408 23.0266 54.9177 22.2036L43.7992 15.8748Z" fill="#37474F"/>
<path d="M89.8972 6.82066L80.2616 1.3073C78.5591 0.447949 76.6759 0 74.7656 0C72.8553 0 70.9721 0.447949 69.2696 1.3073L59.2615 7.00886C58.6728 7.35042 58.0354 7.60185 57.3709 7.75465L57.6731 7.92194L68.862 14.3344L69.0588 14.446C69.5935 14.8328 70.0135 15.3553 70.2746 15.9585C70.6774 16.7609 71.2356 17.4767 71.9173 18.0651C72.5991 18.6535 73.391 19.103 74.248 19.3878C75.1049 19.6726 76.01 19.7871 76.9116 19.725C77.8132 19.6628 78.6936 19.425 79.5026 19.0253L79.8751 18.8232L89.8621 13.1147C92.7577 11.4558 95.1261 12.6546 95.344 15.7842C95.1765 13.9795 94.5995 12.2357 93.6562 10.6835C92.713 9.13122 91.4279 7.81066 89.8972 6.82066Z" fill="#37474F"/>
<path d="M57.7014 7.92207L57.3992 7.75478L48.4312 2.61782L48.2555 2.52024C47.9329 2.36646 47.575 2.30028 47.2181 2.32844C46.8613 2.35661 46.5184 2.4781 46.2244 2.68054L36.2444 8.38907C35.437 8.90029 34.7646 9.59577 34.2836 10.4174L43.7997 15.875L54.8971 22.2317C55.3804 21.4136 56.0524 20.7209 56.858 20.2104L66.8309 14.4949C67.1263 14.2925 67.4704 14.1711 67.8283 14.1429C68.1862 14.1148 68.5452 14.1809 68.8691 14.3346L57.7014 7.92207Z" fill="#455A64"/>
<path d="M58.7766 22.0573L66.3389 17.7289C67.0979 17.2898 67.7445 17.6453 67.7445 18.5096V22.7474C67.7162 23.2236 67.574 23.6863 67.3295 24.0972C67.0851 24.5081 66.7455 24.8554 66.3389 25.1102L58.7766 29.4387C58.0175 29.8778 57.3709 29.5223 57.3709 28.658V24.4202C57.402 23.9446 57.5454 23.483 57.7896 23.0725C58.0338 22.662 58.3719 22.3143 58.7766 22.0573Z" fill="#E0E0E0"/>
<path d="M30.2773 29.5364C29.209 30.1428 29.3285 31.2023 30.5373 31.8993L33.8757 33.8091C34.5036 34.1557 35.2053 34.3503 35.9234 34.3769C36.6416 34.4036 37.3559 34.2615 38.0082 33.9624C39.0835 33.356 38.9641 32.2966 37.7482 31.5996L34.4098 29.6828C33.7808 29.3389 33.079 29.1464 32.3611 29.121C31.6433 29.0956 30.9295 29.2379 30.2773 29.5364Z" fill="#263238"/>
<path d="M30.2773 28.7487C29.209 29.3551 29.3285 30.4215 30.5373 31.1115L33.8757 33.0283C34.5047 33.3722 35.2065 33.5647 35.9243 33.5901C36.6422 33.6155 37.356 33.4732 38.0082 33.1747C39.0835 32.5683 38.9641 31.5088 37.7482 30.8118L34.4098 28.902C33.7819 28.5554 33.0802 28.3608 32.3621 28.3342C31.6439 28.3075 30.9296 28.4495 30.2773 28.7487Z" fill="#455A64"/>
<path d="M75.6512 12.7314L74.6602 12.4805L72.3831 11.1771C71.9093 10.9181 71.3811 10.7726 70.8405 10.752C70.2999 10.7314 69.762 10.8364 69.2696 11.0586H69.2275L68.7144 10.9261V11.8323C68.7446 12.047 68.8295 12.2506 68.9611 12.4238C69.0927 12.597 69.2666 12.734 69.4664 12.822L71.9825 14.2579C72.4582 14.5148 72.9874 14.6592 73.5287 14.6798C74.0701 14.7003 74.6088 14.5965 75.103 14.3764C75.2561 14.3071 75.3873 14.1979 75.4827 14.0604C75.578 13.9229 75.6338 13.7623 75.6442 13.5957V12.7314H75.6512Z" fill="#263238"/>
<path d="M69.2696 10.1872C68.4613 10.6542 68.5667 11.4488 69.4663 11.9715L71.9824 13.4143C72.4569 13.6749 72.9865 13.8214 73.5285 13.842C74.0704 13.8626 74.6097 13.7567 75.1029 13.5328C75.9041 13.0728 75.8057 12.2712 74.8991 11.7485L72.383 10.3057C71.9093 10.0467 71.381 9.90117 70.8404 9.8806C70.2999 9.86002 69.7619 9.96501 69.2696 10.1872Z" fill="#455A64"/>
<path d="M84.4717 5.25944C83.0589 4.55835 81.5008 4.19334 79.921 4.19334C78.3412 4.19334 76.7831 4.55835 75.3703 5.25944H73.4376V7.90112C73.4376 8.85603 74.0701 9.80395 75.3351 10.5288C76.7564 11.2435 78.3275 11.6159 79.921 11.6159C81.5145 11.6159 83.0856 11.2435 84.5069 10.5288C85.772 9.83183 86.4045 8.85603 86.4045 7.90112V5.25944H84.4717Z" fill="#263238"/>
<path d="M75.3352 2.63868C72.805 4.08846 72.805 6.43739 75.3352 7.88717C76.7564 8.60177 78.3275 8.97418 79.921 8.97418C81.5145 8.97418 83.0856 8.60177 84.5069 7.88717C87.037 6.43739 87.037 4.08846 84.5069 2.63868C83.0856 1.92407 81.5145 1.55167 79.921 1.55167C78.3275 1.55167 76.7564 1.92407 75.3352 2.63868Z" fill="#455A64"/>
<path d="M65.6922 8.49353C65.3043 8.30772 64.8791 8.21122 64.4483 8.21122C64.0175 8.21122 63.5922 8.30772 63.2043 8.49353H62.6209V9.2463C62.6345 9.40664 62.6913 9.56042 62.7852 9.6916C62.8792 9.82278 63.0069 9.92656 63.1551 9.99211C63.5553 10.1914 63.9969 10.2951 64.4447 10.2951C64.8926 10.2951 65.3342 10.1914 65.7344 9.99211C65.882 9.92774 66.0095 9.8252 66.1035 9.69522C66.1975 9.56523 66.2545 9.4126 66.2686 9.25328V8.49353H65.6922Z" fill="#263238"/>
<path d="M71.4278 6.29793V5.53819H70.8514C70.4635 5.35239 70.0383 5.25588 69.6075 5.25588C69.1767 5.25588 68.7514 5.35239 68.3635 5.53819H67.7802V6.29793C67.7935 6.45748 67.8502 6.61044 67.9443 6.74054C68.0383 6.87065 68.1662 6.97302 68.3143 7.03676C68.7145 7.23602 69.1561 7.33979 69.604 7.33979C70.0518 7.33979 70.4934 7.23602 70.8936 7.03676C71.0417 6.97302 71.1696 6.87065 71.2636 6.74054C71.3577 6.61044 71.4144 6.45748 71.4278 6.29793Z" fill="#263238"/>
<path d="M63.1548 7.75489C62.9993 7.80749 62.8643 7.90702 62.7687 8.03951C62.6732 8.172 62.6218 8.33081 62.6218 8.49372C62.6218 8.65662 62.6732 8.81545 62.7687 8.94794C62.8643 9.08043 62.9993 9.17994 63.1548 9.23255C63.555 9.43181 63.9966 9.53558 64.4444 9.53558C64.8922 9.53558 65.3339 9.43181 65.7341 9.23255C65.8895 9.17994 66.0245 9.08043 66.1201 8.94794C66.2157 8.81545 66.2671 8.65662 66.2671 8.49372C66.2671 8.33081 66.2157 8.172 66.1201 8.03951C66.0245 7.90702 65.8895 7.80749 65.7341 7.75489C65.3354 7.55073 64.8932 7.4442 64.4444 7.4442C63.9957 7.4442 63.5535 7.55073 63.1548 7.75489Z" fill="#455A64"/>
<path d="M68.3136 4.79924C68.1581 4.85184 68.0232 4.95137 67.9276 5.08386C67.832 5.21635 67.7806 5.37518 67.7806 5.53808C67.7806 5.70098 67.832 5.8598 67.9276 5.99229C68.0232 6.12478 68.1581 6.22431 68.3136 6.27691C68.7138 6.47617 69.1554 6.57993 69.6033 6.57993C70.0511 6.57993 70.4927 6.47617 70.8929 6.27691C71.0484 6.22431 71.1834 6.12478 71.279 5.99229C71.3745 5.8598 71.4259 5.70098 71.4259 5.53808C71.4259 5.37518 71.3745 5.21635 71.279 5.08386C71.1834 4.95137 71.0484 4.85184 70.8929 4.79924C70.4927 4.59998 70.0511 4.49622 69.6033 4.49622C69.1554 4.49622 68.7138 4.59998 68.3136 4.79924Z" fill="#455A64"/>
<path d="M88.4704 35.6704C88.9555 34.7953 89.223 33.818 89.2505 32.8197C89.2773 32.4413 89.2201 32.0616 89.0829 31.7076C88.9457 31.3535 88.7318 31.0336 88.4563 30.7704L90.5648 27.1739C91.5136 27.8709 92.0337 29.1603 92.0337 30.868C91.967 32.9322 91.3876 34.9481 90.3469 36.7369L88.4704 35.6704Z" fill="#263238"/>
<path d="M83.0171 42.5012C82.59 42.5045 82.1668 42.4215 81.7731 42.2572L83.8816 38.6676C84.0948 38.7371 84.3178 38.7724 84.5422 38.7721C85.0796 38.7558 85.6031 38.5996 86.0603 38.3191C86.9186 37.7955 87.6408 37.0793 88.1688 36.2281L90.0242 37.2945C88.9816 39.0819 87.5117 40.5876 85.744 41.6787C84.9231 42.1844 83.9829 42.468 83.0171 42.5012Z" fill="#263238"/>
<path d="M81.2241 41.9432C80.2753 41.2462 79.7553 39.9568 79.7553 38.256C79.8229 36.1889 80.4047 34.1705 81.449 32.3802L83.3115 33.4467C82.821 34.3225 82.551 35.3029 82.5243 36.3044C82.4975 36.6828 82.5547 37.0624 82.692 37.4165C82.8292 37.7706 83.0431 38.0905 83.3185 38.3536L81.2241 41.9432Z" fill="#263238"/>
<path d="M88.6463 32.9865C88.5937 33.9335 88.3169 34.8548 87.8382 35.6759C87.3595 36.4969 86.6925 37.1946 85.8913 37.7123C85.6279 37.9443 85.2976 38.0884 84.9471 38.124C84.5966 38.1597 84.2437 38.0851 83.9383 37.911C83.6329 37.7368 83.3904 37.4718 83.2452 37.1534C83.1 36.8351 83.0594 36.4795 83.1292 36.137C83.1853 35.1891 83.4644 34.2674 83.944 33.4456C84.4236 32.6238 85.0905 31.9247 85.8913 31.4043C86.1554 31.1741 86.4857 31.0319 86.8356 30.9978C87.1856 30.9637 87.5375 31.0393 87.8418 31.2141C88.1461 31.3888 88.3874 31.6539 88.5317 31.9719C88.676 32.2899 88.7161 32.6447 88.6463 32.9865Z" fill="#263238"/>
<path d="M81.7516 31.8576C82.7904 30.0674 84.2611 28.5609 86.0317 27.4734C86.8509 26.9678 87.7876 26.6797 88.7516 26.637C89.1766 26.6309 89.5982 26.7141 89.9886 26.881L87.8801 30.4776C87.6706 30.4023 87.4493 30.3646 87.2265 30.366C86.6884 30.3838 86.1646 30.5425 85.7084 30.8261C84.844 31.3419 84.1201 32.0598 83.6 32.9171L81.7516 31.8576Z" fill="#263238"/>
<path d="M79.9878 47.7631L81.4708 46.9197C81.773 46.7455 82.019 46.8849 82.019 47.2334V48.9271C82.0088 49.1167 81.9538 49.3012 81.8586 49.4658C81.7634 49.6304 81.6306 49.7706 81.4708 49.8751L79.9878 50.7184C79.6856 50.8927 79.4396 50.7533 79.4396 50.4048V48.711C79.4498 48.5215 79.5048 48.337 79.6 48.1724C79.6952 48.0077 79.828 47.8676 79.9878 47.7631Z" fill="#263238"/>
<path d="M90.3052 41.8595L91.7881 41.0092C91.8425 40.9685 91.9079 40.9448 91.9759 40.941C92.0439 40.9372 92.1116 40.9534 92.1703 40.9878C92.2289 41.0221 92.2761 41.0729 92.3056 41.1338C92.3352 41.1947 92.3459 41.2629 92.3363 41.3298V43.0096C92.3261 43.1982 92.2712 43.3817 92.1759 43.5452C92.0806 43.7087 91.9478 43.8476 91.7881 43.9506L90.3052 44.8009C90.2522 44.8446 90.1869 44.8712 90.1182 44.877C90.0495 44.8828 89.9806 44.8676 89.9209 44.8334C89.8612 44.7993 89.8135 44.7478 89.7841 44.6859C89.7548 44.624 89.7454 44.5546 89.757 44.4872V42.8005C89.7672 42.6119 89.8221 42.4284 89.9174 42.2649C90.0127 42.1013 90.1455 41.9625 90.3052 41.8595Z" fill="#263238"/>
<path d="M79.9878 24.1488L81.4708 23.2985C81.5238 23.2547 81.589 23.2282 81.6577 23.2224C81.7264 23.2166 81.7953 23.2318 81.855 23.2659C81.9147 23.3001 81.9625 23.3516 81.9918 23.4135C82.0211 23.4754 82.0306 23.5447 82.019 23.6121V25.3059C82.0088 25.4954 81.9538 25.6799 81.8586 25.8445C81.7634 26.0092 81.6306 26.1494 81.4708 26.2538L79.9878 27.0972C79.6856 27.2784 79.4396 27.132 79.4396 26.7835V25.0898C79.4498 24.9012 79.5048 24.7177 79.6001 24.5542C79.6953 24.3906 79.8282 24.2518 79.9878 24.1488Z" fill="#263238"/>
<path d="M90.3054 18.2377L91.7883 17.3943C92.0905 17.2201 92.3365 17.3595 92.3365 17.708V19.4017C92.3263 19.5913 92.2714 19.7758 92.1762 19.9404C92.0809 20.105 91.9481 20.2452 91.7883 20.3497L90.3054 21.1931C90.0032 21.3673 89.7572 21.2279 89.7572 20.8794V19.1857C89.7674 18.9961 89.8223 18.8116 89.9175 18.647C90.0127 18.4823 90.1456 18.3422 90.3054 18.2377Z" fill="#263238"/>
<path d="M74.7656 29.5784V52.3776C74.7348 52.946 74.5691 53.4992 74.2821 53.9921C73.9952 54.485 73.5949 54.9038 73.114 55.2145L45.4653 71.0436C44.5516 71.5664 43.8137 71.1412 43.8137 70.1026V47.2964C43.8445 46.729 44.0102 46.1768 44.2972 45.685C44.5842 45.1932 44.9845 44.7757 45.4653 44.4666L73.114 28.6305C74.0206 28.1147 74.7656 28.5329 74.7656 29.5784Z" fill="#F0F0F0"/>
<path d="M46.9974 52.3776C48.2671 51.5569 49.3235 50.4505 50.0807 49.1485C50.8378 47.8465 51.2744 46.3856 51.3549 44.8847C51.3549 43.3652 50.7645 42.3476 49.8227 41.9642L45.4653 44.4665C44.9845 44.7756 44.5842 45.1932 44.2972 45.685C44.0102 46.1768 43.8445 46.7289 43.8137 47.2964V52.6076C44.6078 53.1304 45.7394 53.0955 46.9974 52.3776Z" fill="#1A5FFF"/>
<path opacity="0.7" d="M46.9974 52.3776C48.2671 51.5569 49.3235 50.4505 50.0807 49.1485C50.8378 47.8465 51.2744 46.3856 51.3549 44.8847C51.3549 43.3652 50.7645 42.3476 49.8227 41.9642L45.4653 44.4665C44.9845 44.7756 44.5842 45.1932 44.2972 45.685C44.0102 46.1768 43.8445 46.7289 43.8137 47.2964V52.6076C44.6078 53.1304 45.7394 53.0955 46.9974 52.3776Z" fill="white"/>
<path d="M70.345 39.0506C70.2799 38.9307 70.1808 38.8323 70.0599 38.7676C69.9391 38.7029 69.8017 38.6748 69.6649 38.6866C69.5281 38.6985 69.3978 38.7498 69.2901 38.8344C69.1824 38.9189 69.102 39.0328 69.0589 39.1622L61.869 54.2664L55.5437 50.4886C55.2581 50.3184 54.9163 50.2669 54.5926 50.3452C54.2689 50.4235 53.9894 50.6253 53.8148 50.9068L43.7997 67.5584V70.1025C43.7997 71.141 44.5376 71.5662 45.4513 71.0435L73.1 55.2143C73.5781 54.9023 73.9763 54.4841 74.263 53.9929C74.5497 53.5017 74.717 52.951 74.7517 52.3845V45.1704L70.345 39.0506Z" fill="#1A5FFF"/>
<path d="M48.9719 45.4072L46.3926 46.8849V49.8402" stroke="white" stroke-linecap="round" stroke-linejoin="round"/>
<path d="M46.3926 64.6032V67.5585L48.9719 66.0808" stroke="white" stroke-linecap="round" stroke-linejoin="round"/>
<path d="M69.6068 33.5933L72.1861 32.1156V35.0709" stroke="white" stroke-linecap="round" stroke-linejoin="round"/>
<path d="M72.1861 49.8402V52.7886L69.6068 54.2662" stroke="white" stroke-linecap="round" stroke-linejoin="round"/>
<path d="M88.9477 35.9562C89.434 35.079 89.7015 34.0991 89.7279 33.0984C89.7547 32.72 89.6975 32.3404 89.5603 31.9863C89.423 31.6323 89.2092 31.3124 88.9337 31.0492L91.0421 27.4596C91.9909 28.1566 92.511 29.4461 92.511 31.1468C92.4418 33.2127 91.8626 35.2303 90.8243 37.0226L88.9477 35.9562Z" fill="#455A64"/>
<path d="M83.4947 42.7795C83.0704 42.7846 82.6496 42.7039 82.2577 42.5426L84.3662 38.946C84.5765 39.0179 84.7973 39.0556 85.0198 39.0575C85.5606 39.043 86.0875 38.884 86.5449 38.5975C87.4032 38.0739 88.1254 37.3576 88.6533 36.5064L90.5158 37.5729C89.477 39.3631 88.0063 40.8696 86.2357 41.9571C85.4089 42.4613 84.4646 42.7446 83.4947 42.7795Z" fill="#455A64"/>
<path d="M81.7021 42.229C80.7533 41.532 80.2402 40.2355 80.2402 38.5348C80.3068 36.4707 80.8862 34.4548 81.927 32.666L83.7894 33.7254C83.2989 34.6013 83.0289 35.5816 83.0023 36.5832C82.9754 36.9616 83.0327 37.3412 83.1699 37.6953C83.3071 38.0493 83.521 38.3692 83.7965 38.6324L81.7021 42.229Z" fill="#455A64"/>
<path d="M89.1245 33.2515C89.0719 34.1994 88.7951 35.1217 88.3165 35.9439C87.8379 36.7661 87.1709 37.465 86.3695 37.9842C86.0348 38.275 85.5973 38.4222 85.1533 38.3934C84.7092 38.3647 84.2948 38.1624 84.001 37.8309C83.8338 37.643 83.712 37.4198 83.645 37.1782C83.578 36.9366 83.5676 36.683 83.6145 36.4368C83.6481 35.4863 83.9263 34.5602 84.4227 33.7464C84.882 32.9115 85.5531 32.2099 86.3695 31.7111C86.6333 31.4819 86.9627 31.3403 87.3117 31.3061C87.6607 31.272 88.0117 31.3471 88.3155 31.5208C88.6193 31.6945 88.8607 31.9581 89.0058 32.2748C89.1509 32.5914 89.1924 32.9451 89.1245 33.2863V33.2515Z" fill="#455A64"/>
<path d="M82.2505 32.1153C83.2893 30.325 84.76 28.8186 86.5306 27.7311C87.3512 27.2293 88.2875 26.9438 89.2505 26.9016C89.6726 26.896 90.0913 26.9767 90.4805 27.1386L88.372 30.7352C88.1613 30.6655 87.9405 30.6302 87.7184 30.6307C87.1811 30.647 86.6575 30.8032 86.2003 31.0837C85.342 31.6073 84.6198 32.3235 84.0919 33.1747L82.2505 32.1153Z" fill="#455A64"/>
<path d="M80.4726 48.0493L81.9485 47.1989C82.0015 47.1552 82.0668 47.1286 82.1355 47.1228C82.2042 47.117 82.273 47.1322 82.3327 47.1664C82.3925 47.2006 82.4402 47.2521 82.4695 47.314C82.4988 47.3759 82.5083 47.4452 82.4967 47.5126V49.2063C82.4865 49.3958 82.4316 49.5803 82.3363 49.745C82.2411 49.9096 82.1083 50.0498 81.9485 50.1543L80.4726 50.9976C80.4196 51.0414 80.3543 51.0679 80.2856 51.0737C80.2169 51.0795 80.1481 51.0643 80.0883 51.0302C80.0286 50.996 79.9809 50.9445 79.9516 50.8826C79.9222 50.8207 79.9128 50.7514 79.9244 50.684V48.9902C79.9346 48.8017 79.9895 48.6181 80.0848 48.4546C80.1801 48.2911 80.3129 48.1522 80.4726 48.0493Z" fill="#455A64"/>
<path d="M90.7896 42.1385L92.2655 41.2951C92.3185 41.2514 92.3838 41.2248 92.4525 41.219C92.5212 41.2132 92.5901 41.2284 92.6498 41.2626C92.7095 41.2968 92.7572 41.3483 92.7865 41.4102C92.8158 41.4721 92.8253 41.5414 92.8137 41.6088V43.3025C92.8035 43.4911 92.7486 43.6746 92.6533 43.8381C92.558 44.0017 92.4252 44.1405 92.2655 44.2435L90.7896 45.0938C90.7358 45.1362 90.6704 45.1616 90.6019 45.1668C90.5334 45.172 90.4649 45.1567 90.4052 45.123C90.3455 45.0893 90.2973 45.0386 90.2669 44.9775C90.2364 44.9164 90.2251 44.8477 90.2344 44.7802V43.0864C90.2443 42.896 90.2998 42.7107 90.3963 42.5458C90.4929 42.381 90.6277 42.2413 90.7896 42.1385Z" fill="#455A64"/>
<path d="M80.4726 24.4276L81.9485 23.5842C82.0015 23.5405 82.0668 23.5139 82.1355 23.5081C82.2042 23.5023 82.273 23.5175 82.3327 23.5517C82.3925 23.5858 82.4402 23.6373 82.4695 23.6992C82.4988 23.7611 82.5083 23.8304 82.4967 23.8979V25.5846C82.4865 25.7732 82.4315 25.9567 82.3363 26.1202C82.241 26.2838 82.1081 26.4226 81.9485 26.5256L80.4726 27.3759C80.4196 27.4197 80.3543 27.4462 80.2856 27.452C80.2169 27.4578 80.1481 27.4426 80.0883 27.4085C80.0286 27.3743 79.9809 27.3228 79.9516 27.2609C79.9222 27.199 79.9128 27.1297 79.9244 27.0623V25.3755C79.9346 25.186 79.9895 25.0015 80.0847 24.8368C80.1799 24.6722 80.3128 24.532 80.4726 24.4276Z" fill="#455A64"/>
<path d="M90.7906 18.5236L92.2665 17.6732C92.5687 17.499 92.8147 17.6384 92.8147 17.9869V19.6806C92.8045 19.8701 92.7496 20.0546 92.6544 20.2193C92.5592 20.3839 92.4263 20.5241 92.2665 20.6285L90.7906 21.4719C90.4814 21.6462 90.2354 21.5068 90.2354 21.1583V19.4645C90.2458 19.2752 90.3016 19.0911 90.3982 18.9274C90.4947 18.7637 90.6293 18.6253 90.7906 18.5236Z" fill="#455A64"/>
</svg>
