<svg width="4" height="4" viewBox="0 0 4 4" fill="none" xmlns="http://www.w3.org/2000/svg">
<path d="M3.64527 2.00124C3.64527 2.00124 3.59824 1.83463 3.51203 1.57641C3.39414 1.21564 3.17538 0.901767 2.885 0.676788C2.67431 0.519341 2.43035 0.419491 2.17471 0.386076C1.91907 0.35266 1.65963 0.386698 1.41931 0.485191C1.13098 0.603061 0.883033 0.811026 0.708143 1.08167C0.533254 1.3523 0.439637 1.67292 0.439637 2.00124C0.439637 2.32956 0.533254 2.65017 0.708143 2.92081C0.883033 3.19145 1.13098 3.39941 1.41931 3.51728C1.66025 3.61459 1.92006 3.64725 2.17571 3.61238C2.43137 3.57751 2.67499 3.47617 2.885 3.31735C3.17757 3.09473 3.39691 2.78004 3.51203 2.41773C3.59824 2.15951 3.60608 2.00124 3.64527 2.00124C3.68446 2.00124 3.70797 2.1595 3.64527 2.45937C3.57214 2.89194 3.35517 3.28218 3.03391 3.55892C2.79129 3.77005 2.50177 3.91154 2.19303 3.96988C1.88429 4.02821 1.56662 4.00143 1.27039 3.89211C0.89967 3.75688 0.577965 3.50195 0.350203 3.16294C0.122441 2.82394 0 2.41779 0 2.00124C0 1.58468 0.122441 1.17854 0.350203 0.839532C0.577965 0.500525 0.89967 0.245597 1.27039 0.110362C1.56597 -8.88115e-05 1.88326 -0.0282366 2.19198 0.0286336C2.5007 0.0855038 2.79055 0.225482 3.03391 0.435214C3.35358 0.713415 3.57017 1.10298 3.64527 1.53477C3.70797 1.79299 3.66878 2.00124 3.64527 2.00124Z" fill="white"/>
</svg>
