<svg width="14" height="41" viewBox="0 0 14 41" fill="none" xmlns="http://www.w3.org/2000/svg">
<path d="M13.0694 0C13.1327 0.134251 13.1776 0.277416 13.2028 0.425182C13.3166 0.835082 13.4008 1.25362 13.4547 1.67715C13.6761 3.24318 13.6761 4.83557 13.4547 6.40159C13.1159 8.71103 12.5318 10.9722 11.7136 13.1418C10.8245 15.5985 9.69094 18.2205 8.54255 21.0158C6.22354 26.5277 4.09716 31.4962 2.57091 35.1891L0.726079 39.4569C0.511219 39.9215 0.340813 40.3073 0.200043 40.6065C0.143942 40.7435 0.0770216 40.8752 0 41.0002C0.0236636 40.852 0.0686442 40.7086 0.133362 40.575L0.585309 39.3939C1.01503 38.3152 1.60775 36.8584 2.32642 35.071C3.80821 31.3938 5.90495 26.4096 8.18691 20.8977C9.3353 18.1261 10.4837 15.5119 11.3876 13.0788C12.2204 10.9254 12.8267 8.68081 13.1954 6.38585C13.4295 4.84971 13.4669 3.28696 13.3065 1.74016C13.2621 1.18898 13.1731 0.771646 13.1287 0.480306C13.0929 0.322909 13.073 0.161896 13.0694 0Z" fill="#263238"/>
</svg>
