<svg width="20" height="18" viewBox="0 0 20 18" fill="none" xmlns="http://www.w3.org/2000/svg">
<path d="M11.0274 12.8126V13.8176C11.0274 14.6171 10.7027 15.3839 10.1246 15.9493C9.54664 16.5147 8.76269 16.8323 7.94527 16.8323H3.83579C3.01837 16.8323 2.23442 16.5147 1.65641 15.9493C1.07841 15.3839 0.753685 14.6171 0.753685 13.8176V3.76842C0.753685 2.96887 1.07841 2.20205 1.65641 1.63668C2.23442 1.07131 3.01837 0.753685 3.83579 0.753685H7.94527C8.76269 0.753685 9.54664 1.07131 10.1246 1.63668C10.7027 2.20205 11.0274 2.96887 11.0274 3.76842V4.77334M15.1369 12.8126L19.2463 8.79299L15.1369 12.8126ZM19.2463 8.79299L15.1369 4.77334L19.2463 8.79299ZM19.2463 8.79299H4.86316H19.2463Z" stroke="#EE1D52" stroke-width="1.5" stroke-linecap="round" stroke-linejoin="round"/>
</svg>
