<svg width="18" height="25" viewBox="0 0 18 25" fill="none" xmlns="http://www.w3.org/2000/svg">
<path d="M10.6951 25C10.7127 24.756 10.7523 24.5143 10.8132 24.2783C10.8649 24.043 10.9165 23.7449 10.9608 23.3997C11.028 23.0053 11.0748 22.6073 11.1011 22.2074C11.2014 21.1118 11.2014 20.0084 11.1011 18.9127C10.9818 17.4789 10.6609 16.0722 10.1489 14.7396V14.6611V14.5983L11.758 11.4135L12.1861 10.5664L12.4149 10.1271L12.7027 9.71916L13.9354 8.15029C14.7976 7.0469 15.5565 5.85677 16.2014 4.5968C16.523 3.94431 16.6843 3.21597 16.6701 2.47949C16.6559 1.74302 16.4667 1.02232 16.1202 0.384378L16.3933 0.431442L15.3009 1.30217L3.6167 10.5428L3.67575 10.4565C2.59074 14.1826 1.68288 17.2968 1.04073 19.5168C0.723344 20.5758 0.465008 21.4151 0.302625 22.0348L0.0885688 22.6937C0.0442826 22.8428 0.0147621 22.9212 0 22.9134C0.00509049 22.8332 0.0199758 22.7541 0.0442844 22.6781L0.206668 22.0113C0.376432 21.3759 0.597861 20.5287 0.885722 19.4619C1.49835 17.2262 2.36193 14.1042 3.38789 10.3546V10.2997H3.43218L15.0721 1.00408L16.1718 0.133353L16.3416 0L16.4449 0.180417C16.8292 0.87956 17.0402 1.6709 17.0583 2.48034C17.0764 3.28979 16.9009 4.09087 16.5483 4.8086C15.8847 6.09024 15.1035 7.29893 14.2159 8.417L12.9832 9.98588C12.8799 10.1192 12.7839 10.2447 12.7027 10.3702L12.4813 10.7938L12.0458 11.641L10.4146 14.7788V14.6376C10.9264 16.0091 11.2351 17.4565 11.3299 18.9284C11.4157 20.0366 11.3935 21.1512 11.2634 22.2544C11.2211 22.6576 11.1595 23.0581 11.0789 23.4546C11.0318 23.7488 10.9677 24.0396 10.887 24.3254C10.8409 24.5555 10.7767 24.7812 10.6951 25Z" fill="#EB996E"/>
</svg>
