<svg width="26" height="26" viewBox="0 0 26 26" fill="none" xmlns="http://www.w3.org/2000/svg">
<path d="M5.66865 15.4798L3.98143 10.2652C3.63133 9.2635 4.17124 7.96721 5.66865 6.62462C8.65503 3.96891 14.3072 2.1339 18.2891 2.52531C20.3011 2.72312 21.5032 3.45123 21.8111 4.46554L23.4983 9.65912C23.84 10.6608 23.473 12.4832 21.9672 13.8173C18.9766 16.4731 13.3286 18.3081 9.34679 17.9209C7.36009 17.7231 5.97235 16.4815 5.66443 15.4882L5.66865 15.4798Z" fill="#263238"/>
<path d="M10.4861 0L25.8271 3.24493L15.3411 14.8779L0 11.6372L10.4861 0Z" fill="#455A64"/>
<path d="M25.8272 3.24487L26.0002 3.77517L15.5141 15.4123L15.3412 14.8778L25.8272 3.24487Z" fill="#37474F"/>
<path d="M0 11.6372L0.172942 12.1675L15.514 15.4124L15.3411 14.8779L0 11.6372Z" fill="#263238"/>
<path opacity="0.1" d="M21.8831 8.34589L15.7753 16.2078L6.22568 13.4469L15.5138 15.4124L21.8831 8.34589Z" fill="black"/>
<path d="M6.97659 11.8938L11.6164 6.66659C11.6623 6.60464 11.731 6.5634 11.8073 6.55196C11.8836 6.54051 11.9614 6.55979 12.0235 6.60556C12.0856 6.65133 12.1269 6.71983 12.1384 6.79599C12.1498 6.87216 12.1305 6.94975 12.0846 7.0117L12.0551 7.058L7.41526 12.2895" fill="#E0E0E0"/>
<path d="M8.74418 20.2903C8.9027 20.3161 9.06512 20.3035 9.21778 20.2537C9.37045 20.2039 9.50891 20.1183 9.62154 20.0041L11.8487 24.4022C12.1313 25.2776 9.85775 26.0184 9.57092 25.1429L8.74418 20.2903Z" fill="#0060FF"/>
<path opacity="0.15" d="M9.56642 22.9376L10.2455 25.5344C10.1907 25.5344 10.1359 25.5344 10.0852 25.5344L9.56642 22.9376Z" fill="black"/>
<path opacity="0.15" d="M11.4774 25.1556L9.82389 21.1279L11.6081 25.042L11.4774 25.1556Z" fill="black"/>
<path opacity="0.15" d="M10.9921 25.4039L10.8529 25.4502L9.85321 22.1505L10.9921 25.4039Z" fill="black"/>
<path d="M9.18235 20.0883C9.2559 20.0634 9.31662 20.0105 9.35136 19.9412C9.3861 19.8718 9.39206 19.7916 9.36794 19.7179L7.22517 13.1565C7.17739 13.0081 7.16979 12.8498 7.20312 12.6975C7.23645 12.5453 7.30955 12.4045 7.41499 12.2895L6.99318 11.8939C6.81913 12.0862 6.69902 12.321 6.64495 12.5745C6.59089 12.8279 6.60479 13.0911 6.68526 13.3375L8.82381 19.9031C8.84967 19.9731 8.90078 20.0308 8.96711 20.0651C9.03344 20.0993 9.11021 20.1076 9.18235 20.0883Z" fill="#E0E0E0"/>
<path d="M9.70525 19.6084C9.6659 19.4865 9.59123 19.379 9.49068 19.2994C9.39012 19.2198 9.26819 19.1717 9.14027 19.1612C9.01234 19.1507 8.88417 19.1782 8.77192 19.2403C8.65967 19.3024 8.56837 19.3963 8.50957 19.5102C8.45076 19.624 8.42706 19.7527 8.44148 19.8799C8.4559 20.0072 8.50778 20.1273 8.59058 20.2252C8.67337 20.3231 8.78337 20.3943 8.90668 20.4298C9.03 20.4654 9.1611 20.4637 9.28344 20.4249C9.44745 20.3718 9.58379 20.2562 9.66279 20.1033C9.74179 19.9504 9.75705 19.7725 9.70525 19.6084Z" fill="#0060FF"/>
<path opacity="0.15" d="M8.49062 20.042C8.53774 20.0964 8.59604 20.14 8.66154 20.1699C8.72704 20.1997 8.79822 20.2152 8.87025 20.2152C8.94227 20.2152 9.01346 20.1997 9.07896 20.1699C9.14446 20.14 9.20275 20.0964 9.24987 20.042C9.31151 19.9731 9.35418 19.8894 9.37373 19.7991C9.39328 19.7088 9.38904 19.615 9.36142 19.5268C9.3338 19.4386 9.28376 19.3591 9.21615 19.296C9.14855 19.2328 9.06571 19.1883 8.9757 19.1666C9.1277 19.1378 9.28499 19.1645 9.41893 19.2418C9.55287 19.319 9.65454 19.4417 9.70542 19.5875C9.73165 19.6687 9.74154 19.7543 9.73452 19.8394C9.7275 19.9245 9.7037 20.0073 9.66451 20.0832C9.62532 20.159 9.5715 20.2264 9.50613 20.2815C9.44077 20.3365 9.36515 20.3782 9.28362 20.404C9.13006 20.4545 8.96301 20.4454 8.81595 20.3782C8.6689 20.3111 8.55269 20.191 8.49062 20.042Z" fill="black"/>
</svg>
