<svg width="99" height="125" viewBox="0 0 99 125" fill="none" xmlns="http://www.w3.org/2000/svg">
<path d="M31.403 0.730761L0.887711 20.9247V80.6624L31.403 60.4685V0.730761Z" fill="#F26E6E"/>
<path opacity="0.35" d="M31.403 0.730761L0.887711 20.9247V80.6624L31.403 60.4685V0.730761Z" fill="black"/>
<path d="M1.75588 21.9193L31.403 2.41861C32.7476 4.22702 34.7406 5.48286 37.382 6.18613L7.96335 25.6416C7.96335 25.6416 6.28584 25.1895 1.75588 21.9193Z" fill="#F5F5F5"/>
<path d="M10.4763 25.5362C9.69769 25.9929 8.83666 26.2309 7.9633 26.2309C7.08994 26.2309 6.22891 25.9929 5.45027 25.5362L1.04433 22.5976C-0.345992 21.6783 -0.345992 20.1788 1.04433 19.252L30.3063 0L31.4029 0.753503L2.55867 19.8247C1.72318 20.3747 1.7297 21.2789 2.55867 21.829L6.65783 24.5265C7.12471 24.8017 7.64144 24.9452 8.16564 24.9452C8.68985 24.9452 9.20658 24.8017 9.67346 24.5265L38.5047 5.4855L39.7449 6.31436L10.4763 25.5362Z" fill="#F26E6E"/>
<path opacity="0.25" d="M10.4763 25.5362C9.69769 25.9929 8.83666 26.2309 7.9633 26.2309C7.08994 26.2309 6.22891 25.9929 5.45027 25.5362L1.04433 22.5976C-0.345992 21.6783 -0.345992 20.1788 1.04433 19.252L30.3063 0L31.4029 0.753503L2.55867 19.8247C1.72318 20.3747 1.7297 21.2789 2.55867 21.829L6.65783 24.5265C7.12471 24.8017 7.64144 24.9452 8.16564 24.9452C8.68985 24.9452 9.20658 24.8017 9.67346 24.5265L38.5047 5.4855L39.7449 6.31436L10.4763 25.5362Z" fill="black"/>
<path d="M39.7384 6.29166V66.0294L10.4764 85.2739C9.69681 85.7271 8.83613 85.9631 7.96333 85.9631C7.09052 85.9631 6.22985 85.7271 5.4503 85.2739L1.03784 82.3352C0.752069 82.1874 0.505401 81.9547 0.32306 81.6608C0.140719 81.3669 0.0292436 81.0224 0 80.6625V20.9247C0.0292436 21.2846 0.140719 21.6291 0.32306 21.923C0.505401 22.2169 0.752069 22.4497 1.03784 22.5975L5.4503 25.5437C6.22985 25.9968 7.09052 26.2329 7.96333 26.2329C8.83613 26.2329 9.69681 25.9968 10.4764 25.5437L39.7384 6.29166Z" fill="#F26E6E"/>
<path opacity="0.05" d="M39.7384 6.29166V66.0294L10.4764 85.2739C9.69681 85.7271 8.83613 85.9631 7.96333 85.9631C7.09052 85.9631 6.22985 85.7271 5.4503 85.2739L1.03784 82.3352C0.752069 82.1874 0.505401 81.9547 0.32306 81.6608C0.140719 81.3669 0.0292436 81.0224 0 80.6625V20.9247C0.0292436 21.2846 0.140719 21.6291 0.32306 21.923C0.505401 22.2169 0.752069 22.4497 1.03784 22.5975L5.4503 25.5437C6.22985 25.9968 7.09052 26.2329 7.96333 26.2329C8.83613 26.2329 9.69681 25.9968 10.4764 25.5437L39.7384 6.29166Z" fill="black"/>
<path d="M7.96333 26.2369C7.08823 26.2561 6.22334 26.0175 5.4503 25.5437L1.03784 22.5975C0.752069 22.4497 0.505401 22.2169 0.32306 21.923C0.140719 21.6291 0.0292436 21.2846 0 20.9247V80.6625C0.0292436 81.0224 0.140719 81.3669 0.32306 81.6608C0.505401 81.9547 0.752069 82.1874 1.03784 82.3353L5.4503 85.2739C6.22334 85.7477 7.08823 85.9863 7.96333 85.9671V26.2369Z" fill="#F26E6E"/>
<path opacity="0.2" d="M7.96333 26.2369C7.08823 26.2561 6.22334 26.0175 5.4503 25.5437L1.03784 22.5975C0.752069 22.4497 0.505401 22.2169 0.32306 21.923C0.140719 21.6291 0.0292436 21.2846 0 20.9247V80.6625C0.0292436 81.0224 0.140719 81.3669 0.32306 81.6608C0.505401 81.9547 0.752069 82.1874 1.03784 82.3353L5.4503 85.2739C6.22334 85.7477 7.08823 85.9863 7.96333 85.9671V26.2369Z" fill="black"/>
<path d="M38.831 14.2939L13.27 31.4436V87.9187L38.831 70.7765V14.2939Z" fill="#F26E6E"/>
<path opacity="0.55" d="M38.831 14.2939L13.27 31.4436V87.9187L38.831 70.7765V14.2939Z" fill="white"/>
<path d="M14.0925 32.378L38.831 15.8913C40.3394 17.7521 42.3213 19.0109 44.4902 19.4855L19.9605 35.8893C19.9605 35.8893 18.3744 35.4749 14.0925 32.378Z" fill="#F5F5F5"/>
<path d="M22.3366 35.8064C21.601 36.2403 20.7867 36.4665 19.9606 36.4665C19.1346 36.4665 18.3203 36.2403 17.5847 35.8064L13.4202 33.026C12.1148 32.1519 12.1148 30.7655 13.4202 29.8613L37.7998 13.6082L38.8311 14.2939L14.8497 30.3812C14.6777 30.4483 14.5282 30.576 14.4223 30.7463C14.3165 30.9166 14.2595 31.121 14.2595 31.3306C14.2595 31.5402 14.3165 31.7446 14.4223 31.9149C14.5282 32.0852 14.6777 32.2129 14.8497 32.28L18.7204 34.8268C19.1621 35.0868 19.6509 35.2224 20.1466 35.2224C20.6424 35.2224 21.1312 35.0868 21.5729 34.8268L45.5412 18.7772L46.7161 19.5307L22.3366 35.8064Z" fill="#F26E6E"/>
<path opacity="0.8" d="M22.3366 35.8064C21.601 36.2403 20.7867 36.4665 19.9606 36.4665C19.1346 36.4665 18.3203 36.2403 17.5847 35.8064L13.4202 33.026C12.1148 32.1519 12.1148 30.7655 13.4202 29.8613L37.7998 13.6082L38.8311 14.2939L14.8497 30.3812C14.6777 30.4483 14.5282 30.576 14.4223 30.7463C14.3165 30.9166 14.2595 31.121 14.2595 31.3306C14.2595 31.5402 14.3165 31.7446 14.4223 31.9149C14.5282 32.0852 14.6777 32.2129 14.8497 32.28L18.7204 34.8268C19.1621 35.0868 19.6509 35.2224 20.1466 35.2224C20.6424 35.2224 21.1312 35.0868 21.5729 34.8268L45.5412 18.7772L46.7161 19.5307L22.3366 35.8064Z" fill="white"/>
<path d="M46.7161 19.5533V76.0284L22.3365 92.2815C21.6009 92.7154 20.7866 92.9416 19.9606 92.9416C19.1345 92.9416 18.3202 92.7154 17.5846 92.2815L13.4136 89.5011C13.1429 89.3623 12.9092 89.1424 12.737 88.8641C12.5649 88.5858 12.4604 88.2594 12.4345 87.9187V31.4059C12.4617 31.7462 12.5667 32.0719 12.7387 32.35C12.9108 32.628 13.1437 32.8483 13.4136 32.9883L17.5846 35.7687C18.3202 36.2026 19.1345 36.4288 19.9606 36.4288C20.7866 36.4288 21.6009 36.2026 22.3365 35.7687L46.7161 19.5533Z" fill="#F26E6E"/>
<path opacity="0.7" d="M46.7161 19.5533V76.0284L22.3365 92.2815C21.6009 92.7154 20.7866 92.9416 19.9606 92.9416C19.1345 92.9416 18.3202 92.7154 17.5846 92.2815L13.4136 89.5011C13.1429 89.3623 12.9092 89.1424 12.737 88.8641C12.5649 88.5858 12.4604 88.2594 12.4345 87.9187V31.4059C12.4617 31.7462 12.5667 32.0719 12.7387 32.35C12.9108 32.628 13.1437 32.8483 13.4136 32.9883L17.5846 35.7687C18.3202 36.2026 19.1345 36.4288 19.9606 36.4288C20.7866 36.4288 21.6009 36.2026 22.3365 35.7687L46.7161 19.5533Z" fill="white"/>
<path d="M19.9606 36.4619C19.1331 36.4814 18.3151 36.2557 17.5846 35.8064L13.4136 33.026C13.1437 32.8859 12.9108 32.6657 12.7387 32.3876C12.5667 32.1096 12.4617 31.7838 12.4345 31.4436V87.9564C12.4604 88.2971 12.5649 88.6235 12.737 88.9018C12.9092 89.1801 13.1429 89.4 13.4136 89.5387L17.5846 92.3192C18.3151 92.7685 19.1331 92.9941 19.9606 92.9747V36.4619Z" fill="#F26E6E"/>
<path opacity="0.55" d="M19.9606 36.4619C19.1331 36.4814 18.3151 36.2557 17.5846 35.8064L13.4136 33.026C13.1437 32.8859 12.9108 32.6657 12.7387 32.3876C12.5667 32.1096 12.4617 31.7838 12.4345 31.4436V87.9564C12.4604 88.2971 12.5649 88.6235 12.737 88.9018C12.9092 89.1801 13.1429 89.4 13.4136 89.5387L17.5846 92.3192C18.3151 92.7685 19.1331 92.9941 19.9606 92.9747V36.4619Z" fill="white"/>
<path d="M70.8802 24.2854L71.1543 28.5804L38.2566 48.9551L37.5125 46.4535L70.8802 24.2854Z" fill="#F26E6E"/>
<path opacity="0.35" d="M70.8802 24.2854L71.1543 28.5804L38.2566 48.9551L37.5125 46.4535L70.8802 24.2854Z" fill="black"/>
<path d="M37.9499 47.4481L69.8163 26.2143L75.358 29.9065L42.865 51.8485L37.9499 47.4481Z" fill="#F5F5F5"/>
<path d="M48.8505 49.5729L52.8126 86.3138C52.7899 86.7864 52.6711 87.2461 52.4659 87.6559C52.2606 88.0656 51.9746 88.4138 51.6311 88.6722L33.1457 101.022C32.85 101.208 32.5224 101.316 32.1862 101.339L42.8649 53.2199C43.2007 53.2009 43.5286 53.0953 43.8244 52.9109L45.1299 52.0218L48.8505 49.5729Z" fill="#F26E6E"/>
<path opacity="0.35" d="M48.8505 49.5729L52.8126 86.3138C52.7899 86.7864 52.6711 87.2461 52.4659 87.6559C52.2606 88.0656 51.9746 88.4138 51.6311 88.6722L33.1457 101.022C32.85 101.208 32.5224 101.316 32.1862 101.339L42.8649 53.2199C43.2007 53.2009 43.5286 53.0953 43.8244 52.9109L45.1299 52.0218L48.8505 49.5729Z" fill="black"/>
<path d="M41.4616 52.926L38.1653 49.6709L35.7437 47.2748C35.4956 46.8227 35.2084 46.4836 35.3651 46.1068L24.8365 93.8187V93.8639C24.6798 94.2407 24.6342 95.0846 25.0845 95.3709L30.7959 101.015C31.2277 101.281 31.719 101.392 32.2059 101.331L42.865 53.2199C42.3823 53.285 41.8937 53.1826 41.4616 52.926Z" fill="#F26E6E"/>
<path opacity="0.25" d="M41.4616 52.926L38.1653 49.6709L35.7437 47.2748C35.4956 46.8227 35.2084 46.4836 35.3651 46.1068L24.8365 93.8187V93.8639C24.6798 94.2407 24.6342 95.0846 25.0845 95.3709L30.7959 101.015C31.2277 101.281 31.719 101.392 32.2059 101.331L42.865 53.2199C42.3823 53.285 41.8937 53.1826 41.4616 52.926Z" fill="black"/>
<path d="M35.7436 45.6848C35.0909 46.1218 35.2541 46.604 35.7436 47.2596L41.4616 52.9109C41.8277 53.1253 42.2325 53.2371 42.643 53.2371C43.0536 53.2371 43.4584 53.1253 43.8245 52.9109L48.8505 49.5578C49.5033 49.1283 49.6207 48.4953 49.1051 48.1562C48.7671 47.9949 48.4013 47.9265 48.0365 47.9566C47.6717 47.9867 47.3179 48.1144 47.0033 48.3296L43.0347 50.9593C42.912 51.0296 42.7768 51.0663 42.6398 51.0663C42.5027 51.0663 42.3676 51.0296 42.2449 50.9593L38.0674 46.7698C37.852 46.6266 37.852 46.3931 38.0674 46.2424L70.8803 24.2551L69.3072 23.2077L35.7436 45.6848Z" fill="#F26E6E"/>
<path opacity="0.15" d="M35.7436 45.6848C35.0909 46.1218 35.2541 46.604 35.7436 47.2596L41.4616 52.9109C41.8277 53.1253 42.2325 53.2371 42.643 53.2371C43.0536 53.2371 43.4584 53.1253 43.8245 52.9109L48.8505 49.5578C49.5033 49.1283 49.6207 48.4953 49.1051 48.1562C48.7671 47.9949 48.4013 47.9265 48.0365 47.9566C47.6717 47.9867 47.3179 48.1144 47.0033 48.3296L43.0347 50.9593C42.912 51.0296 42.7768 51.0663 42.6398 51.0663C42.5027 51.0663 42.3676 51.0296 42.2449 50.9593L38.0674 46.7698C37.852 46.6266 37.852 46.3931 38.0674 46.2424L70.8803 24.2551L69.3072 23.2077L35.7436 45.6848Z" fill="black"/>
<path d="M77.2378 24.9333L47.3557 44.9765V110.983L77.2378 90.9478V24.9333Z" fill="#455A64"/>
<path d="M48.3348 46.0691L77.2509 26.8021C78.7391 28.8114 80.9431 30.2104 83.863 30.9991L55.1754 50.2059C55.1754 50.2059 53.3282 49.686 48.3348 46.0691Z" fill="#F5F5F5"/>
<path d="M57.9561 50.0702C57.0956 50.5752 56.144 50.8383 55.1787 50.8383C54.2135 50.8383 53.2619 50.5752 52.4014 50.0702L47.532 46.8302C45.9981 45.8054 45.9981 44.1477 47.532 43.1229L76.0303 24.1271L77.2379 24.9333L49.2095 43.7333C48.2892 44.3436 48.2892 45.3382 49.2095 45.9486L53.7329 48.9626C54.2503 49.2634 54.8215 49.42 55.4007 49.42C55.9799 49.42 56.5511 49.2634 57.0684 48.9626L85.0902 30.2003L86.4544 31.1121L57.9561 50.0702Z" fill="#263238"/>
<path d="M86.4544 31.0744V97.0888L57.9561 116.077C57.0956 116.582 56.144 116.845 55.1787 116.845C54.2134 116.845 53.2618 116.582 52.4013 116.077L47.5319 112.837C47.2154 112.673 46.9422 112.415 46.7404 112.09C46.5385 111.764 46.4152 111.382 46.3831 110.983V44.9765C46.4163 45.3739 46.5401 45.7541 46.7419 46.0784C46.9437 46.4027 47.2163 46.6594 47.5319 46.8226L52.4013 50.0777C53.2627 50.5792 54.214 50.8404 55.1787 50.8404C56.1434 50.8404 57.0947 50.5792 57.9561 50.0777L86.4544 31.0744Z" fill="#455A64"/>
<path d="M55.1754 50.8463C54.2101 50.8731 53.255 50.6137 52.4013 50.0928L47.5319 46.8377C47.2163 46.6745 46.9437 46.4177 46.7419 46.0934C46.5401 45.7692 46.4163 45.389 46.3831 44.9916V110.998C46.4152 111.397 46.5385 111.779 46.7404 112.105C46.9422 112.43 47.2154 112.688 47.5319 112.852L52.4013 116.092C53.255 116.613 54.2101 116.872 55.1754 116.846V50.8463Z" fill="#37474F"/>
<path d="M89.457 33.0787L59.5749 53.1219V119.136L89.457 99.0931V33.0787Z" fill="#F26E6E"/>
<path opacity="0.35" d="M89.457 33.0787L59.5749 53.1219V119.136L89.457 99.0931V33.0787Z" fill="black"/>
<path d="M60.5409 54.2145L89.457 34.9474C90.9452 36.9568 93.1493 38.3558 96.0692 39.1445L67.3946 58.3362C67.3946 58.3362 65.5409 57.8313 60.5409 54.2145Z" fill="#EBEBEB"/>
<path d="M60.5409 54.2145L89.457 34.9474C90.9452 36.9568 93.1493 38.3558 96.0692 39.1445L67.3946 58.3362C67.3946 58.3362 65.5409 57.8313 60.5409 54.2145Z" fill="#F5F5F5"/>
<path d="M70.1752 58.2156C69.3147 58.7206 68.3631 58.9837 67.3978 58.9837C66.4326 58.9837 65.481 58.7206 64.6205 58.2156L59.7511 54.9755C58.2172 53.9508 58.2172 52.2931 59.7511 51.2683L88.2494 32.28L89.4569 33.0787L61.4286 51.9163C60.5082 52.5267 60.5082 53.5213 61.4286 54.1316L65.952 57.1456C66.4694 57.4464 67.0405 57.6031 67.6198 57.6031C68.199 57.6031 68.7702 57.4464 69.2875 57.1456L97.2897 38.3156L98.6605 39.2273L70.1752 58.2156Z" fill="#F26E6E"/>
<path opacity="0.25" d="M70.1752 58.2156C69.3147 58.7206 68.3631 58.9837 67.3978 58.9837C66.4326 58.9837 65.481 58.7206 64.6205 58.2156L59.7511 54.9755C58.2172 53.9508 58.2172 52.2931 59.7511 51.2683L88.2494 32.28L89.4569 33.0787L61.4286 51.9163C60.5082 52.5267 60.5082 53.5213 61.4286 54.1316L65.952 57.1456C66.4694 57.4464 67.0405 57.6031 67.6198 57.6031C68.199 57.6031 68.7702 57.4464 69.2875 57.1456L97.2897 38.3156L98.6605 39.2273L70.1752 58.2156Z" fill="black"/>
<path d="M98.6669 39.2198V105.212L70.1752 124.207C69.3138 124.709 68.3625 124.97 67.3978 124.97C66.4331 124.97 65.4818 124.709 64.6204 124.207L59.751 120.96C59.4345 120.796 59.1613 120.538 58.9594 120.212C58.7576 119.887 58.6343 119.505 58.6022 119.106V53.0993C58.6354 53.4967 58.7592 53.8769 58.961 54.2012C59.1628 54.5254 59.4354 54.7822 59.751 54.9454L64.6204 58.2005C65.4809 58.7054 66.4325 58.9686 67.3978 58.9686C68.363 58.9686 69.3147 58.7054 70.1752 58.2005L98.6669 39.2198Z" fill="#F26E6E"/>
<path opacity="0.15" d="M67.3945 58.9917C66.4292 59.0185 65.4741 58.759 64.6204 58.2382L59.751 54.983C59.4354 54.8198 59.1628 54.5631 58.961 54.2388C58.7592 53.9145 58.6354 53.5344 58.6022 53.137V119.144C58.6343 119.543 58.7576 119.924 58.9594 120.25C59.1613 120.576 59.4345 120.834 59.751 120.997L64.6204 124.245C65.4751 124.763 66.4295 125.022 67.3945 124.999V58.9917Z" fill="black"/>
</svg>
