<svg width="96" height="55" viewBox="0 0 96 55" fill="none" xmlns="http://www.w3.org/2000/svg">
<path d="M0.0402673 2.47386L9.7312 54.9016H93.8458C94.2912 54.9016 94.7183 54.7066 95.0332 54.3596C95.3481 54.0126 95.525 53.5419 95.525 53.0512C95.5256 52.8077 95.4826 52.5666 95.3984 52.3415C95.3143 52.1164 95.1907 51.9119 95.0347 51.7395C94.8788 51.5672 94.6935 51.4304 94.4894 51.3371C94.2854 51.2438 94.0667 51.1958 93.8458 51.1958H76.9112L67.9259 2.41973C67.8427 1.96455 67.6195 1.55493 67.2941 1.25997C66.9687 0.965011 66.5609 0.802761 66.1396 0.800586L1.86234 0.0427006C1.58806 0.0395847 1.31662 0.104073 1.06788 0.231474C0.819144 0.358874 0.599399 0.545959 0.424729 0.779019C0.250059 1.01208 0.124885 1.28523 0.0583646 1.57848C-0.00815621 1.87172 -0.0143394 2.17764 0.0402673 2.47386Z" fill="#E0E0E0"/>
<path d="M0.0404288 2.47383L0.013633 2.31636C-0.00454432 2.15292 -0.00454432 1.98765 0.013633 1.82422C0.0453565 1.51048 0.142485 1.20908 0.297428 0.943567C0.45237 0.678055 0.660929 0.455619 0.906806 0.293652C1.07756 0.177973 1.26477 0.0947875 1.46057 0.0475822C1.6789 0.00758019 1.90041 -0.00726224 2.12152 0.00329139H3.63545L7.42251 0.0377448L31.7302 0.288741L48.6737 0.480668L58.1682 0.584014L63.1431 0.643083L65.6887 0.67261C65.9075 0.67261 66.1085 0.67261 66.3407 0.67261C66.5676 0.700777 66.7882 0.77239 66.9927 0.884227C67.405 1.10579 67.7314 1.48298 67.9127 1.94725C67.9964 2.17696 68.0563 2.41634 68.0913 2.66085L68.2208 3.36462C68.3057 3.85676 68.395 4.30952 68.4843 4.78197C68.657 5.73016 68.8327 6.68492 69.0113 7.64623C69.3656 9.56558 69.7243 11.5095 70.0876 13.4781C70.814 17.4152 71.5583 21.4393 72.3205 25.5503C73.8344 33.7691 75.4153 42.3175 77.0365 51.1416L76.9248 51.0432H93.578C93.7976 51.0341 94.0175 51.049 94.2345 51.0875C94.6815 51.1933 95.0747 51.4839 95.3331 51.8995C95.5946 52.3138 95.7017 52.823 95.6323 53.3218C95.5917 53.6239 95.4878 53.9115 95.3289 54.1618C95.17 54.4121 94.9605 54.6182 94.7168 54.7638C94.4715 54.9078 94.1997 54.9886 93.9219 55H49.223H9.73136H9.65991V54.9213C6.69457 38.8037 4.30087 25.6979 2.61723 16.613C1.78658 12.0755 1.1435 8.54193 0.705842 6.14028C0.49148 4.93946 0.327733 4.02901 0.214597 3.40891C0.102951 2.78881 0.0538258 2.47383 0.0538258 2.47383C0.0538258 2.47383 0.120814 2.7888 0.236926 3.39906C0.353039 4.00931 0.531674 4.93454 0.754967 6.12552C1.20155 8.52717 1.86697 12.0558 2.71548 16.5933C4.40358 25.6733 6.83748 38.7741 9.83408 54.8819L9.74476 54.8031L49.2364 54.7785H93.904C94.144 54.7681 94.3789 54.6992 94.5918 54.5768C94.8031 54.4486 94.9849 54.2689 95.1235 54.0514C95.262 53.8339 95.3536 53.5843 95.3912 53.3218C95.4488 52.8857 95.3564 52.4416 95.1321 52.0767C94.9036 51.7176 94.5609 51.4664 94.172 51.3729C93.971 51.3395 93.7677 51.3263 93.5646 51.3336H76.8176V51.2351C75.1965 42.4209 73.6201 33.8724 72.1106 25.6438C71.3514 21.5295 70.6071 17.5038 69.8777 13.5667L68.8059 7.73482C68.6317 6.77514 68.4531 5.82039 68.2789 4.87548C68.194 4.38334 68.1047 3.92565 68.0199 3.45811L67.8904 2.74944C67.8569 2.52105 67.8031 2.29684 67.7296 2.08013C67.6068 1.76947 67.4115 1.50018 67.1636 1.29964C66.9158 1.09909 66.6241 0.974445 66.3184 0.938355C66.1219 0.938355 65.8986 0.938355 65.6887 0.938355L63.1431 0.903917L58.1637 0.844848L48.6737 0.721812L31.7258 0.500358L7.41804 0.170617L3.63545 0.116489L2.12152 0.0918731C1.90353 0.0771531 1.68473 0.0903736 1.46951 0.131253C1.27761 0.174904 1.09354 0.25305 0.92467 0.362559C0.683755 0.517658 0.478096 0.731243 0.323327 0.987077C0.168559 1.24291 0.0687528 1.53426 0.0314968 1.83898C0.0137595 2.05034 0.0167542 2.26318 0.0404288 2.47383Z" fill="#263238"/>
<path d="M36.0218 29.5269C37.5559 29.5269 38.7996 28.1564 38.7996 26.4658C38.7996 24.7752 37.5559 23.4047 36.0218 23.4047C34.4877 23.4047 33.244 24.7752 33.244 26.4658C33.244 28.1564 34.4877 29.5269 36.0218 29.5269Z" fill="white"/>
<path d="M0.120782 2.9119C0.120782 2.9119 0.21903 2.9119 0.411062 2.9119H4.52859L16.5552 2.97588L56.2344 3.28101L61.973 3.33514H63.3843C63.6248 3.32513 63.8657 3.34162 64.1033 3.38435C64.4667 3.46583 64.8025 3.65653 65.0737 3.93535C65.3448 4.21417 65.5407 4.57024 65.6395 4.96413C65.7467 5.45628 65.8226 5.94842 65.9164 6.44056L67.9662 17.8287C69.2658 25.0878 70.4403 31.6086 71.4228 37.1157C72.4053 42.6227 73.2092 47.0422 73.7361 50.118C74.0041 51.6486 74.2095 52.8396 74.3524 53.6565C74.4194 54.0551 74.473 54.3652 74.5087 54.5817C74.5445 54.7983 74.5534 54.8967 74.5534 54.8967C74.5534 54.8967 74.5266 54.7934 74.4864 54.5867C74.4462 54.38 74.3837 54.065 74.3078 53.6664L73.6468 50.1574C73.0841 47.0815 72.2713 42.6473 71.262 37.1698C70.2528 31.6923 69.0738 25.1468 67.7563 17.8927C67.0999 14.2656 66.4166 10.4564 65.6931 6.50945C65.5993 6.01731 65.5189 5.52517 65.4207 5.03303C65.3029 4.5655 65.0325 4.16241 64.6615 3.90111C64.4776 3.77134 64.273 3.68116 64.0586 3.63535C63.8343 3.59508 63.6068 3.58024 63.3798 3.59106H61.973L56.2344 3.54184L16.5552 3.15797L4.52859 3.01034L1.25958 2.9119H0.406597H0.120782Z" fill="#263238"/>
</svg>
