<svg width="40" height="25" viewBox="0 0 40 25" fill="none" xmlns="http://www.w3.org/2000/svg">
<path opacity="0.4" d="M0.388425 25.0001C0.303283 25.0009 0.220321 24.9713 0.152485 24.9162C0.0846496 24.8611 0.0357653 24.7834 0.0134618 24.6953C-0.00884182 24.6073 -0.00331754 24.5138 0.0291911 24.4295C0.0616997 24.3451 0.119355 24.2747 0.193149 24.2292L39.3094 0.0542963C39.3973 0.000257924 39.5017 -0.0141511 39.5995 0.0142489C39.6479 0.0283112 39.6933 0.0524651 39.733 0.0853192C39.7728 0.118173 39.8061 0.159086 39.831 0.20573C39.856 0.252374 39.8721 0.303831 39.8786 0.357164C39.885 0.410497 39.8815 0.464661 39.8684 0.516564C39.8553 0.568466 39.8327 0.617092 39.8021 0.659662C39.7714 0.702233 39.7332 0.737923 39.6897 0.76468L0.557997 24.9451C0.50552 24.9755 0.447841 24.9942 0.388425 25.0001Z" fill="black"/>
</svg>
