<svg width="23" height="26" viewBox="0 0 23 26" fill="none" xmlns="http://www.w3.org/2000/svg">
<path d="M22.4502 25.9702C22.4502 25.9702 22.4502 25.9256 22.4502 25.8462C22.4502 25.7669 22.4502 25.6379 22.4502 25.4842C22.4502 25.1618 22.4502 24.6955 22.4502 24.0904C22.4502 22.8703 22.4502 21.1145 22.4277 18.8378C22.4277 14.3243 22.4007 7.89126 22.3827 0.193437L22.4682 0.287677H0.0900222L0.189041 0.178558C0.189041 9.63716 0.189041 18.4906 0.189041 25.9702L0.103524 25.876L16.3065 25.9256L20.8569 25.9504H22.0631H20.8749H16.3425L0.085517 26H0V25.9058C0 18.4659 0 9.58756 0 0.114076V0H0.072015H22.4502H22.5357V0.0991973C22.5357 7.82182 22.5042 14.2747 22.4907 18.8081C22.4907 21.0549 22.4907 22.8207 22.4682 24.0359C22.4682 24.636 22.4682 25.0923 22.4682 25.4098C22.4682 25.5586 22.4682 25.6776 22.4682 25.7619C22.4686 25.8319 22.4626 25.9017 22.4502 25.9702Z" fill="#E0E0E0"/>
</svg>
