<svg width="51" height="34" viewBox="0 0 51 34" fill="none" xmlns="http://www.w3.org/2000/svg">
<path d="M27.0779 14.1592C29.2306 15.1038 28.7611 16.4451 27.0779 17.7132C25.6662 18.7456 24.3492 19.8692 23.1385 21.0742C21.9188 22.2954 18.6075 23.8455 14.6314 23.8455C10.6553 23.8455 7.39278 22.3946 9.14298 20.615C10.8932 18.8353 12.7165 18.8823 15.6254 17.7654C18.5343 16.6486 20.2418 15.3282 22.1323 14.4462C23.7117 13.726 25.2363 13.345 27.0779 14.1592Z" fill="#E0E0E0"/>
<path d="M18.4187 10.0731C20.5713 11.0177 20.0957 12.359 18.4187 13.6271C17.0049 14.6613 15.6858 15.7866 14.4731 16.9934C13.2534 18.2094 9.94208 19.7594 5.97212 19.7594C2.00215 19.7594 -1.26651 18.3085 0.483685 16.5289C2.23388 14.7492 4.05727 14.7962 6.96614 13.6793C9.875 12.5625 11.5886 11.2473 13.4791 10.3653C15.0524 9.62424 16.5709 9.26414 18.4187 10.0731Z" fill="#E0E0E0"/>
<path d="M19.4126 5.50642C19.8089 6.58152 19.315 7.89668 19.0162 8.90915C18.8098 10.1412 18.7262 11.3861 18.7661 12.6302C18.7602 12.696 18.7339 12.7591 18.69 12.8133C18.646 12.8674 18.586 12.9105 18.5161 12.9382C18.3394 13.0277 18.1397 13.0789 17.9345 13.0871C17.7293 13.0952 17.5249 13.0602 17.3392 12.9851C17.2711 12.9574 17.2122 12.9158 17.1675 12.8639C17.1228 12.812 17.0938 12.7515 17.083 12.6877C17.083 12.5989 17.2721 9.49888 15.967 9.83811C16.1378 8.50729 17.7416 7.01469 19.4126 5.50642Z" fill="#FA00FF"/>
<path opacity="0.6" d="M19.4126 5.50642C19.8089 6.58152 19.315 7.89668 19.0162 8.90915C18.8098 10.1412 18.7262 11.3861 18.7661 12.6302C18.7602 12.696 18.7339 12.7591 18.69 12.8133C18.646 12.8674 18.586 12.9105 18.5161 12.9382C18.3394 13.0277 18.1397 13.0789 17.9345 13.0871C17.7293 13.0952 17.5249 13.0602 17.3392 12.9851C17.2711 12.9574 17.2122 12.9158 17.1675 12.8639C17.1228 12.812 17.0938 12.7515 17.083 12.6877C17.083 12.5989 17.2721 9.49888 15.967 9.83811C16.1378 8.50729 17.7416 7.01469 19.4126 5.50642Z" fill="black"/>
<path d="M4.11199 14.076C3.42898 14.8797 5.8012 15.9704 8.56371 14.7753C11.003 13.7315 11.7531 11.7483 13.1984 9.25366C14.2412 7.44792 15.8633 3.8834 16.5158 2.99096C17.5586 1.57142 17.6562 0.746827 16.4853 0.44413C16.217 0.752046 9.73456 8.2725 11.0518 5.51692C12.369 2.76133 13.296 1.12781 14.0582 0.558946C14.5837 0.186499 15.2482 -0.0117018 15.9304 0.000534524H16.0524C17.2293 0.031848 18.2355 0.522421 18.4368 1.30004C18.7499 2.41221 19.1367 3.50823 19.5955 4.58274C19.8394 5.20379 20.0894 6.98344 18.4856 7.92284C16.8817 8.86225 15.5279 9.91125 15.0218 11.2838C14.3753 13.0583 13.5826 16.4349 11.7836 17.4474C8.99668 19.013 4.40469 19.8481 1.79464 18.2511C0.0810263 17.2125 1.35557 15.9652 4.11199 14.076Z" fill="#FA00FF"/>
<path opacity="0.5" d="M4.11199 14.076C3.42898 14.8797 5.8012 15.9704 8.56371 14.7753C11.003 13.7315 11.7531 11.7483 13.1984 9.25366C14.2412 7.44792 15.8633 3.8834 16.5158 2.99096C17.5586 1.57142 17.6562 0.746827 16.4853 0.44413C16.217 0.752046 9.73456 8.2725 11.0518 5.51692C12.369 2.76133 13.296 1.12781 14.0582 0.558946C14.5837 0.186499 15.2482 -0.0117018 15.9304 0.000534524H16.0524C17.2293 0.031848 18.2355 0.522421 18.4368 1.30004C18.7499 2.41221 19.1367 3.50823 19.5955 4.58274C19.8394 5.20379 20.0894 6.98344 18.4856 7.92284C16.8817 8.86225 15.5279 9.91125 15.0218 11.2838C14.3753 13.0583 13.5826 16.4349 11.7836 17.4474C8.99668 19.013 4.40469 19.8481 1.79464 18.2511C0.0810263 17.2125 1.35557 15.9652 4.11199 14.076Z" fill="white"/>
<path d="M8.55728 14.77C10.9966 13.7262 11.7589 11.743 13.1981 9.24315C14.2409 7.43219 15.863 3.86767 16.5216 2.98046C17.5888 1.50872 17.6803 0.663257 16.3631 0.370998C15.3508 0.240525 14.1494 0.104832 12.7529 2.50553C11.3564 4.90623 9.61229 7.76098 8.45362 9.51976C7.26394 11.1948 5.80199 12.7166 4.11167 14.0393C3.42866 14.8796 5.81917 15.9703 8.55728 14.77Z" fill="#FA00FF"/>
<path opacity="0.2" d="M8.55728 14.77C10.9966 13.7262 11.7589 11.743 13.1981 9.24315C14.2409 7.43219 15.863 3.86767 16.5216 2.98046C17.5888 1.50872 17.6803 0.663257 16.3631 0.370998C15.3508 0.240525 14.1494 0.104832 12.7529 2.50553C11.3564 4.90623 9.61229 7.76098 8.45362 9.51976C7.26394 11.1948 5.80199 12.7166 4.11167 14.0393C3.42866 14.8796 5.81917 15.9703 8.55728 14.77Z" fill="black"/>
<path opacity="0.3" d="M8.17354 14.1279C10.1738 12.5622 12.174 8.25141 12.9485 6.96756C13.1779 6.53267 13.5088 6.14257 13.921 5.82125C14.3332 5.49993 14.8178 5.2542 15.3451 5.09919C14.6438 6.4822 13.8144 8.17835 13.1985 9.27432C11.7593 11.7742 10.9848 13.7574 8.55774 14.8012C7.85307 15.115 7.07672 15.2931 6.2831 15.323C6.95399 14.9742 7.5867 14.5742 8.17354 14.1279Z" fill="black"/>
<path d="M27.8341 9.61354C28.2305 10.6886 27.7426 12.0038 27.4377 13.0163C27.2313 14.2483 27.1477 15.4932 27.1877 16.7374C27.1811 16.8029 27.1546 16.8659 27.1107 16.9199C27.0668 16.9739 27.0072 17.0172 26.9376 17.0453C26.7609 17.1349 26.5612 17.186 26.356 17.1942C26.1508 17.2024 25.9464 17.1674 25.7607 17.0923C25.6926 17.0646 25.6337 17.0229 25.589 16.971C25.5443 16.9191 25.5153 16.8586 25.5045 16.7948C25.5045 16.7061 25.6875 13.606 24.3825 13.9453C24.5593 12.6196 26.1631 11.1166 27.8341 9.61354Z" fill="#FA00FF"/>
<path opacity="0.6" d="M27.8341 9.61354C28.2305 10.6886 27.7426 12.0038 27.4377 13.0163C27.2313 14.2483 27.1477 15.4932 27.1877 16.7374C27.1811 16.8029 27.1546 16.8659 27.1107 16.9199C27.0668 16.9739 27.0072 17.0172 26.9376 17.0453C26.7609 17.1349 26.5612 17.186 26.356 17.1942C26.1508 17.2024 25.9464 17.1674 25.7607 17.0923C25.6926 17.0646 25.6337 17.0229 25.589 16.971C25.5443 16.9191 25.5153 16.8586 25.5045 16.7948C25.5045 16.7061 25.6875 13.606 24.3825 13.9453C24.5593 12.6196 26.1631 11.1166 27.8341 9.61354Z" fill="black"/>
<path d="M12.5274 18.1834C11.8444 18.9871 14.2166 20.0726 16.9791 18.8827C19.4184 17.8389 20.1685 15.8557 21.6138 13.3611C22.6566 11.5553 24.2787 7.9908 24.9312 7.09837C25.974 5.67882 26.0716 4.85425 24.9008 4.55155C24.6385 4.85947 18.15 12.3799 19.4672 9.62434C20.7844 6.86875 21.7175 5.23523 22.4797 4.66637C23.0011 4.29134 23.6649 4.09268 24.3458 4.10794H24.4678C25.6508 4.13925 26.6509 4.60373 26.8522 5.40222C27.1664 6.51585 27.5532 7.61355 28.0109 8.69015C28.2548 9.3112 28.5048 11.0908 26.901 12.0303C25.2971 12.9697 23.9433 14.0187 23.4433 15.3912C22.7907 17.1657 21.998 20.5423 20.199 21.5548C17.4121 23.1204 12.8201 23.9503 10.2101 22.3585C8.50254 21.3199 9.77707 20.0726 12.5274 18.1834Z" fill="#FA00FF"/>
<path opacity="0.5" d="M12.5274 18.1834C11.8444 18.9871 14.2166 20.0726 16.9791 18.8827C19.4184 17.8389 20.1685 15.8557 21.6138 13.3611C22.6566 11.5553 24.2787 7.9908 24.9312 7.09837C25.974 5.67882 26.0716 4.85425 24.9008 4.55155C24.6385 4.85947 18.15 12.3799 19.4672 9.62434C20.7844 6.86875 21.7175 5.23523 22.4797 4.66637C23.0011 4.29134 23.6649 4.09268 24.3458 4.10794H24.4678C25.6508 4.13925 26.6509 4.60373 26.8522 5.40222C27.1664 6.51585 27.5532 7.61355 28.0109 8.69015C28.2548 9.3112 28.5048 11.0908 26.901 12.0303C25.2971 12.9697 23.9433 14.0187 23.4433 15.3912C22.7907 17.1657 21.998 20.5423 20.199 21.5548C17.4121 23.1204 12.8201 23.9503 10.2101 22.3585C8.50254 21.3199 9.77707 20.0726 12.5274 18.1834Z" fill="white"/>
<path d="M16.9793 18.8822C19.4186 17.8384 20.1809 15.8604 21.62 13.3606C22.6629 11.5496 24.285 7.98509 24.9436 7.09788C26.0169 5.62615 26.1023 4.78068 24.785 4.48842C23.7727 4.35795 22.5775 4.22227 21.1749 6.62297C19.7723 9.02367 18.0343 11.8784 16.8756 13.6372C15.6859 15.3107 14.2262 16.8322 12.5397 18.1568C11.8506 18.9814 14.229 20.0721 16.9793 18.8822Z" fill="#FA00FF"/>
<path opacity="0.2" d="M16.9793 18.8822C19.4186 17.8384 20.1809 15.8604 21.62 13.3606C22.6629 11.5496 24.285 7.98509 24.9436 7.09788C26.0169 5.62615 26.1023 4.78068 24.785 4.48842C23.7727 4.35795 22.5775 4.22227 21.1749 6.62297C19.7723 9.02367 18.0343 11.8784 16.8756 13.6372C15.6859 15.3107 14.2262 16.8322 12.5397 18.1568C11.8506 18.9814 14.229 20.0721 16.9793 18.8822Z" fill="black"/>
<path opacity="0.3" d="M16.5951 18.2303C18.5953 16.6646 20.5955 12.359 21.37 11.0752C21.5994 10.6403 21.9304 10.2502 22.3425 9.92886C22.7547 9.60755 23.2393 9.36182 23.7666 9.2068C23.0653 10.5898 22.236 12.286 21.6201 13.3819C20.1809 15.8818 19.4064 17.865 16.9793 18.9036C16.2761 19.2207 15.4989 19.399 14.7046 19.4255C15.3768 19.0783 16.0097 18.6781 16.5951 18.2303Z" fill="black"/>
<path d="M49.5563 24.0702C51.7089 25.02 51.2394 26.3561 49.5563 27.6295C47.8731 28.9029 46.2327 29.8005 44.9826 30.9904C42.9884 32.8797 39.9393 33.8661 35.9693 33.8661C31.9994 33.8661 27.7916 32.3004 31.6091 30.5312C33.9813 29.4196 35.1827 28.7985 38.0915 27.6764C41.0004 26.5544 42.7079 25.2444 44.5984 24.3624C46.19 23.6422 47.7146 23.256 49.5563 24.0702Z" fill="#E0E0E0"/>
<path d="M40.8905 19.749C43.0432 20.6936 42.5736 22.0349 40.8905 23.3031C39.2074 24.5713 37.5669 25.4794 36.3168 26.6693C34.3227 28.5585 31.2735 29.5449 27.3036 29.5449C23.3336 29.5449 19.1258 27.9792 22.9372 26.2048C25.3155 25.0984 26.5169 24.4721 29.4257 23.3553C32.3346 22.2384 34.0421 20.918 35.9326 20.036C37.5303 19.295 39.0488 18.9453 40.8905 19.749Z" fill="#E0E0E0"/>
<path d="M48.0438 16.3356C47.2054 17.2575 46.5445 18.2882 46.0863 19.3886C45.635 20.7351 44.4215 22.1233 43.8666 23.0836C43.7263 23.3289 42.4457 23.0523 42.1285 22.6557C42.4213 21.8154 42.3542 21.4449 42.3603 19.6183C42.2758 18.2784 42.6738 16.9486 43.5007 15.8084C43.5433 15.7406 43.83 15.4118 43.8787 15.3492C45.0191 13.8931 46.2449 13.9296 47.1108 14.0392C48.4219 14.3158 49.1171 14.869 48.0438 16.3356Z" fill="#FA00FF"/>
<path opacity="0.3" d="M48.0438 16.3356C47.2054 17.2575 46.5445 18.2882 46.0863 19.3886C45.635 20.7351 44.4215 22.1233 43.8666 23.0836C43.7263 23.3289 42.4457 23.0523 42.1285 22.6557C42.4213 21.8154 42.3542 21.4449 42.3603 19.6183C42.2758 18.2784 42.6738 16.9486 43.5007 15.8084C43.5433 15.7406 43.83 15.4118 43.8787 15.3492C45.0191 13.8931 46.2449 13.9296 47.1108 14.0392C48.4219 14.3158 49.1171 14.869 48.0438 16.3356Z" fill="black"/>
<path d="M50.0866 19.3419C50.483 20.417 49.989 21.7269 49.6841 22.7446C49.4778 23.9749 49.3942 25.218 49.4341 26.4605C49.4341 26.5179 49.3487 26.6223 49.0621 26.6223C48.7755 26.6223 48.7084 26.5231 48.7023 26.4709C48.7023 26.3822 49.0438 22.0453 46.6289 23.6736C46.8058 22.348 48.4096 20.8502 50.0866 19.3419Z" fill="black"/>
<path d="M46.3118 24.0335C45.6227 25.1973 45.269 27.4049 44.8299 28.6835C44.2749 30.3118 43.2809 31.0007 41.7808 31.8149C40.2806 32.629 34.164 29.576 34.164 29.576C35.5033 29.1011 36.7791 28.5045 37.9693 27.7963C39.5244 26.8047 40.9453 25.5522 41.4514 24.1431C41.9576 22.734 43.226 20.3072 44.3298 19.5295C44.9542 19.1233 45.6869 18.8562 46.4618 18.7523C47.2368 18.6485 48.0297 18.7111 48.7694 18.9346C50.2939 19.3991 50.1902 20.7038 49.0316 21.4188C48.0101 22.1976 47.0974 23.075 46.3118 24.0335Z" fill="#263238"/>
<path d="M44.8483 28.6835C45.2874 27.4048 45.6411 25.1972 46.3302 24.0334C46.3302 24.0334 46.6046 23.7046 47.0071 23.2767L46.7998 22.7548C45.2386 24.2839 45.1045 26.3506 44.702 27.6762C44.2995 29.0018 43.8055 30.5466 41.3053 31.5643L41.6285 31.8931C41.6985 31.8751 41.7659 31.8506 41.8297 31.82C43.2811 31.0007 44.2751 30.3118 44.8483 28.6835Z" fill="black"/>
<path d="M49.1595 21.7634C48.0477 22.3554 47.0805 23.1264 46.3116 24.0336C45.8556 22.5179 45.7787 20.9368 46.086 19.394C46.254 18.6461 46.5391 17.9211 46.9337 17.2386C47.0089 17.1027 47.0923 16.9703 47.1837 16.8419C47.5475 16.3644 47.8794 15.8695 48.1777 15.3597C48.4887 14.8379 48.0435 14.316 47.0251 14.1385C46.0067 13.9611 44.8237 14.389 43.8784 15.5215C42.9332 16.654 42.3844 17.7187 42.3539 20.0046C42.296 19.2868 42.3308 18.5657 42.4575 17.8544C42.7339 16.5159 43.5338 15.2975 44.7261 14.3995C45.2622 14.0478 45.9167 13.8538 46.5921 13.8463H46.7141C47.8911 13.8463 48.8973 14.3421 49.1046 15.1405C49.4148 16.2534 49.8017 17.3495 50.2633 18.4233C50.5072 19.0443 50.7634 20.8239 49.1595 21.7634Z" fill="#37474F"/>
<path d="M34.7861 27.906C36.762 27.0814 39.5428 28.4801 40.4758 29.4143C41.1053 30.1236 41.5597 30.9351 41.8113 31.7993C41.8113 31.7993 39.744 33.1249 35.6765 32.9475C30.6881 32.7335 31.3406 30.672 32.1151 29.9571C32.9395 29.213 33.8328 28.5271 34.7861 27.906Z" fill="#455A64"/>
<path d="M39.3598 12.0197C38.5214 12.9416 37.8605 13.9723 37.4023 15.0727C36.951 16.414 35.7375 17.8074 35.1825 18.7625C35.0423 19.013 33.7616 18.7625 33.4445 18.3398C33.7372 17.4995 33.6702 17.129 33.6763 15.2972C33.5906 13.9572 33.9887 12.627 34.8166 11.4873C34.8593 11.4247 35.1459 11.0907 35.1947 11.0333C36.3351 9.57199 37.5608 9.60853 38.4268 9.71813C39.7562 9.99473 40.4453 10.5479 39.3598 12.0197Z" fill="#FA00FF"/>
<path opacity="0.3" d="M39.3598 12.0197C38.5214 12.9416 37.8605 13.9723 37.4023 15.0727C36.951 16.414 35.7375 17.8074 35.1825 18.7625C35.0423 19.013 33.7616 18.7625 33.4445 18.3398C33.7372 17.4995 33.6702 17.129 33.6763 15.2972C33.5906 13.9572 33.9887 12.627 34.8166 11.4873C34.8593 11.4247 35.1459 11.0907 35.1947 11.0333C36.3351 9.57199 37.5608 9.60853 38.4268 9.71813C39.7562 9.99473 40.4453 10.5479 39.3598 12.0197Z" fill="black"/>
<path d="M41.4149 15.0155C41.8174 16.0906 41.3234 17.4057 41.0185 18.4234C40.8122 19.6537 40.7286 20.8968 40.7685 22.1393C40.7685 22.1915 40.6831 22.3011 40.3965 22.3011C40.1099 22.3011 40.0428 22.2019 40.0367 22.1497C40.0367 22.061 40.3782 17.7241 37.9633 19.3471C38.1401 18.0268 39.744 16.5237 41.4149 15.0155Z" fill="black"/>
<path d="M37.6461 19.7073C36.957 20.8763 36.6033 23.0787 36.1642 24.3625C35.6092 25.9908 34.6152 26.6797 33.1455 27.4939C31.6759 28.308 25.5288 25.255 25.5288 25.255C26.8668 24.7778 28.1422 24.1813 29.3341 23.4753C30.8892 22.4785 32.3101 21.226 32.8162 19.8221C33.3224 18.4182 34.5908 15.9914 35.6946 15.2086C36.3198 14.8035 37.0523 14.5373 37.827 14.4334C38.6016 14.3296 39.3942 14.3915 40.1341 14.6136C41.6587 15.0781 41.549 16.3828 40.3964 17.103C39.3652 17.8773 38.4423 18.7512 37.6461 19.7073Z" fill="#263238"/>
<path d="M36.1643 24.3622C36.6034 23.0784 36.9571 20.876 37.6462 19.707C37.6462 19.707 37.9206 19.3834 38.3231 18.9502L38.1157 18.4283C36.5546 19.9522 36.4204 22.0242 36.0119 23.3498C35.6033 24.6754 35.1215 26.2202 32.6212 27.2326L32.9444 27.5666C33.0144 27.5486 33.0819 27.5242 33.1457 27.4936C34.6153 26.6794 35.6094 25.9905 36.1643 24.3622Z" fill="black"/>
<path d="M40.4942 17.4369C39.3851 18.0321 38.4186 18.8026 37.6463 19.7071C37.1897 18.1933 37.1128 16.6139 37.4207 15.0727C37.5887 14.3249 37.8738 13.5999 38.2683 12.9173C38.3412 12.7788 38.4248 12.6446 38.5184 12.5155C38.8816 12.0394 39.2134 11.5463 39.5124 11.0385C39.8234 10.5166 39.3782 9.99476 38.3598 9.81731C37.3414 9.63987 36.1583 10.0626 35.2131 11.2003C34.2679 12.338 33.719 13.3975 33.6885 15.6834C33.6306 14.9638 33.6654 14.241 33.7922 13.528C34.0688 12.1883 34.8712 10.9695 36.0669 10.073C36.6015 9.71901 37.257 9.52469 37.9329 9.51983H38.0549C39.2318 9.55114 40.2381 10.0417 40.4393 10.8193C40.7509 11.9324 41.1398 13.0286 41.6041 14.102C41.8419 14.7179 42.098 16.4975 40.4942 17.4369Z" fill="#37474F"/>
<path d="M26.1205 23.5845C28.0963 22.76 30.8771 24.1586 31.8102 25.0876C32.4392 25.7991 32.8935 26.6121 33.1457 27.4778C33.1457 27.4778 31.0784 28.8034 27.0109 28.626C22.0225 28.412 22.675 26.3506 23.4495 25.6303C24.2734 24.8874 25.1667 24.2032 26.1205 23.5845Z" fill="#455A64"/>
</svg>
