<svg width="29" height="8" viewBox="0 0 29 8" fill="none" xmlns="http://www.w3.org/2000/svg">
<path d="M28.9849 7.64046C29.2073 5.86602 26.9343 4.40531 25.2307 4.25825C24.4123 4.18473 23.5672 4.32198 22.7977 4.02297C21.1252 3.38084 20.458 1.00349 18.83 0.243723C17.6113 -0.319977 16.2057 0.184904 15.0225 0.836836C13.8393 1.48877 12.674 2.30736 11.3529 2.4103C10.2053 2.49362 8.95985 2.02306 7.9546 2.64068C7.20288 3.10144 6.81145 4.05238 6.12201 4.60137C5.4031 5.08786 4.57242 5.33628 3.72897 5.31703C2.88839 5.2942 2.05128 5.44379 1.26032 5.75819C0.499706 6.14542 -0.131913 7.03264 0.0237676 7.93946L28.9849 7.64046Z" fill="#F5F5F5"/>
</svg>
