<svg width="42" height="27" viewBox="0 0 42 27" fill="none" xmlns="http://www.w3.org/2000/svg">
<path d="M5.61722 0L12.1044 3.46713C12.1044 3.46713 17.2716 0.789061 19.844 0.390541C22.4164 -0.00797818 33.4858 1.50639 33.4858 1.50639C33.5671 2.19253 33.4195 2.88725 33.0687 3.46973C32.718 4.05221 32.1862 4.4856 31.5659 4.69455C30.576 5.01336 25.1237 4.65471 25.1237 4.65471C24.7697 4.98057 24.5 5.39729 24.3403 5.86522C24.1806 6.33316 24.1362 6.83674 24.2114 7.32805C24.2866 7.81937 24.4788 8.28207 24.7697 8.67213C25.0607 9.06219 25.4407 9.36663 25.8737 9.55649C28.6486 10.776 31.8734 12.2186 32.2484 12.4816C32.6233 12.7447 36.6581 11.9875 39.6205 11.3578C41.3979 10.9752 42.6803 13.3903 41.3004 14.6416C41.1764 14.7675 41.0196 14.8508 40.8504 14.8807C40.8504 14.8807 43.5128 16.5784 38.9155 18.7065C38.9155 18.7065 37.3556 22.5164 34.4833 22.7794C34.4833 22.7794 31.1234 26.3661 29.0235 26.9559C26.9236 27.5457 13.2743 22.0062 13.2743 22.0062L0 14.6894L5.61722 0Z" fill="#FFBE9D"/>
</svg>
