<svg width="15" height="4" viewBox="0 0 15 4" fill="none" xmlns="http://www.w3.org/2000/svg">
<path d="M0.00386158 0.00797033C-0.0565457 0.0801945 0.592841 0.810456 1.8765 1.5327C2.62448 1.97564 3.40473 2.35403 4.20972 2.66421C5.20505 3.10215 6.27374 3.32055 7.35091 3.30619C8.40348 3.18163 9.43947 2.93128 10.4392 2.55988L12.8329 1.71725C13.5951 1.51663 14.3254 1.19755 15 0.770322C14.2283 0.813542 13.4659 0.970193 12.7347 1.23578C12.04 1.42035 11.2245 1.65307 10.2882 1.93394C9.3261 2.25466 8.33754 2.47767 7.3358 2.6C6.34615 2.60642 5.36365 2.42152 4.43625 2.05431C3.64826 1.77347 2.87451 1.44937 2.11812 1.0833C0.789159 0.465387 0.0642689 -0.0722787 0.00386158 0.00797033Z" fill="#EB996E"/>
</svg>
