<svg width="40" height="40" viewBox="0 0 40 40" fill="none" xmlns="http://www.w3.org/2000/svg">
<g clip-path="url(#clip0_430_744)">
<path d="M39.4921 26.2109C38.3515 25.0391 35.1093 22.8438 32.9843 22.8438C32.4921 22.8438 32.0624 22.9531 31.7109 23.1797C30.6718 23.8438 29.8437 24.3594 29.4453 24.3594C29.2265 24.3594 28.9921 24.1641 28.4765 23.7188L28.3906 23.6406C26.9609 22.3984 26.6562 22.0781 26.1015 21.5L25.9609 21.3516C25.8593 21.25 25.7734 21.1563 25.6874 21.0703C25.2031 20.5703 24.8515 20.2109 23.6093 18.8047L23.5546 18.7422C22.9609 18.0703 22.5703 17.6328 22.5468 17.3125C22.5234 17 22.7968 16.4922 23.4921 15.5469C24.3359 14.4062 24.3671 13 23.5937 11.3672C22.9765 10.0781 21.9687 8.84375 21.0781 7.75781L20.9999 7.66406C20.2343 6.72656 19.3437 6.25781 18.3515 6.25781C17.2499 6.25781 16.3359 6.85156 15.8515 7.16406C15.8124 7.1875 15.7734 7.21875 15.7343 7.24219C14.6484 7.92969 13.8593 8.875 13.5624 9.83594C13.1171 11.2812 12.8203 13.1563 14.9531 17.0547C16.7968 20.4297 18.4687 22.6953 21.1249 25.4219C23.6249 27.9844 24.7343 28.8125 27.2187 30.6094C29.9843 32.6094 32.6406 33.7578 34.4999 33.7578C36.2265 33.7578 37.5859 33.7578 39.5234 31.4219C41.5546 28.9688 40.7109 27.4688 39.4921 26.2109Z" fill="white"/>
</g>
<defs>
<clipPath id="clip0_430_744">
<rect width="40" height="40" fill="white"/>
</clipPath>
</defs>
</svg>
