<svg width="55" height="34" viewBox="0 0 55 34" fill="none" xmlns="http://www.w3.org/2000/svg">
<path d="M36.3716 26.2544C38.0349 26.0172 39.4517 24.9628 41.5524 24.1456C43.653 23.3285 45.1808 23.0491 45.9508 22.369C46.7208 21.6889 47.4601 23.2072 46.5299 24.1245C45.5997 25.0419 43.998 25.5005 44.4354 25.8696C45.0884 26.3968 46.8995 25.8696 47.6141 25.722C49.7578 25.1948 51.9817 23.9664 54.2795 24.2511C54.5151 24.2689 54.7346 24.361 54.8955 24.5094C54.9806 24.6357 55.0152 24.7822 54.994 24.9269C54.9729 25.0715 54.8972 25.2063 54.7784 25.3107C54.5342 25.5104 54.2657 25.6871 53.9776 25.8379C53.8347 25.9165 53.7137 26.0209 53.6232 26.1439C53.5327 26.2669 53.475 26.4054 53.454 26.5497C53.454 26.8133 53.6573 27.0769 53.6388 27.3246C53.6126 27.4955 53.534 27.6574 53.4109 27.7938C53.1993 28.0516 52.9439 28.2808 52.6532 28.4739C52.2876 28.6533 51.9678 28.8936 51.7128 29.1807C51.4578 29.4677 51.2727 29.7957 51.1685 30.1451C50.109 31.8691 47.5956 32.5123 45.5504 32.934C41.1704 33.8408 39.076 33.1554 36.464 33.3452C33.8521 33.535 22.7205 33.8724 16.9853 33.8355C10.979 33.8039 10.6156 32.7389 8.12068 28.0996C5.62578 23.4603 1.96043 15.0884 0.796145 11.1555C-0.953367 5.27197 -0.177178 2.3144 6.76543 0C8.89688 0.527197 12.439 4.96093 13.7943 12.6527L18.7225 24.2827C18.7225 24.2827 34.7022 26.4969 36.3716 26.2544Z" fill="#FFBDA7"/>
</svg>
