<svg width="15" height="10" viewBox="0 0 15 10" fill="none" xmlns="http://www.w3.org/2000/svg">
<path d="M4.09718 9.91075L0 6.88247L0.223064 0C0.68194 0.10013 1.09887 0.34082 1.41672 0.689101C1.73456 1.03738 1.93778 1.47621 1.99852 1.94544C2.16695 3.56053 2.30808 5.09302 2.30808 5.09302L3.59641 5.48303L3.41887 4.58831L6.55094 0.0917579C6.55094 0.0917579 7.73913 0.977303 7.24291 2.14273C7.81197 1.58296 8.71335 2.04639 8.60864 2.56487L8.82716 1.33978C8.82716 1.33978 10.2521 0.913062 10.1929 2.36756C10.1907 2.94972 10.1343 3.53041 10.0244 4.10195H15.0002C15.0002 4.10195 13.5617 6.5521 12.724 7.21741C11.8864 7.88272 4.33391 9.94746 4.33391 9.94746" fill="#FFBE9D"/>
</svg>
