<svg width="40" height="24" viewBox="0 0 40 24" fill="none" xmlns="http://www.w3.org/2000/svg">
<path d="M39.9871 11.6283C40.1006 10.79 39.4638 9.83756 38.1775 9.14003L23.1715 0.977646C20.8741 -0.10528 18.2921 -0.295192 15.8765 0.441086L2.15672 5.47132C0.958754 5.91398 0.303028 6.53103 0.265197 7.13465C0.233672 7.57731 0.0129959 9.2943 0.000385763 9.78391C-0.0122244 10.2735 0.284108 10.6357 0.920919 10.9777C2.45935 11.8161 5.90823 12.0911 8.6194 11.5948L12.0998 10.9643C14.811 10.468 18.2535 10.743 19.7857 11.568C20.7153 12.048 21.4596 12.8564 21.8915 13.855L21.0845 16.8262C20.8922 17.3664 20.8922 17.9628 21.0845 18.503L20.8323 19.4419C20.5234 20.562 20.4225 21.7357 23.0454 22.9698C23.87 23.4096 24.786 23.6199 25.7077 23.5812C26.6294 23.5425 27.5269 23.256 28.3164 22.7485L38.953 15.3708C39.1566 15.2502 39.3324 15.0829 39.4676 14.881C39.6028 14.6792 39.6941 14.4478 39.7349 14.2038C39.7853 13.7678 39.9303 12.0576 39.9871 11.6283Z" fill="#455A64"/>
</svg>
