<svg width="15" height="25" viewBox="0 0 15 25" fill="none" xmlns="http://www.w3.org/2000/svg">
<path fill-rule="evenodd" clip-rule="evenodd" d="M14.5002 0.365606C13.9479 -0.12187 13.0548 -0.12187 12.5039 0.365606L0.827271 10.6951C0.565896 10.9228 0.357771 11.1968 0.215554 11.5005C0.0733376 11.8043 -9.53674e-07 12.1313 -9.53674e-07 12.4619C-9.53674e-07 12.7924 0.0733376 13.1195 0.215554 13.4232C0.357771 13.7269 0.565896 14.001 0.827271 14.2287L12.5884 24.6344C12.8553 24.8669 13.2088 24.9976 13.5771 25C13.9453 25.0023 14.3007 24.876 14.5711 24.6469C14.7051 24.5337 14.8122 24.3965 14.886 24.2439C14.9598 24.0912 14.9986 23.9263 15 23.7593C15.0014 23.5923 14.9654 23.4268 14.8942 23.2731C14.823 23.1194 14.7181 22.9808 14.5861 22.8657L3.82176 13.345C3.69097 13.2311 3.58682 13.094 3.51564 12.9421C3.44447 12.7902 3.40777 12.6266 3.40777 12.4612C3.40777 12.2959 3.44447 12.1323 3.51564 11.9804C3.58682 11.8285 3.69097 11.6914 3.82176 11.5775L14.5002 2.13177C14.631 2.01802 14.7351 1.88107 14.8063 1.72925C14.8774 1.57743 14.9141 1.41393 14.9141 1.24869C14.9141 1.08345 14.8774 0.919941 14.8063 0.768122C14.7351 0.616302 14.631 0.479351 14.5002 0.365606Z" fill="black"/>
</svg>
