<svg width="17" height="11" viewBox="0 0 17 11" fill="none" xmlns="http://www.w3.org/2000/svg">
<path opacity="0.4" d="M0.39133 10.8566C0.305519 10.8587 0.221552 10.8298 0.152915 10.7745C0.0842781 10.7193 0.034956 10.641 0.0128772 10.5521C-0.0092015 10.4632 -0.00275342 10.3689 0.031178 10.2844C0.0651095 10.2 0.124558 10.1301 0.199973 10.0862L16.4242 0.0546399C16.468 0.0277103 16.5163 0.0102889 16.5664 0.00337422C16.6165 -0.00354047 16.6674 0.000198372 16.7161 0.0143513C16.7649 0.0285041 16.8105 0.0527969 16.8505 0.0858627C16.8905 0.118929 16.924 0.160105 16.9491 0.20705C16.9743 0.253995 16.9905 0.3058 16.997 0.359477C17.0034 0.413154 16.9999 0.467667 16.9867 0.519904C16.9735 0.572141 16.9509 0.621063 16.92 0.663908C16.8891 0.706752 16.8507 0.742672 16.8069 0.769602L0.587864 10.8012C0.528751 10.8397 0.460469 10.8589 0.39133 10.8566Z" fill="black"/>
</svg>
