<svg width="16" height="23" viewBox="0 0 16 23" fill="none" xmlns="http://www.w3.org/2000/svg">
<path d="M4.97199 1.34871C5.25617 1.13104 5.55755 0.936709 5.87319 0.767617C5.95582 0.724534 6.05105 0.71197 6.14206 0.732149C6.23307 0.752329 6.314 0.803951 6.37056 0.877896L6.88493 1.54807C7.31158 1.37455 7.75873 1.25624 8.21549 1.19602L8.32602 0.347697C8.33722 0.25464 8.38161 0.168716 8.45108 0.105631C8.52055 0.0425463 8.61045 0.006516 8.70435 0.00412845C9.42323 -0.0214187 10.1414 0.0717348 10.8298 0.27983C10.9176 0.307808 10.9929 0.365506 11.0425 0.442954C11.0922 0.520402 11.1132 0.612733 11.1019 0.703989L10.9914 1.55231C11.4161 1.72942 11.8161 1.96037 12.1817 2.23945L12.8533 1.72622C12.9243 1.6653 13.0148 1.63181 13.1084 1.63181C13.202 1.63181 13.2925 1.6653 13.3634 1.72622C13.6251 1.97246 13.8668 2.23911 14.0861 2.52364C14.3033 2.80697 14.4967 3.10773 14.6642 3.42285C14.7074 3.5053 14.72 3.60031 14.6998 3.69112C14.6795 3.78192 14.6278 3.86268 14.5537 3.91912L13.8778 4.48325C14.0522 4.9091 14.1721 5.35514 14.2349 5.81087L15.0851 5.92115C15.178 5.93316 15.2636 5.9777 15.3267 6.04684C15.3898 6.11598 15.4262 6.20522 15.4294 6.29865C15.4546 7.01623 15.3598 7.73297 15.1488 8.41945C15.1216 8.50783 15.0641 8.58386 14.9864 8.63425C14.9087 8.68464 14.8157 8.7062 14.7237 8.69515L13.8735 8.58487C13.6977 9.00943 13.4661 9.40881 13.1849 9.77252L13.6993 10.4427C13.7574 10.516 13.7873 10.6077 13.7834 10.7011C13.7795 10.7945 13.7421 10.8835 13.678 10.9517C13.1851 11.4731 12.6109 11.9114 11.9776 12.2496C11.8897 12.2968 11.7874 12.3095 11.6906 12.2851C11.5938 12.2608 11.5097 12.2012 11.4547 12.1181L10.9404 11.448C10.5155 11.6225 10.0697 11.7408 9.61407 11.8L9.49928 12.6483C9.48904 12.741 9.44552 12.8269 9.37675 12.89C9.30798 12.9532 9.21862 12.9894 9.12519 12.9919C8.4063 13.0177 7.68809 12.9245 6.9997 12.7162C6.91158 12.6883 6.83588 12.6308 6.78549 12.5534C6.73511 12.4761 6.71316 12.3837 6.72339 12.292L6.83817 11.4437C6.41214 11.2667 6.01066 11.0357 5.64364 10.7566L4.99749 11.2698C4.92334 11.3262 4.83175 11.355 4.73859 11.3511C4.64543 11.3472 4.55656 11.311 4.48737 11.2486C3.96311 10.7584 3.5236 10.1851 3.18657 9.55196C3.14163 9.46991 3.12806 9.37438 3.14839 9.2831C3.16872 9.19183 3.22156 9.11102 3.2971 9.05569L3.96451 8.54246C3.79007 8.11694 3.67147 7.6707 3.61167 7.21484L2.76147 7.10455C2.66855 7.09255 2.58294 7.04801 2.51987 6.97887C2.45681 6.90973 2.4204 6.82048 2.41714 6.72705C2.39003 6.00939 2.4849 5.29232 2.69771 4.60626C2.7242 4.51741 2.78153 4.44088 2.85942 4.39036C2.93731 4.33985 3.03068 4.31864 3.12281 4.33055L3.973 4.44083C4.15225 4.01708 4.38512 3.61796 4.66592 3.25319L4.1473 2.58302C4.09133 2.50855 4.06326 2.41689 4.06791 2.32393C4.07257 2.23096 4.10967 2.14256 4.1728 2.07403C4.41839 1.81038 4.68573 1.56775 4.97199 1.34871ZM6.04749 1.16632C5.47874 1.47366 4.96225 1.86877 4.51713 2.33701L5.21854 3.25319L5.11226 3.38468C4.77415 3.79115 4.50688 4.2514 4.32159 4.74623L4.25783 4.90741L3.11431 4.75471C2.92722 5.37311 2.84251 6.01782 2.8635 6.66343L4.00702 6.81613V6.98579C4.06473 7.51171 4.20833 8.02465 4.43212 8.50428L4.50438 8.66123L3.58616 9.36109C3.74091 9.64415 3.91714 9.91499 4.11329 10.1712C4.3106 10.4271 4.52657 10.6681 4.75944 10.8923L5.67765 10.1924L5.80943 10.2985C6.22026 10.6331 6.68246 10.8995 7.17825 11.0874L7.33553 11.1468L7.1825 12.292C7.80321 12.4743 8.44863 12.5587 9.09545 12.5423L9.24847 11.4013H9.41851C9.94538 11.3426 10.4593 11.1994 10.9404 10.9771L11.0977 10.905L11.8033 11.8212C12.3721 11.5139 12.8886 11.1188 13.3337 10.6505L12.628 9.73435L12.7385 9.60286C13.0753 9.19548 13.3425 8.73545 13.5292 8.24131L13.5887 8.08012L14.7365 8.23282C14.9211 7.61382 15.0072 6.96974 14.9916 6.3241L13.8438 6.17565V6.00598C13.785 5.47892 13.6414 4.96476 13.4187 4.48325L13.3507 4.32631L14.2604 3.63493C14.1097 3.35041 13.9348 3.07936 13.7375 2.82479C13.5412 2.56681 13.3236 2.32562 13.0871 2.10372L12.1732 2.78661L12.0371 2.68057C11.6287 2.34582 11.1676 2.08068 10.6726 1.89588L10.5153 1.83225L10.6641 0.687025C10.0435 0.504212 9.39796 0.419767 8.75112 0.436773L8.60233 1.57776H8.42804C7.9012 1.6366 7.38731 1.77983 6.90618 2.00192L6.74889 2.07403L6.04749 1.16632ZM6.9997 3.99971C7.32796 3.74513 7.70384 3.55847 8.10531 3.45068C8.50678 3.34288 8.92577 3.31612 9.33774 3.37196C9.95075 3.45621 10.5262 3.71571 10.9947 4.11914C11.4631 4.52257 11.8045 5.05268 11.9776 5.64545C12.1025 6.05573 12.138 6.48793 12.0815 6.91301C12.025 7.33809 11.878 7.74618 11.6503 8.10982C11.3308 8.63931 10.8634 9.06419 10.3053 9.33227C9.74724 9.60036 9.12284 9.69997 8.50881 9.61888C7.89478 9.53779 7.31785 9.27953 6.84888 8.87581C6.37991 8.47209 6.03932 7.94051 5.86894 7.34633C5.74373 6.93609 5.70817 6.50383 5.76464 6.07871C5.8211 5.65359 5.96829 5.2455 6.19627 4.88196C6.40773 4.54131 6.68004 4.24227 6.9997 3.99971ZM10.5833 8.66546C10.8632 8.44724 11.1009 8.17989 11.2847 7.87653C11.4829 7.56453 11.6107 7.2132 11.6592 6.84697C11.7076 6.48073 11.6756 6.10837 11.5653 5.75573C11.4185 5.24098 11.1241 4.78028 10.7183 4.43034C10.3124 4.0804 9.81294 3.8565 9.28123 3.78618C8.74952 3.71586 8.20881 3.8022 7.72564 4.03458C7.24248 4.26695 6.83795 4.63522 6.56185 5.09404C6.36362 5.40604 6.23585 5.75737 6.1874 6.1236C6.13895 6.48984 6.17099 6.8622 6.28128 7.21484C6.43067 7.72863 6.72555 8.18845 7.13049 8.53908C7.53544 8.88971 8.03324 9.11623 8.56407 9.19143C8.92329 9.24143 9.2889 9.21915 9.63935 9.12591C9.9898 9.03266 10.318 8.87034 10.6045 8.6485L10.5833 8.66546Z" fill="#0060FF"/>
<path d="M1.7245 15.0619C1.91842 14.9132 2.12463 14.7813 2.34089 14.6674C2.39738 14.6375 2.46271 14.6288 2.52508 14.6428C2.58746 14.6568 2.64275 14.6926 2.68097 14.7437L3.03381 15.2018C3.323 15.0799 3.62771 14.9986 3.93927 14.9601L4.01578 14.3874C4.0239 14.324 4.05453 14.2656 4.10211 14.2228C4.14968 14.18 4.21105 14.1557 4.27509 14.1542C4.76532 14.1356 5.25522 14.1987 5.72467 14.3408C5.78508 14.3616 5.83655 14.4024 5.87057 14.4564C5.90458 14.5104 5.9191 14.5743 5.91172 14.6377L5.8352 15.2103C6.12555 15.3289 6.39863 15.4858 6.64714 15.6769L7.10624 15.3291C7.15478 15.2876 7.2166 15.2647 7.28053 15.2647C7.34446 15.2647 7.40629 15.2876 7.45483 15.3291C7.63267 15.4987 7.79884 15.6801 7.9522 15.872C8.10066 16.0673 8.23288 16.2744 8.34754 16.4913C8.37661 16.5478 8.38488 16.6128 8.3709 16.6748C8.35692 16.7368 8.32157 16.7919 8.27102 16.8306L7.81191 17.1784C7.93071 17.4696 8.01212 17.7746 8.05422 18.0861L8.6281 18.1625C8.6913 18.1714 8.74934 18.2022 8.79208 18.2495C8.83482 18.2968 8.85954 18.3576 8.8619 18.4212C8.87936 18.9092 8.81471 19.3967 8.67061 19.8633C8.65278 19.9247 8.61317 19.9775 8.55919 20.0118C8.50521 20.0461 8.44056 20.0597 8.3773 20.05L7.80341 19.9779C7.68143 20.2669 7.52285 20.5392 7.33154 20.788L7.68438 21.2461C7.72519 21.2949 7.74754 21.3564 7.74754 21.42C7.74754 21.4836 7.72519 21.5451 7.68438 21.5939C7.34873 21.9507 6.95668 22.2502 6.52386 22.4804C6.46737 22.5103 6.40204 22.519 6.33967 22.505C6.2773 22.491 6.22201 22.4552 6.18379 22.4041L5.83095 21.946C5.54144 22.0678 5.23694 22.1505 4.9255 22.192L4.84897 22.7603C4.84016 22.8238 4.80946 22.8823 4.76213 22.9256C4.71481 22.969 4.65383 22.9945 4.58967 22.9979C4.09931 23.0129 3.60975 22.9484 3.14008 22.807C3.07922 22.7869 3.02727 22.7462 2.99315 22.692C2.95902 22.6379 2.94484 22.5736 2.95304 22.5101L3.02955 21.9375C2.73921 21.8189 2.46612 21.662 2.21761 21.4709L1.75851 21.8187C1.70997 21.8602 1.64815 21.883 1.58422 21.883C1.52029 21.883 1.45847 21.8602 1.40993 21.8187C1.23029 21.6521 1.06531 21.4705 0.916813 21.2758C0.768904 21.0816 0.63671 20.8759 0.521474 20.6608C0.489917 20.6044 0.479845 20.5386 0.493129 20.4755C0.506412 20.4123 0.542158 20.3561 0.593747 20.3172L1.05285 19.9694C0.934049 19.6782 0.852631 19.3732 0.810538 19.0617L0.240908 18.9853C0.177298 18.9783 0.118315 18.9487 0.0746465 18.9021C0.0309778 18.8554 0.00551155 18.7946 0.00285405 18.7308C-0.0148389 18.2414 0.0498272 17.7525 0.194153 17.2844C0.21199 17.2231 0.251589 17.1703 0.305565 17.136C0.359541 17.1016 0.424205 17.0881 0.487472 17.0978L1.06134 17.1699C1.18264 16.8805 1.34127 16.6082 1.53321 16.3598L1.18037 15.9017C1.13956 15.8529 1.11722 15.7913 1.11722 15.7278C1.11722 15.6642 1.13956 15.6027 1.18037 15.5539C1.34751 15.3748 1.52953 15.2102 1.7245 15.0619ZM2.45992 14.9388C2.0708 15.149 1.71661 15.418 1.40993 15.7363L1.89455 16.364L1.81802 16.4531C1.58988 16.7338 1.40767 17.0487 1.27815 17.3862L1.23564 17.4965L0.453457 17.3905C0.32682 17.814 0.269407 18.2551 0.28342 18.6969L1.0656 18.7987V18.9175C1.10312 19.2765 1.19783 19.6274 1.34617 19.9567L1.39292 20.0627L0.768026 20.542C0.977868 20.9295 1.24757 21.2816 1.56721 21.5854L2.19636 21.1061L2.28563 21.1825C2.56786 21.4088 2.88329 21.5905 3.22085 21.7212L3.32713 21.7593L3.22511 22.544C3.64817 22.6701 4.08882 22.7274 4.53015 22.7137L4.63642 21.9332H4.75121C5.11131 21.8997 5.46328 21.8065 5.79269 21.6575L5.89897 21.6066L6.37933 22.2344C6.76845 22.0242 7.12264 21.7552 7.42932 21.437L6.94472 20.8092L7.02123 20.7159C7.25191 20.4385 7.43438 20.1245 7.5611 19.787L7.60361 19.6767L8.38579 19.7828C8.51379 19.3594 8.57265 18.9183 8.56008 18.4763L7.77791 18.3745V18.26C7.74026 17.8996 7.64556 17.5474 7.49734 17.2166L7.45057 17.1105L8.07972 16.6312C7.97379 16.4384 7.85298 16.254 7.71839 16.0798C7.59129 15.9038 7.44905 15.7392 7.29329 15.5878L6.66415 16.0671L6.57487 15.9908C6.29448 15.7651 5.98033 15.5848 5.6439 15.4563L5.53339 15.4139L5.63541 14.6292C5.21234 14.5031 4.77168 14.4458 4.33035 14.4595L4.22408 15.24H4.10931C3.7494 15.2746 3.39758 15.3678 3.06781 15.5157L2.96153 15.5666L2.45992 14.9388ZM3.11032 16.873C3.5658 16.526 4.14063 16.3735 4.7087 16.4489C5.12775 16.5068 5.52098 16.6847 5.84086 16.9609C6.16073 17.2372 6.39354 17.6 6.51111 18.0055C6.59899 18.2875 6.62474 18.5851 6.58658 18.878C6.54843 19.1708 6.44728 19.452 6.29006 19.7022C6.07106 20.0634 5.75128 20.3531 5.36985 20.5359C4.98842 20.7186 4.56186 20.7864 4.14239 20.7311C3.72291 20.6757 3.32871 20.4996 3.008 20.2242C2.6873 19.9488 2.45399 19.5861 2.33664 19.1804C2.2491 18.8982 2.2239 18.6004 2.2628 18.3075C2.30169 18.0146 2.40375 17.7336 2.56194 17.4838C2.70502 17.2479 2.89101 17.0408 3.11032 16.873ZM5.55889 20.0542C5.74871 19.9084 5.91132 19.7303 6.03925 19.5283C6.1723 19.3154 6.2582 19.0765 6.29119 18.8278C6.32418 18.5791 6.3035 18.3262 6.23054 18.0861C6.12725 17.7392 5.92553 17.4295 5.64972 17.1944C5.3739 16.9594 5.03579 16.809 4.67621 16.7614C4.31663 16.7139 3.95093 16.7712 3.62329 16.9265C3.29564 17.0818 3.02004 17.3284 2.82976 17.6365C2.69681 17.8486 2.61095 18.0867 2.57795 18.3348C2.54495 18.5828 2.56559 18.835 2.63847 19.0744C2.74137 19.4257 2.94372 19.7398 3.22123 19.9791C3.49874 20.2183 3.83959 20.3726 4.20283 20.4232C4.68587 20.4826 5.17296 20.3501 5.55889 20.0542Z" fill="#0060FF"/>
</svg>
