<svg width="9" height="8" viewBox="0 0 9 8" fill="none" xmlns="http://www.w3.org/2000/svg">
<path d="M8.69538 4.20071C8.50522 4.39143 8.29374 4.55662 8.0657 4.69256C7.65602 4.98282 7.0491 5.39402 6.29044 5.87779C5.3961 6.45791 4.46004 6.96206 3.491 7.38553C2.9123 7.6545 2.30646 7.85197 1.68539 7.9741C1.32418 8.03859 0.953042 7.98226 0.623272 7.81286C0.452307 7.70635 0.307927 7.55773 0.202304 7.37953C0.0966798 7.20132 0.032904 6.99874 0.0163437 6.78887C-0.0226368 6.40455 0.00826673 6.01587 0.107379 5.64396C0.20597 5.28191 0.38859 4.95198 0.638448 4.68449C1.05341 4.18923 1.51054 3.73579 2.00402 3.32994C2.82404 2.63927 3.6857 2.00632 4.58346 1.43518C5.34212 0.935284 5.9718 0.572462 6.41182 0.330578C6.63371 0.185268 6.87379 0.0739749 7.12496 0C6.934 0.182869 6.7225 0.339931 6.49527 0.467632L4.73519 1.68512C3.8705 2.284 3.03725 2.93268 2.2392 3.62826C1.40468 4.43454 0.190838 5.32145 0.410849 6.72438C0.415886 6.87036 0.454464 7.01281 0.52323 7.1393C0.591997 7.26579 0.688853 7.37247 0.805342 7.45002C1.06714 7.5736 1.35729 7.61285 1.63987 7.56291C2.22724 7.44935 2.80187 7.271 3.35443 7.03077C4.31425 6.62869 5.24706 6.15726 6.14629 5.61978C6.96483 5.08607 7.81648 4.61195 8.69538 4.20071Z" fill="#EB996E"/>
</svg>
