<svg width="29" height="50" viewBox="0 0 29 50" fill="none" xmlns="http://www.w3.org/2000/svg">
<path d="M28.9796 24.4461C28.9742 19.7151 27.8093 15.0686 25.6016 10.9717C23.3939 6.87475 20.2208 3.47107 16.3998 1.10127C15.2333 0.379588 13.9101 -0.000231073 12.5632 1.05468e-07C11.2164 0.000231284 9.89327 0.380509 8.72704 1.10259C7.56081 1.82467 6.59257 2.86308 5.91968 4.11341C5.2468 5.36374 4.893 6.78191 4.89386 8.22527V40.8587C4.90302 42.5849 4.51149 44.2866 3.75452 45.8104C2.99755 47.3343 1.89889 48.6325 0.557404 49.5883C0.373309 49.7198 0.189209 49.8404 0 49.9555L29.0001 32.0085L28.9796 24.4461Z" fill="#E0E0E0"/>
</svg>
