<svg width="13" height="15" viewBox="0 0 13 15" fill="none" xmlns="http://www.w3.org/2000/svg">
<path d="M0.0561258 7.30435C0.0926086 6.72627 0.165572 6.15169 0.274489 5.58478C0.616635 4.04696 1.41771 2.68041 2.54913 1.70447C3.3254 1.03368 4.23393 0.573428 5.20136 0.360895C6.3108 0.119245 7.45863 0.2075 8.52688 0.616579C9.10275 0.833011 9.64569 1.144 10.1373 1.53903C10.6603 1.93951 11.1212 2.43045 11.5021 2.99289C12.3162 4.16848 12.7673 5.60045 12.7895 7.07906C12.8116 8.55767 12.4035 10.0052 11.6249 11.2097C11.2623 11.7851 10.8184 12.2929 10.3102 12.7137C9.8323 13.1291 9.29804 13.459 8.72705 13.6913C7.67153 14.1394 6.52632 14.2675 5.41063 14.0623C4.43906 13.8855 3.51927 13.4578 2.72655 12.814C1.56246 11.8815 0.716513 10.5449 0.324532 9.0189C0.19913 8.45493 0.109446 7.88203 0.0561258 7.30435C0.0512101 7.34259 0.0512101 7.38141 0.0561258 7.41965C0.0561258 7.50989 0.0561258 7.6252 0.0561258 7.76056C0.0559441 7.94387 0.0711762 8.1268 0.101621 8.30701C0.126104 8.55642 0.170244 8.80301 0.233547 9.04397C0.594901 10.6155 1.43881 12.0008 2.62192 12.9644C3.4266 13.6304 4.36126 14.0802 5.35148 14.2779C6.50213 14.4964 7.68487 14.3717 8.7771 13.9169C9.98957 13.4165 11.0373 12.5256 11.7842 11.3601C12.5953 10.1127 13.0213 8.61096 12.9992 7.07646C12.977 5.54197 12.5081 4.05592 11.6613 2.83748C10.8787 1.70101 9.80644 0.847487 8.58147 0.385963C7.47638 -0.0301862 6.29015 -0.111564 5.14677 0.150336C3.92894 0.426212 2.80914 1.08324 1.92158 2.04267C1.03401 3.0021 0.416328 4.22324 0.142563 5.55972C0.0860764 5.80294 0.0495328 6.05126 0.033378 6.30169C0.00639167 6.48391 -0.00427099 6.66863 0.00153672 6.85315V7.18905C0.0118858 7.23141 0.0305162 7.27076 0.0561258 7.30435Z" fill="#455A64"/>
</svg>
