<svg width="21" height="3" viewBox="0 0 21 3" fill="none" xmlns="http://www.w3.org/2000/svg">
<path d="M20.9999 0C20.9377 0.0403938 20.8697 0.0708522 20.7983 0.0902823L20.2161 0.306952C19.71 0.492019 18.9621 0.726739 18.0306 0.984028C17.0991 1.24132 15.9749 1.4986 14.7165 1.72881C13.458 1.95902 12.0652 2.12602 10.5917 2.22984C9.1183 2.33366 7.71204 2.32914 6.43566 2.284C5.15927 2.23886 4.01277 2.12152 3.05437 1.9861C2.09596 1.85069 1.32565 1.72429 0.815097 1.60693L0.210492 1.47152C0.138022 1.45923 0.067326 1.438 0 1.40832C0.0726744 1.39643 0.146776 1.39643 0.219451 1.40832L0.833001 1.50312C1.36595 1.59339 2.13626 1.70172 3.07227 1.80554C4.00828 1.90936 5.1727 2.00415 6.44461 2.05381C7.71651 2.10346 9.13174 2.07637 10.5783 1.98158C12.0249 1.88679 13.4267 1.70172 14.6806 1.4986C15.9346 1.29548 17.0588 1.04722 17.9903 0.807982C18.9218 0.568748 19.6742 0.356599 20.1892 0.203128L20.7849 0.0316002C20.8547 0.010704 20.9271 5.87827e-05 20.9999 0Z" fill="#263238"/>
</svg>
