<svg width="176" height="91" viewBox="0 0 176 91" fill="none" xmlns="http://www.w3.org/2000/svg">
<path d="M4.02183 2.33881C-1.34061 5.47755 -1.34061 10.5627 4.02183 13.7141C9.38428 16.8655 18.1289 16.8486 23.5124 13.7141C28.896 10.5796 28.8918 5.49439 23.5124 2.35987C18.1331 -0.77466 9.40539 -0.791507 4.02183 2.33881Z" fill="#E0E0E0"/>
<path d="M146.895 50.9913L171.229 36.9744C171.425 36.8755 171.642 36.824 171.862 36.824C172.082 36.824 172.299 36.8755 172.496 36.9744L175.734 38.8366C175.812 38.863 175.879 38.913 175.927 38.9795C175.974 39.0459 176 39.1256 176 39.2074C176 39.2891 175.974 39.3688 175.927 39.4352C175.879 39.5017 175.812 39.5517 175.734 39.5781L151.337 53.6329C151.141 53.7324 150.924 53.7843 150.704 53.7843C150.484 53.7843 150.267 53.7324 150.07 53.6329L146.887 51.7497C146.805 51.7242 146.734 51.6733 146.684 51.6044C146.634 51.5356 146.608 51.4524 146.608 51.3674C146.609 51.2823 146.638 51.1997 146.689 51.132C146.741 51.0643 146.813 51.015 146.895 50.9913Z" fill="#E0E0E0"/>
<path d="M55.3154 43.6774L22.5876 24.7734C20.4764 23.5474 20.4764 21.5546 22.5876 20.3244L43.024 8.40981C45.1563 7.17959 48.6144 7.17959 50.7425 8.40981L83.4703 27.3139C85.5815 28.5399 85.5815 30.5327 83.4703 31.7629L63.0339 43.6774C60.9016 44.8908 57.4477 44.8908 55.3154 43.6774Z" fill="#E0E0E0"/>
<path d="M78.7377 90.6617L25.1259 59.7756L112.939 9.16816L166.551 40.05L78.7377 90.6617Z" fill="#E0E0E0"/>
<path d="M7.26521 45.1941C3.84084 47.1616 3.84084 50.3594 7.26521 52.3269C10.6896 54.2944 16.2294 54.2986 19.6495 52.3269C23.0696 50.3551 23.0696 47.1616 19.6495 45.1941C16.2294 43.2266 10.6853 43.2056 7.26521 45.1941Z" fill="#E0E0E0"/>
</svg>
