<svg width="18" height="41" viewBox="0 0 18 41" fill="none" xmlns="http://www.w3.org/2000/svg">
<path d="M0 39.602C0 39.602 7.98055e-07 39.5317 0.0348343 39.3957C0.0696678 39.2597 0.108854 39.0578 0.161105 38.8032C0.274314 38.2722 0.444128 37.5086 0.657484 36.53C1.0929 34.542 1.74603 31.7026 2.53849 28.1567L8.83901 0.487125L8.95222 0L9.04365 0.487125L9.18299 1.10151C11.6344 12.0728 13.855 22.0128 15.4617 29.2143C16.2542 32.8085 16.8943 35.7181 17.3384 37.7412C17.5561 38.7418 17.7216 39.4966 17.8391 40.0584C17.8914 40.3173 17.9349 40.4972 17.9654 40.664C17.9959 40.8307 18.0002 40.8746 18.0002 40.8746C18.0002 40.8746 17.9741 40.8044 17.9393 40.6684L17.7956 40.0715C17.6693 39.5317 17.4864 38.755 17.2557 37.7588C16.7898 35.7401 16.1279 32.8349 15.305 29.2494C13.6809 22.0523 11.4385 12.1342 8.96092 1.16295L8.82159 0.548564H9.04365L2.67783 28.1962L0.727151 36.5344C0.496379 37.513 0.313502 38.2898 0.18723 38.8032C0.126272 39.0534 0.0740213 39.2421 0.0391878 39.3913C0.00435426 39.5405 0 39.602 0 39.602Z" fill="#263238"/>
</svg>
