<svg width="10" height="15" viewBox="0 0 10 15" fill="none" xmlns="http://www.w3.org/2000/svg">
<path d="M0.267789 14.9994C0.217927 14.9984 0.169179 14.9835 0.126316 14.9561C0.0890932 14.9314 0.0581124 14.8972 0.0360892 14.8566C0.014066 14.816 0.00167333 14.7702 0 14.7233C0 14.5934 0 14.4634 0 14.328C0 9.31962 3.10232 3.29326 6.91707 0.894632C7.5522 0.483114 8.24477 0.183312 8.96844 0.00664294C9.01155 -0.00357871 9.05637 -0.00197938 9.09876 0.0112696C9.14115 0.0245186 9.17974 0.0489978 9.21096 0.0824541C9.24227 0.114831 9.26558 0.155025 9.27881 0.199443C9.29203 0.24386 9.29476 0.291111 9.28675 0.336937L7.30106 11.4529C7.29378 11.4973 7.27667 11.5391 7.25117 11.5749C7.22568 11.6107 7.19254 11.6395 7.15454 11.6587L0.378948 14.9832C0.343189 14.9961 0.305467 15.0016 0.267789 14.9994ZM8.68044 0.672635C8.14945 0.842519 7.64027 1.08261 7.16465 1.38735C3.50654 3.68853 0.530527 9.45499 0.505264 14.2685L6.7857 11.193L8.68044 0.672635Z" fill="white"/>
</svg>
