<svg width="55" height="26" viewBox="0 0 55 26" fill="none" xmlns="http://www.w3.org/2000/svg">
<path d="M31.5398 21.2206L38.132 23.3711C38.132 23.3711 41.7681 25.0905 43.5373 25.5363C45.7332 26.0898 47.2312 25.3404 47.3113 23.9932C47.3913 22.6461 45.6843 22.4747 45.6843 22.4747C44.2335 21.8656 42.8226 21.1471 41.4614 20.3242C40.473 19.5676 39.6649 18.5593 39.1055 17.3851L41.4614 17.7427C41.4614 17.7427 46.4178 21.6615 48.2847 22.847C50.1517 24.0324 50.5607 21.9505 50.7207 21.3235C50.8807 20.6965 45.1998 14.343 45.1998 14.343C45.1998 14.343 50.6407 18.1933 51.6142 19.1534C52.5877 20.1136 54.0546 20.4271 54.3791 19.805C54.7035 19.1828 55.597 19.1779 54.3791 16.5229C53.1611 13.8679 43.4129 6.72575 43.4129 6.72575L46.0799 6.09874L49.0049 7.53402C49.2085 8.63995 49.6237 9.68535 50.2228 10.6005C51.2763 12.3248 53.1477 10.6005 53.1477 10.6005L51.9876 3.98745L46.2089 0C46.2089 0 40.199 0.808264 39.3055 1.25403C38.4121 1.69981 37.4341 3.57597 37.4341 3.57597L35.8116 4.30095C33.2912 5.10432 33.3757 7.88182 32.5622 7.97C31.7488 8.05817 8.03832 2.96365 8.03832 2.96365L5.89131 2.34642C2.33519 5.31986 0.917183 10.2331 0.290417 14.5929C0.290417 14.5929 -0.363021 16.7287 0.290417 17.9043L31.5398 21.2206Z" fill="#FFBE9D"/>
</svg>
