<svg width="41" height="49" viewBox="0 0 41 49" fill="none" xmlns="http://www.w3.org/2000/svg">
<path d="M3.60074 29.5858C3.85477 29.7939 4.12984 29.9655 4.41985 30.0967C5.31435 30.5417 6.27979 30.7652 7.25376 30.7525C7.85686 30.7953 8.45626 30.6171 8.96638 30.2432C9.4765 29.8694 9.87125 29.319 10.0943 28.6707L9.67149 34.1154L8.58152 48.4135C9.1857 48.3919 9.78806 48.3256 10.3849 48.2153C12.1166 47.8852 13.8253 47.4111 15.4978 46.7969C17.07 46.2402 18.0939 45.7522 18.0939 45.7522C20.1095 46.7025 22.1799 47.4898 24.2902 48.1085C24.2902 48.1085 28.6236 49.1913 30.7837 48.9702C34.3707 48.6042 36.795 45.5234 38.1228 41.1615C40.2432 34.1459 41.2209 28.4343 40.5273 14.2811C39.761 -1.22946 24.2704 -2.53344 15.5639 2.94177C6.85741 8.41699 9.79699 21.4797 9.79699 21.4797C9.22889 19.4056 8.83915 18.0329 7.81525 16.6374C6.79134 15.2419 2.68252 14.3497 0.674352 18.521C-1.18188 22.3643 1.12355 27.687 3.60074 29.5858Z" fill="#FFA8A7"/>
</svg>
