<svg width="30" height="31" viewBox="0 0 30 31" fill="none" xmlns="http://www.w3.org/2000/svg">
<path d="M15.1314 0.294367C12.4708 0.293798 9.85959 1.01893 7.57475 2.39287C5.28991 3.76682 3.41657 5.73836 2.15337 8.09843C0.890164 10.4585 0.28419 13.1191 0.399712 15.7982C0.515234 18.4772 1.34794 21.0748 2.80953 23.3155L0.663616 28.7616L6.243 27.0313C8.10942 28.4518 10.2843 29.4046 12.5881 29.8109C14.8919 30.2172 17.2586 30.0653 19.4927 29.3679C21.7268 28.6705 23.7643 27.4475 25.437 25.8C27.1096 24.1524 28.3695 22.1274 29.1125 19.8923C29.8556 17.6572 30.0605 15.276 29.7104 12.9453C29.3602 10.6146 28.4651 8.40128 27.0989 6.48804C25.7326 4.57479 23.9345 3.01651 21.8529 1.94183C19.7713 0.867153 17.4659 0.306908 15.1271 0.307344L15.1314 0.294367Z" fill="#FAFAFA"/>
<path d="M18.8184 17.9085H16.7798C16.7834 18.1435 16.7396 18.3767 16.6508 18.594C16.5621 18.8113 16.4304 19.0082 16.2638 19.1725C16.0971 19.3368 15.899 19.4652 15.6815 19.5499C15.464 19.6345 15.2316 19.6736 14.9986 19.6647C14.6556 19.6776 14.3172 19.5819 14.0308 19.391C13.7445 19.2002 13.5246 18.9238 13.4021 18.6006C13.2937 18.3312 13.2505 18.0397 13.2758 17.7502C13.3012 17.4606 13.3945 17.1813 13.548 16.9352C13.8914 16.3642 14.651 15.8408 16.0244 16.0701V11.446H14.0072V14.1625C13.1774 14.409 12.4511 14.9236 11.94 15.6271C11.4289 16.3305 11.1615 17.1839 11.1789 18.0556C11.1789 21.0619 13.8527 21.7627 14.9986 21.7627C15.8742 21.7497 18.857 21.5334 18.8184 17.9085Z" fill="#FFC727"/>
<path d="M13.9816 10.4899H16.0288V8.56063H13.9816L13.9816 10.4899Z" fill="#FFC727"/>
<path d="M29.9942 15.1573C30.0017 15.0695 30.0017 14.9813 29.9942 14.8935C29.9942 14.7075 29.9942 14.4609 29.9727 14.1322C29.9727 13.9635 29.9727 13.7731 29.947 13.5655C29.9212 13.3579 29.8869 13.1329 29.8525 12.8907C29.8182 12.6484 29.7796 12.3846 29.741 12.1034C29.7023 11.8222 29.5993 11.5368 29.5264 11.2383C29.1474 9.72557 28.5239 8.28606 27.6809 6.9775C26.4598 5.03668 24.8137 3.40369 22.8689 2.20393C20.9241 1.00416 18.7324 0.269532 16.462 0.056444C15.7827 -0.00212888 15.1002 -0.0151329 14.4191 0.0175146C14.0715 0.0175146 13.7196 0.0175119 13.3719 0.0823969L12.3161 0.242448C10.8697 0.509317 9.46989 0.988813 8.16164 1.66559C5.3205 3.12597 3.02116 5.46922 1.60373 8.34874C0.838625 9.85427 0.343185 11.4841 0.14021 13.1632C0.075665 13.5929 0.0398191 14.0264 0.0329147 14.4609C0.000742168 14.8927 -0.00785342 15.3259 0.00716479 15.7586C0.0457052 16.6312 0.154784 17.4992 0.333335 18.354C0.720745 20.2041 1.4486 21.9648 2.47925 23.5448V23.3891C1.76251 25.1799 1.06295 26.9404 0.380552 28.6577L0.256085 28.9692L0.577973 28.8783L6.15735 27.3298L6.02001 27.3038C7.89965 28.7343 10.0877 29.6977 12.4063 30.1155C13.4856 30.317 14.5851 30.3867 15.6809 30.3231C16.2074 30.3102 16.7323 30.2596 17.2517 30.1717L18.0157 30.0506C18.2646 30.003 18.5092 29.9295 18.7539 29.8689C22.1904 28.9861 25.2047 26.903 27.2603 23.9903C28.0267 22.9142 28.6419 21.7366 29.0886 20.4909L29.3719 19.7036C29.4362 19.4441 29.4963 19.1932 29.5564 18.9553L29.7281 18.2675C29.7667 18.0512 29.7925 17.8349 29.8225 17.6403C29.8697 17.2423 29.9384 16.8919 29.9556 16.5848C29.9727 16.2777 29.9556 16.0268 29.9813 15.8105C30.0071 15.5942 29.9813 15.4601 29.9813 15.339C29.9862 15.2858 29.9862 15.2322 29.9813 15.179C29.9677 15.2298 29.9605 15.2821 29.9598 15.3347C29.9598 15.4558 29.9384 15.6115 29.9212 15.8062C29.904 16.0008 29.8912 16.2777 29.8697 16.5762C29.8483 16.8746 29.771 17.2293 29.7152 17.623C29.2231 20.4812 27.9192 23.1344 25.9615 25.261C24.0038 27.3877 21.4764 28.8966 18.6852 29.605C18.4449 29.6613 18.2045 29.7348 17.9556 29.7824L17.2045 29.8949C16.6952 29.9805 16.1801 30.0268 15.6638 30.0333C14.5891 30.0931 13.5112 30.022 12.4535 29.8213C10.185 29.4036 8.04578 28.4537 6.20885 27.0486L6.14448 27.001H6.07152L0.492144 28.5366L0.685268 28.7615L2.79256 23.4929L2.8226 23.4107L2.77539 23.3372C1.29714 21.0725 0.457481 18.4455 0.34621 15.737C0.331145 15.3143 0.339754 14.8912 0.371973 14.4696C0.376041 14.0494 0.410462 13.6302 0.474973 13.2151C0.675036 11.5737 1.16027 9.98061 1.90844 8.50879C2.61964 7.08514 3.5447 5.78072 4.65093 4.64165C5.73605 3.57337 6.96744 2.66731 8.30756 1.95109C9.589 1.28072 10.9613 0.804116 12.3805 0.536593L13.4105 0.372219C13.7539 0.324637 14.0972 0.328961 14.4363 0.303007C15.1058 0.271808 15.7766 0.28192 16.4449 0.333286C18.6784 0.535375 20.8371 1.24673 22.7577 2.41355C24.6782 3.58037 26.3104 5.1721 27.5307 7.06834C28.3758 8.35461 29.0091 9.77004 29.4062 11.2599C29.4877 11.567 29.565 11.8569 29.6337 12.125C29.7023 12.3932 29.7238 12.6614 29.7624 12.9037C29.801 13.1459 29.8397 13.3665 29.8697 13.5698C29.8998 13.7731 29.8998 13.9635 29.9126 14.1322C29.9341 14.4523 29.9556 14.7031 29.9684 14.8935C29.9697 14.982 29.9784 15.0703 29.9942 15.1573Z" fill="#263238"/>
</svg>
