<svg width="8" height="16" viewBox="0 0 8 16" fill="none" xmlns="http://www.w3.org/2000/svg">
<path d="M0.00262479 0C0.00262479 0 0.195733 0.164183 0.481538 0.508976C0.767343 0.853769 1.15357 1.32991 1.60931 2.01949C2.79121 3.73418 3.82532 5.55857 4.6991 7.47052C5.582 9.38266 6.30321 11.3744 6.85422 13.4223C7.05506 14.2432 7.20183 14.8507 7.27907 15.294C7.34118 15.5235 7.37239 15.7612 7.37176 16C7.07469 15.1937 6.81687 14.3717 6.59931 13.5372C5.97952 11.5339 5.23107 9.57826 4.35922 7.68394C3.48389 5.79294 2.49036 3.9664 1.3853 2.21654C0.527889 0.820945 -0.043722 0 0.00262479 0Z" fill="#FAFAFA"/>
</svg>
