<svg width="12" height="27" viewBox="0 0 12 27" fill="none" xmlns="http://www.w3.org/2000/svg">
<path d="M11.6951 27C11.723 26.5948 11.723 26.1878 11.6951 25.7826C11.6538 25.0046 11.553 23.8731 11.3559 22.489C11.1142 20.8705 10.7897 19.2684 10.3841 17.6902C9.90538 15.7471 9.29241 13.8472 8.55051 12.0073C7.28855 8.61336 5.47581 5.50131 3.20114 2.82375C2.80739 2.364 2.38627 1.93368 1.94058 1.53564C1.74806 1.35379 1.57845 1.17699 1.40426 1.0305L0.918373 0.656697C0.627587 0.41367 0.321192 0.194189 0.00159957 0C-0.0534069 0.0808231 1.31718 0.969873 3.04529 2.9955C5.24305 5.6962 7.00711 8.78988 8.26174 12.1437C8.98752 13.9734 9.6001 15.8551 10.0953 17.776C10.5128 19.3403 10.8586 20.9268 11.1312 22.5294C11.3604 23.8984 11.4888 25.0147 11.5896 25.7927C11.5963 26.1975 11.6316 26.6012 11.6951 27Z" fill="#E0E0E0"/>
</svg>
