<svg width="8" height="9" viewBox="0 0 8 9" fill="none" xmlns="http://www.w3.org/2000/svg">
<path d="M0.00134669 9.00003C-0.0361907 8.92822 1.1575 8.34578 2.92926 7.15694C3.96216 6.47425 4.8702 5.59839 5.60944 4.57181C6.51511 3.33438 6.94208 1.77615 6.80313 0.215418C6.60793 0.0558425 7.06589 0.422866 7.01334 0.390951H6.87069H6.72805C6.63045 0.390951 6.54036 0.390949 6.44277 0.438822L5.87971 0.574471C5.51644 0.682252 5.16031 0.815524 4.81364 0.973409C4.16065 1.27469 3.5494 1.66929 2.99683 2.14629C2.05641 2.96044 1.3104 3.99933 0.819663 5.1782C0.391513 6.28615 0.137873 7.46145 0.0689142 8.65695C0.000745324 8.33512 -0.0170102 8.00353 0.016362 7.67556C0.0585295 6.77914 0.243854 5.89688 0.564408 5.06651C1.0427 3.82638 1.8007 2.73034 2.77161 1.87501C3.64527 1.0916 4.67055 0.522242 5.7746 0.207431C5.9698 0.15158 6.16499 0.0957509 6.36769 0.0558571L6.66799 0H6.82565H6.96829L7.18601 0.175534C7.34819 1.84624 6.88423 3.51754 5.89472 4.82714C5.11804 5.87926 4.16006 6.76471 3.07191 7.4362C2.34481 7.89299 1.59272 8.30328 0.819663 8.66491C0.558302 8.80585 0.284115 8.91814 0.00134669 9.00003Z" fill="#FAFAFA"/>
</svg>
