<svg width="43" height="54" viewBox="0 0 43 54" fill="none" xmlns="http://www.w3.org/2000/svg">
<path d="M27.5212 23.28V13.2012L35.5242 12.4554C35.6382 12.4447 35.7526 12.4704 35.8527 12.5293C36.1622 12.7107 42.6114 16.6549 42.7124 16.7153C42.7882 16.7625 42.8529 16.8273 42.9017 16.9049C42.9506 16.9824 42.9822 17.0707 42.9944 17.1632C43.0066 17.2557 42.9989 17.3498 42.9719 17.4387C42.945 17.5275 42.8994 17.6087 42.8388 17.6762L34.3557 27.4593L27.5212 23.28Z" fill="#629DFF"/>
<path d="M34.3557 27.4526L42.8388 17.6695C42.9208 17.578 42.9745 17.462 42.9925 17.337C43.0106 17.2121 42.9923 17.0843 42.94 16.9708C42.8877 16.8573 42.8039 16.7636 42.7 16.7023C42.596 16.641 42.477 16.6151 42.3587 16.628L34.3557 17.3671V27.4526Z" fill="#629DFF"/>
<path d="M27.5212 13.1878L34.3557 17.3738L42.3587 16.628C42.453 16.6191 42.548 16.6329 42.6367 16.6683C42.005 16.2652 36.1496 12.6906 35.859 12.5226C35.7558 12.4593 35.6361 12.4333 35.5179 12.4487L27.5212 13.1878Z" fill="#629DFF"/>
<path opacity="0.5" d="M27.5212 13.1878L34.3557 17.3738L42.3587 16.628C42.453 16.6191 42.548 16.6329 42.6367 16.6683C42.005 16.2652 36.1496 12.6906 35.859 12.5226C35.7558 12.4593 35.6361 12.4333 35.5179 12.4487L27.5212 13.1878Z" fill="white"/>
<path d="M34.362 5.15845C34.3221 4.42519 34.1214 3.71204 33.7759 3.07613C33.4304 2.44022 32.9497 1.89924 32.3723 1.49649L30.7552 0.508773C30.1402 0.174371 29.4594 0 28.7687 0C28.078 0 27.3971 0.174371 26.7821 0.508773L1.98339 15.768C1.40554 16.1681 0.924701 16.7077 0.580036 17.3429C0.235371 17.9781 0.0366294 18.6909 0 19.4233V48.4501C0.0356529 49.1837 0.233935 49.8978 0.578643 50.5343C0.923352 51.1707 1.40471 51.7114 1.98339 52.1121L3.60043 53.1065C4.21677 53.4362 4.89709 53.608 5.58698 53.608C6.27687 53.608 6.95719 53.4362 7.57353 53.1065L32.3723 37.8473C32.9518 37.4469 33.4341 36.9065 33.7799 36.2701C34.1257 35.6337 34.3251 34.9193 34.362 34.1853V5.15845Z" fill="#629DFF"/>
<path opacity="0.2" d="M0 48.45C0.0356529 49.1836 0.233935 49.8977 0.578643 50.5342C0.923352 51.1706 1.40471 51.7113 1.98339 52.112L3.60043 53.1064C4.16078 53.4042 4.77382 53.5731 5.39961 53.602C6.0254 53.631 6.6499 53.5193 7.23244 53.2744C6.29759 53.6507 5.59014 53.0863 5.59014 51.8836V22.8567C5.61415 22.1211 5.81417 21.4042 6.17126 20.7737L0.581125 17.3402C0.224035 17.9707 0.0240195 18.6876 0 19.4232V48.45Z" fill="black"/>
<path opacity="0.5" d="M34.2925 4.56039C34.0651 3.66002 33.2945 3.37781 32.3975 3.9355L7.57355 19.2015C6.98522 19.5865 6.5018 20.1286 6.17127 20.7738L0.587451 17.347C0.917465 16.7018 1.39825 16.158 1.98341 15.768L26.7821 0.50872C27.3985 0.179004 28.0788 0.00727799 28.7687 0.00727799C29.4586 0.00727799 30.1389 0.179004 30.7552 0.50872L32.3786 1.50316C32.8763 1.84749 33.3027 2.29621 33.6318 2.82188C33.9609 3.34755 34.1857 3.93912 34.2925 4.56039Z" fill="white"/>
<path d="M14.6354 21.3852L16.8778 20.0077V21.7681L19.1265 20.3907V24.1467L21.3689 22.7626V19.0066L23.6176 17.6291V15.8687L25.8662 14.4846V16.2517L28.1086 14.8676V18.6236L30.3573 17.2461V22.7626L28.1086 24.1467V26.9016L25.8662 28.2858V31.0406L23.6176 32.4248V35.1796L21.3689 36.5638L21.3752 39.3187L19.1265 40.6961V37.9412L16.8778 39.3187V36.5638L14.6354 37.9412V35.1796L12.3868 36.5638V33.8022L10.1381 35.1796V29.6632L12.3868 28.2858V24.5297L14.6354 23.1456V21.3852Z" fill="white"/>
</svg>
