<svg width="19" height="16" viewBox="0 0 19 16" fill="none" xmlns="http://www.w3.org/2000/svg">
<path d="M0 0C0.0809292 0.0928836 0.153219 0.193067 0.215958 0.299285L0.796345 1.2062L2.88844 4.49831L9.72261 15.4085L9.7721 15.4856H9.57413C12.1566 11.205 14.4962 7.32336 16.2013 4.51645L18.2304 1.2062L18.7928 0.299285C18.855 0.194909 18.9242 0.0949158 18.9998 0C18.9547 0.113921 18.899 0.223247 18.8333 0.326491L18.3069 1.23341C17.83 2.04057 17.1642 3.17874 16.3408 4.57993C14.6491 7.40952 12.3366 11.2911 9.7721 15.5854L9.67312 15.7486L9.57413 15.5854L9.52464 15.5083L2.74896 4.57087L0.719859 1.23794L0.175466 0.331023C0.109784 0.22471 0.0511676 0.114128 0 0Z" fill="#263238"/>
</svg>
