<svg width="6" height="5" viewBox="0 0 6 5" fill="none" xmlns="http://www.w3.org/2000/svg">
<path d="M5.84133 2.40378C5.86064 2.89709 5.70953 3.38433 5.40692 3.80452C5.10432 4.22472 4.66365 4.55922 4.14005 4.76618C3.79272 4.91006 3.41367 4.98923 3.02794 4.99846C2.48832 5.01348 1.95432 4.90073 1.48479 4.67262C1.01527 4.44451 0.628444 4.1099 0.366941 3.70566C0.105437 3.30142 -0.0205931 2.84325 0.00274054 2.38163C0.0260741 1.92001 0.197866 1.47285 0.499182 1.08945C0.575787 1.16528 0.65758 1.23717 0.74412 1.30473C0.899331 1.42516 1.07038 1.52973 1.25383 1.61632C1.03975 1.89712 0.931178 2.22726 0.942705 2.56241C0.963594 2.8713 1.08262 3.16944 1.28694 3.4247C1.49125 3.67996 1.77311 3.88264 2.10212 4.01089C2.43114 4.13914 2.79482 4.1881 3.15396 4.15248C3.51309 4.11686 3.85404 3.99801 4.14005 3.80876C4.38114 3.64641 4.57398 3.4376 4.70283 3.19934C4.83167 2.96108 4.89289 2.70013 4.88147 2.43777C4.85739 1.99296 4.63028 1.574 4.24899 1.271C3.8677 0.967999 3.3627 0.805168 2.84258 0.817519C2.78009 0.820585 2.71753 0.812782 2.65866 0.794586C2.59979 0.776389 2.54583 0.748181 2.50005 0.711651C2.45427 0.67512 2.41762 0.631023 2.39229 0.582036C2.36697 0.533049 2.35351 0.48018 2.35272 0.426618C2.34914 0.373777 2.35778 0.320855 2.37815 0.270879C2.39852 0.220904 2.43022 0.174859 2.47142 0.135386C2.51263 0.095914 2.56253 0.0637866 2.61827 0.0408508C2.67401 0.0179151 2.73449 0.00461941 2.79624 0.00172608C3.57149 -0.0228523 4.32665 0.215868 4.89708 0.665835C5.4675 1.1158 5.80692 1.74052 5.84133 2.40378Z" fill="black"/>
</svg>
