<svg width="7" height="17" viewBox="0 0 7 17" fill="none" xmlns="http://www.w3.org/2000/svg">
<path d="M1.97431 16.9625C1.97431 16.8416 3.13482 16.5433 5.06142 16.1564C5.54686 16.0677 6.00196 15.9307 6.06264 15.5679C6.07238 15.0257 5.92401 14.4935 5.63788 14.0444L3.93883 10.167C1.56472 4.65313 -0.195009 0.106628 0.0173719 0.00183319C0.229753 -0.102962 2.29288 4.29843 4.69734 9.81227C5.26621 11.1746 5.81992 12.4725 6.34329 13.7139C6.69083 14.3224 6.82513 15.0418 6.72254 15.7453C6.6632 15.9327 6.56385 16.1031 6.43226 16.2429C6.30067 16.3828 6.14042 16.4883 5.96404 16.5514C5.69747 16.6521 5.41941 16.7145 5.13727 16.7368C3.1955 16.9625 1.9819 17.0593 1.97431 16.9625Z" fill="#263238"/>
</svg>
