<svg width="36" height="57" viewBox="0 0 36 57" fill="none" xmlns="http://www.w3.org/2000/svg">
<path d="M30.0392 33.5364L30.5547 24.8417C30.5547 24.8417 30.0706 13.7326 19.7215 3.48632C13.4341 -2.74039 8.23443 0.610392 6.93294 4.00131C5.63145 7.39222 6.71288 12.5354 12.8242 17.3443C22.3937 24.8685 30.429 36.7801 31.4727 45.2273L30.0392 33.5364Z" fill="#37474F"/>
<path d="M29.7185 31.0818C29.6338 31.0905 29.5489 31.0681 29.4779 31.0182C29.4069 30.9683 29.3543 30.8939 29.3287 30.8076C24.6194 14.2208 11.0952 4.2688 10.9255 4.16848C10.8862 4.1388 10.8531 4.10086 10.8281 4.05701C10.8032 4.01317 10.787 3.96433 10.7805 3.91355C10.774 3.86277 10.7774 3.81111 10.7904 3.76177C10.8035 3.71244 10.8259 3.66648 10.8563 3.62674C10.91 3.54204 10.9929 3.48328 11.0871 3.46325C11.1813 3.44321 11.2791 3.46351 11.3593 3.51972C11.4976 3.62004 25.2607 13.7192 30.0455 30.5735C30.0714 30.671 30.0611 30.7754 30.0166 30.8651C29.9721 30.9548 29.8969 31.0228 29.8065 31.055L29.7185 31.0818Z" fill="white"/>
<path d="M30.4541 33.824C30.3937 32.8742 30.0625 31.9667 29.5047 31.2223C28.4988 29.9849 26.7383 29.5836 25.8895 28.2126C25.5531 27.5303 25.2834 26.8132 25.0847 26.0723C24.4547 24.4761 23.2798 23.1928 21.7964 22.4808C20.312 21.7933 18.6763 21.5616 17.0745 21.812C15.8611 21.9725 14.6853 22.3671 13.4719 22.5477C9.49192 23.1563 5.8075 19.2705 1.84644 21.8788C-0.530201 23.4573 -0.366728 26.2128 0.953627 28.5202C1.64436 29.6942 2.51088 30.7402 3.51889 31.6169C4.58775 32.58 5.71319 33.1618 5.82637 34.8339C5.90182 36.0511 5.54343 37.2617 5.55601 38.4856C5.60124 39.49 5.84928 40.4722 6.28326 41.3655C6.71723 42.2587 7.32696 43.0421 8.07097 43.6623C9.57354 44.8905 11.342 45.6977 13.2141 46.0098C14.591 46.2907 16.1754 46.5114 16.9362 47.7621C17.254 48.4462 17.4663 49.1801 17.565 49.9358C17.895 51.1455 18.4632 52.2667 19.2318 53.2249C20.0003 54.1831 20.9517 54.9565 22.0227 55.4937C24.1838 56.5493 26.5801 56.9386 28.9389 56.6173C30.9708 56.4696 32.919 55.6983 34.5472 54.3968C37.2382 52.056 35.6915 47.6351 33.9185 45.1738C33.1451 44.0903 32.1895 43.1674 31.479 42.037C30.058 39.7965 30.2907 37.8569 30.4227 35.2954C30.4712 34.8066 30.4817 34.3145 30.4541 33.824Z" fill="#455A64"/>
<path d="M32.5541 50.3036C32.4932 50.3163 32.43 50.3083 32.3736 50.2807C32.3171 50.2531 32.2703 50.2073 32.2398 50.1497C22.6138 31.7171 7.17188 26.5672 7.0147 26.5137C6.93934 26.4889 6.87609 26.4337 6.83848 26.36C6.80088 26.2862 6.79191 26.1998 6.8135 26.1191C6.83812 26.0384 6.89119 25.971 6.96154 25.9311C7.03189 25.8912 7.11405 25.8818 7.19074 25.905C7.34793 25.9585 23.0161 31.1887 32.7616 49.8421C32.7806 49.8781 32.7928 49.9177 32.7974 49.9587C32.802 49.9997 32.7989 50.0413 32.7884 50.081C32.7779 50.1208 32.7601 50.1579 32.7361 50.1904C32.7121 50.2228 32.6823 50.2499 32.6485 50.2701C32.6204 50.29 32.5878 50.3016 32.5541 50.3036Z" fill="white"/>
<path d="M23.3745 37.6295H23.3054C19.0739 37.4422 12.6734 39.248 12.6168 39.2681C12.5788 39.2801 12.5389 39.2837 12.4995 39.2786C12.4602 39.2736 12.4222 39.2599 12.388 39.2386C12.3538 39.2173 12.3241 39.1887 12.3007 39.1547C12.2773 39.1206 12.2608 39.0818 12.2521 39.0407C12.2416 39.0007 12.2387 38.9589 12.2434 38.9178C12.2482 38.8766 12.2606 38.8368 12.2799 38.8008C12.2992 38.7647 12.325 38.733 12.3558 38.7076C12.3867 38.6822 12.4219 38.6636 12.4596 38.6528C12.7237 38.5792 19.0173 36.8001 23.3368 36.9941C23.4152 36.9879 23.4927 37.015 23.5522 37.0696C23.6117 37.1242 23.6485 37.2017 23.6543 37.285C23.6601 37.3684 23.6346 37.4508 23.5833 37.5142C23.532 37.5775 23.4592 37.6166 23.3808 37.6228L23.3745 37.6295Z" fill="white"/>
<path d="M20.2874 34.573C20.2095 34.5808 20.1317 34.5569 20.0699 34.5059C20.008 34.455 19.9666 34.3809 19.9542 34.2988C19.7084 32.0232 19.7656 29.7221 20.1239 27.4635C20.1391 27.382 20.1841 27.3102 20.2489 27.2638C20.3136 27.2175 20.3931 27.2002 20.4698 27.216C20.5082 27.2232 20.545 27.2385 20.5779 27.261C20.6108 27.2834 20.6392 27.3126 20.6614 27.3469C20.6836 27.3811 20.6993 27.4196 20.7074 27.4603C20.7155 27.501 20.7159 27.543 20.7087 27.5838C20.3681 29.777 20.3152 32.0099 20.5515 34.2185C20.5603 34.3027 20.5376 34.3872 20.4881 34.4536C20.4386 34.52 20.3665 34.5629 20.2874 34.573Z" fill="white"/>
</svg>
