<svg width="3" height="9" viewBox="0 0 3 9" fill="none" xmlns="http://www.w3.org/2000/svg">
<path d="M0.238955 8.99879C0.668139 8.2751 1.05934 7.52673 1.41077 6.75713C2.17756 4.86602 2.36791 2.7672 1.95509 0.755257L1.90973 0.554391L2.26506 0.6267C1.1674 2.26829 0.487688 4.18358 0.291881 6.18667C0.140679 7.72129 0.291872 8.6774 0.223831 8.68543C0.137815 8.4744 0.0891316 8.24835 0.0801999 8.01857C0.00029397 7.40373 -0.0199739 6.78181 0.019718 6.16257C0.137582 4.08123 0.802908 2.07685 1.93997 0.377628L2.19701 0L2.29529 0.449937L2.34065 0.658845C2.77876 2.75409 2.53904 4.94513 1.66025 6.87764C1.39911 7.44877 1.07966 7.98765 0.707675 8.48456C0.435513 8.84612 0.261635 9.01486 0.238955 8.99879Z" fill="#FAFAFA"/>
</svg>
