<svg width="49" height="36" viewBox="0 0 49 36" fill="none" xmlns="http://www.w3.org/2000/svg">
<path d="M48.9998 29.9805H5.88112V35.5547H48.9998V29.9805Z" fill="#37474F"/>
<path d="M16.0987 29.9805H14.3386V35.5547H16.0987V29.9805Z" fill="#455A64"/>
<path d="M43.9258 29.9805H39.7144V35.5547H43.9258V29.9805Z" fill="#455A64"/>
<path d="M24.2383 31.4619L23.2079 32.9246C23.198 32.9406 23.1846 32.9538 23.1688 32.9628C23.1531 32.9718 23.1355 32.9764 23.1178 32.9761C23.0992 32.9776 23.0807 32.9736 23.0641 32.9646C23.0474 32.9555 23.0334 32.9417 23.0233 32.9246L21.993 31.4666V34.1716C21.9925 34.187 21.9891 34.2021 21.9832 34.2161C21.9773 34.2301 21.9689 34.2427 21.9586 34.2531C21.9482 34.2636 21.9361 34.2717 21.9228 34.277C21.9096 34.2823 21.8955 34.2847 21.8814 34.2841C21.8525 34.2854 21.8243 34.2744 21.8026 34.2534C21.781 34.2324 21.7677 34.2031 21.7655 34.1716V31.1196C21.7663 31.1018 21.771 31.0844 21.7792 31.0689C21.7874 31.0534 21.7989 31.0402 21.8127 31.0306C21.838 31.014 21.8678 31.0077 21.8969 31.0128C21.9259 31.018 21.9524 31.0342 21.9716 31.0587L23.1178 32.6855L24.2554 31.0587C24.2746 31.0342 24.301 31.018 24.3301 31.0128C24.3592 31.0077 24.389 31.014 24.4143 31.0306L24.4443 31.0681C24.4478 31.0882 24.4478 31.1089 24.4443 31.129V34.181C24.4438 34.1964 24.4404 34.2115 24.4345 34.2255C24.4286 34.2395 24.4202 34.2521 24.4099 34.2625C24.3995 34.273 24.3874 34.2811 24.3741 34.2864C24.3609 34.2917 24.3468 34.2941 24.3327 34.2935C24.3186 34.2941 24.3045 34.2917 24.2913 34.2864C24.278 34.2811 24.2659 34.273 24.2555 34.2625C24.2452 34.2521 24.2368 34.2395 24.2309 34.2255C24.225 34.2115 24.2216 34.1964 24.2211 34.181L24.2383 31.4619Z" fill="white"/>
<path d="M27.0973 33.4308H25.6292L25.3458 34.2091C25.3371 34.232 25.3221 34.2515 25.3029 34.2649C25.2837 34.2784 25.2612 34.285 25.2385 34.2841H25.1999C25.1862 34.2794 25.1737 34.2717 25.1629 34.2614C25.1522 34.2512 25.1435 34.2386 25.1375 34.2245C25.1314 34.2104 25.1281 34.1951 25.1278 34.1795C25.1274 34.1639 25.13 34.1485 25.1355 34.1341L26.2516 31.0774C26.2626 31.0557 26.2788 31.0377 26.2985 31.0253C26.3181 31.0129 26.3405 31.0066 26.3632 31.0071C26.3855 31.0058 26.4077 31.0117 26.4268 31.0243C26.4459 31.0368 26.4612 31.0553 26.4706 31.0774L27.591 34.1341C27.6009 34.1627 27.6002 34.1944 27.589 34.2224C27.5777 34.2505 27.5569 34.2726 27.5309 34.2841H27.488C27.4655 34.2838 27.4435 34.2766 27.4245 34.2634C27.4055 34.2501 27.3903 34.2313 27.3807 34.2091L27.0973 33.4308ZM25.7107 33.2011H26.9986L26.3504 31.429L25.7107 33.2011Z" fill="white"/>
<path d="M28.66 31.2134H27.6898C27.6742 31.2169 27.6581 31.2165 27.6427 31.2123C27.6273 31.2082 27.6129 31.2003 27.6006 31.1893C27.5882 31.1783 27.5783 31.1645 27.5715 31.1488C27.5647 31.1331 27.5611 31.1159 27.5611 31.0986C27.5611 31.0812 27.5647 31.064 27.5715 31.0484C27.5783 31.0327 27.5882 31.0188 27.6006 31.0078C27.6129 30.9968 27.6273 30.989 27.6427 30.9848C27.6581 30.9806 27.6742 30.9803 27.6898 30.9837H29.8363C29.8519 30.9803 29.868 30.9806 29.8834 30.9848C29.8989 30.989 29.9133 30.9968 29.9256 31.0078C29.9379 31.0188 29.9478 31.0327 29.9547 31.0484C29.9615 31.064 29.965 31.0812 29.965 31.0986C29.965 31.1159 29.9615 31.1331 29.9547 31.1488C29.9478 31.1645 29.9379 31.1783 29.9256 31.1893C29.9133 31.2003 29.8989 31.2082 29.8834 31.2123C29.868 31.2165 29.8519 31.2169 29.8363 31.2134H28.8661V34.1669C28.8661 34.1993 28.8543 34.2303 28.8334 34.2531C28.8125 34.276 28.7841 34.2888 28.7545 34.2888C28.7249 34.2888 28.6965 34.276 28.6756 34.2531C28.6546 34.2303 28.6429 34.1993 28.6429 34.1669L28.66 31.2134Z" fill="white"/>
<path d="M32.704 32.7511H31.0512V34.1576C31.049 34.1891 31.0357 34.2184 31.0141 34.2394C30.9925 34.2604 30.9642 34.2714 30.9353 34.2701C30.9212 34.2707 30.9071 34.2683 30.8939 34.263C30.8807 34.2577 30.8685 34.2496 30.8581 34.2391C30.8478 34.2287 30.8394 34.2161 30.8335 34.2021C30.8276 34.1881 30.8242 34.173 30.8237 34.1576V31.0869C30.8242 31.0715 30.8276 31.0564 30.8335 31.0424C30.8394 31.0284 30.8478 31.0158 30.8581 31.0053C30.8685 30.9949 30.8807 30.9868 30.8939 30.9815C30.9071 30.9761 30.9212 30.9737 30.9353 30.9743C30.9642 30.973 30.9925 30.984 31.0141 31.005C31.0357 31.026 31.049 31.0554 31.0512 31.0869V32.4933H32.704V31.0869C32.7046 31.0715 32.7079 31.0564 32.7138 31.0424C32.7197 31.0284 32.7281 31.0158 32.7385 31.0053C32.7488 30.9949 32.761 30.9868 32.7742 30.9815C32.7875 30.9761 32.8015 30.9737 32.8156 30.9743C32.8445 30.973 32.8728 30.984 32.8944 31.005C32.916 31.026 32.9293 31.0554 32.9315 31.0869V34.1576C32.9293 34.1891 32.916 34.2184 32.8944 34.2394C32.8728 34.2604 32.8445 34.2714 32.8156 34.2701C32.8015 34.2707 32.7875 34.2683 32.7742 34.263C32.761 34.2577 32.7488 34.2496 32.7385 34.2391C32.7281 34.2287 32.7197 34.2161 32.7138 34.2021C32.7079 34.1881 32.7046 34.173 32.704 34.1576V32.7511Z" fill="white"/>
<path d="M45.5487 0H2.42996V7.18217H45.5487V0Z" fill="#FFC727"/>
<path d="M23.2892 4.70687C23.3083 4.68708 23.3336 4.67606 23.36 4.67606C23.3863 4.67606 23.4117 4.68708 23.4308 4.70687C23.7338 4.96458 24.1032 5.11214 24.4869 5.12879C24.7374 5.13557 24.9841 5.06048 25.1952 4.91315C25.2726 4.86536 25.338 4.79767 25.3859 4.71597C25.4338 4.63426 25.4626 4.54101 25.47 4.44433C25.4707 4.3473 25.4466 4.25198 25.4003 4.16914C25.354 4.0863 25.2875 4.01923 25.2081 3.97552C24.9774 3.83822 24.7257 3.74768 24.4654 3.7083C24.1983 3.66998 23.9404 3.57609 23.7056 3.4317C23.609 3.37577 23.5275 3.29302 23.4695 3.19179C23.4115 3.09056 23.3789 2.97443 23.375 2.85507C23.38 2.73046 23.4132 2.60913 23.4717 2.50196C23.5301 2.39479 23.6119 2.30511 23.7099 2.24093C23.9401 2.07504 24.2112 1.98997 24.4869 1.99714C24.8448 2.01669 25.1895 2.15034 25.4786 2.38157C25.4895 2.38875 25.499 2.39827 25.5065 2.40955C25.5139 2.42084 25.5192 2.43364 25.522 2.44722C25.5248 2.4608 25.5251 2.47486 25.5228 2.48856C25.5205 2.50225 25.5157 2.51529 25.5086 2.5269C25.4932 2.54959 25.4704 2.56508 25.445 2.57029C25.4195 2.5755 25.3932 2.57005 25.3713 2.55503C25.1131 2.3491 24.8061 2.22867 24.4869 2.20811C24.2552 2.20321 24.0271 2.27159 23.8301 2.405C23.7547 2.45302 23.6919 2.52133 23.6475 2.6034C23.6032 2.68547 23.5788 2.77855 23.5768 2.87381C23.5798 2.95847 23.6037 3.04066 23.646 3.11165C23.6884 3.18265 23.7475 3.23979 23.8172 3.277C24.0299 3.40602 24.2629 3.4903 24.5041 3.52547C24.7925 3.56721 25.0708 3.66906 25.324 3.8255C25.4288 3.88546 25.5171 3.97485 25.5797 4.08444C25.6423 4.19404 25.6771 4.31989 25.6804 4.44903C25.6732 4.58263 25.6362 4.71229 25.5726 4.82669C25.509 4.94109 25.4207 5.03676 25.3155 5.10536C25.07 5.28258 24.7811 5.37414 24.4869 5.36789C24.0572 5.34843 23.6434 5.18472 23.302 4.89908C23.2815 4.89608 23.2626 4.88545 23.2484 4.86899C23.2342 4.85253 23.2256 4.83124 23.2241 4.80869C23.2226 4.78614 23.2282 4.76371 23.2401 4.74517C23.2519 4.72663 23.2693 4.7131 23.2892 4.70687Z" fill="white"/>
<path d="M28.0333 1.97832C28.4064 1.97659 28.7703 2.10467 29.0722 2.344C29.0831 2.35412 29.0918 2.36669 29.0978 2.38085C29.1038 2.39502 29.1069 2.41043 29.1069 2.42603C29.1069 2.44163 29.1038 2.45705 29.0978 2.47121C29.0918 2.48538 29.0831 2.49795 29.0722 2.50807C29.0544 2.53325 29.0282 2.5498 28.9993 2.55418C28.9705 2.55856 28.9411 2.55043 28.9177 2.53152C28.6554 2.32421 28.3399 2.21265 28.0162 2.21273C27.8341 2.19667 27.6511 2.22195 27.4784 2.287C27.3058 2.35204 27.1474 2.45543 27.0132 2.59065C26.8789 2.72586 26.7718 2.88997 26.6986 3.07264C26.6253 3.2553 26.5875 3.45255 26.5875 3.65197C26.5875 3.85139 26.6253 4.04865 26.6986 4.23132C26.7718 4.41398 26.8789 4.57809 27.0132 4.7133C27.1474 4.84852 27.3058 4.9519 27.4784 5.01694C27.6511 5.08198 27.8341 5.10728 28.0162 5.09122C28.3381 5.09711 28.6525 4.98486 28.9091 4.77243C28.9211 4.76258 28.9348 4.75547 28.9494 4.75155C28.964 4.74762 28.9792 4.74694 28.994 4.74957C29.0088 4.7522 29.023 4.75806 29.0357 4.76683C29.0484 4.77559 29.0594 4.78706 29.0679 4.80056C29.0795 4.81019 29.0889 4.8226 29.0953 4.83683C29.1018 4.85106 29.1052 4.86672 29.1052 4.8826C29.1052 4.89848 29.1018 4.91415 29.0953 4.92838C29.0889 4.94261 29.0795 4.95502 29.0679 4.96465C28.7656 5.2026 28.4017 5.32906 28.029 5.32563C27.8181 5.34288 27.6062 5.31241 27.4066 5.23612C27.207 5.15983 27.0239 5.03937 26.8689 4.88227C26.7138 4.72517 26.5902 4.5348 26.5056 4.32311C26.421 4.11141 26.3774 3.88293 26.3774 3.65197C26.3774 3.421 26.421 3.19252 26.5056 2.98083C26.5902 2.76913 26.7138 2.57878 26.8689 2.42168C27.0239 2.26458 27.207 2.14412 27.4066 2.06783C27.6062 1.99154 27.8181 1.96107 28.029 1.97832H28.0333Z" fill="white"/>
<path d="M30.0766 2.14717C30.0777 2.11567 30.0899 2.08585 30.1107 2.06399C30.1316 2.04214 30.1593 2.02995 30.1882 2.02997C30.2029 2.02934 30.2175 2.03187 30.2312 2.03743C30.245 2.04298 30.2576 2.05145 30.2684 2.06233C30.2792 2.07322 30.2879 2.08632 30.294 2.10088C30.3001 2.11544 30.3036 2.13116 30.3041 2.14717V5.21788C30.3019 5.24938 30.2886 5.27873 30.267 5.29972C30.2453 5.32071 30.2171 5.33171 30.1882 5.3304C30.1741 5.33103 30.16 5.32861 30.1468 5.32329C30.1335 5.31798 30.1214 5.30987 30.111 5.29942C30.1007 5.28897 30.0923 5.27638 30.0864 5.26239C30.0805 5.2484 30.0771 5.23328 30.0766 5.21788V2.14717Z" fill="white"/>
<path d="M31.4463 2.14733C31.4474 2.11582 31.4596 2.086 31.4804 2.06415C31.5013 2.04229 31.529 2.0301 31.5579 2.03012H33.215C33.2434 2.03012 33.2707 2.04247 33.2909 2.06445C33.311 2.08643 33.3223 2.11624 33.3223 2.14733C33.3223 2.17841 33.311 2.20823 33.2909 2.23021C33.2707 2.25219 33.2434 2.26453 33.215 2.26453H31.6652V3.55376H33.0132C33.0288 3.5503 33.0449 3.55068 33.0603 3.55485C33.0758 3.55902 33.0902 3.56687 33.1025 3.57787C33.1148 3.58886 33.1247 3.6027 33.1315 3.6184C33.1384 3.63409 33.1419 3.65125 33.1419 3.66862C33.1419 3.68598 33.1384 3.70314 33.1315 3.71883C33.1247 3.73453 33.1148 3.74837 33.1025 3.75936C33.0902 3.77036 33.0758 3.77823 33.0603 3.7824C33.0449 3.78657 33.0288 3.78693 33.0132 3.78347H31.6652V5.08209H33.2064C33.221 5.08136 33.2357 5.08405 33.2493 5.08998C33.2629 5.09592 33.2752 5.10496 33.2853 5.1165C33.2955 5.12803 33.3033 5.1418 33.3082 5.15688C33.3131 5.17197 33.315 5.18802 33.3137 5.20397C33.3137 5.21915 33.3109 5.23418 33.3055 5.24815C33.3 5.26211 33.2921 5.27472 33.282 5.28523C33.272 5.29574 33.2601 5.30394 33.2471 5.30931C33.2341 5.31468 33.2203 5.31713 33.2064 5.31649H31.5407C31.5137 5.31534 31.4881 5.30311 31.469 5.28226C31.4499 5.2614 31.4387 5.23344 31.4377 5.20397L31.4463 2.14733Z" fill="white"/>
<path d="M34.4084 2.51298V5.21333C34.4084 5.24566 34.3966 5.27666 34.3757 5.29952C34.3547 5.32238 34.3264 5.33521 34.2968 5.33521C34.2672 5.33521 34.2388 5.32238 34.2178 5.29952C34.1969 5.27666 34.1851 5.24566 34.1851 5.21333V2.1895C34.1785 2.16548 34.1791 2.13977 34.1868 2.11614C34.1945 2.09252 34.209 2.07221 34.2281 2.05823C34.2524 2.04095 34.2817 2.03425 34.3104 2.03946C34.339 2.04467 34.3648 2.0614 34.3826 2.08636L36.3359 4.85703V2.17543C36.337 2.14472 36.3486 2.11557 36.3685 2.09384C36.3884 2.07211 36.4151 2.05939 36.4432 2.05823C36.4726 2.05814 36.5008 2.07019 36.5223 2.09194C36.5438 2.11368 36.557 2.14351 36.5592 2.17543V5.21333C36.557 5.24484 36.5436 5.27417 36.522 5.29515C36.5004 5.31614 36.4722 5.32715 36.4432 5.32584C36.4269 5.3264 36.4107 5.32288 36.3959 5.31557C36.381 5.30826 36.3678 5.29735 36.3574 5.28365L34.4084 2.51298Z" fill="white"/>
<path d="M39.2464 1.97832C39.6208 1.97657 39.9861 2.1046 40.2896 2.344C40.2999 2.35452 40.3081 2.36723 40.3137 2.38134C40.3192 2.39545 40.3221 2.41066 40.3221 2.42603C40.3221 2.44141 40.3192 2.45662 40.3137 2.47073C40.3081 2.48484 40.2999 2.49755 40.2896 2.50807C40.2718 2.53325 40.2456 2.5498 40.2167 2.55418C40.1878 2.55856 40.1585 2.55043 40.1351 2.53152C39.8715 2.32356 39.5544 2.21198 39.2292 2.21273C39.0472 2.19667 38.8641 2.22195 38.6915 2.287C38.5189 2.35204 38.3605 2.45543 38.2262 2.59065C38.092 2.72586 37.9849 2.88997 37.9116 3.07264C37.8384 3.2553 37.8005 3.45255 37.8005 3.65197C37.8005 3.85139 37.8384 4.04865 37.9116 4.23132C37.9849 4.41398 38.092 4.57809 38.2262 4.7133C38.3605 4.84852 38.5189 4.9519 38.6915 5.01694C38.8641 5.08198 39.0472 5.10728 39.2292 5.09122C39.5514 5.09859 39.8662 4.98618 40.1222 4.77243C40.1475 4.75348 40.1785 4.74583 40.2089 4.75106C40.2392 4.75629 40.2666 4.774 40.2853 4.80056C40.2962 4.81068 40.3049 4.82327 40.3109 4.83743C40.3169 4.85159 40.32 4.867 40.32 4.8826C40.32 4.8982 40.3169 4.91361 40.3109 4.92778C40.3049 4.94194 40.2962 4.95453 40.2853 4.96465C39.9814 5.20267 39.6161 5.32908 39.2421 5.32563C39.0312 5.34288 38.8193 5.31241 38.6197 5.23612C38.4201 5.15983 38.237 5.03937 38.082 4.88227C37.9269 4.72517 37.8032 4.5348 37.7187 4.32311C37.6341 4.11141 37.5904 3.88293 37.5904 3.65197C37.5904 3.421 37.6341 3.19252 37.7187 2.98083C37.8032 2.76913 37.9269 2.57878 38.082 2.42168C38.237 2.26458 38.4201 2.14412 38.6197 2.06783C38.8193 1.99154 39.0312 1.96107 39.2421 1.97832H39.2464Z" fill="white"/>
<path d="M41.2599 2.14733C41.261 2.11582 41.2733 2.086 41.2941 2.06415C41.3149 2.04229 41.3427 2.0301 41.3715 2.03012H43.0286C43.0571 2.03012 43.0844 2.04247 43.1045 2.06445C43.1247 2.08643 43.136 2.11624 43.136 2.14733C43.136 2.17841 43.1247 2.20823 43.1045 2.23021C43.0844 2.25219 43.0571 2.26453 43.0286 2.26453H41.4875V3.55376H42.8269C42.8425 3.5503 42.8586 3.55068 42.874 3.55485C42.8894 3.55902 42.9038 3.56687 42.9161 3.57787C42.9285 3.58886 42.9384 3.6027 42.9452 3.6184C42.952 3.63409 42.9555 3.65125 42.9555 3.66862C42.9555 3.68598 42.952 3.70314 42.9452 3.71883C42.9384 3.73453 42.9285 3.74837 42.9161 3.75936C42.9038 3.77036 42.8894 3.77823 42.874 3.7824C42.8586 3.78657 42.8425 3.78693 42.8269 3.78347H41.4789V5.08209H43.02C43.0347 5.08136 43.0493 5.08405 43.0629 5.08998C43.0765 5.09592 43.0888 5.10496 43.099 5.1165C43.1091 5.12803 43.1169 5.1418 43.1218 5.15688C43.1267 5.17197 43.1286 5.18802 43.1274 5.20397C43.1274 5.21915 43.1246 5.23418 43.1191 5.24815C43.1137 5.26211 43.1057 5.27472 43.0957 5.28523C43.0857 5.29574 43.0738 5.30394 43.0608 5.30931C43.0478 5.31468 43.0339 5.31713 43.02 5.31649H41.3544C41.3274 5.31534 41.3018 5.30311 41.2827 5.28226C41.2636 5.2614 41.2524 5.23344 41.2513 5.20397L41.2599 2.14733Z" fill="white"/>
<path d="M16.8929 0H6.05746V7.18217H16.8929V0Z" fill="#455A64"/>
<path d="M14.8579 0.998607H8.09643V2.25971H14.8579V0.998607Z" fill="#FFC727"/>
<path d="M14.8579 2.95824H8.09643V4.21935H14.8579V2.95824Z" fill="#FFC727"/>
<path d="M14.8579 4.91321H8.09643V6.17432H14.8579V4.91321Z" fill="#FFC727"/>
<path d="M48.1113 7.17764H4.06958V14.5427H48.1113V7.17764Z" fill="#37474F"/>
<path d="M40.3195 9.56855H29.7416V12.1564H40.3195V9.56855Z" fill="#FFC727"/>
<path d="M45.6256 10.8624C45.6481 11.1689 45.5853 11.4757 45.4456 11.7426C45.306 12.0096 45.0958 12.2243 44.8426 12.3587C44.5894 12.4932 44.3049 12.5411 44.0264 12.4963C43.7478 12.4514 43.4882 12.3159 43.2813 12.1073C43.0744 11.8988 42.9299 11.6269 42.8667 11.3273C42.8036 11.0277 42.8246 10.7142 42.9271 10.4279C43.0296 10.1415 43.2088 9.89556 43.4413 9.72218C43.6738 9.54879 43.9488 9.45602 44.2304 9.45598C44.5852 9.44445 44.93 9.58527 45.1909 9.84821C45.4517 10.1111 45.6078 10.4753 45.6256 10.8624Z" fill="#FFC727"/>
<path d="M8.17796 9.17944C8.17852 9.16404 8.18184 9.14892 8.18775 9.13493C8.19366 9.12094 8.20204 9.10835 8.21241 9.0979C8.22278 9.08745 8.23493 9.07934 8.24817 9.07402C8.26141 9.06871 8.27549 9.0663 8.28958 9.06693H9.94238C9.95797 9.06347 9.97406 9.06383 9.9895 9.068C10.0049 9.07217 10.0193 9.08004 10.0317 9.09103C10.044 9.10203 10.0539 9.11587 10.0607 9.13157C10.0675 9.14726 10.0711 9.16441 10.0711 9.18178C10.0711 9.19915 10.0675 9.21631 10.0607 9.232C10.0539 9.24769 10.044 9.26154 10.0317 9.27253C10.0193 9.28352 10.0049 9.29138 9.9895 9.29555C9.97406 9.29972 9.95797 9.3001 9.94238 9.29664H8.40549V10.6046H9.77066C9.78625 10.6012 9.80234 10.6015 9.81779 10.6057C9.83323 10.6099 9.84762 10.6177 9.85994 10.6287C9.87225 10.6397 9.88218 10.6536 9.88899 10.6693C9.89581 10.685 9.89934 10.7021 9.89934 10.7195C9.89934 10.7369 9.89581 10.754 9.88899 10.7697C9.88218 10.7854 9.87225 10.7992 9.85994 10.8102C9.84762 10.8212 9.83323 10.8291 9.81779 10.8333C9.80234 10.8374 9.78625 10.8378 9.77066 10.8343H8.40549V12.1329H9.94238C9.95797 12.1295 9.97406 12.1299 9.9895 12.134C10.0049 12.1382 10.0193 12.1461 10.0317 12.1571C10.044 12.1681 10.0539 12.1819 10.0607 12.1976C10.0675 12.2133 10.0711 12.2304 10.0711 12.2478C10.0711 12.2652 10.0675 12.2823 10.0607 12.298C10.0539 12.3137 10.044 12.3276 10.0317 12.3385C10.0193 12.3495 10.0049 12.3574 9.9895 12.3616C9.97406 12.3657 9.95797 12.3661 9.94238 12.3627H8.28099C8.25401 12.3615 8.22841 12.3493 8.20932 12.3284C8.19022 12.3076 8.17902 12.2796 8.17796 12.2501V9.17944Z" fill="white"/>
<path d="M11.1403 9.56854V12.2642C11.1403 12.2965 11.1285 12.3275 11.1076 12.3504C11.0866 12.3733 11.0583 12.3861 11.0287 12.3861C10.9991 12.3861 10.9707 12.3733 10.9497 12.3504C10.9288 12.3275 10.917 12.2965 10.917 12.2642V9.24038C10.9099 9.2171 10.9103 9.19186 10.9181 9.16885C10.9259 9.14583 10.9407 9.12641 10.96 9.11379C10.9843 9.09651 11.0136 9.08983 11.0423 9.09504C11.0709 9.10024 11.0966 9.11698 11.1145 9.14194L13.0678 11.9126V9.22632C13.0689 9.19605 13.0807 9.16743 13.1007 9.14646C13.1207 9.12548 13.1474 9.11377 13.1751 9.11379C13.2041 9.11249 13.2323 9.12349 13.2539 9.14448C13.2755 9.16547 13.2889 9.19482 13.2911 9.22632V12.2642C13.2889 12.2957 13.2755 12.325 13.2539 12.346C13.2323 12.367 13.2041 12.378 13.1751 12.3767C13.1588 12.3773 13.1426 12.3738 13.1278 12.3665C13.1129 12.3591 13.0997 12.3482 13.0893 12.3345L11.1403 9.56854Z" fill="white"/>
<path d="M15.7207 10.8952C15.7065 10.8965 15.6921 10.8946 15.6786 10.8895C15.6651 10.8844 15.6527 10.8763 15.6422 10.8658C15.6317 10.8552 15.6234 10.8423 15.6177 10.828C15.612 10.8137 15.609 10.7983 15.6091 10.7827C15.6091 10.7669 15.612 10.7513 15.6177 10.7367C15.6233 10.7222 15.6316 10.7091 15.642 10.6981C15.6525 10.6872 15.6648 10.6786 15.6783 10.673C15.6918 10.6674 15.7063 10.6649 15.7207 10.6655H16.7296C16.7569 10.6678 16.7826 10.681 16.8016 10.7026C16.8206 10.7242 16.8316 10.7528 16.8326 10.7827V11.9313C16.8282 11.9642 16.8129 11.9942 16.7897 12.0157C16.4885 12.256 16.1238 12.3828 15.7508 12.3767C15.538 12.398 15.3235 12.3706 15.1209 12.2964C14.9183 12.2221 14.7322 12.1025 14.5744 11.9452C14.4165 11.7879 14.2904 11.5964 14.2042 11.3829C14.1179 11.1695 14.0733 10.9387 14.0733 10.7053C14.0733 10.472 14.1179 10.2412 14.2042 10.0277C14.2904 9.81426 14.4165 9.62278 14.5744 9.4655C14.7322 9.30823 14.9183 9.18863 15.1209 9.11434C15.3235 9.04005 15.538 9.01269 15.7508 9.03403C16.1267 9.03097 16.4932 9.16272 16.794 9.40908C16.8041 9.41918 16.8122 9.43149 16.8178 9.44522C16.8233 9.45894 16.8262 9.47378 16.8262 9.48878C16.8262 9.50378 16.8233 9.51862 16.8178 9.53234C16.8122 9.54607 16.8041 9.55837 16.794 9.56847C16.772 9.58957 16.7438 9.6012 16.7145 9.6012C16.6853 9.6012 16.6571 9.58957 16.6351 9.56847C16.377 9.35531 16.0615 9.24157 15.7379 9.245C15.5536 9.2251 15.3675 9.24756 15.1916 9.31094C15.0157 9.37433 14.8539 9.47724 14.7167 9.61304C14.5794 9.74884 14.4697 9.91452 14.3947 10.0994C14.3196 10.2843 14.2808 10.4843 14.2808 10.6866C14.2808 10.8888 14.3196 11.0889 14.3947 11.2738C14.4697 11.4587 14.5794 11.6243 14.7167 11.7601C14.8539 11.8959 15.0157 11.9988 15.1916 12.0622C15.3675 12.1256 15.5536 12.1481 15.7379 12.1282C16.0435 12.1311 16.3428 12.0331 16.5965 11.8469V10.8765L15.7207 10.8952Z" fill="white"/>
<path d="M17.8503 12.3767C17.8362 12.3773 17.8221 12.3749 17.8089 12.3696C17.7956 12.3643 17.7835 12.3562 17.7731 12.3457C17.7627 12.3353 17.7544 12.3227 17.7484 12.3087C17.7425 12.2947 17.7392 12.2796 17.7387 12.2642V9.1794C17.7392 9.16401 17.7425 9.14888 17.7484 9.13489C17.7544 9.1209 17.7627 9.10832 17.7731 9.09787C17.7835 9.08742 17.7956 9.07931 17.8089 9.07399C17.8221 9.06867 17.8362 9.06626 17.8503 9.06689C17.8792 9.06559 17.9074 9.07658 17.929 9.09757C17.9507 9.11856 17.964 9.1479 17.9662 9.1794V12.1329H19.5074C19.5229 12.1294 19.539 12.1298 19.5545 12.134C19.5699 12.1382 19.5843 12.146 19.5966 12.157C19.609 12.168 19.6189 12.1819 19.6257 12.1976C19.6325 12.2133 19.636 12.2304 19.636 12.2478C19.636 12.2651 19.6325 12.2823 19.6257 12.298C19.6189 12.3137 19.609 12.3275 19.5966 12.3385C19.5843 12.3495 19.5699 12.3574 19.5545 12.3615C19.539 12.3657 19.5229 12.3661 19.5074 12.3626L17.8503 12.3767Z" fill="white"/>
<path d="M20.3744 9.1794C20.3755 9.14914 20.3873 9.12052 20.4073 9.09954C20.4273 9.07857 20.454 9.06687 20.4817 9.06689C20.5107 9.06559 20.5389 9.07658 20.5605 9.09757C20.5821 9.11856 20.5955 9.1479 20.5977 9.1794V12.2501C20.5955 12.2816 20.5821 12.311 20.5605 12.3319C20.5389 12.3529 20.5107 12.3639 20.4817 12.3626C20.454 12.3627 20.4273 12.3509 20.4073 12.33C20.3873 12.309 20.3755 12.2804 20.3744 12.2501V9.1794Z" fill="white"/>
<path d="M21.5981 11.7626C21.6172 11.7428 21.6426 11.7318 21.6689 11.7318C21.6953 11.7318 21.7206 11.7428 21.7398 11.7626C22.0425 12.0209 22.412 12.1685 22.7958 12.1846C23.0461 12.1894 23.2923 12.1144 23.5042 11.9689C23.5815 11.9211 23.6469 11.8534 23.6948 11.7717C23.7427 11.69 23.7716 11.5968 23.7789 11.5001C23.7801 11.4029 23.7562 11.3074 23.7099 11.2245C23.6635 11.1415 23.5967 11.0745 23.517 11.0313C23.2863 10.894 23.0347 10.8034 22.7744 10.7641C22.5072 10.7257 22.2493 10.6318 22.0145 10.4875C21.9184 10.4308 21.8375 10.3479 21.7795 10.2468C21.7216 10.1457 21.6887 10.0299 21.6839 9.91082C21.6894 9.78568 21.7227 9.66388 21.7811 9.55603C21.8394 9.44818 21.921 9.35753 22.0188 9.29198C22.2503 9.12963 22.5208 9.04639 22.7958 9.0529C23.1533 9.0708 23.4981 9.20283 23.7875 9.43263C23.7986 9.44026 23.8081 9.45021 23.8157 9.46191C23.8232 9.4736 23.8285 9.48682 23.8313 9.50078C23.8341 9.51474 23.8343 9.52916 23.8319 9.54321C23.8296 9.55727 23.8247 9.57067 23.8176 9.58264C23.8021 9.60533 23.7794 9.62082 23.7539 9.62604C23.7284 9.63125 23.7021 9.62581 23.6802 9.61078C23.4224 9.40342 23.1154 9.28137 22.7958 9.25918C22.5634 9.25347 22.3347 9.32366 22.139 9.46076C22.0636 9.50878 22.0008 9.57707 21.9564 9.65914C21.9121 9.74121 21.8878 9.83431 21.8857 9.92957C21.8894 10.0134 21.9137 10.0946 21.956 10.1647C21.9983 10.2348 22.0571 10.2912 22.1261 10.3281C22.3385 10.4588 22.5715 10.5447 22.813 10.5812C23.1014 10.6229 23.3798 10.7248 23.633 10.8813C23.7372 10.942 23.8249 11.0315 23.8875 11.141C23.95 11.2504 23.9851 11.3759 23.9893 11.5048C23.9821 11.6384 23.9451 11.768 23.8815 11.8824C23.8179 11.9968 23.7296 12.0925 23.6244 12.1611C23.3776 12.3346 23.0893 12.4243 22.7958 12.419C22.3661 12.3995 21.9524 12.2358 21.611 11.9501C21.5922 11.9454 21.5753 11.9343 21.5628 11.9184C21.5503 11.9024 21.5427 11.8825 21.5413 11.8616C21.5398 11.8406 21.5446 11.8197 21.5548 11.8019C21.565 11.7841 21.5802 11.7703 21.5981 11.7626Z" fill="white"/>
<path d="M26.6893 10.8437H25.0365V12.2501C25.0343 12.2816 25.021 12.311 24.9994 12.3319C24.9777 12.3529 24.9495 12.3639 24.9206 12.3626C24.9065 12.3633 24.8924 12.3608 24.8792 12.3555C24.8659 12.3502 24.8538 12.3421 24.8434 12.3316C24.833 12.3212 24.8247 12.3086 24.8188 12.2946C24.8128 12.2806 24.8095 12.2655 24.809 12.2501V9.1794C24.8095 9.16401 24.8128 9.14888 24.8188 9.13489C24.8247 9.1209 24.833 9.10832 24.8434 9.09787C24.8538 9.08742 24.8659 9.07931 24.8792 9.07399C24.8924 9.06867 24.9065 9.06626 24.9206 9.06689C24.9495 9.06559 24.9777 9.07658 24.9994 9.09757C25.021 9.11856 25.0343 9.1479 25.0365 9.1794V10.5858H26.6893V9.1794C26.6898 9.16401 26.6932 9.14888 26.6991 9.13489C26.705 9.1209 26.7134 9.10832 26.7237 9.09787C26.7341 9.08742 26.7463 9.07931 26.7595 9.07399C26.7727 9.06867 26.7868 9.06626 26.8009 9.06689C26.8298 9.06559 26.8581 9.07658 26.8797 9.09757C26.9013 9.11856 26.9146 9.1479 26.9168 9.1794V12.2501C26.9146 12.2816 26.9013 12.311 26.8797 12.3319C26.8581 12.3529 26.8298 12.3639 26.8009 12.3626C26.7868 12.3633 26.7727 12.3608 26.7595 12.3555C26.7463 12.3502 26.7341 12.3421 26.7237 12.3316C26.7134 12.3212 26.705 12.3086 26.6991 12.2946C26.6932 12.2806 26.6898 12.2655 26.6893 12.2501V10.8437Z" fill="white"/>
<path d="M24.3843 14.5427H2.13377V21.0451H24.3843V14.5427Z" fill="#263238"/>
<path d="M44.9518 14.5427H24.3841V21.0451H44.9518V14.5427Z" fill="#263238"/>
<path d="M24.3843 15.2176H2.13377V20.3698H24.3843V15.2176Z" fill="white"/>
<path d="M4.06958 16.2773C6.39924 16.2335 8.7289 16.2116 11.0586 16.2116L14.2225 16.1882L21.2158 16.2116C23.5468 16.2116 22.0486 16.2491 24.3797 16.2866C22.0486 16.3241 23.5468 16.3476 21.2158 16.3616L14.2225 16.3851L11.0586 16.3523C8.7289 16.3398 6.39924 16.3148 4.06958 16.2773Z" fill="#DBDBDB"/>
<path d="M4.06958 17.285C6.39924 17.2538 8.73033 17.2287 11.0628 17.21L14.2268 17.1865L21.22 17.21C23.5511 17.21 22.0529 17.2522 24.384 17.285C22.0529 17.3225 23.5511 17.3506 21.22 17.36L14.2268 17.3835L11.0586 17.36C8.7289 17.3506 6.39924 17.3256 4.06958 17.285Z" fill="#DBDBDB"/>
<path d="M4.06958 18.2979C6.39924 18.2604 8.73033 18.2353 11.0628 18.2228L14.2268 18.1994L21.22 18.2228C23.5511 18.2228 22.0529 18.2604 24.384 18.2979C22.0529 18.3354 23.5511 18.3588 21.22 18.3729L14.2268 18.3963L11.0586 18.3729C8.7289 18.3572 6.39924 18.3322 4.06958 18.2979Z" fill="#DBDBDB"/>
<path d="M4.06958 19.3104C6.39924 19.2729 8.73033 19.2463 11.0628 19.2307H14.2268H21.22C23.5511 19.2307 22.0529 19.2729 24.384 19.3104C22.0529 19.3432 23.5511 19.3713 21.22 19.3854H14.2268H11.0628C8.73033 19.3729 6.39924 19.3479 4.06958 19.3104Z" fill="#DBDBDB"/>
<path d="M31.8324 14.5427H28.939V21.0451H31.8324V14.5427Z" fill="#455A64"/>
<path d="M43.8872 14.5427H41.9425V21.0451H43.8872V14.5427Z" fill="#455A64"/>
<path d="M19.0264 29.9759L44.0846 29.9759V21.0403L19.0264 21.0403V29.9759Z" fill="#FFC727"/>
<path d="M7.4831e-05 29.9759L19.0266 29.9759V21.0403H7.4831e-05V29.9759Z" fill="#FFC727"/>
<path d="M19.0264 29.0475L44.0846 29.0475V21.9685L19.0264 21.9685V29.0475Z" fill="white"/>
<path d="M42.4618 27.5943C40.5071 27.6286 38.5538 27.6537 36.6019 27.6693L30.742 27.6927L24.8821 27.6693C22.9273 27.6693 20.974 27.6443 19.0222 27.5943C20.9769 27.5568 22.9302 27.5318 24.8821 27.5193L30.742 27.4958L36.6019 27.5193C38.5567 27.5286 40.51 27.5536 42.4618 27.5943Z" fill="#DBDBDB"/>
<path d="M42.4618 26.2019C40.5071 26.2394 38.5538 26.2644 36.6019 26.2769H30.742H24.8821C22.9273 26.2769 20.974 26.2519 19.0222 26.2019C20.9769 26.1706 22.9302 26.1456 24.8821 26.1268H30.742H36.6019C38.5567 26.1425 40.51 26.1675 42.4618 26.2019Z" fill="#DBDBDB"/>
<path d="M42.4618 24.8143C40.5071 24.8518 38.5538 24.8768 36.6019 24.8893L30.742 24.9128L24.8821 24.8893C22.9273 24.8893 20.974 24.8643 19.0222 24.8143C20.9769 24.7768 22.9302 24.7518 24.8821 24.7393L30.742 24.7159L36.6019 24.7393C38.5567 24.7549 40.51 24.7799 42.4618 24.8143Z" fill="#DBDBDB"/>
<path d="M42.4618 23.4265C40.5071 23.464 38.5538 23.489 36.6019 23.5015L30.742 23.5249L24.8821 23.5015C22.9273 23.5015 20.974 23.4765 19.0222 23.4265C20.9769 23.389 22.9302 23.364 24.8821 23.3514L30.742 23.328L36.6019 23.3514C38.5567 23.3671 40.51 23.3921 42.4618 23.4265Z" fill="#DBDBDB"/>
<path d="M6.58945 21.0402H3.02627V29.9758H6.58945V21.0402Z" fill="#455A64"/>
</svg>
