<svg width="56" height="80" viewBox="0 0 56 80" fill="none" xmlns="http://www.w3.org/2000/svg">
<path d="M48.3845 34.3219C48.3845 34.3219 36.6935 48.4363 34.6782 51.3714C33.1789 53.5584 32.0073 55.174 31.4368 56.9818C30.8662 58.7896 30.8904 61.7039 31.0422 63.1844C31.0422 63.1844 31.6917 67.1897 30.8965 67.0806C30.1013 66.9715 24.1708 64.1247 22.2284 61.9896C20.2859 59.8545 21.5 57.9013 23.3696 54.1142C25.2392 50.3272 28.4806 45.1012 28.4806 45.1012C28.7381 44.9948 28.9771 44.8585 29.1908 44.696C30.3016 43.9531 35.6433 32.2596 36.8088 29.5842L48.3845 34.3219Z" fill="#F0997A"/>
<path d="M32.3047 39.2467L36.7359 48.6545C38.1806 46.8104 40.1109 44.4208 41.9805 42.1194C41.9805 39.3194 42.0108 35.8025 41.9198 33.2415C41.9198 32.6596 41.8651 32.1298 41.8287 31.6363L36.8087 29.5583C36.1289 31.1116 34.1257 35.5584 32.3047 39.2467Z" fill="#B16668"/>
<path d="M23.157 48.1195C22.6167 48.9558 22.55 50.2857 21.7973 51.6416C20.942 53.1919 19.909 54.6658 18.7136 56.0416L17.0626 57.9741L17.6696 58.3585L20.7046 54.8416C21.6212 53.7714 22.5803 53.1377 23.2784 53.3974C23.2602 53.3974 26.1192 49.9792 23.157 48.1195Z" fill="#FA00FF"/>
<path opacity="0.3" d="M23.157 48.1195C22.6167 48.9558 22.55 50.2857 21.7973 51.6416C20.942 53.1919 19.909 54.6658 18.7136 56.0416L17.0626 57.9741L17.6696 58.3585L20.7046 54.8416C21.6212 53.7714 22.5803 53.1377 23.2784 53.3974C23.2602 53.3974 26.1192 49.9792 23.157 48.1195Z" fill="black"/>
<path d="M28.942 44.717C27.7948 45.3767 26.0284 45.6572 24.3894 46.7274C23.7075 47.1853 23.2089 47.8135 22.9629 48.5248C23.0783 49.2572 23.2725 49.6105 23.3818 50.1352C23.6536 50.9829 23.6786 51.8747 23.4546 52.7326C22.9113 54.5032 22.2237 56.2391 21.3968 57.9274C20.6077 59.595 20.0432 60.5508 20.893 62.1301C21.5547 63.3612 24.4805 66.0729 26.7021 67.6106C29.7372 69.6886 32.2199 69.1171 31.8921 67.3561C31.5643 65.595 31.2244 63.6521 31.0423 63.2002C30.1261 62.4888 29.0088 61.9946 27.8008 61.7664C25.482 61.3456 24.1891 61.8859 22.9811 59.9586C21.8885 58.2132 23.1147 54.8105 26.4411 51.0495C30.2167 46.7689 28.942 44.717 28.942 44.717Z" fill="#FA00FF"/>
<path opacity="0.15" d="M28.942 44.717C27.7948 45.3767 26.0284 45.6572 24.3894 46.7274C23.7075 47.1853 23.2089 47.8135 22.9629 48.5248C23.0783 49.2572 23.2725 49.6105 23.3818 50.1352C23.6536 50.9829 23.6786 51.8747 23.4546 52.7326C22.9113 54.5032 22.2237 56.2391 21.3968 57.9274C20.6077 59.595 20.0432 60.5508 20.893 62.1301C21.5547 63.3612 24.4805 66.0729 26.7021 67.6106C29.7372 69.6886 32.2199 69.1171 31.8921 67.3561C31.5643 65.595 31.2244 63.6521 31.0423 63.2002C30.1261 62.4888 29.0088 61.9946 27.8008 61.7664C25.482 61.3456 24.1891 61.8859 22.9811 59.9586C21.8885 58.2132 23.1147 54.8105 26.4411 51.0495C30.2167 46.7689 28.942 44.717 28.942 44.717Z" fill="black"/>
<path d="M45.5315 10.7637C38.654 5.09615 31.5156 0 31.5156 0L20.5893 10.7377L28.6444 17.7664L39.3885 24.8625C39.3885 24.8625 38.217 25.621 36.7298 29.0755C36.3413 29.969 34.0772 34.9509 33.7312 35.7873C35.4429 38.1665 39.3885 40.6133 43.413 40.3587C43.413 40.3587 47.7956 35.2782 52.9553 29.1742C57.4654 23.8443 55.79 20.956 55.1708 20.1352C53.5198 17.9378 52.3665 16.4001 45.5315 10.7637Z" fill="#455A64"/>
<path d="M39.3947 24.8621C39.3947 24.8621 38.2232 25.6206 36.736 29.0752C36.3475 29.9687 34.0833 34.9505 33.7373 35.7869C35.2488 37.8648 38.4903 40.0311 41.9927 40.3376C41.9927 37.9272 41.9927 35.283 41.9199 33.2414C41.7438 28.3063 40.8151 26.9972 39.3947 24.8621Z" fill="#37474F"/>
<path d="M39.3946 24.8621C38.7512 24.0881 29.0754 11.5373 29.0754 11.5373L26.3377 12.8724L28.6747 17.7659L39.3946 24.8621Z" fill="#37474F"/>
<path d="M40.3781 44.5245C40.5177 54.2025 40.633 60.4 41.0822 62.9039C41.4286 65.1922 42.0386 67.4456 42.9032 69.6312C43.7446 71.3274 44.9075 72.8931 46.345 74.265C46.345 74.265 49.6289 77.1689 48.9187 77.4858C48.2085 77.8027 41.4525 78.5248 38.4053 77.7663C35.3581 77.0079 34.9939 74.8312 33.8891 70.8312C32.7843 66.8312 31.7767 60.961 31.7767 60.961C31.9132 60.7474 32.0134 60.5183 32.0741 60.2805C32.4566 59.1168 30.7387 54.5662 29.8343 51.7973L40.3781 44.5245Z" fill="#FFBDA7"/>
<path d="M29.5427 66.1302C29.6823 67.0756 30.5564 68.177 30.8781 69.6575C31.2613 71.3397 31.4483 73.0502 31.4366 74.764V77.1588H32.1954V72.7796C32.1954 71.4497 32.5292 70.4523 33.2698 70.3068C33.2698 70.2861 33.2151 66.1302 29.5427 66.1302Z" fill="#FA00FF"/>
<path opacity="0.3" d="M29.5427 66.1302C29.6823 67.0756 30.5564 68.177 30.8781 69.6575C31.2613 71.3397 31.4483 73.0502 31.4366 74.764V77.1588H32.1954V72.7796C32.1954 71.4497 32.5292 70.4523 33.2698 70.3068C33.2698 70.2861 33.2151 66.1302 29.5427 66.1302Z" fill="black"/>
<path d="M31.8797 60.4157C31.4062 61.5326 30.174 62.6495 29.5913 64.343C29.358 65.0557 29.3899 65.8128 29.6823 66.5093C30.2893 67.0288 30.6839 67.2314 31.1331 67.6002C31.9429 68.1512 32.581 68.865 32.9905 69.6781C33.7661 71.3702 34.4049 73.1059 34.9026 74.873C35.4186 76.6184 35.625 77.673 37.4035 78.5093C38.7875 79.1691 43.0184 79.8756 45.9017 79.9899C49.7926 80.1457 51.3648 78.4314 49.914 77.1587C48.4633 75.886 46.8122 74.5093 46.363 74.2392C45.1305 74.1283 43.8855 74.2948 42.7513 74.7223C40.5964 75.5587 39.9226 76.6496 37.616 75.7041C35.5278 74.8522 34.1742 71.4859 34.2531 66.769C34.3077 61.4547 31.8797 60.4157 31.8797 60.4157Z" fill="#FA00FF"/>
<path d="M24.7961 33.8236C26.2286 35.5015 26.2711 35.5015 26.2711 38.1249C26.2371 40.0223 26.3955 41.9186 26.7446 43.7925C27.2848 46.5354 29.288 50.6185 31.1151 56.1198C33.8163 57.2575 38.6178 56.4419 40.6877 54.7484C40.6877 54.7484 40.6452 34.6496 40.3781 30.9093C40.2085 28.4598 39.2482 26.0987 37.6041 24.0885C33.1729 18.1352 26.6171 11.1897 26.6171 11.1897C27.507 8.18057 28.5994 5.21804 29.8889 2.31688L1.5293 0.987003C0.212088 5.59483 -0.613451 6.98704 0.570224 11.4858C1.69927 15.7715 4.97713 19.2105 12.1399 24.0573C17.9247 27.969 23.7156 32.5664 24.784 33.8236" fill="#455A64"/>
<path d="M31.9952 7.55807C30.9591 9.39139 29.1601 10.8273 26.9509 11.5841L27.8068 12.4672C27.8068 12.4672 31.115 11.3347 31.9952 7.55807Z" fill="#37474F"/>
</svg>
