<svg width="5" height="9" viewBox="0 0 5 9" fill="none" xmlns="http://www.w3.org/2000/svg">
<path d="M3.488 1.29545C3.44954 1.08777 3.37282 0.890213 3.26226 0.714162C3.15169 0.538112 3.00946 0.38704 2.84375 0.26963C2.67804 0.15222 2.49212 0.0707971 2.29668 0.0300418C2.10125 -0.0107136 1.90016 -0.00999504 1.70498 0.0321568C1.31552 0.145356 0.961992 0.368074 0.681619 0.676855C0.401246 0.985635 0.204406 1.36905 0.11183 1.78673C-0.0655946 2.6205 -0.0314077 3.4894 0.210888 4.30453C0.544933 5.5757 1.10538 6.76695 1.86182 7.81367C2.38187 8.53304 3.20733 9.24365 3.99978 8.91906C4.79223 8.59446 4.96558 7.38381 4.88303 6.43634C4.68848 4.29087 4.10546 2.2056 3.16606 0.295345" fill="#FF725E"/>
</svg>
