<svg width="45" height="67" viewBox="0 0 45 67" fill="none" xmlns="http://www.w3.org/2000/svg">
<path d="M10.3514 29.2398C10.2439 26.6857 8.04967 22.0849 7.14617 17.5622C6.68582 15.2509 6.41047 13.1955 7.89048 11.3656C9.14247 9.81758 10.9021 8.76387 12.6231 7.78387C15.3723 6.2098 18.2764 4.66176 21.43 4.48831C23.4865 4.37557 25.7065 4.95662 27.0231 6.55237C28.103 7.85325 28.4084 9.63979 28.6192 11.3223C28.9755 14.1346 29.1752 16.9648 29.2173 19.7997C29.2948 21.2731 29.1498 22.7498 28.787 24.1793C28.6023 24.8932 28.279 25.5631 27.8359 26.1503C27.3929 26.7375 26.8388 27.2305 26.2056 27.6006C25.087 28.186 23.7533 28.2381 22.6347 28.8235C21.516 29.4089 20.69 30.9916 21.5203 31.9282L14.1203 33.9663L10.3514 29.2398Z" fill="#A36957"/>
<path d="M8.80714 25.5149C9.18769 26.3151 9.72445 27.0298 10.3853 27.6162C11.0462 28.2025 11.8176 28.6485 12.6534 28.9275C13.4959 29.1913 14.3929 29.2239 15.252 29.0219C16.1111 28.8199 16.9012 28.3907 17.5409 27.7784C18.268 27.0282 18.6983 26.0439 19.193 25.1203C19.6878 24.1967 20.2987 23.2687 21.2323 22.796C22.166 22.3234 23.4954 22.4708 24.0117 23.3858C24.1838 23.672 24.2913 24.0362 24.5882 24.188C24.7862 24.2561 25.0029 24.2428 25.1913 24.1511C25.3797 24.0594 25.5247 23.8966 25.5949 23.698C25.719 23.2939 25.7295 22.8631 25.625 22.4535C25.3034 20.9131 25.1348 19.3443 25.1217 17.7703C25.1819 16.2006 25.6337 14.5831 26.7049 13.434C27.5267 12.5668 28.641 12.0204 29.6219 11.3309C30.6029 10.6415 31.5236 9.65713 31.6053 8.45165C31.6785 7.37625 31.0546 6.35722 30.263 5.62873C28.542 4.04165 21.7486 2.81883 19.5802 3.70776C19.5802 3.70776 10.4679 7.70147 10.0204 8.02236C9.57296 8.34324 6.28596 9.50969 6.3634 13.5554C6.44085 17.6012 8.80714 25.5149 8.80714 25.5149Z" fill="#263238"/>
<path d="M10.3514 29.2398C10.2439 26.6857 8.04967 22.0849 7.14617 17.5622C6.68582 15.2509 6.41047 13.1955 7.89048 11.3656C9.14247 9.81758 10.9021 8.76387 12.6231 7.78387C15.3723 6.2098 18.2764 4.66176 21.43 4.48831C23.4865 4.37557 25.7065 4.95662 27.0231 6.55237C28.103 7.85325 28.4084 9.63979 28.6192 11.3223C28.9755 14.1346 29.1752 16.9648 29.2173 19.7997C29.2948 21.2731 29.1498 22.7498 28.787 24.1793C28.6023 24.8932 28.279 25.5631 27.8359 26.1503C27.3929 26.7375 26.8388 27.2305 26.2056 27.6006C25.087 28.186 23.7533 28.2381 22.6347 28.8235C21.516 29.4089 20.69 30.9916 21.5203 31.9282L14.1203 33.9663L10.3514 29.2398Z" fill="#A36957"/>
<path d="M31.7561 5.37721C31.6491 5.26826 31.521 5.1828 31.3797 5.12622C31.2384 5.06964 31.087 5.04317 30.935 5.04846C30.783 5.05376 30.6338 5.09071 30.4967 5.15699C30.3596 5.22327 30.2376 5.31745 30.1384 5.43359C30.4322 5.03855 30.5583 4.54205 30.4889 4.05331C30.4195 3.56457 30.1603 3.12362 29.7684 2.82748C29.3764 2.53135 28.8838 2.40427 28.3989 2.47421C27.914 2.54414 27.4765 2.80537 27.1827 3.20041C27.3659 2.79832 27.4033 2.3442 27.2886 1.91713C27.1738 1.49006 26.914 1.11708 26.5545 0.863153C26.1872 0.621728 25.7716 0.465061 25.3372 0.404343C24.9029 0.343625 24.4606 0.380357 24.0419 0.511916C23.2053 0.780988 22.4209 1.19317 21.723 1.73041C21.7146 1.4369 21.6274 1.15119 21.4705 0.903752C21.3137 0.656317 21.0931 0.456449 20.8324 0.325459C20.3076 0.0679556 19.7229 -0.0400088 19.1416 0.0132471C18.0108 0.0739063 16.9131 0.419229 15.9488 1.01765C14.9845 1.61607 14.1844 2.44851 13.6216 3.4389C13.0505 3.20739 12.425 3.14773 11.821 3.26713C11.2169 3.38654 10.6601 3.6799 10.218 4.11168C9.77596 4.54346 9.46757 5.09515 9.33021 5.69995C9.19284 6.30475 9.23238 6.93672 9.44405 7.51933C8.84111 7.64502 8.30027 7.97802 7.91412 8.46136C7.52797 8.94469 7.32052 9.54828 7.32729 10.1688C6.642 11.1618 6.30304 12.356 6.36357 13.5641C6.45822 17.6185 8.8073 25.5235 8.8073 25.5235C9.18785 26.3238 9.72462 27.0384 10.3855 27.6248C11.0464 28.2112 11.8178 28.6572 12.6536 28.9362C13.4961 29.1999 14.3931 29.2325 15.2522 29.0305C16.1113 28.8285 16.9014 28.3993 17.5411 27.7871C18.2682 27.0369 18.6984 26.0526 19.1932 25.1289C19.688 24.2053 20.3032 23.2773 21.2325 22.8047C22.1618 22.332 23.2331 22.6573 24.2442 22.9521C25.152 23.2166 25.152 22.6226 25.2079 21.9244L25.1304 17.7659C25.1907 16.1962 25.6424 14.5788 26.7137 13.4297C27.5355 12.5624 28.6498 12.016 29.6307 11.3266C30.6116 10.6371 31.5324 9.65277 31.6141 8.44729C31.6249 8.27197 31.6163 8.09598 31.5883 7.9226C31.787 7.68355 31.9441 7.41231 32.0529 7.12039C32.1689 6.8307 32.2025 6.51419 32.1501 6.20632C32.0977 5.89844 31.9612 5.61136 31.7561 5.37721Z" fill="#263238"/>
<path d="M19.5586 12.2199C19.5497 12.3699 19.5132 12.517 19.451 12.6535C19.2546 13.1478 18.9172 13.5722 18.4814 13.8732C18.0457 14.1742 17.5312 14.3383 17.003 14.3447C16.6031 14.3481 16.2073 14.2641 15.8426 14.0987C15.478 13.9333 15.1532 13.6903 14.8905 13.3864H15.0669C14.8811 13.6622 14.6531 13.9066 14.3915 14.1105C14.0283 14.3913 13.6118 14.5939 13.1677 14.7058C12.7237 14.8177 12.2616 14.8364 11.81 14.761C11.0786 14.6193 10.4212 14.2196 9.95574 13.6336C9.64164 13.2503 9.42329 12.7968 9.31899 12.311C9.28984 12.1798 9.27255 12.0463 9.26736 11.912C9.26736 11.821 9.26736 11.7733 9.26736 11.7733C9.26736 11.7733 9.30178 11.9597 9.39213 12.2893C9.52783 12.7474 9.75801 13.1715 10.0676 13.5338C10.5333 14.0773 11.175 14.4369 11.8789 14.5485C12.2988 14.6106 12.7268 14.5873 13.1376 14.4801C13.5484 14.3729 13.9338 14.1838 14.271 13.9241C14.5117 13.7347 14.7208 13.5078 14.8905 13.252L14.9723 13.1305L15.0669 13.2433C15.3076 13.5231 15.6039 13.7488 15.9367 13.9056C16.2695 14.0625 16.6314 14.1471 16.9987 14.1539C17.5978 14.1631 18.18 13.9537 18.6379 13.5642C18.9471 13.3089 19.198 12.9894 19.3736 12.6275C19.5027 12.3674 19.5414 12.2156 19.5586 12.2199Z" fill="#455A64"/>
<path d="M25.4746 9.47507C25.5432 9.58348 25.5862 9.70629 25.6004 9.83408C25.6146 9.96187 25.5995 10.0912 25.5563 10.2122C25.4916 10.4852 25.3548 10.7354 25.1605 10.9364C24.9217 11.1726 24.6246 11.3402 24.3 11.4221C23.7075 11.5473 23.0911 11.4837 22.5361 11.2399C22.3022 11.168 22.0855 11.0485 21.8993 10.8887C22.1353 10.9299 22.3661 10.9968 22.5877 11.0882C23.1204 11.2717 23.6917 11.3106 24.2441 11.2009C24.5395 11.1279 24.8109 10.9784 25.0314 10.7673C25.2118 10.5989 25.3465 10.387 25.4229 10.1515C25.472 9.92967 25.4894 9.70189 25.4746 9.47507Z" fill="#455A64"/>
<path d="M29.6909 7.99208C29.7302 8.24118 29.6895 8.49641 29.5748 8.72057C29.3536 9.29519 28.9189 9.76025 28.363 10.0169C27.807 10.2736 27.1737 10.3017 26.5975 10.0952C26.3549 10.0349 26.1369 9.89999 25.9737 9.70924C25.9737 9.67455 26.2232 9.835 26.6406 9.9434C27.182 10.0832 27.7541 10.0375 28.2669 9.81332C28.7722 9.56998 29.1814 9.1621 29.4285 8.65553C29.6221 8.2696 29.6565 7.98774 29.6909 7.99208Z" fill="#455A64"/>
<path d="M24.5708 5.07803C24.1786 4.81737 23.7405 4.63485 23.2801 4.54034C22.7352 4.43744 22.1717 4.51847 21.6771 4.77089C21.1824 5.0233 20.7841 5.43302 20.5438 5.93662C20.3887 6.24303 20.2966 6.57781 20.2728 6.92095L20.0534 6.90794C20.0489 6.67918 19.9644 6.45935 19.8149 6.28721C19.6653 6.11506 19.4603 6.00165 19.2359 5.96696C18.8615 5.90463 18.4775 5.98668 18.1603 6.19678C17.8733 6.4089 17.5975 6.63615 17.3343 6.87758C17.3343 6.87758 17.3773 6.77784 17.4978 6.63041C17.6661 6.41999 17.8631 6.2346 18.0829 6.07971C18.2526 5.95244 18.4458 5.86044 18.6511 5.80908C18.8564 5.75771 19.0698 5.748 19.2789 5.78051C19.5339 5.83061 19.7695 5.95238 19.9587 6.13174C20.0669 6.23259 20.1513 6.35663 20.2057 6.49472C20.2601 6.6328 20.283 6.78141 20.2728 6.92961L20.0534 6.90794C20.0885 6.38588 20.2685 5.88426 20.5727 5.46029C20.877 5.03631 21.2933 4.70704 21.7743 4.50998C22.2723 4.31188 22.8176 4.26809 23.3404 4.38423C23.6901 4.4574 24.0202 4.60527 24.3084 4.81785C24.4934 4.96095 24.5794 5.06936 24.5708 5.07803Z" fill="#455A64"/>
<path d="M20.531 1.93419C20.531 1.96888 20.3288 1.97754 20.0276 2.07728C19.6384 2.20309 19.2953 2.44318 19.0424 2.76676C18.787 3.09384 18.6369 3.49174 18.6121 3.90719C18.6231 4.08336 18.6231 4.26004 18.6121 4.43621C18.5906 4.43621 18.483 4.25409 18.4615 3.90719C18.4327 3.44813 18.5698 2.99408 18.8474 2.62899C19.125 2.26389 19.5244 2.01247 19.9717 1.92118C20.3245 1.85613 20.5353 1.90817 20.531 1.93419Z" fill="#455A64"/>
<path d="M12.1585 6.99909C12.137 6.99909 12.2059 6.67388 12.5888 6.37034C12.8231 6.19611 13.0965 6.0829 13.3847 6.04078C13.7319 5.99316 14.0854 6.0273 14.4173 6.14052C14.9996 6.35885 15.5217 6.71415 15.9403 7.17688C16.2673 7.51945 16.4394 7.74927 16.4179 7.77095C16.2055 7.63484 16.0092 7.47482 15.8328 7.29397C15.4041 6.88618 14.8996 6.56785 14.3484 6.35733C14.0488 6.25312 13.7302 6.21612 13.4148 6.24893C13.1586 6.27862 12.9119 6.36446 12.692 6.50042C12.3091 6.73892 12.193 7.02077 12.1585 6.99909Z" fill="#455A64"/>
<path d="M16.5128 10.4811C16.3366 10.0985 16.2987 9.66588 16.4055 9.25807C16.5124 8.85026 16.7573 8.49292 17.098 8.24791C16.913 8.59059 16.7548 8.94723 16.6247 9.31462C16.5609 9.7004 16.5235 10.0901 16.5128 10.4811Z" fill="#455A64"/>
<path d="M40.649 27.2234L34.4106 29.2658L35.6066 40.8263L35.1764 41.6936L30.5427 49.3558C30.461 49.4902 35.2452 50.6219 37.0479 51.0122C39.298 51.4979 45.2224 51.0122 44.3619 43.5018C43.7165 38.1985 40.649 27.2234 40.649 27.2234Z" fill="#A36957"/>
<path d="M33.9243 18.9281C33.4307 19.1746 33.011 19.5491 32.7085 20.0133C32.4061 20.4774 32.2317 21.0143 32.2034 21.5689C32.1893 21.7188 32.2192 21.8696 32.2894 22.0025C32.3775 22.1139 32.5015 22.1906 32.6399 22.2191C32.7784 22.2476 32.9223 22.2262 33.0467 22.1586C33.2932 22.0182 33.5016 21.8186 33.6533 21.5775" fill="#A36957"/>
<path d="M33.666 21.5862C33.666 21.5862 33.666 21.6643 33.5714 21.7813C33.4623 21.9568 33.3152 22.105 33.1411 22.215C33.0115 22.2937 32.8621 22.3328 32.7109 22.3277C32.6189 22.3291 32.5278 22.3096 32.4444 22.2705C32.3609 22.2315 32.2873 22.174 32.229 22.1022C32.1225 21.9383 32.0768 21.7418 32.1 21.5472C32.107 21.3557 32.1329 21.1654 32.1774 20.9791C32.3303 20.3257 32.6915 19.7408 33.2057 19.314C33.4024 19.1218 33.6481 18.9882 33.9156 18.9281C33.9156 18.9628 33.6574 19.0972 33.3089 19.4311C32.86 19.8668 32.5424 20.4215 32.3925 21.0312C32.3537 21.2037 32.3293 21.3792 32.3194 21.5559C32.2965 21.7051 32.3237 21.8577 32.3968 21.9895C32.483 22.0756 32.5944 22.1315 32.7146 22.1486C32.8347 22.1658 32.9572 22.1435 33.0637 22.0849C33.2256 21.9929 33.371 21.8742 33.4939 21.7337C33.5972 21.6513 33.6574 21.5732 33.666 21.5862Z" fill="#7C3B29"/>
<path d="M37.5814 18.9541C37.5814 18.9541 34.5095 20.19 34.1395 21.1873C33.7695 22.1846 33.0725 25.9052 33.0725 25.9052L34.4363 29.5043L40.5457 28.2728C40.5457 28.2728 41.4836 20.9358 41.5481 20.719C41.5481 20.719 43.6993 14.5745 43.6735 14.0108C43.6735 13.2519 43.0755 13.0004 42.3355 13.8894C41.5955 14.7783 39.952 18.1649 39.952 18.1649L37.5814 18.9541Z" fill="#A36957"/>
<path d="M37.0093 17.4798C36.3892 17.3953 35.758 17.4791 35.1808 17.7227C34.6559 18.0262 34.2584 18.5116 34.0622 19.0886C33.8727 19.6618 33.7514 20.2557 33.7008 20.8578C33.6448 21.2914 33.6276 21.8508 33.989 22.124C34.0791 22.1884 34.1837 22.2293 34.2933 22.2429C34.403 22.2565 34.5142 22.2425 34.6172 22.202C34.7189 22.1572 34.8078 22.0872 34.8755 21.9985C34.9432 21.9098 34.9875 21.8053 35.0044 21.6947" fill="#A36957"/>
<path d="M35.0044 21.6947C35.0044 21.6947 35.0345 21.8247 34.914 22.0155C34.8401 22.1316 34.7317 22.2211 34.6042 22.2714C34.4316 22.3407 34.2391 22.3407 34.0664 22.2714C33.9632 22.2245 33.8713 22.1557 33.797 22.0696C33.7228 21.9835 33.6679 21.8822 33.6362 21.7727C33.5706 21.5359 33.5501 21.2887 33.576 21.0442C33.6135 20.5075 33.697 19.975 33.8255 19.4528C33.9573 18.9138 34.229 18.4199 34.6128 18.0218C34.9379 17.7042 35.3557 17.5005 35.8046 17.4408C36.0904 17.4058 36.3793 17.4058 36.6651 17.4408C36.7738 17.4391 36.8818 17.4583 36.9834 17.4972C36.9834 17.5449 36.5188 17.4971 35.8089 17.6099C35.4017 17.6818 35.0271 17.8805 34.7376 18.1779C34.3899 18.5575 34.1441 19.0202 34.0234 19.5222C33.8972 20.031 33.808 20.5484 33.7567 21.0702C33.7281 21.2888 33.7397 21.5108 33.7911 21.725C33.8121 21.812 33.8514 21.8934 33.9063 21.9637C33.9612 22.034 34.0305 22.0916 34.1095 22.1326C34.2273 22.1923 34.3618 22.2098 34.4908 22.1822C34.6198 22.1546 34.7357 22.0836 34.8194 21.9809C34.8891 21.891 34.951 21.7952 35.0044 21.6947Z" fill="#7C3B29"/>
<path d="M39.8442 18.0782C39.4875 17.6413 39.0143 17.3163 38.4803 17.1415C38.1807 17.0949 37.8745 17.1196 37.5861 17.2137C37.2977 17.3078 37.0352 17.4688 36.8196 17.6836C36.3926 18.1173 36.0497 18.6277 35.8086 19.1883C35.5891 19.6436 35.3783 20.1076 35.1933 20.5802C35.0805 20.8292 35.0051 21.0937 34.9696 21.3651C34.9516 21.5007 34.9609 21.6386 34.9972 21.7706C35.0334 21.9025 35.0957 22.0256 35.1804 22.1326C35.3255 22.279 35.5137 22.3742 35.7168 22.4039C35.92 22.4336 36.1273 22.3962 36.3076 22.2974C36.6668 22.091 36.9344 21.7546 37.0562 21.3564" fill="#A36957"/>
<path d="M37.0652 21.3564C37.0475 21.503 36.9976 21.6438 36.9189 21.7684C36.8296 21.9545 36.6975 22.1165 36.5336 22.2409C36.3698 22.3654 36.1788 22.4487 35.9767 22.4839C35.8308 22.5067 35.6816 22.4964 35.5402 22.4537C35.3987 22.4109 35.2686 22.3368 35.1592 22.2367C35.0436 22.1106 34.9586 21.9593 34.9108 21.7945C34.863 21.6297 34.8538 21.456 34.8839 21.287C34.9438 20.9403 35.054 20.6042 35.2109 20.2897C35.3571 19.9601 35.5077 19.6219 35.6411 19.2707C35.9084 18.5909 36.3298 17.9835 36.8716 17.4971C37.1046 17.2944 37.3826 17.1511 37.6821 17.0794C37.9817 17.0077 38.2939 17.0097 38.5925 17.0852C38.9712 17.2193 39.3111 17.4458 39.5821 17.7443C39.7757 17.9481 39.8703 18.0695 39.8574 18.0782C39.7368 18.0003 39.6243 17.9102 39.5218 17.8094C39.243 17.5503 38.9111 17.3564 38.5495 17.2413C38.279 17.188 37.9999 17.1994 37.7346 17.2747C37.4693 17.3501 37.2253 17.4871 37.0221 17.6749C36.5146 18.1502 36.1192 18.7339 35.8648 19.3834L35.4346 20.3851C35.2833 20.6837 35.1733 21.0018 35.1076 21.3304C35.0814 21.4682 35.086 21.61 35.121 21.7458C35.1559 21.8815 35.2204 22.0078 35.3098 22.1153C35.3987 22.1996 35.5049 22.2631 35.6209 22.3013C35.7369 22.3396 35.8599 22.3515 35.981 22.3364C36.1636 22.3078 36.3377 22.239 36.4909 22.1348C36.6441 22.0306 36.7726 21.8937 36.8673 21.7337C36.9963 21.4952 37.048 21.3477 37.0652 21.3564Z" fill="#7C3B29"/>
<path d="M37.6932 23.698L37.2931 21.5862C36.5201 21.4617 35.7899 21.1458 35.1677 20.667C34.9569 20.1076 35.2495 19.7563 36.0282 19.5395C36.8069 19.3227 39.2378 19.6783 39.5045 19.8257C40.4381 20.3331 40.55 21.6513 40.6834 22.7137" fill="#A36957"/>
<path d="M40.6744 22.7137C40.6224 22.5515 40.5864 22.3844 40.5669 22.2151C40.5032 21.7627 40.3936 21.318 40.2399 20.8882C40.1354 20.5999 39.9677 20.339 39.7494 20.125C39.6277 20.0091 39.4802 19.9243 39.3192 19.8778C39.1514 19.8345 38.9707 19.7998 38.7814 19.7694C37.9691 19.6271 37.1444 19.5704 36.3204 19.6003C36.0133 19.632 35.7182 19.7376 35.46 19.9082C35.3456 19.9823 35.2628 20.0967 35.2276 20.2291C35.206 20.3635 35.2209 20.5014 35.2707 20.628L35.2362 20.5803C35.8435 21.0514 36.5551 21.3669 37.31 21.4996H37.3702V21.556C37.4735 22.1717 37.5595 22.692 37.6284 23.1083C37.6709 23.2975 37.6911 23.4911 37.6886 23.6851C37.62 23.5041 37.5696 23.3167 37.538 23.1257C37.4477 22.7137 37.3358 22.1977 37.2067 21.5863L37.2756 21.6557C36.4834 21.5387 35.7332 21.2226 35.0943 20.7364V20.706C35.0274 20.5414 35.008 20.361 35.0383 20.1857C35.0885 20.0081 35.1999 19.8543 35.3524 19.7521C35.6463 19.5495 35.9872 19.4271 36.3419 19.3965C37.1839 19.366 38.0266 19.43 38.8545 19.5873C39.0431 19.6169 39.2299 19.6575 39.4138 19.7087C39.5957 19.7684 39.7609 19.871 39.8957 20.0079C40.1281 20.2458 40.3046 20.5333 40.412 20.8491C40.5543 21.295 40.6424 21.7565 40.6744 22.2237C40.6944 22.3865 40.6944 22.551 40.6744 22.7137Z" fill="#7C3B29"/>
<path d="M37.0608 22.9522C36.8722 22.9908 36.6809 23.014 36.4886 23.0216C36.0392 23.0831 35.6104 23.2501 35.2367 23.5092C34.8631 23.7683 34.555 24.1122 34.3374 24.5133C34.1653 24.8212 34.1008 25.038 34.0664 25.0293C34.032 25.0206 34.0664 24.7908 34.1954 24.4439C34.3872 23.9912 34.7024 23.6025 35.1045 23.3231C35.5066 23.0437 35.9791 22.8851 36.4671 22.8655C36.8328 22.8612 37.0694 22.9522 37.0608 22.9522Z" fill="#7C3B29"/>
<path d="M39.358 42.7429C38.695 42.5171 38.0469 42.2492 37.4176 41.9407C36.7594 41.702 36.117 41.421 35.4945 41.0995C36.1912 41.2109 36.8681 41.4242 37.5037 41.7325C38.1685 41.9738 38.7936 42.3144 39.358 42.7429Z" fill="#7C3B29"/>
<path d="M18.3323 30.493C18.7282 30.3585 24.9106 31.4816 26.709 32.2882C27.7244 32.7435 36.3334 39.7813 36.3334 39.7813L30.0089 50.236L25.8615 48.714L25.8141 67L0 66.9307L0.559306 37.7259C0.559306 37.7259 2.41362 30.0723 5.56725 29.1444C8.72088 28.2164 18.3323 30.493 18.3323 30.493Z" fill="#FFC727"/>
<path d="M25.2939 48.9698C25.2226 48.9694 25.1517 48.9592 25.0831 48.9394C24.8811 48.9035 24.6815 48.8557 24.4851 48.7963C23.7602 48.5755 23.0716 48.2482 22.4414 47.825C21.4993 47.2065 20.6878 46.4063 20.0536 45.4704C19.2551 44.3254 18.7739 42.9865 18.6597 41.5916C18.5455 40.1968 18.8024 38.7965 19.404 37.535C19.8737 36.5035 20.5403 35.5752 21.3658 34.8032C21.9157 34.2762 22.5425 33.8375 23.2245 33.5023C23.4068 33.4088 23.5951 33.3277 23.7881 33.2595C23.8526 33.2295 23.9205 33.2076 23.9903 33.1944C23.0678 33.6386 22.2188 34.2237 21.4734 34.9289C20.6915 35.699 20.0635 36.6131 19.6234 37.6218C19.0472 38.854 18.8023 40.2173 18.9133 41.575C19.0243 42.9326 19.4872 44.2371 20.2558 45.3577C20.8664 46.2825 21.6461 47.0816 22.5533 47.7123C23.3973 48.2709 24.3217 48.6951 25.2939 48.9698Z" fill="#263238"/>
<path d="M20.9138 65.6949C20.8536 65.6949 21.0085 62.0437 21.258 57.547C21.5075 53.0503 21.7743 49.4035 21.813 49.4035C21.8517 49.4035 21.7227 53.0546 21.4688 57.5557C21.215 62.0567 20.9654 65.6992 20.9138 65.6949Z" fill="#263238"/>
<path d="M14.3573 54.8629C14.2497 55.0033 14.1271 55.1313 13.9916 55.2445C13.7506 55.483 13.3892 55.8125 12.9375 56.2115C12.0297 57.0137 10.7433 58.0804 9.27187 59.1905C7.80047 60.3006 6.41081 61.2372 5.39975 61.8876C4.89207 62.2129 4.47475 62.4644 4.18219 62.6335C4.03665 62.7314 3.88082 62.8129 3.71753 62.8763C3.84864 62.7548 3.99297 62.6486 4.14777 62.5598L5.32661 61.7532C6.32476 61.0724 7.68861 60.1184 9.15571 59.0127C10.6228 57.9069 11.9221 56.8446 12.8557 56.09L13.9571 55.1794C14.0812 55.0624 14.215 54.9565 14.3573 54.8629Z" fill="#263238"/>
<path d="M4.1693 37.2619C4.11337 37.2228 4.62105 36.477 5.12873 35.4927C5.6364 34.5083 5.96769 33.6714 6.02792 33.6931C5.91258 34.3658 5.67482 35.0112 5.32663 35.5967C5.04359 36.2176 4.65151 36.7817 4.1693 37.2619Z" fill="#FAFAFA"/>
<path d="M5.94627 46.9924C5.44064 46.5274 5.01343 45.9826 4.68137 45.3793C4.28603 44.815 3.98786 44.1876 3.79939 43.5234C4.18613 44.0824 4.54371 44.6614 4.87068 45.2579C5.26372 45.8136 5.62292 46.3928 5.94627 46.9924Z" fill="#FAFAFA"/>
<path d="M12.8383 38.2375C12.4214 38.8736 11.9445 39.4675 11.4142 40.0111C10.9374 40.6013 10.4058 41.1444 9.82666 41.6328C10.2395 40.995 10.7151 40.4008 11.2464 39.8593C11.7227 39.2671 12.2559 38.7239 12.8383 38.2375Z" fill="#FAFAFA"/>
<path d="M14.9595 49.6679C14.8992 49.6419 15.3897 48.5752 15.8716 47.2266C16.3534 45.8781 16.6933 44.755 16.7579 44.768C16.4632 46.4991 15.8535 48.1603 14.9595 49.6679Z" fill="#FAFAFA"/>
<path d="M10.5196 54.7674C10.3752 54.1554 10.3073 53.5275 10.3174 52.8985C10.2502 52.2724 10.2589 51.6405 10.3432 51.0166C10.4814 51.6296 10.5478 52.2568 10.5411 52.8855C10.6057 53.5115 10.5985 54.143 10.5196 54.7674Z" fill="#FAFAFA"/>
<path d="M6.35056 60.4132C5.79596 59.8756 5.2932 59.2861 4.84903 58.6527C4.34907 58.0615 3.9054 57.4241 3.52391 56.7491C4.08168 57.2837 4.58471 57.8736 5.02543 58.5096C5.52954 59.0976 5.9735 59.7354 6.35056 60.4132Z" fill="#FAFAFA"/>
<path d="M11.9778 64.0513C11.7405 63.0878 11.6505 62.0935 11.7111 61.1026C11.9484 62.0661 12.0384 63.0605 11.9778 64.0513Z" fill="#FAFAFA"/>
<path d="M18.2769 61.3542C17.819 60.8726 17.415 60.3419 17.0722 59.7714C16.6699 59.2337 16.3293 58.6519 16.0569 58.0369C16.5147 58.5184 16.9187 59.0492 17.2615 59.6197C17.6638 60.1574 18.0044 60.7392 18.2769 61.3542Z" fill="#FAFAFA"/>
<path d="M20.4835 52.712C20.1706 52.7781 19.8467 52.7707 19.537 52.6903C19.2181 52.68 18.9059 52.5954 18.6249 52.4431C18.9379 52.377 19.2618 52.3844 19.5714 52.4648C19.8903 52.4751 20.2025 52.5597 20.4835 52.712Z" fill="#FAFAFA"/>
<path d="M24.8852 57.5426C24.4514 57.0248 24.0776 56.4589 23.7709 55.8558C23.3985 55.2932 23.0883 54.6912 22.8459 54.0606C23.2815 54.5754 23.6555 55.1401 23.9602 55.743C24.3331 56.3069 24.6433 56.9104 24.8852 57.5426Z" fill="#FAFAFA"/>
<path d="M24.7859 61.6318C24.683 62.159 24.5093 62.6696 24.2696 63.1495C24.098 63.659 23.8546 64.1409 23.5468 64.5804C23.649 64.0531 23.8228 63.5424 24.0631 63.0627C24.2355 62.5536 24.4789 62.0718 24.7859 61.6318Z" fill="#FAFAFA"/>
<path d="M22.0628 42.9815C21.7542 42.4498 21.5593 41.859 21.4906 41.247C21.3482 40.6457 21.3306 40.0212 21.4389 39.4127C21.5078 39.4127 21.5379 40.228 21.71 41.208C21.8821 42.188 22.123 42.9598 22.0628 42.9815Z" fill="#FAFAFA"/>
<path d="M24.5365 36.542C24.8813 36.2662 25.2696 36.0507 25.6852 35.9046C26.0721 35.6896 26.4926 35.543 26.9286 35.471C26.5827 35.7474 26.1928 35.963 25.7756 36.1084C25.3893 36.3213 24.9706 36.4679 24.5365 36.542Z" fill="#FAFAFA"/>
<path d="M27.6556 42.2615C27.3071 41.8297 27.0177 41.3528 26.7951 40.8436C26.5064 40.3706 26.2835 39.8599 26.1325 39.3259C26.4822 39.7552 26.7717 40.2308 26.993 40.7395C27.2787 41.2155 27.5015 41.7272 27.6556 42.2615Z" fill="#FAFAFA"/>
<path d="M31.8808 40.4014C31.494 39.9907 31.1653 39.5282 30.9042 39.0268C30.5779 38.5673 30.3145 38.0655 30.1211 37.5351C30.5045 37.9476 30.8315 38.4099 31.0935 38.9097C31.42 39.3698 31.6847 39.8714 31.8808 40.4014Z" fill="#FAFAFA"/>
<path d="M30.577 45.6135C30.0358 45.8796 29.4654 46.0805 28.8776 46.2119C28.3095 46.4088 27.7203 46.5369 27.1222 46.5935C27.6598 46.3224 28.2294 46.1214 28.8173 45.9951C29.3855 45.7935 29.9768 45.6652 30.577 45.6135Z" fill="#FAFAFA"/>
<path d="M17.2783 34.2264C16.6831 34.0634 16.1289 33.7752 15.652 33.3808C15.1344 33.0452 14.6943 32.6016 14.3613 32.08C14.4086 32.0323 14.9852 32.609 15.7897 33.1944C16.5942 33.7798 17.3041 34.1744 17.2783 34.2264Z" fill="#FAFAFA"/>
<path d="M7.97657 30.9179C7.54649 31.016 7.09715 30.9828 6.68587 30.8225C6.26002 30.7388 5.86801 30.5307 5.55865 30.2241C5.96139 30.3282 6.35786 30.4556 6.7461 30.6057C7.16226 30.684 7.57321 30.7883 7.97657 30.9179Z" fill="#FAFAFA"/>
</svg>
