<svg width="5" height="4" viewBox="0 0 5 4" fill="none" xmlns="http://www.w3.org/2000/svg">
<path d="M4.85504 1.36564C4.57077 0.923805 4.1905 0.567576 3.74902 0.329551C3.30754 0.0915254 2.81895 -0.0207016 2.32794 0.00314006C1.97337 0.0088719 1.62345 0.0931258 1.29901 0.250884C0.97458 0.408642 0.682253 0.636688 0.439405 0.921456C0.207513 1.1942 0.0588264 1.54003 0.0141614 1.91053C-0.0305036 2.28103 0.0310953 2.65765 0.190324 2.98766C0.584334 3.68138 1.48104 3.90596 2.26453 3.72629C3.0404 3.49235 3.7668 3.0921 4.40215 2.54846C4.59082 2.41546 4.75644 2.24645 4.89126 2.04938C4.95497 1.95737 4.99244 1.84657 4.99889 1.73105C5.00534 1.61553 4.98049 1.5005 4.9275 1.40057" fill="#EB996E"/>
</svg>
