<svg width="40" height="21" viewBox="0 0 40 21" fill="none" xmlns="http://www.w3.org/2000/svg">
<path d="M0.926222 8.37436C2.46693 9.21397 5.92089 9.48937 8.63606 8.99232L12.1216 8.36093C14.8368 7.86388 18.2844 8.13927 19.8188 8.96544C21.3532 9.79162 22.3445 11.3835 22.0351 12.5052L20.8543 16.8511C20.5449 17.9728 20.4439 19.1482 23.0707 20.3841C23.8967 20.8239 24.8139 21.0342 25.7369 20.9954C26.6599 20.9567 27.5586 20.6701 28.3495 20.1625L39.0018 12.8075C40.3847 11.8537 39.9237 10.2148 37.9726 9.15352L22.9444 0.979089C20.6437 -0.105435 18.0579 -0.295628 15.6387 0.441737L1.89864 5.47939C-0.1851 6.24511 -0.620796 7.54147 0.926222 8.37436Z" fill="#629DFF"/>
</svg>
