<svg width="65" height="56" viewBox="0 0 65 56" fill="none" xmlns="http://www.w3.org/2000/svg">
<path d="M51.8834 6.02836C43.7588 -1.14316 38.0831 0.0789651 38.0831 0.0789651L24.307 6.88124C24.307 6.88124 17.258 10.1004 9.11514 25.3015C0.972282 40.5026 0 51.4289 0 51.4289C0.814286 52.5106 2.00533 52.9318 3.51237 53.5091C4.91002 54.0603 7.63848 53.7639 9.13944 53.6339C11.1265 53.4675 13.1562 53.1139 15.0825 53.5455C16.6625 53.9043 18.0297 54.778 19.6219 55.1056C20.4236 55.2731 21.2573 55.2962 22.0701 55.1736C22.8828 55.0509 23.657 54.7852 24.3435 54.3932C26.0571 53.3531 27.0963 51.6109 28.974 50.836C32.2251 49.4995 36.4727 51.7045 39.5779 50.134C41.8506 48.9846 42.3672 46.3896 43.9897 44.611C45.0883 43.4228 46.6661 42.629 48.4135 42.3852C49.1642 42.3493 49.9051 42.2214 50.6133 42.0055C52.6187 41.1683 52.4364 38.62 53.8279 37.1171C55.2195 35.6141 58.0452 35.2917 58.9263 33.5391C59.6677 32.0674 58.6529 30.1796 59.6799 28.8586C60.2875 28.0994 61.3327 27.7561 62.2139 27.2517C62.9477 26.8191 63.5682 26.2604 64.0359 25.6112C64.5036 24.9621 64.8081 24.2367 64.9302 23.4813C65.0984 22.0697 64.9624 20.6437 64.5291 19.2741C64.4866 19.1129 59.9351 13.1531 51.8834 6.02836Z" fill="#37474F"/>
</svg>
