<svg width="35" height="62" viewBox="0 0 35 62" fill="none" xmlns="http://www.w3.org/2000/svg">
<path d="M2.80202 44.4536C3.63885 42.9365 4.60165 41.5086 6.13135 40.8789C7.66104 40.2492 9.39769 39.8873 10.5989 38.6577C12.4841 36.7489 12.3986 33.5757 12.2276 30.8091C12.0567 28.0426 12.0117 24.8595 13.9373 23.0003C15.548 21.4484 18.1079 21.3096 19.5027 19.5296C20.434 18.3447 20.6184 16.7085 20.9424 15.1963C21.8422 11.1456 23.8533 4.07054 34.6871 0L25.104 40.1302C25.8194 40.3533 27.529 42.1481 27.6235 43.3629C27.709 44.4982 27.2636 45.6485 27.2546 46.7888C27.2546 48.1821 28.6313 49.015 29.5041 50.0463C30.6109 51.3601 30.9529 53.2541 30.7819 55.0043C30.4271 57.3963 29.8465 59.7409 29.0497 62.0001C20.1595 61.0085 7.18413 60.6911 0.408497 54.444C-0.819756 53.3136 0.939393 47.83 2.80202 44.4536Z" fill="#263238"/>
</svg>
