<svg width="2" height="2" viewBox="0 0 2 2" fill="none" xmlns="http://www.w3.org/2000/svg">
<path d="M0.00333906 1.0337C0.000681648 1.15836 0.0210846 1.28235 0.0633618 1.39852C0.105639 1.51469 0.168956 1.62074 0.249667 1.71056C0.330378 1.80038 0.426884 1.87219 0.533618 1.92184C0.640353 1.9715 0.755214 1.99802 0.87156 1.99988C1.10835 1.99238 1.33285 1.88532 1.49657 1.70184C1.66029 1.51837 1.75006 1.27321 1.74645 1.01938C1.75704 0.889862 1.74237 0.759395 1.70338 0.636272C1.66439 0.513149 1.60193 0.400062 1.51997 0.304196C1.43801 0.20833 1.33833 0.131782 1.22727 0.0794138C1.11622 0.0270452 0.996211 0 0.874882 0C0.753553 0 0.633563 0.0270452 0.522511 0.0794138C0.411458 0.131782 0.311778 0.20833 0.229816 0.304196C0.147853 0.400062 0.0853933 0.513149 0.0464046 0.636272C0.00741603 0.759395 -0.0072514 0.889862 0.00333906 1.01938V1.0337Z" fill="#263238"/>
</svg>
