<svg width="8" height="3" viewBox="0 0 8 3" fill="none" xmlns="http://www.w3.org/2000/svg">
<path d="M7.15321 2.5225C6.98248 2.62201 6.79593 2.6872 6.60295 2.71477C6.08622 2.83763 5.55669 2.88879 5.02759 2.86698C3.23262 2.79185 1.52746 2.01273 0.241209 0.680029L0 0.431697L0.316579 0.335571L0.836676 0.183364C2.70956 -0.254512 4.66926 0.0988166 6.30145 1.16867C6.79064 1.48142 7.23702 1.86419 7.62807 2.30622C7.89188 2.62665 8.02003 2.8269 7.99742 2.84292C7.42302 2.31727 6.81058 1.84049 6.16577 1.41701C4.55748 0.475983 2.68132 0.191135 0.889434 0.615929L0.399493 0.760141L0.482407 0.415659C1.70851 1.67557 3.30571 2.44792 5.00498 2.60261C5.7219 2.61937 6.43915 2.59262 7.15321 2.5225Z" fill="#FAFAFA"/>
</svg>
