<svg width="35" height="45" viewBox="0 0 35 45" fill="none" xmlns="http://www.w3.org/2000/svg">
<path d="M14.2108 43.0822C14.1571 43.0065 14.1088 42.9271 14.0662 42.8446L14.0322 42.7809C13.9982 42.7088 13.9684 42.6409 13.9429 42.573C13.9174 42.5051 13.9429 42.5264 13.9429 42.5051C13.9143 42.4191 13.8916 42.3312 13.8749 42.2421C13.8594 42.1539 13.8523 42.0644 13.8536 41.9748V41.8942C13.8536 41.8305 13.8536 41.7669 13.8536 41.7033C13.8516 41.6708 13.8516 41.6382 13.8536 41.6057C13.8638 41.5454 13.878 41.4858 13.8961 41.4275C13.9041 41.3972 13.9141 41.3674 13.9259 41.3384C13.9559 41.2513 13.9914 41.1663 14.0322 41.0838L14.0747 41.0074C14.1088 40.948 14.1428 40.8886 14.181 40.8292L14.2576 40.7274L14.3129 40.651L14.4022 40.5449L14.4532 40.4898C15.0403 39.8175 15.765 39.2786 16.5785 38.9093C17.3919 38.54 18.2753 38.3489 19.169 38.3489C20.0626 38.3489 20.946 38.54 21.7594 38.9093C22.5729 39.2786 23.2976 39.8175 23.8847 40.4898L23.923 40.5365L24.0165 40.6468C24.0391 40.6715 24.059 40.6986 24.0761 40.7274C24.1025 40.7582 24.1266 40.7908 24.1484 40.825C24.1906 40.8847 24.229 40.947 24.2632 41.0117L24.3014 41.0795C24.3423 41.1621 24.3778 41.2471 24.4077 41.3341L24.4333 41.4147C24.4333 41.4784 24.4673 41.542 24.48 41.6057C24.482 41.6353 24.482 41.6651 24.48 41.6948C24.48 41.7627 24.48 41.8305 24.48 41.8942V41.9663C24.4774 42.1521 24.4473 42.3366 24.3907 42.5136C24.3818 42.5313 24.3747 42.5497 24.3695 42.5688C24.3427 42.6441 24.3114 42.7178 24.2759 42.7894C24.2677 42.8087 24.2577 42.8271 24.2462 42.8446C24.2023 42.9313 24.1525 43.0149 24.0973 43.0949C24.0303 43.1881 23.9579 43.2774 23.8805 43.3622C23.8082 43.4414 23.7315 43.5165 23.6508 43.5871L23.5913 43.638L23.3489 43.8289L23.2851 43.8756C23.1746 43.952 23.064 44.0241 22.9407 44.0962C20.8528 45.3012 17.4638 45.3012 15.3759 44.0962C15.2526 44.0241 15.1421 43.952 15.0315 43.8756L14.9635 43.8247C14.8821 43.7683 14.804 43.7074 14.7296 43.6422L14.6616 43.5871C14.5837 43.5178 14.5098 43.4442 14.4404 43.3664L14.4149 43.341C14.3392 43.2573 14.2682 43.1695 14.2023 43.0779L14.2108 43.0822Z" fill="#455A64"/>
<path d="M19.1642 33.82C19.3122 33.8136 19.4591 33.8473 19.5894 33.9175C19.6314 33.937 19.6682 33.9659 19.697 34.002C19.7258 34.038 19.7457 34.0803 19.7553 34.1254C19.8616 36.5693 20.0529 37.7531 20.8354 39.0514C20.8221 39.1968 20.7702 39.336 20.685 39.4546C20.5998 39.5732 20.4843 39.6669 20.3506 39.726C19.9898 39.9178 19.5857 40.0142 19.177 40.0061C18.7696 40.0137 18.3671 39.9173 18.0076 39.726C17.8739 39.6669 17.7584 39.5732 17.6732 39.4546C17.588 39.336 17.5361 39.1968 17.5228 39.0514C18.3053 37.7531 18.4966 36.5693 18.5987 34.1254C18.6072 34.0799 18.6268 34.0372 18.6557 34.001C18.6846 33.9647 18.722 33.9361 18.7645 33.9175C18.8871 33.8511 19.0248 33.8175 19.1642 33.82Z" fill="#37474F"/>
<g opacity="0.15">
<path d="M18.5904 34.3757C18.9816 34.3757 19.3771 34.3757 19.7683 34.3757C19.8023 35.1437 19.8491 35.8904 19.9214 36.5948C19.4281 36.5948 18.9391 36.5566 18.4458 36.5099C18.5139 35.8268 18.5564 35.1098 18.5904 34.3757Z" fill="black"/>
</g>
<g opacity="0.15">
<path d="M22.1706 43.3919C23.9055 42.3057 23.7822 40.3667 22.6298 39.3781C23.1029 39.6885 23.532 40.061 23.9055 40.4855L23.9438 40.5322L24.0373 40.6425C24.0599 40.6673 24.0799 40.6943 24.0969 40.7231C24.1233 40.7539 24.1474 40.7865 24.1692 40.8207C24.2114 40.8804 24.2498 40.9428 24.284 41.0074L24.3222 41.0753C24.3631 41.1578 24.3986 41.2428 24.4286 41.3299L24.4541 41.4105C24.4541 41.4741 24.4881 41.5378 24.5008 41.6014C24.5029 41.6311 24.5029 41.6608 24.5008 41.6905C24.5008 41.7584 24.5008 41.8263 24.5008 41.8899V41.962C24.4982 42.1479 24.4681 42.3323 24.4115 42.5094C24.4026 42.527 24.3955 42.5455 24.3903 42.5645C24.3635 42.6399 24.3323 42.7135 24.2967 42.7852C24.2885 42.8044 24.2785 42.8229 24.267 42.8403C24.2231 42.927 24.1733 43.0107 24.1181 43.0907C24.0511 43.1839 23.9787 43.2731 23.9013 43.358C23.829 43.4371 23.7523 43.5122 23.6717 43.5828L23.6121 43.6337L23.3697 43.8247L23.306 43.8713C23.1954 43.9477 23.0848 44.0198 22.9615 44.092C20.8737 45.297 17.4846 45.297 15.3967 44.092C15.2734 44.0198 15.1629 43.9477 15.0523 43.8713L14.9843 43.8204C14.9029 43.7641 14.8249 43.7032 14.7504 43.638L14.6824 43.5828C14.6045 43.5136 14.5306 43.4399 14.4613 43.3622L14.4357 43.3367C16.6129 44.9066 20.4399 44.4781 22.1706 43.3919Z" fill="black"/>
</g>
<path d="M31.1942 27.672C28.0043 30.8126 23.6991 32.5667 19.2178 32.5518C14.7366 32.5368 10.4432 30.7539 7.27446 27.5922C4.10573 24.4305 2.31892 20.1465 2.30393 15.6752C2.28893 11.2039 4.04698 6.90809 7.19444 3.72528L6.09735 2.63485C-1.53121 10.2508 -2.25834 21.872 5.37447 29.488C13.0073 37.104 24.6457 36.3699 32.2785 28.754L31.1942 27.672Z" fill="#37474F"/>
<path d="M4.93209 3.89499L6.03768 4.99814C6.39912 4.57385 6.78182 4.14956 7.19429 3.72528L6.09721 2.63485C5.68899 3.04217 5.30203 3.46646 4.93209 3.89499Z" fill="#263238"/>
<path d="M31.1942 27.6721C30.769 28.0964 30.3438 28.4612 29.9186 28.8176L31.0157 29.9123C31.4409 29.5474 31.8661 29.1613 32.2913 28.754L31.1942 27.6721Z" fill="#263238"/>
<path d="M0.713994 17.3618C1.203 21.3629 2.64877 26.03 6.53534 29.4243C9.84785 32.3265 14.9166 35.4068 22.7152 34.2697C19.6593 35.0707 16.4455 35.0506 13.3999 34.2115C10.3543 33.3724 7.58549 31.7442 5.37447 29.4922C-2.02872 22.1054 -1.56947 10.9424 5.43826 3.33066C5.1321 3.67009 -0.170477 10.1405 0.713994 17.3618Z" fill="#455A64"/>
<path d="M32.8825 30.3112C33.0729 30.3115 33.259 30.2554 33.4173 30.1501C33.5757 30.0447 33.6991 29.8949 33.772 29.7194C33.8448 29.544 33.8639 29.351 33.8266 29.1647C33.7894 28.9785 33.6976 28.8075 33.5629 28.6734L6.18258 1.37053C6.00214 1.19048 5.7574 1.08933 5.50222 1.08933C5.24703 1.08933 5.0023 1.19048 4.82186 1.37053C4.64141 1.55057 4.54004 1.79477 4.54004 2.04939C4.54004 2.30401 4.64141 2.54819 4.82186 2.72824L32.2022 30.0311C32.2916 30.1201 32.3977 30.1906 32.5144 30.2387C32.6312 30.2867 32.7563 30.3114 32.8825 30.3112Z" fill="#37474F"/>
<path d="M6.18234 1.37044L33.5627 28.6733C33.6936 28.8031 33.7841 28.9678 33.8234 29.1478C33.8626 29.3277 33.8489 29.5151 33.7838 29.6874C33.6157 29.7415 33.4358 29.7484 33.264 29.7073C33.0922 29.6661 32.9351 29.5785 32.81 29.454L5.42544 2.15113C5.29612 2.02035 5.207 1.85539 5.16857 1.67571C5.13015 1.49604 5.14403 1.30914 5.20857 1.13708C5.3767 1.0829 5.55654 1.07603 5.72833 1.1172C5.90012 1.15837 6.05721 1.24599 6.18234 1.37044Z" fill="#455A64"/>
<path d="M11.4383 29.348C14.4987 31.083 18.0538 31.7439 21.535 31.225C25.0163 30.7061 28.2226 29.0374 30.6413 26.4858C33.0599 23.9342 34.5512 20.647 34.8766 17.1499C35.202 13.6528 34.3427 10.1479 32.4362 7.1956C30.5297 4.24329 27.686 2.01415 24.36 0.86465C21.034 -0.284846 17.4178 -0.288301 14.0896 0.854848C10.7613 1.998 7.91344 4.22171 6.00127 7.17038C4.08911 10.119 3.22313 13.6223 3.54183 17.12C3.77168 19.6427 4.60991 22.0724 5.98496 24.2017C7.36 26.331 9.23102 28.0967 11.4383 29.348Z" fill="#0060FF"/>
<path opacity="0.5" d="M11.4383 29.348C14.4987 31.083 18.0538 31.7439 21.535 31.225C25.0163 30.7061 28.2226 29.0374 30.6413 26.4858C33.0599 23.9342 34.5512 20.647 34.8766 17.1499C35.202 13.6528 34.3427 10.1479 32.4362 7.1956C30.5297 4.24329 27.686 2.01415 24.36 0.86465C21.034 -0.284846 17.4178 -0.288301 14.0896 0.854848C10.7613 1.998 7.91344 4.22171 6.00127 7.17038C4.08911 10.119 3.22313 13.6223 3.54183 17.12C3.77168 19.6427 4.60991 22.0724 5.98496 24.2017C7.36 26.331 9.23102 28.0967 11.4383 29.348Z" fill="white"/>
<path d="M9.38453 6.40256C8.83173 6.86079 8.26618 7.633 9.04435 7.53542C9.82251 7.43783 10.1797 7.20023 10.5156 7.61178C10.8516 8.02334 10.9409 8.6725 11.2938 8.85919C11.6467 9.04588 12.1442 9.2156 12.2888 8.94405C12.4334 8.67251 12.4887 7.55663 12.8459 7.32327C13.2031 7.08991 14.3809 6.22861 14.2491 5.72795C14.1173 5.22729 14.3086 5.11698 14.2491 4.48904C14.1896 3.86109 13.7388 3.318 13.3987 3.58106C13.0585 3.84411 13.135 4.00534 12.5482 4.42963C11.9614 4.85392 11.4129 4.67147 10.9451 5.19759C10.4628 5.64581 9.9404 6.04914 9.38453 6.40256Z" fill="#455A64"/>
<path d="M7.39008 8.20992C7.02439 9.0585 6.09314 10.6411 5.33199 10.9635C4.89734 11.1313 4.47155 11.321 4.05631 11.5321C3.05223 15.181 3.39944 19.0687 5.03433 22.483C5.42863 22.676 5.84583 22.8186 6.27599 22.9072C7.21999 23.0897 7.78129 22.763 8.49142 22.3896C9.20155 22.0162 9.28659 22.5169 9.87766 22.6399C10.3275 22.7841 10.8025 22.8333 11.2724 22.7842C11.7742 22.7036 11.5998 23.4461 11.7827 23.951C11.9655 24.4559 12.1016 24.7105 13.0286 25.2875C13.9556 25.8645 15.3078 25.8688 15.8011 25.9876C16.2943 26.1064 16.171 26.7937 16.8003 27.3665C17.4297 27.9393 18.7861 29.7001 20.2022 30.1753C21.6182 30.6505 21.9031 30.2347 21.3205 29.6195C20.7379 29.0042 20.0448 28.546 20.0193 27.7483C19.9938 26.9507 20.8698 26.4755 20.4445 25.3511C20.0193 24.2268 20.1894 24.1461 20.3637 23.5055C20.5381 22.8648 20.1384 22.7503 19.9683 21.7404C19.7982 20.7306 19.39 19.9839 18.582 20.1536C17.7741 20.3233 17.4169 20.6628 16.3794 20.3742C15.2821 20.0916 14.1376 20.0425 13.0201 20.23C11.9953 20.4124 11.2384 21.7871 10.6813 22.0162C10.1243 22.2453 9.14627 21.6132 8.90814 21.2568C8.67001 20.9004 8.26605 21.0828 8.00666 21.4265C7.74727 21.7701 7.39859 21.7023 6.9606 21.3374C6.52262 20.9725 6.76075 19.8863 7.27952 19.4069C7.7983 18.9274 8.29581 18.9444 8.98043 19.5639C9.24284 19.823 9.5801 19.9935 9.94473 20.0514C10.3094 20.1092 10.683 20.0515 11.013 19.8863C11.6253 19.6105 10.8854 19.3347 10.2348 19.2626C9.58425 19.1905 9.3036 18.8807 8.95917 17.8709C8.61473 16.8611 9.31211 16.3902 9.22706 15.2616C9.14202 14.133 9.67355 14.6082 10.2348 14.2815C10.7961 13.9548 10.507 13.7426 10.3284 13.1359C10.1498 12.5292 11.1023 12.4188 11.3277 11.6254C11.553 10.832 10.001 11.1333 9.66929 10.5732C9.33762 10.0131 9.85214 9.63552 8.97192 9.10516C8.0917 8.5748 8.45315 8.25659 8.43189 7.79836C8.41062 7.34013 7.75578 7.36135 7.39008 8.20992ZM8.11297 10.6368C8.24479 11.1417 8.04493 11.1842 8.11297 11.8079C8.14111 12.0638 8.11801 12.3227 8.04501 12.5696C7.97201 12.8165 7.85057 13.0465 7.68774 13.2462C7.44111 13.5008 6.59916 13.3735 6.33552 13.0892C6.07188 12.805 6.43332 12.3679 6.87556 11.914C7.30896 11.4363 7.60307 10.8494 7.72601 10.2168C7.83657 9.64402 7.98115 10.1404 8.10871 10.6411L8.11297 10.6368Z" fill="#455A64"/>
<path d="M30.718 5.00667L30.7478 5.04061C30.6735 5.17149 30.6263 5.31585 30.6087 5.46522C30.5912 5.61459 30.6038 5.76594 30.6457 5.91039C30.9136 6.81413 30.6457 6.55956 30.3395 7.5439C30.0334 8.52825 30.5989 8.69796 31.0071 9.13498C31.4154 9.57199 31.0752 10.7091 30.8328 11.1716C30.5904 11.634 31.258 12.8305 31.8108 13.2506C32.3636 13.6706 31.8916 14.3707 31.8916 15.1429C31.8916 15.9151 32.3168 16.8782 32.3594 17.4553C32.39 17.74 32.3377 18.0276 32.2088 18.2834C32.0798 18.5393 31.8796 18.7526 31.6322 18.8978C31.122 19.1779 30.1142 18.7663 29.3573 18.3166C28.5797 17.8647 27.9458 17.2029 27.5288 16.4073C27.1036 15.5969 27.1291 15.7242 26.0873 14.7653C25.7561 14.4332 25.3286 14.2135 24.8654 14.1374C24.4021 14.0612 23.9266 14.1325 23.5062 14.341C23.0001 14.5744 22.4984 15.3762 21.9456 15.4569C21.3928 15.5375 20.9761 15.3465 19.9087 14.5149C18.8414 13.6833 19.1603 13.0427 19.1178 12.1686C19.0938 11.1617 19.3819 10.1719 19.9428 9.33439C20.1521 9.04336 20.4182 8.79752 20.7251 8.6116C21.032 8.42568 21.3733 8.30353 21.7287 8.25247C22.3325 8.12518 22.9193 8.44339 23.251 8.23125C23.5827 8.0191 23.723 7.64997 24.076 7.46329C24.4289 7.2766 24.7606 7.26387 25.0157 6.97536C25.2708 6.68684 24.8116 6.49167 24.616 6.33468C24.4204 6.17769 24.1908 6.44501 23.8251 6.72928C23.7205 6.84641 23.5779 6.92297 23.4223 6.94547C23.2668 6.96798 23.1082 6.93499 22.9746 6.85231C22.6557 6.71654 22.6174 7.08992 22.3665 7.12811C22.1157 7.1663 22.5026 7.5821 22.6217 7.76454C22.7407 7.94698 22.3708 7.76454 22.3708 7.76454C22.3708 7.76454 22.4091 8.11246 22.2602 8.0573C22.1114 8.00214 22.0519 7.633 21.835 7.38267C21.6182 7.13234 21.2737 7.50148 20.874 7.48451C20.6711 7.48822 20.4727 7.54454 20.2982 7.64794C20.1238 7.75134 19.9793 7.89827 19.879 8.07426C19.6408 8.43915 19.5175 8.40945 19.6026 8.80828C19.6876 9.20711 19.1391 9.96659 18.8839 10.1066C18.6288 10.2466 18.4247 9.68232 18.2971 9.11377C18.1696 8.54523 18.6713 8.37976 18.5905 7.77727C18.5097 7.17478 18.1313 7.39116 17.8549 7.50572C17.5785 7.62028 17.3319 7.45904 17.1533 6.75897C16.9747 6.05889 17.4084 5.94435 17.7273 6.08012C17.9026 6.13402 18.0892 6.1396 18.2674 6.09628C18.4455 6.05295 18.6086 5.96234 18.7394 5.83402C19.0455 5.60067 18.8032 5.43945 18.446 5.00667C18.2816 4.82916 18.1837 4.6004 18.169 4.35916C18.1543 4.11791 18.2236 3.87899 18.3652 3.68289C18.7035 3.14035 18.968 2.55538 19.1518 1.94332C19.2156 1.49357 19.7982 1.28991 20.2447 1.3578C20.6912 1.42569 21.3035 1.09898 21.9456 0.742578C22.0237 0.698881 22.0907 0.637927 22.1416 0.564384C22.1924 0.490842 22.2258 0.406662 22.239 0.318291C25.4915 0.945881 28.4605 2.58752 30.718 5.00667Z" fill="#455A64"/>
<path d="M33.2441 12.8772C32.9039 13.0639 33.0102 13.1403 33.023 13.5179C33.0357 13.8955 32.9932 14.3665 33.2356 14.5701C33.478 14.7738 33.7416 15.0623 33.8054 14.7144C33.8692 14.3665 33.6225 14.2095 33.8054 13.8446C33.9882 13.4797 33.7544 12.5972 33.2441 12.8772Z" fill="#455A64"/>
<path opacity="0.1" d="M13.7129 2.27002C4.0815 6.24983 6.87524 12.7372 13.7129 12.7923C20.5505 12.8475 28.5405 8.28641 27.7453 5.30791C26.9502 2.32942 20.8652 -0.67878 13.7129 2.27002Z" fill="white"/>
<g opacity="0.1">
<path d="M20.7888 24.4984C10.7194 24.3626 3.17166 14.5404 6.00792 7.16628C5.84208 7.42085 5.6805 7.67966 5.52742 7.94696C4.24467 10.1964 3.5392 12.7275 3.47381 15.3148C3.40843 17.9021 3.98515 20.4654 5.15264 22.7765C6.32013 25.0876 8.04218 27.0749 10.1655 28.5614C12.2888 30.0479 14.7475 30.9876 17.3228 31.2967C19.8981 31.6059 22.51 31.275 24.9261 30.3334C27.3422 29.3918 29.4875 27.8688 31.1711 25.8999C32.8547 23.931 34.0243 21.5774 34.5758 19.0485C35.1273 16.5195 35.0436 13.8938 34.3322 11.4049C34.5193 15.1556 30.8496 24.6384 20.7888 24.4984Z" fill="black"/>
</g>
</svg>
