<svg width="62" height="122" viewBox="0 0 62 122" fill="none" xmlns="http://www.w3.org/2000/svg">
<path d="M18.9432 21.1259H21.0516C21.5595 21.124 22.0627 21.2216 22.5325 21.4131C23.0022 21.6046 23.4292 21.8862 23.789 22.2417C24.1488 22.5972 24.4342 23.0197 24.629 23.4848C24.8238 23.95 24.9241 24.4487 24.9241 24.9524V25.0918L24.4672 39.1295L18.9432 21.1259Z" fill="#F28F8F"/>
<path d="M2.18708 27.5312C3.91125 27.5312 5.5648 26.852 6.78398 25.6429C8.00315 24.4337 8.68807 22.7938 8.68807 21.0839V1.88836C6.9639 1.88836 5.31035 2.56763 4.09117 3.77673C2.872 4.98584 2.18708 6.62574 2.18708 8.33567V27.5312Z" fill="#263238"/>
<path d="M13.0921 98.8802L11.2282 104.59L15.1866 105.861L17.0505 100.151L13.0921 98.8802Z" fill="#FFA8A7"/>
<path d="M16.0054 103.38C15.977 103.848 16.0974 104.314 16.3498 104.711C16.9839 105.747 17.7259 106.714 18.5636 107.597C19.7514 108.858 21.5225 110.35 22.7805 111.451C23.4833 112.064 23.4833 112.984 22.5064 113.312C20.6194 113.767 18.6283 113.49 16.9401 112.538C15.6821 111.841 13.8829 108.761 12.8287 108.294C11.6269 107.75 10.9452 107.478 10.5376 106.9C10.2279 106.586 10.0349 106.177 9.99016 105.74C9.94547 105.303 10.0518 104.864 10.2916 104.495C10.8608 103.449 11.6972 101.825 12.0697 102.007L11.9572 102.341C12.2384 103.198 14.5928 104.195 15.8016 103.958L16.0054 103.38Z" fill="#37474F"/>
<path d="M11.9712 102.369C12.9059 102.655 13.4471 103.421 14.656 103.178L16.0054 103.38C15.9769 103.848 16.0974 104.314 16.3497 104.711C16.9838 105.747 17.7259 106.714 18.5636 107.597C19.1399 108.21 19.8567 108.879 20.5877 109.527C21.171 110.433 19.2242 110.698 18.1489 110.392C16.9668 109.977 15.9479 109.201 15.2393 108.175C14.4592 107.157 12.3367 104.795 12.0204 103.993C11.7938 103.478 11.7762 102.896 11.9712 102.369Z" fill="#FFA8A7"/>
<path d="M0.00212941 44.2943C0.00212941 39.018 1.02122 35.1356 2.18788 27.0434C2.58145 24.2972 3.65675 22.9171 5.61056 22.1644C5.61056 22.1644 10.973 24.353 10.973 28.2841C10.973 32.2152 6.62964 34.2365 6.62964 34.2365L5.75815 41.0253L2.15273 47.4448C0.353533 46.8802 -0.0330111 45.9114 0.00212941 44.2943Z" fill="#FFA8A7"/>
<path d="M11.1002 108.196H7.05906V114.03H11.1002V108.196Z" fill="#FFA8A7"/>
<path d="M4.01578 48.7205C2.41338 55.5302 3.97362 64.7028 4.52181 70.4322C5.05594 76.0083 5.71657 82.5183 5.71657 82.5183C5.71657 82.5183 3.9947 88.415 4.07904 92.9734C4.18446 97.7758 6.99569 109.43 6.99569 109.43C7.61364 109.825 8.33352 110.036 9.06899 110.036C9.80447 110.036 10.5243 109.825 11.1423 109.43C11.1423 109.43 11.8451 99.6717 12.5479 94.1444C13.2507 88.3662 13.4686 84.1493 14.073 80.7689C14.825 76.5868 15.823 62.34 15.823 62.34L18.2828 76.4195C16.9885 78.5382 15.9796 80.8159 15.2818 83.1944C14.3893 86.6167 12.4706 100.208 12.4706 100.208C13.6777 101.274 15.2264 101.882 16.8421 101.923C16.8421 101.923 25.5007 81.5495 26.6744 79.4585C27.9394 77.2908 26.3933 54.9308 25.1844 48.3441L4.01578 48.7205Z" fill="#1A5FFF"/>
<path opacity="0.3" d="M4.01578 48.7205C2.41338 55.5302 3.97362 64.7028 4.52181 70.4322C5.05594 76.0083 5.71657 82.5183 5.71657 82.5183C5.71657 82.5183 3.9947 88.415 4.07904 92.9734C4.18446 97.7758 6.99569 109.43 6.99569 109.43C7.61364 109.825 8.33352 110.036 9.06899 110.036C9.80447 110.036 10.5243 109.825 11.1423 109.43C11.1423 109.43 11.8451 99.6717 12.5479 94.1444C13.2507 88.3662 13.4686 84.1493 14.073 80.7689C14.825 76.5868 15.823 62.34 15.823 62.34L18.2828 76.4195C16.9885 78.5382 15.9796 80.8159 15.2818 83.1944C14.3893 86.6167 12.4706 100.208 12.4706 100.208C13.6777 101.274 15.2264 101.882 16.8421 101.923C16.8421 101.923 25.5007 81.5495 26.6744 79.4585C27.9394 77.2908 26.3933 54.9308 25.1844 48.3441L4.01578 48.7205Z" fill="black"/>
<path d="M11.4156 21.2236C11.4156 21.2236 6.2921 21.8578 5.61038 22.1576C10.9728 25.9005 6.62946 34.2297 6.62946 34.2297L9.22984 41.3113C7.0441 43.6672 5.20274 45.0821 4.02202 48.6996C5.519 50.4212 14.9367 54.8611 25.1555 48.3371C24.8616 45.6799 24.43 43.0393 23.8624 40.4261C25.3312 33.456 25.6897 30.3822 25.268 28.7443C24.0662 24.137 21.3182 21.1957 18.1626 21.0214L11.4156 21.2236Z" fill="#1A5FFF"/>
<path opacity="0.5" d="M11.4156 21.2236C11.4156 21.2236 6.2921 21.8578 5.61038 22.1576C10.9728 25.9005 6.62946 34.2297 6.62946 34.2297L9.22984 41.3113C7.0441 43.6672 5.20274 45.0821 4.02202 48.6996C5.519 50.4212 14.9367 54.8611 25.1555 48.3371C24.8616 45.6799 24.43 43.0393 23.8624 40.4261C25.3312 33.456 25.6897 30.3822 25.268 28.7443C24.0662 24.137 21.3182 21.1957 18.1626 21.0214L11.4156 21.2236Z" fill="white"/>
<path d="M11.1003 112.051V111.479C11.599 113.376 12.5957 115.107 13.9888 116.497C15.2679 117.648 17.0039 118.979 17.4466 120.268C17.8894 121.558 15.4296 122.129 13.7428 121.976C12.1431 121.78 10.6695 121.015 9.59626 119.822C8.54907 118.63 8.56312 117.815 8.07818 117.16C7.59325 116.504 6.4617 115.766 6.19464 115.013C6.11634 114.307 6.19553 113.593 6.42658 112.922C6.61634 112.225 6.82015 111.43 7.0591 111.528V111.967C7.63319 112.423 8.34785 112.669 9.0832 112.664C9.67356 112.615 11.1073 112.497 11.1003 112.051Z" fill="#37474F"/>
<path d="M7.05906 111.918C7.35424 112.239 8.16247 111.981 9.08315 112.016C9.67351 112.016 10.4888 112.246 10.4888 111.8L11.0651 111.479C11.5666 113.374 12.5629 115.105 13.9536 116.497C14.2629 116.769 14.5932 117.055 14.9235 117.355C15.6263 118.101 15.4084 118.749 13.8201 118.888C12.2317 119.028 10.8261 118.073 9.60322 116.602C8.59543 115.131 7.74288 113.562 7.05906 111.918Z" fill="#FFA8A7"/>
<path d="M13.4818 3.16109e-06H17.2488C19.3234 3.16109e-06 21.3131 0.817329 22.78 2.27218C24.247 3.72702 25.0711 5.70022 25.0711 7.75769V8.68471C25.0692 11.1058 24.0987 13.4271 22.3725 15.1391C20.6462 16.8511 18.3055 17.8136 15.8643 17.8155H14.9085C12.4536 17.8155 10.0993 16.8484 8.3635 15.1268C6.62766 13.4053 5.65246 11.0705 5.65246 8.63591V7.73678C5.65805 5.68173 6.4856 3.71284 7.95348 2.26232C9.42135 0.81179 11.4096 -0.00185071 13.4818 3.16109e-06Z" fill="#263238"/>
<path d="M21.8805 3.87523C22.9066 4.47466 24.1787 7.03267 24.0522 12.3927C23.9468 16.9371 22.4569 18.0593 21.7119 18.3799C20.9669 18.7006 19.5332 18.5054 18.1346 18.2754V21.0077C18.1346 21.0077 20.0673 23.2311 19.9408 24.4927C19.8143 25.7543 17.1296 26.04 15.3444 24.8203C14.0367 23.8144 12.9103 22.596 12.0131 21.2168V14.9437C12.0131 14.9437 11.1908 15.7383 9.79924 14.5325C8.64663 13.5288 8.2601 11.849 9.15267 10.9429C9.54099 10.5912 10.0528 10.4045 10.5784 10.4227C11.1039 10.4409 11.6013 10.6627 11.9639 11.0405C12.11 11.1978 12.2309 11.3765 12.3223 11.5702C14.1553 11.496 15.9407 10.9689 17.5161 10.0368C18.6836 9.42584 19.688 8.54867 20.4468 7.47746C21.2056 6.40625 21.697 5.17162 21.8805 3.87523Z" fill="#FFA8A7"/>
<path d="M18.9432 11.2494C18.9489 11.3254 18.9395 11.4018 18.9153 11.4742C18.8912 11.5466 18.8529 11.6135 18.8026 11.6711C18.7523 11.7288 18.691 11.776 18.6223 11.8101C18.5535 11.8442 18.4787 11.8644 18.402 11.8697C18.2844 11.8789 18.1667 11.8534 18.0637 11.7964C17.9607 11.7393 17.877 11.6533 17.8232 11.5491C17.7695 11.445 17.748 11.3274 17.7616 11.2111C17.7751 11.0949 17.823 10.9852 17.8993 10.896C17.9756 10.8067 18.0769 10.7419 18.1903 10.7096C18.3037 10.6774 18.4242 10.6791 18.5366 10.7147C18.649 10.7503 18.7482 10.818 18.8218 10.9095C18.8954 11.0009 18.9401 11.1119 18.9502 11.2285L18.9432 11.2494Z" fill="#263238"/>
<path d="M19.0906 15.1039L20.426 15.5222C20.3752 15.6993 20.2558 15.8494 20.0938 15.9395C19.9318 16.0296 19.7405 16.0525 19.5615 16.0031C19.3826 15.9513 19.2317 15.8312 19.1421 15.6691C19.0525 15.507 19.0314 15.3163 19.0836 15.1388L19.0906 15.1039Z" fill="#F28F8F"/>
<path d="M23.6588 9.49277L22.4921 8.69122C22.5952 8.53843 22.7549 8.43219 22.9366 8.39564C23.1182 8.35909 23.307 8.39518 23.462 8.49606C23.6171 8.60576 23.7239 8.77019 23.7605 8.95556C23.7971 9.14094 23.7607 9.33318 23.6588 9.49277Z" fill="#263238"/>
<path d="M23.392 10.8383C23.3933 10.9504 23.3613 11.0604 23.2999 11.1546C23.2386 11.2487 23.1507 11.323 23.0472 11.368C22.9436 11.413 22.829 11.4268 22.7176 11.4077C22.6062 11.3886 22.5029 11.3375 22.4206 11.2606C22.3384 11.1837 22.2807 11.0845 22.2548 10.9754C22.2289 10.8663 22.2359 10.752 22.2751 10.6468C22.3142 10.5416 22.3836 10.4501 22.4748 10.3838C22.5659 10.3175 22.6747 10.2792 22.7876 10.2737C22.943 10.2699 23.0937 10.3271 23.2068 10.4328C23.32 10.5385 23.3865 10.6842 23.392 10.8383Z" fill="#263238"/>
<path d="M20.6719 10.5107L20.7632 13.947L22.5906 13.3894L20.6719 10.5107Z" fill="#F28F8F"/>
<path d="M18.1352 18.2751C16.6593 18.0869 13.6302 17.2226 13.1522 16.0307C13.3423 16.6341 13.7153 17.1647 14.2205 17.5502C15.1271 18.3169 18.1352 19.1882 18.1352 19.1882V18.2751Z" fill="#F28F8F"/>
<path d="M7.69778 37.1223L11.7319 42.545L9.2299 41.3112L7.69778 37.1223Z" fill="#1A5FFF"/>
<path d="M15.8153 62.3052L16.5181 58.4717C18.5765 57.8997 20.584 57.1607 22.5201 56.2622C22.5201 56.2622 19.8354 58.625 17.8113 59.2872L16.8133 63.6783L17.3123 70.7181L15.8153 62.3052Z" fill="#1A5FFF"/>
<path opacity="0.4" d="M15.8153 62.3052L16.5181 58.4717C18.5765 57.8997 20.584 57.1607 22.5201 56.2622C22.5201 56.2622 19.8354 58.625 17.8113 59.2872L16.8133 63.6783L17.3123 70.7181L15.8153 62.3052Z" fill="black"/>
<path d="M5.7582 41.0187C5.7582 41.0187 20.6859 38.8719 21.6347 38.5303C22.5835 38.1888 24.1437 36.5299 25.6056 36.3975C27.714 36.2163 28.6347 35.7005 29.0353 35.9236C29.4359 36.1466 29.204 37.3594 27.2923 38.154C27.0859 38.2002 26.9039 38.3205 26.7816 38.4917C26.6592 38.663 26.605 38.8731 26.6294 39.0816C26.6538 39.2901 26.7552 39.4822 26.9139 39.6211C27.0726 39.76 27.2775 39.8357 27.4891 39.8337C27.7302 39.8327 27.9689 39.7853 28.1919 39.6944L28.9369 39.3528L30.0473 38.837C30.2792 39.5151 30.2792 40.25 30.0473 40.9281C29.7919 41.4976 29.4202 42.0084 28.9557 42.4283C28.4912 42.8482 27.9439 43.168 27.3485 43.3676C26.0835 43.737 22.3094 42.5451 21.2411 42.803C20.1728 43.0609 19.1327 43.4582 14.705 44.5455C10.8325 45.5004 6.08149 47.1384 2.1317 47.4172L5.7582 41.0187Z" fill="#FFA8A7"/>
<path d="M61.1121 15.6408L55.8973 18.6309C55.8206 18.681 55.7567 18.748 55.7104 18.8265C55.6641 18.9051 55.6366 18.9932 55.6302 19.084V31.3652C55.6302 31.5325 55.7497 31.6022 55.8973 31.5186L61.1121 28.5284C61.1887 28.4783 61.2527 28.4114 61.299 28.3328C61.3453 28.2542 61.3727 28.1661 61.3792 28.0754V15.7941C61.3651 15.6268 61.2456 15.5571 61.1121 15.6408Z" fill="#1A5FFF"/>
<path d="M55.8822 18.6309L61.097 15.6407C61.1194 15.6233 61.1461 15.612 61.1743 15.6081C61.2025 15.6041 61.2312 15.6076 61.2576 15.6182C61.284 15.6289 61.3071 15.6462 61.3246 15.6685C61.3421 15.6908 61.3533 15.7173 61.3571 15.7453C61.3463 15.6638 61.319 15.5853 61.2767 15.5146C61.2344 15.4439 61.1781 15.3825 61.1111 15.3341L60.8932 15.2086C60.8103 15.1675 60.7189 15.1461 60.6262 15.1461C60.5335 15.1461 60.442 15.1675 60.3591 15.2086L55.1442 18.1988C55.0644 18.2456 54.9988 18.313 54.9545 18.3939L55.7065 18.8261C55.7474 18.7473 55.8079 18.6801 55.8822 18.6309Z" fill="#1A5FFF"/>
<path opacity="0.5" d="M55.8822 18.6309L61.097 15.6407C61.1194 15.6233 61.1461 15.612 61.1743 15.6081C61.2025 15.6041 61.2312 15.6076 61.2576 15.6182C61.284 15.6289 61.3071 15.6462 61.3246 15.6685C61.3421 15.6908 61.3533 15.7173 61.3571 15.7453C61.3463 15.6638 61.319 15.5853 61.2767 15.5146C61.2344 15.4439 61.1781 15.3825 61.1111 15.3341L60.8932 15.2086C60.8103 15.1675 60.7189 15.1461 60.6262 15.1461C60.5335 15.1461 60.442 15.1675 60.3591 15.2086L55.1442 18.1988C55.0644 18.2456 54.9988 18.313 54.9545 18.3939L55.7065 18.8261C55.7474 18.7473 55.8079 18.6801 55.8822 18.6309Z" fill="white"/>
<path d="M54.8637 30.9257C54.8674 31.0181 54.8936 31.1082 54.9401 31.1883C54.9866 31.2684 55.052 31.3362 55.1308 31.3857L55.3486 31.5112C55.4247 31.5457 55.5074 31.5635 55.5911 31.5635C55.6748 31.5635 55.7575 31.5457 55.8336 31.5112C55.7071 31.56 55.6157 31.5112 55.6157 31.3369V19.0836C55.6166 18.9921 55.6434 18.9027 55.693 18.8257L54.941 18.3935C54.8921 18.4735 54.8654 18.5649 54.8637 18.6584V30.9257Z" fill="#1A5FFF"/>
<path opacity="0.2" d="M54.8637 30.9257C54.8674 31.0181 54.8936 31.1082 54.9401 31.1883C54.9866 31.2684 55.052 31.3362 55.1308 31.3857L55.3486 31.5112C55.4247 31.5457 55.5074 31.5635 55.5911 31.5635C55.6748 31.5635 55.7575 31.5457 55.8336 31.5112C55.7071 31.56 55.6157 31.5112 55.6157 31.3369V19.0836C55.6166 18.9921 55.6434 18.9027 55.693 18.8257L54.941 18.3935C54.8921 18.4735 54.8654 18.5649 54.8637 18.6584V30.9257Z" fill="black"/>
<path d="M56.782 18.8817C56.6532 18.9693 56.5467 19.0855 56.4711 19.221C56.3955 19.3565 56.3527 19.5077 56.3462 19.6624V20.5964C56.3462 20.8891 56.543 21.0146 56.782 20.8752C56.9108 20.7876 57.0172 20.6714 57.0928 20.5359C57.1685 20.4004 57.2112 20.2493 57.2177 20.0945V19.1606C57.2177 18.8678 57.0209 18.7423 56.782 18.8817Z" fill="#1A5FFF"/>
<path opacity="0.2" d="M56.782 18.8817C56.6532 18.9693 56.5467 19.0855 56.4711 19.221C56.3955 19.3565 56.3527 19.5077 56.3462 19.6624V20.5964C56.3462 20.8891 56.543 21.0146 56.782 20.8752C56.9108 20.7876 57.0172 20.6714 57.0928 20.5359C57.1685 20.4004 57.2112 20.2493 57.2177 20.0945V19.1606C57.2177 18.8678 57.0209 18.7423 56.782 18.8817Z" fill="black"/>
<path d="M56.7819 19.2301C56.7263 19.2641 56.68 19.3112 56.6469 19.367C56.6138 19.4229 56.595 19.486 56.5921 19.5507C56.5921 19.6692 56.6765 19.718 56.7819 19.6622C56.8375 19.6282 56.8839 19.5812 56.9169 19.5253C56.95 19.4694 56.9688 19.4064 56.9717 19.3416C56.9717 19.2231 56.8943 19.1743 56.7819 19.2301Z" fill="#1A5FFF"/>
<path opacity="0.5" d="M56.7819 19.2301C56.7263 19.2641 56.68 19.3112 56.6469 19.367C56.6138 19.4229 56.595 19.486 56.5921 19.5507C56.5921 19.6692 56.6765 19.718 56.7819 19.6622C56.8375 19.6282 56.8839 19.5812 56.9169 19.5253C56.95 19.4694 56.9688 19.4064 56.9717 19.3416C56.9717 19.2231 56.8943 19.1743 56.7819 19.2301Z" fill="black"/>
<path d="M56.7819 19.962C56.7263 19.996 56.68 20.043 56.6469 20.0989C56.6138 20.1548 56.595 20.2179 56.5921 20.2826C56.5921 20.4011 56.6765 20.4499 56.7819 20.3941C56.8376 20.3585 56.8839 20.3102 56.917 20.2532C56.95 20.1962 56.9687 20.1322 56.9717 20.0665C56.9717 19.955 56.8943 19.9062 56.7819 19.962Z" fill="#1A5FFF"/>
<path opacity="0.5" d="M56.7819 19.962C56.7263 19.996 56.68 20.043 56.6469 20.0989C56.6138 20.1548 56.595 20.2179 56.5921 20.2826C56.5921 20.4011 56.6765 20.4499 56.7819 20.3941C56.8376 20.3585 56.8839 20.3102 56.917 20.2532C56.95 20.1962 56.9687 20.1322 56.9717 20.0665C56.9717 19.955 56.8943 19.9062 56.7819 19.962Z" fill="black"/>
<path d="M27.2925 38.1539L54.4632 25.6078L55.0606 27.2876L27.8899 39.8337C26.3578 40.4959 25.8588 38.823 27.2925 38.1539Z" fill="#455A64"/>
<path d="M55.5877 24.6457L55.9883 24.8827C56.1761 24.9753 56.383 25.0236 56.5927 25.0236C56.8025 25.0236 57.0093 24.9753 57.1971 24.8827L58.8417 23.9417C59.179 23.7465 59.4532 23.8581 59.4532 24.1856C59.4322 24.3789 59.366 24.5646 59.2598 24.728C59.1536 24.8913 59.0105 25.0278 58.8417 25.1266L57.2042 26.0606C57.0161 26.1566 56.8077 26.2066 56.5962 26.2066C56.3847 26.2066 56.1763 26.1566 55.9883 26.0606L55.5877 25.8236C55.4211 25.7213 55.2802 25.5829 55.1755 25.4186C55.0708 25.2544 55.005 25.0688 54.9833 24.8757C54.9833 24.5551 55.2574 24.4505 55.5877 24.6457Z" fill="#455A64"/>
<path d="M55.5877 26.8903L55.9883 27.1203C56.1751 27.2162 56.3824 27.2663 56.5927 27.2663C56.8031 27.2663 57.0103 27.2162 57.1971 27.1203L58.8417 26.1793C59.179 25.9911 59.4532 26.0957 59.4532 26.4233C59.4333 26.6168 59.3675 26.803 59.2612 26.9665C59.155 27.13 59.0112 27.2663 58.8417 27.3643L57.2042 28.3052C57.0144 28.3955 56.8067 28.4423 56.5962 28.4423C56.3858 28.4423 56.178 28.3955 55.9883 28.3052L55.5877 28.0752C55.4211 27.9729 55.2802 27.8345 55.1755 27.6702C55.0708 27.506 55.005 27.3204 54.9833 27.1273C54.9833 26.7997 55.2574 26.6951 55.5877 26.8903Z" fill="#455A64"/>
<path d="M54.3644 24.7014V27.2176L55.77 28.0122V24.7432L55.0672 24.325C54.9997 24.2763 54.9197 24.2474 54.8363 24.2419C54.753 24.2364 54.6698 24.2543 54.5963 24.2937C54.5228 24.333 54.462 24.3922 54.421 24.4643C54.38 24.5365 54.3604 24.6187 54.3644 24.7014Z" fill="#455A64"/>
</svg>
