<svg width="29" height="55" viewBox="0 0 29 55" fill="none" xmlns="http://www.w3.org/2000/svg">
<path fill-rule="evenodd" clip-rule="evenodd" d="M28.0337 0.804333C26.966 -0.268112 25.2392 -0.268112 24.1742 0.804333L1.59939 23.5292C1.09407 24.0301 0.691692 24.633 0.416739 25.3012C0.141787 25.9694 0 26.689 0 27.4161C0 28.1433 0.141787 28.8628 0.416739 29.531C0.691692 30.1992 1.09407 30.8021 1.59939 31.303L24.3376 54.1956C24.8537 54.7073 25.5371 54.9948 26.249 54.9999C26.961 55.005 27.6481 54.7273 28.1708 54.2231C28.4298 53.9742 28.637 53.6724 28.7796 53.3365C28.9222 53.0006 28.9972 52.6378 28.9999 52.2704C29.0026 51.9031 28.933 51.5391 28.7954 51.2009C28.6578 50.8628 28.4551 50.5577 28.1998 50.3046L7.38874 29.3589C7.13587 29.1084 6.93451 28.8069 6.79691 28.4727C6.65931 28.1384 6.58835 27.7785 6.58835 27.4147C6.58835 27.051 6.65931 26.6911 6.79691 26.3568C6.93451 26.0226 7.13587 25.7211 7.38874 25.4706L28.0337 4.68989C28.2865 4.43965 28.4878 4.13836 28.6254 3.80435C28.763 3.47035 28.8339 3.11063 28.8339 2.74711C28.8339 2.38359 28.763 2.02387 28.6254 1.68987C28.4878 1.35587 28.2865 1.05457 28.0337 0.804333Z" fill="white"/>
</svg>
