<svg width="39" height="72" viewBox="0 0 39 72" fill="none" xmlns="http://www.w3.org/2000/svg">
<path d="M38.4545 21.4711C39.0171 10.9952 32.1141 1.40997 22.4918 0.145385C12.2801 -1.19301 3.24718 6.86687 2.39881 17.8299L0.00551999 62.0854C-0.0381925 62.9407 0.17868 63.7876 0.621699 64.4916C2.97927 68.2902 7.24791 71.2623 11.0656 71.8478C14.7582 72.4137 18.5044 71.3558 21.6479 69.4269C22.1693 69.1021 22.6042 68.632 22.909 68.0638C23.2138 67.4956 23.3779 66.8492 23.3848 66.1892L23.55 56.2841C23.5493 56.2755 23.5504 56.2668 23.553 56.2587C23.5557 56.2506 23.56 56.2433 23.5655 56.2372C23.571 56.2311 23.5777 56.2264 23.585 56.2234C23.5924 56.2205 23.6003 56.2194 23.6081 56.2201C24.4492 56.29 25.2946 56.2636 26.1308 56.1414C28.5063 55.5017 34.5654 52.9332 36.6015 43.1314C37.2802 39.8838 37.9589 30.6578 38.4545 21.4711Z" fill="#FFBE9D"/>
</svg>
