<svg width="63" height="53" viewBox="0 0 63 53" fill="none" xmlns="http://www.w3.org/2000/svg">
<path opacity="0.1" d="M58.5881 12.6728L58.8892 12.259L59.021 12.0722L59.3472 11.5783C59.3472 11.5383 59.4037 11.4983 59.4288 11.4515C59.5668 11.2335 59.7048 11.0111 59.8428 10.7842C59.857 10.7642 59.8676 10.7416 59.8742 10.7175C59.9997 10.5106 60.1189 10.2904 60.238 10.0501L60.3196 9.88997C60.4262 9.68309 60.5392 9.46954 60.6396 9.22263C60.6628 9.18404 60.6838 9.14392 60.7023 9.1025C61.0955 8.27855 61.4453 7.43195 61.75 6.56662V6.5199C62.5077 4.44017 62.901 2.23044 62.9106 0C60.8522 3.60244 58.2074 6.78638 55.1001 9.40281C51.1289 12.7395 46.4615 15.0819 42.7036 18.6788C38.7263 22.496 35.577 27.3542 32.0952 31.6719C30.6962 33.3936 28.6447 36.8238 26.5118 36.6436C23.9083 36.4234 21.9008 32.6996 20.8092 30.1771C19.0651 26.173 17.7665 21.2681 15.4202 17.6111C13.3688 14.4145 10.094 10.217 6.54952 11.3448C3.34327 19.1242 1.14015 27.3288 0 35.736C0 35.736 0.332495 44.0711 9.41023 49.6167C10.2195 50.1172 11.0576 50.563 11.9196 50.9513C12.1831 50.9981 12.4466 51.0581 12.7038 51.1248C14.0024 51.4852 15.2132 52.1592 16.5495 52.4595L17.0263 52.5596L17.5658 52.6597L18.1429 52.7531L18.6323 52.8266L19.2596 52.9066L19.6925 52.9467L20.37 53H20.7778H21.4679H22.5846H23.0237L23.6511 52.9667L24.1467 52.9267L24.7175 52.8733L25.2633 52.8065L25.784 52.7331L26.4114 52.6263L26.8192 52.5463C27.0889 52.4929 27.3524 52.4395 27.6159 52.3727L27.7853 52.3327C32.7225 51.0981 37.2771 48.1618 39.937 43.4504C39.937 43.4504 39.9998 42.9966 40.1315 42.2426C40.1754 42.0223 40.2193 41.7821 40.2695 41.5152C40.3699 40.9946 40.5016 40.3807 40.6585 39.7067C41.1979 37.3212 41.9586 34.9986 42.9295 32.773C43.2809 31.9895 43.6768 31.2296 44.1152 30.4974C44.3348 30.137 44.5606 29.79 44.799 29.4563L45.1691 29.0026L45.6898 28.3352C48.1051 25.2988 52.5467 19.9001 56.3548 15.3688L58.0674 13.3668L58.4815 12.8463L58.5881 12.6728Z" fill="#629DFF"/>
</svg>
