<svg width="19" height="28" viewBox="0 0 19 28" fill="none" xmlns="http://www.w3.org/2000/svg">
<path d="M9.47977 26.1447C12.3284 25.4218 12.8732 24.2709 12.1156 21.2349C12.094 21.1342 12.0645 21.0356 12.0274 20.9402C11.4722 19.5056 9.24109 20.3564 9.24109 20.3564C9.24109 20.3564 10.1543 19.1387 11.1765 17.5762C12.1987 16.0138 12.6605 13.4616 12.7954 11.66C12.9303 9.85847 13.2053 6.24982 13.2053 6.24982C13.2053 6.24982 15.426 4.82637 14.5595 2.22413L17.9841 0L18.6275 0.478189C19.1548 2.3766 19.1058 4.40546 18.4874 6.27205L15.0473 16.9757C16.4007 19.6004 17.5714 22.3287 18.5496 25.1383C12.152 28.9638 4.58682 28.4745 0 26.4561C3.15007 26.9922 6.36626 26.8866 9.47977 26.1447Z" fill="#E6E6E6"/>
</svg>
