<svg width="132" height="237" viewBox="0 0 132 237" fill="none" xmlns="http://www.w3.org/2000/svg">
<path opacity="0.9" d="M2.86898 235.695V88.8458V66.3682C2.89502 65.6916 3.1259 65.0324 3.53901 64.4551L0.682278 63.0425C0.266927 63.6234 0.032083 64.2855 7.24389e-05 64.966V71.2213V234.309C-0.00275531 234.555 0.0772597 234.798 0.230594 235.006C0.383928 235.215 0.604132 235.382 0.865012 235.487L0.944195 235.529C0.986833 235.529 3.16136 236.571 3.61819 236.821C3.38773 236.707 3.19686 236.543 3.06519 236.345C2.93351 236.147 2.86579 235.923 2.86898 235.695Z" fill="#37474F"/>
<path opacity="0.8" d="M131.72 2.52181C131.712 2.46352 131.698 2.40597 131.678 2.34979C131.678 2.34979 131.678 2.32373 131.678 2.30809C131.669 2.24943 131.652 2.19176 131.629 2.13607C131.595 2.05022 131.55 1.96799 131.495 1.89107C131.476 1.85514 131.452 1.82176 131.422 1.79202C131.405 1.7644 131.382 1.73967 131.355 1.71905C131.312 1.67393 131.263 1.63364 131.209 1.59915C131.148 1.56402 131.085 1.53266 131.02 1.50532C130.771 1.42458 130.503 1.39756 130.24 1.42666C129.976 1.45575 129.725 1.54007 129.509 1.67213L5.11664 63.0267C4.46234 63.3932 3.9176 63.886 3.5262 64.4654C3.13479 65.0448 2.90762 65.6947 2.86294 66.3629V235.695C2.86472 235.92 2.93388 236.141 3.06381 236.336C3.19373 236.531 3.38006 236.695 3.60498 236.811C3.8299 236.927 4.08588 236.992 4.34842 236.999C4.61096 237.006 4.87127 236.956 5.10446 236.852L8.75912 235.033L129.485 175.446C130.139 175.079 130.684 174.585 131.074 174.005C131.465 173.424 131.69 172.773 131.732 172.104V2.7616C131.732 2.6782 131.726 2.59479 131.72 2.52181ZM123.473 157.863L11.0372 213.384V68.792L123.473 13.2602V157.863Z" fill="#455A64"/>
<g opacity="0.5">
<path d="M129.479 1.65133L5.11673 63.0319C4.45595 63.3855 3.911 63.877 3.53305 64.4603L0.68241 63.0424C1.05281 62.4664 1.59238 61.9831 2.24782 61.6401L126.61 0.2543C126.844 0.109962 127.12 0.0234288 127.408 0.0041264C127.696 -0.015176 127.985 0.0334931 128.242 0.144832C128.644 0.353343 130.514 1.26037 130.983 1.47931C130.735 1.40067 130.468 1.37523 130.206 1.40522C129.944 1.4352 129.694 1.5197 129.479 1.65133Z" fill="#37474F"/>
</g>
<path d="M128.066 7.27601L129.04 5.51409C129.101 5.43124 129.133 5.33551 129.133 5.23781C129.133 5.14011 129.101 5.04438 129.04 4.96153C128.924 4.8677 128.736 4.96153 128.626 5.17005L127.651 6.93197L126.677 6.1292C126.561 6.03537 126.378 6.1292 126.263 6.33771C126.203 6.41998 126.172 6.51473 126.172 6.61138C126.172 6.70804 126.203 6.80279 126.263 6.88506L127.231 7.68782L126.263 9.44975C126.203 9.53201 126.172 9.62676 126.172 9.72342C126.172 9.82008 126.203 9.91483 126.263 9.99709C126.292 10.0174 126.328 10.0285 126.366 10.0285C126.404 10.0285 126.44 10.0174 126.47 9.99709C126.562 9.94536 126.635 9.87086 126.677 9.78337L127.651 8.01623L128.626 8.819C128.655 8.83932 128.692 8.8504 128.73 8.8504C128.767 8.8504 128.804 8.83932 128.833 8.819C128.923 8.76509 128.995 8.69123 129.04 8.60528C129.101 8.52243 129.133 8.4267 129.133 8.329C129.133 8.2313 129.101 8.13557 129.04 8.05272L128.066 7.27601Z" fill="#FAFAFA"/>
<g opacity="0.5">
<path d="M123.473 157.853L121.03 156.643L11.0372 210.971V213.379L123.473 157.853Z" fill="#37474F"/>
</g>
<path opacity="0.9" d="M123.473 13.2601L121.03 14.4642V156.643L123.473 157.852V13.2601Z" fill="#37474F"/>
<path d="M22.2815 212.342L34.9571 206.087C35.5662 205.774 36.0961 205.998 36.0961 206.577C36.069 206.905 35.9517 207.223 35.7538 207.504C35.5558 207.786 35.2828 208.024 34.9571 208.198L22.2815 214.453C21.6724 214.766 21.1425 214.542 21.1425 213.963C21.1695 213.635 21.2869 213.318 21.4848 213.036C21.6828 212.754 21.9558 212.516 22.2815 212.342Z" fill="#455A64"/>
<path d="M22.0012 216.022L33.3733 210.403C33.8363 210.174 34.2078 210.241 34.2078 210.549C34.1623 210.754 34.0644 210.947 33.9212 211.116C33.778 211.284 33.593 211.424 33.3794 211.524L22.0012 217.289C21.5444 217.518 21.1729 217.419 21.1729 217.065C21.2094 216.849 21.303 216.642 21.4465 216.462C21.59 216.281 21.7797 216.131 22.0012 216.022Z" fill="#455A64"/>
<path d="M15.7639 213.922C17.8958 212.921 19.5161 213.88 19.3881 216.064C19.2602 218.248 17.4207 220.829 15.2888 221.829C13.1569 222.83 11.5367 221.871 11.6707 219.687C11.8047 217.503 13.6321 214.922 15.7639 213.922Z" fill="#FA00FF"/>
<g opacity="0.4">
<path d="M15.7639 213.922C17.8958 212.921 19.5161 213.88 19.3881 216.064C19.2602 218.248 17.4207 220.829 15.2888 221.829C13.1569 222.83 11.5367 221.871 11.6707 219.687C11.8047 217.503 13.6321 214.922 15.7639 213.922Z" fill="white"/>
</g>
<path d="M15.484 215.423C16.0322 215.152 16.4768 215.371 16.4768 215.913C16.458 216.207 16.3583 216.494 16.1858 216.749C16.0133 217.005 15.7728 217.222 15.484 217.383C14.9358 217.654 14.4911 217.435 14.4911 216.893C14.5099 216.598 14.6097 216.312 14.7822 216.056C14.9547 215.801 15.1951 215.584 15.484 215.423Z" fill="white"/>
<path d="M17.4391 218.525C17.4391 217.633 16.7082 217.242 15.8067 217.685L15.2463 217.962C14.7715 218.227 14.3763 218.584 14.0927 219.004C13.8091 219.424 13.6451 219.896 13.6139 220.38V220.62C13.6139 220.62 13.9976 221.298 15.5265 220.526C16.3845 220.133 17.0594 219.5 17.4391 218.733V218.525Z" fill="white"/>
<path opacity="0.3" d="M12.5723 226.641C12.5723 227.256 13.1144 227.48 13.7905 227.162L88.1019 190.438C88.4473 190.255 88.7374 190.004 88.949 189.707C89.1606 189.41 89.2878 189.075 89.3202 188.728C89.3202 188.118 88.7781 187.889 88.1019 188.207L13.7905 224.931C13.4435 225.113 13.152 225.363 12.9402 225.66C12.7284 225.957 12.6023 226.294 12.5723 226.641Z" fill="black"/>
<path d="M85.5741 181.091L88.8755 179.465C89.4846 179.163 89.9841 179.376 89.9841 179.939C89.9544 180.256 89.8387 180.562 89.6463 180.834C89.4538 181.105 89.1898 181.334 88.8755 181.503L85.5741 183.13C84.965 183.427 84.4716 183.218 84.4716 182.655C84.5001 182.339 84.6147 182.033 84.8061 181.761C84.9975 181.49 85.2605 181.26 85.5741 181.091Z" fill="#EBEBEB"/>
<path d="M102.733 172.626L106.058 170.999C106.668 170.697 107.167 170.911 107.167 171.474C107.14 171.791 107.026 172.098 106.833 172.37C106.64 172.642 106.375 172.871 106.058 173.037L102.757 174.664C102.148 174.966 101.655 174.758 101.655 174.189C101.679 173.875 101.789 173.569 101.976 173.298C102.163 173.026 102.422 172.796 102.733 172.626Z" fill="#EBEBEB"/>
<path d="M119.24 164.463L122.541 162.836C123.15 162.534 123.644 162.748 123.644 163.311C123.616 163.627 123.502 163.933 123.31 164.205C123.119 164.477 122.855 164.706 122.541 164.874L119.24 166.501C118.631 166.803 118.137 166.589 118.137 166.026C118.165 165.71 118.279 165.404 118.471 165.132C118.662 164.86 118.926 164.631 119.24 164.463Z" fill="#EBEBEB"/>
<path d="M80.8596 186.533C80.8211 186.533 80.7833 186.524 80.75 186.507L80.1409 186.221L79.9582 186.142C79.5748 186.049 79.2451 185.837 79.0317 185.549C78.8183 185.261 78.7362 184.915 78.8008 184.579C78.7892 184.288 78.8629 184 79.0151 183.741C79.1672 183.481 79.3931 183.258 79.6719 183.093C79.7842 183.044 79.9086 183.02 80.0345 183.021C80.1603 183.023 80.2839 183.05 80.3946 183.101C80.5054 183.153 80.6 183.226 80.6703 183.315C80.7407 183.405 80.7848 183.507 80.7987 183.614C80.8429 183.088 81.0892 182.59 81.4992 182.196C81.6257 182.1 81.7804 182.035 81.9468 182.009C82.1131 181.982 82.2847 181.995 82.4433 182.045C82.5966 182.115 82.7246 182.22 82.8137 182.347C82.9027 182.475 82.9495 182.621 82.9489 182.77C83.0463 183.656 82.419 184.532 81.9134 185.23C81.822 185.35 81.7611 185.444 81.7002 185.527L81.0911 186.434C81.0691 186.469 81.0351 186.497 80.9936 186.515C80.9522 186.533 80.9054 186.539 80.8596 186.533Z" fill="#FAFAFA"/>
<path d="M99.803 173.814C99.803 173.455 99.5045 173.293 99.1451 173.491L95.125 175.477C94.933 175.584 94.7732 175.727 94.6588 175.897C94.5444 176.066 94.4787 176.257 94.4672 176.452V178.808C94.4672 179.168 94.7656 179.33 95.1311 179.137L96.2397 178.615L96.2031 179.429C96.2038 179.44 96.2082 179.451 96.216 179.46C96.2238 179.469 96.2345 179.476 96.2469 179.48C96.2592 179.484 96.2726 179.484 96.2854 179.482C96.2982 179.479 96.3098 179.473 96.3188 179.465L97.9634 177.776L99.139 177.198C99.3318 177.092 99.4926 176.948 99.608 176.778C99.7234 176.609 99.7902 176.419 99.803 176.223V173.814Z" fill="#FAFAFA"/>
<path d="M117.078 166.501L114.434 165.792V166.996C113.88 167.309 112.789 167.554 111.815 168.799C110.359 170.666 111.413 171.724 111.906 171.802C111.906 171.802 111.133 171.348 111.985 170.014C112.574 169.277 113.43 168.727 114.422 168.45V169.826L117.078 166.501Z" fill="#FAFAFA"/>
</svg>
