<svg width="25" height="25" viewBox="0 0 25 25" fill="none" xmlns="http://www.w3.org/2000/svg">
<g clip-path="url(#clip0_481_4655)">
<path d="M0.5 19.5586H15V24.4416L18 22.6416L21 24.4416V19.5586H24.5V0.558594H0.5V19.5586ZM20.1325 16.1656C20.0875 16.2111 20.0395 16.2531 19.992 16.2956C19.965 16.3196 19.94 16.3451 19.912 16.3681C19.881 16.3941 19.848 16.4161 19.816 16.4406C19.3852 16.7717 18.872 16.9787 18.332 17.0391L18.3045 17.0431C18.1013 17.0633 17.8967 17.0633 17.6935 17.0431L17.666 17.0391C17.126 16.9786 16.6129 16.7716 16.182 16.4406C16.15 16.4161 16.117 16.3936 16.086 16.3681C16.0585 16.3451 16.033 16.3196 16.006 16.2956C15.9585 16.2531 15.911 16.2111 15.8655 16.1656C15.3096 15.6053 14.9977 14.8479 14.998 14.0586C14.998 12.4041 16.3435 11.0586 17.998 11.0586C19.6525 11.0586 20.998 12.4041 20.998 14.0586C21 14.8478 20.6887 15.6056 20.1325 16.1656ZM20 22.6756L18 21.4756L16 22.6756V17.5236C16.017 17.5336 16.036 17.5401 16.0535 17.5496C16.186 17.6236 16.3225 17.6916 16.4635 17.7506L16.4825 17.7576C17.4546 18.1593 18.5464 18.1593 19.5185 17.7576L19.5375 17.7506C19.6785 17.6916 19.815 17.6241 19.9475 17.5496C19.965 17.5401 19.984 17.5336 20.001 17.5236V22.6756H20ZM1.5 1.55859H23.5V18.5586H21V16.6956C21.6442 15.9682 21.9999 15.0302 22 14.0586C22 11.8531 20.2055 10.0586 18 10.0586C15.7945 10.0586 14 11.8531 14 14.0586C14 15.0691 14.3795 15.9906 15 16.6956V18.5586H1.5V1.55859Z" fill="#515151"/>
<path d="M6 3.55859H19V4.55859H6V3.55859ZM8.5 6.55859H16.5V7.55859H8.5V6.55859ZM3.5 15.5586H9V16.5586H3.5V15.5586Z" fill="#515151"/>
</g>
<defs>
<clipPath id="clip0_481_4655">
<rect width="25" height="25" fill="white"/>
</clipPath>
</defs>
</svg>
