<svg width="47" height="84" viewBox="0 0 47 84" fill="none" xmlns="http://www.w3.org/2000/svg">
<path d="M12.3479 28.1873C12.3479 27.954 9.04707 13.1475 8.79415 12.0285L11.5848 7.87642C11.5848 7.87642 12.6051 6.89998 12.2879 6.46361C11.9706 6.02723 11.4305 5.97106 10.8261 6.36855C10.4446 6.62347 8.44265 7.69064 8.44265 7.69064C8.44265 7.69064 7.68389 1.68076 7.52528 1.24871C7.36667 0.816656 6.95085 0.60927 6.66793 0.924669C6.385 1.24007 6.46217 5.31434 6.46217 5.31434C6.46217 5.31434 4.85463 0.293864 4.51169 0.0951195C4.42902 0.0439686 4.33588 0.0124792 4.23932 0.00302058C4.14277 -0.00643805 4.04536 0.00638541 3.95446 0.0405326C3.86356 0.0746798 3.78157 0.129243 3.71472 0.200087C3.64786 0.270932 3.5979 0.356198 3.56862 0.449407C3.56862 0.648152 4.6703 6.03155 4.6703 6.03155C4.6703 6.03155 2.09825 1.12342 1.66958 1.27896C1.50292 1.32105 1.35484 1.4177 1.24856 1.55375C1.14227 1.68981 1.08379 1.85757 1.08229 2.03073C1.04371 2.38501 2.79699 7.56534 2.79699 7.56534C2.79699 7.56534 0.833666 3.76758 0.482153 3.88855C0.307914 3.98508 0.16894 4.13534 0.0856204 4.31729C0.00230118 4.49923 -0.0209862 4.70331 0.0191763 4.89957C0.0706173 5.24522 2.51407 12.7327 2.96846 14.111L4.00586 31.8252L11.0661 47.189L17.432 38.2109C17.432 38.2109 12.3479 28.4336 12.3479 28.1873Z" fill="#FFBE9D"/>
<path d="M21.4488 32.6979C21.4488 32.6979 20.5915 45.2275 22.2548 47.189C23.918 49.1506 27.3131 48.6407 27.3131 48.6407L29.5165 37.9733L21.4488 32.6979Z" fill="#FFBE9D"/>
<path d="M17.685 38.2628L20.9086 42.8426L28.1961 46.6965L44.7687 55.4542C45.6207 55.9048 46.2907 56.6401 46.6638 57.534C47.0369 58.4279 47.0898 59.4248 46.8134 60.3537L46.239 62.285L40.0232 77.7785L40.3405 84L7.25962 83.9525C7.25962 83.9525 14.6971 59.5804 14.9329 58.0293C15.1687 56.4782 13.7412 54.4173 13.7412 54.4173C13.7412 54.4173 9.45443 51.3929 9.45443 51.043C9.45443 50.693 10.046 38.8677 17.685 38.2628Z" fill="#FFC727"/>
<path d="M16.9051 64.1515C16.8623 64.1515 16.9051 63.5553 16.8366 62.6091C16.7887 62.0536 16.7027 61.5022 16.5793 60.9587C16.4244 60.294 16.2268 59.6403 15.9878 59.0015C15.5352 57.8494 14.9814 56.7404 14.3331 55.6876C13.8358 54.8753 13.4972 54.3914 13.5272 54.3914C13.6314 54.483 13.7236 54.5875 13.8015 54.7025C13.973 54.9099 14.2002 55.2253 14.466 55.6271C15.159 56.6696 15.7342 57.7869 16.1807 58.9583C16.4259 59.6063 16.6223 60.2721 16.768 60.95C16.883 61.5052 16.9547 62.0686 16.9823 62.635C16.9823 62.877 16.9823 63.0973 16.9823 63.2874C16.9838 63.452 16.9752 63.6165 16.9566 63.78C16.9564 63.9056 16.9391 64.0307 16.9051 64.1515Z" fill="#263238"/>
<path d="M35.7411 76.0503C35.5358 76.15 35.3221 76.231 35.1024 76.2922C34.6737 76.4348 34.0821 76.6292 33.332 76.8625C31.8359 77.3335 29.7568 77.947 27.4463 78.5908C25.1357 79.2345 23.0352 79.753 21.5091 80.1116C20.7461 80.293 20.1245 80.4313 19.6958 80.522C19.4757 80.5826 19.2503 80.6216 19.0228 80.6387C19.2348 80.555 19.4525 80.4872 19.6744 80.4356L21.4705 79.956L27.3905 78.3704L33.2891 76.7199L35.0767 76.2188C35.2934 76.1451 35.5156 76.0887 35.7411 76.0503Z" fill="#263238"/>
<path d="M46.5522 60.6605L46.2822 60.5741C46.0223 60.478 45.7576 60.3958 45.4891 60.3278C44.4616 60.0587 43.3966 59.9652 42.3383 60.0513C40.6601 60.1808 39.051 60.7793 37.6915 61.7795C36.8439 62.3989 36.1049 63.1568 35.5053 64.0219C34.8213 64.9788 34.3517 66.0741 34.1292 67.232C34.0142 67.8506 34.0303 68.4866 34.1764 69.0985C34.326 69.735 34.6914 70.2988 35.2095 70.6928C35.7784 71.0828 36.4505 71.2914 37.1385 71.2914C37.8266 71.2914 38.4987 71.0828 39.0676 70.6928C39.6447 70.229 40.0817 69.6118 40.3294 68.911C40.5771 68.2102 40.6255 67.4536 40.4693 66.7265C40.2977 65.955 39.9455 65.2359 39.4422 64.6294C38.9388 64.0229 38.2989 63.5465 37.5758 63.2398C36.0449 62.5675 34.3272 62.4634 32.7275 62.946C31.8985 63.1685 31.1007 63.4951 30.3526 63.9182C29.585 64.341 28.8662 64.8481 28.2092 65.4303C26.8568 66.6303 25.7876 68.1198 25.0799 69.7898C24.7217 70.6428 24.4739 71.5388 24.3426 72.4555C24.2772 72.9148 24.2499 73.3787 24.2611 73.8424C24.2635 74.301 24.3926 74.7499 24.6341 75.1386C24.7637 75.3196 24.9287 75.472 25.1188 75.5865C25.309 75.7009 25.5204 75.7749 25.7401 75.804C26.1889 75.8746 26.6474 75.8496 27.0861 75.7305C27.9661 75.5008 28.7373 74.9652 29.2638 74.2183C29.7661 73.4798 29.9953 72.587 29.9115 71.6956C29.8277 70.8042 29.4361 69.9707 28.8051 69.3404C28.175 68.736 27.4016 68.3046 26.5588 68.0875C25.7351 67.8559 24.879 67.7639 24.0254 67.8153C22.3611 67.9216 20.7421 68.4045 19.2885 69.2281C17.9021 70.0068 16.6953 71.0729 15.7476 72.3562C14.8431 73.5918 14.1916 75.0392 14.243 76.4909C14.2543 77.1851 14.4748 77.8594 14.8752 78.4242C15.2756 78.9891 15.8371 79.4179 16.485 79.6536C16.7924 79.7455 17.1151 79.7745 17.4338 79.7389C17.7526 79.7033 18.0611 79.6038 18.3411 79.4462C18.8797 79.1413 19.3246 78.6929 19.6272 78.15C20.1569 77.0972 20.2967 75.8885 20.0215 74.7411C19.8222 73.7072 19.4527 72.7142 18.9284 71.8031C17.9553 70.0965 16.3949 69.0639 15.0103 68.9991C14.4029 68.9537 13.7927 69.0361 13.2185 69.2411C12.7976 69.393 12.4102 69.6263 12.0782 69.928C11.8108 70.1792 11.5838 70.4707 11.4052 70.7921C11.4052 70.7921 11.4437 70.7057 11.5295 70.5372C11.6713 70.2951 11.8458 70.0741 12.0482 69.8805C12.4499 69.5197 12.9209 69.2461 13.4319 69.0767C13.943 68.9072 14.4832 68.8455 15.0189 68.8954C16.4335 68.9473 18.0411 69.9928 19.0356 71.7211C19.572 72.6437 19.953 73.6497 20.163 74.6979C20.4496 75.8807 20.3082 77.1277 19.7643 78.2148C19.4452 78.7877 18.9748 79.2603 18.4054 79.5801C18.1056 79.7496 17.7751 79.8569 17.4335 79.8955C17.0918 79.934 16.746 79.9032 16.4164 79.8048C15.7327 79.5607 15.1392 79.1123 14.7149 78.5195C14.2906 77.9266 14.0557 77.2175 14.0415 76.4866C13.9815 74.9701 14.6545 73.4882 15.5719 72.2266C16.5597 70.8857 17.8244 69.7769 19.2786 68.9765C20.7329 68.1761 22.3422 67.7033 23.9954 67.5906C24.8731 67.5347 25.754 67.6267 26.6017 67.8628C27.4772 68.0908 28.2819 68.5364 28.9423 69.159C29.6097 69.8262 30.0241 70.7082 30.1134 71.6514C30.2026 72.5946 29.9612 73.5396 29.431 74.322C28.8726 75.1125 28.0562 75.6799 27.1247 75.9249C26.6553 76.0523 26.1646 76.0788 25.6843 76.0027C25.4358 75.9687 25.1966 75.8842 24.9815 75.7542C24.7663 75.6242 24.5796 75.4515 24.4326 75.2466C24.1621 74.8266 24.0136 74.3387 24.0039 73.8381C23.9935 73.3599 24.0222 72.8815 24.0897 72.408C24.2212 71.4717 24.4734 70.5567 24.8398 69.6861C25.5701 67.9901 26.667 66.48 28.0506 65.2662C28.7212 64.6722 29.456 64.1562 30.2411 63.728C31.0038 63.2966 31.8177 62.9642 32.6632 62.7387C34.3108 62.2461 36.0781 62.3563 37.6529 63.0497C38.4053 63.3713 39.0703 63.8698 39.5923 64.5034C40.1144 65.1371 40.4783 65.8875 40.6537 66.6919C40.8161 67.4554 40.7624 68.2495 40.4987 68.9836C40.2349 69.7178 39.7717 70.3624 39.1619 70.844C38.5618 71.2549 37.8521 71.4728 37.1266 71.469C36.4011 71.4651 35.6938 71.2397 35.098 70.8224C34.5526 70.4019 34.1668 69.8056 34.0049 69.1331C33.8583 68.4977 33.8437 67.8387 33.962 67.1975C34.1958 66.0183 34.6799 64.904 35.381 63.9311C35.9919 63.0563 36.7456 62.2922 37.6101 61.6715C38.7389 60.8636 40.0324 60.3199 41.3962 60.08C42.76 59.84 44.1598 59.9099 45.4934 60.2846C45.8558 60.3808 46.2099 60.5066 46.5522 60.6605Z" fill="#FAFAFA"/>
<path d="M24.4155 47.0464C24.1894 47.4558 23.9 47.8263 23.5581 48.1438C22.6611 49.0463 21.5155 49.6559 20.2702 49.8936C19.4087 50.0597 18.5212 50.0302 17.6724 49.8072C16.6978 49.5472 15.7967 49.062 15.0404 48.3901C14.6329 48.0282 14.2741 47.6142 13.973 47.1587C13.6463 46.6847 13.4081 46.1547 13.2699 45.5947C13.1868 45.3003 13.1622 44.9923 13.1975 44.6883C13.2329 44.3843 13.3274 44.0904 13.4757 43.8233C13.6508 43.5564 13.889 43.3377 14.1689 43.1869C14.4488 43.036 14.7615 42.9578 15.0789 42.9592C15.6988 42.9484 16.3092 43.113 16.8408 43.4344C17.3479 43.7564 17.7853 44.1781 18.1268 44.6744C18.7399 45.6224 19.04 46.7414 18.9842 47.8716C18.9602 48.3939 18.8635 48.9102 18.697 49.4054C18.5327 49.8674 18.3047 50.3037 18.0197 50.7016C17.488 51.4062 16.7953 51.9709 16.0006 52.3477C14.8553 52.8978 13.5712 53.0847 12.3183 52.8835C11.863 52.8197 11.4196 52.6886 11.0022 52.4946C11.4386 52.6231 11.8824 52.7241 12.3311 52.797C13.563 52.9599 14.8153 52.754 15.932 52.2051C16.6961 51.8293 17.3603 51.2754 17.8696 50.5893C18.141 50.2024 18.3574 49.7792 18.5126 49.332C18.6676 48.8524 18.757 48.3539 18.7784 47.85C18.828 46.7662 18.537 45.6942 17.9468 44.7868C17.6283 44.3181 17.2184 43.9197 16.7422 43.6159C16.2466 43.3179 15.6772 43.1681 15.1004 43.1838C14.8207 43.1788 14.5443 43.2447 14.2964 43.3752C14.0485 43.5058 13.8371 43.697 13.6815 43.9313C13.5475 44.1739 13.4626 44.4409 13.4317 44.7167C13.4008 44.9926 13.4245 45.2719 13.5014 45.5385C13.6338 46.071 13.8588 46.5757 14.1659 47.0291C14.4553 47.4718 14.8012 47.8741 15.1947 48.2259C15.9248 48.8812 16.7945 49.3586 17.7367 49.6214C18.559 49.8424 19.4194 49.8793 20.2573 49.7295C21.4806 49.5086 22.6131 48.9319 23.5153 48.0704C23.8378 47.7498 24.1386 47.4077 24.4155 47.0464Z" fill="#FAFAFA"/>
<path d="M39.6249 82.652C39.5992 82.6866 39.252 82.4101 38.6004 82.1552C37.7578 81.8096 36.8356 81.711 35.9399 81.8708C35.0441 82.0305 34.2114 82.4421 33.5377 83.0581C33.0147 83.5248 32.7833 83.9223 32.749 83.879C32.7147 83.8358 32.7833 83.771 32.8904 83.6025C33.0447 83.362 33.2259 83.1402 33.4306 82.9415C34.1066 82.268 34.9688 81.8162 35.904 81.6453C36.8391 81.484 37.8007 81.609 38.6647 82.0039C38.923 82.1198 39.1675 82.2647 39.3934 82.436C39.5435 82.5613 39.6249 82.6434 39.6249 82.652Z" fill="#FAFAFA"/>
<g opacity="0.3">
<path d="M34.9092 48.0575C31.6898 46.6317 28.0761 46.4719 24.6767 44.8906L20.7029 42.7908C21.0887 43.4043 22.1775 43.9141 22.439 44.843C22.6329 45.7939 22.6705 46.7703 22.5505 47.7335C22.4179 50.3168 22.64 52.9063 23.2106 55.4284C23.5664 56.9967 24.2438 58.7422 25.757 59.2693C26.7644 59.6193 27.8746 59.3169 28.8992 59.0144C33.4688 57.6578 38.9259 56.1931 43.4955 54.8365C42.1324 51.5658 38.1243 49.479 34.9092 48.0575Z" fill="black"/>
</g>
<path d="M45.3217 33.2207C44.8245 30.8055 44.1043 28.3385 42.4925 26.4806C40.6192 24.3204 37.7256 23.2359 34.8749 23.0545C32.4315 22.8989 31.9471 21.6892 29.4522 22.0996C28.4918 22.268 27.5731 22.6231 26.7472 23.1452C23.2535 25.3055 21.2988 28.857 20.2785 33.0349C19.897 34.599 19.8799 36.5475 21.1745 37.4894C22.1133 38.172 23.4422 38.0813 24.3895 38.751C25.4398 39.4984 25.7098 40.9847 25.4912 42.2636C25.2726 43.5425 24.6725 44.7177 24.3167 45.962C23.4593 48.9863 24.0809 52.2008 24.711 55.2771L42.9211 54.7456C43.6242 54.724 44.3915 54.6765 44.9016 54.1883C45.2925 53.7311 45.5296 53.1609 45.5789 52.5594C46.7243 46.1562 46.637 39.5907 45.3217 33.2207Z" fill="#263238"/>
<path d="M21.6418 33.6009C21.6349 33.4313 21.6493 33.2614 21.6847 33.0954C21.7061 32.8992 21.739 32.7044 21.7833 32.5121C21.8347 32.2831 21.8776 32.0239 21.9633 31.7431C22.1415 31.0808 22.3709 30.4337 22.6492 29.8075C22.9929 29.0431 23.4016 28.3102 23.8709 27.617C24.3512 26.9281 24.8875 26.2807 25.4742 25.6813C25.956 25.1975 26.4749 24.7526 27.026 24.3506C27.2532 24.1735 27.4804 24.0352 27.6733 23.9186C27.8366 23.809 28.0054 23.7081 28.1791 23.6161C28.3215 23.5261 28.474 23.4536 28.6335 23.4001C28.6549 23.4347 28.0248 23.7803 27.1203 24.4889C26.5899 24.9028 26.0886 25.3532 25.6199 25.8369C25.0516 26.4346 24.5286 27.0744 24.0553 27.7509C23.5935 28.4382 23.185 29.1605 22.8335 29.9112C22.5517 30.525 22.3112 31.1572 22.1134 31.8036C21.779 32.8923 21.6847 33.6095 21.6418 33.6009Z" fill="#455A64"/>
<path d="M23.811 36.1976C23.7763 35.7885 23.7892 35.3766 23.8496 34.9706C23.9437 33.9851 24.1143 33.0085 24.3598 32.0499C24.605 31.092 24.9232 30.1545 25.3114 29.2458C25.455 28.8612 25.642 28.4944 25.8687 28.1527C25.7532 28.5457 25.61 28.9297 25.44 29.302C24.7536 31.1404 24.2664 33.0482 23.9868 34.9922C23.9571 35.3977 23.8984 35.8006 23.811 36.1976Z" fill="#455A64"/>
<path d="M41.6181 51.4535C41.5809 51.3587 41.5536 51.2602 41.5366 51.1597C41.4852 50.9652 41.4295 50.6714 41.3609 50.2955C41.1957 49.2277 41.1111 48.1488 41.108 47.0681C41.108 45.7028 41.198 44.074 41.3437 42.2766C41.5349 40.3342 41.6236 38.3829 41.6095 36.4309C41.6018 34.4837 41.2536 32.5531 40.5807 30.7278C40.0065 29.2476 39.1184 27.9117 37.9786 26.8134C37.2067 26.0763 36.2996 25.4981 35.308 25.1111C35.0369 25.0103 34.7607 24.9237 34.4807 24.8519C34.3807 24.8318 34.283 24.8014 34.1892 24.7612C34.2902 24.7692 34.3906 24.7851 34.4892 24.8087C34.7805 24.8583 35.0673 24.932 35.3466 25.029C36.3663 25.3891 37.3017 25.9567 38.0944 26.6968C39.2707 27.7968 40.1889 29.1473 40.7822 30.65C41.4747 32.4964 41.8333 34.4528 41.841 36.4266C41.8567 38.3862 41.7623 40.3451 41.5581 42.2939C41.3995 44.0913 41.2837 45.7071 41.2752 47.0681C41.2621 48.1426 41.3237 49.2167 41.4595 50.2826C41.5109 50.6585 41.5538 50.9523 41.5881 51.1467C41.6098 51.2474 41.6199 51.3504 41.6181 51.4535Z" fill="#455A64"/>
<path d="M39.9163 51.1812C39.8293 50.7253 39.7806 50.2628 39.7706 49.7986C39.7192 48.9345 39.6849 47.7593 39.7063 46.4459C39.7277 45.1324 39.8177 43.9529 39.9035 43.1018C39.9275 42.637 39.9949 42.1755 40.105 41.7235C40.1202 42.1862 40.1059 42.6495 40.0621 43.1104C40.0149 43.9745 39.9592 45.1454 39.9292 46.4502C39.8992 47.755 39.9292 48.9388 39.9292 49.7943C39.9599 50.2562 39.9556 50.7199 39.9163 51.1812Z" fill="#455A64"/>
</svg>
