<svg width="53" height="27" viewBox="0 0 53 27" fill="none" xmlns="http://www.w3.org/2000/svg">
<path d="M0 26.9523C0.0383609 26.9092 0.080815 26.8707 0.126632 26.8376L0.51558 26.5336L2.01255 25.3724L7.54818 21.146L25.8646 7.2858L31.1832 3.29868C34.2094 1.79396 37.4029 0.736529 40.6806 0.153843C43.3282 -0.258241 46.0277 0.161542 48.4685 1.36493C49.3813 1.8327 50.2221 2.4549 50.9604 3.20897C51.5126 3.77607 51.9824 4.4333 52.3533 5.15767C52.5866 5.61173 52.7689 6.09541 52.8961 6.59802C52.9277 6.76249 52.9549 6.89207 52.9775 6.99175C52.9874 7.03608 52.995 7.081 53.0001 7.12631C52.8375 6.45403 52.5973 5.8075 52.2855 5.20253C51.9054 4.49706 51.433 3.8572 50.8835 3.30365C50.1431 2.57288 49.3077 1.96814 48.4051 1.50946C45.9878 0.351464 43.3256 -0.0420025 40.7168 0.373135C37.4655 0.960254 34.2972 2.01069 31.2917 3.49803H31.3143L25.9958 7.48515L7.66577 21.2955L2.08491 25.4571L0.565322 26.5735L0.16282 26.8626C0.111518 26.8986 0.0569466 26.9287 0 26.9523Z" fill="#263238"/>
</svg>
