<svg width="42" height="29" viewBox="0 0 42 29" fill="none" xmlns="http://www.w3.org/2000/svg">
<path d="M2.2674 6.17841C7.11347 6.31962 7.61457 7.22439 12.1429 11.8633L17.655 17.5586C19.3356 14.0598 23.4239 6.90536 25.1167 4.24859C26.8094 1.59181 27.9583 1.0636 30.6166 0.629519C33.2749 0.19544 35.646 -0.243866 36.9599 0.158834C38.2738 0.561534 41.9037 2.25078 41.8487 3.26014C41.801 4.24113 41.3707 5.18017 40.6265 5.92738C40.1747 6.36834 39.56 6.66363 38.8849 6.76416C38.0079 6.85203 37.1511 7.05121 36.3427 7.35514C35.371 7.6637 34.0266 8.2076 33.0182 8.43249C31.3255 8.80904 30.311 8.53186 29.816 9.12806C29.1561 9.923 27.7138 19.6349 24.0228 25.8113C22.8006 27.9033 19.5739 30.5182 15.9745 27.9033C9.86344 23.4318 2.4385 16.7898 2.4385 16.7898C0.165189 13.3381 -1.58868 7.70031 2.2674 6.17841Z" fill="#FFBDA7"/>
</svg>
