<svg width="11" height="12" viewBox="0 0 11 12" fill="none" xmlns="http://www.w3.org/2000/svg">
<path d="M11 6.39857C10.7352 6.63534 10.448 6.84233 10.1431 7.01625L7.72887 8.60006L4.1299 10.8411C3.42036 11.3797 2.56494 11.6577 1.69333 11.633C1.20727 11.5804 0.758969 11.3309 0.441518 10.9362C0.136461 10.5155 -0.0192085 9.99389 0.00189547 9.46323C0.109338 8.48192 0.505722 7.56177 1.13448 6.83412C1.64862 6.14225 2.19577 5.47881 2.77377 4.84644C3.75769 3.78402 4.83287 2.82165 5.98527 1.97184C6.75967 1.39682 7.5714 0.880798 8.41439 0.427634C8.7121 0.244316 9.02993 0.100685 9.3607 0C9.08365 0.216661 8.78946 0.407431 8.48145 0.57017C7.91515 0.926526 7.09551 1.46503 6.14174 2.20941C5.02811 3.07984 3.98841 4.05231 3.03456 5.11569C2.46729 5.73656 1.93485 6.39233 1.43999 7.07961C0.864922 7.73547 0.497521 8.56622 0.389354 9.4553C0.370223 9.88769 0.494127 10.3136 0.739565 10.659C0.991326 10.9755 1.3498 11.1745 1.73805 11.2133C2.53407 11.2502 3.31945 11.0081 3.97343 10.5244L7.61711 8.3625L10.0909 6.92914C10.3771 6.72154 10.6816 6.54386 11 6.39857Z" fill="#EB996E"/>
</svg>
