<svg width="23" height="25" viewBox="0 0 23 25" fill="none" xmlns="http://www.w3.org/2000/svg">
<path d="M23.0001 6.10967L21.2402 5.94615C21.4522 5.81654 21.6279 5.6283 21.7488 5.40108C21.926 5.03304 21.9662 4.60668 21.8614 4.20808C21.7566 3.80948 21.5146 3.46833 21.1842 3.25351L20.05 5.46649C19.1011 3.71711 17.7199 2.28245 16.0586 1.32068C14.3974 0.358902 12.5205 -0.0926507 10.6351 0.0157966L9.72459 0.0648549C8.37757 0.141547 7.05786 0.501868 5.84082 1.12524C4.62379 1.74861 3.53327 2.62281 2.63157 3.69792C1.72988 4.77302 1.03467 6.02795 0.585654 7.39104C0.136637 8.75413 -0.0573906 10.1987 0.0146607 11.6421C0.324931 17.9104 0.67081 24.9255 0.67081 24.9255L11.2403 24.3204C12.6706 24.2444 14.0728 23.8663 15.3663 23.2078C16.6598 22.5493 17.8192 21.6234 18.7777 20.4832C19.7362 19.3431 20.4751 18.0112 20.9518 16.5641C21.4285 15.117 21.6337 13.5833 21.5555 12.0509L21.4742 10.4157C21.4227 9.38576 21.2343 8.36895 20.9147 7.39603C21.0735 7.48222 21.246 7.53583 21.4233 7.5541C21.8094 7.57861 22.1894 7.44184 22.4834 7.1725C22.7774 6.90317 22.9626 6.52222 23.0001 6.10967Z" fill="#455A64"/>
</svg>
