<svg width="25" height="18" viewBox="0 0 25 18" fill="none" xmlns="http://www.w3.org/2000/svg">
<path opacity="0.15" d="M0.00496337 15.8466C0.0504166 16.2471 0.0857698 16.6368 0.116072 17.0102C0.108175 17.0902 0.122625 17.1709 0.157601 17.2421C0.192577 17.3132 0.246495 17.3717 0.312512 17.4099C0.378528 17.4482 0.45367 17.4646 0.528394 17.457C0.603118 17.4495 0.674055 17.4183 0.732209 17.3674L24.4689 2.68445C24.6378 2.56933 24.7756 2.40885 24.8686 2.21896C24.9616 2.02906 25.0067 1.81637 24.9992 1.60204C24.9689 1.21237 24.9285 0.828115 24.8881 0.438446C24.8872 0.356024 24.8648 0.2755 24.8236 0.205912C24.7824 0.136325 24.7239 0.0804263 24.6547 0.044465C24.5854 0.00850375 24.5083 -0.00609382 24.4317 0.00231535C24.3552 0.0107245 24.2824 0.0418145 24.2214 0.0920817L0.484746 14.7696C0.321084 14.8856 0.18996 15.0471 0.105437 15.2368C0.0209146 15.4265 -0.0138163 15.6373 0.00496337 15.8466Z" fill="black"/>
</svg>
