<svg width="151" height="217" viewBox="0 0 151 217" fill="none" xmlns="http://www.w3.org/2000/svg">
<path d="M57.1557 44.1997L15.5069 46.5516C12.9163 55.2622 12.5407 63.6709 15.3743 72.2981C16.1863 74.7593 17.3794 77.361 20.1247 78.792C22.5828 80.072 25.7755 80.1501 28.7693 80.1188C43.2457 79.9776 57.6648 78.3833 71.7825 75.3629C69.0206 73.9216 67.4408 71.2835 67.8054 68.739C68.993 71.2262 72.379 72.9329 75.87 73.037C77.5499 73.0819 79.2217 72.8032 80.7832 72.218C82.3447 71.6329 83.7629 70.7536 84.951 69.634C73.1247 64.5398 57.4374 54.5701 57.1557 44.1997Z" fill="#263238"/>
<path d="M84.7245 60.6686C84.6054 60.6835 84.4847 60.6835 84.3655 60.6686C84.128 60.6686 83.78 60.6686 83.327 60.6374C82.4267 60.5958 81.1176 60.5021 79.5267 60.2992C75.3397 59.7972 71.2893 58.5618 67.5845 56.6568C65.5603 55.5851 63.7064 54.2503 62.0773 52.6918C60.7512 51.414 59.6141 49.9735 58.6968 48.4094C58.0783 47.3567 57.5838 46.2435 57.222 45.0896C57.1183 44.7787 57.0335 44.4625 56.9679 44.1426C56.9383 44.033 56.9161 43.9218 56.9016 43.8096C56.9016 43.8096 57.0507 44.2571 57.3269 45.0584C57.7271 46.1904 58.2471 47.2817 58.8791 48.3157C59.8094 49.851 60.9497 51.2645 62.2706 52.5201C63.8836 54.0608 65.7145 55.3846 67.7115 56.4539C71.3921 58.3257 75.3996 59.5594 79.5433 60.0962C81.1286 60.3252 82.4211 60.4501 83.3215 60.5229L84.3489 60.6062C84.4762 60.614 84.6021 60.6349 84.7245 60.6686Z" fill="#263238"/>
<path d="M91.9054 136.571C91.7562 136.608 79.6261 132.976 79.6261 132.976L75.8092 135.811L86.2104 140.068C86.2104 140.068 90.8006 140.562 93.0046 141.785C95.2085 143.008 91.9054 136.571 91.9054 136.571Z" fill="#263238"/>
<path d="M90.0494 137.278C90.0681 137.386 90.094 137.492 90.1267 137.596C90.4803 138.787 92.2092 143.044 99.39 145.5C107.797 148.372 126.125 149.173 129.163 148.726C135.051 147.852 140.547 143.522 140.321 142.445" fill="#263238"/>
<path d="M140.321 142.445C140.116 144.204 128.721 144.475 114.812 143.049C100.903 141.623 89.845 139.037 90.0494 137.278C90.2538 135.52 101.649 135.244 115.552 136.675C129.456 138.106 140.514 140.681 140.321 142.445Z" fill="#455A64"/>
<path d="M122.689 141.217C123.611 140.343 124.898 139.823 124.236 138.808C124.048 139.152 123.131 139.146 122.805 139.412C122.479 139.677 121.595 139.36 121.148 139.251C120.897 139.184 120.679 139.037 120.533 138.834C120.386 138.631 120.32 138.386 120.347 138.142C120.426 137.673 120.631 137.23 120.944 136.857C121.496 136.04 122.126 135.244 122.766 134.458C123.019 134.196 123.199 133.88 123.291 133.537C123.323 133.359 123.285 133.175 123.183 133.022C123.081 132.869 122.923 132.756 122.739 132.705C122.386 132.657 122.026 132.737 121.733 132.928C120.358 133.662 119.01 134.594 118.508 135.879C118.193 136.685 118.237 137.575 117.85 138.366C117.464 139.157 116.364 139.833 115.436 139.454C115.18 139.323 114.958 139.139 114.787 138.917C114.615 138.695 114.5 138.439 114.448 138.168C114.358 137.641 114.151 137.137 113.84 136.69C113.646 136.464 113.374 136.309 113.071 136.252C112.769 136.195 112.454 136.24 112.183 136.378C111.365 136.961 112.409 138.241 111.708 138.923C111.533 139.059 111.324 139.152 111.101 139.192C110.878 139.232 110.648 139.218 110.432 139.152C110.008 139.02 109.618 138.805 109.288 138.522C107.02 136.822 105.331 134.531 104.433 131.935C104.347 131.605 104.202 131.291 104.002 131.008C103.885 130.86 103.731 130.742 103.554 130.664C103.377 130.586 103.181 130.55 102.986 130.561C102.7 130.627 102.45 130.788 102.28 131.015C102.111 131.242 102.034 131.518 102.063 131.794C102.063 133.287 103.223 134.594 104.334 135.775L108.2 139.854L109.913 141.774L117.414 143.335L122.496 142.347L122.689 141.217Z" fill="#629DFF"/>
<g opacity="0.6">
<path d="M122.689 141.217C123.611 140.343 124.898 139.823 124.236 138.808C124.048 139.152 123.131 139.146 122.805 139.412C122.479 139.677 121.595 139.36 121.148 139.251C120.897 139.184 120.679 139.037 120.533 138.834C120.386 138.631 120.32 138.386 120.347 138.142C120.426 137.673 120.631 137.23 120.944 136.857C121.496 136.04 122.126 135.244 122.766 134.458C123.019 134.196 123.199 133.88 123.291 133.537C123.323 133.359 123.285 133.175 123.183 133.022C123.081 132.869 122.923 132.756 122.739 132.705C122.386 132.657 122.026 132.737 121.733 132.928C120.358 133.662 119.01 134.594 118.508 135.879C118.193 136.685 118.237 137.575 117.85 138.366C117.464 139.157 116.364 139.833 115.436 139.454C115.18 139.323 114.958 139.139 114.787 138.917C114.615 138.695 114.5 138.439 114.448 138.168C114.358 137.641 114.151 137.137 113.84 136.69C113.646 136.464 113.374 136.309 113.071 136.252C112.769 136.195 112.454 136.24 112.183 136.378C111.365 136.961 112.409 138.241 111.708 138.923C111.533 139.059 111.324 139.152 111.101 139.192C110.878 139.232 110.648 139.218 110.432 139.152C110.008 139.02 109.618 138.805 109.288 138.522C107.02 136.822 105.331 134.531 104.433 131.935C104.347 131.605 104.202 131.291 104.002 131.008C103.885 130.86 103.731 130.742 103.554 130.664C103.377 130.586 103.181 130.55 102.986 130.561C102.7 130.627 102.45 130.788 102.28 131.015C102.111 131.242 102.034 131.518 102.063 131.794C102.063 133.287 103.223 134.594 104.334 135.775L108.2 139.854L109.913 141.774L117.414 143.335L122.496 142.347L122.689 141.217Z" fill="white"/>
</g>
<path d="M124.816 143.985C124.934 143.483 125.207 143.024 125.599 142.666C125.992 142.308 126.488 142.067 127.025 141.972C127.414 141.931 127.796 141.845 128.163 141.717C128.506 141.555 128.715 141.17 128.522 140.9C128.329 140.629 127.826 140.655 127.445 140.707L124.816 141.066L126.937 139.063C127.213 138.798 127.489 138.433 127.307 138.126C127.125 137.819 126.594 137.819 126.202 137.887C124.855 138.1 123.626 138.743 122.722 139.708C121.976 140.541 121.557 141.581 120.607 142.258C120.152 142.569 119.63 142.782 119.079 142.884C118.528 142.985 117.959 142.972 117.414 142.846C116.891 142.733 116.404 142.503 115.995 142.176C115.585 141.849 115.265 141.435 115.061 140.967C114.977 140.567 114.798 140.19 114.536 139.864C113.934 139.297 112.708 139.542 112.177 140.156C111.727 140.798 111.562 141.581 111.719 142.336C109.305 139.375 106.615 136.284 102.588 134.978C101.887 134.716 101.129 134.616 100.379 134.687C100.021 134.715 99.6802 134.841 99.3983 135.05C99.1164 135.259 98.906 135.542 98.7934 135.863C98.6554 136.581 99.3458 137.242 100.042 137.663C101.417 138.465 103.102 138.813 104.588 139.469C106.074 140.125 107.687 141.103 107.593 142.487C107.593 142.487 114.845 143.528 118.43 143.611C122.015 143.694 124.816 143.985 124.816 143.985Z" fill="#629DFF"/>
<g opacity="0.8">
<path d="M124.816 143.985C124.934 143.483 125.207 143.024 125.599 142.666C125.992 142.308 126.488 142.067 127.025 141.972C127.414 141.931 127.796 141.845 128.163 141.717C128.506 141.555 128.715 141.17 128.522 140.9C128.329 140.629 127.826 140.655 127.445 140.707L124.816 141.066L126.937 139.063C127.213 138.798 127.489 138.433 127.307 138.126C127.125 137.819 126.594 137.819 126.202 137.887C124.855 138.1 123.626 138.743 122.722 139.708C121.976 140.541 121.557 141.581 120.607 142.258C120.152 142.569 119.63 142.782 119.079 142.884C118.528 142.985 117.959 142.972 117.414 142.846C116.891 142.733 116.404 142.503 115.995 142.176C115.585 141.849 115.265 141.435 115.061 140.967C114.977 140.567 114.798 140.19 114.536 139.864C113.934 139.297 112.708 139.542 112.177 140.156C111.727 140.798 111.562 141.581 111.719 142.336C109.305 139.375 106.615 136.284 102.588 134.978C101.887 134.716 101.129 134.616 100.379 134.687C100.021 134.715 99.6802 134.841 99.3983 135.05C99.1164 135.259 98.906 135.542 98.7934 135.863C98.6554 136.581 99.3458 137.242 100.042 137.663C101.417 138.465 103.102 138.813 104.588 139.469C106.074 140.125 107.687 141.103 107.593 142.487C107.593 142.487 114.845 143.528 118.43 143.611C122.015 143.694 124.816 143.985 124.816 143.985Z" fill="white"/>
</g>
<path d="M98.2632 148.257C97.907 148.266 97.5525 148.209 97.2192 148.091C96.3946 147.865 95.6147 147.513 94.9103 147.05C94.2057 146.588 93.5847 146.023 93.0709 145.375C92.8404 145.118 92.6625 144.824 92.5461 144.506C93.2866 145.375 94.136 146.156 95.076 146.832C96.0718 147.429 97.1424 147.908 98.2632 148.257Z" fill="#263238"/>
<path d="M96.8767 149.486C96.5187 149.495 96.1623 149.438 95.8272 149.319C95.004 149.094 94.2258 148.742 93.5238 148.278C92.818 147.818 92.1967 147.252 91.6844 146.603C91.4539 146.346 91.276 146.052 91.1596 145.734C92.5759 147.542 94.5851 148.861 96.8767 149.486Z" fill="#263238"/>
<path d="M145.485 144.314C145.485 144.314 145.458 144.464 145.347 144.714C145.186 145.072 145.002 145.419 144.795 145.755C143.463 147.989 141.468 149.81 139.056 150.995C138.698 151.172 138.329 151.328 137.951 151.463C137.815 151.524 137.67 151.564 137.52 151.583C137.52 151.541 138.073 151.302 138.973 150.823C141.285 149.573 143.229 147.798 144.629 145.661C145.148 144.839 145.414 144.293 145.485 144.314Z" fill="#263238"/>
<path d="M148.109 145.385C148.049 145.711 147.925 146.023 147.745 146.306C147.368 147.017 146.894 147.678 146.336 148.273C145.778 148.868 145.141 149.392 144.441 149.834C144.164 150.038 143.849 150.193 143.513 150.292C144.438 149.617 145.309 148.88 146.121 148.086C146.855 147.234 147.52 146.331 148.109 145.385Z" fill="#263238"/>
<path d="M134.814 111.1L139.94 109.763C139.94 109.763 144.176 110.361 145.27 109.596C146.364 108.832 145.822 108.389 145.822 108.389C148.131 107.572 147.308 106.605 147.308 106.605C147.308 106.605 149.601 106.438 149.639 104.737C149.667 103.743 140.895 102.098 140.895 102.098C140.932 101.773 141.037 101.457 141.205 101.17C141.373 100.883 141.6 100.631 141.873 100.428C142.768 99.8245 147.949 100.99 149.523 100.537C149.963 100.42 150.348 100.165 150.616 99.816C150.883 99.4667 151.018 99.0425 150.998 98.6121C150.998 98.6121 140.149 96.5307 137.863 97.4309C135.576 98.3311 124.606 102.634 122.949 104.716L126.6 111.881C127.266 112.11 127.947 112.301 128.638 112.453C130.466 112.927 134.814 111.1 134.814 111.1Z" fill="#FFBF9D"/>
<path d="M128.914 109.331C128.914 109.289 129.334 109.3 130.08 109.201C131.128 109.066 132.143 108.759 133.079 108.295C133.719 107.977 134.315 107.586 134.852 107.13C135.154 106.878 135.435 106.605 135.692 106.313C135.961 105.978 136.254 105.662 136.57 105.366C136.748 105.189 136.962 105.049 137.2 104.953C137.437 104.858 137.693 104.809 137.951 104.809C138.446 104.829 138.938 104.892 139.42 104.996C140.393 105.189 141.343 105.517 142.315 105.361C142.935 105.29 143.521 105.052 144 104.674C144.447 104.32 144.729 103.737 144.497 103.368L144.635 103.467C141.547 102.759 138.791 102.452 136.846 102.181L134.559 101.869C134.281 101.846 134.006 101.79 133.742 101.703C134.019 101.672 134.299 101.672 134.576 101.703C135.128 101.739 135.896 101.801 136.879 101.895C139.525 102.112 142.152 102.491 144.745 103.03H144.834L144.883 103.108C144.978 103.265 145.032 103.441 145.041 103.622C145.051 103.802 145.016 103.983 144.939 104.148C144.803 104.464 144.589 104.744 144.314 104.965C143.769 105.41 143.093 105.69 142.376 105.766C141.841 105.827 141.301 105.806 140.774 105.704L139.321 105.392C138.872 105.287 138.413 105.223 137.951 105.199C137.745 105.195 137.541 105.232 137.351 105.306C137.16 105.38 136.989 105.491 136.846 105.631C136.544 105.915 136.26 106.216 135.996 106.531C135.717 106.83 135.418 107.112 135.101 107.374C134.528 107.839 133.893 108.231 133.212 108.54C132.231 108.993 131.168 109.265 130.08 109.341C129.693 109.396 129.3 109.393 128.914 109.331Z" fill="#FF9A6C"/>
<path d="M139.409 105.35C139.531 105.392 139.282 106.355 138.719 107.432C138.155 108.509 137.52 109.32 137.41 109.253C137.299 109.185 137.747 108.311 138.294 107.239C138.84 106.167 139.282 105.288 139.409 105.35Z" fill="#FF9A6C"/>
<path d="M145.364 108.191C145.364 108.316 143.917 108.155 142.166 107.973C140.415 107.791 138.995 107.65 139.001 107.52C139.006 107.39 140.448 107.343 142.221 107.52C143.994 107.697 145.386 108.072 145.364 108.191Z" fill="#FF9A6C"/>
<path d="M147.999 106.693C147.999 106.818 146.165 106.693 143.944 106.381C141.724 106.068 139.94 105.74 139.956 105.621C139.973 105.501 141.79 105.621 144.011 105.933C146.231 106.245 148.015 106.573 147.999 106.693Z" fill="#FF9A6C"/>
<path d="M140.718 99.7514C140.851 99.7514 140.945 100.376 140.851 101.136C140.757 101.895 140.503 102.478 140.376 102.452C140.249 102.426 140.282 101.817 140.376 101.084C140.47 100.35 140.586 99.7514 140.718 99.7514Z" fill="#FF9A6C"/>
<path d="M79.7532 102.093L94.7832 109.601L124.109 104.242L128.279 112.364C128.279 112.364 101.472 123.427 93.9878 123.552C86.5032 123.677 72.8927 115.356 72.8927 115.356L79.7532 102.093Z" fill="#FFBF9D"/>
<path d="M115.994 109.971C115.994 109.971 112.431 109.32 111.785 111.829C111.139 114.337 114.337 114.951 114.337 114.951C114.337 114.951 113.752 116.683 116.828 117.589C119.905 118.494 120.507 115.346 120.507 115.346C120.507 115.346 123.402 116.241 123.623 114.482C123.948 111.881 121.7 111.667 121.7 111.667C121.7 111.667 123.91 109.118 120.292 108.108C116.674 107.099 115.994 109.971 115.994 109.971ZM119.861 109.227C121.954 109.643 120.573 112.104 120.573 112.104C120.573 112.104 122.943 112.625 122.479 113.931C122.015 115.237 119.673 114.389 119.673 114.389C119.673 114.389 120.529 116.636 117.662 116.662C114.796 116.689 115.978 114.363 115.978 114.363C115.978 114.363 113.647 114.566 113.15 112.479C112.652 110.392 116.685 111.012 116.685 111.012C116.79 109.242 117.745 108.811 119.844 109.227H119.861Z" fill="#629DFF"/>
<g opacity="0.3">
<path d="M115.994 109.971C115.994 109.971 112.431 109.32 111.785 111.829C111.139 114.337 114.337 114.951 114.337 114.951C114.337 114.951 113.752 116.683 116.828 117.589C119.905 118.494 120.507 115.346 120.507 115.346C120.507 115.346 123.402 116.241 123.623 114.482C123.948 111.881 121.7 111.667 121.7 111.667C121.7 111.667 123.91 109.118 120.292 108.108C116.674 107.099 115.994 109.971 115.994 109.971ZM119.861 109.227C121.954 109.643 120.573 112.104 120.573 112.104C120.573 112.104 122.943 112.625 122.479 113.931C122.015 115.237 119.673 114.389 119.673 114.389C119.673 114.389 120.529 116.636 117.662 116.662C114.796 116.689 115.978 114.363 115.978 114.363C115.978 114.363 113.647 114.566 113.15 112.479C112.652 110.392 116.685 111.012 116.685 111.012C116.79 109.242 117.745 108.811 119.844 109.227H119.861Z" fill="black"/>
</g>
<path d="M116.044 109.321C116.044 109.321 112.487 108.67 111.84 111.178C111.194 113.686 114.392 114.3 114.392 114.3C114.392 114.3 113.801 116.033 116.884 116.939C119.966 117.844 120.562 114.696 120.562 114.696C120.562 114.696 123.462 115.591 123.678 113.837C124.004 111.236 121.755 111.022 121.755 111.022C121.755 111.022 123.965 108.473 120.347 107.458C116.729 106.443 116.044 109.321 116.044 109.321ZM119.911 108.577C122.01 108.998 120.629 111.459 120.629 111.459C120.629 111.459 122.998 111.98 122.529 113.281C122.059 114.581 119.728 113.738 119.728 113.738C119.728 113.738 120.584 115.986 117.712 116.018C114.84 116.049 116.027 113.712 116.027 113.712C116.027 113.712 113.702 113.915 113.205 111.829C112.708 109.742 116.734 110.367 116.734 110.367C116.845 108.597 117.812 108.16 119.911 108.577Z" fill="#629DFF"/>
<path d="M117.668 86.0563C117.668 86.0563 114.083 86.5766 114.387 89.1783C114.691 91.78 117.922 91.3065 117.922 91.3065C117.922 91.3065 117.994 93.1225 121.236 92.9872C124.479 92.8519 123.882 89.6934 123.882 89.6934C123.882 89.6934 126.926 89.605 126.495 87.8827C125.86 85.333 123.667 85.8533 123.667 85.8533C123.667 85.8533 124.832 82.7313 121.054 82.9602C117.276 83.1892 117.668 86.0563 117.668 86.0563ZM121.015 84.1258C123.136 83.8396 122.733 86.5974 122.733 86.5974C122.733 86.5974 125.142 86.3112 125.18 87.7005C125.219 89.0898 122.711 89.0326 122.711 89.0326C122.711 89.0326 124.335 90.8694 121.645 91.8216C118.955 92.7739 119.226 90.1982 119.226 90.1982C119.226 90.1982 117.11 91.14 115.911 89.3344C114.713 87.5288 118.701 86.8212 118.701 86.8212C118.154 85.1196 118.894 84.4016 121.015 84.1258Z" fill="#629DFF"/>
<g opacity="0.3">
<path d="M117.668 86.0563C117.668 86.0563 114.083 86.5766 114.387 89.1783C114.691 91.78 117.922 91.3065 117.922 91.3065C117.922 91.3065 117.994 93.1225 121.236 92.9872C124.479 92.8519 123.882 89.6934 123.882 89.6934C123.882 89.6934 126.926 89.605 126.495 87.8827C125.86 85.333 123.667 85.8533 123.667 85.8533C123.667 85.8533 124.832 82.7313 121.054 82.9602C117.276 83.1892 117.668 86.0563 117.668 86.0563ZM121.015 84.1258C123.136 83.8396 122.733 86.5974 122.733 86.5974C122.733 86.5974 125.142 86.3112 125.18 87.7005C125.219 89.0898 122.711 89.0326 122.711 89.0326C122.711 89.0326 124.335 90.8694 121.645 91.8216C118.955 92.7739 119.226 90.1982 119.226 90.1982C119.226 90.1982 117.11 91.14 115.911 89.3344C114.713 87.5288 118.701 86.8212 118.701 86.8212C118.154 85.1196 118.894 84.4016 121.015 84.1258Z" fill="black"/>
</g>
<path d="M117.486 85.4316C117.486 85.4316 113.901 85.9519 114.199 88.5276C114.497 91.1033 117.734 90.6558 117.734 90.6558C117.734 90.6558 117.812 92.477 121.048 92.3365C124.285 92.196 123.7 89.0479 123.7 89.0479C123.7 89.0479 126.743 88.9595 126.313 87.2372C125.677 84.6771 123.484 85.2078 123.484 85.2078C123.484 85.2078 124.65 82.0858 120.872 82.3147C117.094 82.5437 117.486 85.4316 117.486 85.4316ZM120.833 83.4959C122.954 83.2149 122.545 85.9727 122.545 85.9727C122.545 85.9727 124.959 85.6865 124.998 87.0706C125.037 88.4547 122.529 88.4027 122.529 88.4027C122.529 88.4027 124.147 90.2447 121.457 91.1917C118.767 92.1388 119.043 89.5683 119.043 89.5683C119.043 89.5683 116.928 90.5101 115.729 88.7097C114.531 86.9093 118.491 86.1965 118.491 86.1965C117.939 84.495 118.706 83.7769 120.833 83.4959Z" fill="#629DFF"/>
<path d="M112.061 98.4092C112.061 98.4092 109.802 98.4976 109.664 100.043C109.526 101.588 110.161 104.123 114.083 104.674C118.005 105.226 118.502 100.615 118.502 100.615C118.502 100.615 117.364 98.2011 112.061 98.4092Z" fill="#E0E0E0"/>
<g opacity="0.21">
<path d="M114.293 102.572C115.05 102.636 115.812 102.54 116.524 102.291C117.236 102.041 117.88 101.645 118.408 101.13C118.474 100.813 118.502 100.61 118.502 100.61C118.502 100.61 117.364 98.1957 112.061 98.4038C112.061 98.4038 109.802 98.4923 109.664 100.038C109.672 100.145 109.672 100.253 109.664 100.36C110.842 101.638 112.503 102.432 114.293 102.572Z" fill="#263238"/>
</g>
<path d="M112.498 97.3994L111.851 100.069C112.199 100.435 112.625 100.729 113.101 100.93C113.576 101.132 114.092 101.237 114.613 101.24C116.27 101.151 116.27 100.568 116.27 100.568L116.95 97.8365C116.049 97.242 114.997 96.8829 113.901 96.7959C112.293 96.749 112.498 97.3994 112.498 97.3994Z" fill="#E0E0E0"/>
<path d="M100.252 116.397C100.252 116.397 98.8155 118.046 99.9479 119.176C101.08 120.305 103.505 121.543 106.576 119.15C109.648 116.756 106.3 113.353 106.3 113.353C106.3 113.353 103.621 112.541 100.252 116.397Z" fill="#E0E0E0"/>
<g opacity="0.21">
<path d="M105.035 117.61C105.591 117.121 106.023 116.522 106.3 115.856C106.578 115.189 106.693 114.473 106.637 113.759C106.433 113.499 106.289 113.348 106.289 113.348C106.289 113.348 103.621 112.541 100.252 116.397C100.252 116.397 98.8155 118.047 99.9479 119.176C100.036 119.244 100.117 119.319 100.191 119.4C101.992 119.425 103.732 118.782 105.035 117.61Z" fill="#263238"/>
</g>
<path d="M99.7435 115.419L101.428 117.657C101.95 117.655 102.465 117.55 102.94 117.35C103.416 117.149 103.842 116.856 104.19 116.491C105.218 115.279 104.742 114.894 104.742 114.894L103.03 112.594C101.966 112.834 100.987 113.333 100.191 114.04C99.0862 115.133 99.7435 115.419 99.7435 115.419Z" fill="#E0E0E0"/>
<path d="M125.672 116.277C125.672 116.277 127.207 117.292 128.119 116.35C129.03 115.408 129.986 113.442 127.699 111.199C125.412 108.956 122.634 111.766 122.634 111.766C122.634 111.766 122.087 113.894 125.672 116.277Z" fill="#E0E0E0"/>
<g opacity="0.21">
<path d="M126.44 112.489C125.981 112.083 125.431 111.778 124.831 111.598C124.23 111.417 123.595 111.367 122.971 111.449C122.852 111.542 122.74 111.641 122.634 111.745C122.634 111.745 122.081 113.868 125.672 116.257C125.672 116.257 127.207 117.271 128.119 116.33C128.18 116.262 128.246 116.194 128.307 116.116C128.211 114.724 127.541 113.422 126.44 112.489Z" fill="#263238"/>
</g>
<path d="M124.843 116.756L126.705 115.31C126.672 114.903 126.548 114.508 126.343 114.15C126.137 113.791 125.854 113.477 125.512 113.228C124.407 112.505 124.075 112.885 124.075 112.885L122.164 114.357C122.431 115.18 122.927 115.92 123.6 116.501C124.633 117.266 124.843 116.756 124.843 116.756Z" fill="#E0E0E0"/>
<path d="M116.729 134.162C116.729 134.162 112.824 135.624 110.216 130.961C107.609 126.299 108.007 121.944 111.542 120.95C115.077 119.956 116.243 121.627 116.966 122.834C117.69 124.041 119.43 126.736 119.728 129.172C119.9 130.545 119.093 133.449 116.729 134.162Z" fill="#AE7461"/>
<path opacity="0.3" d="M116.668 132.814C117.425 132.492 118.049 131.943 118.441 131.253V131.284L118.469 131.243L118.53 131.154C118.565 131.092 118.597 131.028 118.624 130.962L118.657 130.91L118.624 130.957C118.851 130.344 118.91 129.687 118.795 129.047C118.753 128.664 118.65 128.288 118.491 127.933C118.333 127.579 118.042 127.292 117.673 127.127C117.463 127.051 117.237 127.022 117.013 127.042C116.789 127.062 116.573 127.13 116.381 127.241C116.001 127.47 115.708 127.807 115.547 128.204C115.387 128.568 115.315 128.958 115.171 129.328C115.114 129.517 115.017 129.693 114.887 129.846C114.758 130 114.597 130.128 114.414 130.223C114.1 130.358 113.735 130.332 113.409 130.447C113.131 130.552 112.904 130.749 112.768 131.001C112.632 131.252 112.597 131.541 112.669 131.815C112.77 132.062 112.93 132.284 113.135 132.465C113.341 132.645 113.588 132.779 113.857 132.856C114.764 133.185 115.772 133.17 116.668 132.814Z" fill="#6F4439"/>
<path opacity="0.3" d="M112.663 121.481C111.842 121.592 111.084 121.958 110.509 122.521V122.49L110.482 122.532L110.404 122.605C110.361 122.662 110.313 122.716 110.261 122.766L110.228 122.818L110.255 122.776C109.859 123.302 109.607 123.911 109.52 124.551C109.45 124.927 109.437 125.311 109.482 125.69C109.526 126.074 109.723 126.427 110.034 126.679C110.214 126.807 110.423 126.894 110.644 126.933C110.866 126.972 111.094 126.962 111.31 126.903C111.75 126.786 112.138 126.538 112.415 126.195C112.675 125.888 112.857 125.529 113.089 125.206C113.315 124.871 113.672 124.634 114.083 124.546C114.42 124.499 114.768 124.608 115.116 124.582C115.412 124.552 115.687 124.422 115.89 124.217C116.093 124.011 116.21 123.744 116.221 123.463C116.2 123.197 116.114 122.939 115.97 122.71C115.825 122.48 115.625 122.286 115.387 122.142C114.605 121.596 113.628 121.359 112.663 121.481Z" fill="#6F4439"/>
<path opacity="0.3" d="M113.299 127.579C113.145 127.585 112.994 127.615 112.851 127.668L111.951 127.954C111.724 128.032 111.459 128.131 111.399 128.36C111.374 128.432 111.375 128.51 111.401 128.582C111.427 128.654 111.476 128.716 111.542 128.76C111.607 128.803 111.681 128.832 111.76 128.846C111.838 128.859 111.918 128.857 111.995 128.838H111.956C112.447 128.82 112.924 128.678 113.337 128.427C113.457 128.364 113.561 128.277 113.641 128.172C113.684 128.116 113.71 128.049 113.715 127.98C113.72 127.91 113.705 127.841 113.67 127.779C113.636 127.718 113.584 127.666 113.52 127.631C113.456 127.596 113.384 127.578 113.31 127.579H113.299Z" fill="#6F4439"/>
<path d="M109.509 123.229C109.509 123.229 109.41 123.505 109.288 123.953C108.974 125.134 109.007 126.373 109.382 127.538C109.526 127.98 109.659 128.246 109.636 128.251C109.593 128.197 109.558 128.137 109.532 128.074C109.445 127.905 109.369 127.731 109.305 127.554C108.875 126.378 108.842 125.105 109.211 123.911C109.266 123.734 109.332 123.56 109.41 123.391C109.434 123.332 109.468 123.278 109.509 123.229Z" fill="white"/>
<path d="M110.564 122.001C110.564 122.001 110.471 122.168 110.31 122.329C110.15 122.49 110.001 122.594 109.968 122.574C109.935 122.553 110.056 122.407 110.222 122.246C110.388 122.084 110.542 121.96 110.564 122.001Z" fill="white"/>
<path d="M111.504 131.758C111.32 131.654 111.161 131.516 111.035 131.352C110.91 131.188 110.821 131.003 110.774 130.806C110.905 130.96 111.025 131.121 111.133 131.29C111.268 131.438 111.391 131.594 111.504 131.758Z" fill="white"/>
<path d="M121.767 98.6432C121.767 98.6432 118.701 97.2903 120.17 93.2836C121.64 89.277 124.589 87.0864 127.136 88.4965C129.682 89.9066 129.306 91.4677 128.953 92.5344C128.599 93.6011 127.876 96.0467 126.528 97.5608C125.766 98.409 123.495 99.5694 121.767 98.6432Z" fill="#AE7461"/>
<path opacity="0.3" d="M122.568 97.8678C123.185 98.112 123.871 98.1541 124.517 97.9874H124.606C124.665 97.9739 124.722 97.9547 124.777 97.9302H124.832H124.788C125.293 97.7143 125.734 97.3835 126.07 96.9676C126.284 96.7349 126.461 96.4737 126.594 96.1923C126.731 95.909 126.75 95.5882 126.65 95.2921C126.58 95.1343 126.474 94.9936 126.338 94.8808C126.202 94.768 126.04 94.6862 125.865 94.6416C125.513 94.5569 125.141 94.5806 124.805 94.7093C124.49 94.8186 124.208 94.9955 123.899 95.1204C123.596 95.2658 123.244 95.292 122.921 95.1932C122.667 95.0943 122.479 94.881 122.231 94.7613C122.011 94.6679 121.763 94.6511 121.531 94.7141C121.299 94.777 121.099 94.9154 120.966 95.1047C120.865 95.2982 120.812 95.511 120.812 95.7266C120.812 95.9422 120.865 96.1549 120.966 96.3484C121.269 97.032 121.844 97.577 122.568 97.8678Z" fill="#6F4439"/>
<path opacity="0.3" d="M127.423 89.4123C126.899 89.0209 126.252 88.8049 125.583 88.7983H125.545H125.456C125.396 88.7983 125.335 88.7983 125.274 88.7983H125.224H125.269C124.724 88.8667 124.206 89.0616 123.761 89.3655C123.486 89.5343 123.239 89.7393 123.026 89.9743C122.812 90.2102 122.7 90.5126 122.711 90.8224C122.73 90.9908 122.79 91.1529 122.886 91.2963C122.982 91.4396 123.111 91.5605 123.263 91.6498C123.577 91.8275 123.944 91.9025 124.307 91.8631C124.639 91.8371 124.965 91.7382 125.296 91.6914C125.46 91.661 125.629 91.6614 125.793 91.6927C125.957 91.7239 126.113 91.7854 126.252 91.8735C126.467 92.0348 126.589 92.2898 126.804 92.4667C126.987 92.6154 127.22 92.6972 127.462 92.6972C127.703 92.6972 127.936 92.6154 128.119 92.4667C128.274 92.3075 128.388 92.1165 128.451 91.9088C128.514 91.7011 128.525 91.4824 128.483 91.2699C128.397 90.5453 128.017 89.88 127.423 89.4123Z" fill="#6F4439"/>
<path opacity="0.3" d="M123.976 93.1221C123.888 93.0395 123.785 92.9725 123.672 92.9243L122.998 92.5861C122.92 92.5317 122.83 92.4949 122.734 92.4787C122.638 92.4624 122.54 92.4671 122.446 92.4924C122.387 92.5208 122.34 92.5655 122.309 92.6205C122.278 92.6754 122.266 92.7379 122.275 92.7994C122.283 92.8589 122.305 92.916 122.339 92.9664C122.373 93.0169 122.419 93.0594 122.474 93.0908C122.761 93.3442 123.113 93.5235 123.496 93.6112C123.603 93.6319 123.714 93.6319 123.821 93.6112C123.876 93.603 123.928 93.582 123.973 93.5503C124.017 93.5185 124.052 93.4768 124.075 93.4291C124.088 93.3741 124.085 93.3172 124.068 93.2635C124.05 93.2099 124.019 93.1612 123.976 93.1221Z" fill="#6F4439"/>
<path d="M124.595 88.6264C124.595 88.6264 124.374 88.7305 124.042 88.9074C123.134 89.3835 122.38 90.0831 121.86 90.9316C121.662 91.2594 121.568 91.4779 121.557 91.4519C121.566 91.398 121.582 91.3454 121.606 91.2958C121.661 91.1558 121.728 91.0201 121.805 90.8899C122.3 90.0086 123.072 89.2927 124.015 88.8398C124.157 88.7716 124.302 88.7108 124.451 88.6577C124.498 88.6432 124.546 88.6328 124.595 88.6264Z" fill="white"/>
<path d="M125.954 88.5225C125.954 88.5485 125.799 88.5693 125.611 88.5641C125.423 88.5589 125.274 88.5641 125.269 88.5121C125.263 88.46 125.423 88.4704 125.617 88.4704C125.732 88.4616 125.847 88.4795 125.954 88.5225Z" fill="white"/>
<path d="M120.38 94.4231C120.344 94.2636 120.342 94.0988 120.375 93.9386C120.408 93.7785 120.476 93.6264 120.573 93.4917C120.552 93.6485 120.517 93.8035 120.468 93.9548C120.452 94.1129 120.423 94.2695 120.38 94.4231Z" fill="white"/>
<path d="M109.029 98.8359C108.388 99.1602 107.659 99.2985 106.935 99.2332C106.21 99.1679 105.523 98.902 104.959 98.469C104.394 98.036 103.979 97.4554 103.765 96.8003C103.551 96.1452 103.547 95.445 103.755 94.7881C103.962 94.1311 104.372 93.5467 104.931 93.1087C105.491 92.6706 106.176 92.3985 106.9 92.3267C107.623 92.2549 108.353 92.3865 108.998 92.705C109.642 93.0235 110.172 93.5147 110.52 94.1164C110.752 94.5184 110.898 94.9595 110.948 95.4145C110.999 95.8695 110.953 96.3294 110.815 96.7679C110.676 97.2063 110.447 97.6147 110.141 97.9696C109.834 98.3245 109.456 98.6189 109.029 98.8359Z" fill="#FF9A6C"/>
<g opacity="0.5">
<path d="M109.029 98.8359C108.388 99.1602 107.659 99.2985 106.935 99.2332C106.21 99.1679 105.523 98.902 104.959 98.469C104.394 98.036 103.979 97.4554 103.765 96.8003C103.551 96.1452 103.547 95.445 103.755 94.7881C103.962 94.1311 104.372 93.5467 104.931 93.1087C105.491 92.6706 106.176 92.3985 106.9 92.3267C107.623 92.2549 108.353 92.3865 108.998 92.705C109.642 93.0235 110.172 93.5147 110.52 94.1164C110.752 94.5184 110.898 94.9595 110.948 95.4145C110.999 95.8695 110.953 96.3294 110.815 96.7679C110.676 97.2063 110.447 97.6147 110.141 97.9696C109.834 98.3245 109.456 98.6189 109.029 98.8359Z" fill="#629DFF"/>
</g>
<path d="M108.681 98.2373C108.041 98.56 107.313 98.697 106.591 98.6311C105.868 98.5652 105.182 98.2992 104.619 97.8668C104.057 97.4344 103.643 96.8548 103.429 96.201C103.216 95.5473 103.212 94.8486 103.419 94.193C103.627 93.5375 104.035 92.9543 104.593 92.517C105.152 92.0797 105.835 91.8078 106.557 91.7356C107.279 91.6635 108.008 91.7942 108.651 92.1113C109.294 92.4284 109.824 92.9178 110.172 93.5178C110.406 93.9195 110.552 94.3607 110.604 94.816C110.655 95.2713 110.61 95.7317 110.471 96.1705C110.332 96.6093 110.103 97.0179 109.796 97.3727C109.488 97.7274 109.109 98.0213 108.681 98.2373Z" fill="#FF9A6C"/>
<g opacity="0.3">
<path d="M107.963 97.025C107.589 97.2165 107.164 97.2993 106.741 97.263C106.317 97.2268 105.915 97.073 105.584 96.8211C105.254 96.5693 105.01 96.2307 104.884 95.8483C104.757 95.4659 104.754 95.0567 104.875 94.6727C104.996 94.2887 105.235 93.947 105.562 93.6909C105.888 93.4349 106.289 93.2759 106.711 93.2342C107.134 93.1924 107.561 93.2698 107.937 93.4564C108.313 93.6431 108.622 93.9307 108.825 94.2828C109.096 94.7542 109.157 95.3077 108.996 95.8218C108.834 96.3359 108.463 96.7686 107.963 97.025Z" fill="white"/>
</g>
<path d="M107.593 96.3432C106.56 96.5305 105.726 96.2963 105.737 95.8228C105.577 95.5231 105.547 95.1764 105.654 94.8563C105.76 94.5363 105.995 94.2679 106.308 94.1082C106.622 93.9485 106.989 93.91 107.331 94.0008C107.674 94.0917 107.966 94.3047 108.145 94.5948C108.23 94.7434 108.284 94.9064 108.302 95.0745C108.321 95.2425 108.304 95.4124 108.253 95.5743C108.201 95.7362 108.117 95.887 108.003 96.018C107.89 96.1491 107.751 96.2578 107.593 96.338V96.3432Z" fill="#FF9A6C"/>
<path d="M128.793 100.808C129.375 100.538 130.03 100.437 130.673 100.518C131.317 100.598 131.92 100.856 132.408 101.259C132.896 101.662 133.247 102.192 133.415 102.783C133.584 103.373 133.563 103.997 133.355 104.577C133.148 105.156 132.763 105.665 132.249 106.038C131.735 106.412 131.115 106.633 130.468 106.675C129.82 106.718 129.174 106.578 128.61 106.275C128.047 105.971 127.591 105.517 127.301 104.97C127.108 104.605 126.992 104.207 126.963 103.8C126.933 103.393 126.989 102.984 127.127 102.597C127.266 102.21 127.485 101.853 127.77 101.545C128.056 101.238 128.404 100.988 128.793 100.808Z" fill="#FF9A6C"/>
<g opacity="0.5">
<path d="M128.793 100.808C129.375 100.538 130.03 100.437 130.673 100.518C131.317 100.598 131.92 100.856 132.408 101.259C132.896 101.662 133.247 102.192 133.415 102.783C133.584 103.373 133.563 103.997 133.355 104.577C133.148 105.156 132.763 105.665 132.249 106.038C131.735 106.412 131.115 106.633 130.468 106.675C129.82 106.718 129.174 106.578 128.61 106.275C128.047 105.971 127.591 105.517 127.301 104.97C127.108 104.605 126.992 104.207 126.963 103.8C126.933 103.393 126.989 102.984 127.127 102.597C127.266 102.21 127.485 101.853 127.77 101.545C128.056 101.238 128.404 100.988 128.793 100.808Z" fill="#629DFF"/>
</g>
<path d="M131.505 105.792C130.935 106.08 130.287 106.203 129.643 106.145C129 106.087 128.389 105.85 127.887 105.465C127.386 105.081 127.017 104.565 126.826 103.982C126.636 103.4 126.632 102.778 126.817 102.194C127.001 101.61 127.365 101.09 127.862 100.701C128.359 100.311 128.968 100.069 129.611 100.005C130.254 99.9407 130.903 100.057 131.476 100.34C132.049 100.623 132.52 101.059 132.831 101.593C133.038 101.951 133.168 102.343 133.214 102.748C133.259 103.153 133.219 103.563 133.096 103.953C132.973 104.343 132.769 104.707 132.496 105.023C132.223 105.338 131.886 105.6 131.505 105.792Z" fill="#FF9A6C"/>
<g opacity="0.3">
<path d="M128.135 102.582C128.246 102.244 128.461 101.943 128.752 101.719C129.044 101.495 129.399 101.357 129.774 101.323C130.148 101.289 130.525 101.36 130.857 101.528C131.188 101.695 131.46 101.951 131.637 102.264C131.815 102.576 131.89 102.931 131.854 103.284C131.817 103.637 131.671 103.971 131.433 104.246C131.195 104.52 130.876 104.722 130.516 104.826C130.156 104.93 129.772 104.932 129.411 104.83C129.17 104.762 128.946 104.65 128.751 104.5C128.556 104.35 128.395 104.166 128.276 103.957C128.158 103.748 128.084 103.519 128.06 103.283C128.036 103.047 128.061 102.809 128.135 102.582Z" fill="white"/>
</g>
<path d="M130.538 104.102C130.327 104.209 130.087 104.255 129.848 104.234C129.61 104.213 129.383 104.126 129.196 103.984C129.01 103.842 128.872 103.651 128.801 103.435C128.729 103.22 128.727 102.989 128.795 102.772C128.862 102.555 128.996 102.362 129.18 102.217C129.364 102.072 129.589 101.981 129.828 101.957C130.066 101.932 130.307 101.974 130.52 102.078C130.733 102.182 130.908 102.343 131.024 102.541C131.101 102.673 131.15 102.819 131.167 102.969C131.184 103.119 131.17 103.271 131.125 103.416C131.079 103.561 131.004 103.696 130.904 103.814C130.803 103.931 130.679 104.029 130.538 104.102Z" fill="#FF9A6C"/>
<path d="M98.7327 122.678C98.6507 123.494 98.7713 124.317 99.0847 125.082C99.3982 125.847 99.896 126.533 100.539 127.085C101.148 127.629 101.887 128.026 102.694 128.245C103.5 128.463 104.351 128.495 105.173 128.339C105.242 126.9 104.702 125.494 103.672 124.43C102.641 123.365 101.205 122.73 99.6772 122.662C99.3618 122.651 99.046 122.663 98.7327 122.699V122.678Z" fill="#455A64"/>
<path d="M100.191 123.822C100.246 123.781 101.24 124.998 102.688 126.299C104.135 127.6 105.45 128.5 105.411 128.547C105.082 128.413 104.773 128.238 104.494 128.027C103.096 127.074 101.849 125.941 100.787 124.66C100.546 124.41 100.345 124.127 100.191 123.822Z" fill="#263238"/>
<path d="M110.686 81.6279C110.103 82.2367 109.678 82.9651 109.445 83.7553C109.212 84.5455 109.177 85.3759 109.344 86.1809C109.488 86.9588 109.828 87.6927 110.335 88.3211C110.843 88.9495 111.503 89.454 112.26 89.7921C113.229 88.6776 113.688 87.2463 113.537 85.8128C113.386 84.3794 112.637 83.0613 111.454 82.1483C111.211 81.9535 110.95 81.7794 110.675 81.6279H110.686Z" fill="#455A64"/>
<path d="M111.1 83.3555C111.167 83.3555 111.194 84.9165 111.526 86.7429C111.857 88.5693 112.349 90.0679 112.282 90.0835C112.106 89.7896 111.972 89.4745 111.885 89.1469C111.363 87.5973 111.08 85.9851 111.045 84.3597C111.008 84.0243 111.027 83.6855 111.1 83.3555Z" fill="#263238"/>
<path d="M144.933 110.944C144.044 110.298 143.009 109.854 141.908 109.648C140.806 109.443 139.67 109.48 138.586 109.758C137.535 110.012 136.564 110.499 135.754 111.179C134.944 111.859 134.319 112.711 133.93 113.665C134.734 114.194 135.642 114.569 136.6 114.767C137.559 114.965 138.549 114.984 139.515 114.822C140.481 114.659 141.403 114.319 142.23 113.821C143.056 113.322 143.77 112.676 144.331 111.917C144.56 111.609 144.761 111.284 144.933 110.944Z" fill="#455A64"/>
<path d="M142.619 111.641C142.619 111.73 140.542 111.896 138.034 112.5C135.526 113.104 133.565 113.832 133.532 113.749C133.916 113.504 134.334 113.311 134.775 113.176C136.848 112.396 139.024 111.884 141.243 111.657C141.698 111.589 142.162 111.584 142.619 111.641Z" fill="#263238"/>
<path d="M107.847 108.103C107.847 108.847 106.615 109.425 105.124 109.404C103.632 109.383 102.428 108.764 102.445 108.03C102.42 108.312 102.42 108.596 102.445 108.878C102.445 109.617 103.632 110.236 105.118 110.257C106.604 110.278 107.83 109.701 107.847 108.962C107.863 108.676 107.863 108.389 107.847 108.103Z" fill="#455A64"/>
<path d="M105.162 107.572C106.355 107.572 107.372 107.989 107.709 108.525C107.802 108.401 107.854 108.254 107.858 108.103C107.858 107.364 106.67 106.745 105.179 106.724C103.687 106.703 102.467 107.281 102.456 108.03C102.452 108.182 102.498 108.331 102.588 108.457C102.953 107.952 103.958 107.551 105.162 107.572Z" fill="#263238"/>
<path d="M123.772 101.516C124.087 101.797 123.877 102.478 123.302 103.035C122.728 103.592 122.021 103.816 121.711 103.555C121.819 103.674 121.938 103.783 122.065 103.883C122.38 104.164 123.092 103.94 123.661 103.363C124.23 102.785 124.446 102.124 124.131 101.843C124.018 101.728 123.898 101.618 123.772 101.516Z" fill="#455A64"/>
<path d="M122.534 102.338C122.697 102.144 122.904 101.988 123.141 101.883C123.378 101.777 123.637 101.725 123.899 101.729C123.88 101.647 123.836 101.573 123.772 101.515C123.462 101.234 122.744 101.453 122.175 102.01C121.606 102.567 121.396 103.248 121.711 103.534C121.774 103.594 121.855 103.632 121.943 103.644C121.928 103.398 121.974 103.152 122.076 102.925C122.179 102.699 122.336 102.498 122.534 102.338Z" fill="#263238"/>
<path d="M127.931 75.2329C128.141 75.8105 127.379 76.5806 126.213 76.9552C125.048 77.3299 123.948 77.1738 123.739 76.6066C123.801 76.8302 123.88 77.0493 123.976 77.2622C124.186 77.8398 125.296 78.0011 126.456 77.6213C127.616 77.2414 128.384 76.4765 128.174 75.8989C128.106 75.6728 128.025 75.4505 127.931 75.2329Z" fill="#455A64"/>
<path d="M125.694 75.5348C126.622 75.233 127.517 75.2746 127.942 75.5972C127.981 75.4786 127.981 75.3517 127.942 75.233C127.732 74.6606 126.622 74.4993 125.462 74.874C124.302 75.2486 123.534 76.0239 123.75 76.6067C123.793 76.7226 123.872 76.8239 123.976 76.8981C124.092 76.3882 124.766 75.8366 125.694 75.5348Z" fill="#263238"/>
<path d="M130.295 117.781L122.645 123.588C122.533 123.676 122.46 123.799 122.439 123.935C122.419 124.07 122.453 124.208 122.534 124.322C123.151 125.103 123.951 125.741 124.871 126.185C130.395 129.067 133.863 123.671 133.096 120.528C132.769 119.395 132.018 118.412 130.98 117.76C130.88 117.691 130.758 117.655 130.634 117.658C130.509 117.662 130.39 117.705 130.295 117.781Z" fill="#629DFF"/>
<path opacity="0.3" d="M130.295 117.781L122.645 123.588C122.533 123.676 122.46 123.799 122.439 123.935C122.419 124.07 122.453 124.208 122.534 124.322C123.151 125.103 123.951 125.741 124.871 126.185C130.395 129.067 133.863 123.671 133.096 120.528C132.769 119.395 132.018 118.412 130.98 117.76C130.88 117.691 130.758 117.655 130.634 117.658C130.509 117.662 130.39 117.705 130.295 117.781Z" fill="black"/>
<path d="M129.886 117.432L122.242 123.24C122.183 123.281 122.133 123.332 122.096 123.391C122.058 123.451 122.034 123.516 122.023 123.585C122.013 123.653 122.017 123.722 122.036 123.789C122.054 123.856 122.087 123.918 122.131 123.973C122.748 124.755 123.547 125.392 124.468 125.836C129.991 128.719 133.46 123.323 132.692 120.18C132.362 119.048 131.611 118.066 130.577 117.412C130.476 117.341 130.353 117.304 130.228 117.308C130.102 117.312 129.982 117.356 129.886 117.432Z" fill="#629DFF"/>
<path opacity="0.3" d="M129.246 118.13C129.445 117.859 131.936 118.702 131.925 120.659C131.914 122.615 131.328 124.083 130.406 124.129C129.483 124.176 128.334 122.568 128.285 121.111C128.282 120.05 128.617 119.011 129.246 118.13Z" fill="black"/>
<path opacity="0.3" d="M123.037 123.141C123.037 122.761 125.153 121.679 126.545 121.923C127.937 122.168 129.555 124.338 129.5 124.915C129.445 125.493 126.837 125.831 125.539 125.436C124.241 125.04 123.015 123.703 123.037 123.141Z" fill="black"/>
<path d="M125.6 122.548C125.429 122.381 123.827 123.38 124.186 123.724C124.545 124.067 125.942 122.907 125.6 122.548Z" fill="#629DFF"/>
<path d="M127.66 123.349C127.887 123.292 128.677 124.91 128.091 124.91C127.506 124.91 127.439 123.412 127.66 123.349Z" fill="#629DFF"/>
<path d="M126.705 122.891C126.981 122.943 126.705 125.061 125.97 124.972C125.235 124.884 126.434 122.839 126.705 122.891Z" fill="#629DFF"/>
<path d="M129.152 120.466C129.014 120.06 131.08 119.587 131.14 120.003C131.201 120.42 129.328 120.997 129.152 120.466Z" fill="#629DFF"/>
<path d="M129.135 119.686C129.362 119.863 130.422 119.061 130.118 118.812C129.815 118.562 128.914 119.509 129.135 119.686Z" fill="#629DFF"/>
<path d="M129.03 121.283C129.03 121.444 130.864 121.845 130.803 121.502C130.743 121.158 129.074 120.882 129.03 121.283Z" fill="#629DFF"/>
<path d="M128.782 121.949C128.583 122.251 129.699 123.422 129.986 123.172C130.273 122.922 129.074 121.512 128.782 121.949Z" fill="#629DFF"/>
<path d="M128.362 118.843C128.323 118.894 128.281 118.943 128.235 118.988L127.865 119.347C127.55 119.649 127.097 120.055 126.572 120.466C126.047 120.877 125.545 121.231 125.175 121.47L124.727 121.746C124.675 121.784 124.617 121.813 124.556 121.835L124.711 121.72C124.827 121.647 124.97 121.549 125.142 121.429C125.506 121.184 126.003 120.83 126.528 120.419C127.053 120.008 127.506 119.608 127.832 119.316L128.213 118.968L128.362 118.843Z" fill="white"/>
<path d="M56.0841 76.2475C56.0841 76.2475 63.7841 82.0129 66.2312 85.6137C68.6782 89.2144 88.2653 101.744 87.9946 102.207C87.7239 102.67 76.0247 120.851 76.0247 120.851L69.5233 117.755L56.0841 76.8876" fill="#629DFF"/>
<path d="M28.7196 143.481C28.7196 143.481 14.1149 165.19 12.6401 173.458L28.7196 179.655V143.481Z" fill="#629DFF"/>
<path d="M19.02 73.2505C19.02 73.7968 16.2581 80.6133 16.2581 80.6133L1.93513 95.4638L29.5868 137.882L32.3487 144.293L74.9144 141.972C74.9144 141.972 68.8383 111.558 68.402 106.511C67.9656 101.463 56.0951 76.232 56.0951 76.232L41.7335 77.7358L37.5355 76.3725L19.02 73.2505Z" fill="#629DFF"/>
<path d="M27.8303 143.689C27.2779 143.486 24.5161 152.244 19.7878 168.26C15.0595 184.276 18.2908 217 18.2908 217H91.701C91.701 217 86.8456 180.769 80.5044 163.155C74.246 145.765 74.5775 134.843 73.1855 134.958C71.7935 135.072 27.8303 143.689 27.8303 143.689Z" fill="#263238"/>
<path d="M70.5065 119.238C70.5065 119.238 70.5065 119.202 70.4678 119.124L70.385 118.781C70.3187 118.474 70.2193 118.026 70.0757 117.454C69.7884 116.304 69.341 114.649 68.6174 112.651C67.796 110.307 66.7763 108.03 65.5683 105.84C63.972 103.217 62.2105 100.687 60.2932 98.2635C56.8439 93.8273 52.934 89.7259 48.6216 86.0199C46.9644 84.5941 45.5283 83.5586 44.5395 82.8302L43.3685 82.034L43.0702 81.8207C43.0039 81.7739 42.9708 81.7427 42.9763 81.7427L43.0868 81.7999L43.4017 81.9872L44.6058 82.7469C45.6167 83.4494 47.0804 84.464 48.7541 85.869C53.1227 89.5443 57.0681 93.6429 60.5252 98.097C62.4507 100.53 64.2126 103.074 65.8003 105.715C67.0027 107.922 68.0096 110.22 68.8107 112.583C69.3604 114.172 69.8195 115.787 70.1861 117.422C70.3132 118.005 70.396 118.463 70.4402 118.765C70.4402 118.905 70.4844 119.02 70.4955 119.114C70.5058 119.154 70.5095 119.197 70.5065 119.238Z" fill="#263238"/>
<path d="M1.93514 95.4638C1.93514 95.4638 -0.771479 98.3986 0.217266 105.012C1.20601 111.626 12.6401 141.592 12.6401 141.592L37.6957 133.631L24.4388 108.764L15.2418 97.899L1.93514 95.4638Z" fill="#629DFF"/>
<path d="M69.5178 112.89C69.4785 112.816 69.4488 112.737 69.4294 112.656L69.2305 111.974C69.0483 111.339 68.8107 110.496 68.518 109.466C67.9048 107.348 67.0155 104.434 65.8997 101.255C64.7839 98.0759 63.6461 95.24 62.7954 93.2003C62.3811 92.2064 62.0331 91.3947 61.779 90.7807C61.6686 90.5205 61.5802 90.302 61.5084 90.1251C61.4689 90.0498 61.4428 89.9689 61.431 89.8857C61.4808 89.9527 61.5234 90.0242 61.5581 90.0991L61.8785 90.7391C62.1547 91.2958 62.5358 92.1128 62.9832 93.1274C63.8836 95.1516 65.0491 97.9874 66.1704 101.172C67.2917 104.356 68.1534 107.286 68.7113 109.419C68.993 110.486 69.2084 111.35 69.341 111.953C69.3962 112.229 69.446 112.474 69.4846 112.645C69.5102 112.725 69.5214 112.807 69.5178 112.89Z" fill="#263238"/>
<path d="M12.6401 141.608C12.6401 141.608 12.6788 141.608 12.7561 141.556L13.1041 141.436L14.474 140.978L19.6331 139.303L37.6515 133.527L37.5741 133.704C35.4364 129.729 33.0833 125.378 30.6198 120.794L26.8139 113.712C26.2284 112.557 25.5269 111.485 24.8917 110.408C24.2564 109.331 23.6047 108.29 22.9694 107.286C21.7921 105.357 20.5012 103.491 19.1028 101.698C18.4601 100.896 17.7626 100.135 17.0149 99.4187C16.3153 98.7689 15.5366 98.1995 14.6949 97.7223C12.1427 96.2552 9.21674 95.4659 6.22706 95.438C5.4163 95.4328 4.60611 95.4797 3.80215 95.5785L3.17796 95.6722L2.96254 95.6982C3.02995 95.6728 3.10046 95.6553 3.17244 95.6462L3.79663 95.5265C4.60028 95.4027 5.41276 95.3366 6.22706 95.3288C9.24264 95.3149 12.2043 96.0817 14.7888 97.5454C15.6467 98.0273 16.4419 98.6018 17.1585 99.2573C17.9192 99.9782 18.6296 100.745 19.2851 101.552C20.6997 103.347 22.0072 105.214 23.2014 107.146C23.8366 108.16 24.4829 109.227 25.1292 110.268C25.7755 111.308 26.477 112.422 27.0625 113.577L30.8739 120.659L37.8172 133.579L37.8834 133.709L37.7398 133.756L19.6828 139.438L14.5016 141.046L13.1206 141.467L12.7616 141.566L12.6401 141.608Z" fill="#263238"/>
<path d="M36.381 90.3019C36.3479 90.3644 31.835 88.2205 26.3058 85.5616C20.7765 82.9027 16.3244 80.6444 16.3631 80.5767C16.4017 80.5091 20.9091 82.6581 26.4438 85.317C31.9786 87.976 36.4197 90.2603 36.381 90.3019Z" fill="#263238"/>
<path d="M41.8274 78.0898C42.1046 79.7516 42.289 81.4259 42.3798 83.1059C42.5597 84.7795 42.6464 86.4607 42.6394 88.1428C42.3566 86.4817 42.1722 84.8071 42.087 83.1267C41.9017 81.4536 41.815 79.772 41.8274 78.0898Z" fill="#263238"/>
<path d="M48.5056 87.4404L48.3288 87.5029L47.7764 87.6642C47.3124 87.7994 46.6385 88.0076 45.7658 88.2886C44.0258 88.8505 41.5291 89.7195 38.4911 90.8903C35.453 92.061 31.8626 93.57 27.9518 95.3392C26.9313 95.7409 25.9355 96.196 24.969 96.7025C24.5025 96.9732 24.1434 97.3809 23.9471 97.8628C23.7819 98.3668 23.8152 98.91 24.041 99.3926C24.4885 100.392 25.422 101.151 26.2505 101.994L27.5099 103.274L28.7251 104.622C30.2955 106.395 31.7703 108.241 33.1441 110.153C34.4864 111.995 35.685 113.832 36.7898 115.596C38.9992 119.14 40.7834 122.423 42.2251 125.212C43.6668 128.001 44.7605 130.327 45.5062 131.888L46.3458 133.72C46.4342 133.922 46.5004 134.079 46.5557 134.198C46.5818 134.252 46.6022 134.307 46.6164 134.365C46.5818 134.315 46.5523 134.263 46.5281 134.209C46.4673 134.094 46.39 133.938 46.2905 133.74C46.0806 133.314 45.7824 132.7 45.4068 131.93C44.6334 130.369 43.5121 128.084 42.0539 125.306C40.5956 122.527 38.7838 119.259 36.5743 115.731C35.4696 113.978 34.2599 112.146 32.9232 110.315C31.5864 108.483 30.1282 106.625 28.5318 104.804L27.3221 103.467L26.0627 102.229C25.2563 101.386 24.2951 100.615 23.809 99.5331C23.5562 98.9928 23.5208 98.3843 23.7096 97.8212C23.9258 97.2853 24.3239 96.8316 24.842 96.5308C25.8208 96.0161 26.8316 95.5574 27.869 95.1571C31.7963 93.3983 35.3923 91.9153 38.4414 90.7498C41.4904 89.5842 44.0037 88.6996 45.7603 88.1793C46.633 87.9139 47.318 87.7162 47.7875 87.6017L48.3398 87.4664C48.3936 87.451 48.4493 87.4423 48.5056 87.4404Z" fill="#263238"/>
<path opacity="0.3" d="M36.5025 106.048C37.5611 106.048 38.4193 105.239 38.4193 104.242C38.4193 103.245 37.5611 102.437 36.5025 102.437C35.444 102.437 34.5858 103.245 34.5858 104.242C34.5858 105.239 35.444 106.048 36.5025 106.048Z" fill="black"/>
<path opacity="0.3" d="M54.4601 99.0491C55.5187 99.0491 56.3768 98.2408 56.3768 97.2436C56.3768 96.2464 55.5187 95.438 54.4601 95.438C53.4015 95.438 52.5434 96.2464 52.5434 97.2436C52.5434 98.2408 53.4015 99.0491 54.4601 99.0491Z" fill="black"/>
<path opacity="0.3" d="M48.5056 121.746C48.5067 122.103 48.3952 122.453 48.1852 122.751C47.9753 123.048 47.6763 123.281 47.3262 123.418C46.976 123.555 46.5905 123.592 46.2183 123.523C45.8461 123.454 45.5041 123.282 45.2355 123.03C44.9669 122.778 44.7838 122.456 44.7093 122.106C44.6349 121.755 44.6726 121.392 44.8175 121.062C44.9624 120.731 45.2081 120.449 45.5234 120.25C45.8387 120.052 46.2095 119.946 46.5888 119.946C47.0962 119.946 47.5829 120.135 47.9422 120.473C48.3015 120.81 48.5041 121.268 48.5056 121.746Z" fill="black"/>
<path opacity="0.3" d="M64.3531 117.807C65.4117 117.807 66.2698 116.999 66.2698 116.002C66.2698 115.005 65.4117 114.196 64.3531 114.196C63.2945 114.196 62.4364 115.005 62.4364 116.002C62.4364 116.999 63.2945 117.807 64.3531 117.807Z" fill="black"/>
<path d="M77.7702 144.09C78.6505 144.256 79.5179 144.479 80.3663 144.756C79.4442 144.834 78.523 144.597 77.7702 144.09Z" fill="#FF9A6C"/>
<path d="M16.5951 140.348C16.689 140.817 24.7536 151.593 31.2053 151.593C37.657 151.593 69.457 142.612 69.457 142.612L65.7782 133.329L33.9561 137.835L32.3929 135.332L16.5951 140.348Z" fill="#FFBF9D"/>
<path d="M65.7782 133.329C65.9439 133.199 71.8543 130.795 75.1078 130.124C78.3612 129.453 80.4989 129.734 82.6476 130.806C84.7963 131.878 89.5026 133.085 90.5244 134.068C91.3033 134.817 90.5907 136.118 89.1435 135.988C87.6963 135.858 82.1339 134.682 82.0179 134.698C82.0179 134.698 81.9627 134.755 81.9295 134.838C81.8117 135.17 81.798 135.526 81.8902 135.865C81.9823 136.204 82.1762 136.51 82.4488 136.748L86.216 140.073C86.216 140.073 86.2712 141.561 85.2272 141.837C84.5774 142.013 83.9468 142.246 83.3436 142.534C83.3436 142.534 82.9183 144.548 81.2667 144.714C79.6151 144.881 74.6106 143.377 74.3731 143.346L69.457 142.612L65.7782 133.329Z" fill="#FFBF9D"/>
<path d="M79.6317 141.774C80.2592 141.892 80.8774 142.051 81.4821 142.248C82.1126 142.355 82.7345 142.503 83.3436 142.69C82.0348 142.76 80.7359 142.44 79.6317 141.774Z" fill="#FF9A6C"/>
<path d="M72.5724 142.815L77.9304 145.167C78.2968 145.371 78.7216 145.462 79.1456 145.427C79.7642 145.307 80.1122 144.699 80.3719 144.152" fill="#FFBF9D"/>
<path d="M20.3125 31.3736C25.8362 27.3669 31.4594 26.6905 38.5408 26.7633C42.5399 26.8206 43.1586 24.682 46.0144 25.4781C48.8726 26.2121 51.3657 27.8699 53.0571 30.1612C55.007 32.9294 56.6144 36.015 56.8906 39.3244C57.1723 42.717 57.4429 46.1357 57.0673 49.5231C57.07 49.5577 57.07 49.5925 57.0673 49.6271C56.7451 52.219 55.5176 54.6366 53.5778 56.4996C51.638 58.3627 49.096 59.5657 46.3513 59.9195L44.0811 60.2161C38.9772 60.2161 33.807 60.2161 28.8743 58.9933C23.9416 57.7705 21.6161 70.2014 19.7546 65.7577C13.4687 50.7147 14.7004 35.427 20.3125 31.3736Z" fill="#263238"/>
<path d="M40.7668 28.2044L37.0825 27.6841L22.7209 32.5649C21.7321 32.5823 20.7863 32.9486 20.0704 33.5912C19.3545 34.2338 18.9205 35.1061 18.8543 36.0355L19.959 73.5573L37.6349 84.0474V89.7712L42.1588 88.3506L40.0819 83.4594C40.0819 79.9263 40.0819 75.441 40.0819 75.441C40.0819 75.441 49.5882 74.853 52.3335 64.467C53.6979 59.3 54.2116 50.6936 54.3883 43.6533C54.543 37.3 49.0911 28.4854 40.7668 28.2044Z" fill="#FFBF9D"/>
<path d="M49.0524 52.2755C49.0213 52.627 48.8469 52.9534 48.5657 53.1863C48.2845 53.4192 47.9184 53.5403 47.5444 53.5243C47.3607 53.523 47.1791 53.4872 47.0103 53.4189C46.8415 53.3507 46.6888 53.2513 46.5612 53.1268C46.4336 53.0023 46.3337 52.855 46.2673 52.6936C46.2009 52.5323 46.1694 52.36 46.1745 52.187C46.2042 51.8346 46.3781 51.5069 46.6594 51.2729C46.9408 51.0389 47.3076 50.9171 47.6825 50.933C47.8667 50.9343 48.0488 50.9703 48.218 51.0389C48.3872 51.1075 48.5401 51.2073 48.6677 51.3324C48.7954 51.4574 48.8952 51.6053 48.9612 51.7673C49.0273 51.9293 49.0583 52.1021 49.0524 52.2755Z" fill="#263238"/>
<path d="M51.7259 47.1087C51.5325 47.27 50.5162 46.4218 48.964 46.3022C47.4118 46.1825 46.2022 46.8225 46.0751 46.6196C45.9978 46.5363 46.2077 46.2345 46.7324 45.9327C47.4408 45.5517 48.2569 45.3863 49.069 45.4592C49.8719 45.5214 50.6326 45.8241 51.2398 46.323C51.6872 46.7028 51.8198 47.0358 51.7259 47.1087Z" fill="#263238"/>
<path d="M41.4076 58.2286C41.4076 58.1453 42.3798 58.0672 43.954 58.0048C44.3517 58.0048 44.7329 57.958 44.8212 57.7082C44.8884 57.3286 44.8326 56.9388 44.6611 56.5895C44.3683 55.6581 44.07 54.685 43.7552 53.6652C42.5068 49.5024 41.6396 46.1098 41.8163 46.063C41.9931 46.0161 43.1531 49.3463 44.4014 53.5039L45.2521 56.4386C45.46 56.906 45.4855 57.4277 45.3239 57.9111C45.2541 58.0365 45.1553 58.1455 45.0349 58.2301C44.9144 58.3148 44.7754 58.3729 44.6279 58.4003C44.4038 58.4379 44.1754 58.4484 43.9485 58.4315C42.3798 58.3847 41.4076 58.3118 41.4076 58.2286Z" fill="#263238"/>
<path d="M40.0985 75.4518C34.8296 75.1022 29.7666 73.3839 25.4717 70.4878C25.4717 70.4878 28.7859 78.116 40.0653 78.0431L40.0985 75.4518Z" fill="#FF9A6C"/>
<path d="M51.3724 41.9938C51.0796 42.3269 49.9196 41.9938 48.5277 41.9938C47.1357 41.9938 45.9647 42.2384 45.6885 41.895C45.567 41.7233 45.7492 41.3746 46.2408 41.0728C46.9393 40.6913 47.7355 40.4973 48.5428 40.512C49.3501 40.5267 50.1376 40.7494 50.82 41.1561C51.3337 41.4891 51.4994 41.8273 51.3724 41.9938Z" fill="#263238"/>
<path d="M31.8792 51.2351C31.8562 51.5882 31.981 51.9357 32.2267 52.2032C32.4725 52.4706 32.8196 52.6368 33.1938 52.6661C33.3759 52.6886 33.5609 52.6765 33.738 52.6305C33.915 52.5845 34.0805 52.5056 34.2247 52.3984C34.3688 52.2913 34.4887 52.158 34.5773 52.0064C34.6659 51.8549 34.7214 51.6882 34.7405 51.5161C34.762 51.1634 34.6367 50.8166 34.3913 50.5495C34.1458 50.2823 33.7995 50.1157 33.4258 50.0852C33.2437 50.0627 33.0587 50.0748 32.8817 50.1208C32.7046 50.1668 32.5392 50.2457 32.395 50.3528C32.2508 50.46 32.1309 50.5933 32.0424 50.7448C31.9538 50.8964 31.8983 51.0631 31.8792 51.2351Z" fill="#263238"/>
<path d="M30.8297 45.9171C30.9954 46.1044 32.1278 45.3968 33.6744 45.4696C35.221 45.5425 36.3147 46.3282 36.4915 46.1565C36.5799 46.0784 36.4142 45.7558 35.9391 45.3916C35.2923 44.9227 34.5065 44.6554 33.691 44.6267C32.8873 44.5863 32.0906 44.7867 31.4152 45.199C30.9236 45.5112 30.7468 45.8339 30.8297 45.9171Z" fill="#263238"/>
<path d="M31.9123 41.2806C32.1996 41.624 33.4148 41.3378 34.8509 41.3898C36.2871 41.4419 37.4858 41.7333 37.784 41.3898C37.9166 41.2285 37.7398 40.8695 37.2317 40.5469C36.5281 40.1253 35.7124 39.8998 34.8786 39.8965C34.0466 39.8645 33.2224 40.0577 32.5034 40.4532C31.9731 40.781 31.7908 41.1141 31.9123 41.2806Z" fill="#263238"/>
<path d="M20.2076 53.8364C20.2739 53.0507 19.484 51.1254 18.672 50.9329C16.5067 50.4126 12.5351 50.2773 12.0104 55.5275C11.3034 62.703 20.1744 61.7716 20.2076 61.5635C20.2407 61.3553 19.9645 56.5318 20.2076 53.8364Z" fill="#FFBF9D"/>
<path d="M17.2911 58.8733C17.2579 58.8473 17.1474 58.9513 16.9154 59.0242C16.5875 59.126 16.2302 59.1017 15.9212 58.9565C15.1423 58.6079 14.5844 57.3435 14.6728 56.0478C14.7169 55.4304 14.9056 54.8298 15.2252 54.2891C15.32 54.0702 15.4702 53.8766 15.6628 53.7251C15.8554 53.5736 16.0844 53.4689 16.3299 53.4201C16.4855 53.3965 16.645 53.4246 16.7811 53.4996C16.9171 53.5746 17.0212 53.6918 17.0756 53.8312C17.1585 54.0393 17.0756 54.1798 17.1364 54.1954C17.1972 54.211 17.3131 54.0914 17.28 53.7896C17.2556 53.6074 17.166 53.4385 17.0259 53.3108C16.83 53.1435 16.572 53.0557 16.3078 53.0663C15.9893 53.0963 15.6843 53.2031 15.4221 53.3762C15.16 53.5493 14.9495 53.7831 14.8109 54.0549C14.4242 54.6481 14.1985 55.3218 14.1536 56.0166C14.0597 57.4684 14.706 58.8889 15.7831 59.2844C15.9819 59.3584 16.1958 59.3894 16.409 59.3749C16.6223 59.3605 16.8293 59.3011 17.0149 59.2011C17.2579 59.0398 17.3352 58.8889 17.2911 58.8733Z" fill="#FF9A6C"/>
<path d="M18.3626 51.1359L20.2352 53.0924C28.8632 45.8076 45.8652 27.3719 44.9151 28.4698C44.9151 28.4698 39.2533 26.0762 32.995 26.9088C26.7366 27.7413 14.822 30.3066 14.7667 37.2323C14.7115 44.1581 18.3626 51.1359 18.3626 51.1359Z" fill="#263238"/>
<path d="M54.8302 34.4331C54.1839 33.1062 54.891 31.4983 56.0952 30.5149C57.2993 29.5314 58.9012 29.0475 60.4589 28.6156C62.0166 28.1838 63.624 27.7519 64.9055 26.8517C67.4519 25.0721 68.1313 21.8564 67.7723 18.9997C67.0984 13.5362 63.3091 8.59292 58.2825 5.40843C53.256 2.22395 47.097 0.626499 40.9381 0.147785C28.1175 -0.856473 16.573 3.32187 6.75182 10.7211C5.95582 11.3215 5.30259 12.0727 4.83443 12.926C4.36626 13.7794 4.09362 14.7158 4.03416 15.6748C3.96235 17.1629 4.89034 18.5262 5.85146 19.7438C8.80665 23.4955 12.27 26.092 16.3465 28.8966L15.2086 35.0315L54.8302 34.4331Z" fill="#629DFF"/>
<path d="M64.1432 16.3722C64.0381 16.5443 63.9037 16.699 63.7455 16.8301C63.3425 17.2066 62.9104 17.5544 62.4529 17.8708C61.8729 18.2818 61.1493 18.7241 60.3373 19.1924C59.5254 19.6607 58.625 20.1499 57.7246 20.7535C56.8724 21.2837 56.0916 21.9092 55.3991 22.6163C54.8415 23.1952 54.3881 23.856 54.0569 24.5728C53.7735 25.2377 53.6002 25.9397 53.5432 26.6541C53.4959 26.4615 53.4828 26.2628 53.5045 26.0661C53.5332 25.5219 53.6564 24.9858 53.8691 24.4791C54.1854 23.7292 54.6356 23.0358 55.2003 22.429C55.8957 21.6962 56.6885 21.0509 57.5589 20.5089C58.4758 19.9209 59.3873 19.4318 60.1992 18.9791C61.0112 18.5264 61.7459 18.0997 62.3314 17.7147C63.5079 16.9394 64.11 16.3202 64.1432 16.3722Z" fill="#263238"/>
<path d="M57.9069 10.2319C57.9401 10.2788 57.0066 10.7887 55.6974 11.8606C55.3771 12.1312 55.0235 12.4278 54.67 12.7764C54.3165 13.125 53.9575 13.5049 53.5653 13.9107C52.7793 14.8128 52.0805 15.7793 51.4773 16.7986C50.896 17.8293 50.4099 18.9051 50.0246 20.0143C49.8644 20.5347 49.6987 21.0186 49.5993 21.4869C49.4877 21.9196 49.3992 22.3572 49.3341 22.7982C49.0745 24.4112 49.1187 25.4311 49.0579 25.4311C49.0137 25.1959 48.997 24.9569 49.0082 24.7182C48.99 24.4392 48.99 24.1595 49.0082 23.8805C49.0201 23.5096 49.0533 23.1396 49.1077 22.7722C49.1626 22.3246 49.2419 21.88 49.3452 21.4401C49.4536 20.9342 49.5901 20.434 49.7539 19.9415C50.1316 18.8113 50.6217 17.7172 51.2177 16.6738C51.8407 15.6451 52.5637 14.6731 53.3775 13.7703C53.7641 13.3644 54.1232 12.9689 54.4822 12.6411C54.8185 12.3218 55.1725 12.0196 55.5428 11.7357C55.8742 11.4599 56.2056 11.257 56.4818 11.0593C56.718 10.8905 56.9652 10.7358 57.222 10.5962C57.4347 10.4504 57.6645 10.3282 57.9069 10.2319Z" fill="#263238"/>
<path d="M43.5398 7.44287C43.5503 7.66381 43.5373 7.88519 43.5011 8.10371C43.4569 8.53038 43.4017 9.14439 43.3409 9.90409C43.0109 13.8615 43.1573 17.8414 43.7773 21.7679C43.8933 22.5224 43.9927 23.1312 44.07 23.5526C44.1238 23.7675 44.1516 23.9875 44.1529 24.2083C44.0656 24.0034 44.0008 23.7907 43.9596 23.5734C43.8491 23.1572 43.7165 22.5328 43.5729 21.7991C42.8425 17.8653 42.6957 13.8551 43.1365 9.88327C43.2249 9.12357 43.3133 8.50957 43.3906 8.0933C43.4137 7.87181 43.4637 7.65357 43.5398 7.44287Z" fill="#263238"/>
<path d="M34.1605 4.76855C34.1841 5.04562 34.1841 5.32403 34.1605 5.6011C34.1605 6.12144 34.1605 6.91756 34.1605 7.87499C34.1958 10.37 34.3802 12.8612 34.7128 15.3367C35.0589 17.8122 35.555 20.267 36.1987 22.6891C36.4473 23.6205 36.6572 24.3698 36.8118 24.8849C36.9058 25.1495 36.976 25.421 37.0217 25.6967C36.893 25.4456 36.7877 25.1844 36.7069 24.9162C36.5191 24.3958 36.276 23.6621 36.0054 22.7359C35.3071 20.3189 34.7903 17.8585 34.4587 15.3731C34.1167 12.887 33.9561 10.3818 33.9782 7.87499C33.9782 6.91236 34.0224 6.13705 34.0666 5.6011C34.0732 5.32161 34.1046 5.04312 34.1605 4.76855Z" fill="#263238"/>
<path d="M16.4514 10.8823C16.6677 11.0488 16.8657 11.2354 17.0425 11.4391C17.407 11.8137 17.9208 12.3653 18.5449 13.0573C19.7822 14.4467 21.4283 16.424 23.0799 18.7187C24.4936 20.6737 25.8007 22.6952 26.9962 24.7754C27.4547 25.5716 27.8082 26.2272 28.0402 26.6851C28.1771 26.9153 28.29 27.1576 28.3771 27.4084C28.2129 27.1941 28.067 26.9679 27.9408 26.7319C27.6535 26.248 27.2724 25.6236 26.836 24.8691C25.8804 23.3081 24.505 21.1539 22.859 18.8696C21.2129 16.5853 19.6 14.5976 18.4013 13.1822L16.9707 11.5119C16.7785 11.3167 16.6048 11.106 16.4514 10.8823Z" fill="#263238"/>
<path d="M15.5069 46.5517C13.4024 39.7872 14.5071 35.0469 15.8936 30.2025C15.8936 30.2025 32.9453 20.6178 46.9976 23.6462C46.9976 23.6462 55.7748 25.3061 56.9071 29.5989L57.1557 44.2153C57.1557 44.2153 56.1946 38.4291 43.4127 37.9712C30.6308 37.5133 15.5069 46.5517 15.5069 46.5517Z" fill="#629DFF"/>
<path d="M34.8399 61.7197C34.9529 61.2546 35.2415 60.8441 35.6519 60.5646C36.027 60.3043 36.4823 60.167 36.9482 60.1736C37.414 60.1801 37.8648 60.3303 38.2315 60.601C38.6134 60.9198 38.897 61.3297 39.0525 61.7875C39.2081 62.2454 39.2297 62.7342 39.1152 63.2027C38.8801 63.4701 38.5869 63.687 38.2553 63.8387C37.9238 63.9904 37.5615 64.0734 37.193 64.0821C37.077 64.0821 36.961 64.0821 36.845 64.0821C36.2674 64.0383 35.7278 63.7934 35.3315 63.3952C35.1188 63.1701 34.9638 62.9019 34.8786 62.6114C34.7933 62.3209 34.7801 62.0158 34.8399 61.7197Z" fill="#FF9A6C"/>
<path d="M35.9723 59.373C36.1932 59.373 36.0109 60.7675 37.1378 61.8967C38.2646 63.0258 39.8389 63.057 39.8223 63.2548C39.8223 63.3432 39.4411 63.4785 38.7783 63.4161C37.9205 63.3296 37.1226 62.9611 36.5246 62.3754C35.9578 61.8143 35.6431 61.0685 35.6463 60.294C35.6684 59.6748 35.8728 59.3522 35.9723 59.373Z" fill="#263238"/>
<path d="M56.5536 29.6406C56.4671 29.5237 56.3914 29.4001 56.3271 29.2712C56.2498 29.1515 56.178 28.9954 56.062 28.8237L55.6477 28.2461C54.6951 27.0615 53.4668 26.0985 52.0573 25.431C49.9637 24.446 47.7038 23.8121 45.3791 23.5578C42.5382 23.1957 39.6584 23.1957 36.8174 23.5578C35.3467 23.7446 33.8894 24.0157 32.4537 24.3695C31.0617 24.7078 29.747 25.1292 28.4876 25.5247C25.9799 26.3208 23.7483 27.1221 21.8923 27.8298C20.0363 28.5375 18.5394 29.1411 17.512 29.5573L16.3244 30.0361C16.1901 30.0992 16.0495 30.1498 15.9046 30.187C16.0311 30.1108 16.1642 30.0446 16.3023 29.9892C16.5896 29.8539 16.9762 29.6822 17.4678 29.4689C18.4842 29.0214 19.959 28.3866 21.815 27.6581C23.671 26.9296 25.8915 26.0971 28.4048 25.2905C29.6587 24.8951 30.9788 24.4632 32.3819 24.1198C33.8351 23.7573 35.3109 23.481 36.8008 23.2924C39.6671 22.922 42.5736 22.922 45.4399 23.2924C47.7771 23.5711 50.0436 24.237 52.1346 25.2593C53.5596 25.9537 54.7899 26.9557 55.7251 28.1836L56.1172 28.782C56.2277 28.9589 56.294 29.1255 56.3603 29.2451C56.4333 29.3731 56.4979 29.5051 56.5536 29.6406Z" fill="#263238"/>
</svg>
