<svg width="22" height="42" viewBox="0 0 22 42" fill="none" xmlns="http://www.w3.org/2000/svg">
<path d="M21.1494 1.08902V3.22983L21.582 35.2504C21.634 38.9652 18.5063 41.9736 14.5566 41.9998C10.5681 42.026 7.24137 39.0044 7.1289 35.2504C7.00777 31.3263 6.8131 27.1624 6.8131 27.1624C6.8131 27.1624 1.75168 26.4604 0.527429 19.8679C-0.0825363 16.5892 -0.0652324 11.1826 0.0948294 6.7615C0.123768 5.81402 0.343988 4.88242 0.742052 4.02358C1.14012 3.16473 1.70768 2.39666 2.41007 1.76625C3.11246 1.13585 3.93496 0.656336 4.82735 0.356985C5.71974 0.0576337 6.6633 -0.0552732 7.60043 0.0251575L21.1494 1.08902Z" fill="#FFBE9D"/>
</svg>
