<svg width="37" height="34" viewBox="0 0 37 34" fill="none" xmlns="http://www.w3.org/2000/svg">
<path d="M8.04539 0L8.17122 0.0550443L8.5709 0.235973L10.1326 0.967513L16.0538 3.76784L36.8445 13.7106L36.9999 13.7892L36.9333 13.9623C34.4316 20.0428 31.6709 26.7525 28.7917 33.8006L28.7177 33.9815L28.5401 33.9028H28.4883L0.140624 21.0732L0 21.0103L0.0592075 20.8608C2.47949 14.505 4.50009 9.28984 5.87676 5.62424C6.5651 3.83864 7.11281 2.43847 7.49028 1.45521L7.91217 0.377557C7.95386 0.254841 8.00588 0.136385 8.0676 0.0235973C8.0676 0.0235973 8.02319 0.16517 7.93437 0.424751C7.84555 0.684332 7.69753 1.06978 7.52729 1.54175C7.16462 2.54074 6.64651 3.96449 5.98038 5.78155C4.62591 9.43141 2.69413 14.6466 0.340467 20.9788L0.25905 20.7665L28.6363 33.5252H28.6881L28.4364 33.6354C31.3452 26.5952 34.1134 19.8933 36.6225 13.805L36.7113 14.0567L16.113 3.99596L10.1918 1.07765L8.60791 0.291041L8.20082 0.0786416L8.04539 0Z" fill="white"/>
</svg>
