<svg width="33" height="27" viewBox="0 0 33 27" fill="none" xmlns="http://www.w3.org/2000/svg">
<path d="M29.8155 0.0721527C29.6627 2.23334 29.7179 4.30978 29.6881 6.4286C29.6584 8.54742 29.6074 10.6111 29.6074 12.6918C29.5522 16.9295 29.5437 21.1162 29.7009 25.2606C29.7009 25.4344 30.1681 25.2606 30.1596 25.0827C29.9982 20.9171 30.0067 16.6879 30.0491 12.446C30.0916 8.30164 30.3592 4.04281 30.0491 0.0382508C30.0491 -0.021076 29.8453 -0.0126 29.841 0.0721527H29.8155Z" fill="#0060FF"/>
<path d="M0.107945 23.9937C5.48466 24.0318 10.9336 23.964 16.3018 24.0191C21.67 24.0742 26.9193 24.1674 32.1771 24.2903C32.3895 24.2903 32.6783 23.9852 32.4362 23.981C27.2124 23.8623 21.9758 23.7606 16.7223 23.714C11.3031 23.6674 5.87538 23.5953 0.303307 23.786C0.12918 23.786 -0.0661825 23.9937 0.12918 23.9937H0.107945Z" fill="#0060FF"/>
<path d="M31.1065 0.627489C31.1924 0.864006 31.305 1.09005 31.442 1.30128C31.5694 1.5174 31.7053 1.72504 31.8667 1.93268C31.8964 1.97082 31.9771 1.97506 32.0663 1.93268C32.1555 1.8903 32.2192 1.82674 32.1852 1.7886C32.0366 1.5852 31.8922 1.36484 31.7605 1.16143C31.6289 0.958028 31.5227 0.737671 31.391 0.52579C31.3528 0.4707 31.0937 0.52579 31.1235 0.619018L31.1065 0.627489Z" fill="#0060FF"/>
<path d="M32.8012 0.381625C32.5549 0.805388 32.351 1.19949 32.1472 1.6063L31.8414 2.21651L31.6843 2.53434C31.6291 2.63259 31.5809 2.73454 31.5399 2.83945C31.5101 2.94539 31.7565 2.94962 31.8414 2.83945C31.9494 2.6549 32.0459 2.46384 32.1302 2.26737L32.4105 1.69105C32.6186 1.26729 32.8352 0.843525 32.9838 0.419762C33.0093 0.356197 32.8522 0.326534 32.8012 0.419762V0.381625Z" fill="#0060FF"/>
<path d="M0.145927 25.2353C0.0609866 25.354 0.145927 25.4006 0.209633 25.4557C0.273338 25.5108 0.358277 25.5871 0.434724 25.6506C0.587616 25.7735 0.732014 25.9049 0.859425 26.0363C0.986835 26.1676 1.13548 26.299 1.28413 26.4304L1.48798 26.638C1.56018 26.7185 1.59416 26.7906 1.75979 26.7863C1.80352 26.7846 1.84597 26.7711 1.88262 26.7472C1.91926 26.7233 1.94873 26.69 1.96789 26.6507C1.98913 26.5448 1.89994 26.4897 1.83624 26.4261L1.63238 26.227C1.49648 26.0913 1.35208 25.9642 1.20768 25.8413C1.06328 25.7184 0.901895 25.5828 0.740509 25.4557C0.675992 25.3804 0.596772 25.319 0.507687 25.2753C0.418602 25.2316 0.321521 25.2065 0.222373 25.2015C0.196307 25.204 0.172106 25.2161 0.154421 25.2353H0.145927Z" fill="#0060FF"/>
<path d="M1.95104 25.1421C1.90432 25.0955 1.77267 25.1421 1.67923 25.1929C1.58988 25.2563 1.50858 25.3303 1.43715 25.4133C1.28426 25.5743 1.14411 25.7396 1.01245 25.9048C0.736397 26.2354 0.49007 26.5702 0.260732 26.9007C0.150309 27.0617 0.502811 27.0109 0.604739 26.8625C0.800102 26.58 1.00821 26.2975 1.22905 26.015C1.33098 25.8837 1.4414 25.7523 1.55182 25.6209C1.60279 25.5574 1.65375 25.4938 1.70896 25.4345L1.8024 25.3201C1.83363 25.2826 1.87486 25.2547 1.92131 25.2395C1.98077 25.2099 1.97228 25.1675 1.95529 25.1463L1.95104 25.1421Z" fill="#0060FF"/>
<path d="M28.2824 10.2469C27.895 10.8428 27.557 11.4692 27.2716 12.1199C26.9021 12.8615 26.5156 13.6031 26.0527 14.3489C25.2288 15.6753 23.8018 17.7178 21.7759 18.4679C19.8181 19.1967 18.442 18.3026 17.6181 17.6203C16.8283 16.9234 16.1533 16.1069 15.6178 15.2007C14.658 13.7132 13.7916 12.0055 11.7955 11.2427C11.215 11.0192 10.5958 10.9131 9.97388 10.9305C9.35195 10.948 8.73971 11.0887 8.17277 11.3444C6.81867 11.9364 5.63671 12.8606 4.73694 14.0311C2.47328 16.8999 1.48798 20.1417 1.51771 22.5911C1.51771 22.6716 1.77677 22.6335 1.79376 22.5275C2.21846 19.9214 2.72385 17.15 4.94079 14.2345C6.17243 12.6115 8.29593 11.0605 10.2708 11.2681C11.2951 11.3764 12.2536 11.824 12.9931 12.5394C14.4244 13.8616 15.1166 15.6626 16.3907 17.0949C17.3888 18.2263 19.576 20.1799 22.8037 18.2136C24.1872 17.3025 25.3482 16.0933 26.2013 14.6752C27.1272 13.2513 28.087 11.5775 28.3631 10.2426C28.3631 10.2426 28.3631 10.196 28.3121 10.2426L28.2824 10.2469Z" fill="#0060FF"/>
<path d="M19.7289 5.0261C19.6972 5.04428 19.6712 5.07101 19.6539 5.10323C19.6366 5.13545 19.6288 5.17187 19.6313 5.20832C19.6313 5.32697 19.6313 5.44139 19.61 5.55157C19.61 5.75074 19.61 5.94567 19.61 6.1406C19.61 6.53894 19.61 6.93727 19.61 7.34832C19.61 7.43307 19.8648 7.39493 19.8691 7.28899C19.8691 6.89065 19.8691 6.50503 19.8691 6.11941V5.54309C19.8691 5.37782 19.9201 5.11933 19.7842 5.0261H19.7629H19.7289Z" fill="#0060FF"/>
<path d="M19.7289 8.4755C19.6972 8.49474 19.6713 8.52229 19.6541 8.55515C19.6368 8.58801 19.629 8.62495 19.6313 8.66196C19.6313 8.77637 19.6313 8.89079 19.61 9.0052C19.61 9.20014 19.61 9.39507 19.61 9.59C19.61 9.99257 19.61 10.3909 19.61 10.7977C19.61 10.8867 19.8648 10.8443 19.8691 10.7384C19.8691 10.3443 19.8691 9.95867 19.8691 9.57305V8.99249C19.8691 8.82722 19.9201 8.56873 19.7842 8.4755H19.7289Z" fill="#0060FF"/>
<path d="M19.7289 11.9292C19.6968 11.9469 19.6705 11.9736 19.6532 12.0059C19.6359 12.0382 19.6283 12.0748 19.6313 12.1114C19.6313 12.2258 19.6313 12.3402 19.61 12.4546C19.61 12.6538 19.61 12.8487 19.61 13.0436C19.61 13.442 19.61 13.8403 19.61 14.2471C19.61 14.3361 19.8648 14.298 19.8691 14.1878C19.8691 13.7937 19.8691 13.4081 19.8691 13.0225V12.4461C19.8691 12.2766 19.9201 12.0224 19.7842 11.9249C19.7809 11.9231 19.7773 11.9221 19.7735 11.9221C19.7698 11.9221 19.7661 11.9231 19.7629 11.9249L19.7289 11.9292Z" fill="#0060FF"/>
<path d="M19.7289 15.3786C19.6972 15.3968 19.6712 15.4235 19.6539 15.4557C19.6366 15.488 19.6288 15.5244 19.6313 15.5608C19.6313 15.6795 19.6313 15.7939 19.61 15.9041C19.61 16.1032 19.61 16.2982 19.61 16.4931C19.61 16.8914 19.61 17.294 19.61 17.7008C19.61 17.7898 19.8648 17.7474 19.8691 17.6415C19.8691 17.2432 19.8691 16.8575 19.8691 16.4719L19.8394 15.9125C19.8394 15.7473 19.8903 15.4888 19.7544 15.3956H19.7332L19.7289 15.3786Z" fill="#0060FF"/>
<path d="M19.7289 18.828C19.6972 18.8473 19.6713 18.8748 19.6541 18.9077C19.6368 18.9405 19.629 18.9775 19.6313 19.0145C19.6313 19.1289 19.6313 19.2433 19.61 19.3577C19.61 19.5526 19.61 19.7476 19.61 19.9425C19.61 20.3663 19.61 20.7434 19.61 21.1502C19.61 21.2392 19.8648 21.1968 19.8691 21.0909C19.8691 20.6968 19.8691 20.3112 19.8691 19.9256V19.345C19.8691 19.1797 19.9201 18.9212 19.7842 18.828H19.7289Z" fill="#0060FF"/>
<path d="M19.7289 22.269C19.6968 22.2868 19.6705 22.3134 19.6532 22.3457C19.6359 22.3781 19.6283 22.4147 19.6313 22.4512C19.6313 22.5656 19.6313 22.68 19.61 22.7945C19.61 22.9936 19.61 23.1886 19.61 23.3835C19.61 23.7818 19.61 24.1802 19.61 24.587C19.61 24.676 19.8648 24.6378 19.8691 24.5319C19.8691 24.1335 19.8691 23.7479 19.8691 23.3623V22.786C19.8691 22.6207 19.9201 22.3622 19.7842 22.2648C19.7809 22.2629 19.7773 22.2619 19.7735 22.2619C19.7698 22.2619 19.7661 22.2629 19.7629 22.2648L19.7289 22.269Z" fill="#0060FF"/>
<path d="M7.31042 16.5566C7.34439 16.599 7.39961 16.6032 7.47605 16.6074H7.79882C8.02816 16.6074 8.26175 16.6074 8.49533 16.6074C8.96251 16.6074 9.43392 16.6074 9.88835 16.6074C9.92119 16.6093 9.95406 16.6042 9.9848 16.5925C10.0155 16.5809 10.0435 16.5628 10.0667 16.5396C10.105 16.4888 10.0667 16.4464 10.02 16.4464C9.56558 16.4464 9.10266 16.4464 8.63548 16.4464H7.94322H7.52277C7.4459 16.4337 7.36705 16.4503 7.30192 16.493C7.30192 16.493 7.30192 16.5269 7.30192 16.5312L7.31042 16.5566Z" fill="#0060FF"/>
<path d="M11.3027 16.5566C11.3409 16.599 11.3961 16.6032 11.4725 16.6074H11.7911C12.0204 16.6074 12.254 16.6074 12.4876 16.6074C12.959 16.6074 13.4262 16.6074 13.8848 16.6074C13.917 16.6092 13.9492 16.6041 13.9793 16.5924C14.0093 16.5807 14.0365 16.5627 14.059 16.5396C14.0972 16.4888 14.059 16.4464 14.0122 16.4464C13.5621 16.4464 13.0949 16.4464 12.6277 16.4464H11.9355H11.5108C11.4339 16.4337 11.355 16.4503 11.2899 16.493C11.2854 16.4984 11.283 16.5051 11.283 16.5121C11.283 16.5191 11.2854 16.5258 11.2899 16.5312L11.3027 16.5566Z" fill="#0060FF"/>
<path d="M15.299 16.5567C15.333 16.5991 15.3882 16.6033 15.4647 16.6075H15.7875C16.0168 16.6075 16.2504 16.6075 16.484 16.6075C16.9511 16.6075 17.4226 16.6075 17.877 16.6075C17.9092 16.6094 17.9414 16.6042 17.9714 16.5925C18.0015 16.5808 18.0286 16.5628 18.0511 16.5397C18.0936 16.4889 18.0511 16.4465 18.0044 16.4465C17.5542 16.4465 17.087 16.4465 16.6241 16.4465H15.9319H15.5072C15.4316 16.4341 15.3542 16.4507 15.2906 16.4931C15.2906 16.4931 15.2906 16.527 15.2906 16.5313L15.299 16.5567Z" fill="#0060FF"/>
<path d="M19.2913 16.5608C19.3385 16.5968 19.3978 16.6135 19.4569 16.6074H19.7797C20.009 16.6074 20.2426 16.6074 20.4762 16.6074C20.9434 16.6074 21.4148 16.6074 21.8692 16.6074C21.9021 16.6093 21.9349 16.6042 21.9657 16.5925C21.9964 16.5809 22.0243 16.5628 22.0476 16.5396C22.0858 16.4888 22.0476 16.4464 22.0009 16.4464C21.5464 16.4464 21.0835 16.4464 20.6164 16.4464H19.9241H19.4994C19.4225 16.4337 19.3437 16.4503 19.2785 16.493C19.2757 16.4958 19.2735 16.4991 19.2719 16.5027C19.2704 16.5064 19.2696 16.5103 19.2696 16.5142C19.2696 16.5182 19.2704 16.5221 19.2719 16.5257C19.2735 16.5293 19.2757 16.5326 19.2785 16.5354L19.2913 16.5608Z" fill="#0060FF"/>
<path d="M23.2836 16.5566C23.3218 16.599 23.377 16.6032 23.4535 16.6074H23.772C24.0014 16.6074 24.2349 16.6074 24.4685 16.6074C24.9399 16.6074 25.4071 16.6074 25.8658 16.6074C25.898 16.6092 25.9302 16.6041 25.9602 16.5924C25.9903 16.5807 26.0175 16.5627 26.0399 16.5396C26.0781 16.4888 26.0399 16.4464 25.9932 16.4464C25.543 16.4464 25.0759 16.4464 24.6087 16.4464H23.9164H23.513C23.4361 16.4337 23.3572 16.4503 23.2921 16.493C23.2876 16.4984 23.2851 16.5051 23.2851 16.5121C23.2851 16.5191 23.2876 16.5258 23.2921 16.5312L23.2836 16.5566Z" fill="#0060FF"/>
<path d="M27.28 16.5567C27.314 16.5991 27.3692 16.6033 27.4457 16.6075H27.7684C27.9978 16.6075 28.2314 16.6075 28.4649 16.6075C28.9321 16.6075 29.4035 16.6075 29.858 16.6075C29.8902 16.6094 29.9224 16.6042 29.9524 16.5925C29.9825 16.5808 30.0096 16.5628 30.0321 16.5397C30.0746 16.4889 30.0321 16.4465 29.9896 16.4465C29.5352 16.4465 29.0723 16.4465 28.6051 16.4465H27.9128H27.4881C27.4126 16.4341 27.3352 16.4507 27.2715 16.4931C27.2715 16.4931 27.2715 16.527 27.2715 16.5313L27.28 16.5567Z" fill="#0060FF"/>
<path d="M7.35751 16.599C7.73525 16.6183 8.11373 16.6183 8.49146 16.599H9.69337C9.80212 16.6142 9.91295 16.6026 10.0161 16.5651C10.169 16.4676 10.0161 16.3829 9.89298 16.4634C9.92271 16.4634 10.0034 16.4634 9.96942 16.4337H7.94785C7.76098 16.4337 7.57411 16.4337 7.38299 16.4337C7.27257 16.4337 7.29381 16.5482 7.35326 16.5566L7.35751 16.599Z" fill="#0060FF"/>
<path d="M3.54789 16.599C3.8919 16.6329 4.28687 16.599 4.65636 16.599H5.87101C5.97228 16.6153 6.07552 16.6153 6.17679 16.599C6.24475 16.5778 6.28297 16.5185 6.26598 16.4888C6.24899 16.4591 6.17679 16.4507 6.10884 16.4888C6.1683 16.4888 6.20227 16.4591 6.10884 16.4888H4.15522C3.9641 16.4888 3.77299 16.4888 3.57338 16.4888C3.45871 16.4888 3.47994 16.6032 3.54365 16.6117L3.54789 16.599Z" fill="#0060FF"/>
<path d="M0.0483978 16.599C0.4009 16.6371 0.808613 16.599 1.18235 16.599H2.3885C2.49725 16.6141 2.60804 16.6024 2.71127 16.5651C2.85992 16.4676 2.71127 16.3829 2.58386 16.4634C2.61359 16.4634 2.69853 16.4634 2.66031 16.4337H0.642979C0.456111 16.4337 0.273489 16.4337 0.0823738 16.4337C-0.0322955 16.4337 -0.0110604 16.5482 0.0483978 16.5566V16.599Z" fill="#0060FF"/>
<path d="M16.5568 5.59397C16.701 5.74863 16.8995 5.84163 17.1109 5.85347C17.3223 5.86532 17.5301 5.79511 17.6907 5.65754C17.7885 5.57735 17.8671 5.47638 17.9207 5.362C17.9743 5.24763 18.0017 5.12274 18.0007 4.99647C18.0192 4.88158 18.0069 4.76387 17.9651 4.65524C17.9234 4.54661 17.8536 4.45089 17.7629 4.37777C17.6702 4.30876 17.5607 4.2657 17.4457 4.25304C17.3307 4.24038 17.2144 4.25857 17.1089 4.30573C16.9994 4.35118 16.9014 4.4204 16.822 4.50836C16.7427 4.59632 16.684 4.70082 16.6502 4.81425C16.5818 5.04128 16.5658 5.28081 16.6033 5.51491C16.6408 5.749 16.7309 5.9716 16.8668 6.16605C17.0292 6.40924 17.2607 6.59847 17.5316 6.70946C17.8025 6.82045 18.1004 6.84814 18.3872 6.78898C18.5019 6.78898 18.4976 6.66609 18.4297 6.66185C18.2098 6.66443 17.992 6.61869 17.7917 6.52788C17.5915 6.43707 17.4138 6.30342 17.2711 6.1364C17.1284 5.96938 17.0244 5.77309 16.9662 5.56144C16.9081 5.34979 16.8973 5.12797 16.9347 4.91171C16.9448 4.79557 16.9796 4.6829 17.0367 4.58118C17.0628 4.52283 17.1106 4.47692 17.1701 4.45319C17.2296 4.42946 17.296 4.42977 17.3552 4.45405C17.4637 4.48911 17.5577 4.55861 17.6229 4.65195C17.688 4.7453 17.7208 4.85736 17.7162 4.97104C17.7162 5.12359 17.7162 5.55584 17.334 5.65754C17.2226 5.68222 17.1069 5.6805 16.9963 5.65254C16.8856 5.62458 16.7831 5.57114 16.6969 5.49651C16.6502 5.46684 16.5185 5.52193 16.5483 5.58126L16.5568 5.59397Z" fill="#0060FF"/>
<path d="M21.0117 14.5819C21.2952 14.6458 21.5527 14.7935 21.7507 15.0057C21.8473 15.1095 21.9185 15.2343 21.9588 15.3701C21.9861 15.4429 21.9909 15.522 21.9727 15.5975C21.9546 15.673 21.9142 15.7414 21.8569 15.7939C21.7999 15.8488 21.7238 15.8795 21.6445 15.8795C21.5653 15.8795 21.4892 15.8488 21.4322 15.7939C21.3685 15.7473 21.1094 15.6074 21.2538 15.4803C21.3387 15.4244 21.4299 15.3789 21.5256 15.3447C21.631 15.2959 21.7404 15.2562 21.8527 15.226C22.0399 15.171 22.2362 15.1537 22.4302 15.1752C22.5804 15.1874 22.7253 15.2358 22.8526 15.3163C22.9798 15.3967 23.0856 15.5068 23.1607 15.6371C23.199 15.7134 23.458 15.6371 23.4156 15.5354C23.3238 15.3767 23.192 15.2448 23.0333 15.1526C22.8746 15.0604 22.6945 15.0112 22.5109 15.0099C22.2449 14.9923 21.978 15.0269 21.7252 15.1116C21.6021 15.1523 21.4815 15.2004 21.3642 15.2557C21.2409 15.3025 21.1272 15.3714 21.0287 15.4591C20.8546 15.6456 21.0287 15.7769 21.1392 15.8574C21.2065 15.9274 21.2889 15.9813 21.3801 16.0151C21.4713 16.0488 21.569 16.0616 21.6658 16.0524C21.7677 16.0401 21.8654 16.0042 21.9509 15.9475C22.0364 15.8909 22.1075 15.815 22.1584 15.7261C22.1942 15.6463 22.2098 15.559 22.2039 15.4718C22.198 15.3847 22.1707 15.3003 22.1245 15.226C22.0194 15.032 21.8701 14.8653 21.6887 14.7395C21.5072 14.6136 21.2986 14.532 21.0797 14.5014C20.9863 14.5014 20.9565 14.5946 21.0202 14.6116L21.0117 14.5819Z" fill="#0060FF"/>
<path d="M2.29516 14.0776C2.23094 14.042 2.15999 14.0203 2.08685 14.0137C2.01371 14.0071 1.94 14.0159 1.87046 14.0394C1.72859 14.0759 1.59564 14.1408 1.47973 14.2301C1.37887 14.3136 1.29628 14.4168 1.2371 14.5335C1.17792 14.6501 1.14341 14.7777 1.13572 14.9082C1.13572 15.0268 1.11449 15.1539 1.19943 15.2302C1.24433 15.2656 1.29702 15.2898 1.35313 15.3008C1.40925 15.3119 1.4672 15.3095 1.5222 15.2938C1.77477 15.2375 1.99557 15.0856 2.13802 14.87C2.21481 14.7693 2.26802 14.6527 2.29374 14.5288C2.31947 14.4048 2.31705 14.2767 2.28666 14.1539L2.00636 14.2386C2.08281 14.5352 2.18049 14.8446 2.53724 14.959C2.6234 14.9864 2.7143 14.9956 2.80421 14.9861C2.89412 14.9766 2.98109 14.9486 3.05962 14.9039C3.26772 14.7853 3.35266 14.5903 3.30594 14.4802C3.30594 14.4463 3.18278 14.4251 3.13606 14.4802C3.08935 14.5352 3.02989 14.7471 2.89823 14.7853C2.8468 14.796 2.79357 14.7947 2.74272 14.7815C2.69187 14.7683 2.64479 14.7435 2.60519 14.709C2.42807 14.5654 2.31385 14.3587 2.28666 14.1327C2.26543 14.0479 1.97663 14.1327 2.00636 14.2174C2.03405 14.321 2.03851 14.4294 2.01943 14.5348C2.00034 14.6403 1.95818 14.7403 1.89594 14.8276C1.811 14.9505 1.59865 15.1582 1.47124 15.0777C1.34383 14.9971 1.41178 14.87 1.42877 14.7641C1.43976 14.6449 1.47595 14.5293 1.53494 14.4251C1.59159 14.3244 1.67746 14.2431 1.78127 14.192C1.92642 14.1325 2.08575 14.1163 2.23994 14.1454C2.25422 14.1456 2.26832 14.1422 2.28094 14.1355C2.29356 14.1289 2.30429 14.1191 2.31214 14.1072C2.33338 14.0776 2.31214 14.0606 2.31214 14.0437L2.29516 14.0776Z" fill="#0060FF"/>
</svg>
