<svg width="40" height="25" viewBox="0 0 40 25" fill="none" xmlns="http://www.w3.org/2000/svg">
<path opacity="0.4" d="M0.272143 24.9911C0.22394 24.9903 0.176746 24.9762 0.135171 24.95C0.0935958 24.9239 0.0590697 24.8866 0.0349709 24.8419C-0.00035984 24.7744 -0.00935278 24.6947 0.00996812 24.6202C0.029289 24.5456 0.0753524 24.4823 0.138089 24.4441L39.5919 0.0388392C39.6542 0.000516221 39.7281 -0.00995518 39.7976 0.00969348C39.8671 0.0293421 39.9265 0.0775307 39.9631 0.143821C39.9813 0.17704 39.9931 0.213839 39.9977 0.252032C40.0024 0.290225 39.9998 0.329032 39.9902 0.366145C39.9806 0.403257 39.9641 0.437918 39.9417 0.468066C39.9194 0.498214 39.8916 0.523238 39.86 0.541643L0.406196 24.9468C0.366182 24.9746 0.319782 24.9899 0.272143 24.9911Z" fill="black"/>
</svg>
