<svg width="22" height="18" viewBox="0 0 22 18" fill="none" xmlns="http://www.w3.org/2000/svg">
<path d="M6.54971 17.8461C6.19011 17.8466 5.83112 17.8166 5.47661 17.7565C5.38376 17.7412 5.29949 17.6932 5.23909 17.6212C5.17868 17.5491 5.14616 17.4579 5.14742 17.364V16.5109C4.6984 16.3917 4.26713 16.2138 3.86484 15.9819L3.2663 16.5834C3.19975 16.65 3.11162 16.6909 3.01764 16.6987C2.92366 16.7066 2.82997 16.6808 2.75327 16.626C2.16613 16.208 1.65193 15.6963 1.23128 15.1117C1.17723 15.0348 1.15191 14.9415 1.15972 14.848C1.16753 14.7545 1.20798 14.6666 1.27403 14.5998L1.88112 13.9983C1.64906 13.5967 1.47082 13.1664 1.35098 12.7185H0.483106C0.389006 12.7198 0.297572 12.6873 0.225404 12.6271C0.153236 12.5668 0.105118 12.4827 0.0897829 12.3901C0.0300033 12.0349 -2.85626e-05 11.6753 1.1048e-06 11.3151C-0.00020997 10.9563 0.029824 10.5981 0.0897829 10.2444C0.105118 10.1517 0.153236 10.0676 0.225404 10.0074C0.297572 9.94709 0.389006 9.91464 0.483106 9.9159H1.33816C1.45914 9.4684 1.63732 9.03829 1.86829 8.63615L1.26548 8.03893C1.19878 7.97262 1.15754 7.88505 1.14895 7.79149C1.14035 7.69794 1.16495 7.60434 1.21845 7.52703C1.6391 6.94236 2.1533 6.43074 2.74044 6.01267C2.81714 5.95792 2.91084 5.93215 3.00481 5.93997C3.09879 5.94778 3.18692 5.98867 3.25348 6.05533L3.85201 6.65254C4.25517 6.42338 4.68625 6.24703 5.13459 6.12784V5.27468C5.13334 5.18079 5.16586 5.08956 5.22626 5.01755C5.28666 4.94554 5.37094 4.89753 5.46379 4.88223C6.17143 4.76425 6.89378 4.76425 7.60142 4.88223C7.69389 4.89834 7.77767 4.94658 7.83792 5.01841C7.89817 5.09024 7.931 5.18102 7.93061 5.27468V6.12784C8.37906 6.24672 8.81018 6.42308 9.21319 6.65254L9.81601 6.05533C9.8814 5.9882 9.9689 5.94692 10.0624 5.93908C10.1559 5.93124 10.2491 5.95737 10.3248 6.01267C10.9129 6.4296 11.4273 6.9414 11.8468 7.52703C11.9008 7.60386 11.9261 7.69717 11.9183 7.79071C11.9105 7.88425 11.87 7.97209 11.804 8.03893L11.2012 8.63615C11.4322 9.03829 11.6103 9.4684 11.7313 9.9159H12.5864C12.6802 9.91551 12.7712 9.94827 12.8432 10.0084C12.9152 10.0685 12.9636 10.1521 12.9797 10.2444C13.0363 10.5985 13.0649 10.9565 13.0652 11.3151C13.0642 11.6751 13.0356 12.0344 12.9797 12.3901C12.9636 12.4823 12.9152 12.5659 12.8432 12.6261C12.7712 12.6862 12.6802 12.7189 12.5864 12.7185H11.7313C11.6115 13.1664 11.4333 13.5967 11.2012 13.9983L11.7997 14.5998C11.8669 14.6649 11.9085 14.7519 11.9171 14.8449C11.9257 14.938 11.9008 15.0311 11.8468 15.1074C11.4288 15.6956 10.9142 16.209 10.3248 16.626C10.2491 16.6813 10.1559 16.7075 10.0624 16.6996C9.9689 16.6918 9.8814 16.6505 9.81601 16.5834L9.21319 15.9819C8.81019 16.2124 8.37912 16.3902 7.93061 16.5109V17.364C7.931 17.4577 7.89817 17.5485 7.83792 17.6203C7.77767 17.6921 7.69389 17.7404 7.60142 17.7565C7.25391 17.8151 6.90215 17.8451 6.54971 17.8461ZM5.57922 17.3342C6.22214 17.4366 6.87727 17.4366 7.52019 17.3342V16.1739L7.68692 16.1355C8.20533 16.014 8.70057 15.8094 9.15334 15.5297L9.30297 15.4401L10.1238 16.2592C10.6517 15.8786 11.1138 15.4147 11.4919 14.8856L10.6711 14.0665L10.7651 13.9215C11.0441 13.4675 11.249 12.9722 11.3722 12.4541L11.4107 12.2877H12.5693C12.62 11.966 12.6458 11.6408 12.6462 11.3151C12.6459 10.991 12.6216 10.6673 12.5736 10.3467H11.4107L11.3722 10.1804C11.2415 9.66525 11.0294 9.17421 10.7437 8.72573L10.654 8.58069L11.4962 7.76166C11.1139 7.23445 10.6491 6.77208 10.1195 6.39232L9.30297 7.21137L9.15334 7.12178C8.70241 6.8415 8.20848 6.63687 7.6912 6.51604L7.52019 6.47765V5.31734C6.87727 5.21494 6.22214 5.21494 5.57922 5.31734V6.48191L5.41248 6.5203C4.89386 6.64113 4.39853 6.84575 3.94607 7.12605L3.80071 7.21563L2.97986 6.39659C2.45113 6.77422 1.98761 7.23528 1.6075 7.76166L2.42835 8.58069L2.33857 8.72573C2.05765 9.17719 1.85258 9.67143 1.73148 10.1889L1.68873 10.3553H0.530134C0.427552 10.9982 0.427552 11.6533 0.530134 12.2962H1.68873L1.73148 12.4626C1.85184 12.979 2.05697 13.4719 2.33857 13.9215L2.42835 14.0665L1.6075 14.8898C1.98725 15.4177 2.45079 15.8803 2.97986 16.2592L3.80071 15.4401L3.94607 15.5297C4.39922 15.8087 4.89433 16.0132 5.41248 16.1355L5.57922 16.1739V17.3342ZM6.55398 14.4931C6.13643 14.4948 5.72271 14.4138 5.33672 14.2549C4.95073 14.096 4.60013 13.8624 4.30519 13.5674C3.87004 13.1273 3.57127 12.5712 3.44464 11.966C3.31802 11.3608 3.36891 10.7319 3.59122 10.1548C3.74296 9.75149 3.9794 9.38525 4.28467 9.08065C4.58995 8.77605 4.957 8.54013 5.36118 8.38873C5.94096 8.15987 6.57515 8.10511 7.18571 8.23119C7.79628 8.35728 8.35659 8.65871 8.7977 9.09839C9.23881 9.53807 9.54148 10.0968 9.66847 10.7059C9.79546 11.315 9.74124 11.9478 9.51246 12.5266C9.36155 12.927 9.12619 13.2904 8.82229 13.5921C8.5184 13.8939 8.15307 14.1269 7.75105 14.2756C7.36844 14.4195 6.96289 14.4932 6.55398 14.4931ZM6.55398 8.59349C6.20104 8.59415 5.85093 8.65623 5.51937 8.77692C5.17384 8.90653 4.86007 9.1083 4.59905 9.36874C4.33804 9.62918 4.13582 9.94226 4.00592 10.287C3.80677 10.7879 3.75891 11.3359 3.86823 11.8636C3.97755 12.3913 4.23927 12.8755 4.62112 13.2565C5.00297 13.6375 5.48825 13.8986 6.01708 14.0077C6.54592 14.1168 7.09519 14.069 7.59714 13.8703C7.94351 13.7422 8.25805 13.5409 8.51925 13.2803C8.78046 13.0197 8.98217 12.7058 9.11059 12.3602C9.31045 11.857 9.35906 11.3066 9.25049 10.7763C9.14192 10.246 8.88086 9.75879 8.49923 9.37414C8.24 9.12503 7.93386 8.92967 7.5985 8.79934C7.26314 8.66901 6.90523 8.60629 6.54543 8.61482L6.55398 8.59349Z" fill="#0060FF"/>
<path d="M17.5494 8.87517C17.303 8.87684 17.0569 8.85685 16.8141 8.81545C16.7514 8.80524 16.6945 8.77293 16.6537 8.72439C16.6129 8.67585 16.5909 8.61432 16.5917 8.55097V7.96655C16.2849 7.88648 15.9902 7.76598 15.7153 7.60822L15.2878 8.0348C15.2422 8.08012 15.1821 8.10795 15.1179 8.11342C15.0538 8.11888 14.9898 8.10162 14.9372 8.06467C14.5356 7.77913 14.1845 7.4288 13.8983 7.02807C13.8613 6.97556 13.844 6.91171 13.8495 6.84774C13.8549 6.78376 13.8828 6.72376 13.9283 6.67828L14.3558 6.25169C14.1998 5.9839 14.0791 5.69715 13.9967 5.39853H13.4152C13.3508 5.39848 13.2885 5.37578 13.2393 5.33443C13.19 5.29308 13.1569 5.23571 13.1459 5.17243C13.1033 4.93016 13.0819 4.68468 13.0818 4.43872C13.0815 4.19274 13.103 3.94722 13.1459 3.705C13.1561 3.64134 13.189 3.58349 13.2384 3.54198C13.2879 3.50048 13.3506 3.47809 13.4152 3.47891H13.9967C14.0791 3.18029 14.1998 2.89354 14.3558 2.62575L13.9283 2.19916C13.8828 2.15368 13.8549 2.09367 13.8495 2.0297C13.844 1.96572 13.8613 1.90187 13.8983 1.84936C14.1834 1.44769 14.5347 1.09719 14.9372 0.812771C14.9898 0.775821 15.0538 0.758556 15.1179 0.764018C15.1821 0.769479 15.2422 0.797313 15.2878 0.842628L15.7153 1.26921C15.9904 1.11082 16.285 0.988928 16.5917 0.906613V0.326468C16.5908 0.262623 16.6126 0.200512 16.6533 0.151268C16.6941 0.102023 16.751 0.06886 16.8141 0.0577187C17.3013 -0.0192396 17.7976 -0.0192396 18.2847 0.0577187C18.3485 0.067947 18.4065 0.100716 18.4481 0.150051C18.4897 0.199386 18.5122 0.262001 18.5113 0.326468V0.906613C18.8108 0.990343 19.0982 1.11221 19.3664 1.26921L19.7939 0.842628C19.8395 0.797313 19.8996 0.769479 19.9638 0.764018C20.0279 0.758556 20.0919 0.775821 20.1445 0.812771C20.547 1.09719 20.8983 1.44769 21.1834 1.84936C21.2204 1.90187 21.2377 1.96572 21.2322 2.0297C21.2268 2.09367 21.1989 2.15368 21.1534 2.19916L20.7259 2.62575C20.8816 2.89424 21.0036 3.18076 21.0893 3.47891H21.6708C21.7354 3.47809 21.7981 3.50048 21.8476 3.54198C21.897 3.58349 21.9298 3.64134 21.9401 3.705C21.9795 3.94761 21.9995 4.19295 22 4.43872C21.9995 4.68466 21.978 4.93012 21.9358 5.17243C21.9257 5.23536 21.8935 5.29265 21.8449 5.33406C21.7964 5.37548 21.7346 5.39833 21.6708 5.39853H21.0893C21.0036 5.69668 20.8816 5.9832 20.7259 6.25169L21.1534 6.67828C21.1989 6.72376 21.2268 6.78376 21.2322 6.84774C21.2377 6.91171 21.2204 6.97556 21.1834 7.02807C20.897 7.42236 20.5475 7.76683 20.1488 8.0476C20.0961 8.08455 20.0321 8.10181 19.968 8.09635C19.9039 8.09089 19.8438 8.06306 19.7982 8.01774L19.3707 7.59116C19.103 7.74823 18.8154 7.86874 18.5156 7.94949V8.53391C18.5163 8.59788 18.4937 8.65993 18.452 8.70856C18.4104 8.75719 18.3525 8.7891 18.289 8.79838C18.0453 8.84594 17.7977 8.87164 17.5494 8.87517ZM16.8867 8.52964C17.3259 8.5979 17.7729 8.5979 18.2121 8.52964V7.7362L18.3275 7.70633C18.6825 7.62087 19.0206 7.47668 19.3279 7.27975L19.4305 7.21577L19.9906 7.77459C20.3509 7.51534 20.667 7.1999 20.9269 6.84037L20.3668 6.27729L20.4309 6.17917C20.6259 5.87133 20.7702 5.53433 20.8585 5.18097L20.8841 5.06579H21.6793C21.7132 4.84701 21.7304 4.62597 21.7306 4.40459C21.731 4.18319 21.7139 3.96209 21.6793 3.74339H20.8713L20.8456 3.62821C20.7575 3.27348 20.6132 2.93507 20.4181 2.62575L20.354 2.52763L20.9183 1.96881C20.657 1.60786 20.3395 1.29101 19.9778 1.03033L19.4177 1.59341L19.3151 1.52943C19.007 1.33409 18.6691 1.19002 18.3147 1.10284L18.1992 1.07725V0.283807C17.7601 0.215551 17.313 0.215551 16.8739 0.283807V1.07725L16.7585 1.10284C16.4046 1.19162 16.067 1.33559 15.7581 1.52943L15.6555 1.59341L15.0954 1.03033C14.735 1.29114 14.4189 1.608 14.1591 1.96881L14.7192 2.52763L14.6593 2.62575C14.4625 2.93416 14.3181 3.27286 14.2318 3.62821L14.2019 3.74339H13.4366C13.3625 4.18109 13.3625 4.62809 13.4366 5.06579H14.2275L14.2575 5.18097C14.3437 5.53498 14.4882 5.87229 14.685 6.17917L14.7448 6.27729L14.1634 6.85744C14.4232 7.21697 14.7394 7.53241 15.0997 7.79166L15.6597 7.23283L15.7623 7.29682C16.0704 7.49229 16.4083 7.63637 16.7628 7.7234L16.8782 7.75326L16.8867 8.52964ZM17.5537 6.58443C17.2681 6.58578 16.985 6.53068 16.7209 6.42232C16.4567 6.31396 16.2167 6.15448 16.0146 5.95308C15.7162 5.65085 15.5115 5.26915 15.4251 4.85377C15.3386 4.43838 15.3741 4.00693 15.5272 3.61115C15.6295 3.33553 15.7896 3.08488 15.9968 2.87595C16.2039 2.66702 16.4534 2.50463 16.7286 2.39965C17.1252 2.24288 17.5591 2.2054 17.9768 2.29183C18.3945 2.37827 18.7777 2.58483 19.0791 2.88604C19.3806 3.18725 19.587 3.56992 19.673 3.98684C19.759 4.40375 19.7208 4.83667 19.5631 5.23216C19.4598 5.50812 19.2984 5.75872 19.0896 5.967C18.8809 6.17528 18.6297 6.33637 18.3532 6.43938C18.0973 6.53425 17.8266 6.58336 17.5537 6.58443ZM17.5537 2.55322C17.3129 2.5546 17.0741 2.59791 16.8483 2.6812C16.6115 2.76875 16.3964 2.90632 16.2178 3.0845C16.0393 3.26267 15.9014 3.47724 15.8136 3.71352C15.6764 4.05565 15.6429 4.43045 15.7173 4.7914C15.7917 5.15236 15.9707 5.48356 16.232 5.7439C16.4934 6.00425 16.8257 6.18226 17.1876 6.25585C17.5494 6.32944 17.925 6.29536 18.2676 6.15785C18.5023 6.06948 18.7153 5.93201 18.8923 5.75468C19.0692 5.57736 19.2061 5.36428 19.2937 5.12978C19.4271 4.78635 19.4577 4.41168 19.3818 4.05124C19.3059 3.69081 19.1268 3.3601 18.8662 3.09925C18.6928 2.92596 18.4869 2.78851 18.2602 2.69481C18.0335 2.60111 17.7905 2.55299 17.5451 2.55322H17.5537Z" fill="#0060FF"/>
</svg>
