<svg width="8" height="5" viewBox="0 0 8 5" fill="none" xmlns="http://www.w3.org/2000/svg">
<path d="M0.280739 5.00014C0.221141 5.0004 0.163062 4.98002 0.115154 4.94203C0.0672454 4.90404 0.0320723 4.85047 0.0148807 4.78932C-0.00580297 4.7252 -0.00489991 4.65533 0.0174364 4.59185C0.0397728 4.52837 0.0821322 4.47526 0.137173 4.44173L7.209 0.042881C7.25328 0.0148052 7.30379 0 7.35524 0C7.40668 0 7.45718 0.0148052 7.50145 0.042881C7.5452 0.0731068 7.58028 0.115723 7.60281 0.166012C7.62533 0.2163 7.63442 0.272295 7.62906 0.327781C7.48019 1.6929 7.17296 3.03278 6.71451 4.31637C6.69516 4.36916 6.66258 4.41519 6.62036 4.44938C6.57814 4.48357 6.52791 4.50458 6.47524 4.5101L0.29669 4.96595L0.280739 5.00014ZM7.00164 0.869097L1.46115 4.28789L6.24659 3.93462C6.59085 2.94157 6.84374 1.91485 7.00164 0.869097Z" fill="white"/>
</svg>
