<svg width="33" height="28" viewBox="0 0 33 28" fill="none" xmlns="http://www.w3.org/2000/svg">
<path d="M7.36685 27.5852C7.36685 27.5852 -0.849009 18.0494 0.0720324 17.7051C0.993074 17.3608 8.28357 22.643 8.28357 22.643C8.28357 22.643 2.01357 8.51796 3.26757 7.48506C4.52157 6.45216 11.1288 19.9844 11.1288 19.9844C11.1288 19.9844 10.0997 0.232973 11.1288 0.0019868C12.158 -0.228999 15.9113 19.7578 15.9113 19.7578C15.9113 19.7578 21.4981 1.49686 23.0894 1.49686C24.6807 1.49686 21.3814 19.0692 21.3814 19.0692C21.3814 19.0692 27.993 7.82936 29.0394 9.32423C30.0859 10.8191 24.3434 22.9916 24.3434 22.9916C24.3434 22.9916 32.663 15.9836 32.9917 16.8901C33.3203 17.7966 23.9888 27.5721 23.9888 27.5721L7.36685 27.5852Z" fill="#FFC727"/>
</svg>
