<svg width="13" height="15" viewBox="0 0 13 15" fill="none" xmlns="http://www.w3.org/2000/svg">
<path d="M0 7.29051C0.0370146 6.7113 0.11162 6.13575 0.223254 5.56828C0.434009 4.61874 0.822164 3.72807 1.36292 2.95317C1.90368 2.17828 2.58516 1.53618 3.36382 1.06792C4.14248 0.599657 5.00121 0.315516 5.88515 0.233642C6.76909 0.151768 7.65881 0.273963 8.49748 0.592423C9.07505 0.807089 9.61909 1.11872 10.1104 1.5163C10.6352 1.91601 11.097 2.40791 11.4773 2.9724C12.2937 4.15047 12.7458 5.58602 12.7671 7.06816C12.7884 8.55031 12.3779 10.0009 11.5957 11.2069C11.2345 11.7834 10.7915 12.292 10.2835 12.7132C9.80477 13.1291 9.26973 13.4595 8.69795 13.6923C7.64081 14.1411 6.49383 14.2694 5.37642 14.0639C4.402 13.8867 3.47935 13.4583 2.68365 12.8137C1.5187 11.8797 0.672907 10.5409 0.282488 9.01272C0.156742 8.44768 0.0654094 7.874 0.00910757 7.29553C0.00716543 7.33399 0.00716543 7.37254 0.00910757 7.41101C0.00910757 7.50641 0.00910757 7.61688 0.00910757 7.75244C0.0130702 7.93602 0.0298193 8.11899 0.0592201 8.29974C0.0842353 8.54906 0.12689 8.79584 0.186796 9.03783C0.552505 10.6099 1.39693 11.996 2.57885 12.9643C3.45411 13.6861 4.48086 14.152 5.56352 14.3188C6.64617 14.4856 7.74953 14.3478 8.77086 13.9183C9.98328 13.4133 11.0317 12.5218 11.7826 11.3576C12.595 10.1082 13.0216 8.60415 12.9994 7.06729C12.9773 5.53043 12.5076 4.04209 11.6595 2.82177C11.2647 2.23977 10.7879 1.73122 10.2471 1.31546C9.74205 0.915818 9.18421 0.604215 8.59315 0.391584C7.56017 -0.0018018 6.45366 -0.100824 5.37661 0.103726C4.29956 0.308276 3.28696 0.809751 2.43306 1.56149C1.27711 2.5719 0.472544 3.99053 0.154912 5.57833C0.102783 5.82292 0.0662339 6.07123 0.0455518 6.32144C0.023235 6.5045 0.0125882 6.68906 0.0136683 6.87376C0.0136683 7.00933 0.0136683 7.11979 0.0136683 7.21017C0.00804458 7.23672 0.00348443 7.26352 0 7.29051Z" fill="#455A64"/>
</svg>
