<svg width="14" height="17" viewBox="0 0 14 17" fill="none" xmlns="http://www.w3.org/2000/svg">
<path d="M0 0.988966C0 0.988966 1.51121 0.493228 2.04521 0.398802C3.31613 0.0919169 4.26132 -0.415627 5.21184 0.61716C5.53758 0.971258 5.74584 1.63814 6.09828 1.92142C6.45072 2.2047 7.34784 2.11028 7.8498 2.22831C8.43941 2.33861 8.97062 2.68792 9.33964 3.20798C9.57994 3.57978 9.64403 4.25847 9.96977 4.47683C10.2955 4.69519 11.0378 4.707 11.513 4.92536C12.5383 5.41519 12.8267 6.92601 13.2058 7.9588C13.5849 8.99159 14.3005 10.6145 13.8626 11.8126C13.4971 12.6879 12.9207 13.4352 12.1965 13.9726C11.3705 14.6792 10.5075 15.3315 9.61199 15.926C9.26209 16.1255 8.85799 16.1756 8.47682 16.0667C8.09564 15.9578 7.76407 15.6977 7.54541 15.3358C6.90461 14.4211 5.68709 14.7457 4.91813 13.9608C4.58171 13.6126 4.4856 13.0932 4.15986 12.7391C3.75285 12.4098 3.44417 11.9535 3.27342 11.429C3.01176 10.3608 3.48167 9.20405 3.67925 8.16536C3.78751 7.20123 3.69621 6.22251 3.41225 5.30306C3.23603 4.62437 2.95302 3.56798 2.40834 3.10175L0 0.988966Z" fill="#FFA8A7"/>
</svg>
