<svg width="9" height="37" viewBox="0 0 9 37" fill="none" xmlns="http://www.w3.org/2000/svg">
<path d="M8.99139 37C8.9599 36.9288 8.93396 36.8548 8.91384 36.7788C8.86822 36.6129 8.80435 36.4017 8.7268 36.1303L8.43484 35.0896C8.35265 34.6162 8.17147 34.1704 7.90567 33.7876C7.51499 33.3746 7.04824 33.0591 6.53712 32.8626C5.93615 32.6122 5.3164 32.4205 4.68501 32.2895C3.17977 31.9821 1.65384 31.8139 0.123172 31.7868H0V31.6561L1.34118 22.019C2.20337 15.9512 2.98801 10.4565 3.55824 6.43477C3.85476 4.46412 4.09197 2.86045 4.26076 1.72431C4.34287 1.18641 4.4113 0.759105 4.46148 0.442393C4.46148 0.311687 4.50254 0.201087 4.52079 0.110598C4.52402 0.0722616 4.53328 0.0348366 4.54815 0C4.55516 0.0381552 4.55516 0.0774752 4.54815 0.11563C4.54815 0.206119 4.54815 0.316708 4.51166 0.452442C4.47516 0.769154 4.42042 1.19646 4.35656 1.7394C4.20602 2.88056 3.99161 4.48927 3.73159 6.46495C3.17504 10.4867 2.41778 15.9713 1.5784 22.0492C1.08572 25.5179 0.624975 28.8006 0.209848 31.6812L0.104927 31.5455C1.65416 31.5895 3.19713 31.7795 4.71694 32.1135C5.35712 32.2543 5.98459 32.4579 6.59186 32.7218C7.12395 32.9368 7.60561 33.2803 8.00147 33.7273C8.1645 33.9291 8.28589 34.1675 8.35729 34.426L8.52608 35.0947C8.631 35.5019 8.71768 35.8538 8.79067 36.1453C8.86366 36.4369 8.90927 36.648 8.94577 36.8039C8.96648 36.8675 8.98176 36.9332 8.99139 37Z" fill="#263238"/>
</svg>
