<svg width="38" height="96" viewBox="0 0 38 96" fill="none" xmlns="http://www.w3.org/2000/svg">
<path d="M31.8453 79.1744C30.0094 79.6353 28.8283 82.5682 27.7941 85.4591C26.9189 87.8683 23.908 90.6388 17.7333 93.6921C11.5585 96.7455 10.2183 96.426 9.06163 94.7134C7.90501 93.0008 7.32975 90.2146 5.20009 91.7072C5.20009 91.7072 5.81206 87.4336 17.5435 81.6359C29.275 75.8383 31.8453 79.1744 31.8453 79.1744Z" fill="#263238"/>
<path d="M24.7833 9.39304L30.2911 9.35638C30.2911 9.35638 30.1931 16.2067 29.8015 21.4021C29.4098 26.5975 28.4001 34.3591 27.8126 35.4118C27.3754 36.1026 26.7202 36.6742 25.9216 37.0616L10.8059 44.5299C10.8059 44.5299 9.58196 45.3208 8.96999 44.797C8.22951 44.179 7.795 39.5022 7.83172 32.547C7.86843 25.5919 7.83172 20.3285 7.83172 20.3285L12.6724 15.4054L24.7833 9.39304Z" fill="#FA00FF"/>
<path d="M24.7833 9.39304L30.2911 9.35638C30.2911 9.35638 30.1931 16.2067 29.8015 21.4021C29.4098 26.5975 28.4001 34.3591 27.8126 35.4118C27.3754 36.1026 26.7202 36.6742 25.9216 37.0616L10.8059 44.5299C10.8059 44.5299 9.58196 45.3208 8.96999 44.797C8.22951 44.179 7.795 39.5022 7.83172 32.547C7.86843 25.5919 7.83172 20.3285 7.83172 20.3285L12.6724 15.4054L24.7833 9.39304Z" fill="#455A64"/>
<path opacity="0.1" d="M24.5325 37.7265L25.8972 37.0509C26.6949 36.665 27.3501 36.0952 27.7882 35.4064C28.4002 34.359 29.3854 26.5868 29.7771 21.3967C30.1688 16.2066 30.2605 9.35096 30.2605 9.35096H26.3806C26.4908 16.856 25.5606 32.8244 24.5325 37.7265Z" fill="black"/>
<path opacity="0.1" d="M8.92713 44.7916C9.5391 45.3154 10.763 44.5193 10.763 44.5193L12.8499 43.4718C11.8218 39.591 10.8916 24.6176 11.014 17.0131L7.7705 20.3021C7.7705 20.3021 7.80109 25.5394 7.7705 32.5259C7.7399 39.5125 8.18053 44.1736 8.92713 44.7916Z" fill="black"/>
<path d="M25.8969 38.3654C27.2922 39.4967 29.3729 42.9847 29.6789 47.7925C29.9849 52.6004 32.0166 79.2529 32.0166 79.2529C32.0166 79.2529 29.8074 79.2843 28.4305 82.0024C27.0536 84.7206 24.2507 88.2872 17.6781 91.5447C11.1056 94.8023 9.96118 93.1631 9.11054 92.1156C8.2599 91.0682 7.1706 90.5444 5.36528 91.7647C5.36528 91.7647 6.7361 64.8713 7.2012 58.2147C7.66629 51.5581 9.47161 47.1693 10.7751 45.8233L25.8969 38.3654Z" fill="#455A64"/>
<path d="M28.7612 30.6036C28.9141 31.981 29.061 33.3165 29.1406 33.9345C29.3303 35.5057 30.2605 34.6101 30.2605 34.6101C32.3534 30.1637 36.215 29.7866 36.215 29.7866C36.215 29.7866 34.7095 21.7683 34.0057 16.9343C33.302 12.1003 33.1735 9.29837 30.2605 9.36645C30.2605 9.36645 30.1626 16.2116 29.777 21.4122C29.5628 24.1984 29.1773 27.7493 28.7612 30.6036Z" fill="#37474F"/>
<path d="M30.1136 33.673C33.3326 29.7555 36.2333 29.4151 36.2333 29.4151C36.2333 29.4151 36.9493 29.1951 37.0962 30.0017C37.2247 30.6825 37.5307 33.5368 37.3226 34.0291C37.1146 34.5214 36.1538 35.6474 33.608 37.2186C31.0622 38.7898 29.6424 39.0621 29.5873 38.1613C29.5322 37.2605 29.11 36.1136 29.2018 35.5427C29.3513 34.8722 29.6618 34.2355 30.1136 33.673Z" fill="#263238"/>
<path d="M36.845 33.3011C36.6553 32.7774 30.3092 37.0405 30.401 37.8104C30.4928 38.5803 37.255 34.2176 36.845 33.3011Z" fill="black"/>
<path d="M1.3508 46.0745C1.3508 46.0745 4.88187 43.7491 6.85854 46.2264C6.85854 46.2264 7.78263 46.2264 8.01518 44.4614C8.07025 44.0738 8.1498 43.4506 8.23548 42.7226C7.83612 39.342 7.67467 35.9438 7.75201 32.5466C7.78261 25.5863 7.75201 20.3228 7.75201 20.3228C4.81455 23.0671 4.35558 26.3718 3.51718 31.9548C2.67878 37.5377 1.3508 46.0745 1.3508 46.0745Z" fill="#37474F"/>
<path d="M7.60516 45.6086C3.11941 44.1003 1.35694 46.0695 1.35694 46.0695C0.810738 46.4382 0.416264 46.9464 0.230914 47.5202C0.0441934 48.7353 -0.0294845 49.9612 0.0105943 51.1863C0.059552 51.9405 0.665399 52.3438 2.41564 52.1605C4.43514 51.9562 7.02379 50.9768 7.36038 49.8194C7.61091 49.0227 7.75059 48.2035 7.77651 47.3788C7.89279 46.0171 8.03966 45.8338 7.60516 45.6086Z" fill="#263238"/>
<path d="M0.537034 50.8772C0.62883 49.9135 6.49763 48.7299 6.52211 49.8978C6.54659 51.0657 0.310605 52.6002 0.537034 50.8772Z" fill="black"/>
<path opacity="0.1" d="M5.37759 91.7753C7.18291 90.5393 8.27835 91.0735 9.12287 92.1262C9.44146 92.6102 9.91491 93.0063 10.4876 93.2679C10.4876 83.7046 10.4447 69.7001 10.5182 64.201C10.6222 55.5595 11.1301 49.0129 13.8412 44.3412L10.7813 45.8601C9.47781 47.206 7.66638 51.5949 7.2074 58.2515C6.74842 64.908 5.37759 91.7753 5.37759 91.7753Z" fill="black"/>
<path opacity="0.1" d="M26.3011 55.0041C26.503 59.791 27.0966 72.151 27.4455 83.6939C27.8091 83.1492 28.138 82.588 28.4307 82.0128C29.8077 79.2946 32.0169 79.2632 32.0169 79.2632C32.0169 79.2632 29.9851 52.6159 29.6791 47.8029C29.3732 42.9898 27.2924 39.4966 25.8972 38.3758L22.5374 40.0308C25.2913 41.9476 25.8972 45.1947 26.3011 55.0041Z" fill="black"/>
<path d="M27.5495 19.8304L21.6746 22.5067L21.5094 27.5659C21.5094 27.9325 21.6746 28.1891 21.9684 28.2205L23.945 28.4615C24.1155 28.4615 24.2833 28.4257 24.4337 28.3572C24.5842 28.2887 24.7127 28.1896 24.8079 28.0687L26.8641 25.9738C27.1703 25.662 27.3525 25.275 27.3843 24.8687L27.5495 19.8304Z" fill="#37474F"/>
<path d="M27.5493 19.8304C27.5493 19.8304 27.0842 22.3705 24.5322 23.5332C21.9803 24.6959 21.6743 22.4857 21.6743 22.4857L27.5493 19.8304Z" fill="#263238"/>
<path d="M9.85145 28.5769L15.7203 25.4345L15.8916 30.3261C15.8842 30.7316 15.7207 31.1237 15.4265 31.4417L13.456 33.6308C13.3585 33.7567 13.2304 33.8631 13.0804 33.9426C12.9304 34.0222 12.7621 34.073 12.5869 34.0917L10.5307 34.0603C10.2247 34.0603 10.0228 33.8246 10.0105 33.4685L9.85145 28.5769Z" fill="#37474F"/>
<path d="M9.85145 28.5769C9.85145 28.5769 10.3165 30.6718 12.8623 29.2997C13.6277 28.8656 14.2777 28.2985 14.7701 27.6353C15.2624 26.9721 15.5862 26.2276 15.7203 25.4503L9.85145 28.5769Z" fill="#263238"/>
<path opacity="0.1" d="M19.5937 40.172L17.8007 41.0571V12.8387L19.5937 11.9536V40.172Z" fill="black"/>
<path opacity="0.1" d="M19.5937 90.3506C19.0307 90.6753 18.431 90.9948 17.8007 91.3143V42.3667L19.5937 41.4816V90.3506Z" fill="black"/>
<path d="M18.7002 14.9287C18.7002 14.9287 19.1837 16.7355 20.683 16.1123C22.1823 15.489 23.8224 11.9801 24.3181 10.7807C24.8872 9.40856 24.8872 9.20954 24.5629 8.64916C24.1614 8.15506 23.6523 7.73184 23.0636 7.40268C23.2533 7.54409 23.0636 8.28778 22.5862 9.64424C21.8519 11.6135 19.7528 14.4102 18.7002 14.9287Z" fill="#37474F"/>
<path d="M18.7005 14.9285C18.7005 14.9285 18.217 17.212 16.7177 18.0709C15.2184 18.9298 13.5783 17.0234 13.0826 16.3321C12.5135 15.5203 12.5135 15.3266 12.8378 14.4415C13.263 13.5032 13.764 12.5915 14.3371 11.7128C14.1474 12.0428 14.3065 12.6294 14.8145 13.483C15.5488 14.7295 17.6479 15.447 18.7005 14.9285Z" fill="#37474F"/>
<path d="M18.6941 14.9288C17.6415 15.4525 15.5363 14.735 14.8081 13.4886C14.0798 12.2421 14.0737 11.556 14.8081 11.4408C16.1867 11.3458 17.519 10.9705 18.6941 10.3462C20.1454 9.60211 21.4575 8.67519 22.5862 7.59662C23.3206 6.98909 23.3206 7.67518 22.5862 9.64439C21.8519 11.6136 19.7467 14.4103 18.6941 14.9288Z" fill="#263238"/>
<path d="M14.6062 13.0954C14.6652 13.2276 14.7326 13.357 14.8081 13.483C14.8826 13.6113 14.9729 13.7324 15.0774 13.8443L17.7395 10.7805L18.4677 9.94257C18.8043 9.54453 19.1531 9.41884 19.3429 9.41884L20.1078 9.54453L22.4639 9.93733C22.5128 9.8404 22.5537 9.74064 22.5863 9.6388C22.6536 9.48168 22.7026 9.3298 22.7454 9.19363L21.0258 8.91606L19.5142 8.65943H19.3245C19.3245 7.31869 19.2266 6.42312 18.0271 6.07222C17.201 5.8313 16.9378 4.77861 17.3295 3.33312C17.7395 1.76194 19.1654 0.787804 19.9181 0.850652C20.5301 0.913499 20.6035 1.83526 20.6035 2.23329C20.6035 2.3458 20.6557 2.4537 20.7487 2.53326C20.8417 2.61282 20.9677 2.65751 21.0992 2.65751C21.1637 2.65753 21.2276 2.64649 21.2871 2.62505C21.3466 2.6036 21.4004 2.57218 21.4455 2.53265C21.4905 2.49311 21.5259 2.44626 21.5494 2.39484C21.573 2.34343 21.5843 2.2885 21.5827 2.23329C21.5827 0.363584 20.4995 0.054585 20.0222 0.00744951C18.5718 -0.118245 16.846 1.3639 16.3503 3.14982C15.5915 6.01461 17.1826 6.72688 17.6905 6.87352C18.1985 7.02016 18.3392 7.39725 18.3392 8.96843H18.3025C18.0838 9.1182 17.8921 9.29466 17.7334 9.49216L16.1912 11.2728L14.6062 13.0954Z" fill="#FA00FF"/>
<path d="M25.897 37.0562V38.3656C21.3976 41.5802 16.2841 44.1067 10.7813 45.8339V44.5246L25.897 37.0562Z" fill="#263238"/>
</svg>
