<svg width="61" height="106" viewBox="0 0 61 106" fill="none" xmlns="http://www.w3.org/2000/svg">
<path d="M24.8778 0C14.5163 2.90495 12.3941 8.34319 8.16279 25.7881C5.43609 37.0665 0.764557 62.354 0.27835 67.3296C-0.378687 73.9966 -0.306411 74.5654 5.47551 79.0935C10.8501 83.303 39.8517 101.946 46.4352 104.54C53.0187 107.134 60.9229 105.481 60.9229 105.481L49.0568 97.5395C49.0568 97.5395 50.0555 97.1375 53.0319 96.1212C56.0082 95.1048 57.5063 94.5512 58.597 93.2997C59.6876 92.0482 58.8006 90.6905 55.2723 91.0243C51.7441 91.358 47.3879 88.9081 42.8478 89.5832L19.4507 67.3296L26.8161 30.5513C26.8161 30.5513 33.1105 5.2107 24.8778 0Z" fill="#FFA8A7"/>
</svg>
