<svg width="20" height="15" viewBox="0 0 20 15" fill="none" xmlns="http://www.w3.org/2000/svg">
<path d="M20.0001 0C20.0001 0 19.937 0.0645254 19.8064 0.163805L19.2253 0.590702L17.0676 2.11962C15.2388 3.41026 12.7208 5.19235 9.95949 7.1978C7.19822 9.20326 4.72975 11.0449 2.92794 12.3852L0.797295 13.9637L0.211713 14.3857C0.146393 14.4384 0.0752509 14.4818 0 14.5147C0.0558416 14.4498 0.117748 14.3916 0.184687 14.341L0.747752 13.8793C1.23424 13.4822 1.94596 12.9213 2.83335 12.2313C4.60813 10.8563 7.07661 8.98484 9.84238 6.97938C12.6082 4.97393 15.1442 3.21667 16.9911 1.96574C17.9145 1.34028 18.6667 0.843875 19.1893 0.506323L19.7974 0.119131C19.8614 0.0725608 19.9293 0.0326809 20.0001 0Z" fill="#263238"/>
</svg>
