<svg width="18" height="11" viewBox="0 0 18 11" fill="none" xmlns="http://www.w3.org/2000/svg">
<path d="M17.6024 11.0001C17.4239 10.7635 17.2229 10.5471 17.0025 10.3544C16.3505 9.90345 15.5756 9.69616 14.8003 9.7653C14.3143 9.7653 13.7676 9.85407 13.1753 9.9025C12.5407 9.95082 11.9037 9.95082 11.2692 9.9025C9.80918 9.77822 8.37928 9.39352 7.03946 8.76455C4.59472 7.61177 2.55216 5.67247 1.19982 3.22013C0.797538 2.48572 0.46676 1.70963 0.212626 0.903903C0.0970801 0.616501 0.025308 0.311378 0 0C0.422868 1.05197 0.904679 2.07607 1.44283 3.06679C2.82196 5.40781 4.82582 7.25931 7.19894 8.38524C8.50035 8.99194 9.88474 9.3734 11.2996 9.51512C11.9155 9.57475 12.5345 9.59093 13.1525 9.56354C13.7372 9.56354 14.2915 9.47476 14.8003 9.47476C15.6199 9.43614 16.4262 9.70464 17.0785 10.2334C17.2497 10.385 17.3937 10.5682 17.5037 10.7741C17.5948 10.9113 17.61 10.992 17.6024 11.0001Z" fill="#455A64"/>
</svg>
