<svg width="5" height="4" viewBox="0 0 5 4" fill="none" xmlns="http://www.w3.org/2000/svg">
<path d="M3.90531 3.45364C3.93324 3.30175 3.913 3.14486 3.84747 3.00523C3.7641 2.85823 3.63626 2.74196 3.48265 2.67341C3.27551 2.59881 3.04913 2.59881 2.84198 2.67341C2.57967 2.76853 2.33241 2.90144 2.1079 3.068C1.83787 3.26594 1.53721 3.41746 1.21809 3.51642C1.0207 3.57375 0.810876 3.57069 0.615221 3.50762C0.419567 3.44455 0.246906 3.32431 0.119171 3.16217C0.0583272 3.06593 0.0195721 2.95721 0.00571768 2.84395C-0.00813673 2.73069 0.00326223 2.61574 0.039091 2.50749C0.110934 2.3042 0.221237 2.11689 0.363876 1.95594C0.86197 1.37289 1.42474 0.849319 2.04116 0.395472C2.32014 0.185399 2.64799 0.0510637 2.99326 0.00534881C3.30395 -0.0211048 3.61507 0.0510197 3.88307 0.211621C4.24488 0.436696 4.54957 0.743785 4.77288 1.10845C4.86973 1.22968 4.94636 1.36598 4.99978 1.51201C4.88827 1.40652 4.78835 1.28926 4.7017 1.16225C4.46193 0.835662 4.1593 0.561151 3.81189 0.355116C3.57332 0.226759 3.3025 0.172164 3.0333 0.198169C2.72365 0.248732 2.43149 0.37669 2.18353 0.570352C1.59219 1.02497 1.04944 1.54043 0.564075 2.1084C0.31048 2.39539 0.145865 2.76757 0.328276 3.03662C0.431311 3.16039 0.567309 3.2519 0.720229 3.30036C0.873149 3.34882 1.03662 3.35222 1.19139 3.31015C1.81871 3.13975 2.28141 2.62408 2.83309 2.49852C3.07788 2.42153 3.34217 2.43747 3.57609 2.54336C3.74812 2.63222 3.88473 2.77783 3.96315 2.9559C4.04769 3.29669 3.90531 3.46709 3.90531 3.45364Z" fill="#EB996E"/>
</svg>
