<svg width="17" height="8" viewBox="0 0 17 8" fill="none" xmlns="http://www.w3.org/2000/svg">
<path d="M0 8.00004C0.0238002 7.70528 0.086894 7.4156 0.187389 7.1397C0.434595 6.37161 0.769393 5.63859 1.1843 4.95701C2.54585 2.64831 4.69361 0.987511 7.1795 0.321091C9.66539 -0.345329 12.2974 0.0341023 14.5264 1.38023C15.1972 1.76823 15.8193 2.24464 16.3778 2.79819C16.5937 2.98987 16.7808 3.21553 16.9325 3.46734C16.1443 2.77531 15.296 2.16449 14.399 1.64311C12.2126 0.410536 9.67361 0.0842128 7.2738 0.727345C4.87399 1.37048 2.78418 2.93729 1.40917 5.12429C0.857799 6.03512 0.386102 6.99773 0 8.00004Z" fill="#455A64"/>
</svg>
