<svg width="27" height="25" viewBox="0 0 27 25" fill="none" xmlns="http://www.w3.org/2000/svg">
<path fill-rule="evenodd" clip-rule="evenodd" d="M27.0003 11.6705C26.8932 12.1564 26.8151 12.651 26.673 13.1264C26.3872 14.0824 25.7635 15.0688 25.1442 15.6394C24.7796 15.2748 24.4157 14.9107 24.0543 14.5491C25.896 12.2725 25.9 9.96357 24.0437 7.66178C24.3956 7.30968 24.7592 6.94591 25.1364 6.56849C25.8141 7.24773 26.3345 8.052 26.6326 8.9844C26.7915 9.48144 26.8801 10.0011 27.0003 10.5104C27.0003 10.897 27.0003 11.2838 27.0003 11.6705ZM6.28725e-08 10.5103C0.0693377 10.1685 0.125806 9.82337 0.210474 9.4854C0.46701 8.46102 0.96257 7.56209 1.66354 6.77427C1.7326 6.69664 1.79322 6.61148 1.8442 6.54699C2.24307 6.94593 2.6067 7.30964 2.97069 7.67369C1.02389 9.6885 1.221 12.7673 3.02195 14.5911C2.83293 14.7704 2.64011 14.9475 2.4541 15.1314C2.27373 15.3097 2.10024 15.495 1.90714 15.6944C1.33078 15.1267 0.864048 14.5094 0.589089 13.7843C0.357729 13.1744 0.225734 12.5266 0.0508429 11.8953C0.0303792 11.8214 0.016807 11.7456 0 11.6705C6.28729e-08 11.2838 6.28725e-08 10.897 6.28725e-08 10.5103ZM7.15985 24.5924C7.15985 24.0708 7.15985 23.5648 7.15985 23.0319C9.00574 23.0319 10.8378 23.0319 12.6886 23.0319C12.6886 21.9198 12.6886 20.8342 12.6886 19.7234C12.5111 19.6901 12.3226 19.6601 12.1365 19.6191C9.35018 19.0055 7.25837 16.603 7.17602 13.7458C7.10099 11.1383 7.10345 8.52525 7.18144 5.91791C7.26555 3.10945 9.47134 0.649724 12.2277 0.121886C15.7822 -0.558692 19.0784 1.67446 19.7507 5.23206C19.8268 5.63493 19.8484 6.05293 19.8501 6.4641C19.8593 8.74008 19.8612 11.016 19.8528 13.2919C19.8419 16.231 18.0665 18.6599 15.3269 19.4932C15.0013 19.5923 14.6642 19.6537 14.312 19.7374C14.312 20.8107 14.312 21.8952 14.312 23.0084C16.1408 23.0084 17.9722 23.0084 19.8291 23.0084C19.8291 23.5479 19.8291 24.0594 19.8291 24.5925C15.6182 24.5924 11.4058 24.5924 7.15985 24.5924ZM8.92705 14.648C9.25981 16.2753 11.0919 18.3647 13.9061 18.1631C15.8065 18.0269 18.0284 16.1763 18.0576 14.632C17.3404 14.632 16.6235 14.632 15.8999 14.632C15.8999 14.0948 15.8999 13.5831 15.8999 13.0395C16.6966 13.0395 17.4732 13.0395 18.2468 13.0395C18.2468 12.2372 18.2468 11.4672 18.2468 10.6674C17.4554 10.6674 16.6787 10.6674 15.8989 10.6674C15.8989 10.1248 15.8989 9.61238 15.8989 9.0709C16.6948 9.0709 17.4715 9.0709 18.246 9.0709C18.246 8.27183 18.246 7.50229 18.246 6.70139C17.454 6.70139 16.6775 6.70139 15.9017 6.70139C15.9017 6.1578 15.9017 5.64614 15.9017 5.10923C16.6393 5.10923 17.355 5.10923 18.0752 5.10923C17.7353 3.4857 15.9297 1.39537 13.0941 1.59333C11.1948 1.72596 9.00032 3.55497 8.93872 5.12484C9.65678 5.12484 10.3743 5.12484 11.1023 5.12484C11.1023 5.66048 11.1023 6.17257 11.1023 6.71553C10.3073 6.71553 9.53055 6.71553 8.75244 6.71553C8.75244 7.5165 8.75244 8.28631 8.75244 9.08595C9.54286 9.08595 10.3197 9.08595 11.1023 9.08595C11.1023 9.62841 11.1023 10.1408 11.1023 10.682C10.307 10.682 9.52992 10.682 8.75265 10.682C8.75265 11.4813 8.75265 12.2514 8.75265 13.0536C9.54286 13.0536 10.3194 13.0536 11.1003 13.0536C11.1003 13.5982 11.1003 14.1101 11.1003 14.6481C10.3639 14.648 9.64778 14.648 8.92705 14.648ZM5.22965 9.89837C4.58986 10.7449 4.58852 11.4669 5.24273 12.3442C4.87761 12.71 4.51496 13.0731 4.14978 13.4388C3.00648 12.4975 2.7074 10.1521 4.12376 8.78327C4.48529 9.14775 4.84681 9.51237 5.22965 9.89837ZM22.8603 13.4595C22.4851 13.0841 22.1216 12.7203 21.7563 12.3548C22.4943 11.4641 22.3061 10.4977 21.7584 9.88172C22.1234 9.51985 22.4876 9.15874 22.8559 8.79349C23.9224 9.63482 24.3522 11.9849 22.8603 13.4595Z" fill="white"/>
</svg>
