<svg width="106" height="132" viewBox="0 0 106 132" fill="none" xmlns="http://www.w3.org/2000/svg">
<path d="M77.5814 113.369C73.6506 110.939 70.3861 107.442 68.1162 103.232C65.8463 99.0207 64.6509 94.2436 64.6503 89.3806V57.2001C64.6564 53.5042 63.971 49.8445 62.6345 46.4373C60.444 40.8718 56.6163 36.2257 51.7343 33.2065C50.4237 32.3969 48.9372 31.9713 47.4244 31.9725C45.9116 31.9736 44.4257 32.4016 43.1162 33.2133C41.8067 34.0249 40.7196 35.1918 39.9643 36.5964C39.2089 38.0011 38.812 39.594 38.8134 41.2152V73.3525C38.8135 74.9744 38.4156 76.5679 37.6593 77.9728C36.9031 79.3778 35.8153 80.5449 34.5051 81.3569C33.1949 82.1689 31.7085 82.5973 30.1949 82.599C28.6814 82.6006 27.1941 82.1756 25.8823 81.3665C21.9524 78.9332 18.6891 75.4346 16.4202 71.222C14.1513 67.0095 12.9567 62.2314 12.9563 57.3675V24.0098C12.9546 19.1409 11.7562 14.3584 9.48177 10.1436C7.20733 5.92871 3.93704 2.43016 0 0V1.32848C3.62206 3.7071 6.61476 7.04089 8.6924 11.0116C10.77 14.9823 11.8633 19.4575 11.8678 24.0098V57.3675C11.8762 62.4295 13.1236 67.4005 15.4856 71.7842C17.8475 76.1679 21.2412 79.8109 25.328 82.3494C26.796 83.2711 28.4668 83.757 30.1683 83.757C31.8698 83.757 33.5406 83.2711 35.0086 82.3494C35.1951 82.236 35.3765 82.1172 35.5579 81.9876C36.8886 81.0485 37.9795 79.7685 38.7319 78.2635C39.4843 76.7585 39.8743 75.076 39.8666 73.3687V41.2098C39.8657 39.7874 40.2144 38.3899 40.8775 37.1578C41.5406 35.9256 42.4948 34.9023 43.644 34.1907C44.7933 33.4791 46.0971 33.1044 47.4245 33.1041C48.7518 33.1039 50.0557 33.4782 51.2052 34.1894C54.9706 36.5247 58.0976 39.8789 60.2732 43.9163C62.4489 47.9537 63.5968 52.5326 63.6021 57.1947V89.3752C63.6099 94.4366 64.8571 99.4071 67.2191 103.79C69.5812 108.173 72.9753 111.815 77.0623 114.352L105.6 132V130.688L77.5814 113.369Z" fill="#455A64"/>
</svg>
