<svg width="3" height="10" viewBox="0 0 3 10" fill="none" xmlns="http://www.w3.org/2000/svg">
<path d="M1.16304 10.0002C1.09022 10.0002 1.51096 8.91674 1.79415 7.12814C1.96209 6.08319 2.03525 5.02352 2.01261 3.96371C2.00141 3.34223 1.95548 2.722 1.87506 2.10632C1.82652 1.78815 1.78605 1.43558 1.71323 1.15181C1.68853 1.01486 1.63775 0.884723 1.564 0.769384C1.49026 0.654044 1.39511 0.555934 1.2844 0.481088C1.09831 0.412295 0.904119 0.541275 0.790844 0.825043C0.690509 1.12304 0.620002 1.43145 0.580479 1.74514C0.488609 2.36049 0.426499 2.98043 0.394387 3.60254C0.35329 4.66013 0.404757 5.71949 0.54812 6.76697C0.807036 8.55557 1.21159 9.61324 1.13877 9.63904C0.992654 9.41981 0.883176 9.17547 0.815128 8.91673C0.574191 8.23515 0.387433 7.5333 0.256833 6.81856C0.0598722 5.75416 -0.0242587 4.66966 0.00601028 3.58535C0.0247347 2.943 0.0814839 2.30253 0.175923 1.66776C0.196216 1.31184 0.255965 0.959708 0.353929 0.618675C0.425148 0.417182 0.552076 0.243325 0.718026 0.119943C0.817074 0.0576324 0.927488 0.0184798 1.0419 0.005134C1.15631 -0.00821176 1.2721 0.00453347 1.3815 0.042529C1.55305 0.139853 1.70267 0.275614 1.82001 0.440412C1.93736 0.605211 2.01964 0.795131 2.06116 0.997034C2.1353 1.33458 2.19202 1.67619 2.23107 2.02032C2.31186 2.65582 2.34971 3.29664 2.34435 3.93788C2.35146 5.02184 2.24563 6.10331 2.0288 7.16252C1.89118 7.87546 1.69628 8.57456 1.44623 9.2521C1.38932 9.51571 1.29375 9.76816 1.16304 10.0002Z" fill="#FAFAFA"/>
</svg>
