<svg width="37" height="38" viewBox="0 0 37 38" fill="none" xmlns="http://www.w3.org/2000/svg">
<path d="M18.5094 19.4499C20.4328 19.4499 22.3131 18.8796 23.9123 17.811C25.5116 16.7424 26.7581 15.2236 27.4941 13.4466C28.2302 11.6696 28.4228 9.71419 28.0475 7.82773C27.6723 5.94127 26.7461 4.20844 25.386 2.84838C24.026 1.48832 22.2931 0.562107 20.4067 0.186867C18.5202 -0.188373 16.5648 0.00421314 14.7878 0.740273C13.0108 1.47633 11.492 2.72281 10.4234 4.32207C9.35481 5.92133 8.78445 7.80156 8.78445 9.72497C8.78445 12.3042 9.80904 14.7778 11.6328 16.6016C12.5359 17.5046 13.6079 18.2209 14.7878 18.7097C15.9677 19.1984 17.2323 19.4499 18.5094 19.4499ZM18.5094 2.5206C19.9388 2.5206 21.3361 2.94471 22.5244 3.73924C23.7126 4.53377 24.6384 5.66299 25.1846 6.98395C25.7307 8.30491 25.8726 9.75822 25.5924 11.1599C25.3122 12.5616 24.6224 13.8486 23.6103 14.858C22.5982 15.8674 21.3094 16.5539 19.907 16.8305C18.5046 17.107 17.0517 16.9613 15.7322 16.4117C14.4126 15.8621 13.2858 14.9334 12.4944 13.7431C11.703 12.5528 11.2825 11.1544 11.2862 9.72497C11.2912 7.81252 12.0544 5.98011 13.4085 4.62956C14.7626 3.27902 16.597 2.52059 18.5094 2.5206ZM23.2873 21.331H13.7128C10.0774 21.336 6.59244 22.7823 4.02187 25.3529C1.45131 27.9234 0.0049765 31.4084 0 35.0437V36.3793C0 36.7135 0.132781 37.0341 0.369132 37.2704C0.605483 37.5068 0.926045 37.6396 1.2603 37.6396H17.9827C18.1074 37.6593 18.2343 37.6593 18.3589 37.6396C18.4837 37.6579 18.6104 37.6579 18.7351 37.6396H35.6645C35.8362 37.6499 36.0082 37.6249 36.1699 37.5661C36.3316 37.5074 36.4796 37.4162 36.6047 37.2981C36.7298 37.1801 36.8294 37.0376 36.8974 36.8796C36.9654 36.7216 37.0003 36.5513 37 36.3793V35.0437C36.9951 31.4084 35.5487 27.9234 32.9782 25.3529C30.4076 22.7823 26.9226 21.336 23.2873 21.331ZM19.1678 23.8328L20.7102 31.6203L18.3589 34.4982L16.0076 31.6391L17.5313 23.8516L19.1678 23.8328ZM2.52059 35.119C2.52049 32.1419 3.69665 29.2854 5.79293 27.1715C7.88921 25.0576 10.7358 23.8576 13.7128 23.8328H14.9731L13.4306 31.7143C13.392 31.8954 13.3957 32.0829 13.4413 32.2624C13.487 32.4418 13.5735 32.6083 13.694 32.7489L15.575 35.119H2.40773H2.52059ZM34.4982 35.119H21.0676L22.9487 32.7489C23.0656 32.6062 23.1498 32.4396 23.1953 32.2609C23.2408 32.0821 23.2465 31.8955 23.212 31.7143L21.6508 23.8328H23.212C26.2053 23.8328 29.076 25.0218 31.1926 27.1384C33.3092 29.255 34.4982 32.1257 34.4982 35.119Z" fill="white"/>
</svg>
