<svg width="131" height="134" viewBox="0 0 131 134" fill="none" xmlns="http://www.w3.org/2000/svg">
<path d="M114.162 3.15199L96.3667 43.6077L80.7962 22.0009C71.0535 8.80191 63.0458 5.64992 63.0458 5.64992L48.9137 1.63116L19.9599 0L17.439 1.53658L0 9.34563C0 9.34563 1.66086 29.3608 4.95291 45.2625C8.24497 61.1643 10.9958 78.5475 10.9958 78.5475C12.1969 89.9971 4.21146 133.912 4.21146 133.912H84.0141L66.9607 79.3513C68.9145 72.7072 70.5356 65.9577 71.8172 59.1313L86.6463 69.8874C86.6463 69.8874 108.89 83.1731 116.987 60.8412L131 8.83344L114.162 3.15199Z" fill="#FF725E"/>
</svg>
