<svg width="19" height="14" viewBox="0 0 19 14" fill="none" xmlns="http://www.w3.org/2000/svg">
<mask id="mask0_277_349" style="mask-type:alpha" maskUnits="userSpaceOnUse" x="-1" y="-4" width="21" height="22">
<rect x="-0.863556" y="-3.45454" width="20.7274" height="20.7274" fill="#D9D9D9"/>
</mask>
<g mask="url(#mask0_277_349)">
<path d="M0 13.8182V11.4001C0 10.9107 0.125948 10.4608 0.377843 10.0506C0.629738 9.64038 0.964398 9.32731 1.38182 9.1114C2.27425 8.66519 3.18107 8.33053 4.10229 8.10742C5.02351 7.88431 5.95912 7.77276 6.90912 7.77276C7.85913 7.77276 8.79474 7.88431 9.71595 8.10742C10.6372 8.33053 11.544 8.66519 12.4364 9.1114C12.8538 9.32731 13.1885 9.64038 13.4404 10.0506C13.6923 10.4608 13.8182 10.9107 13.8182 11.4001V13.8182H0ZM15.5455 13.8182V11.2273C15.5455 10.594 15.3692 9.98584 15.0165 9.40288C14.6639 8.81992 14.1637 8.31973 13.516 7.90231C14.2501 7.98867 14.941 8.13621 15.5887 8.34492C16.2364 8.55364 16.841 8.80913 17.4024 9.1114C17.9205 9.39928 18.3164 9.71955 18.5899 10.0722C18.8633 10.4249 19.0001 10.8099 19.0001 11.2273V13.8182H15.5455ZM6.90912 6.90912C5.95912 6.90912 5.14586 6.57086 4.46934 5.89434C3.79282 5.21783 3.45456 4.40457 3.45456 3.45456C3.45456 2.50456 3.79282 1.6913 4.46934 1.01478C5.14586 0.338259 5.95912 0 6.90912 0C7.85913 0 8.67239 0.338259 9.34891 1.01478C10.0254 1.6913 10.3637 2.50456 10.3637 3.45456C10.3637 4.40457 10.0254 5.21783 9.34891 5.89434C8.67239 6.57086 7.85913 6.90912 6.90912 6.90912ZM15.5455 3.45456C15.5455 4.40457 15.2073 5.21783 14.5307 5.89434C13.8542 6.57086 13.041 6.90912 12.091 6.90912C11.9326 6.90912 11.7311 6.89113 11.4864 6.85514C11.2417 6.81916 11.0402 6.77958 10.8819 6.73639C11.2705 6.27579 11.5692 5.7648 11.7779 5.20343C11.9866 4.64207 12.091 4.05911 12.091 3.45456C12.091 2.85001 11.9866 2.26706 11.7779 1.70569C11.5692 1.14432 11.2705 0.633336 10.8819 0.172728C11.0834 0.100758 11.2849 0.0539775 11.4864 0.0323865C11.6879 0.0107955 11.8894 0 12.091 0C13.041 0 13.8542 0.338259 14.5307 1.01478C15.2073 1.6913 15.5455 2.50456 15.5455 3.45456ZM1.72728 12.091H12.091V11.4001C12.091 11.2417 12.0514 11.0978 11.9722 10.9682C11.893 10.8387 11.7887 10.7379 11.6591 10.666C10.8819 10.2773 10.0974 9.98584 9.30572 9.79152C8.51405 9.5972 7.71519 9.50004 6.90912 9.50004C6.10306 9.50004 5.30419 9.5972 4.51252 9.79152C3.72085 9.98584 2.93638 10.2773 2.1591 10.666C2.02955 10.7379 1.9252 10.8387 1.84603 10.9682C1.76686 11.0978 1.72728 11.2417 1.72728 11.4001V12.091ZM6.90912 5.18184C7.38412 5.18184 7.79075 5.01271 8.12901 4.67445C8.46727 4.33619 8.6364 3.92956 8.6364 3.45456C8.6364 2.97956 8.46727 2.57293 8.12901 2.23467C7.79075 1.89641 7.38412 1.72728 6.90912 1.72728C6.43412 1.72728 6.02749 1.89641 5.68923 2.23467C5.35097 2.57293 5.18184 2.97956 5.18184 3.45456C5.18184 3.92956 5.35097 4.33619 5.68923 4.67445C6.02749 5.01271 6.43412 5.18184 6.90912 5.18184Z" fill="#1C1B1F"/>
</g>
</svg>
