<svg width="23" height="33" viewBox="0 0 23 33" fill="none" xmlns="http://www.w3.org/2000/svg">
<path d="M4.43226 14.3091C3.85398 14.3661 3.26827 14.2961 2.73044 14.1055C2.19261 13.915 1.72043 13.6102 1.35848 13.2201C-0.209141 11.6417 -0.307504 10.0634 0.491677 9.06906C1.14332 8.23255 2.69864 7.72749 3.75602 8.33251C4.8134 8.93754 4.89946 9.48469 5.31135 10.1897C5.72323 10.8947 7.40766 10.8841 7.90561 8.08524C8.37283 5.45469 8.92611 3.07668 10.4691 1.92976C12.7745 0.219903 15.2581 0.572395 16.1126 1.6404C17.0716 0.440868 18.4855 -0.0168506 19.9917 0.724964C21.4978 1.46678 22.5921 3.45548 22.9425 8.44826C23.2991 13.5357 21.9343 17.1028 20.545 17.9182C19.4937 18.539 18.1782 18.6443 15.9466 18.6758L16.0757 21.6431C16.0757 21.6431 19.7642 28.5246 19.6167 32.8755C19.6167 32.8755 17.7417 30.1292 12.1659 26.0361C8.47733 23.3056 6.11053 21.5852 6.11053 21.5852L5.71094 13.5515C5.71094 13.5515 5.58185 14.1565 4.43226 14.3091Z" fill="#FFBDA7"/>
<path d="M13.8688 8.653C13.7998 8.8052 13.6803 8.93681 13.525 9.03159C13.3697 9.12637 13.1854 9.1802 12.9947 9.18642C12.8041 9.19265 12.6155 9.151 12.4523 9.06662C12.289 8.98224 12.1581 8.85882 12.0757 8.71156C11.9934 8.5643 11.9632 8.39964 11.9889 8.23788C12.0146 8.07612 12.095 7.92432 12.2203 7.8012C12.3456 7.67808 12.5102 7.58902 12.6939 7.54499C12.8775 7.50097 13.0723 7.5039 13.254 7.55343C13.3792 7.59059 13.4944 7.64861 13.5932 7.72414C13.692 7.79967 13.7723 7.89121 13.8294 7.99347C13.8866 8.09572 13.9195 8.20665 13.9263 8.31986C13.933 8.43307 13.9135 8.54629 13.8688 8.653Z" fill="#263238"/>
<path d="M12.9097 7.51153C12.295 7.51153 11.9077 8.20599 11.3237 7.91137C11.3637 8.00906 11.4266 8.0987 11.5087 8.17476C11.5908 8.25081 11.6901 8.31167 11.8008 8.35357C11.9114 8.39547 12.0308 8.41754 12.1518 8.41839C12.2727 8.41925 12.3926 8.39889 12.504 8.35856C12.7991 8.24282 12.9097 7.51153 12.9097 7.51153Z" fill="#263238"/>
<path d="M21.5839 6.46984L19.5368 5.50179C19.6043 5.38493 19.6987 5.28094 19.8144 5.19607C19.93 5.1112 20.0645 5.04719 20.2097 5.00788C20.355 4.96858 20.508 4.95479 20.6596 4.96734C20.8113 4.97988 20.9584 5.01852 21.0921 5.08091C21.3668 5.21412 21.571 5.43264 21.6626 5.6912C21.7542 5.94977 21.726 6.22856 21.5839 6.46984Z" fill="#263238"/>
<path d="M19.0573 8.51651C19.1243 8.66996 19.2426 8.80317 19.3973 8.89962C19.5521 8.99606 19.7365 9.05149 19.9278 9.05903C20.119 9.06657 20.3086 9.02587 20.4731 8.94201C20.6375 8.85815 20.7696 8.7348 20.8529 8.58728C20.9362 8.43975 20.967 8.27455 20.9415 8.11217C20.9161 7.94979 20.8355 7.79738 20.7097 7.67386C20.5839 7.55034 20.4185 7.46114 20.2341 7.41734C20.0496 7.37354 19.8542 7.37705 19.672 7.42746C19.5478 7.4641 19.4333 7.52139 19.3351 7.59605C19.2369 7.67072 19.1569 7.76127 19.0998 7.8625C19.0427 7.96372 19.0095 8.07362 19.0022 8.18586C18.9949 8.29811 19.0136 8.41048 19.0573 8.51651Z" fill="#263238"/>
<path d="M20.0349 7.41162C20.6496 7.41162 21.0308 8.1166 21.6148 7.82724C21.5743 7.92447 21.5108 8.01353 21.4284 8.08887C21.3459 8.16422 21.2463 8.22424 21.1355 8.2652C21.0248 8.30616 20.9055 8.32717 20.7848 8.32695C20.6642 8.32673 20.545 8.30527 20.4345 8.26391C20.1517 8.12186 20.0349 7.41162 20.0349 7.41162Z" fill="#263238"/>
<path d="M13.1742 5.623L11.0103 6.70152C10.925 6.5835 10.8678 6.45222 10.842 6.31522C10.8162 6.17821 10.8224 6.0382 10.8601 5.90323C10.8978 5.76827 10.9663 5.64103 11.0617 5.52882C11.1571 5.41662 11.2775 5.32168 11.416 5.24946C11.7092 5.10709 12.055 5.06648 12.3822 5.13598C12.7093 5.20549 12.9928 5.37982 13.1742 5.623Z" fill="#263238"/>
<path d="M12.4302 2.25044C12.0651 2.84671 11.8553 3.50366 11.8155 4.176C11.7356 4.85994 11.6741 6.46983 11.1515 7.42735C10.9626 7.81853 10.6602 8.16201 10.273 8.4253C9.88572 8.6886 9.42639 8.863 8.93842 8.93203C8.30683 9.01811 7.66011 8.96746 7.05727 8.78472C6.68842 8.64267 5.93842 8.43222 5.76014 7.10642C5.97803 7.30003 6.23942 7.45393 6.52858 7.55888C6.7482 7.63532 6.9806 7.68149 7.21711 7.69566C7.57186 7.69173 7.91967 7.61104 8.22816 7.46109C8.53666 7.31115 8.7958 7.09684 8.98146 6.83811C9.66998 5.94899 9.59621 4.73367 9.81752 3.73406C10.0757 2.43983 10.3216 0.97199 11.6618 0.319614C12.293 0.00966151 13.0399 -0.0791015 13.7459 0.0719487C14.4519 0.222999 15.0622 0.602125 15.4487 1.12982C13.8688 0.572143 12.8544 1.62436 12.4302 2.25044Z" fill="#37474F"/>
<path d="M12.9834 12.8305L16.2232 13.7038C16.1505 13.8965 16.0319 14.0742 15.8748 14.2256C15.7177 14.377 15.5256 14.4989 15.3106 14.5834C15.0956 14.668 14.8625 14.7135 14.6259 14.7169C14.3894 14.7203 14.1545 14.6817 13.9363 14.6035C13.7366 14.5419 13.5532 14.447 13.3968 14.3242C13.2404 14.2013 13.1141 14.053 13.0254 13.888C12.9367 13.7229 12.8873 13.5444 12.8801 13.3628C12.8729 13.1813 12.908 13.0003 12.9834 12.8305Z" fill="#B16668"/>
<path d="M14.8708 14.6825C14.8204 14.3064 14.6079 13.9599 14.2747 13.7108C13.9416 13.4617 13.5119 13.3279 13.0696 13.3357C13.0164 13.3328 12.963 13.3328 12.9098 13.3357C12.9003 13.6112 12.9951 13.882 13.1801 14.1076C13.3651 14.3333 13.6304 14.5017 13.9364 14.5878C14.2337 14.6857 14.555 14.7183 14.8708 14.6825Z" fill="#F0997A"/>
<path d="M15.9096 6.89624L16.4014 11.8995L19.5982 10.942L15.9096 6.89624Z" fill="#F0997A"/>
<path d="M15.9836 18.6704C13.8273 18.5618 11.7038 18.1678 9.68851 17.5024C8.95695 17.2341 7.97335 16.0925 7.16803 14.8193C7.16803 14.8193 7.72745 17.3236 9.30737 18.1864C11.7111 19.4964 16.0328 19.8173 16.0328 19.8173L15.9836 18.6704Z" fill="#F0997A"/>
</svg>
