<svg width="28" height="33" viewBox="0 0 28 33" fill="none" xmlns="http://www.w3.org/2000/svg">
<path d="M27.9665 0C27.9861 0.162528 27.9861 0.327057 27.9665 0.489585C27.9378 0.954098 27.8782 1.41587 27.7882 1.87145C27.493 3.56403 26.9568 5.19892 26.1982 6.71984C25.0813 8.99367 23.536 10.9988 21.6584 12.6105C20.5563 13.567 19.3396 14.3636 18.04 14.9795C16.6356 15.6053 15.1841 16.1045 13.7009 16.4719C12.2433 16.8229 10.8399 17.3918 9.53269 18.1617C8.35171 18.9253 7.42244 20.0591 6.87275 21.4071C5.80283 23.9893 5.63937 26.6346 4.79978 28.656C4.44177 29.5665 3.9585 30.4154 3.36579 31.175C2.90961 31.7472 2.35481 32.2216 1.73119 32.5726C1.33293 32.7858 0.903172 32.9247 0.460662 32.9833C0.307831 33.0056 0.152831 33.0056 0 32.9833C0.578633 32.8995 1.13923 32.7099 1.65689 32.4226C2.24705 32.0594 2.76857 31.5828 3.1949 31.0171C3.75854 30.2662 4.21425 29.4306 4.54716 28.5376C5.33474 26.5635 5.46104 23.9261 6.54582 21.2413C7.12318 19.8449 8.08735 18.6687 9.30978 17.8696C10.6465 17.0703 12.0857 16.4824 13.582 16.1244C15.043 15.7564 16.4741 15.2652 17.8617 14.6557C19.1355 14.0526 20.3295 13.2747 21.4132 12.3421C23.2649 10.7717 24.8011 8.82228 25.9307 6.60929C26.7015 5.12305 27.2694 3.52778 27.6173 1.87145C27.8699 0.671202 27.9219 0 27.9665 0Z" fill="#455A64"/>
</svg>
