<svg width="8" height="29" viewBox="0 0 8 29" fill="none" xmlns="http://www.w3.org/2000/svg">
<path d="M7.74215 29.0001C7.71078 28.5975 7.71078 28.1928 7.74215 27.7901C7.74215 27.4029 7.78769 26.927 7.74215 26.3704C7.69661 25.8138 7.74215 25.1926 7.74215 24.4989C7.703 22.8797 7.58136 21.264 7.3778 19.6588C7.11032 17.6912 6.72753 15.7433 6.23167 13.8265C5.71724 11.9028 5.08591 10.0166 4.34167 8.17972C3.72772 6.6919 3.03852 5.24046 2.2771 3.83173C1.9659 3.22672 1.63951 2.70238 1.36626 2.21837C1.09301 1.73436 0.85012 1.34715 0.607229 1.02447C0.380957 0.699629 0.177974 0.357179 0 0C0.281879 0.281151 0.536193 0.591965 0.759033 0.927677C0.986743 1.24228 1.26 1.62142 1.51807 2.0893C1.77614 2.55717 2.15565 3.05731 2.48963 3.70266C3.29315 5.0998 4.01314 6.54932 4.64529 8.0426C6.19137 11.7088 7.21466 15.5994 7.68142 19.5862C7.8748 21.213 7.97113 22.8511 7.96985 24.4908C7.96985 25.1845 7.96985 25.8218 7.92431 26.3704C7.87877 26.9189 7.86359 27.4029 7.82564 27.7901C7.83258 28.1953 7.80463 28.6003 7.74215 29.0001Z" fill="#263238"/>
</svg>
