<svg width="13" height="12" viewBox="0 0 13 12" fill="none" xmlns="http://www.w3.org/2000/svg">
<mask id="mask0_277_325" style="mask-type:alpha" maskUnits="userSpaceOnUse" x="-2" y="-2" width="16" height="16">
<rect x="-1.26316" y="-1.26303" width="15.1579" height="15.1579" fill="#D9D9D9"/>
</mask>
<g mask="url(#mask0_277_325)">
<path d="M3.55263 2.77895L5.32105 0.489474C5.44737 0.321053 5.59737 0.197368 5.77105 0.118421C5.94474 0.0394737 6.12632 0 6.31579 0C6.50526 0 6.68684 0.0394737 6.86053 0.118421C7.03421 0.197368 7.18421 0.321053 7.31053 0.489474L9.07895 2.77895L11.7632 3.67895C12.0368 3.76316 12.2526 3.91842 12.4105 4.14474C12.5684 4.37105 12.6474 4.62105 12.6474 4.89474C12.6474 5.02105 12.6289 5.14737 12.5921 5.27368C12.5553 5.4 12.4947 5.52105 12.4105 5.63684L10.6737 8.1L10.7368 10.6895C10.7474 11.0579 10.6263 11.3684 10.3737 11.6211C10.1211 11.8737 9.82632 12 9.48947 12C9.46842 12 9.35263 11.9842 9.14211 11.9526L6.31579 11.1632L3.48947 11.9526C3.43684 11.9737 3.37895 11.9868 3.31579 11.9921C3.25263 11.9974 3.19474 12 3.14211 12C2.80526 12 2.51053 11.8737 2.25789 11.6211C2.00526 11.3684 1.88421 11.0579 1.89474 10.6895L1.95789 8.08421L0.236842 5.63684C0.152632 5.52105 0.0921053 5.4 0.0552632 5.27368C0.0184211 5.14737 0 5.02105 0 4.89474C0 4.63158 0.0763158 4.38684 0.228947 4.16053C0.381579 3.93421 0.594737 3.77368 0.868421 3.67895L3.55263 2.77895Z" fill="#FBBC05"/>
</g>
</svg>
