<svg width="48" height="70" viewBox="0 0 48 70" fill="none" xmlns="http://www.w3.org/2000/svg">
<path d="M17.1098 66.7579C12.8948 62.417 10.4209 44.7786 14.53 41.3168H35.4438C39.5529 44.7574 37.079 62.4085 32.8683 66.7536L32.7539 66.872L32.6099 67.0157C32.4912 67.1284 32.3642 67.2425 32.2286 67.3581L32.1269 67.4342C32.0253 67.5187 31.9194 67.599 31.8092 67.6793C31.6336 67.8061 31.4512 67.9232 31.2628 68.0301C27.7849 70.0336 22.1762 70.0336 18.7111 68.0301C18.5212 67.9218 18.3374 67.8033 18.1604 67.6751C18.0587 67.6032 17.9613 67.5271 17.8638 67.4511L17.741 67.3496C17.6124 67.2463 17.4894 67.1363 17.3724 67.0199L17.2072 66.8551L17.1098 66.7579Z" fill="#EBEBEB"/>
<path d="M33.6265 39.9304C38.4006 42.7116 38.4006 47.2174 33.6265 49.9986C28.8523 52.7799 21.1171 52.7799 16.3472 49.9986C11.5774 47.2174 11.5731 42.7116 16.3472 39.9304C21.1214 37.1492 28.8566 37.1534 33.6265 39.9304Z" fill="#F5F5F5"/>
<path d="M31.3307 41.2915C34.8382 43.333 34.8382 46.6426 31.3307 48.6841C27.8232 50.7257 22.1467 50.7257 18.6434 48.6841C15.1402 46.6426 15.1359 43.333 18.6434 41.2915C22.151 39.2499 27.8274 39.2288 31.3307 41.2915Z" fill="#E0E0E0"/>
<path d="M18.6436 44.7786C22.1469 42.737 27.8276 42.737 31.3521 44.7786C32.2087 45.2395 32.9367 45.9063 33.4701 46.7187C32.9382 47.5334 32.21 48.2019 31.3521 48.663C27.8488 50.7045 22.1681 50.7045 18.6648 48.663C17.8069 48.2019 17.0787 47.5334 16.5467 46.7187C17.0742 45.909 17.7947 45.2424 18.6436 44.7786Z" fill="#FAFAFA"/>
<path d="M34.3679 8.74525L26.4294 15.0305L34.1095 11.4969C34.0936 13.9753 33.642 16.4317 32.7751 18.7543C32.7751 18.7543 28.9923 21.0029 26.7979 22.9811L32.6819 20.6606C32.6819 20.6606 33.1056 24.5323 31.4704 30.4371C31.0468 31.9841 29.3057 34.9344 28.2086 37.1408C27.712 38.1644 27.1458 39.153 26.5141 40.0996C26.4802 40.163 26.4379 40.2179 26.3955 40.2813C25.0484 39.512 23.6505 38.7667 22.2017 38.0453C21.2528 36.0588 20.0201 31.1557 19.5753 27.1402C17.8809 11.7632 29.5303 2.95455 38.8964 2.98569e-05C38.8794 -0.0126505 35.6642 4.01548 34.3679 8.74525Z" fill="#F5F5F5"/>
<path d="M27.7298 9.39182C26.1073 11.0191 25.1584 13.1579 24.434 15.3093C23.7218 17.4689 23.2488 19.6999 23.0234 21.9623C22.5231 26.4828 23.1038 31.0572 24.7179 35.3105C24.7288 35.3376 24.7341 35.3667 24.7336 35.396C24.7331 35.4252 24.7267 35.4541 24.7149 35.4809C24.703 35.5076 24.686 35.5318 24.6647 35.5519C24.6433 35.572 24.6182 35.5876 24.5908 35.5979C24.5357 35.6187 24.4746 35.617 24.4207 35.5933C24.3668 35.5696 24.3245 35.5257 24.3027 35.4711C22.7433 31.143 22.2338 26.5078 22.8158 21.9454C23.0788 19.676 23.5902 17.4422 24.3408 15.284C25.0906 13.1283 26.0904 10.9938 27.7298 9.39182Z" fill="white"/>
<path d="M0 16.8099C0.199099 17.0466 3.45669 20.9141 8.29437 28.442L16.343 29.7354L10.4124 30.771L13.6023 35.8135L21.5323 37.4493L15.3391 38.4553C15.3391 38.4553 17.0589 44.4827 21.49 46.9976C23.9342 48.384 25.133 48.5953 25.8659 47.8979C26.3785 47.4118 26.5013 44.5165 26.9292 41.9381C27.357 39.3598 27.3909 35.1753 24.9509 30.1031C24.2847 28.748 23.4289 27.4942 22.4092 26.3793C16.5591 19.8743 5.47733 16.7296 0 16.8099Z" fill="#F0F0F0"/>
<path d="M8.43033 19.4432C12.5945 21.2649 16.5383 23.7672 19.6349 27.1655C21.2037 28.8444 22.4988 30.7584 23.4729 32.8379C24.4241 34.9305 25.0224 37.1656 25.2436 39.4528C25.2458 39.4567 25.247 39.461 25.247 39.4655C25.247 39.4699 25.2458 39.4743 25.2436 39.4782C25.2396 39.48 25.2353 39.481 25.2309 39.481C25.2265 39.481 25.2221 39.48 25.2182 39.4782C24.7868 37.256 24.0751 35.0972 23.1001 33.0534C22.1287 31.016 20.8831 29.1204 19.3977 27.4191C16.3731 23.9997 12.5352 21.4256 8.40915 19.4812C8.40605 19.4769 8.40438 19.4718 8.40438 19.4664C8.40438 19.4611 8.40605 19.456 8.40915 19.4516L8.43033 19.4432Z" fill="white"/>
<path d="M47.9998 20.1278C47.3222 20.1196 46.6447 20.1507 45.9707 20.2208C43.3188 20.5284 40.715 21.1616 38.2186 22.106C37.2909 22.4483 36.3631 22.8414 35.4481 23.2768C34.9906 23.4924 34.5374 23.7248 34.0926 23.9615C31.8797 25.1172 29.8753 26.6328 28.162 28.4462C27.3542 29.3113 26.6583 30.274 26.0905 31.3119C26.0185 31.4472 25.938 31.5782 25.8702 31.7346C25.6965 32.0896 25.544 32.4362 25.3958 32.7786C23.7013 36.6419 23.5361 39.3259 23.6462 42.2973C23.731 44.6052 24.4935 47.2427 24.9679 47.6738C25.0276 47.7327 25.0945 47.7838 25.167 47.826C25.8279 48.2487 26.8615 47.9993 28.8355 46.9045C32.7624 44.7151 34.3001 39.1653 34.3001 39.1653L28.844 38.2396L35.8506 36.8448L38.7142 32.4151L33.4783 31.4641L40.595 30.3693C44.9117 23.7587 47.7965 20.3645 47.9871 20.1574L47.9998 20.1278Z" fill="#F0F0F0"/>
<path d="M45.9707 20.2208C43.3188 20.5284 40.715 21.1616 38.2186 22.106C37.2909 22.4484 36.3631 22.8414 35.4481 23.2768C34.9906 23.4924 34.5374 23.7248 34.0926 23.9615C31.8797 25.1172 29.8753 26.6328 28.162 28.4462C27.3542 29.3113 26.6583 30.2741 26.0905 31.3119C26.0185 31.4472 25.938 31.5782 25.8702 31.7346C25.6965 32.0897 25.544 32.4363 25.3958 32.7786C23.7013 36.6419 23.5361 39.3259 23.6462 42.2974C23.731 44.6052 24.4935 47.2427 24.9679 47.6738C25.0276 47.7327 25.0945 47.7838 25.167 47.826C25.2973 47.9038 25.441 47.9568 25.5906 47.9824C25.1077 44.4065 26.8615 35.3358 29.5387 31.6078C32.3176 27.7276 38.9048 22.0975 47.9617 20.1574C47.2974 20.1401 46.6326 20.1613 45.9707 20.2208Z" fill="#E0E0E0"/>
</svg>
