<svg width="31" height="29" viewBox="0 0 31 29" fill="none" xmlns="http://www.w3.org/2000/svg">
<path d="M30.9766 12.0446C30.9547 11.8076 30.8451 11.5828 30.6637 11.4028C30.4823 11.2228 30.2386 11.097 29.9679 11.0436L16.2734 8.78757C16.2096 8.78229 16.1453 8.78229 16.0815 8.78757C16.0815 7.43182 15.9825 6.52621 14.7634 6.13961C13.9404 5.896 13.6681 4.83681 14.058 3.37514C14.4788 1.78637 15.9144 0.79603 16.6756 0.859581C17.2944 0.923132 17.3687 1.86051 17.3687 2.2577C17.3687 2.37147 17.4215 2.48058 17.5155 2.56103C17.6095 2.64148 17.737 2.68667 17.8699 2.68667C18.0029 2.68667 18.1304 2.64148 18.2244 2.56103C18.3184 2.48058 18.3712 2.37147 18.3712 2.2577C18.3712 0.367061 17.2635 0.0546014 16.787 0.00693817C15.3204 -0.114868 13.5691 1.38388 13.074 3.18449C12.2943 6.07606 13.9095 6.7963 14.4231 6.94989C14.9367 7.10347 15.0728 7.51125 15.0728 9.06825H15.0419C14.8192 9.21986 14.6233 9.39824 14.4602 9.59784L0.765657 25.385C-0.0945073 26.3806 -0.255406 27.7152 0.412923 28.3613C0.517582 28.464 0.647012 28.5461 0.792304 28.6018C0.937595 28.6576 1.0953 28.6857 1.25453 28.6843C1.53011 28.6791 1.79913 28.6115 2.03424 28.4884L29.4234 14.9573C29.9672 14.6385 30.3991 14.1988 30.6728 13.6856C30.9465 13.1724 31.0515 12.605 30.9766 12.0446ZM28.9778 14.2794L1.58868 27.8105C1.25452 27.98 1.14933 27.8793 1.1122 27.8423C0.82135 27.5616 0.833722 26.6507 1.51443 25.8616L15.209 10.0957C15.5555 9.70376 15.9144 9.56607 16.1001 9.56607L29.7947 11.8221C29.937 11.8221 30.0298 11.9651 30.0731 12.1823C30.1166 12.5829 30.0386 12.9864 29.8467 13.3537C29.6549 13.7211 29.3556 14.0399 28.9778 14.2794Z" fill="#FA00FF"/>
</svg>
