<svg width="42" height="69" viewBox="0 0 42 69" fill="none" xmlns="http://www.w3.org/2000/svg">
<path d="M29.0222 24.2124C29.1995 26.587 29.3739 28.9588 29.5455 31.3276C27.7698 31.6561 25.9256 31.8593 24.1715 31.4357C22.4173 31.0121 20.7403 29.8579 20.1184 28.1504C19.9791 27.8268 19.9374 27.469 19.9983 27.1216C20.0353 26.9509 20.1227 26.7956 20.2491 26.676C20.3754 26.5564 20.5347 26.4781 20.706 26.4516" fill="#FFBE9D"/>
<path d="M33.7791 16.626C34.0579 15.7614 35.233 15.2254 35.2416 14.3133C35.2502 13.4013 34.0107 12.8436 33.6461 11.9575C33.0972 10.6217 34.7227 9.20389 34.3452 7.82062C33.9163 6.16069 31.0685 5.98346 30.541 4.36244C30.3222 3.68378 30.541 2.83221 29.992 2.34374C29.28 1.70398 28.0362 2.34373 27.1399 1.95901C26.3121 1.5959 26.0977 0.48497 25.2699 0.113216C24.4421 -0.258538 23.4214 0.363935 22.5893 0.843756C22.3406 0.990729 22.0275 1.17661 21.7058 1.34519C20.2948 0.87834 18.0474 0.943175 17.0824 1.70397C15.9458 2.59445 15.0795 3.78752 13.8142 4.50941C12.7034 5.14917 11.3181 5.40422 10.4303 6.30766C8.85196 7.91572 9.70116 10.5526 8.89485 12.6059C8.62036 13.3061 8.15287 13.9286 7.85693 14.6203C7.561 15.3119 7.47093 16.1591 7.92555 16.7816C8.38018 17.4041 9.33231 17.7499 9.34947 18.5107C9.36662 19.2715 8.4102 19.7816 8.49169 20.5078C8.57318 21.234 9.74834 21.4847 10.2501 22.1245C10.9063 22.9545 10.2501 24.2513 10.8163 25.1504C11.4382 26.1057 12.935 25.9025 14.0887 26.1792C16.1002 26.659 17.5928 28.8679 19.6343 28.5351C20.4149 28.4054 21.0882 27.904 21.8688 27.7786C22.9239 27.61 23.9489 28.146 25.0083 28.2757C26.9211 28.5135 28.7096 27.4371 30.2965 26.404C31.1114 25.8766 31.9863 25.2628 32.1965 24.355C32.3895 23.5337 31.9949 22.6259 32.4324 21.8694C32.8698 21.113 33.8391 20.9444 34.1994 20.2355C34.7655 19.0813 33.406 17.7974 33.7791 16.626Z" fill="#263238"/>
<path d="M13.3767 8.11888C13.349 8.0673 13.3287 8.01198 13.3166 7.95462C13.2804 7.79158 13.266 7.6244 13.2737 7.45751C13.3147 6.83372 13.5855 6.24789 14.0329 5.81488C14.6989 5.18387 15.5424 4.77615 16.4475 4.64774C16.9966 4.55612 17.5595 4.68323 18.0173 5.00221C18.2508 5.19125 18.4312 5.43865 18.5405 5.71978C18.6522 6.01636 18.6522 6.34394 18.5405 6.64052C18.4842 6.79317 18.3907 6.92904 18.2685 7.03558C18.1463 7.14212 17.9994 7.21588 17.8414 7.25003C17.6773 7.28713 17.5055 7.26413 17.3568 7.18517C17.2121 7.10172 17.1047 6.96559 17.0565 6.80477C17.0202 6.65785 17.0152 6.50485 17.0418 6.35584C17.0685 6.20683 17.1261 6.06517 17.2109 5.94023C17.3695 5.71021 17.5896 5.53033 17.8457 5.42151C18.2788 5.24155 18.7608 5.21996 19.208 5.36049C19.6553 5.50101 20.0397 5.79481 20.2947 6.19095C20.6231 6.72024 20.7553 7.34955 20.6678 7.96759C20.6511 8.13227 20.6166 8.29464 20.5649 8.45174C20.5263 8.55981 20.5048 8.61168 20.4962 8.61168C20.4877 8.61168 20.5563 8.37825 20.582 7.95894C20.6282 7.36735 20.4772 6.77714 20.1531 6.28173C19.9331 5.94713 19.6086 5.69612 19.231 5.56848C18.8027 5.41515 18.333 5.42903 17.9143 5.60738C17.701 5.70151 17.5161 5.8506 17.3782 6.03966C17.3118 6.13865 17.2664 6.25046 17.245 6.36802C17.2236 6.48557 17.2266 6.60633 17.2538 6.72265C17.2866 6.83094 17.3602 6.92194 17.4589 6.9761C17.5575 7.03025 17.6733 7.04324 17.7814 7.01227C17.9035 6.98593 18.0171 6.92893 18.1115 6.84656C18.206 6.7642 18.2783 6.65913 18.3218 6.54109C18.3913 6.29031 18.3843 6.02424 18.3016 5.77752C18.219 5.53081 18.0646 5.31487 17.8586 5.15782C17.446 4.86977 16.9383 4.75504 16.4432 4.83794C15.5798 4.9543 14.7705 5.32756 14.1186 5.90998C13.6826 6.31164 13.4041 6.85772 13.3338 7.44887C13.332 7.67296 13.3464 7.89688 13.3767 8.11888Z" fill="#455A64"/>
<path d="M11.3091 16.4746C11.219 16.3452 11.1576 16.1978 11.129 16.0424C10.9943 15.514 11.0137 14.9577 11.1849 14.4401C11.3561 13.9226 11.6717 13.4658 12.094 13.1245C12.4145 12.8721 12.7837 12.6898 13.1781 12.5893C13.5724 12.4889 13.9832 12.4724 14.3843 12.541L14.2556 12.6706C14.2084 12.3554 14.2084 12.0349 14.2556 11.7196C14.3217 11.2597 14.4802 10.8182 14.7214 10.422C14.9625 10.0259 15.2812 9.68345 15.6581 9.41563C16.1825 9.06863 16.7949 8.88088 17.4222 8.87475C18.0495 8.86862 18.6654 9.04437 19.1964 9.38105C19.3098 9.45631 19.4173 9.54012 19.5181 9.63176C19.5824 9.6966 19.6167 9.7312 19.6125 9.73552C19.4546 9.65177 19.3014 9.55941 19.1535 9.45886C18.7302 9.22602 18.2621 9.08745 17.7811 9.05252C17.0721 8.99261 16.3643 9.18201 15.7782 9.58853C15.4317 9.84432 15.1395 10.1673 14.9185 10.5384C14.6976 10.9096 14.5524 11.3214 14.4915 11.7499C14.4465 12.0435 14.4465 12.3424 14.4915 12.6361L14.5129 12.7917L14.3628 12.7614C13.9889 12.6951 13.6054 12.7074 13.2364 12.7974C12.8674 12.8874 12.5208 13.0532 12.2184 13.2845C11.7286 13.6588 11.3842 14.194 11.2448 14.7974C11.1481 15.1998 11.1379 15.6184 11.2148 16.0251C11.2662 16.3147 11.3091 16.466 11.3091 16.4746Z" fill="#455A64"/>
<path d="M26.1874 4.62608C26.1874 4.66066 25.8872 4.56988 25.4154 4.54827C24.8001 4.50965 24.1855 4.63515 23.6336 4.91214C23.0816 5.18914 22.6119 5.60784 22.2717 6.12606C22.0057 6.51943 21.9028 6.80904 21.8685 6.79608C21.8945 6.52513 21.9874 6.26506 22.1387 6.0396C22.4635 5.46728 22.9494 5.0049 23.5349 4.71097C24.1205 4.41703 24.7794 4.30474 25.4283 4.38832C25.6974 4.40022 25.959 4.48213 26.1874 4.62608Z" fill="#455A64"/>
<path d="M32.4021 16.0598C32.4021 16.0598 32.4836 15.8998 32.5994 15.6275C32.7538 15.214 32.8139 14.7708 32.7753 14.3307C32.7317 13.6843 32.4539 13.0766 31.9947 12.6232C31.708 12.3576 31.3685 12.1566 30.9987 12.0336C30.629 11.9107 30.2374 11.8685 29.8502 11.91C29.4865 11.9504 29.1348 12.0652 28.8166 12.2472L28.5893 12.3855L28.6579 12.1261C28.7324 11.8129 28.7323 11.4863 28.6578 11.173C28.5833 10.8598 28.4363 10.5687 28.229 10.3235C28.0601 10.1278 27.8538 9.96841 27.6224 9.85478C27.391 9.74115 27.1393 9.67565 26.8823 9.66217C26.535 9.64146 26.1879 9.7052 25.8701 9.84804C25.7587 9.91014 25.6442 9.96642 25.527 10.0166C25.6108 9.9138 25.7163 9.83111 25.8358 9.77456C26.1573 9.59674 26.52 9.50869 26.8866 9.51952C27.1669 9.5215 27.4437 9.5825 27.6993 9.69863C27.9548 9.81476 28.1835 9.98345 28.3706 10.1939C28.6059 10.4607 28.7739 10.7806 28.8605 11.1268C28.9471 11.4729 28.9497 11.835 28.8681 12.1823L28.7051 12.057C29.0497 11.8551 29.4325 11.7285 29.8288 11.6852C30.2469 11.6407 30.6697 11.6879 31.068 11.8237C31.4663 11.9595 31.8308 12.1807 32.1362 12.4719C32.535 12.8849 32.8002 13.4101 32.8966 13.9781C32.9931 14.5461 32.9164 15.1303 32.6766 15.6534C32.625 15.7651 32.5618 15.8709 32.4879 15.969C32.4364 16.0295 32.4107 16.0641 32.4021 16.0598Z" fill="#455A64"/>
<path d="M9.41793 56.1357C9.41793 56.1357 4.12112 57.212 3.32768 56.6414C2.53423 56.0708 -0.403672 54.1342 0.0466635 51.5103C0.496999 48.8865 5.93104 30.195 7.05903 28.8247C8.18701 27.4544 9.32357 26.0884 11.5838 26.2051C13.8441 26.3219 28.6623 29.5077 28.6623 29.5077C28.6623 29.5077 34.7697 29.1662 36.0135 30.0783C37.2572 30.9904 40.0879 32.7022 40.0879 35.8924C40.0879 39.0825 39.4617 60.9641 39.4617 60.9641L41.1087 69.0001H8.51296L9.42222 56.1357" fill="#FFC727"/>
<path d="M9.41785 56.1356C9.35351 56.1356 8.96322 51.8129 8.56007 46.4311C8.15691 41.0493 7.8524 36.7093 7.91244 36.705C7.97249 36.7006 8.36707 41.0277 8.77022 46.4138C9.17338 51.7999 9.47789 56.1313 9.41785 56.1356Z" fill="#263238"/>
<path d="M40.0449 35.3391C39.9307 35.3372 39.8171 35.3227 39.7061 35.2958L38.7368 35.1229L35.1813 34.4788C32.179 33.9428 28.0231 33.2469 23.4125 32.5941C18.8019 31.9414 14.6159 31.4702 11.5794 31.1547L7.98529 30.7916L7.00742 30.6921C6.8931 30.6857 6.77965 30.6683 6.66859 30.6403C6.78276 30.6308 6.89753 30.6308 7.0117 30.6403L7.99387 30.7008C8.85165 30.757 10.074 30.8564 11.5965 30.9947C14.6374 31.2671 18.8319 31.7209 23.4425 32.3694C28.0531 33.0178 32.2133 33.7397 35.2113 34.3189C36.7081 34.6085 37.9219 34.8549 38.7539 35.0365L39.7146 35.2483C39.8264 35.2717 39.9367 35.302 40.0449 35.3391Z" fill="#FAFAFA"/>
<path d="M39.4614 43.3058C39.3545 43.318 39.2466 43.318 39.1397 43.3058L38.2262 43.2842C37.4284 43.2842 36.279 43.2107 34.8551 43.1415C32.0158 42.9946 28.0915 42.7352 23.7683 42.3375C19.445 41.9398 15.5378 41.473 12.7157 41.0969C11.3047 40.911 10.1638 40.7468 9.37897 40.6257L8.47401 40.4787C8.36777 40.4677 8.26289 40.4459 8.16092 40.4139C8.26859 40.4105 8.37633 40.4177 8.48259 40.4355L9.39184 40.5393L12.7372 40.9413C15.5593 41.2784 19.4665 41.715 23.7897 42.1127C28.1129 42.5104 32.0287 42.7957 34.8679 42.9773L38.2262 43.1934L39.144 43.2583C39.2506 43.2679 39.3566 43.2838 39.4614 43.3058Z" fill="#FAFAFA"/>
<path d="M39.959 50.7409C39.8601 50.7726 39.758 50.7929 39.6545 50.8014L38.771 50.9354C38.0076 51.0478 36.8968 51.1818 35.52 51.3244C32.7708 51.6054 28.9494 51.8648 24.7291 51.8648C20.5088 51.8648 16.6874 51.6097 13.9339 51.3288C12.5572 51.1904 11.4464 51.0564 10.683 50.944L9.79944 50.8144C9.69692 50.7998 9.59526 50.7796 9.49493 50.7538C9.59899 50.7424 9.70396 50.7424 9.80802 50.7538L10.6915 50.8446C11.4592 50.9267 12.5744 51.0391 13.9511 51.1602C16.7003 51.3979 20.5131 51.627 24.7291 51.627C28.9451 51.627 32.7537 51.3936 35.5072 51.1515C36.8796 51.0305 37.9947 50.9181 38.7624 50.8316L39.646 50.7452C39.75 50.7341 39.8548 50.7327 39.959 50.7409Z" fill="#FAFAFA"/>
<path d="M39.38 61.7379C39.2787 61.7611 39.1749 61.7713 39.0712 61.7681L38.1876 61.8157L34.9366 61.9237C32.1875 62.0015 28.3918 62.075 24.2144 62.101C20.037 62.1269 16.2199 62.101 13.4921 61.9886C12.1197 61.941 11.0045 61.8978 10.2411 61.8416L9.3576 61.7768C9.2536 61.7746 9.15011 61.7616 9.0488 61.7379C9.1516 61.7304 9.2548 61.7304 9.3576 61.7379H10.2454C11.0131 61.7681 12.1239 61.7897 13.4964 61.82C16.2413 61.8675 20.037 61.8848 24.2187 61.8589L34.9409 61.7508L38.1962 61.7119H39.0797C39.1803 61.7126 39.2807 61.7213 39.38 61.7379Z" fill="#FAFAFA"/>
<path d="M8.65451 46.617C7.49246 46.3824 6.34643 46.0735 5.22339 45.6919C4.0811 45.3837 2.95943 45.0025 1.86517 44.5507C3.02712 44.7857 4.17313 45.0947 5.2963 45.4758C6.43879 45.7833 7.56051 46.1645 8.65451 46.617Z" fill="#FAFAFA"/>
</svg>
