<svg width="3" height="7" viewBox="0 0 3 7" fill="none" xmlns="http://www.w3.org/2000/svg">
<path d="M2.99487 6.25361C2.96259 6.22311 2.86574 6.34 2.64899 6.4264C2.34907 6.5473 2.01818 6.53454 1.72666 6.39083C0.998013 6.03508 0.439995 4.68833 0.4815 3.28567C0.504933 2.61733 0.662429 1.963 0.942667 1.36973C1.02305 1.13143 1.15426 0.917933 1.32521 0.747229C1.49617 0.576525 1.70186 0.453623 1.92496 0.388887C2.06876 0.357197 2.2181 0.382042 2.347 0.459105C2.47591 0.536168 2.57624 0.660569 2.63054 0.810693C2.71355 1.0343 2.65821 1.18677 2.6951 1.20202C2.732 1.21726 2.85652 1.08005 2.81501 0.754797C2.78847 0.55852 2.70035 0.378698 2.56598 0.246589C2.38114 0.07099 2.14069 -0.0167329 1.89729 0.00264362C1.60394 0.0456107 1.32556 0.171033 1.08892 0.36684C0.85228 0.562648 0.665334 0.822252 0.546063 1.1207C0.209036 1.77614 0.0222435 2.51232 0.00188937 3.26534C-0.0396157 4.8357 0.606021 6.35017 1.61137 6.74149C1.79714 6.81593 1.99587 6.84272 2.19245 6.81982C2.38903 6.79692 2.57828 6.72494 2.74583 6.60935C2.9718 6.43656 3.01793 6.26885 2.99487 6.25361Z" fill="#EB996E"/>
</svg>
