<svg width="15" height="5" viewBox="0 0 15 5" fill="none" xmlns="http://www.w3.org/2000/svg">
<path d="M14.9601 1.48766L11.1101 1.70595C10.9824 1.19622 10.6952 0.748939 10.2966 0.438985C9.89792 0.129031 9.41203 -0.0247937 8.92022 0.00325649H8.5892C8.1643 0.0277385 7.75581 0.187159 7.41573 0.461219C7.07565 0.735279 6.81935 1.11158 6.67947 1.54223C6.33231 1.19882 5.8735 1.01468 5.40123 1.02924C4.9913 1.02248 4.59497 1.18688 4.29613 1.48766C4.09506 1.13722 3.80988 0.851061 3.47037 0.659066C3.13085 0.467072 2.74946 0.376285 2.36602 0.396187H2.03501C1.75312 0.412312 1.47695 0.487778 1.22228 0.618275C0.96761 0.748773 0.739421 0.931747 0.550736 1.15675C0.362052 1.38175 0.216573 1.64438 0.122601 1.92963C0.0286293 2.21488 -0.0119911 2.51718 0.0030563 2.81926C0.0181037 3.12133 0.0885257 3.41727 0.210301 3.69018C0.332077 3.9631 0.502822 4.20763 0.712787 4.40983C0.922752 4.61203 1.16781 4.76793 1.434 4.86863C1.70019 4.96934 1.98229 5.01287 2.26418 4.99674H2.5952C2.87709 4.98137 3.1534 4.90663 3.40834 4.77681C3.66328 4.64698 3.89187 4.46462 4.08104 4.24011C4.2702 4.01561 4.41624 3.75337 4.51082 3.46838C4.6054 3.18338 4.64666 2.88121 4.63224 2.57913C4.61415 2.33003 4.56092 2.0853 4.47437 1.8533C4.59168 1.72084 4.73435 1.61714 4.89258 1.54931C5.05081 1.48149 5.22084 1.45115 5.39104 1.46037C5.61089 1.44793 5.83042 1.49081 6.03205 1.58557C6.23367 1.68033 6.41178 1.82435 6.55215 2.00611C6.5368 2.16212 6.5368 2.31943 6.55215 2.47544C6.5665 2.77753 6.63625 3.07363 6.7574 3.34683C6.87854 3.62003 7.04872 3.86498 7.25822 4.0677C7.46772 4.27041 7.71243 4.42691 7.97838 4.52826C8.24432 4.62961 8.52628 4.67383 8.80818 4.65838H9.13921C9.42179 4.64373 9.69885 4.5693 9.95445 4.43937C10.2101 4.30944 10.4391 4.12659 10.6285 3.90135C10.8179 3.67611 10.9637 3.41294 11.0578 3.127C11.1518 2.84106 11.192 2.53801 11.1763 2.23532C11.1763 2.23532 11.1763 2.18074 11.1763 2.15346L14.6189 1.95699C14.7094 1.78265 14.8245 1.62434 14.9601 1.48766ZM2.5901 4.58198H2.25908C2.0176 4.60972 1.77339 4.58444 1.54133 4.50768C1.30927 4.43092 1.09424 4.30429 0.909371 4.13551C0.724498 3.96674 0.573652 3.75937 0.466051 3.52605C0.35845 3.29273 0.296352 3.03836 0.283533 2.77847C0.270713 2.51858 0.30745 2.25861 0.391499 2.01444C0.475548 1.77026 0.605149 1.547 0.772388 1.35829C0.939628 1.16957 1.14099 1.01935 1.36421 0.916804C1.58742 0.814254 1.8278 0.761522 2.07066 0.761829H2.40167C2.63574 0.748571 2.86997 0.784848 3.09095 0.868589C3.31194 0.95233 3.51536 1.08189 3.68962 1.24989C3.86389 1.41788 4.00556 1.62101 4.10657 1.84768C4.20758 2.07434 4.26593 2.32011 4.2783 2.57094C4.29068 2.82178 4.25683 3.07277 4.17868 3.30959C4.10054 3.5464 3.97963 3.7644 3.82286 3.95114C3.6661 4.13789 3.47655 4.28971 3.26503 4.39795C3.05351 4.50619 2.82417 4.56872 2.5901 4.58198ZM9.13412 4.21634H8.798C8.34062 4.21576 7.90086 4.02732 7.5692 3.6898C7.23755 3.35228 7.03925 2.89137 7.0151 2.40191C6.99096 1.91246 7.14281 1.43171 7.43942 1.05861C7.73602 0.685504 8.1548 0.448432 8.60958 0.396187H8.94059C9.39841 0.395365 9.83907 0.582819 10.1717 0.919901C10.5044 1.25698 10.7036 1.718 10.7285 2.20788C10.7533 2.69777 10.6018 3.17919 10.3051 3.55288C10.0085 3.92657 9.58933 4.16405 9.13412 4.21634Z" fill="#263238"/>
</svg>
