<svg width="27" height="20" viewBox="0 0 27 20" fill="none" xmlns="http://www.w3.org/2000/svg">
<path opacity="0.4" d="M8.13876 5.18231C9.79528 5.82184 12.5263 4.29787 15.5771 3.04602C18.4488 1.86221 21.5124 -0.172057 23.7126 0.0116383C25.9127 0.195333 28.1897 2.25001 26.2709 6.23687C25.7081 7.39347 24.4481 9.50256 23.2393 10.3802C20.1757 12.605 17.1633 13.5506 15.1294 14.7276C12.4815 16.2584 11.2599 18.0206 8.73357 19.0751C5.44612 20.4358 3.07328 20.1024 2.25461 19.3064C1.43595 18.5104 -1.02005 10.8905 0.470172 10.6523C0.470172 10.6523 1.69817 12.9928 6.63574 9.0127C8.79113 7.271 8.36901 5.71979 8.13876 5.18231Z" fill="black"/>
</svg>
