<svg width="26" height="79" viewBox="0 0 26 79" fill="none" xmlns="http://www.w3.org/2000/svg">
<path d="M23.1998 1.29965C26.9853 10.1634 23.0628 41.3768 23.0628 41.3768C23.1744 42.8179 24.712 45.6456 25.2803 51.9753C25.9552 59.4578 24.2197 78.2348 24.2197 78.2348C23.4757 78.6974 22.6376 78.9585 21.7781 78.9955C20.9186 79.0325 20.0636 78.8441 19.2874 78.4469C19.2874 78.4469 14.6291 50.1699 13.7562 42.7254C12.99 36.238 11.5235 21.969 11.5235 21.969L9.16895 42.6928C9.77836 44.782 10.2198 46.9233 10.4883 49.0932C10.8841 53.4435 6.9362 73.8356 6.9362 73.8356C6.9362 73.8356 5.25148 74.499 2.04951 73.9933C2.04951 73.9933 0.654032 46.967 0.283598 41.6977C-0.335484 32.8502 0.0451087 5.26387 1.56237 0L23.1998 1.29965Z" fill="#455A64"/>
</svg>
