<svg width="18" height="17" viewBox="0 0 18 17" fill="none" xmlns="http://www.w3.org/2000/svg">
<mask id="mask0_277_352" style="mask-type:alpha" maskUnits="userSpaceOnUse" x="-2" y="-1" width="21" height="21">
<rect x="-1.70008" y="-0.849978" width="20.4" height="20.4" fill="#D9D9D9"/>
</mask>
<g mask="url(#mask0_277_352)">
<path d="M13.6 17H4.24999V5.94999L10.2 0L11.2625 1.0625C11.3617 1.16167 11.4431 1.29625 11.5069 1.46625C11.5706 1.63625 11.6025 1.79916 11.6025 1.955V2.2525L10.6675 5.94999H16.15C16.6033 5.94999 17 6.11999 17.34 6.45999C17.68 6.79999 17.85 7.19666 17.85 7.64999V9.34999C17.85 9.44915 17.8358 9.5554 17.8075 9.66874C17.7791 9.78207 17.7508 9.88832 17.7225 9.98749L15.1725 15.98C15.045 16.2633 14.8325 16.5041 14.535 16.7025C14.2375 16.9008 13.9258 17 13.6 17ZM5.94999 15.3H13.6L16.15 9.34999V7.64999H8.49999L9.64749 2.975L5.94999 6.67249V15.3ZM4.24999 5.94999V7.64999H1.7V15.3H4.24999V17H0V5.94999H4.24999Z" fill="#1C1B1F"/>
</g>
</svg>
