<svg width="17" height="16" viewBox="0 0 17 16" fill="none" xmlns="http://www.w3.org/2000/svg">
<path fill-rule="evenodd" clip-rule="evenodd" d="M6.66868 0C2.99357 0 0 2.99086 0 6.66264C0 10.3344 2.99357 13.3253 6.66868 13.3253C8.26683 13.3253 9.73453 12.7583 10.8848 11.8171L14.8665 15.7951C15.0337 15.9692 15.2821 16.0393 15.5158 15.9784C15.7495 15.9176 15.932 15.7352 15.9929 15.5017C16.0538 15.2683 15.9837 15.0201 15.8095 14.853L11.8278 10.8749C12.7698 9.72571 13.3374 8.25935 13.3374 6.66264C13.3374 2.99086 10.3438 0 6.66868 0ZM6.66868 1.33252C9.62299 1.33252 12.0036 3.711 12.0036 6.66263C12.0036 9.61426 9.62299 11.9927 6.66868 11.9927C3.71438 11.9927 1.33374 9.61426 1.33374 6.66263C1.33374 3.711 3.71438 1.33252 6.66868 1.33252Z" fill="#999999"/>
</svg>
