<svg width="50" height="50" viewBox="0 0 50 50" fill="none" xmlns="http://www.w3.org/2000/svg">
<g clip-path="url(#clip0_459_478)">
<path d="M26.7725 45.0195L24.5996 42.8466L19.4141 37.6611L13.1152 31.3622L7.7002 25.9472C6.82129 25.0683 5.95703 24.1796 5.06348 23.3105L5.02441 23.2714V26.7236L7.19727 24.5507L12.3828 19.3652L18.6816 13.0663L24.0967 7.65129C24.9756 6.77238 25.8643 5.90324 26.7334 5.01457L26.7725 4.97551C27.2168 4.53117 27.4854 3.87688 27.4854 3.24699C27.4854 2.64641 27.2217 1.93352 26.7725 1.51848C26.3086 1.09367 25.6982 0.776289 25.0439 0.805586C24.3945 0.834883 23.7842 1.05461 23.3154 1.51848L21.1426 3.69133L15.957 8.87688L9.6582 15.1757L4.24316 20.5907C3.36426 21.4696 2.47559 22.3388 1.60645 23.2275L1.56738 23.2665C0.634766 24.1991 0.634766 25.7861 1.56738 26.7187C2.29492 27.4511 3.02246 28.1737 3.74512 28.9013L8.93066 34.0868L15.2295 40.3857L20.6445 45.8007C21.5234 46.6796 22.3926 47.5683 23.2812 48.4374L23.3203 48.4765C23.7646 48.9208 24.4189 49.1894 25.0488 49.1894C25.6494 49.1894 26.3623 48.9257 26.7773 48.4765C27.2021 48.0126 27.5195 47.4023 27.4902 46.748C27.4561 46.0986 27.2412 45.4882 26.7725 45.0195Z" fill="white"/>
<path d="M3.28606 27.4414H44.9462C45.5077 27.4414 46.0741 27.4463 46.6357 27.4414H46.7089C47.3339 27.4414 47.9931 27.1679 48.4374 26.7285C48.8622 26.3037 49.1796 25.6103 49.1503 25C49.121 24.3701 48.9159 23.7158 48.4374 23.2715C47.9589 22.832 47.373 22.5586 46.7089 22.5586H5.04875C4.48723 22.5586 3.92082 22.5537 3.3593 22.5586H3.28606C2.66106 22.5586 2.00188 22.832 1.55754 23.2715C1.13273 23.6963 0.815352 24.3896 0.844649 25C0.873946 25.6299 1.07902 26.2842 1.55754 26.7285C2.04094 27.1631 2.62688 27.4414 3.28606 27.4414Z" fill="white"/>
</g>
<defs>
<clipPath id="clip0_459_478">
<rect width="50" height="50" fill="white"/>
</clipPath>
</defs>
</svg>
