<svg width="93" height="43" viewBox="0 0 93 43" fill="none" xmlns="http://www.w3.org/2000/svg">
<path d="M88.6006 0.137022L64.5865 12.0144C64.3915 12.1231 64.2293 12.2698 64.1132 12.4424C63.997 12.615 63.9302 12.8087 63.9181 13.0076V25.7274C63.9306 25.9249 63.9977 26.1169 64.1139 26.2878C64.2301 26.4587 64.3921 26.6035 64.5865 26.7103L66.9807 27.8595C67.1879 27.9491 67.4169 27.9958 67.6491 27.9958C67.8813 27.9958 68.1102 27.9491 68.3175 27.8595L92.3376 15.9822C92.5307 15.8733 92.6912 15.7273 92.8063 15.5556C92.9213 15.384 92.9877 15.1917 93 14.9941V2.26392C92.9885 2.0663 92.9218 1.87392 92.8055 1.70291C92.6892 1.5319 92.5267 1.38724 92.3316 1.28107L89.9375 0.131821C89.7293 0.0442268 89.5003 -0.000889001 89.2683 1.32714e-05C89.0364 0.000915544 88.8078 0.0478125 88.6006 0.137022Z" fill="#FA00FF"/>
<path d="M67.649 27.5213V14.8015C67.6625 14.6036 67.73 14.4111 67.846 14.2395C67.9621 14.0679 68.1236 13.922 68.3174 13.8135L92.3376 1.93611C92.7022 1.7541 92.9999 1.89971 92.9999 2.26372V14.9835C92.9876 15.1811 92.9213 15.3734 92.8062 15.545C92.6912 15.7167 92.5307 15.8628 92.3376 15.9716L68.3174 27.8489C67.9832 28.0361 67.649 27.8853 67.649 27.5213Z" fill="#FA00FF"/>
<path opacity="0.2" d="M68.3175 27.849C68.1094 27.9363 67.8808 27.9816 67.6491 27.9816C67.4174 27.9816 67.1887 27.9363 66.9807 27.849L64.5865 26.6998C64.3925 26.5927 64.2307 26.4478 64.1146 26.277C63.9984 26.1062 63.9311 25.9143 63.9181 25.7169V13.0127C63.9279 12.806 64.0012 12.605 64.1308 12.4303L67.8496 14.2452C67.7273 14.4145 67.6582 14.608 67.6491 14.8068V27.5214C67.6491 27.8542 67.9286 28.0467 68.3175 27.849Z" fill="black"/>
<path opacity="0.25" d="M92.9939 2.15975C92.9392 1.87373 92.6657 1.76973 92.3315 1.93614L68.3235 13.8135C68.1248 13.9178 67.9614 14.0648 67.8495 14.2399L64.1247 12.425C64.2379 12.2584 64.3963 12.1175 64.5865 12.0142L88.6006 0.136852C88.8083 0.0484518 89.0371 0.00244441 89.269 0.00244441C89.5009 0.00244441 89.7297 0.0484518 89.9374 0.136852L92.3315 1.28611C92.5079 1.38334 92.6581 1.51149 92.7722 1.66209C92.8864 1.81269 92.962 1.98232 92.9939 2.15975Z" fill="white"/>
<path d="M63.9181 16.6528L59.3182 21.021C59.2591 21.0755 59.2144 21.1402 59.187 21.2107C59.1596 21.2813 59.1501 21.356 59.1594 21.43C59.1686 21.5039 59.1962 21.5752 59.2404 21.6393C59.2846 21.7033 59.3443 21.7584 59.4155 21.801C59.5309 21.8634 63.1342 23.6315 63.1342 23.6315L67.6491 18.4937L63.9181 16.6528Z" fill="#FA00FF"/>
<path opacity="0.25" d="M63.9181 16.6528L59.3182 21.021C59.2591 21.0755 59.2144 21.1402 59.187 21.2107C59.1596 21.2813 59.1501 21.356 59.1594 21.43C59.1686 21.5039 59.1962 21.5752 59.2404 21.6393C59.2846 21.7033 59.3443 21.7584 59.4155 21.801C59.5309 21.8634 63.1342 23.6315 63.1342 23.6315L67.6491 18.4937L63.9181 16.6528Z" fill="white"/>
<path d="M67.649 18.4675L63.0491 22.8357C62.9728 22.9137 62.9249 23.0092 62.9113 23.1103C62.8978 23.2114 62.9192 23.3136 62.9728 23.4044C63.0265 23.4952 63.1101 23.5705 63.2134 23.621C63.3166 23.6715 63.4348 23.695 63.5535 23.6886L67.649 23.3973C68.1716 23.4129 68.1716 18.4675 67.649 18.4675Z" fill="#FA00FF"/>
<path d="M73.5676 16.507C73.0053 16.818 72.5366 17.2381 72.1998 17.7333C71.863 18.2285 71.6675 18.7847 71.6293 19.3568C71.6293 20.3968 72.486 20.8337 73.5494 20.3084C74.1095 19.9963 74.5758 19.5757 74.9105 19.0806C75.2451 18.5855 75.4388 18.0298 75.4756 17.4587C75.4939 16.4082 74.631 15.9818 73.5676 16.507Z" fill="white"/>
<path d="M80.659 13.0126C80.1 13.3253 79.6349 13.7462 79.3013 14.2412C78.9677 14.7363 78.775 15.2917 78.7388 15.8623C78.7388 16.9024 79.6017 17.3392 80.659 16.814C81.2189 16.4981 81.6837 16.0734 82.0152 15.5745C82.3468 15.0757 82.5359 14.5168 82.567 13.9434C82.567 12.893 81.7223 12.4926 80.659 13.0126Z" fill="white"/>
<path d="M87.7561 9.48177C87.1951 9.79437 86.7283 10.2158 86.3936 10.7119C86.0589 11.208 85.8658 11.7647 85.8298 12.3367C85.8298 13.3768 86.6927 13.8084 87.7561 13.2832C88.3182 12.9684 88.7853 12.5442 89.1191 12.0453C89.4529 11.5464 89.6438 10.9869 89.6762 10.4126C89.6762 9.37257 88.8194 8.95655 87.7561 9.48177Z" fill="white"/>
<path d="M9.25453 42.0975L7.91163 39.9342L8.99324 37.2665V35.6336L5.68765 37.2665V38.8994L7.10955 41.0107C7.13265 41.0428 7.16653 41.0681 7.20676 41.0835L9.25453 42.0975Z" fill="#FA00FF"/>
<path opacity="0.2" d="M9.25453 42.0975L7.91163 39.9342L8.99324 37.2665V35.6336L5.68765 37.2665V38.8994L7.10955 41.0107C7.13265 41.0428 7.16653 41.0681 7.20676 41.0835L9.25453 42.0975Z" fill="black"/>
<path d="M17.1538 22.638C17.135 22.3442 17.0355 22.0582 16.8635 21.8034C16.6914 21.5486 16.4515 21.3322 16.1633 21.1715L15.3552 20.7711C15.0483 20.6378 14.7089 20.5682 14.3647 20.5682C14.0205 20.5682 13.6812 20.6378 13.3743 20.7711L0.990463 26.9022C0.702302 27.0628 0.46244 27.2793 0.29035 27.5341C0.11826 27.7889 0.0187858 28.0748 0 28.3687V40.0536C0.0178479 40.3484 0.116883 40.6354 0.289015 40.8911C0.461147 41.1469 0.7015 41.3642 0.990463 41.5253L1.79863 41.9257C2.10553 42.0591 2.44489 42.1286 2.78909 42.1286C3.1333 42.1286 3.47264 42.0591 3.77955 41.9257L7.76569 39.9548L9.18151 42.0349C9.2021 42.0646 9.23212 42.0886 9.26805 42.1042C9.30398 42.1198 9.34435 42.1264 9.38446 42.1231C9.42457 42.1198 9.46278 42.1069 9.49462 42.0857C9.52646 42.0646 9.55064 42.0362 9.56432 42.0037L11.0652 38.296L16.1633 35.7686C16.4515 35.608 16.6914 35.3915 16.8635 35.1368C17.0355 34.882 17.135 34.596 17.1538 34.3022V22.638Z" fill="#FA00FF"/>
<path opacity="0.2" d="M0 40.0541C0.0178479 40.3488 0.116883 40.6358 0.289015 40.8916C0.461147 41.1473 0.7015 41.3646 0.990463 41.5257L1.79863 41.9262C2.07938 42.0477 2.38721 42.1167 2.70157 42.1283C3.01592 42.14 3.32958 42.0941 3.62156 41.9938C3.15368 42.1446 2.80124 41.921 2.80124 41.4373V29.7472C2.81237 29.4529 2.9129 29.1661 3.09292 28.9151L0.297749 27.5319C0.12187 27.786 0.0236481 28.0739 0.0121555 28.3691L0 40.0541Z" fill="black"/>
<path opacity="0.3" d="M17.1236 22.3989C17.0082 22.04 16.6253 21.9204 16.1635 22.1493L3.77973 28.2803C3.48561 28.4355 3.24457 28.6543 3.08095 28.9148L0.291862 27.5367C0.457313 27.2774 0.69796 27.0589 0.99065 26.9023L13.3684 20.7712C13.6763 20.6378 14.0167 20.5682 14.3619 20.5682C14.707 20.5682 15.0474 20.6378 15.3554 20.7712L16.1635 21.1716C16.4127 21.3095 16.6263 21.4895 16.7914 21.7005C16.9565 21.9116 17.0695 22.1492 17.1236 22.3989Z" fill="white"/>
<path d="M5.79692 32.6435C5.80941 31.9275 5.987 31.2206 6.31949 30.5634C6.62661 29.8715 7.17095 29.2751 7.88113 28.8526C8.95059 28.3325 9.84383 29.409 9.98359 30.6986C10.1112 29.2738 10.9862 27.2873 12.0557 26.7517C12.2899 26.6009 12.5818 26.5311 12.8734 26.5562C13.165 26.5812 13.4349 26.6993 13.6295 26.8869C14.0186 27.3362 14.2101 27.8886 14.1703 28.4469C14.1703 30.631 12.6451 32.6071 11.3629 34.6872L9.9775 36.6945L8.64069 36.0549C7.35856 35.2541 5.80907 34.8224 5.79692 32.6435Z" fill="#FAFAFA"/>
</svg>
