<svg width="44" height="74" viewBox="0 0 44 74" fill="none" xmlns="http://www.w3.org/2000/svg">
<path d="M22.3444 0C20.479 1.45114 19.8299 4.15517 20.0015 6.60545C20.1731 9.05573 21.0237 11.3633 21.6206 13.7422C22.2175 16.1211 22.5234 18.7062 21.6206 20.982C20.1284 24.8676 15.8829 26.4535 12.667 28.9117C10.1841 30.8235 8.20214 33.378 6.90933 36.3327C5.61652 39.2874 5.05576 42.5443 5.28029 45.7941C5.42952 47.6972 5.83989 49.6797 5.18329 51.4559C4.43716 53.4859 2.48975 54.6992 1.3034 56.4754C-0.547016 59.2587 -0.270947 63.1602 1.15417 66.2131C2.57928 69.266 4.97438 71.6687 7.31724 74.0001C18.2931 63.8662 30.5241 55.3791 43.6689 48.7757" fill="#263238"/>
</svg>
