<svg width="30" height="38" viewBox="0 0 30 38" fill="none" xmlns="http://www.w3.org/2000/svg">
<path d="M22.9514 0C25.1946 0.148181 27.5146 1.45437 27.868 4.34115C28.2213 7.22794 30.403 22.4522 29.5478 24.1425C27.5658 28.0995 14.5063 35.6238 13.2054 36.2659C11.3381 37.3029 9.28352 37.8945 7.18269 38.0002C5.13414 38.0002 2.43518 37.9508 1.06265 35.9805C-0.15112 34.2298 -0.837388 30.9973 1.90767 31.5516C3.99012 31.8879 6.09991 31.9872 8.20186 31.8479L7.88433 30.4375C8.59682 30.4338 9.30484 30.5581 9.97898 30.8052C11.3515 31.2442 12.596 29.9819 15.0184 28.3794C18.1373 26.3104 22.8849 21.9418 22.8849 21.9418L20.949 9.25308C20.949 9.25308 20.8875 3.75392 22.9514 0Z" fill="#FFA8A7"/>
</svg>
