<svg width="10" height="12" viewBox="0 0 10 12" fill="none" xmlns="http://www.w3.org/2000/svg">
<path d="M10 6.91902C9.76658 7.17652 9.50552 7.40401 9.2222 7.59685C8.69328 8.01017 7.91547 8.58056 6.9432 9.25014C5.80459 10.0609 4.62579 10.8059 3.41189 11.4821C3.05186 11.7086 2.65681 11.8654 2.24517 11.945C1.7815 12.0117 1.31181 11.881 0.938438 11.5813C0.576961 11.2596 0.303807 10.8403 0.147754 10.3675C-0.00829841 9.89466 -0.0414717 9.38586 0.0517256 8.89469C0.261842 7.9568 0.71131 7.09869 1.35068 6.41476C1.90583 5.77816 2.49537 5.17646 3.11632 4.61268C4.16767 3.67586 5.27445 2.81162 6.42983 2.02528C7.40988 1.34743 8.21882 0.834916 8.76329 0.495992C9.04617 0.296265 9.34872 0.129946 9.66556 0C9.42568 0.237673 9.16526 0.450791 8.88774 0.63652L6.60095 2.28981C5.48052 3.10853 4.40293 3.99158 3.373 4.93505C2.77201 5.49328 2.20073 6.08664 1.6618 6.71236C1.07688 7.34141 0.662986 8.12691 0.463968 8.98563C0.387044 9.40067 0.414098 9.82989 0.54242 10.2303C0.670741 10.6307 0.895815 10.9883 1.19511 11.2672C1.48701 11.4995 1.85203 11.6031 2.21406 11.5565C2.58203 11.4864 2.93509 11.3464 3.25633 11.1432C4.63307 10.4157 5.80758 9.65521 6.80318 9.01043L9.13664 7.45634C9.40875 7.25017 9.6977 7.07035 10 6.91902Z" fill="#EB996E"/>
</svg>
