<svg width="18" height="18" viewBox="0 0 18 18" fill="none" xmlns="http://www.w3.org/2000/svg">
<path fill-rule="evenodd" clip-rule="evenodd" d="M9.56488 18.0001H8.43519C7.52151 18.0001 6.77813 17.2568 6.77813 16.3431V15.9609C6.38969 15.8368 6.01228 15.6801 5.64971 15.4925L5.37887 15.7633C4.72288 16.4201 3.67209 16.4009 3.03516 15.7631L2.23672 14.9647C1.59867 14.3273 1.58032 13.2769 2.23694 12.621L2.50757 12.3504C2.31994 11.9878 2.16332 11.6105 2.03918 11.2219H1.65703C0.743383 11.2219 0 10.4786 0 9.56491V8.43519C0 7.52151 0.743383 6.77816 1.65706 6.77816H2.03922C2.16335 6.38968 2.31997 6.01232 2.5076 5.64975L2.23676 5.37894C1.58053 4.72341 1.59863 3.67286 2.23697 3.03523L3.03548 2.23676C3.67389 1.59747 4.72443 1.58151 5.37915 2.23697L5.64975 2.50757C6.01232 2.31997 6.38972 2.16332 6.77817 2.03918V1.65703C6.77817 0.743348 7.52151 0 8.43523 0H9.56491C10.4786 0 11.2219 0.743348 11.2219 1.65703V2.03921C11.6104 2.16332 11.9878 2.31997 12.3504 2.5076L12.6212 2.23676C13.2772 1.57997 14.328 1.59923 14.9649 2.237L15.7633 3.03541C16.4014 3.67276 16.4198 4.7232 15.7631 5.37911L15.4925 5.64975C15.6801 6.01232 15.8368 6.38965 15.9609 6.77816H16.343C17.2567 6.77816 18.0001 7.52151 18.0001 8.43519V9.56491C18.0001 10.4786 17.2567 11.2219 16.343 11.2219H15.9609C15.8368 11.6104 15.6801 11.9878 15.4925 12.3504L15.7633 12.6212C16.4196 13.2767 16.4015 14.3273 15.7631 14.9649L14.9646 15.7634C14.3262 16.4027 13.2757 16.4186 12.621 15.7632L12.3504 15.4926C11.9878 15.6802 11.6104 15.8368 11.2219 15.961V16.3431C11.2219 17.2568 10.4786 18.0001 9.56488 18.0001ZM5.82604 14.3849C6.32973 14.6828 6.87184 14.9079 7.4373 15.0538C7.67017 15.1139 7.83288 15.3239 7.83288 15.5644V16.343C7.83288 16.6752 8.10313 16.9454 8.43525 16.9454H9.56493C9.89705 16.9454 10.1673 16.6752 10.1673 16.343V15.5644C10.1673 15.3239 10.33 15.1139 10.5629 15.0538C11.1283 14.9079 11.6705 14.6828 12.1741 14.3849C12.3814 14.2624 12.6452 14.2957 12.8155 14.466L13.367 15.0175C13.6048 15.2556 13.9867 15.2501 14.2187 15.0178L15.0177 14.2188C15.2491 13.9877 15.2568 13.6058 15.0179 13.3672L14.4661 12.8154C14.2959 12.6451 14.2625 12.3813 14.3851 12.174C14.6829 11.6704 14.9079 11.1283 15.0539 10.5628C15.114 10.3299 15.324 10.1672 15.5645 10.1672H16.3431C16.6752 10.1672 16.9455 9.89704 16.9455 9.56491V8.4352C16.9455 8.10307 16.6752 7.83286 16.3431 7.83286H15.5645C15.324 7.83286 15.114 7.67016 15.0539 7.43731C14.9079 6.87182 14.6829 6.32971 14.3851 5.82606C14.2625 5.61885 14.2959 5.35496 14.4661 5.18473L15.0177 4.63317C15.2561 4.39502 15.2499 4.01322 15.0179 3.7815L14.2189 2.98257C13.9874 2.75068 13.6054 2.74389 13.3673 2.98236L12.8155 3.53414C12.6453 3.7044 12.3813 3.73773 12.1742 3.61518C11.6705 3.3173 11.1284 3.09226 10.5629 2.94632C10.33 2.88624 10.1673 2.67622 10.1673 2.43571V1.657C10.1673 1.32487 9.89709 1.05466 9.56497 1.05466H8.43528C8.10316 1.05466 7.83291 1.32487 7.83291 1.657V2.43564C7.83291 2.67615 7.67021 2.88617 7.43733 2.94625C6.87188 3.09219 6.32976 3.31723 5.82608 3.61511C5.61879 3.73763 5.35494 3.7043 5.18472 3.53407L4.63318 2.9825C4.39538 2.74442 4.01348 2.74994 3.78155 2.98225L2.98255 3.78122C2.75115 4.01234 2.74342 4.39424 2.98234 4.63288L3.53412 5.18467C3.70435 5.35489 3.73768 5.61878 3.61516 5.82599C3.31728 6.32964 3.09227 6.87175 2.94634 7.43724C2.88622 7.67012 2.6762 7.83279 2.43573 7.83279H1.65708C1.32496 7.83283 1.05471 8.10304 1.05471 8.43516V9.56488C1.05471 9.897 1.32496 10.1672 1.65708 10.1672H2.43569C2.6762 10.1672 2.88619 10.3299 2.9463 10.5628C3.09224 11.1283 3.31728 11.6704 3.61512 12.174C3.73764 12.3812 3.70431 12.6451 3.53409 12.8153L2.98252 13.3669C2.74408 13.6051 2.75031 13.9869 2.9823 14.2186L3.78124 15.0175C4.01281 15.2494 4.39475 15.2562 4.6329 15.0177L5.18465 14.4659C5.31008 14.3405 5.57105 14.2341 5.82604 14.3849H5.82604Z" fill="black"/>
<path fill-rule="evenodd" clip-rule="evenodd" d="M8.99996 12.9164C6.8404 12.9164 5.08353 11.1595 5.08353 8.99995C5.08353 6.84044 6.8404 5.08353 8.99996 5.08353C11.1595 5.08353 12.9164 6.84044 12.9164 8.99995C12.9164 11.1595 11.1595 12.9164 8.99996 12.9164ZM8.99997 6.13819C7.42198 6.13819 6.13824 7.42196 6.13824 8.99992C6.13824 10.5779 7.42201 11.8617 8.99997 11.8617C10.5779 11.8617 11.8617 10.5779 11.8617 8.99992C11.8617 7.42196 10.578 6.13819 8.99997 6.13819V6.13819Z" fill="black"/>
</svg>
