<svg width="6" height="7" viewBox="0 0 6 7" fill="none" xmlns="http://www.w3.org/2000/svg">
<path d="M5.30586 6.17314C5.03058 5.43958 4.71076 4.7258 4.34842 4.03629C3.40458 2.39571 1.9512 1.15701 0.239365 0.534218L0.510639 0.288329C0.510639 0.4664 0.574473 0.652929 0.614367 0.847959C1.10595 2.8305 2.25676 4.55663 3.85373 5.70677C4.54074 6.1531 5.25817 6.54426 6.00002 6.87696C5.77718 6.87699 5.55596 6.83683 5.34576 6.75824C4.76548 6.57232 4.21032 6.30725 3.69416 5.96964C1.95276 4.84502 0.690997 3.04492 0.175533 0.949736C0.175533 0.746226 0.103725 0.551193 0.0638314 0.364642L0 0L0.335106 0.118727C2.13613 0.771244 3.64378 2.11354 4.56384 3.88367C4.84026 4.39962 5.04961 4.953 5.18618 5.52871C5.2673 5.73251 5.30804 5.95187 5.30586 6.17314Z" fill="#FAFAFA"/>
</svg>
