<svg width="200" height="200" viewBox="0 0 200 200" fill="none" xmlns="http://www.w3.org/2000/svg">
<path d="M200 45.3285H170.467V76.3552H200V45.3285Z" fill="#E0E0E0"/>
<path d="M197.998 45.3285H168.466V76.3552H197.998V45.3285Z" fill="#FAFAFA"/>
<path d="M198.007 76.3638H168.458V45.3198H198.007V76.3638ZM168.475 76.3638H197.99V45.3371H168.475V76.3638Z" fill="#E0E0E0"/>
<path d="M194.03 49.5011H172.439V72.1869H194.03V49.5011Z" fill="white"/>
<path d="M172.439 72.3337C172.286 72.5634 172.106 72.7737 171.903 72.9601C171.56 73.3272 171.076 73.824 170.532 74.3596C169.988 74.8952 169.49 75.379 169.122 75.7202C168.934 75.9198 168.724 76.0966 168.496 76.2472C168.648 76.0189 168.826 75.81 169.028 75.6252C169.37 75.258 169.859 74.7613 170.403 74.217C170.948 73.6728 171.449 73.1976 171.817 72.8564C172.003 72.6576 172.212 72.4821 172.439 72.3337Z" fill="#E0E0E0"/>
<path d="M194.03 72.282C194.255 72.4385 194.462 72.6196 194.647 72.8219C195.012 73.1675 195.505 73.6556 196.04 74.2041C196.576 74.7527 197.052 75.2538 197.39 75.6253C197.59 75.8119 197.764 76.0239 197.909 76.2559C197.685 76.1057 197.479 75.9319 197.292 75.7376C196.927 75.3877 196.435 74.8996 195.899 74.351C195.363 73.8024 194.883 73.2971 194.545 72.9256C194.346 72.7341 194.174 72.5178 194.03 72.282Z" fill="#E0E0E0"/>
<path d="M193.97 49.5616C194.125 49.34 194.305 49.1371 194.506 48.9569C194.853 48.5898 195.337 48.093 195.877 47.5531C196.417 47.0132 196.923 46.5337 197.292 46.1925C197.478 45.9941 197.686 45.8187 197.913 45.6698C197.761 45.8965 197.584 46.1052 197.386 46.2918C197.039 46.659 196.554 47.1557 196.01 47.6956C195.466 48.2356 194.964 48.7193 194.596 49.0606C194.406 49.2505 194.197 49.4185 193.97 49.5616Z" fill="#E0E0E0"/>
<path d="M172.379 49.6134C172.15 49.4617 171.942 49.2817 171.758 49.0778C171.393 48.7322 170.9 48.2441 170.369 47.6955C169.838 47.147 169.353 46.6459 169.019 46.2744C168.822 46.0843 168.647 45.8728 168.496 45.6438C168.723 45.7964 168.93 45.9763 169.113 46.1794C169.478 46.525 169.97 47.0174 170.506 47.566C171.042 48.1145 171.522 48.6199 171.86 48.9871C172.056 49.1755 172.23 49.3856 172.379 49.6134Z" fill="#E0E0E0"/>
<path d="M193.97 72.1826C193.965 72.1468 193.965 72.1105 193.97 72.0746C193.97 71.9969 193.97 71.8932 193.97 71.755C193.97 71.4742 193.97 71.0639 193.97 70.5326C193.97 69.457 193.97 67.8934 193.949 65.9108C193.949 61.9368 193.949 56.274 193.906 49.4968L193.991 49.5789H172.46L172.554 49.4838C172.554 57.8074 172.554 65.5954 172.554 72.1653L172.473 72.0833L188.06 72.1265H192.44H193.601H192.457L188.099 72.1481L172.456 72.1869H172.37V72.1049C172.37 65.535 172.37 57.747 172.37 49.4234V49.3888H172.469H194H194.081V49.4752C194.081 56.274 194.051 61.9498 194.039 65.9367C194.039 67.915 194.039 69.47 194.039 70.5412C194.039 71.0639 194.039 71.4699 194.039 71.7507C194.039 71.8803 194.039 71.9839 194.039 72.0574C194.02 72.1013 193.997 72.1433 193.97 72.1826Z" fill="#E0E0E0"/>
<path d="M183.187 62.3472L180.187 62.3861L179.63 63.7424L178.092 63.764L180.903 57.4274H182.386L185.386 63.6863L183.809 63.7079L183.187 62.3472ZM182.699 61.2458L181.649 58.8485L180.65 61.276L182.699 61.2458Z" fill="#E0E0E0"/>
<path d="M188.87 61.4834L188.9 63.7036H188.249V63.2155C188.103 63.4022 187.913 63.5497 187.697 63.6447C187.481 63.7396 187.245 63.7792 187.01 63.7597C186.153 63.7597 185.604 63.3278 185.596 62.6971C185.587 62.0665 185.977 61.6173 187.104 61.6H188.193V61.4834C188.193 60.9218 187.846 60.6195 187.164 60.6195C186.732 60.6187 186.311 60.7631 185.969 61.0298L185.677 60.5331C186.13 60.2023 186.678 60.0294 187.237 60.0407C188.266 60.0104 188.857 60.4899 188.87 61.4834ZM188.197 62.5891V62.0881H187.134C186.457 62.0881 186.277 62.3559 186.277 62.6669C186.277 62.9779 186.599 63.2587 187.134 63.2543C187.356 63.2657 187.576 63.2095 187.766 63.0932C187.955 62.9769 188.105 62.8058 188.197 62.6021V62.5891Z" fill="#E0E0E0"/>
<path d="M195.86 82.8906H171.616V108.363H195.86V82.8906Z" fill="#E0E0E0"/>
<path d="M194.219 82.8906H169.975V108.363H194.219V82.8906Z" fill="#FAFAFA"/>
<path d="M194.227 108.371H169.966V82.8862H194.227V108.371ZM169.983 108.371H194.21V82.8949H169.983V108.371Z" fill="#E0E0E0"/>
<path d="M190.961 86.3115H173.236V104.937H190.961V86.3115Z" fill="white"/>
<path d="M173.236 105.062C173.113 105.248 172.969 105.419 172.807 105.572C172.52 105.874 172.126 106.28 171.68 106.725C171.234 107.17 170.823 107.563 170.519 107.844C170.366 108.008 170.195 108.152 170.009 108.276C170.131 108.09 170.275 107.919 170.437 107.766C170.72 107.464 171.123 107.058 171.569 106.613C172.014 106.168 172.426 105.775 172.73 105.494C172.879 105.328 173.049 105.183 173.236 105.062Z" fill="#E0E0E0"/>
<path d="M190.961 105.015C191.146 105.139 191.316 105.284 191.467 105.447C191.767 105.732 192.17 106.134 192.611 106.583C193.053 107.032 193.443 107.447 193.721 107.749C193.884 107.904 194.028 108.078 194.15 108.267C193.967 108.141 193.798 107.996 193.644 107.836C193.344 107.55 192.941 107.149 192.5 106.699C192.059 106.25 191.669 105.836 191.39 105.529C191.226 105.376 191.082 105.204 190.961 105.015Z" fill="#E0E0E0"/>
<path d="M190.91 86.3635C191.033 86.1764 191.177 86.004 191.339 85.8494C191.626 85.5514 192.02 85.1411 192.466 84.7005C192.912 84.2599 193.323 83.8625 193.627 83.5817C193.779 83.4167 193.95 83.2716 194.137 83.1498C194.015 83.3361 193.871 83.5071 193.709 83.6595C193.426 83.9575 193.027 84.3679 192.577 84.8128C192.127 85.2577 191.72 85.6508 191.416 85.9315C191.267 86.0974 191.097 86.2427 190.91 86.3635Z" fill="#E0E0E0"/>
<path d="M173.185 86.411C173 86.2877 172.83 86.1427 172.679 85.979C172.379 85.6939 171.976 85.2965 171.535 84.8473C171.093 84.3981 170.703 83.9834 170.425 83.6767C170.263 83.5227 170.119 83.3502 169.996 83.1627C170.181 83.2862 170.351 83.4311 170.502 83.5947C170.802 83.8798 171.205 84.2815 171.646 84.735C172.088 85.1885 172.478 85.5989 172.756 85.9056C172.92 86.0543 173.064 86.2242 173.185 86.411Z" fill="#E0E0E0"/>
<path d="M190.91 104.937V104.846C190.91 104.782 190.91 104.7 190.91 104.587C190.91 104.354 190.91 104.017 190.91 103.581C190.91 102.717 190.91 101.421 190.91 99.784C190.91 96.5228 190.889 91.8793 190.871 86.3116L190.94 86.3807H173.266L173.343 86.2986C173.343 93.1363 173.343 99.5291 173.343 104.924L173.279 104.855L186.076 104.89H189.671H190.623H189.684H186.101L173.244 104.924H173.176V104.855C173.176 99.46 173.176 93.0672 173.176 86.2295V86.1517H173.257H190.931H191V86.2208C191 91.8059 190.974 96.4666 190.966 99.7408C190.966 101.361 190.966 102.639 190.966 103.52C190.966 103.952 190.966 104.281 190.966 104.509C190.966 104.617 190.966 104.704 190.966 104.764C190.966 104.825 190.914 104.937 190.91 104.937Z" fill="#E0E0E0"/>
<path d="M183.431 96.5401C183.431 97.4342 182.72 97.9612 181.323 97.9828L178.567 98.0174L178.499 92.834L181.1 92.7994C182.433 92.7994 183.127 93.3135 183.136 94.1169C183.143 94.355 183.081 94.5901 182.958 94.7933C182.834 94.9966 182.655 95.1593 182.441 95.2615C182.726 95.3293 182.979 95.493 183.159 95.7254C183.339 95.9579 183.435 96.2453 183.431 96.5401ZM179.737 93.7324V94.9505H180.963C181.567 94.9505 181.889 94.7302 181.884 94.3242C181.88 93.9182 181.55 93.7238 180.95 93.7324H179.737ZM182.193 96.4321C182.193 96.0002 181.841 95.7928 181.203 95.8015L179.763 95.8231V97.1189L181.199 97.0973C181.859 97.0714 182.197 96.877 182.193 96.4321Z" fill="#E0E0E0"/>
<path d="M187.486 96.471C187.496 96.679 187.462 96.8867 187.388 97.0809C187.313 97.2751 187.199 97.4514 187.053 97.5986C186.907 97.7458 186.732 97.8607 186.54 97.9358C186.347 98.0109 186.141 98.0445 185.934 98.0347C185.722 98.0468 185.51 98.008 185.316 97.9217C185.122 97.8354 184.95 97.7039 184.816 97.5379V98.0131H184.276L184.22 93.793H184.782L184.803 95.456C184.934 95.2957 185.099 95.1676 185.286 95.0815C185.473 94.9954 185.677 94.9536 185.883 94.9592C186.089 94.9417 186.297 94.9679 186.492 95.0363C186.688 95.1046 186.867 95.2136 187.018 95.3561C187.169 95.4986 187.289 95.6714 187.369 95.8635C187.45 96.0556 187.49 96.2625 187.486 96.471ZM186.916 96.471C186.913 96.262 186.848 96.0586 186.73 95.8866C186.612 95.7146 186.446 95.5816 186.253 95.5046C186.06 95.4275 185.849 95.4098 185.646 95.4536C185.443 95.4975 185.258 95.6009 185.113 95.7508C184.968 95.9008 184.871 96.0906 184.834 96.2962C184.796 96.5018 184.819 96.7141 184.901 96.9062C184.983 97.0984 185.12 97.2617 185.294 97.3757C185.468 97.4896 185.671 97.5491 185.879 97.5466C186.019 97.5517 186.159 97.5272 186.289 97.4745C186.419 97.4219 186.537 97.3423 186.634 97.2409C186.732 97.1396 186.808 97.0187 186.856 96.8861C186.905 96.7535 186.925 96.6121 186.916 96.471Z" fill="#E0E0E0"/>
<path d="M161.964 35.2684H36.9468V125.26H161.964V35.2684Z" fill="#E0E0E0"/>
<path d="M158.099 38.8623H39.917V121.8H158.099V38.8623Z" fill="#F5F5F5"/>
<path d="M168.835 125.26H32.8755V128.841H168.835V125.26Z" fill="#EBEBEB"/>
<path d="M36.9897 35.3506C38.1726 36.4089 39.2997 37.5103 40.3754 38.6939L36.9897 35.3506Z" fill="#EBEBEB"/>
<path d="M40.3754 38.6938C39.7682 38.1889 39.1955 37.6435 38.6611 37.061C38.0713 36.5237 37.5186 35.9465 37.0068 35.3333C37.6709 35.7747 38.2796 36.2954 38.8197 36.8839C39.409 37.4216 39.9313 38.0293 40.3754 38.6938Z" fill="#EBEBEB"/>
<path d="M158.193 39.1258L161.973 35.4326L158.193 39.1258Z" fill="#EBEBEB"/>
<path d="M161.969 35.4326C161.422 36.1258 160.817 36.7704 160.16 37.3591C159.557 38.0043 158.899 38.5954 158.193 39.1258C158.742 38.4338 159.347 37.7894 160.002 37.1993C160.607 36.5556 161.265 35.9646 161.969 35.4326Z" fill="#EBEBEB"/>
<path d="M158.403 121.783C159.689 122.954 162.23 125.239 161.965 125.239L158.403 121.783Z" fill="#EBEBEB"/>
<path d="M161.965 125.26C161.398 124.662 160.802 124.094 160.178 123.558C159.538 123.018 158.944 122.424 158.403 121.783C159.096 122.255 159.74 122.795 160.328 123.394C160.838 123.865 161.283 124.31 161.588 124.647C161.711 124.783 161.825 124.928 161.93 125.079C161.96 125.123 161.983 125.171 161.999 125.221C162.012 125.269 161.956 125.273 161.965 125.26Z" fill="#EBEBEB"/>
<path d="M98.6391 123.908H85.6792V125.329H98.6391V123.908Z" fill="#FAFAFA"/>
<path d="M45.9424 108.794V125.316H74.1208L45.9424 108.794ZM50.2666 115.446L61.9794 122.435H50.2666V115.446Z" fill="#EBEBEB"/>
<path d="M48.6468 110.38C48.5516 110.749 48.384 111.096 48.154 111.399C47.9836 111.739 47.751 112.044 47.4683 112.297C47.5653 111.928 47.7343 111.581 47.9654 111.278C48.2911 110.751 48.5954 110.345 48.6468 110.38Z" fill="#E0E0E0"/>
<path d="M52.8297 112.803C52.7335 113.164 52.5659 113.502 52.3368 113.796C52.0154 114.31 51.7111 114.699 51.6597 114.66C51.7558 114.301 51.9219 113.965 52.1482 113.671C52.4739 113.161 52.7782 112.768 52.8297 112.803Z" fill="#E0E0E0"/>
<path d="M57.0081 115.226C56.8762 115.574 56.6766 115.891 56.4209 116.159C56.0438 116.639 55.701 116.993 55.6538 116.954C55.7873 116.606 55.9884 116.289 56.2452 116.021C56.6181 115.546 56.9609 115.187 57.0081 115.226Z" fill="#E0E0E0"/>
<path d="M61.114 117.744C61.1655 117.783 60.8998 118.202 60.5269 118.682C60.1541 119.161 59.8069 119.511 59.7598 119.472C59.8953 119.126 60.0961 118.809 60.3512 118.539C60.724 118.068 61.0669 117.71 61.114 117.744Z" fill="#E0E0E0"/>
<path d="M65.4082 120.228C65.2928 120.592 65.1079 120.929 64.8639 121.222C64.5168 121.74 64.1911 122.129 64.1396 122.086C64.2545 121.722 64.4378 121.385 64.6796 121.092C65.0311 120.578 65.3568 120.189 65.4082 120.228Z" fill="#E0E0E0"/>
<path d="M69.8653 122.82C69.7705 123.166 69.6056 123.488 69.381 123.766C69.0638 124.254 68.7638 124.63 68.7124 124.591C68.8057 124.245 68.9708 123.922 69.1967 123.645C69.5138 123.165 69.8138 122.82 69.8653 122.82Z" fill="#E0E0E0"/>
<path d="M49.9537 111.157C50.0051 111.192 49.9151 111.429 49.7523 111.693C49.5894 111.956 49.418 112.146 49.3623 112.125C49.3066 112.103 49.4008 111.853 49.5637 111.589C49.7266 111.326 49.898 111.11 49.9537 111.157Z" fill="#E0E0E0"/>
<path d="M51.3208 111.913C51.3766 111.948 51.2866 112.189 51.1237 112.453C50.9608 112.716 50.7851 112.885 50.7337 112.885C50.6823 112.885 50.7723 112.613 50.9351 112.349C51.098 112.086 51.2694 111.883 51.3208 111.913Z" fill="#E0E0E0"/>
<path d="M54.3637 113.719C54.4152 113.753 54.3252 113.995 54.1623 114.258C53.9995 114.522 53.828 114.69 53.7766 114.69C53.7252 114.69 53.8109 114.418 53.9737 114.155C54.1366 113.891 54.3166 113.688 54.3637 113.719Z" fill="#E0E0E0"/>
<path d="M55.7395 114.492C55.7952 114.522 55.7052 114.764 55.5423 115.027C55.3795 115.291 55.208 115.459 55.1523 115.459C55.0966 115.459 55.1909 115.187 55.3537 114.924C55.5166 114.66 55.688 114.457 55.7395 114.492Z" fill="#E0E0E0"/>
<path d="M58.4952 116.211C58.5466 116.245 58.4609 116.483 58.298 116.747C58.1352 117.01 57.9595 117.2 57.9081 117.178C57.8566 117.157 57.9466 116.906 58.1052 116.643C58.2638 116.379 58.4438 116.181 58.4952 116.211Z" fill="#E0E0E0"/>
<path d="M59.8023 116.984C59.8537 117.014 59.768 117.256 59.6051 117.52C59.4423 117.783 59.2666 117.952 59.2152 117.952C59.1637 117.952 59.2537 117.675 59.4166 117.412C59.5794 117.148 59.7509 116.95 59.8023 116.984Z" fill="#E0E0E0"/>
<path d="M62.6266 118.625C62.678 118.656 62.588 118.898 62.4251 119.161C62.2623 119.425 62.0908 119.593 62.0351 119.593C61.9794 119.593 62.0737 119.317 62.2366 119.053C62.3994 118.79 62.5708 118.591 62.6266 118.625Z" fill="#E0E0E0"/>
<path d="M64.1392 119.524C64.1907 119.559 64.105 119.796 63.9421 120.06C63.7792 120.323 63.6035 120.513 63.5521 120.492C63.5007 120.47 63.5907 120.219 63.7492 119.956C63.9078 119.692 64.0878 119.489 64.1392 119.524Z" fill="#E0E0E0"/>
<path d="M66.8652 121.131C66.9166 121.165 66.8266 121.407 66.6681 121.671C66.5095 121.934 66.3295 122.103 66.2781 122.103C66.2266 122.103 66.3124 121.831 66.4752 121.567C66.6381 121.304 66.8138 121.092 66.8652 121.131Z" fill="#E0E0E0"/>
<path d="M68.4381 122.042C68.4895 122.072 68.4038 122.314 68.2409 122.578C68.0781 122.841 67.9024 123.01 67.8509 123.01C67.7995 123.01 67.8895 122.733 68.0481 122.47C68.2066 122.206 68.3866 122.008 68.4381 122.042Z" fill="#E0E0E0"/>
<path d="M182.043 157.514C184.246 156.369 186.843 156.218 189.286 156.628C190.602 156.849 191.973 157.242 192.869 158.239C193.764 159.237 193.932 160.987 192.903 161.842C192.294 162.352 191.442 162.429 190.649 162.416C188.733 162.395 186.607 162.053 185.077 163.215C184.22 163.881 183.62 164.982 182.579 165.306C182.057 165.429 181.509 165.376 181.019 165.157C180.528 164.938 180.122 164.565 179.862 164.092C179.365 163.123 179.257 161.999 179.557 160.952C179.681 160.225 179.97 159.536 180.401 158.94C180.832 158.343 181.394 157.855 182.043 157.514Z" fill="#EBEBEB"/>
<path d="M176.99 147.691C178.34 149.631 180.959 148.987 182.172 147.804C183.384 146.62 183.886 144.905 184.37 143.268C185.437 139.527 186.513 135.605 185.72 131.796C185.527 130.642 185.025 129.563 184.267 128.677C183.882 128.24 183.39 127.913 182.84 127.729C182.29 127.545 181.702 127.51 181.134 127.627C179.814 127.977 178.992 129.282 178.4 130.521C176.653 134.184 175.737 138.193 175.717 142.257C175.717 144.149 175.932 146.145 177.003 147.691" fill="#EBEBEB"/>
<path d="M173.292 150.464C174.753 148.737 175.032 146.145 174.38 143.985C173.729 141.825 172.237 139.929 170.562 138.404C168.566 136.615 166.245 135.235 163.726 134.34C162.751 133.944 161.703 133.764 160.653 133.813C160.13 133.844 159.622 134.004 159.174 134.278C158.726 134.552 158.351 134.932 158.082 135.385C157.362 136.772 158.052 138.448 158.797 139.817C160.112 142.229 161.614 144.533 163.289 146.706C164.635 148.456 166.173 150.162 168.226 150.97C170.279 151.777 172.409 151.669 173.493 150.235" fill="#EBEBEB"/>
<path d="M176.9 176.956C176.97 176.673 177.01 176.383 177.02 176.092C177.084 175.452 177.162 174.645 177.256 173.686C177.375 172.501 177.554 171.323 177.792 170.157C178.108 168.736 178.538 167.344 179.077 165.993C179.6 164.643 180.31 163.375 181.186 162.226C181.901 161.291 182.813 160.526 183.856 159.989C184.562 159.634 185.32 159.397 186.102 159.285C186.391 159.271 186.678 159.228 186.959 159.155C186.665 159.124 186.369 159.124 186.076 159.155C185.265 159.218 184.471 159.426 183.732 159.768C182.634 160.293 181.671 161.064 180.916 162.023C180.003 163.189 179.266 164.484 178.73 165.868C178.187 167.24 177.764 168.658 177.466 170.105C177.24 171.285 177.084 172.478 176.999 173.677C176.926 174.697 176.896 175.526 176.883 176.096C176.859 176.382 176.864 176.67 176.9 176.956Z" fill="#E0E0E0"/>
<path d="M177.063 175.107C177.088 174.972 177.097 174.834 177.089 174.697C177.089 174.39 177.089 174.001 177.089 173.526C177.089 172.511 177.089 171.042 177.14 169.228C177.23 165.6 177.539 161.695 178.139 156.192C178.704 151.009 179.467 144.987 180.282 141.074C180.453 140.18 180.629 139.381 180.792 138.676C180.954 137.972 181.079 137.381 181.22 136.875L181.494 135.739C181.533 135.609 181.556 135.474 181.563 135.338C181.501 135.459 181.453 135.589 181.422 135.722C181.336 136.016 181.224 136.387 181.087 136.841C180.95 137.294 180.783 137.929 180.607 138.629C180.432 139.329 180.234 140.128 180.046 141.018C179.047 145.65 178.295 150.334 177.792 155.047C177.192 160.563 176.934 165.587 176.9 169.224C176.879 171.042 176.9 172.515 176.96 173.543C176.99 174.018 177.016 174.407 177.033 174.714C177.032 174.845 177.042 174.977 177.063 175.107Z" fill="#E0E0E0"/>
<path d="M177.089 165.418C177.121 165.012 177.121 164.603 177.089 164.196C177.021 163.087 176.897 161.983 176.716 160.887C176.451 159.266 176.095 157.66 175.649 156.08C175.129 154.127 174.46 152.218 173.647 150.369C172.26 146.962 170.269 143.837 167.772 141.147C167.336 140.688 166.874 140.255 166.387 139.851C166.177 139.67 165.989 139.493 165.796 139.35L165.26 138.975C164.939 138.728 164.598 138.508 164.24 138.318C164.185 138.396 165.689 139.29 167.587 141.342C170.001 144.056 171.939 147.164 173.317 150.533C174.113 152.37 174.784 154.259 175.327 156.188C175.786 157.76 176.167 159.354 176.467 160.965C176.716 162.339 176.862 163.466 176.947 164.243C176.965 164.638 177.012 165.031 177.089 165.418Z" fill="#E0E0E0"/>
<path d="M167.797 182.506L168.762 195.806H185.712L186.676 182.506H167.797Z" fill="#E0E0E0"/>
<path d="M188.699 177.267H166.16V182.51H188.699V177.267Z" fill="#E0E0E0"/>
<path d="M166.16 195.3V196.752H167.219H188.326V195.3H166.16Z" fill="#EBEBEB"/>
<path d="M168.256 199.309L167.219 196.752H187.52L186.307 199.309H168.256Z" fill="#E0E0E0"/>
<path d="M186.363 186.856C186.34 186.899 186.312 186.939 186.282 186.977C186.217 187.068 186.132 187.18 186.029 187.314L185.043 188.588L185 188.644L184.957 188.588L182.527 185.206H182.669L180.282 188.614L180.205 188.722L180.123 188.618L177.29 185.223H177.453L177.295 185.422L174.762 188.623L174.68 188.731L174.599 188.618L172.22 185.206H172.358C171.179 186.558 170.18 187.703 169.418 188.584L169.362 188.644L169.323 188.575L168.402 187.016L168.166 186.584C168.137 186.537 168.113 186.488 168.093 186.437C168.093 186.437 168.132 186.476 168.192 186.567L168.453 186.968L169.422 188.497H169.328L172.225 185.076L172.298 184.99L172.366 185.081L174.775 188.476H174.612L177.14 185.271L177.295 185.076L177.376 184.973L177.457 185.072L180.286 188.476H180.127L182.536 185.081L182.609 184.981L182.677 185.081L185.052 188.502H184.966L185.995 187.262L186.269 186.942C186.332 186.882 186.363 186.853 186.363 186.856Z" fill="#F5F5F5"/>
<path d="M186.912 182.428C186.912 182.489 182.664 182.536 177.427 182.536C172.19 182.536 167.935 182.48 167.935 182.428C167.935 182.377 172.182 182.32 177.423 182.32C182.664 182.32 186.912 182.359 186.912 182.428Z" fill="#F5F5F5"/>
<path d="M187.769 196.894C187.769 196.955 183.153 197.002 177.457 197.002C171.762 197.002 167.15 196.955 167.15 196.894C167.15 196.834 171.766 196.791 177.457 196.791C183.149 196.791 187.769 196.838 187.769 196.894Z" fill="#F5F5F5"/>
<path d="M48.6338 14.0123C48.6338 14.0123 52.448 31.7221 54.9423 31.6271C58.1651 31.4846 69.0165 16.5608 69.0165 16.5608C69.0165 16.5608 50.4381 14.2974 48.6338 14.0123Z" fill="#F5F5F5"/>
<path d="M71.0352 16.8243C71.0352 16.8243 76.6494 34.1713 79.1308 33.869C82.3279 33.4759 91.615 17.7876 91.615 17.7876C91.615 17.7876 72.8651 16.9669 71.0352 16.8243Z" fill="#EBEBEB"/>
<path d="M93.625 17.7789C93.625 17.7789 101.018 34.6033 103.452 34.1065C106.598 33.4673 114.235 17.1267 114.235 17.1267C114.235 17.1267 95.4636 17.7746 93.625 17.7789Z" fill="#F5F5F5"/>
<path d="M115.173 17.144C115.173 17.144 123.689 33.558 126.089 32.9403C129.183 32.1412 135.71 15.4421 135.71 15.4421C135.71 15.4421 117.008 17.049 115.173 17.144Z" fill="#EBEBEB"/>
<path d="M136.971 14.9539C136.971 14.9539 147.398 30.504 149.712 29.6704C152.712 28.5948 157.212 11.412 157.212 11.412C157.212 11.412 138.792 14.6948 136.971 14.9539Z" fill="#F5F5F5"/>
<path d="M158.382 11.1183C158.382 11.1183 170.133 25.9254 172.37 24.9406C175.259 23.675 178.267 6.25024 178.267 6.25024C178.267 6.25024 160.169 10.7382 158.382 11.1183Z" fill="#EBEBEB"/>
<path d="M26.8496 9.61511C26.8496 9.61511 29.0439 27.5539 31.5639 27.6187C34.7867 27.6964 46.9495 13.5674 46.9495 13.5674C46.9495 13.5674 28.6239 10.0211 26.8496 9.61511Z" fill="#EBEBEB"/>
<path d="M197.604 0.323975L197.124 0.501073L195.701 1.01077L193.383 1.83579L191.904 2.35844L190.19 2.91997L186.191 4.21582L181.391 5.67148C180.534 5.9436 179.63 6.18981 178.704 6.44898L175.833 7.24808C175.34 7.3863 174.843 7.52885 174.333 7.68003L172.781 8.07742L169.559 8.90244C159.179 11.4665 148.671 13.4735 138.08 14.9151C132.08 15.7056 125.763 16.3881 119.189 16.8848C112.615 17.3816 105.792 17.6321 98.8062 17.6882H93.5905L88.4477 17.5802L87.162 17.5543L85.8763 17.4982L83.3563 17.3945L80.8535 17.2908L78.3764 17.1353C76.735 17.023 75.1021 16.9453 73.4907 16.8071L68.7079 16.401C67.1307 16.2628 65.5793 16.0728 64.0365 15.9173L61.7694 15.697L59.5065 15.386C53.5066 14.6689 47.858 13.697 42.5866 12.7554C37.3367 11.736 32.4638 10.708 28.0667 9.60219L24.8482 8.78581C23.7982 8.53096 22.7953 8.23292 21.8096 7.96943C19.8468 7.4295 17.9868 6.93708 16.2768 6.40147C14.5668 5.86585 12.9554 5.43391 11.5069 4.96308L7.52546 3.66724C6.92975 3.46855 6.35975 3.29145 5.8369 3.10139L4.36691 2.57442L2.07835 1.7278L0.664079 1.2181L0.184082 1.03669C0.184082 1.03669 0.351223 1.08852 0.67265 1.20083L2.07835 1.69757L4.38834 2.50963L5.85833 3.02796C6.38547 3.2137 6.95546 3.38648 7.55117 3.58517L11.5369 4.88101C12.994 5.33024 14.6011 5.80538 16.3154 6.32372C18.0297 6.84205 19.8854 7.33879 21.8482 7.87872C22.8339 8.13789 23.8368 8.43594 24.8868 8.68646L28.1053 9.48125C32.5024 10.5741 37.3752 11.5935 42.6252 12.6085C47.8966 13.5459 53.5408 14.5091 59.5365 15.2002L61.7951 15.4896L64.0879 15.7358C65.6265 15.8913 67.1822 16.0771 68.7593 16.2153L73.5378 16.617C75.145 16.7596 76.7778 16.833 78.4192 16.941L80.8921 17.0965L83.3949 17.2001L85.9149 17.3081L87.1792 17.36L88.4649 17.3859L93.6077 17.4939H98.8062C105.792 17.4377 112.615 17.1526 119.185 16.6948C125.755 16.2369 132.072 15.5199 138.067 14.738C148.652 13.3121 159.155 11.3252 169.533 8.78581L172.756 7.96943L174.307 7.57636L175.807 7.14441L178.679 6.34963C179.604 6.09046 180.508 5.84857 181.366 5.58077L186.17 4.13806L190.177 2.84222L191.891 2.28933L193.374 1.77532L195.697 0.967575L197.128 0.470837L197.604 0.323975Z" fill="#455A64"/>
<path d="M17.7127 7.21783C17.177 7.06233 16.6542 6.90683 16.1399 6.74269L14.3785 6.21571C13.3156 5.89607 12.3042 5.59371 11.3571 5.28703L6.74567 3.76658C6.37281 3.64563 6.0171 3.52901 5.67425 3.40806L0.492853 1.53773L0 1.35199L0.304284 0.712712L0.805709 0.876852L6.00853 2.70831C6.34281 2.82493 6.69424 2.93724 7.05852 3.05386L11.6742 4.55704C12.6042 4.85076 13.5942 5.14449 14.6313 5.45549L16.4485 5.99542C17.777 6.42737 19.1913 6.7902 20.6913 7.19623L21.977 7.54611L23.0356 7.83552C23.6784 8.01261 24.3213 8.18971 24.9984 8.35385L28.2212 9.14863C32.2026 10.1378 36.7926 11.1313 42.7197 12.2716C47.6782 13.1355 53.4853 14.1506 59.5967 14.8633L64.1438 15.3946L65.781 15.5674C66.7795 15.6754 67.7867 15.7833 68.8024 15.874L73.5809 16.2758C74.618 16.3665 75.6595 16.4313 76.7095 16.4917C77.2923 16.5263 77.8709 16.5608 78.458 16.604L83.4208 16.8589L88.4694 17.0446L93.6122 17.1483H98.8064C105.496 17.0965 112.345 16.8243 119.155 16.3492C125.245 15.8913 131.583 15.2348 138.012 14.3925C148.581 12.9588 159.068 10.9691 169.43 8.4316L176.553 6.57423L178.94 5.91335C179.733 5.69738 180.5 5.48141 181.237 5.25679L186.05 3.80977L193.22 1.4643L196.974 0.168459L197.476 0L197.771 0.643601L197.279 0.825018L190.349 3.24824L186.346 4.54408L181.537 6.00406C180.792 6.23731 180.012 6.43601 179.206 6.6779L175.447 7.72753C175.122 7.81824 174.796 7.91327 174.466 7.99966L169.683 9.21774C159.286 11.7898 148.761 13.8083 138.153 15.265C131.725 16.1289 125.343 16.7768 119.232 17.239C112.401 17.7185 105.518 17.9906 98.8064 18.0467H93.5865L80.858 17.6493L78.3723 17.4938C77.7809 17.4507 77.198 17.4161 76.6152 17.3815C75.5609 17.3167 74.5152 17.2563 73.4738 17.1612L68.6952 16.7595C67.6624 16.6645 66.6467 16.5565 65.6353 16.4442L64.0153 16.2714L59.4467 15.7358C53.2925 15.0015 47.4768 14.008 42.5054 13.1053C36.5826 11.952 31.9626 10.9455 27.9555 9.94342L24.7327 9.14431C24.0513 8.98018 23.3827 8.79444 22.727 8.61302L21.6898 8.32793L20.4299 7.98238C19.4913 7.71457 18.587 7.48996 17.7127 7.21783Z" fill="#E0E0E0"/>
<path d="M26.8154 104.069H2.57129V129.541H26.8154V104.069Z" fill="#E0E0E0"/>
<path d="M25.1743 104.069H0.930176V129.541H25.1743V104.069Z" fill="#FAFAFA"/>
<path d="M25.1826 129.549H0.921387V104.065H25.1826V129.549ZM0.93853 129.549H25.1655V104.078H0.93853V129.549Z" fill="#E0E0E0"/>
<path d="M21.9126 107.494H4.18701V126.12H21.9126V107.494Z" fill="white"/>
<path d="M4.18719 126.241C4.06565 126.429 3.92173 126.602 3.75862 126.755C3.47577 127.057 3.0772 127.463 2.63149 127.908C2.18578 128.353 1.77435 128.742 1.47435 129.022C1.32048 129.185 1.14946 129.33 0.964355 129.454C1.0842 129.266 1.22831 129.095 1.39292 128.945C1.67578 128.642 2.07435 128.232 2.52434 127.791C2.97434 127.351 3.38148 126.949 3.68148 126.668C3.8343 126.508 4.00385 126.365 4.18719 126.241Z" fill="#E0E0E0"/>
<path d="M21.9126 126.198C22.0994 126.32 22.2707 126.465 22.4226 126.63C22.7226 126.915 23.1254 127.316 23.5669 127.766C24.0083 128.215 24.394 128.629 24.6726 128.932C24.8336 129.087 24.9773 129.259 25.1011 129.446C24.9144 129.325 24.7443 129.18 24.5954 129.014C24.2954 128.729 23.8883 128.327 23.4512 127.874C23.014 127.42 22.594 127.01 22.3369 126.707C22.1793 126.552 22.0371 126.381 21.9126 126.198Z" fill="#E0E0E0"/>
<path d="M21.8657 107.546C21.9889 107.359 22.1327 107.187 22.2943 107.032C22.5771 106.73 22.9757 106.324 23.4214 105.879C23.8671 105.434 24.2786 105.045 24.5786 104.764C24.7333 104.601 24.9058 104.456 25.0928 104.333C24.9701 104.519 24.8263 104.69 24.6643 104.842C24.3814 105.145 23.9829 105.555 23.5371 105.996C23.0914 106.436 22.68 106.838 22.3757 107.119C22.2212 107.279 22.0502 107.422 21.8657 107.546Z" fill="#E0E0E0"/>
<path d="M4.13972 107.589C3.95414 107.465 3.78306 107.32 3.62972 107.157C3.33401 106.872 2.92687 106.47 2.48973 106.021C2.05259 105.572 1.65831 105.157 1.37974 104.855C1.21508 104.702 1.07101 104.528 0.951172 104.337C1.13381 104.463 1.30324 104.608 1.45688 104.769C1.75259 105.054 2.15973 105.455 2.60116 105.905C3.04258 106.354 3.43258 106.769 3.71115 107.075C3.87371 107.229 4.01758 107.401 4.13972 107.589Z" fill="#E0E0E0"/>
<path d="M21.8654 126.12C21.8654 126.12 21.8654 126.085 21.8654 126.029C21.8654 125.973 21.8654 125.878 21.8654 125.77C21.8654 125.532 21.8654 125.2 21.8654 124.763C21.8654 123.9 21.8654 122.604 21.8654 120.967C21.8654 117.705 21.8654 113.058 21.8312 107.494L21.8997 107.563H4.22558L4.30701 107.486C4.30701 114.323 4.30701 120.716 4.30701 126.111L4.23844 126.042L17.0398 126.077H20.6355H21.5869H20.6483H17.0698L4.21272 126.111H4.14844V126.046C4.14844 120.651 4.14844 114.258 4.14844 107.421V107.343H4.22987H21.904H21.9726V107.412C21.9726 112.993 21.9469 117.658 21.9383 120.928C21.9383 122.552 21.9383 123.83 21.9383 124.707C21.9383 125.139 21.9383 125.472 21.9383 125.701C21.9383 125.809 21.9383 125.891 21.9383 125.951C21.9227 126.011 21.8982 126.068 21.8654 126.12Z" fill="#E0E0E0"/>
<path d="M16.2942 116.842C16.2942 117.41 16.1271 117.965 15.8139 118.438C15.5007 118.91 15.0556 119.278 14.5349 119.495C14.0141 119.713 13.4411 119.77 12.8882 119.659C12.3354 119.548 11.8276 119.275 11.429 118.873C11.0304 118.471 10.759 117.959 10.649 117.402C10.539 116.845 10.5955 116.267 10.8112 115.742C11.0269 115.218 11.3922 114.769 11.8609 114.453C12.3295 114.138 12.8805 113.969 13.4442 113.969C13.8186 113.969 14.1895 114.043 14.5355 114.187C14.8816 114.331 15.196 114.542 15.4607 114.809C15.7255 115.076 15.9354 115.393 16.0784 115.742C16.2214 116.091 16.2948 116.464 16.2942 116.842Z" fill="#E0E0E0"/>
</svg>
