<svg width="8" height="9" viewBox="0 0 8 9" fill="none" xmlns="http://www.w3.org/2000/svg">
<path d="M7.32293 6.74666L7.48358 8.35233L1.08885 8.99999L0.963898 7.72266L3.91806 4.28644C4.59635 3.49036 4.68561 3.0406 4.64544 2.62232C4.57851 1.95666 4.07871 1.61034 3.18621 1.70029C2.846 1.72267 2.5163 1.82813 2.22554 2.00757C1.93478 2.187 1.6917 2.43502 1.51725 2.73026L0 1.95217C0.335064 1.38981 0.802977 0.919738 1.36202 0.583863C1.92107 0.247987 2.55389 0.0567378 3.20406 0.0271663C5.08723 -0.166233 6.44382 0.683829 6.59555 2.23102C6.68033 3.05859 6.52415 3.83668 5.44869 5.06454L3.69047 7.11547L7.32293 6.74666Z" fill="#FFC727"/>
</svg>
