<svg width="57" height="84" viewBox="0 0 57 84" fill="none" xmlns="http://www.w3.org/2000/svg">
<path d="M54.5917 79.5015L53.4277 80.1958L2.20165 50.6879L3.36569 49.9935L54.5917 79.5015Z" fill="#FAFAFA"/>
<path d="M3.36573 49.9935L53.4277 78.8281V33.9896L3.36573 5.1634V49.9935Z" fill="white"/>
<path d="M28.0469 18.2046V65.6059L25.8453 64.3392V16.9337L28.0469 18.2046Z" fill="#F0F0F0"/>
<path d="M29.1473 17.565L28.0465 18.2046V65.6059L29.1473 64.9705V17.565Z" fill="#E0E0E0"/>
<path d="M0 51.9545L55.6292 84V32.7229L0 0.677421V51.9545ZM2.20155 4.48164L53.4276 33.9896V80.1958L2.20155 50.6878V4.48164Z" fill="#F0F0F0"/>
<path d="M2.20165 50.6879L3.36569 49.9935V5.16343L2.20165 4.4817V50.6879Z" fill="#E0E0E0"/>
<path d="M0 0.673313L1.18512 0L56.8143 32.0455L55.6292 32.723L0 0.673313Z" fill="#FAFAFA"/>
<path d="M56.8145 32.0454L55.6294 32.723V84L56.8145 83.3267V32.0454Z" fill="#E0E0E0"/>
<path d="M28.0466 19.4713L25.8492 18.2046V19.4713L28.0466 20.738V19.4713Z" fill="#E0E0E0"/>
<path opacity="0.15" d="M28.0465 20.738L29.1473 20.1025L28.0465 19.4713V20.738Z" fill="black"/>
</svg>
