<svg width="5" height="3" viewBox="0 0 5 3" fill="none" xmlns="http://www.w3.org/2000/svg">
<path opacity="0.4" d="M0.387154 3.00018C0.301997 2.99885 0.219549 2.96791 0.152228 2.91201C0.0849077 2.85611 0.0363626 2.77827 0.0139039 2.69023C-0.00855471 2.6022 -0.00370359 2.50873 0.0277156 2.4239C0.0591348 2.33908 0.115416 2.2675 0.1881 2.21993L3.6977 0.0531634C3.78615 -4.56747e-05 3.89055 -0.0139726 3.98848 0.0143626C4.08641 0.0426978 4.17007 0.111031 4.22152 0.204718C4.26854 0.300108 4.2801 0.411056 4.25386 0.515211C4.22761 0.619365 4.16551 0.708991 4.08008 0.766054L0.570494 2.93282C0.515691 2.97155 0.452603 2.99472 0.387154 3.00018Z" fill="black"/>
</svg>
