<svg width="18" height="25" viewBox="0 0 18 25" fill="none" xmlns="http://www.w3.org/2000/svg">
<path d="M0.0312117 5.14305C-0.0300997 6.3504 -0.00105263 7.56108 0.118092 8.76346C0.521868 14.4378 2.31075 15.7414 3.18475 16.0974C4.05875 16.4534 5.74031 16.0974 7.31964 15.7304V19.0769C7.31964 19.0769 5.39274 22.0401 5.61252 23.5901C5.8323 25.1402 8.93473 25.3373 10.9485 23.6942C12.254 22.5192 13.2334 20.9827 13.7801 19.2522V11.4089C13.7801 11.4089 14.9505 12.9097 16.6729 11.5349C18.3954 10.1601 18.3034 7.01624 17.184 5.9482C16.0647 4.88015 13.8312 5.32928 13.4938 6.91218C13.4938 6.91218 9.76274 6.57807 9.29251 0C5.85786 4.83633 0.250989 1.35834 0.0312117 5.14305Z" fill="#FFA8A7"/>
</svg>
