<svg width="47" height="109" viewBox="0 0 47 109" fill="none" xmlns="http://www.w3.org/2000/svg">
<path d="M38.6636 1.08987C43.5196 7.38356 43.3197 17.4771 38.2194 23.5662C35.3177 27.0356 30.817 29.97 30.8836 34.5801C30.9799 39.7174 36.887 42.9822 37.3459 48.1037C37.8271 53.3668 32.4085 57.2925 31.7497 62.5398C31.2241 66.7566 33.9112 70.6665 36.8796 73.5538C39.848 76.441 43.3345 78.8641 45.2961 82.5773C47.4577 86.6682 47.3984 91.774 46.0364 96.2425C44.6743 100.711 42.1649 104.668 39.5297 108.436C35.4179 107.318 31.1898 106.755 26.9455 106.761C27.059 105.046 27.1725 103.331 27.286 101.616C27.5525 103.567 26.1535 105.439 24.4509 106.234C22.7484 107.028 20.8089 106.981 18.9583 106.855C13.2651 106.482 7.6185 105.531 2.09557 104.015C4.16085 101.356 6.25574 98.6419 7.40311 95.4243C8.55049 92.2067 8.5875 88.3439 6.66287 85.5432C5.13797 83.3011 2.57673 82.0109 1.14806 79.698C-0.983842 76.2286 0.0969124 71.4296 2.39907 68.0783C4.70122 64.7269 8.01011 62.3431 10.8452 59.4952C13.6804 56.6474 16.1972 52.9184 16.0788 48.7724C15.9233 43.3913 11.4152 38.9228 11.4448 33.5338C11.4448 27.4053 17.1891 23.0863 19.0693 17.2882C20.424 13.0872 19.8096 8.73669 22.1636 5.05489C23.051 3.65051 24.2271 2.47885 25.6031 1.62841C26.9791 0.777971 28.519 0.271012 30.1064 0.145824C33.1932 0.00421584 35.9025 -0.357673 38.6784 1.08987" fill="#263238"/>
</svg>
