<svg width="19" height="16" viewBox="0 0 19 16" fill="none" xmlns="http://www.w3.org/2000/svg">
<path d="M14.7011 15.8584C12.6036 15.8584 10.0603 14.9985 7.69279 13.4346C5.34581 11.883 3.43606 9.90012 2.10456 7.63228C0.773065 5.36444 0.05384 2.8696 9.22947e-09 0.331999C-1.86417e-05 0.270204 0.0282309 0.210856 0.0786991 0.16666C0.129167 0.122465 0.197839 0.0969332 0.270028 0.0955288C0.306473 0.0931986 0.343081 0.0975328 0.377416 0.108248C0.411752 0.118963 0.443029 0.135812 0.469166 0.157672C0.495304 0.179533 0.515711 0.205906 0.529017 0.235036C0.542324 0.264167 0.548226 0.295393 0.546342 0.326628C0.546342 1.50897 2.14142 3.85754 4.61568 5.59344C6.26727 6.74891 8.86083 8.02801 11.8877 7.56582C13.577 7.30785 14.519 6.67368 14.6885 5.69018C14.8769 4.58845 14.117 3.25562 13.1437 2.19151L12.8862 1.91742V1.89054C12.3457 1.31258 11.6859 0.824394 10.9395 0.450235C10.8737 0.421728 10.8238 0.372024 10.8008 0.312056C10.7779 0.252087 10.7837 0.186765 10.817 0.130463C10.8503 0.0741616 10.9084 0.0314877 10.9785 0.0118341C11.0485 -0.0078195 11.1249 -0.00284686 11.1907 0.0256602C12.0076 0.436073 12.7292 0.971682 13.3195 1.60571C16.7923 5.1635 19.8003 10.5808 18.8081 13.4937C18.6548 13.9987 18.3526 14.4616 17.9304 14.838C17.5081 15.2144 16.98 15.4917 16.3966 15.6434C15.8487 15.7928 15.2761 15.8654 14.7011 15.8584ZM0.690785 2.27212C1.41046 6.54502 4.04008 10.412 8.02562 13.0583C10.8829 14.9501 14.0982 15.7885 16.1894 15.2081C16.6833 15.0787 17.1308 14.8442 17.49 14.5265C17.8491 14.2088 18.1082 13.8183 18.2429 13.3916C18.9588 11.2902 17.4202 7.74854 15.1532 4.65294C15.2495 5.02336 15.2686 5.40543 15.2097 5.78154C15.0653 6.60919 14.3871 7.67867 11.9568 8.0495C8.72896 8.54931 5.97839 7.20036 4.24516 5.98039C2.78555 4.95755 1.57747 3.69716 0.690785 2.27212Z" fill="#FA00FF"/>
</svg>
