<svg width="15" height="15" viewBox="0 0 15 15" fill="none" xmlns="http://www.w3.org/2000/svg">
<path d="M5.47751 14.2415H9.52245C12.8932 14.2415 14.2415 12.8932 14.2415 9.52245V5.47751C14.2415 2.10674 12.8932 0.758425 9.52245 0.758425H5.47751C2.10674 0.758425 0.758425 2.10674 0.758425 5.47751V9.52245C0.758425 12.8932 2.10674 14.2415 5.47751 14.2415Z" stroke="#292D32" stroke-width="1.5" stroke-linecap="round" stroke-linejoin="round"/>
<path d="M0.758425 8.17413H3.29325C3.80561 8.17413 4.27078 8.46402 4.49999 8.92244L5.09999 10.1292C5.47751 10.8707 6.15167 10.8707 6.31347 10.8707H8.69324C9.20559 10.8707 9.67076 10.5809 9.89997 10.1224L10.5 8.9157C10.7292 8.45727 11.1944 8.16739 11.7067 8.16739H14.2281" stroke="#292D32" stroke-width="1.5" stroke-linecap="round" stroke-linejoin="round"/>
</svg>
