<svg width="17" height="18" viewBox="0 0 17 18" fill="none" xmlns="http://www.w3.org/2000/svg">
<path fill-rule="evenodd" clip-rule="evenodd" d="M8.50266 8.53506C6.8794 8.53804 5.53236 7.20044 5.52669 5.58002C5.52093 3.94273 6.85196 2.60093 8.48703 2.59574C10.1259 2.5905 11.4681 3.9212 11.4722 5.55527C11.4764 7.18703 10.1359 8.53209 8.50266 8.53506ZM8.50204 7.39863C9.51822 7.39792 10.3371 6.5799 10.3381 5.56437C10.3391 4.54833 9.52313 3.73144 8.50539 3.72955C7.47877 3.72771 6.65805 4.54654 6.66074 5.57004C6.66338 6.58311 7.48528 7.39934 8.50204 7.39863ZM2.47269 12.7307C2.87316 11.3239 3.91158 10.5755 5.16144 10.0959C7.5827 9.16662 9.99584 9.21791 12.357 10.3268C13.1499 10.6992 13.8232 11.233 14.2482 12.024C14.3641 12.2397 14.4407 12.4766 14.5398 12.7143C14.5673 12.6794 14.6005 12.6429 14.6274 12.6023C15.4154 11.4117 15.8268 10.1021 15.8667 8.6752C15.8695 8.57541 15.8661 8.47251 15.889 8.37669C15.9559 8.09755 16.2204 7.91743 16.4989 7.94902C16.7847 7.98147 17 8.21929 16.9999 8.51931C16.9992 9.65979 16.7934 10.7632 16.3308 11.806C15.1161 14.5435 13.0417 16.2629 10.1063 16.8508C5.67515 17.7383 1.32806 14.9318 0.249016 10.5464C-0.822279 6.19245 1.65292 1.75143 5.94622 0.414728C8.56512 -0.400656 11.0388 -0.0036367 13.3262 1.51681C13.614 1.70807 13.6873 2.05404 13.5077 2.31921C13.3269 2.58622 12.9848 2.6503 12.6964 2.45475C11.7802 1.83336 10.7836 1.41268 9.68714 1.24418C7.61208 0.925276 5.72119 1.38501 4.04863 2.65115C2.46721 3.84826 1.51899 5.44941 1.21963 7.40872C0.929385 9.30872 1.34959 11.0636 2.41588 12.663C2.42858 12.6821 2.44544 12.6985 2.47269 12.7307ZM15.0119 5.98886C15.0119 6.2562 15.0183 6.53204 15.0103 6.8074C15.0005 7.14152 14.7524 7.38251 14.4358 7.37953C14.1188 7.37651 13.8853 7.1316 13.8798 6.79371C13.8773 6.64037 13.8793 6.48698 13.8792 6.3336C13.8792 6.21695 13.8792 6.10036 13.8792 5.96236C13.6058 5.96236 13.3484 5.96293 13.0909 5.96222C12.7111 5.96123 12.4621 5.73701 12.4618 5.39685C12.4615 5.05933 12.714 4.83067 13.0899 4.82925C13.3433 4.82831 13.5967 4.82911 13.8794 4.82911C13.8794 4.55341 13.8687 4.28428 13.8841 4.0167C13.8911 3.89307 13.9246 3.75739 13.9886 3.65345C14.1172 3.44495 14.3663 3.36783 14.5926 3.433C14.8408 3.50445 15.0005 3.71116 15.011 3.98397C15.0165 4.12532 15.0124 4.26709 15.0125 4.40862C15.0126 4.54283 15.0125 4.677 15.0125 4.82916C15.2875 4.82916 15.5454 4.82817 15.8033 4.82939C16.1721 4.83119 16.435 5.07373 16.4288 5.40459C16.4227 5.73125 16.1658 5.96047 15.8034 5.96236C15.5556 5.96364 15.308 5.96439 15.0602 5.96628C15.05 5.96633 15.0398 5.97544 15.0119 5.98886ZM8.51304 10.64C7.39386 10.6579 6.30745 10.8084 5.28541 11.2759C4.74374 11.5237 4.24779 11.8395 3.88713 12.3283C3.46282 12.9035 3.45559 13.5436 3.89195 14.1099C4.05487 14.3213 4.251 14.528 4.47494 14.6682C6.83599 16.1467 9.2845 16.2768 11.8015 15.0948C12.2882 14.8662 12.751 14.5934 13.0869 14.1511C13.543 13.5506 13.5472 12.8939 13.0887 12.2948C12.7695 11.8777 12.3471 11.5883 11.8843 11.3572C10.821 10.8263 9.67808 10.6624 8.51304 10.64Z" fill="black"/>
</svg>
