<svg width="3" height="8" viewBox="0 0 3 8" fill="none" xmlns="http://www.w3.org/2000/svg">
<path d="M2.40971 7.9309C1.9091 7.78709 1.3924 7.70791 0.872002 7.69526C0.629205 7.69526 0.399886 7.63182 0.354924 7.46868C0.327054 7.21832 0.375681 6.96535 0.494306 6.7436L1.15975 4.87655C2.059 2.22099 2.72895 0.0367104 2.62553 0.000456985C2.52212 -0.0357965 1.69032 2.08956 0.773084 4.74513L0.139113 6.62578C-0.0021969 6.9235 -0.0371401 7.26127 0.040195 7.58197C0.0784396 7.66613 0.135132 7.74044 0.206005 7.79931C0.276878 7.85819 0.360086 7.90008 0.449354 7.92184C0.582943 7.95668 0.720538 7.97344 0.858514 7.97169C1.37536 8.02013 1.89607 8.00643 2.40971 7.9309Z" fill="#263238"/>
</svg>
