<svg width="22" height="109" viewBox="0 0 22 109" fill="none" xmlns="http://www.w3.org/2000/svg">
<path d="M20.6868 88.425C20.5006 88.333 20.2894 88.2845 20.0744 88.2845C19.8594 88.2845 19.6482 88.333 19.462 88.425L10.9436 92.6177V3.76299C10.9421 3.00023 10.7065 2.25117 10.2605 1.59078C9.81451 0.930397 9.17367 0.381839 8.4021 0L7.17731 1.80288C7.57896 2.00195 7.91252 2.28775 8.14464 2.63172C8.37677 2.97569 8.49934 3.36578 8.50009 3.76299V93.8284L0.612398 97.7276C0.427285 97.8191 0.273373 97.9504 0.165939 98.1086C0.0585049 98.2667 0.00129016 98.4461 0 98.6291V108.398C0.0112629 108.49 0.0506003 108.577 0.11404 108.652C0.177479 108.726 0.262772 108.785 0.361313 108.823C0.627733 108.939 0.922601 109 1.22173 109C1.52086 109 1.81573 108.939 2.08215 108.823C2.17954 108.785 2.26361 108.725 2.32593 108.651C2.38825 108.576 2.42667 108.489 2.43735 108.398V99.2265L18.8374 91.124V99.0903C18.8481 99.1814 18.8865 99.2686 18.9488 99.3431C19.0111 99.4176 19.0952 99.4768 19.1926 99.5148C19.459 99.6312 19.7538 99.6919 20.053 99.6919C20.3521 99.6919 20.647 99.6312 20.9134 99.5148C21.0119 99.4775 21.0972 99.4186 21.1607 99.344C21.2241 99.2695 21.2634 99.182 21.2747 99.0903V89.3212C21.2749 89.1412 21.2209 88.9641 21.1179 88.8072C21.015 88.6502 20.8665 88.5186 20.6868 88.425Z" fill="#F0F0F0"/>
</svg>
