<svg width="16" height="10" viewBox="0 0 16 10" fill="none" xmlns="http://www.w3.org/2000/svg">
<path fill-rule="evenodd" clip-rule="evenodd" d="M6.03856 8.51412C5.6775 8.92805 5.32394 9.33253 4.9713 9.73781C4.67355 10.08 4.35402 10.0884 4.05389 9.75559C2.75689 8.31743 1.46076 6.87849 0.16494 5.43928C-0.0582668 5.1914 -0.0539204 4.86743 0.171833 4.66271C0.395698 4.4597 0.723264 4.4863 0.945637 4.73265C2.09627 6.00731 3.24663 7.28223 4.39252 8.56119C4.48283 8.66195 4.52349 8.65922 4.60664 8.55759C4.80794 8.31137 5.01749 8.07135 5.23385 7.83827C5.31661 7.74914 5.3105 7.69949 5.23086 7.61216C4.58043 6.89851 3.93654 6.17897 3.28825 5.46343C3.16063 5.32254 3.07506 5.16989 3.10816 4.97421C3.1442 4.76079 3.26735 4.60954 3.47397 4.55032C3.6912 4.48797 3.88416 4.54614 4.03927 4.71934C4.43827 5.16479 4.83928 5.6084 5.23951 6.0527C5.99224 6.88832 6.74673 7.72232 7.49537 8.56163C7.58511 8.66225 7.62568 8.65562 7.71121 8.55732C10.1318 5.77707 12.5557 2.99963 14.9795 0.222151C15.2025 -0.0334568 15.5163 -0.0719165 15.7504 0.124597C15.9889 0.32471 16.0039 0.64872 15.7748 0.911835C14.3843 2.50879 12.9914 4.10364 11.5993 5.69919C10.4236 7.04673 9.24709 8.39356 8.07332 9.74281C7.90574 9.93542 7.71836 10.0501 7.45437 9.97265C7.3393 9.93897 7.25382 9.86561 7.17567 9.77838C6.80222 9.36164 6.42742 8.94622 6.03856 8.51412ZM7.35883 6.70849C7.15929 6.68992 6.99135 6.60018 6.90074 6.40178C6.80792 6.19859 6.83466 6.00445 6.98117 5.83498C7.37547 5.37882 7.77258 4.92499 8.16898 4.47067C9.26816 3.21081 10.3684 1.95187 11.4658 0.690474C11.6092 0.525527 11.7757 0.426349 11.9974 0.465379C12.4185 0.539489 12.5736 1.01874 12.2846 1.35469C11.92 1.77854 11.5503 2.19813 11.1827 2.61947C10.0692 3.8958 8.95473 5.17147 7.84304 6.44946C7.71515 6.59641 7.57422 6.70551 7.35883 6.70849Z" fill="#5E4AE3"/>
</svg>
