<svg width="9" height="7" viewBox="0 0 9 7" fill="none" xmlns="http://www.w3.org/2000/svg">
<path d="M8.4093 0.762661C8.33369 0.999367 8.21855 1.21964 8.06938 1.41292C7.70891 1.98047 7.30735 2.51729 6.86834 3.0185C6.22035 3.75434 5.51539 4.43105 4.76086 5.04152C4.33029 5.38672 3.87706 5.73192 3.39362 6.06909C2.89863 6.47014 2.33763 6.76962 1.73936 6.95217C1.39946 7.04489 1.03936 7.00206 0.727155 6.83175C0.430854 6.65503 0.205286 6.36964 0.0926447 6.02896C-0.0769943 5.40403 -0.0120051 4.73354 0.273938 4.15847C0.665539 3.20952 1.19863 2.33393 1.85267 1.56545C2.29286 1.05929 2.80213 0.626293 3.36341 0.280982C3.55823 0.138383 3.77989 0.0425044 4.01303 0C2.49535 1.01316 1.3084 2.49889 0.613854 4.2548C0.374026 4.73594 0.319845 5.29737 0.462782 5.82023C0.539479 6.07813 0.708074 6.29392 0.932516 6.42144C1.15696 6.54896 1.41943 6.57808 1.66382 6.50261C2.20715 6.32946 2.71824 6.05787 3.17457 5.69982C3.65045 5.36264 4.11123 5.0335 4.53424 4.69633C5.2868 4.11498 5.9987 3.47642 6.66439 2.78568C7.805 1.61361 8.34887 0.762661 8.4093 0.762661Z" fill="#EB996E"/>
</svg>
