<svg width="21" height="22" viewBox="0 0 21 22" fill="none" xmlns="http://www.w3.org/2000/svg">
<path fill-rule="evenodd" clip-rule="evenodd" d="M11.0002 11.0093C11.0002 14.3564 11.0006 17.7036 10.9986 21.0508C10.9986 21.1803 10.9942 21.3149 10.9596 21.4381C10.857 21.8028 10.507 22.0329 10.1373 21.9962C9.7617 21.9591 9.45865 21.6457 9.43089 21.2644C9.42677 21.2074 9.4288 21.1499 9.4288 21.0926C9.42873 14.3655 9.42971 7.63843 9.42618 0.911308C9.42598 0.543777 9.53348 0.249372 9.87469 0.0805328C10.3668 -0.162873 10.9487 0.172645 10.9965 0.722305C11.0042 0.811733 11.0001 0.902274 11.0001 0.992225C11.0002 4.33123 11.0002 7.67024 11.0002 11.0093ZM3.14313 11.3933C3.14313 8.93003 3.14221 6.46677 3.14378 4.00351C3.14418 3.39015 3.64795 2.99702 4.18484 3.18982C4.49967 3.30295 4.67028 3.53752 4.7106 3.86668C4.71951 3.93935 4.71434 4.01385 4.71434 4.0875C4.71447 8.95674 4.71479 13.826 4.71263 18.6952C4.71257 18.8325 4.70563 18.9761 4.66602 19.1058C4.55905 19.4565 4.21037 19.6755 3.85011 19.639C3.48454 19.602 3.18215 19.2989 3.14725 18.9302C3.13959 18.8491 3.14326 18.7667 3.14326 18.6849C3.14306 16.2543 3.14306 13.8238 3.14313 11.3933ZM15.7145 11.3928C15.7145 8.92949 15.7136 6.46624 15.7152 4.00298C15.7157 3.38981 16.2199 2.99682 16.7568 3.18994C17.0715 3.3032 17.242 3.53797 17.2821 3.8672C17.291 3.93987 17.2858 4.01437 17.2858 4.08795C17.2859 8.95719 17.2863 13.8264 17.2841 18.6957C17.284 18.8329 17.277 18.9766 17.2374 19.1063C17.1301 19.4568 16.7812 19.6756 16.4211 19.639C16.0555 19.6017 15.7533 19.2984 15.7187 18.9297C15.711 18.8485 15.7147 18.7662 15.7147 18.6843C15.7145 16.2538 15.7145 13.8233 15.7145 11.3928ZM6.28599 11.368C6.28599 9.69042 6.2839 8.01283 6.28717 6.33531C6.28835 5.73439 6.82164 5.3446 7.35179 5.55455C7.65137 5.67324 7.8168 5.90467 7.85366 6.22454C7.86204 6.29727 7.85726 6.37171 7.85726 6.44529C7.85739 9.74319 7.85752 13.0411 7.85674 16.3389C7.85674 16.4449 7.86027 16.5536 7.83926 16.6564C7.7586 17.0521 7.38695 17.3222 6.99225 17.2819C6.59755 17.2415 6.29077 16.9122 6.28828 16.4989C6.28226 15.4842 6.28606 14.4695 6.28599 13.4548C6.28586 12.7591 6.28592 12.0635 6.28599 11.368ZM14.143 11.3926C14.143 13.0784 14.1423 14.7642 14.1435 16.4498C14.1438 16.8044 13.9931 17.0687 13.6715 17.2154C13.3659 17.3546 13.0782 17.2949 12.8286 17.0744C12.6311 16.8998 12.569 16.6716 12.5698 16.4124C12.5738 15.0948 12.5716 13.7774 12.5716 12.4599C12.5716 10.4222 12.5702 8.38455 12.5726 6.34689C12.5733 5.73268 13.1134 5.34053 13.6504 5.55638C13.9637 5.68233 14.1422 5.96901 14.1426 6.35979C14.1437 8.03744 14.143 9.71503 14.143 11.3926ZM1.57165 11.4048C1.57165 12.2803 1.57237 13.1558 1.57139 14.0314C1.5708 14.5713 1.25165 14.9311 0.779695 14.9276C0.31776 14.9241 0.000834658 14.5666 0.000638302 14.0433C-0.000212767 12.2758 -0.000212767 10.5084 0.000638302 8.74101C0.00090017 8.21577 0.315469 7.86126 0.779433 7.85766C1.25125 7.854 1.57086 8.21407 1.57145 8.75365C1.57237 9.63732 1.57165 10.5211 1.57165 11.4048ZM18.8573 11.38C18.8573 10.5044 18.8566 9.62893 18.8575 8.75344C18.8581 8.21203 19.1751 7.85439 19.6485 7.85766C20.1107 7.86087 20.4281 8.21792 20.4284 8.7412C20.4293 10.5086 20.4293 12.276 20.4284 14.0435C20.4281 14.5673 20.1115 14.924 19.6492 14.9276C19.1776 14.9312 18.8581 14.5707 18.8575 14.0312C18.8568 13.1474 18.8573 12.2637 18.8573 11.38Z" fill="white"/>
</svg>
