<svg width="3" height="2" viewBox="0 0 3 2" fill="none" xmlns="http://www.w3.org/2000/svg">
<path d="M2.64218 0.68041C2.63192 0.582825 2.59707 0.490006 2.5413 0.411756C2.48554 0.333506 2.41094 0.272738 2.32538 0.235877C2.04209 0.0950929 1.73531 0.0156199 1.42289 0.00208013C1.11046 -0.0114596 0.798641 0.0412037 0.505521 0.157008C0.23591 0.271727 0.0876137 0.436632 0.0741332 0.60154C0.0606526 0.766448 0.00674028 1.1823 0 1.31853C0.0102533 1.41612 0.0450895 1.50894 0.100853 1.58719C0.156617 1.66544 0.231216 1.7262 0.316773 1.76307C0.889006 2.04587 1.54309 2.0768 2.13666 1.84911C2.40627 1.73439 2.55455 1.56948 2.57477 1.40457C2.59499 1.23966 2.64218 0.816638 2.64218 0.68041Z" fill="#37474F"/>
</svg>
