<svg width="61" height="112" viewBox="0 0 61 112" fill="none" xmlns="http://www.w3.org/2000/svg">
<path d="M60.3722 51.9017L49.9202 58.3853L43.4968 62.3512C43.2901 62.4646 43.0884 62.5943 42.8918 62.7294C41.6383 63.5505 40.6041 64.7047 39.8895 66.0802C39.1748 67.4557 38.804 69.0057 38.8128 70.58V102.755C38.8171 104.188 38.5056 105.602 37.9037 106.882C37.3018 108.161 36.4265 109.271 35.349 110.12C33.8549 111.327 32.0373 111.987 30.1659 112C28.6564 111.996 27.1746 111.566 25.8702 110.752C21.9383 108.317 18.6733 104.817 16.4033 100.602C14.1332 96.3874 12.938 91.6068 12.9376 86.7405V53.3551C12.9385 48.4864 11.7433 43.7033 9.47228 39.4865C7.20123 35.2698 3.93434 31.768 0 29.3331L47.4497 0C51.3832 2.43622 54.6497 5.93818 56.9214 10.1545C59.1931 14.3709 60.3901 19.1533 60.3923 24.0219V38.5561C60.3772 42.7165 60.3722 51.9017 60.3722 51.9017Z" fill="#F5F5F5"/>
</svg>
