<svg width="256" height="85" viewBox="0 0 256 85" fill="none" xmlns="http://www.w3.org/2000/svg">
<path d="M228.316 40.2922L190.33 16.9816C190.167 16.9225 190.025 16.8105 189.924 16.6612C189.823 16.5119 189.769 16.3328 189.769 16.1491C189.769 15.9653 189.823 15.7863 189.924 15.6369C190.025 15.4876 190.167 15.3756 190.33 15.3165L214.748 0.344472C215.169 0.118018 215.633 0 216.104 0C216.575 0 217.039 0.118018 217.459 0.344472L255.439 23.6551C255.603 23.7141 255.745 23.8262 255.845 23.9755C255.946 24.1248 256 24.3039 256 24.4876C256 24.6713 255.946 24.8504 255.845 24.9997C255.745 25.149 255.603 25.2611 255.439 25.3201L231.021 40.2989C230.601 40.5232 230.138 40.6395 229.668 40.6383C229.198 40.6372 228.735 40.5186 228.316 40.2922Z" fill="#E0E0E0"/>
<path d="M63.8191 84.6423C99.0654 84.6423 127.638 67.0941 127.638 45.4472C127.638 23.8003 99.0654 6.25204 63.8191 6.25204C28.5728 6.25204 0 23.8003 0 45.4472C0 67.0941 28.5728 84.6423 63.8191 84.6423Z" fill="#E0E0E0"/>
<path d="M124.063 63.0434C147.02 63.0434 165.63 51.6139 165.63 37.515C165.63 23.416 147.02 11.9865 124.063 11.9865C101.106 11.9865 82.4958 23.416 82.4958 37.515C82.4958 51.6139 101.106 63.0434 124.063 63.0434Z" fill="#E0E0E0"/>
</svg>
