<svg width="24" height="84" viewBox="0 0 24 84" fill="none" xmlns="http://www.w3.org/2000/svg">
<path d="M19.6088 0C19.6088 0 21.1335 0.207946 22.1905 0.405495C21.7395 2.66709 21.4494 4.95004 21.3218 7.24173C21.3218 9.60712 21.662 12.4144 20.3803 16.3706C19.0985 20.3268 18.5579 25.5722 19.8396 28.6134C22.0454 33.718 23.1826 39.1153 23.1989 44.5577C23.2839 52.2154 22.4456 74.3929 22.4456 74.3929C22.4456 76.8414 0 86.0379 0 83.5893C0 83.5893 0.315882 64.0007 0.230837 55.4697C0.145793 46.9387 2.16256 40.7419 2.92796 37.3108C3.69336 33.8797 3.66298 28.1612 2.39339 25.5566C1.1238 22.9521 1.42754 20.8362 1.68267 17.3843C1.81259 15.1893 1.53371 12.9905 0.85652 10.8704C1.64041 9.71397 2.57586 8.63782 3.64475 7.66283C3.64475 7.66283 4.18539 17.3739 11.0497 13.9792C17.914 10.5845 19.6088 0 19.6088 0Z" fill="#455A64"/>
</svg>
