<svg width="29" height="29" viewBox="0 0 29 29" fill="none" xmlns="http://www.w3.org/2000/svg">
<path d="M8.78527 28.0549C8.63848 28.3549 8.40563 28.6046 8.11631 28.7722C7.82699 28.9399 7.49426 29.0179 7.16038 28.9965C6.82651 28.9751 6.50655 28.8551 6.24115 28.6518C5.97576 28.4485 5.77691 28.1711 5.66986 27.8549C5.56282 27.5386 5.5524 27.1977 5.63994 26.8755C5.72748 26.5533 5.90903 26.2643 6.16152 26.0453C6.41401 25.8263 6.72605 25.6871 7.058 25.6454C7.38995 25.6037 7.72683 25.6614 8.02584 25.8111C8.423 26.01 8.7255 26.3572 8.86768 26.7773C9.00987 27.1974 8.98025 27.6565 8.78527 28.0549Z" fill="#37474F"/>
<path d="M5.42721 26.5184C4.7184 25.4533 5.17829 24.523 6.46088 24.443C7.16055 24.436 7.85197 24.5941 8.47882 24.9043C9.10568 25.2144 9.65025 25.668 10.0682 26.2279C10.7812 27.2972 10.3171 28.2275 9.03873 28.3075C8.33793 28.315 7.64532 28.1567 7.0176 27.8458C6.38987 27.5348 5.84487 27.0799 5.42721 26.5184Z" fill="#455A64"/>
<path d="M5.64204 25.95C4.90792 24.8513 5.38467 23.8915 6.70524 23.8073C7.42439 23.8013 8.13484 23.9644 8.77911 24.2833C9.42338 24.6021 9.98338 25.0678 10.4138 25.6427C11.1479 26.7415 10.6754 27.7013 9.35481 27.7855C8.63507 27.7914 7.92401 27.6284 7.27906 27.3095C6.63411 26.9907 6.07334 26.525 5.64204 25.95Z" fill="#37474F"/>
<path d="M5.86135 25.386C5.10613 24.2536 5.59554 23.2812 6.95408 23.1759C7.69733 23.1675 8.43207 23.3343 9.0985 23.6628C9.76492 23.9912 10.3442 24.472 10.7892 25.0661C11.5444 26.1985 11.055 27.171 9.69648 27.2762C8.95323 27.2846 8.21849 27.1178 7.55206 26.7894C6.88563 26.4609 6.30635 25.9801 5.86135 25.386Z" fill="#455A64"/>
<path d="M6.08923 24.7588C5.30871 23.5927 5.81499 22.5739 7.21572 22.4813C7.98167 22.4742 8.73856 22.647 9.42527 22.9855C10.112 23.3241 10.7093 23.8191 11.169 24.4304C11.9495 25.5965 11.4432 26.6195 10.0383 26.7079C9.27276 26.716 8.51613 26.5437 7.82993 26.205C7.14373 25.8663 6.54733 25.3708 6.08923 24.7588Z" fill="#37474F"/>
<path d="M6.34657 24.1231C5.55339 22.9317 6.06811 21.8919 7.49838 21.7993C8.27986 21.7911 9.05229 21.9667 9.75305 22.3119C10.4538 22.6571 11.0632 23.1622 11.5318 23.7863C12.325 24.9777 11.8103 26.0175 10.38 26.1101C9.59852 26.1183 8.82609 25.9427 8.12533 25.5975C7.42456 25.2523 6.81518 24.7471 6.34657 24.1231Z" fill="#455A64"/>
<path d="M17.0291 7.63764C15.1266 6.70547 12.9315 6.56303 10.9241 7.2415C8.91657 7.91997 7.26008 9.3641 6.31692 11.258C3.50281 16.937 7.73031 20.1953 6.59538 22.4812C6.50816 22.7089 6.4833 22.9557 6.52334 23.1961C6.56338 23.4366 6.66689 23.6621 6.82322 23.8494C7.22915 24.3909 7.75752 24.8291 8.36531 25.1283C8.9731 25.4275 9.64313 25.5793 10.3208 25.5712C10.5642 25.5821 10.8061 25.5277 11.0213 25.4137C11.2365 25.2997 11.4171 25.1302 11.5443 24.9229C12.6751 22.6328 17.8392 24.0051 20.6533 18.3304C21.5892 16.4322 21.7333 14.2413 21.054 12.2373C20.3748 10.2333 18.9276 8.57945 17.0291 7.63764Z" fill="#0060FF"/>
<g opacity="0.6">
<path d="M17.0291 7.63764C15.1266 6.70547 12.9315 6.56303 10.9241 7.2415C8.91657 7.91997 7.26008 9.3641 6.31692 11.258C3.50281 16.937 7.73031 20.1953 6.59538 22.4812C6.50816 22.7089 6.4833 22.9557 6.52334 23.1961C6.56338 23.4366 6.66689 23.6621 6.82322 23.8494C7.22915 24.3909 7.75752 24.8291 8.36531 25.1283C8.9731 25.4275 9.64313 25.5793 10.3208 25.5712C10.5642 25.5821 10.8061 25.5277 11.0213 25.4137C11.2365 25.2997 11.4171 25.1302 11.5443 24.9229C12.6751 22.6328 17.8392 24.0051 20.6533 18.3304C21.5892 16.4322 21.7333 14.2413 21.054 12.2373C20.3748 10.2333 18.9276 8.57945 17.0291 7.63764Z" fill="white"/>
</g>
<path d="M7.40996 23.7526C6.89102 22.9738 7.22432 22.2961 8.16096 22.2371C8.67028 22.2325 9.17355 22.3475 9.63014 22.5727C10.0867 22.7979 10.4838 23.1271 10.7894 23.5337C11.3084 24.3125 10.9751 24.9903 10.0384 25.0492C9.52912 25.0538 9.02584 24.9389 8.56925 24.7137C8.11266 24.4884 7.71555 24.1592 7.40996 23.7526Z" fill="#0060FF"/>
<path d="M10.1441 23.9377C10.0808 23.906 10.0322 23.8509 10.0086 23.7842C9.98497 23.7175 9.98819 23.6443 10.0175 23.5799C10.7056 22.2044 11.5554 20.9155 12.549 19.7406C12.8332 19.4 13.1405 19.0793 13.4687 18.7808C13.2924 18.5936 13.1355 18.389 13.0004 18.1703C12.7537 17.7789 12.5661 17.3534 12.4435 16.9074C12.0134 17.0821 11.56 17.1928 11.0976 17.2358C10.841 17.2633 10.5822 17.2633 10.3255 17.2358C10.2863 17.6777 10.2172 18.1165 10.1188 18.5492C9.78387 20.0418 9.27112 21.489 8.5915 22.86C8.55793 22.9236 8.5004 22.9714 8.43156 22.9927C8.36273 23.014 8.28822 23.0072 8.22444 22.9737C8.16066 22.9402 8.11283 22.8828 8.09146 22.8141C8.0701 22.7454 8.07696 22.6711 8.11052 22.6074C8.76451 21.266 9.26006 19.8533 9.5872 18.3977C9.68499 17.9666 9.75127 17.5291 9.78549 17.0884C9.51936 17.0182 9.2745 16.884 9.07227 16.6976C8.87004 16.5112 8.71657 16.2783 8.62525 16.0192C8.55406 15.8259 8.55447 15.6136 8.62643 15.4206C8.69838 15.2276 8.83714 15.0666 9.01763 14.9667C9.14075 14.8958 9.28211 14.8628 9.42397 14.8718C9.56584 14.8808 9.70189 14.9314 9.81503 15.0172C10.161 15.2825 10.3382 15.8592 10.3424 16.659C10.575 16.6868 10.8102 16.6868 11.0428 16.659C11.4881 16.6172 11.9239 16.5049 12.3338 16.3265C12.2821 16.062 12.2838 15.7898 12.3389 15.5259C12.3939 15.2621 12.5012 15.0119 12.6545 14.7899C12.7667 14.672 12.9138 14.593 13.0742 14.5645C13.2346 14.536 13.4 14.5594 13.5461 14.6314C13.6922 14.7034 13.8115 14.8201 13.8864 14.9645C13.9613 15.1089 13.9879 15.2734 13.9624 15.434C13.8863 15.6964 13.7567 15.9403 13.5818 16.1504C13.4068 16.3605 13.1902 16.5322 12.9456 16.6548C13.051 17.0905 13.2278 17.5058 13.4687 17.8841C13.5877 18.0822 13.7293 18.2658 13.8906 18.4313C14.5277 17.9472 15.0973 17.7409 15.5192 17.8546C15.6561 17.8924 15.7788 17.9697 15.8719 18.0768C15.9649 18.1839 16.0243 18.316 16.0424 18.4566C16.0711 18.6602 16.0267 18.8674 15.917 19.0415C15.8074 19.2156 15.6396 19.3454 15.4433 19.408C15.1817 19.492 14.9035 19.5109 14.633 19.4632C14.3624 19.4155 14.1076 19.3027 13.8906 19.1344C13.5519 19.4286 13.236 19.7481 12.9456 20.09C11.9853 21.229 11.1626 22.4766 10.4943 23.8072C10.4793 23.8398 10.458 23.8691 10.4316 23.8933C10.4052 23.9176 10.3741 23.9363 10.3404 23.9485C10.3066 23.9607 10.2707 23.966 10.2348 23.9641C10.1989 23.9622 10.1638 23.9533 10.1315 23.9377H10.1441ZM9.45219 15.4508C9.42197 15.4385 9.38912 15.4339 9.35667 15.4376C9.32422 15.4413 9.29322 15.4531 9.26655 15.4719C9.06825 15.5771 9.12311 15.8213 9.1442 15.8929C9.19728 16.0429 9.2831 16.1792 9.39547 16.2921C9.50784 16.4049 9.64395 16.4914 9.79393 16.5454C9.82578 16.166 9.7161 15.7882 9.48594 15.4845L9.45219 15.4508ZM14.3379 18.7765C14.471 18.8617 14.6212 18.9167 14.7779 18.9378C14.9346 18.9589 15.094 18.9455 15.245 18.8986C15.3167 18.8734 15.5403 18.7681 15.5023 18.5492C15.4812 18.4229 15.4264 18.3893 15.3715 18.3766C15.1943 18.3261 14.8315 18.4271 14.3379 18.7765ZM13.3084 15.1477C13.2896 15.1338 13.2682 15.1237 13.2455 15.1181C13.2228 15.1125 13.1992 15.1114 13.176 15.1149C13.1529 15.1184 13.1307 15.1265 13.1107 15.1386C13.0907 15.1508 13.0733 15.1667 13.0595 15.1856C12.8836 15.4464 12.8086 15.7621 12.8485 16.0739C13.1201 15.9159 13.3264 15.6667 13.4308 15.3709C13.4439 15.3251 13.4384 15.276 13.4155 15.2343C13.3926 15.1925 13.3541 15.1614 13.3084 15.1477Z" fill="white"/>
<path d="M18.4302 4.93504C18.3836 4.92684 18.3382 4.91269 18.2952 4.89295C18.1711 4.83135 18.0763 4.72351 18.0313 4.59274C17.9863 4.46197 17.9947 4.31878 18.0547 4.19413L19.2487 1.75248C19.3091 1.62855 19.4164 1.53364 19.547 1.48864C19.6775 1.44364 19.8206 1.45223 19.9448 1.51252C20.069 1.57281 20.1641 1.67986 20.2092 1.81013C20.2543 1.94039 20.2457 2.0832 20.1853 2.20713L18.9955 4.64878C18.9463 4.75213 18.8641 4.83628 18.7618 4.88807C18.6595 4.93986 18.5429 4.95638 18.4302 4.93504Z" fill="#E0E0E0"/>
<path d="M12.523 3.7984C12.4103 3.7758 12.3081 3.7171 12.232 3.63123C12.1558 3.54536 12.1098 3.43702 12.1011 3.32269L11.907 0.611616C11.8943 0.53925 11.8972 0.465036 11.9152 0.393828C11.9333 0.32262 11.9662 0.256022 12.0119 0.198385C12.0575 0.140748 12.1148 0.0933711 12.1801 0.0593524C12.2453 0.0253336 12.3171 0.00543855 12.3905 0.000967773C12.464 -0.00350301 12.5376 0.00755109 12.6065 0.0334076C12.6754 0.0592641 12.7381 0.0993408 12.7904 0.151017C12.8427 0.202694 12.8835 0.264808 12.9102 0.333297C12.9368 0.401785 12.9486 0.475108 12.9449 0.54847L13.139 3.25955C13.1441 3.32758 13.1358 3.39597 13.1144 3.46077C13.093 3.52558 13.0589 3.58552 13.0142 3.63716C12.9695 3.6888 12.9151 3.73112 12.8539 3.76168C12.7928 3.79224 12.7262 3.81044 12.658 3.81523C12.6124 3.81609 12.5669 3.81042 12.523 3.7984Z" fill="#E0E0E0"/>
<path d="M6.82716 5.75596C6.69143 5.72979 6.57161 5.65109 6.49385 5.53705L4.96655 3.28484C4.91144 3.2311 4.86891 3.16588 4.84199 3.09383C4.81508 3.02179 4.80445 2.94471 4.81085 2.86809C4.81726 2.79147 4.84055 2.7172 4.87906 2.65061C4.91757 2.58402 4.97036 2.52673 5.03363 2.48285C5.09691 2.43897 5.16912 2.40958 5.2451 2.39678C5.32108 2.38398 5.39895 2.38808 5.47316 2.4088C5.54737 2.42951 5.61607 2.46633 5.67436 2.51661C5.73265 2.5669 5.77909 2.62941 5.81036 2.69968L7.33767 4.9519C7.41485 5.06691 7.44309 5.20779 7.41619 5.34357C7.38929 5.47935 7.30944 5.59892 7.19421 5.67598C7.08633 5.74783 6.95524 5.7764 6.82716 5.75596Z" fill="#E0E0E0"/>
<path d="M2.88722 10.2941C2.84162 10.285 2.79758 10.2694 2.75643 10.2478L0.288273 9.06063C0.164068 8.99811 0.0698433 8.88891 0.0263257 8.75707C-0.0171918 8.62522 -0.00643929 8.48153 0.0562228 8.3576C0.118885 8.23367 0.228324 8.13965 0.36046 8.09623C0.492595 8.05281 0.636601 8.06354 0.760806 8.12607L3.21208 9.31321C3.32851 9.36699 3.42108 9.46158 3.47218 9.57901C3.52328 9.69643 3.52936 9.82849 3.48925 9.95009C3.44915 10.0717 3.36567 10.1743 3.25467 10.2385C3.14367 10.3027 3.0129 10.324 2.88722 10.2983V10.2941Z" fill="#E0E0E0"/>
<path d="M21.383 27.2214C21.3151 27.209 21.2503 27.1832 21.1923 27.1457C21.1344 27.1081 21.0845 27.0594 21.0455 27.0025L19.5182 24.7503C19.4487 24.6358 19.4258 24.4991 19.4544 24.3683C19.483 24.2375 19.5609 24.1227 19.672 24.0476C19.783 23.9724 19.9187 23.9428 20.0511 23.9646C20.1834 23.9865 20.3023 24.0583 20.3831 24.1652L21.9104 26.4174C21.9869 26.5322 22.0152 26.6724 21.9891 26.8078C21.9631 26.9432 21.8848 27.063 21.7712 27.1414C21.6575 27.2183 21.5179 27.2471 21.383 27.2214Z" fill="#E0E0E0"/>
<path d="M26.2395 21.6225C26.1929 21.6143 26.1475 21.6001 26.1045 21.5804L23.6574 20.3932C23.5386 20.3294 23.4491 20.2224 23.4075 20.0943C23.366 19.9662 23.3756 19.8271 23.4344 19.706C23.4932 19.5848 23.5966 19.491 23.7231 19.4441C23.8495 19.3973 23.9893 19.401 24.1131 19.4544L26.5643 20.6416C26.6767 20.6977 26.765 20.7923 26.8132 20.9081C26.8614 21.0239 26.8663 21.1531 26.8268 21.2721C26.7874 21.3912 26.7064 21.4921 26.5985 21.5564C26.4907 21.6207 26.3632 21.6442 26.2395 21.6225Z" fill="#E0E0E0"/>
<path d="M24.9315 14.5417C24.8084 14.5165 24.6985 14.448 24.6219 14.3486C24.5453 14.2493 24.507 14.1257 24.5142 14.0005C24.5214 13.8753 24.5735 13.7569 24.6609 13.6669C24.7484 13.5769 24.8654 13.5213 24.9906 13.5103L27.7077 13.3166C27.7784 13.3077 27.8501 13.3132 27.9186 13.3329C27.9871 13.3526 28.0508 13.386 28.1059 13.4311C28.1609 13.4762 28.2062 13.5321 28.2388 13.5953C28.2714 13.6585 28.2908 13.7277 28.2957 13.7986C28.3006 13.8696 28.2909 13.9407 28.2672 14.0078C28.2436 14.0749 28.2064 14.1364 28.1581 14.1886C28.1098 14.2409 28.0512 14.2827 27.9861 14.3115C27.921 14.3404 27.8507 14.3557 27.7794 14.3564L25.0623 14.5501C25.0186 14.5537 24.9745 14.5509 24.9315 14.5417Z" fill="#E0E0E0"/>
<path d="M22.9658 8.86698C22.8294 8.83974 22.7086 8.76141 22.6283 8.64808C22.5518 8.53325 22.5235 8.39305 22.5495 8.25764C22.5756 8.12223 22.6538 8.00243 22.7675 7.924L25.0247 6.40428C25.1416 6.3278 25.2842 6.3008 25.4211 6.32922C25.558 6.35765 25.6779 6.43916 25.7546 6.55583C25.8312 6.67251 25.8583 6.81478 25.8298 6.95136C25.8013 7.08794 25.7196 7.20764 25.6027 7.28412L23.3455 8.80384C23.2319 8.8731 23.0958 8.89573 22.9658 8.86698Z" fill="#E0E0E0"/>
</svg>
