<svg width="28" height="12" viewBox="0 0 28 12" fill="none" xmlns="http://www.w3.org/2000/svg">
<path d="M27.1963 11.9998C27.0861 11.8004 26.9966 11.5889 26.9293 11.369L26.2764 9.5478C25.7052 7.90788 24.9337 5.66086 24.0064 2.98023L24.2141 3.09062L16.2392 5.86586L16.0908 5.91316L16.0092 5.77914L15.3341 4.63592L12.886 0.315364L13.116 0.402103L3.74636 4.24171L1.00892 5.32184C0.68192 5.46607 0.344523 5.58208 0 5.66875C0.306431 5.48381 0.626479 5.32561 0.956991 5.19569L3.65734 4.00519L12.975 0.0630872L13.1234 0L13.205 0.14191L15.6976 4.42306C15.9276 4.82515 16.165 5.21146 16.3801 5.5899L16.1576 5.50319L24.1473 2.78313L24.3031 2.73582L24.355 2.89352L26.4916 9.50836C26.729 10.2968 26.9144 10.8881 27.0628 11.369C27.1244 11.5748 27.1691 11.7858 27.1963 11.9998Z" fill="white"/>
</svg>
