<svg width="83" height="38" viewBox="0 0 83 38" fill="none" xmlns="http://www.w3.org/2000/svg">
<path d="M51.7497 34.8762H0V37.4098H51.7497V34.8762Z" fill="#455A64"/>
<path d="M26.0442 34.8762H0V37.4098H26.0442V34.8762Z" fill="#A6A6A6"/>
<path d="M25.4393 37.4051H75.8723L82.9999 0H32.5668L25.4393 37.4051Z" fill="#C7C7C7"/>
<path d="M50.3086 19.5384C50.2524 20.0017 50.2884 20.4729 50.4143 20.9196C50.5401 21.3663 50.7529 21.7781 51.0379 22.1267C51.323 22.4753 51.6736 22.7526 52.0658 22.9396C52.4581 23.1266 52.8827 23.2189 53.3106 23.2101C54.2305 23.1881 55.1124 22.8049 55.7945 22.1305C56.4766 21.4561 56.9133 20.5359 57.0245 19.5384C57.0808 19.0751 57.0447 18.6039 56.9189 18.1572C56.793 17.7105 56.5803 17.2988 56.2952 16.9501C56.0102 16.6015 55.6595 16.3242 55.2673 16.1372C54.875 15.9502 54.4504 15.858 54.0225 15.8667C53.1029 15.8896 52.2215 16.2733 51.5396 16.9474C50.8576 17.6216 50.4207 18.5413 50.3086 19.5384Z" fill="white"/>
</svg>
