<svg width="27" height="44" viewBox="0 0 27 44" fill="none" xmlns="http://www.w3.org/2000/svg">
<path d="M18.0269 11.9901L12.8318 14.9717C12.5756 19.126 12.328 22.5548 12.089 25.258C11.8499 27.9613 11.618 30.2983 11.3932 32.2689C11.1655 34.2566 10.9321 36.0711 10.6931 37.7124C10.5459 38.8312 10.2591 39.9273 9.83933 40.9751C9.45645 41.867 8.88914 42.6682 8.1745 43.3262C7.95456 43.5714 7.67181 43.752 7.35667 43.8488C7.04153 43.9457 6.70591 43.9549 6.38588 43.8757C6.10502 43.7977 5.85368 43.6383 5.6637 43.4176C5.47372 43.197 5.35364 42.925 5.31868 42.6362C5.23214 42.2003 5.20913 41.7541 5.25038 41.3116C5.29758 40.9145 5.38045 40.5225 5.49798 40.1402C5.61298 39.7654 5.74835 39.3972 5.9035 39.0371C6.05149 38.6935 6.20944 38.3442 6.37735 37.9893C6.42003 37.8828 6.68042 37.3248 7.15426 36.3153C7.56316 35.4589 7.91955 34.5784 8.22145 33.6788C8.45911 32.9392 8.60954 32.1744 8.66968 31.4L10.0186 16.5902L7.83726 17.8468C7.15575 18.261 6.56018 18.8017 6.0828 19.4398C5.56873 20.0829 5.13842 20.7885 4.80216 21.5396L3.83314 24.0143L3.04769 24.4956C3.25686 23.5969 3.52152 22.515 3.83314 21.2457C4.17059 19.9118 4.60722 18.6048 5.1394 17.3356C5.59404 16.1912 6.18297 15.1046 6.89387 14.0985C7.55583 13.1113 8.43102 12.2847 9.45514 11.6792L26.637 1.78045V7.03224L20.8357 10.3758C20.4601 15.3593 20.2722 20.2646 20.2722 25.0919C20.261 25.8968 20.3748 26.6985 20.6095 27.4687C20.7375 28.0192 21.0273 28.519 21.4419 28.9041C21.6716 29.0428 21.9309 29.1255 22.1986 29.1454C22.4664 29.1654 22.7351 29.1221 22.9829 29.0191C23.5891 28.8174 24.2066 28.2069 24.8356 27.1875C25.1626 26.671 25.4168 26.1121 25.5911 25.5264C25.735 25.0391 25.8365 24.5403 25.8942 24.0356C25.9412 23.6097 25.9839 23.1454 26.0308 22.7024L26.9956 22.1445C26.9614 25.1512 26.3317 28.1215 25.1429 30.8847C24.7506 31.7989 24.2611 32.6685 23.683 33.4786C23.1627 34.2073 22.5234 34.8437 21.7919 35.3612C21.0705 35.8638 20.4131 36.0214 19.8112 35.8255C18.8266 35.4393 18.0781 34.366 17.5658 32.6054C17.2292 31.1416 17.0659 29.6434 17.0792 28.1416C17.0422 26.1965 17.092 24.2486 17.2286 22.2978L18.0269 11.9901Z" fill="#0060FF"/>
<g opacity="0.2">
<path d="M18.0269 11.9901L12.8318 14.9717C12.5756 19.126 12.328 22.5548 12.089 25.258C11.8499 27.9613 11.618 30.2983 11.3932 32.2689C11.1655 34.2566 10.9321 36.0711 10.6931 37.7124C10.5459 38.8312 10.2591 39.9273 9.83933 40.9751C9.45645 41.867 8.88914 42.6682 8.1745 43.3262C7.95456 43.5714 7.67181 43.752 7.35667 43.8488C7.04153 43.9457 6.70591 43.9549 6.38588 43.8757C6.10502 43.7977 5.85368 43.6383 5.6637 43.4176C5.47372 43.197 5.35364 42.925 5.31868 42.6362C5.23214 42.2003 5.20913 41.7541 5.25038 41.3116C5.29758 40.9145 5.38045 40.5225 5.49798 40.1402C5.61298 39.7654 5.74835 39.3972 5.9035 39.0371C6.05149 38.6935 6.20944 38.3442 6.37735 37.9893C6.42003 37.8828 6.68042 37.3248 7.15426 36.3153C7.56316 35.4589 7.91955 34.5784 8.22145 33.6788C8.45911 32.9392 8.60954 32.1744 8.66968 31.4L10.0186 16.5902L7.83726 17.8468C7.15575 18.261 6.56018 18.8017 6.0828 19.4398C5.56873 20.0829 5.13842 20.7885 4.80216 21.5396L3.83314 24.0143L3.04769 24.4956C3.25686 23.5969 3.52152 22.515 3.83314 21.2457C4.17059 19.9118 4.60722 18.6048 5.1394 17.3356C5.59404 16.1912 6.18297 15.1046 6.89387 14.0985C7.55583 13.1113 8.43102 12.2847 9.45514 11.6792L26.637 1.78045V7.03224L20.8357 10.3758C20.4601 15.3593 20.2722 20.2646 20.2722 25.0919C20.261 25.8968 20.3748 26.6985 20.6095 27.4687C20.7375 28.0192 21.0273 28.519 21.4419 28.9041C21.6716 29.0428 21.9309 29.1255 22.1986 29.1454C22.4664 29.1654 22.7351 29.1221 22.9829 29.0191C23.5891 28.8174 24.2066 28.2069 24.8356 27.1875C25.1626 26.671 25.4168 26.1121 25.5911 25.5264C25.735 25.0391 25.8365 24.5403 25.8942 24.0356C25.9412 23.6097 25.9839 23.1454 26.0308 22.7024L26.9956 22.1445C26.9614 25.1512 26.3317 28.1215 25.1429 30.8847C24.7506 31.7989 24.2611 32.6685 23.683 33.4786C23.1627 34.2073 22.5234 34.8437 21.7919 35.3612C21.0705 35.8638 20.4131 36.0214 19.8112 35.8255C18.8266 35.4393 18.0781 34.366 17.5658 32.6054C17.2292 31.1416 17.0659 29.6434 17.0792 28.1416C17.0422 26.1965 17.092 24.2486 17.2286 22.2978L18.0269 11.9901Z" fill="white"/>
</g>
<path d="M23.5936 0.00432629L6.41171 9.90307C5.39044 10.5123 4.51601 11.3383 3.85044 12.3224C3.13972 13.3263 2.54945 14.4099 2.0917 15.551C1.56083 16.8202 1.12563 18.1272 0.789728 19.4611C0.473838 20.7389 0.213439 21.8122 0 22.711L3.04791 24.4658C3.25708 23.5671 3.52174 22.4852 3.83336 21.2159C4.17081 19.882 4.60745 18.575 5.13962 17.3058C5.40909 16.6293 5.72723 15.9731 6.09155 15.3423C6.33914 14.9163 6.59954 14.4904 6.89409 14.0645C7.55606 13.0773 8.43124 12.2506 9.45536 11.6452L26.6372 1.7464L23.5936 0.00432629Z" fill="#0060FF"/>
<g opacity="0.5">
<path d="M23.5936 0.00432629L6.41171 9.90307C5.39044 10.5123 4.51601 11.3383 3.85044 12.3224C3.13972 13.3263 2.54945 14.4099 2.0917 15.551C1.56083 16.8202 1.12563 18.1272 0.789728 19.4611C0.473838 20.7389 0.213439 21.8122 0 22.711L3.04791 24.4658C3.25708 23.5671 3.52174 22.4852 3.83336 21.2159C4.17081 19.882 4.60745 18.575 5.13962 17.3058C5.40909 16.6293 5.72723 15.9731 6.09155 15.3423C6.33914 14.9163 6.59954 14.4904 6.89409 14.0645C7.55606 13.0773 8.43124 12.2506 9.45536 11.6452L26.6372 1.7464L23.5936 0.00432629Z" fill="white"/>
</g>
<g opacity="0.5">
<path d="M5.1394 17.3186C5.40887 16.642 5.72701 15.9858 6.09133 15.355C6.33892 14.9291 6.59932 14.5031 6.89387 14.0772C7.55583 13.09 8.43102 12.2633 9.45514 11.6579L26.637 1.75912L23.5891 0L25.5613 1.75912L9.42525 10.9508C7.52991 12.0284 4.76801 14.1794 3.04769 24.4785C3.25686 23.5798 3.52152 22.4979 3.83314 21.2286C4.17059 19.8947 4.60722 18.5877 5.1394 17.3186Z" fill="white"/>
</g>
<path d="M23.9519 20.3852L26.9998 22.1401L26.0351 22.6981L22.9872 20.9432L23.9519 20.3852Z" fill="#0060FF"/>
<g opacity="0.5">
<path d="M23.9519 20.3852L26.9998 22.1401L26.0351 22.6981L22.9872 20.9432L23.9519 20.3852Z" fill="white"/>
</g>
<path d="M26.035 22.6982L23.9006 21.4757L23.0084 20.9433C22.9615 21.3693 22.9188 21.8293 22.8718 22.2765C22.8161 22.7815 22.7147 23.2805 22.5687 23.7673C22.394 24.3521 22.1413 24.9108 21.8174 25.4284C21.482 26.0215 21.0356 26.5449 20.5027 26.9703C20.5411 27.1407 20.5838 27.3068 20.635 27.4644C20.763 28.0149 21.0528 28.5147 21.4674 28.8998C21.6633 29.0312 21.8896 29.1104 22.1248 29.1298C22.4242 29.1559 22.7257 29.1167 23.0084 29.0148C23.6146 28.8132 24.2321 28.2027 24.8611 27.1833C25.1881 26.6668 25.4423 26.1078 25.6167 25.5221C25.7606 25.0349 25.862 24.5361 25.9197 24.0314C25.9667 23.6054 26.0094 23.1411 26.0564 22.6982" fill="#0060FF"/>
<g opacity="0.15">
<path d="M26.035 22.6982L23.9006 21.4757L23.0084 20.9433C22.9615 21.3693 22.9188 21.8293 22.8718 22.2765C22.8161 22.7815 22.7147 23.2805 22.5687 23.7673C22.394 24.3521 22.1413 24.9108 21.8174 25.4284C21.482 26.0215 21.0356 26.5449 20.5027 26.9703C20.5411 27.1407 20.5838 27.3068 20.635 27.4644C20.763 28.0149 21.0528 28.5147 21.4674 28.8998C21.6633 29.0312 21.8896 29.1104 22.1248 29.1298C22.4242 29.1559 22.7257 29.1167 23.0084 29.0148C23.6146 28.8132 24.2321 28.2027 24.8611 27.1833C25.1881 26.6668 25.4423 26.1078 25.6167 25.5221C25.7606 25.0349 25.862 24.5361 25.9197 24.0314C25.9667 23.6054 26.0094 23.1411 26.0564 22.6982" fill="black"/>
</g>
<path d="M18.1037 33.9642C17.8921 33.5213 17.7193 33.061 17.5872 32.5884C17.4615 32.1138 17.3674 31.6314 17.3054 31.1445C17.1828 30.1423 17.1158 29.1341 17.1048 28.1246C17.065 26.1823 17.1133 24.2344 17.2499 22.2807C17.5018 18.9712 17.8305 14.6948 18.0354 11.9816L14.71 13.8983L14.202 20.5216C14.0654 22.4752 14.017 24.4232 14.0569 26.3655C14.0423 27.8685 14.2042 29.3681 14.5393 30.8335C15.0003 32.4237 15.6577 33.4516 16.5114 33.9173L19.474 35.621C18.8657 35.2132 18.3895 34.6375 18.1037 33.9642Z" fill="#0060FF"/>
<path opacity="0.3" d="M18.1037 33.9642C17.8921 33.5213 17.7193 33.061 17.5872 32.5884C17.4615 32.1138 17.3674 31.6314 17.3054 31.1445C17.1828 30.1423 17.1158 29.1341 17.1048 28.1246C17.065 26.1823 17.1133 24.2344 17.2499 22.2807C17.5018 18.9712 17.8305 14.6948 18.0354 11.9816L14.71 13.8983L14.202 20.5216C14.0654 22.4752 14.017 24.4232 14.0569 26.3655C14.0423 27.8685 14.2042 29.3681 14.5393 30.8335C15.0003 32.4237 15.6577 33.4516 16.5114 33.9173L19.474 35.621C18.8657 35.2132 18.3895 34.6375 18.1037 33.9642Z" fill="black"/>
<path opacity="0.1" d="M14.7101 13.9068L14.518 16.3986L17.5702 17.6295L17.6086 17.5699C17.7666 15.5169 17.9203 13.5065 18.0355 11.9901L14.7101 13.9068Z" fill="black"/>
<path d="M9.54955 16.8713L7.84203 17.8595C7.51 18.0547 7.20075 18.2861 6.91997 18.5495L6.62542 18.8434L5.63934 29.6494C5.58613 30.423 5.44287 31.1877 5.21246 31.9282C4.90884 32.8264 4.55102 33.7054 4.14099 34.5605C3.67142 35.5742 3.41103 36.1322 3.36834 36.2344C3.20185 36.5922 3.04392 36.9414 2.89451 37.2864C2.73211 37.6447 2.5896 38.0115 2.46763 38.3854C2.35058 38.7692 2.26772 39.1626 2.22003 39.5609C2.1789 40.0035 2.20191 40.4496 2.28833 40.8856C2.31746 41.1059 2.39541 41.3168 2.51651 41.5032C2.63761 41.6896 2.79882 41.8468 2.98842 41.9632L6.01926 43.7181C5.83196 43.6014 5.67306 43.4445 5.55418 43.2588C5.43529 43.0731 5.35938 42.8634 5.33198 42.6447C5.25443 42.2551 5.22717 41.8572 5.25087 41.4606C5.25087 41.4138 5.25087 41.3669 5.25087 41.3201C5.29642 40.9213 5.37932 40.5278 5.49847 40.1445C5.61347 39.7711 5.74884 39.4042 5.904 39.0456C6.02779 38.7559 6.16013 38.4663 6.29673 38.1724C6.29673 38.1085 6.34795 38.0531 6.37357 37.9935L7.15049 36.3196C7.38954 35.8085 7.57736 35.3357 7.77373 34.8927C7.77373 34.8671 7.79508 34.8373 7.80789 34.8118L7.96156 34.4114C7.99571 34.3262 8.02559 34.2368 8.05974 34.1516C8.11524 33.994 8.17073 33.8364 8.21769 33.6873C8.45481 32.9473 8.60662 32.1828 8.67018 31.4085L10.0191 16.5987L9.54955 16.8713Z" fill="#0060FF"/>
<path opacity="0.3" d="M9.54955 16.8713L7.84203 17.8595C7.51 18.0547 7.20075 18.2861 6.91997 18.5495L6.62542 18.8434L5.63934 29.6494C5.58613 30.423 5.44287 31.1877 5.21246 31.9282C4.90884 32.8264 4.55102 33.7054 4.14099 34.5605C3.67142 35.5742 3.41103 36.1322 3.36834 36.2344C3.20185 36.5922 3.04392 36.9414 2.89451 37.2864C2.73211 37.6447 2.5896 38.0115 2.46763 38.3854C2.35058 38.7692 2.26772 39.1626 2.22003 39.5609C2.1789 40.0035 2.20191 40.4496 2.28833 40.8856C2.31746 41.1059 2.39541 41.3168 2.51651 41.5032C2.63761 41.6896 2.79882 41.8468 2.98842 41.9632L6.01926 43.7181C5.83196 43.6014 5.67306 43.4445 5.55418 43.2588C5.43529 43.0731 5.35938 42.8634 5.33198 42.6447C5.25443 42.2551 5.22717 41.8572 5.25087 41.4606C5.25087 41.4138 5.25087 41.3669 5.25087 41.3201C5.29642 40.9213 5.37932 40.5278 5.49847 40.1445C5.61347 39.7711 5.74884 39.4042 5.904 39.0456C6.02779 38.7559 6.16013 38.4663 6.29673 38.1724C6.29673 38.1085 6.34795 38.0531 6.37357 37.9935L7.15049 36.3196C7.38954 35.8085 7.57736 35.3357 7.77373 34.8927C7.77373 34.8671 7.79508 34.8373 7.80789 34.8118L7.96156 34.4114C7.99571 34.3262 8.02559 34.2368 8.05974 34.1516C8.11524 33.994 8.17073 33.8364 8.21769 33.6873C8.45481 32.9473 8.60662 32.1828 8.67018 31.4085L10.0191 16.5987L9.54955 16.8713Z" fill="black"/>
<g opacity="0.1">
<path d="M9.60862 21.0881L10.0355 16.62L9.56594 16.8883L7.85843 17.8765C7.52639 18.0717 7.21714 18.3031 6.93637 18.5665L6.64182 18.8604L6.53937 19.9764L9.60862 21.0881Z" fill="black"/>
</g>
</svg>
