<svg width="10" height="7" viewBox="0 0 10 7" fill="none" xmlns="http://www.w3.org/2000/svg">
<path d="M9.71939 0.306277C9.54165 0.110108 9.30122 0 9.05061 0C8.8 0 8.55957 0.110108 8.38183 0.306277L4.97628 4.03478L1.61816 0.306277C1.44042 0.110108 1.19999 0 0.949379 0C0.698767 0 0.458337 0.110108 0.280601 0.306277C0.191688 0.40419 0.121116 0.52068 0.0729554 0.649028C0.0247951 0.777376 0 0.915042 0 1.05408C0 1.19312 0.0247951 1.33079 0.0729554 1.45914C0.121116 1.58749 0.191688 1.70398 0.280601 1.80189L4.30276 6.26766C4.39094 6.36638 4.49586 6.44474 4.61146 6.49821C4.72706 6.55168 4.85105 6.57921 4.97628 6.57921C5.10151 6.57921 5.2255 6.55168 5.3411 6.49821C5.45669 6.44474 5.56161 6.36638 5.6498 6.26766L9.71939 1.80189C9.8083 1.70398 9.87887 1.58749 9.92703 1.45914C9.97519 1.33079 9.99999 1.19312 9.99999 1.05408C9.99999 0.915042 9.97519 0.777376 9.92703 0.649028C9.87887 0.52068 9.8083 0.40419 9.71939 0.306277Z" fill="black"/>
</svg>
