<svg width="14" height="14" viewBox="0 0 14 14" fill="none" xmlns="http://www.w3.org/2000/svg">
<path d="M7.88266 0.793497V0.0275334C7.59779 0.926705 6.29773 4.78426 4.31917 6.71581C2.76533 8.25329 0.600313 10.0461 0.0564678 11.739C-0.487378 13.4319 3.03984 14.1201 4.51081 13.8426C6.21486 13.5207 8.4265 12.4827 9.62814 10.9009C10.4724 9.79076 11.0111 8.46976 11.6119 7.57059C12.2127 6.67141 13.606 5.71673 13.9323 4.70655C14.1136 4.15151 13.9012 2.93041 13.6474 1.89803C13.4195 0.954455 13.1657 -0.0834802 12.8653 0.00532691V0.588134C12.1548 1.18414 11.2762 1.50321 10.374 1.49286C9.64368 1.54281 7.88266 1.3985 7.88266 0.793497Z" fill="#263238"/>
</svg>
