<svg width="40" height="41" viewBox="0 0 40 41" fill="none" xmlns="http://www.w3.org/2000/svg">
<path d="M39.9177 27.0982C39.9503 26.9253 39.9707 26.7509 39.9787 26.5759C40.1191 24.1213 38.3737 21.7763 35.9754 20.4341C33.8212 19.2277 31.551 18.345 29.6531 16.8044L35.2919 13.7857C38.7399 12.1719 38.5263 8.30709 37.6597 6.29637C35.7374 1.81533 30.0437 0.175424 26.5285 0.0291893C19.8584 -0.231944 16.6179 1.26695 15.9649 4.20731C13.5238 4.05585 9.78904 6.19714 9.42899 12.5636C9.39536 13.8093 9.13384 15.0429 8.65395 16.2194C8.22409 17.2072 7.44559 18.056 6.4265 18.648C4.50417 19.9014 2.15466 20.8571 0.867004 22.6955C0.0796755 23.8207 -0.184179 25.1582 0.127879 26.4422C0.439937 27.7262 1.30506 28.8628 2.55133 29.626C2.65712 29.6782 2.74216 29.7565 2.79543 29.8505C2.81974 29.9506 2.80694 30.0547 2.75882 30.1482C2.36128 31.1112 2.0831 32.1072 1.92886 33.1199C1.5505 36.3528 3.71693 39.6378 7.42122 40.6614C8.74946 41.0011 10.1488 41.0863 11.5198 40.9112C12.8909 40.7361 14.2001 40.3049 15.3546 39.6483C15.7331 39.2892 16.2507 39.0597 16.8117 39.0021C17.3726 38.9444 17.939 39.0627 18.406 39.3349C22.5008 40.9017 27.389 39.9721 31.2947 38.0867C32.5588 37.5661 33.6189 36.7423 34.346 35.7156C35.121 34.4151 34.8953 32.864 34.6572 31.4226C37.2875 31.3912 39.5149 29.3544 39.9177 27.0982Z" fill="#37474F"/>
</svg>
