<svg width="40" height="40" viewBox="0 0 40 40" fill="none" xmlns="http://www.w3.org/2000/svg">
<path d="M36.1094 7.64844L20.0703 7.6875L4.03125 7.60938H4.02344C1.86719 7.60938 0.15625 9.63281 0.15625 12.1641V33.3672C0.15625 35.8984 1.86719 37.9219 4.02344 37.9219H36.1328C38.2891 37.9219 40 35.8984 40 33.3672V12.1641C40 9.63281 38.3047 7.64844 36.1094 7.64844ZM34.8516 10.7734L20.5234 23.875L20.4688 23.9219L20.4219 23.9766C20.25 24.1641 20.0469 24.1875 19.9375 24.1875C19.8281 24.1875 19.625 24.1562 19.4609 23.9609L19.4141 23.9062L5.71875 10.7109L20.0703 10.8047L34.8516 10.7734ZM36.1328 34.7969H4.02344C3.75 34.7969 3.28125 34.2812 3.28125 33.3672V12.6641L17.1562 26.0703C17.8594 26.8516 18.8516 27.3047 19.9062 27.3203H19.9531C20.9922 27.3203 21.9609 26.8906 22.6719 26.1406L36.8906 13.125V33.3672C36.875 34.2812 36.4062 34.7969 36.1328 34.7969Z" fill="white"/>
</svg>
