<svg width="35" height="97" viewBox="0 0 35 97" fill="none" xmlns="http://www.w3.org/2000/svg">
<path d="M11.0122 43.2653C7.27854 51.0321 3.59967 66.3257 2.30841 75.062C1.01716 83.7982 0 96.0009 0 96.0009C0.986064 96.3859 2.00396 96.7083 3.04542 96.9652C4.48895 97.2519 5.26247 95.3441 5.26247 95.3441C5.77504 95.5358 6.35035 95.5661 6.88654 95.4297C7.42274 95.2933 7.88523 94.9989 8.19217 94.5987C8.19217 94.5987 8.41753 96.2042 9.41033 96.616C10.4031 97.0277 11.8467 95.5265 13.7592 94.875C15.3733 94.3276 17.5051 93.968 18.5649 93.3425C19.2457 92.8733 19.6833 92.1935 19.783 91.4503C19.783 91.4503 20.252 91.8152 21.6895 91.2053C22.1345 90.9927 22.5254 90.7061 22.8392 90.3624C23.153 90.0186 23.3833 89.6247 23.5167 89.2037C23.5167 89.2037 26.0201 88.0673 26.9337 87.0144C27.4857 86.2716 27.7022 85.382 27.5428 84.5124C28.1134 84.3852 28.624 84.11 29.0046 83.7245C29.3852 83.3391 29.6171 82.8623 29.6685 82.3596C29.6685 82.3596 31.0389 81.8852 32.251 81.4839C33.463 81.0825 34.4315 78.8776 34.4315 78.8776C34.4315 78.8776 33.2133 67.9625 31.9099 60.4929C30.6064 53.0233 26.9398 41.3732 23.2 37.2969L10.9818 43.2445" fill="#FA00FF"/>
<path opacity="0.45" d="M11.0122 43.2653C7.27854 51.0321 3.59967 66.3257 2.30841 75.062C1.01716 83.7982 0 96.0009 0 96.0009C0.986064 96.3859 2.00396 96.7083 3.04542 96.9652C4.48895 97.2519 5.26247 95.3441 5.26247 95.3441C5.77504 95.5358 6.35035 95.5661 6.88654 95.4297C7.42274 95.2933 7.88523 94.9989 8.19217 94.5987C8.19217 94.5987 8.41753 96.2042 9.41033 96.616C10.4031 97.0277 11.8467 95.5265 13.7592 94.875C15.3733 94.3276 17.5051 93.968 18.5649 93.3425C19.2457 92.8733 19.6833 92.1935 19.783 91.4503C19.783 91.4503 20.252 91.8152 21.6895 91.2053C22.1345 90.9927 22.5254 90.7061 22.8392 90.3624C23.153 90.0186 23.3833 89.6247 23.5167 89.2037C23.5167 89.2037 26.0201 88.0673 26.9337 87.0144C27.4857 86.2716 27.7022 85.382 27.5428 84.5124C28.1134 84.3852 28.624 84.11 29.0046 83.7245C29.3852 83.3391 29.6171 82.8623 29.6685 82.3596C29.6685 82.3596 31.0389 81.8852 32.251 81.4839C33.463 81.0825 34.4315 78.8776 34.4315 78.8776C34.4315 78.8776 33.2133 67.9625 31.9099 60.4929C30.6064 53.0233 26.9398 41.3732 23.2 37.2969L10.9818 43.2445" fill="white"/>
<path d="M8.21644 94.6041C7.90951 95.0043 7.44701 95.2987 6.91082 95.4351C6.37462 95.5715 5.79932 95.5412 5.28675 95.3495C5.28675 95.3495 4.5132 97.2573 3.06968 96.9706C2.02822 96.7136 1.01032 96.3913 0.024257 96.0063C0.024257 96.0063 0.164362 94.3435 0.401905 91.8102C1.52954 92.1512 2.69807 92.3838 3.88586 92.5034C5.35376 92.5555 5.28675 91.0439 5.28675 91.0439C7.39418 91.7789 8.41135 89.9545 8.41135 89.9545C9.14834 90.8354 10.6832 90.5383 12.5166 89.3238C14.3499 88.1092 17.2979 88.2812 18.3699 87.4316C19.4419 86.5819 19.8438 84.9296 19.8438 84.9296C20.1965 85.0161 20.5679 85.031 20.9285 84.9731C21.289 84.9152 21.6288 84.7861 21.9208 84.596C22.6934 84.0678 23.2379 83.334 23.4679 82.5109C24.4961 82.4617 25.4673 82.0907 26.1966 81.4684C26.8449 80.9043 27.2526 80.1699 27.3539 79.3834C27.8531 79.183 28.2913 78.8861 28.6337 78.5162C28.9761 78.1462 29.2136 77.7133 29.3273 77.2515C29.3273 77.2515 31.7636 76.6989 33.9076 74.0509C34.267 76.9074 34.4862 78.8986 34.4862 78.8986C34.4862 78.8986 33.5239 81.0931 32.3057 81.5049C31.0875 81.9167 29.7232 82.3806 29.7232 82.3806C29.6718 82.8833 29.4399 83.3601 29.0593 83.7456C28.6788 84.131 28.1681 84.4062 27.5975 84.5334C27.7569 85.4031 27.5404 86.2926 26.9884 87.0354C26.0748 88.078 23.5714 89.2247 23.5714 89.2247C23.4381 89.6457 23.2077 90.0397 22.8939 90.3834C22.5801 90.7271 22.1892 91.0137 21.7442 91.2263C20.3067 91.8362 19.8378 91.4713 19.8378 91.4713C19.7381 92.2146 19.3004 92.8943 18.6196 93.3635C17.5598 93.989 15.428 94.3487 13.8139 94.896C11.9075 95.5476 10.4822 97.0488 9.46506 96.637C8.44789 96.2252 8.21644 94.6041 8.21644 94.6041Z" fill="#FA00FF"/>
<path opacity="0.1" d="M24.5946 48.9212C24.5946 48.9212 27.8228 55.3222 30.7524 82.0158L29.7292 82.365C29.6378 79.7587 27.6583 57.621 24.5946 48.9212Z" fill="black"/>
<path opacity="0.1" d="M28.5537 84.116C28.256 84.2968 27.9243 84.4326 27.573 84.5174C27.6278 82.2812 26.9213 72.4555 25.5387 63.0103C25.5387 63.0103 26.8117 66.435 28.5537 84.116Z" fill="black"/>
<path opacity="0.1" d="M21.007 51.6262C23.9976 66.6697 24.7955 87.0717 24.6067 88.6823C23.9976 89.0003 23.5652 89.2036 23.5652 89.2036C23.4738 84.7938 23.62 73.618 21.007 51.6262Z" fill="black"/>
<path opacity="0.1" d="M19.8195 74.405C19.8195 70.0577 19.4053 63.6567 19.4053 63.6567C19.4053 63.6567 20.4042 70.8709 20.6722 79.8521C20.8306 85.3201 20.6722 89.2765 20.52 91.5491C20.4018 91.5739 20.279 91.5784 20.1588 91.5623C20.0385 91.5462 19.9232 91.5098 19.8195 91.4553C20.0083 88.5571 19.7891 78.7471 19.8195 74.405Z" fill="black"/>
<path opacity="0.1" d="M14.7458 54.6238C13.9418 58.4446 13.1622 67.1809 13.1743 71.9034C13.1865 76.626 13.217 90.408 12.8759 92.3836C12.8759 92.3836 12.5957 82.6934 12.5226 77.9292C12.2762 70.1147 13.0216 62.3005 14.7458 54.6238Z" fill="black"/>
<path opacity="0.1" d="M7.40009 95.2557C7.83864 77.9499 10.3724 65.0228 11.3957 61.5147C10.0557 68.0356 8.56953 81.5258 8.21627 94.6041C8.00207 94.8689 7.7237 95.0912 7.40009 95.2557Z" fill="black"/>
<path opacity="0.1" d="M4.56178 96.4541C4.56178 91.94 4.72014 84.9864 5.2805 79.7165C5.73686 75.8622 6.45066 72.0334 7.41839 68.2489C7.41839 68.2489 6.23676 74.4622 5.71904 79.8155C5.20132 85.1688 5.27441 93.0711 5.30487 95.3698C5.12791 95.7635 4.8769 96.1298 4.56178 96.4541Z" fill="black"/>
<path opacity="0.1" d="M14.027 42.3532C12.7297 45.757 9.87916 58.2776 9.39799 63.167C10.0829 56.2269 11.4273 49.3462 13.4179 42.593L14.027 42.3532Z" fill="black"/>
<path opacity="0.1" d="M16.8775 41.0447C17.2368 42.6866 17.9616 49.1919 18.0956 56.9326C18.8509 49.4682 17.6084 41.2949 17.5292 40.7111" fill="black"/>
<path opacity="0.1" d="M20.6718 38.9754C21.5672 40.3306 24.4177 44.7092 25.3801 48.5352C24.8806 44.5632 21.5002 39.1213 21.2566 38.6313L20.6718 38.9754Z" fill="black"/>
<path d="M22.5909 9.28969C18.7476 13.22 14.7946 15.404 10.7137 15.4614V21.2682C10.7137 25.5842 13.3754 27.7734 16.6523 26.1576C19.9292 24.5364 22.5909 19.72 22.5909 15.3988V9.28969Z" fill="#FA00FF"/>
<path opacity="0.45" d="M22.5909 9.28969C18.7476 13.22 14.7946 15.404 10.7137 15.4614V21.2682C10.7137 25.5842 13.3754 27.7734 16.6523 26.1576C19.9292 24.5364 22.5909 19.72 22.5909 15.3988V9.28969Z" fill="black"/>
<path d="M16.7436 9.8841L9.1118 18.6881V17.3902L16.0432 9.45145C16.2037 9.25499 16.3965 9.07942 16.6157 8.9302C16.6157 7.40292 16.5487 7.01719 16.0066 6.84517C15.4646 6.67316 13.9114 5.9851 14.6788 3.13383C15.1478 1.36155 16.8715 -0.10839 18.3333 0.00628634C18.8023 0.0531994 19.8926 0.360741 19.8926 2.22163C19.8926 2.33361 19.8406 2.441 19.7481 2.52018C19.6556 2.59936 19.5301 2.64384 19.3992 2.64384C19.2684 2.64384 19.1429 2.59936 19.0504 2.52018C18.9578 2.441 18.9059 2.33361 18.9059 2.22163C18.9059 1.83068 18.8389 0.908061 18.2237 0.84551C17.4989 0.782959 16.0615 1.77856 15.6473 3.32148C15.2636 4.76015 15.5315 5.80266 16.3416 6.04244C17.5598 6.39689 17.6329 7.28824 17.639 8.64872C17.7018 8.64352 17.765 8.64352 17.8278 8.64872L26.6473 10.103V10.8901L17.6572 9.40975C17.4623 9.35241 17.1091 9.49837 16.7436 9.8841Z" fill="#37474F"/>
<path d="M9.13631 24.4951L26.6353 15.8474V16.744L9.13631 25.3864V24.4951Z" fill="#FA00FF"/>
<path d="M16.5487 23.6085C15.7568 21.5235 12.5896 16.2796 10.7136 15.4613C10.7136 15.4613 7.57078 18.7139 6.6267 20.6113C5.68262 22.5086 4.29999 25.5267 3.24627 31.787L8.31995 33.9867C8.54531 35.3628 9.22138 38.678 10.9877 40.0176L16.5487 39.9186V23.6085Z" fill="#FA00FF"/>
<path opacity="0.25" d="M16.5487 23.6085C15.7568 21.5235 12.5896 16.2796 10.7136 15.4613C10.7136 15.4613 7.57078 18.7139 6.6267 20.6113C5.68262 22.5086 4.29999 25.5267 3.24627 31.787L8.31995 33.9867C8.54531 35.3628 9.22138 38.678 10.9877 40.0176L16.5487 39.9186V23.6085Z" fill="white"/>
<path d="M1.61414 38.3029C2.55213 39.1786 7.05935 40.7215 8.46633 40.4244C8.86834 40.3319 9.22827 40.1375 9.49892 39.8668C9.76957 39.5961 9.93829 39.2617 9.98294 38.9075C8.94141 37.3438 8.49069 35.0711 8.31406 33.9973C7.74761 33.7575 5.81073 31.5943 4.85447 31.2399C4.41773 31.0145 3.92067 30.8888 3.41092 30.875C3.16152 30.9168 2.93365 31.0243 2.75922 31.1825C2.10141 31.7298 1.99176 32.8974 1.77858 34.2371C1.56541 35.5767 0.67615 37.4272 1.61414 38.3029Z" fill="#FA00FF"/>
<path d="M8.47818 17.9737C9.58672 16.6289 10.7135 15.4613 10.7135 15.4613C12.5895 16.2796 15.7567 21.4974 16.5485 23.6085V31.1407C14.9162 24.5676 10.0435 19.1413 8.47818 17.9737Z" fill="#FA00FF"/>
<path opacity="0.1" d="M8.47818 17.9737C9.58672 16.6289 10.7135 15.4613 10.7135 15.4613C12.5895 16.2796 15.7567 21.4974 16.5485 23.6085V31.1407C14.9162 24.5676 10.0435 19.1413 8.47818 17.9737Z" fill="black"/>
<path d="M14.6788 40.8464C14.5509 36.7546 14.7458 28.1643 17.0603 22.1907C19.3749 16.2171 22.5908 9.28956 22.5908 9.28956C22.5908 9.28956 25.484 9.13318 27.2199 9.96719C28.9558 10.8012 30.046 14.1372 31.2033 18.1666C31.2033 18.1666 25.9347 24.2444 25.2282 25.8655C25.113 27.4064 24.8769 28.9388 24.5216 30.4526C24.1621 31.6419 23.7311 32.8145 23.2304 33.9658L14.6788 40.8464Z" fill="#FA00FF"/>
<path opacity="0.25" d="M14.6788 40.8464C14.5509 36.7546 14.7458 28.1643 17.0603 22.1907C19.3749 16.2171 22.5908 9.28956 22.5908 9.28956C22.5908 9.28956 25.484 9.13318 27.2199 9.96719C28.9558 10.8012 30.046 14.1372 31.2033 18.1666C31.2033 18.1666 25.9347 24.2444 25.2282 25.8655C25.113 27.4064 24.8769 28.9388 24.5216 30.4526C24.1621 31.6419 23.7311 32.8145 23.2304 33.9658L14.6788 40.8464Z" fill="white"/>
<path d="M24.3388 31.0313C24.3691 31.2089 24.4787 31.3695 24.6446 31.4794C24.8104 31.5892 25.0196 31.6398 25.2281 31.6203C26.0077 31.5734 26.4158 30.4527 27.8776 29.0505C29.3394 27.6484 32.3056 24.1716 32.7807 23.2125C33.2558 22.2533 32.7807 20.8616 32.5615 19.9077C32.3422 18.9538 32.8112 17.6611 32.0133 17.3379C31.8431 17.288 31.6602 17.2786 31.4843 17.3108C31.3084 17.3429 31.1459 17.4153 31.0144 17.5203C30.2896 17.9373 29.4247 18.9225 28.578 20.2934C27.9263 21.3985 26.9761 22.858 26.0991 24.2863C25.7506 24.7847 25.4531 25.3078 25.2098 25.85C25.0978 27.3897 24.8597 28.9207 24.4972 30.4319C24.4606 30.6404 24.4058 30.8228 24.3388 31.0313Z" fill="#FA00FF"/>
<path opacity="0.2" d="M25.8799 30.7449C25.551 31.0681 25.1307 31.1567 25.5205 30.6094C26.2581 29.8434 26.9454 29.0429 27.5792 28.2116C28.8948 26.4185 30.8987 22.9626 31.7636 22.41C32.6285 21.8575 32.9026 22.5091 32.0377 23.807C31.0112 25.2159 29.8886 26.5718 28.6756 27.8676C27.8107 28.8006 26.1661 30.3644 25.8799 30.7449Z" fill="black"/>
<path opacity="0.2" d="M8.49673 39.6842C8.81345 39.7207 9.23981 39.4392 8.87436 39.2203C8.50891 39.0014 8.14347 39.262 6.90703 38.5896C5.67059 37.9172 3.83116 36.1449 2.97235 36.3482C2.7681 36.3905 2.58248 36.4824 2.43784 36.6129C2.29321 36.7434 2.19571 36.9068 2.15709 37.0836C2.11848 37.2604 2.1404 37.443 2.2202 37.6094C2.3 37.7757 2.43429 37.9188 2.6069 38.0214C3.58665 38.5694 4.66787 38.9712 5.80459 39.2099C6.62076 39.3923 8.21655 39.5331 8.49673 39.6842Z" fill="black"/>
<path d="M22.5908 9.28988C23.3906 9.26119 24.1917 9.29434 24.9845 9.38892C23.3339 13.069 20.5321 19.5847 18.7232 25.183C17.3954 29.3113 16.8959 36.6506 16.7619 39.8147L14.6788 40.8572C14.5509 36.7653 14.7458 28.175 17.0603 22.2014C19.3749 16.2278 22.5908 9.28988 22.5908 9.28988Z" fill="#FA00FF"/>
<path opacity="0.15" d="M25.228 25.8656C25.3985 24.4425 25.362 21.1169 25.5995 19.8398C25.8371 18.5628 27.1649 17.2336 26.6837 18.6253C26.2058 20.1218 25.8697 21.6488 25.6787 23.1915C25.6352 24.0937 25.4842 24.9897 25.228 25.8656Z" fill="black"/>
<path opacity="0.15" d="M8.3199 33.9869C8.14936 32.7307 8.19199 29.3633 7.94835 28.3313C7.70472 27.2992 6.38301 27.2575 6.86418 28.1853C7.37805 29.3352 7.71585 30.5371 7.86917 31.7611C7.89459 32.5177 8.04638 33.2672 8.3199 33.9869Z" fill="black"/>
<path d="M23.2304 33.9505V37.3021C21.1723 38.7423 18.9713 40.026 16.6523 41.1386C12.4253 43.2236 11.0122 43.2497 11.0122 43.2497V40.0023C15.0768 38.9806 19.1495 36.9633 23.2304 33.9505Z" fill="#FA00FF"/>
<path opacity="0.45" d="M23.2304 33.9505V37.3021C21.1723 38.7423 18.9713 40.026 16.6523 41.1386C12.4253 43.2236 11.0122 43.2497 11.0122 43.2497V40.0023C15.0768 38.9806 19.1495 36.9633 23.2304 33.9505Z" fill="black"/>
<path d="M16.2379 27.9612C16.2379 28.3365 16.4754 28.5293 16.7617 28.3886C16.928 28.2753 17.0617 28.1309 17.1526 27.9664C17.2434 27.8019 17.2889 27.6218 17.2855 27.4399C17.2855 27.0646 17.048 26.8717 16.7617 27.0125C16.5954 27.1258 16.4617 27.2702 16.3708 27.4347C16.28 27.5991 16.2345 27.7793 16.2379 27.9612Z" fill="#37474F"/>
<path d="M15.6107 32.2617C15.6107 32.6422 15.8421 32.8351 16.1284 32.6891C16.2956 32.5777 16.4301 32.4344 16.5211 32.2706C16.6121 32.1068 16.657 31.927 16.6522 31.7457C16.6522 31.3651 16.4207 31.1723 16.1284 31.313C15.9635 31.4271 15.8312 31.5718 15.7415 31.7362C15.6518 31.9006 15.6071 32.0803 15.6107 32.2617Z" fill="#37474F"/>
<path d="M15.306 36.1556C15.306 36.5361 15.5374 36.729 15.8237 36.5882C15.9907 36.4755 16.1249 36.3311 16.2158 36.1665C16.3067 36.0019 16.3518 35.8216 16.3475 35.6395C16.3475 35.259 16.116 35.0661 15.8237 35.2121C15.6582 35.3246 15.5254 35.4682 15.4356 35.6319C15.3458 35.7956 15.3015 35.9748 15.306 36.1556Z" fill="#37474F"/>
</svg>
