<svg width="271" height="143" viewBox="0 0 271 143" fill="none" xmlns="http://www.w3.org/2000/svg">
<path d="M132.58 143L184.02 108.532L145.35 82.7591L141.829 76.4175C141.829 76.4175 122.886 71.7273 116.707 75.294C110.528 78.8606 77.9852 92.3581 77.9852 92.3581C77.9852 92.3581 23.1618 42.1536 19.2621 39.5747C15.3625 36.9959 -7.57802 53.3964 2.56625 64.6317C12.7105 75.8671 33.2668 89.7943 42.6926 94.5373C52.1183 99.2803 68.2851 103.789 68.2851 103.789C68.2851 103.789 65.7246 107.952 73.243 114.346C80.7613 120.74 113.487 138.091 117.961 139.818C123.017 141.763 129.105 140.715 129.105 140.715L132.58 143Z" fill="#E0E0E0"/>
<path d="M270.106 50.6517L234.989 74.0272C234.717 74.1838 234.418 74.2654 234.114 74.2654C233.81 74.2654 233.511 74.1838 233.239 74.0272L159.466 24.7803C158.982 24.4561 158.982 23.9358 159.466 23.6191L194.589 0.243602C194.858 0.0835178 195.157 0 195.461 0C195.764 0 196.063 0.0835178 196.333 0.243602L270.145 49.4829C270.589 49.8147 270.589 50.335 270.106 50.6517Z" fill="#E0E0E0"/>
</svg>
