<svg width="72" height="194" viewBox="0 0 72 194" fill="none" xmlns="http://www.w3.org/2000/svg">
<path d="M69.4622 4.82873L9.10978 42.1607C8.47307 42.61 7.94326 43.2126 7.56269 43.9205C7.18211 44.6283 6.96133 45.4217 6.91798 46.2373V192.083C6.91798 193.578 7.9257 194.189 9.10978 193.438L69.4622 156.106C70.0998 155.658 70.6302 155.055 71.0109 154.347C71.3916 153.639 71.6119 152.845 71.654 152.029V6.1894C71.654 4.68834 70.6665 4.0782 69.4622 4.82873ZM68.4999 138.59C68.4999 139.875 67.6584 140.69 66.6154 141.333L11.7399 175.28C10.7322 175.922 9.86053 175.404 9.86053 174.113V59.871C9.89694 59.171 10.0859 58.4899 10.4123 57.8823C10.7387 57.2747 11.1934 56.7575 11.7399 56.3722L66.6104 22.431C67.6534 21.7885 68.4948 22.3122 68.4948 23.5919L68.4999 138.59Z" fill="#37474F"/>
<path d="M8.83771 193.583C8.18292 193.881 7.47539 194.022 6.76443 193.997C6.05347 193.972 5.35619 193.781 4.72117 193.438L2.20187 191.883C1.56061 191.439 1.02669 190.838 0.643926 190.131C0.261167 189.423 0.040488 188.628 0 187.811V41.9767C0.0131806 41.3686 0.141757 40.7697 0.377896 40.2165C0.45672 40.0319 0.544165 39.8517 0.639902 39.6766L7.54783 43.9476C7.40201 44.2259 7.27406 44.5145 7.1649 44.8115C6.99855 45.2756 6.90821 45.7669 6.89785 46.2639V192.082C6.91801 193.454 7.75945 194.091 8.83771 193.583Z" fill="#263238"/>
<path d="M39.805 161.953C41.7196 160.771 43.2715 161.732 43.2715 164.113C43.2065 165.402 42.8587 166.656 42.2564 167.773C41.654 168.89 40.8141 169.84 39.805 170.544C37.8953 171.732 36.3434 170.771 36.3434 168.384C36.4095 167.096 36.7572 165.843 37.3585 164.726C37.9598 163.609 38.7979 162.659 39.805 161.953Z" fill="#407BFF"/>
<path d="M39.2759 26.6423C40.0871 26.1401 40.7472 26.5451 40.7472 27.5494C40.7199 28.0967 40.5724 28.6294 40.3167 29.1042C40.0611 29.5789 39.7045 29.9823 39.2759 30.2815C38.4647 30.7837 37.8046 30.3787 37.8046 29.3744C37.8319 28.8271 37.9794 28.2943 38.2351 27.8196C38.4907 27.3448 38.8473 26.9415 39.2759 26.6423Z" fill="black"/>
<path d="M33.6074 36.2314L44.9644 29.2121C45.6446 28.7963 46.1938 29.0933 46.1938 29.8816C46.1601 30.3194 46.0314 30.7426 45.8179 31.1176C45.6045 31.4926 45.3122 31.8089 44.9644 32.0414L33.6074 39.0607C32.9271 39.4765 32.3779 39.1795 32.3779 38.3912C32.4116 37.9534 32.5404 37.5301 32.7538 37.1552C32.9673 36.7802 33.2596 36.4638 33.6074 36.2314Z" fill="black"/>
<path d="M68.4998 138.471C68.4998 139.756 67.6583 140.571 66.6153 141.214L11.7398 175.16C10.7321 175.803 9.86043 175.284 9.86043 173.994V59.7518C9.89684 59.0518 10.0858 58.3707 10.4122 57.7631C10.7386 57.1554 11.1933 56.6382 11.7398 56.2529L66.6103 22.2902C67.6533 21.6423 68.4947 22.166 68.4947 23.4511L68.4998 138.471Z" fill="#407BFF"/>
<path d="M10.9036 175.706C10.6865 175.708 10.4727 175.648 10.2839 175.533C10.0565 175.367 9.87424 175.138 9.75566 174.872C9.63709 174.606 9.58639 174.31 9.6087 174.016V59.7521C9.64393 59.0034 9.84512 58.2744 10.1956 57.6256C10.5461 56.9768 11.0358 56.4267 11.6241 56.0211L66.4845 22.08C66.7028 21.8847 66.9716 21.7658 67.2548 21.7393C67.5381 21.7129 67.8221 21.78 68.0686 21.9318C68.3151 22.0836 68.5123 22.3127 68.6335 22.5883C68.7548 22.8639 68.7944 23.1727 68.7468 23.473V138.482C68.7468 140.042 67.598 140.928 66.7314 141.457L11.866 175.393C11.5769 175.587 11.2447 175.695 10.9036 175.706ZM67.4519 22.2906C67.1986 22.3042 66.9525 22.3859 66.7364 22.5281L11.866 56.4909C11.359 56.8478 10.9365 57.3264 10.6322 57.8888C10.3278 58.4511 10.1499 59.0817 10.1126 59.7305V174.016C10.06 174.222 10.0726 174.441 10.1485 174.639C10.2244 174.836 10.3593 175.001 10.532 175.108C10.7047 175.215 10.9056 175.257 11.1032 175.229C11.3008 175.2 11.484 175.102 11.6241 174.95L66.4845 140.977C67.6988 140.231 68.243 139.459 68.243 138.471V23.4622C68.2686 23.2576 68.2424 23.0494 68.167 22.8594C68.0917 22.6693 67.97 22.5046 67.8147 22.3823C67.7034 22.3182 67.5783 22.2865 67.4519 22.2906Z" fill="white"/>
<path d="M71.6287 5.8111C71.4725 4.59081 70.5605 4.14806 69.4621 4.82839L9.10967 42.1604C8.46089 42.5942 7.92798 43.2006 7.56281 43.9206L0.654883 39.6496C1.02554 38.9333 1.56164 38.3309 2.21181 37.9002L62.5491 0.562802C63.23 0.192814 63.9826 0 64.746 0C65.5093 0 66.262 0.192814 66.9428 0.562802L69.4621 2.11245C70.0494 2.52666 70.5468 3.07127 70.9206 3.70939C71.2944 4.34752 71.5359 5.06426 71.6287 5.8111Z" fill="#455A64"/>
<path d="M26.2157 75.2049C26.7342 74.8534 27.3267 74.6473 27.9389 74.6055C28.4243 74.5797 28.9021 74.7427 29.2842 75.0645C29.7009 75.4479 30.0082 75.9495 30.171 76.5115C30.4018 77.2574 30.5242 78.0368 30.5338 78.8225C30.5338 79.1357 30.5338 79.4219 30.5338 79.6864V81.1821C30.5338 81.4413 30.5338 81.722 30.5338 82.0244C30.5073 82.9588 30.3874 83.8874 30.1761 84.7943C29.9763 85.667 29.6856 86.5128 29.3094 87.3159C28.9554 88.0772 28.5118 88.7867 27.9893 89.4271C27.5017 90.0301 26.9246 90.5427 26.2812 90.9443L22.593 93.2283C22.5573 93.2614 22.5117 93.2796 22.4645 93.2796C22.4173 93.2796 22.3717 93.2614 22.336 93.2283C22.295 93.1797 22.2639 93.1223 22.2448 93.06C22.2258 92.9977 22.219 92.9318 22.2252 92.8666V78.288C22.2264 78.1155 22.2643 77.9456 22.336 77.7912C22.3882 77.653 22.4777 77.5346 22.593 77.451L26.2157 75.2049ZM28.0044 80.2966C27.949 78.6065 27.3293 78.1368 26.1452 78.8549L24.7545 79.7188V88.2716L26.2157 87.3699C27.3645 86.65 27.9608 85.4171 28.0044 83.6712C28.0044 83.3473 28.0044 83.0503 28.0044 82.7695V81.1497C28.0145 80.8869 28.0145 80.5989 28.0044 80.2858V80.2966Z" fill="white"/>
<path d="M36.9129 68.5745C37.0942 68.4665 37.2353 68.4611 37.3311 68.5745C37.427 68.6772 37.4949 68.806 37.5276 68.947L40.5104 81.3064C40.5406 81.4041 40.5575 81.506 40.5608 81.6088C40.5589 81.7487 40.5297 81.8866 40.4752 82.0138C40.4323 82.1264 40.3585 82.2225 40.2635 82.2891L38.5403 83.369C38.3589 83.4824 38.2279 83.4986 38.1524 83.4176C38.0753 83.3423 38.0239 83.2416 38.0062 83.1314L37.6233 81.5116L33.9905 83.7578L33.6075 85.869C33.5791 86.0278 33.5317 86.1821 33.4664 86.328C33.3796 86.5115 33.2425 86.6622 33.0734 86.7599L31.3553 87.8398C31.327 87.8695 31.289 87.8861 31.2495 87.8861C31.2099 87.8861 31.1719 87.8695 31.1436 87.8398C31.1103 87.8007 31.085 87.7546 31.0694 87.7043C31.0538 87.6541 31.0482 87.6009 31.0529 87.5482C31.0608 87.4225 31.0793 87.2978 31.1084 87.1757L34.0862 71.1284C34.1297 70.9159 34.1957 70.7094 34.2827 70.5129C34.3677 70.3 34.5143 70.1221 34.7009 70.0053L36.9129 68.5745ZM34.7009 79.8L36.9129 78.4285L35.8094 73.704L34.7009 79.8Z" fill="white"/>
<path d="M47.7358 61.8793C47.7727 61.8468 47.819 61.8291 47.8668 61.8291C47.9146 61.8291 47.9608 61.8468 47.9978 61.8793C48.0369 61.9291 48.0664 61.9867 48.0846 62.0488C48.1027 62.1109 48.1092 62.1763 48.1036 62.2411V64.6276C48.1028 64.7995 48.0666 64.9691 47.9978 65.1244C47.945 65.2639 47.8536 65.3826 47.7358 65.4645L45.3223 66.9764V78.5421C45.3211 78.7145 45.2832 78.8844 45.2114 79.0388C45.1592 79.1771 45.0698 79.2955 44.9545 79.379L43.1607 80.4859C43.125 80.519 43.0794 80.5371 43.0322 80.5371C42.9851 80.5371 42.9394 80.519 42.9037 80.4859C42.8627 80.4372 42.8317 80.3799 42.8126 80.3176C42.7935 80.2553 42.7868 80.1894 42.7929 80.1241V68.5422L40.3895 70.0271C40.353 70.0606 40.3065 70.079 40.2585 70.079C40.2104 70.079 40.164 70.0606 40.1275 70.0271C40.0495 69.926 40.0115 69.7961 40.0217 69.6653V67.2734C40.023 67.1015 40.0591 66.9321 40.1275 66.7766C40.1831 66.639 40.2739 66.521 40.3895 66.4364L47.7358 61.8793Z" fill="white"/>
<path d="M53.4344 58.3537C53.6158 58.2457 53.7569 58.2403 53.8526 58.3537C53.9485 58.4564 54.0165 58.5852 54.0491 58.7262L57.0269 71.0857C57.0582 71.1833 57.0769 71.285 57.0824 71.388C57.0811 71.5286 57.0501 71.6671 56.9917 71.793C56.9523 71.9078 56.8777 72.0049 56.7801 72.0684L55.0619 73.1483C54.8805 73.2634 54.7495 73.2796 54.6689 73.1969C54.5956 73.1192 54.5464 73.0193 54.5278 72.9107L54.1449 71.2908L50.512 73.537L50.1291 75.6482C50.1018 75.8081 50.0525 75.9628 49.983 76.1072C49.8996 76.2916 49.7638 76.4429 49.595 76.5391L47.8718 77.619C47.843 77.6475 47.8052 77.6633 47.766 77.6633C47.7268 77.6633 47.689 77.6475 47.6602 77.619C47.5967 77.5378 47.5659 77.433 47.5745 77.3275C47.58 77.2018 47.5968 77.077 47.6249 76.9549L50.6078 60.9076C50.6513 60.6951 50.7172 60.4886 50.8043 60.2921C50.8893 60.0792 51.0359 59.9013 51.2225 59.7845L53.4344 58.3537ZM51.2225 69.5792L53.4344 68.1861L52.3259 63.4616L51.2225 69.5792Z" fill="white"/>
</svg>
