<svg width="232" height="190" viewBox="0 0 232 190" fill="none" xmlns="http://www.w3.org/2000/svg">
<path d="M90.531 2.11431L229.04 122.41C232.515 125.431 232.115 128.63 231.801 131.504C231.486 134.378 230.032 138.3 227.063 140.197L151.027 188.692C148.059 190.588 143.609 190.353 141.094 188.168L2.55234 67.9074C0.0316577 65.7224 -0.208153 62.271 0.111595 59.3969C0.431343 56.5227 1.55579 52.0172 4.52944 50.1207L80.5815 1.59013C83.5551 -0.30044 87.0244 -0.924741 90.531 2.11431Z" fill="#37474F"/>
<path d="M86.4595 5.87165L8.25445 55.7745L147.382 176.512L145.906 189.964C144.179 189.919 142.506 189.292 141.11 188.168L2.55228 67.9072C0.0315966 65.7221 -0.208214 62.2708 0.111534 59.3966C0.431282 56.5225 1.55573 52.0169 4.52938 50.1205L80.5814 1.58988C82.436 0.411956 84.6742 -0.412594 87.0776 0.217597L87.035 0.635765L86.4595 5.87165Z" fill="#263238"/>
<path d="M227.703 123.069L89.4171 3.00915C87.424 1.2776 83.8694 1.09502 81.5193 2.59099L7.25784 49.9672C4.06036 51.9991 3.666 55.5918 6.36787 57.9359L143.801 177.248C145.559 178.779 148.693 178.944 150.771 177.613L227.047 128.947C229.397 127.445 229.696 124.801 227.703 123.069Z" fill="#455A64"/>
<path d="M44.386 93.9509C44.9161 94.4907 45.3266 95.1584 45.5854 95.902C45.8441 96.6456 45.9443 97.4452 45.8781 98.2385C45.8729 98.5235 45.8063 98.803 45.684 99.0539C45.5617 99.3048 45.3871 99.5199 45.1747 99.6815C44.9189 99.8405 43.9543 100.477 43.6878 100.642C43.4583 100.756 43.2027 100.79 42.9551 100.74C42.7075 100.689 42.4797 100.556 42.3023 100.359L31.287 90.7999C30.7577 90.2581 30.3479 89.5892 30.0892 88.8449C29.8305 88.1005 29.7298 87.3005 29.7948 86.5064C29.8041 86.233 29.8676 85.9652 29.9809 85.722C30.0941 85.4788 30.2544 85.266 30.4503 85.0988C30.7167 84.9162 31.7186 84.2742 31.9851 84.1152C32.2146 83.9979 32.4712 83.9615 32.7201 84.011C32.9689 84.0606 33.1979 84.1936 33.376 84.392L44.386 93.9509Z" fill="#455A64"/>
<path d="M42.9098 94.8992L31.8945 85.3344C30.9033 84.4745 29.9653 84.9987 29.7948 86.5123C29.7298 87.3064 29.8305 88.1065 30.0892 88.8508C30.3479 89.5952 30.7577 90.264 31.287 90.8059L42.3023 100.365C43.2935 101.225 44.2314 100.7 44.4019 99.1868C44.4669 98.3936 44.3662 97.5944 44.1075 96.851C43.8488 96.1076 43.439 95.4398 42.9098 94.8992Z" fill="#37474F"/>
<path d="M25.1107 77.2244C25.6419 77.7634 26.053 78.4309 26.3118 79.1748C26.5707 79.9186 26.6703 80.7186 26.6028 81.512C26.5948 81.7949 26.5276 82.0719 26.4065 82.3212C26.2854 82.5705 26.1136 82.7854 25.9047 82.9491C25.6489 83.1022 24.6844 83.7383 24.4179 83.9032C24.1876 84.0181 23.931 84.0526 23.6825 84.0021C23.4339 83.9516 23.2053 83.8185 23.027 83.6205L12.017 74.0675C11.4868 73.5277 11.0764 72.86 10.8176 72.1164C10.5588 71.3728 10.4587 70.5732 10.5249 69.7799C10.533 69.5054 10.596 69.2363 10.7093 68.992C10.8226 68.7476 10.9835 68.5339 11.1803 68.3664C11.4415 68.1838 12.4433 67.5418 12.7098 67.3828C12.9393 67.2655 13.1959 67.2291 13.4448 67.2786C13.6936 67.3282 13.9227 67.4612 14.1007 67.6596L25.1107 77.2244Z" fill="#455A64"/>
<path d="M23.6345 78.1668L12.6245 68.6079C11.6333 67.748 10.6901 68.2722 10.5249 69.7858C10.4587 70.5792 10.5588 71.3787 10.8176 72.1223C11.0764 72.8659 11.4868 73.5336 12.017 74.0734L23.027 83.6323C24.0182 84.4922 24.9615 83.968 25.1267 82.4544C25.1929 81.661 25.0927 80.8615 24.8339 80.1179C24.5751 79.3743 24.1647 78.7066 23.6345 78.1668Z" fill="#37474F"/>
<path d="M91.9167 9.59965L221.047 121.715C222.949 123.37 222.678 125.89 220.429 127.322L151.438 171.353C149.194 172.796 145.821 172.619 143.908 170.958L13.845 58.0419C12.2942 56.699 12.177 54.7908 13.408 53.3302C13.5039 53.2183 13.5945 53.1064 13.7011 53.0004C13.9396 52.7806 14.1945 52.5835 14.4632 52.4114L33.8718 40.0432L35.1402 39.2363C35.5018 39.0173 35.9111 38.9129 36.323 38.9347C36.7349 38.9566 37.1333 39.1037 37.4743 39.36C37.8343 39.6153 38.2509 39.7563 38.6785 39.7678C39.1061 39.7792 39.5284 39.6605 39.8991 39.4248L62.5213 24.9952C63.262 24.5181 63.3952 23.7171 62.8037 23.2283C62.6778 23.1357 62.5757 23.0088 62.5071 22.8598C62.4385 22.7109 62.4059 22.5449 62.4123 22.3779C62.4188 22.2109 62.464 22.0486 62.5438 21.9066C62.6236 21.7647 62.7351 21.6478 62.8677 21.5674L62.9902 21.4849L81.9832 9.36995L82.3829 9.11081C85.2287 7.28502 89.5133 7.51472 91.9167 9.59965Z" fill="black"/>
<path d="M37.0907 42.8231C36.7497 42.5669 36.3512 42.4197 35.9393 42.3979C35.5275 42.3761 35.1181 42.4804 34.7565 42.6994L33.4882 43.4886L14.0795 55.8569C13.8108 56.029 13.5559 56.226 13.3174 56.4458C13.2108 56.5577 13.1202 56.6637 13.0243 56.7756C12.9284 56.8875 12.971 56.8522 12.939 56.8934C13.1765 57.3246 13.4836 57.7039 13.845 58.0125L143.908 170.958C145.821 172.619 149.194 172.796 151.438 171.353L220.445 127.322C220.872 127.052 221.257 126.708 221.585 126.303C221.35 125.865 221.043 125.479 220.679 125.166L91.5491 13.051C89.1456 10.9661 84.861 10.7364 82.0152 12.5504L81.6156 12.8095L63.1235 24.5888C63.1235 24.5888 62.8357 27.2038 62.8037 27.5336C62.7659 27.7322 62.6878 27.9186 62.5751 28.0788C62.4625 28.239 62.3183 28.3688 62.1536 28.4583L39.5154 42.8997C39.1437 43.1337 38.721 43.2503 38.2933 43.2368C37.8657 43.2233 37.4497 43.0802 37.0907 42.8231Z" fill="#EBEBEB"/>
<path d="M32.2569 54.5788C32.2232 54.5731 32.1917 54.5567 32.1663 54.5317L31.8945 54.249L31.0312 54.7967C31.0136 54.8141 30.9908 54.8237 30.9672 54.8237C30.9436 54.8237 30.9209 54.8141 30.9033 54.7967L30.7967 54.6789C30.7789 54.6628 30.7644 54.6427 30.7541 54.62C30.7527 54.5984 30.7527 54.5768 30.7541 54.5552L30.6848 52.9709C30.6813 52.9495 30.6813 52.9275 30.6848 52.9061C30.6971 52.8827 30.7157 52.8642 30.7381 52.8531L30.8553 52.7824C30.8881 52.7699 30.9238 52.7699 30.9566 52.7824C30.9918 52.7867 31.0242 52.8056 31.0472 52.8354L32.0117 53.8131L32.2036 53.6894C32.2319 53.6691 32.2659 53.6609 32.2992 53.6664C32.3326 53.6718 32.363 53.6905 32.3848 53.7189L32.4541 53.7837C32.4807 53.8131 32.4967 53.8367 32.4914 53.8602C32.486 53.8838 32.4914 53.9073 32.4381 53.9309L32.2462 54.0487L32.5233 54.3314C32.5233 54.3314 32.566 54.3844 32.5606 54.408C32.5553 54.4315 32.5606 54.4551 32.502 54.4786L32.3581 54.5729C32.3255 54.5851 32.2905 54.5872 32.2569 54.5788ZM31.724 53.9898L31.0418 53.2948L31.1005 54.3903L31.724 53.9898Z" fill="#455A64"/>
<path d="M33.1095 53.7542C32.774 53.7015 32.4624 53.5324 32.2195 53.2713C32.1042 53.1783 32.0101 53.0571 31.9444 52.917C31.8788 52.777 31.8434 52.6221 31.8411 52.4644C31.8653 52.3145 31.9227 52.1737 32.0083 52.0544C32.0938 51.9352 32.2049 51.8413 32.3314 51.7812C32.4504 51.7036 32.5774 51.6423 32.7098 51.5986C32.8264 51.5538 32.9487 51.53 33.0722 51.5279C33.0803 51.5228 33.0895 51.52 33.0988 51.52C33.1082 51.52 33.1174 51.5228 33.1255 51.5279V51.5633L33.1681 51.74C33.1681 51.74 33.1681 51.7753 33.1681 51.7812H33.1201C32.9317 51.7978 32.7493 51.8623 32.5872 51.9697C32.4999 52.0081 32.4234 52.0714 32.3653 52.1531C32.3073 52.2349 32.2699 52.3321 32.2568 52.4349C32.2631 52.551 32.2926 52.6641 32.3433 52.7659C32.394 52.8678 32.4646 52.9559 32.5499 53.0239C32.7257 53.2204 32.9533 53.3503 33.2001 53.395C33.4165 53.4296 33.637 53.3796 33.8236 53.2536C33.8925 53.2106 33.9568 53.1592 34.0154 53.1005C34.0652 53.0573 34.1084 53.0056 34.1433 52.9473L33.6957 52.4938L33.3333 52.7235C33.306 52.7467 33.2716 52.7572 33.2374 52.753C33.2055 52.7433 33.1762 52.7251 33.1521 52.7L33.0882 52.6352C33.0562 52.5999 33.0455 52.5763 33.0455 52.5527C33.0573 52.524 33.0781 52.5009 33.1041 52.4879L33.6744 52.1228C33.7081 52.1006 33.7471 52.0903 33.7863 52.0933C33.8267 52.103 33.8638 52.1256 33.8929 52.1581L34.5324 52.806L34.575 52.8649C34.575 52.8649 34.575 52.9002 34.575 52.9238C34.4592 53.1783 34.2724 53.3848 34.0421 53.5127C33.7653 53.7086 33.4362 53.7938 33.1095 53.7542Z" fill="#455A64"/>
<path d="M40.2613 49.0248C40.3105 49.0732 40.3476 49.1347 40.3691 49.2035C40.3906 49.2723 40.3956 49.346 40.3839 49.4176C40.3721 49.4891 40.3438 49.5562 40.3019 49.6122C40.2599 49.6682 40.2055 49.7114 40.1441 49.7375C40.0065 49.8235 39.8488 49.8622 39.6912 49.8485C39.5336 49.8349 39.3833 49.7696 39.2595 49.6609C39.2115 49.6124 39.1755 49.5513 39.1549 49.4832C39.1342 49.4151 39.1295 49.3423 39.1412 49.2717C39.1529 49.2011 39.1807 49.1349 39.2219 49.0793C39.263 49.0238 39.3163 48.9807 39.3767 48.9542C39.5142 48.8689 39.6714 48.8301 39.8286 48.8426C39.9859 48.8552 40.1364 48.9186 40.2613 49.0248Z" fill="#455A64"/>
<path d="M38.7423 48.3122C38.5256 48.423 38.3475 48.6089 38.235 48.8417C38.1225 49.0744 38.0817 49.3414 38.1188 49.6021C38.139 49.654 38.1737 49.6974 38.2178 49.726C38.2619 49.7547 38.3131 49.7669 38.364 49.7611C38.5185 49.7611 38.6357 49.6492 38.6091 49.5255C38.583 49.3424 38.6115 49.1549 38.6903 48.9912C38.7692 48.8276 38.894 48.6968 39.0461 48.6185C39.4145 48.4022 39.8448 48.3536 40.2451 48.483C40.3063 48.5104 40.3746 48.5118 40.4366 48.4867C40.4986 48.4617 40.5501 48.4121 40.5809 48.3476C40.6129 48.2533 40.5809 48.1532 40.4423 48.1179C40.1613 48.025 39.8665 47.9944 39.5748 48.0277C39.2831 48.0611 39.0002 48.1578 38.7423 48.3122Z" fill="#455A64"/>
<path d="M38.1295 47.6878C37.805 47.854 37.5333 48.1244 37.3498 48.4637C37.1664 48.803 37.0797 49.1956 37.101 49.5902C37.1148 49.6483 37.1473 49.6989 37.1924 49.7325C37.2376 49.7661 37.2922 49.7804 37.3462 49.7727C37.4954 49.7727 37.6073 49.6667 37.5966 49.5489C37.5777 49.2274 37.6468 48.9071 37.7952 48.6297C37.9435 48.3523 38.164 48.1308 38.428 47.9941C39.0629 47.6121 39.8038 47.505 40.5063 47.6937C40.567 47.7138 40.6321 47.7109 40.691 47.6852C40.75 47.6596 40.7994 47.6128 40.8314 47.5523C40.8634 47.4522 40.7888 47.3521 40.6715 47.3168C39.812 47.0855 38.9053 47.2178 38.1295 47.6878Z" fill="#455A64"/>
<path d="M22.9522 60.8513L22.4246 60.3094L23.3412 59.7264L23.8741 60.2682L22.9522 60.8513Z" fill="#455A64"/>
<path d="M24.3326 59.9737L23.2721 58.8959L24.1887 58.307L25.2492 59.3848L24.3326 59.9737Z" fill="#455A64"/>
<path d="M25.7074 59.0962L24.114 57.4765L25.036 56.8875L26.6294 58.5072L25.7074 59.0962Z" fill="#455A64"/>
<path d="M27.0875 58.2127L24.9612 56.0571L25.8832 55.4681L28.0041 57.6296L27.0875 58.2127Z" fill="#455A64"/>
<path d="M83.022 19.7119C82.8556 19.6682 82.6806 19.689 82.5264 19.7708L79.0945 21.9559C78.8706 22.0972 78.876 22.3917 79.0945 22.6214L80.059 23.605C80.2005 23.7419 80.3742 23.8317 80.56 23.8641C80.6413 23.8756 80.7237 23.8756 80.8051 23.8641C80.893 23.8618 80.9791 23.8355 81.0556 23.7875L84.4875 21.6025C84.7114 21.4611 84.706 21.1667 84.4875 20.937L83.523 19.9534C83.379 19.8239 83.2058 19.7404 83.022 19.7119ZM80.5706 23.7051C80.4905 23.6867 80.4166 23.6439 80.3575 23.5814L79.3929 22.6037C79.2224 22.4329 79.217 22.1973 79.3929 22.0972L82.8248 19.9122C82.8656 19.886 82.9111 19.8699 82.9581 19.865H83.022C83.1022 19.8834 83.176 19.9263 83.2352 19.9887L84.1998 20.9723C84.365 21.1431 84.3703 21.3728 84.1998 21.4788L80.7678 23.6639C80.7358 23.6867 80.6999 23.7021 80.6624 23.7091C80.6248 23.7162 80.5864 23.7149 80.5493 23.7051H80.5706Z" fill="#455A64"/>
<path d="M80.1819 21.8501L81.3223 23.028L80.7894 23.3696C80.7639 23.3841 80.7355 23.3916 80.7068 23.3916C80.6781 23.3916 80.6498 23.3841 80.6242 23.3696L79.7716 22.5097C79.6543 22.386 79.649 22.2094 79.7716 22.1328L80.1819 21.8501Z" fill="#455A64"/>
<path d="M80.4323 21.6909L81.0772 21.2786L82.2176 22.4389L81.5728 22.8511L80.4323 21.6909Z" fill="#455A64"/>
<path d="M81.3275 21.1255L81.9723 20.7132L83.1181 21.8794L82.4733 22.2858L81.3275 21.1255Z" fill="#455A64"/>
<path d="M82.9424 20.2185L83.7684 21.0548C83.9176 21.2138 83.8484 21.4141 83.5819 21.579L83.3687 21.7203L82.223 20.5424L82.7559 20.2185C82.816 20.1931 82.8824 20.1931 82.9424 20.2185Z" fill="#455A64"/>
<path d="M83.635 19.9301C83.7309 19.8653 83.9707 19.9831 84.1679 20.1833L84.3438 20.3659C84.5463 20.5661 84.6315 20.7841 84.5409 20.8488L84.3757 20.9666L83.4645 20.042L83.635 19.9301Z" fill="#455A64"/>
<path d="M74.1121 26.1848L76.9312 23.5345L77.7785 26.0965L76.2438 25.3426L74.1121 26.1848Z" fill="#455A64"/>
<path d="M39.7284 34.1181L50.0989 27.4981C50.4069 27.3049 50.7568 27.2082 51.1109 27.2186C51.4649 27.229 51.8097 27.346 52.108 27.557C52.5983 27.9811 52.497 28.6525 51.8788 29.0471L41.5083 35.6612C41.2007 35.8557 40.8506 35.9531 40.4963 35.9427C40.142 35.9323 39.7971 35.8145 39.4993 35.6023C39.009 35.1782 39.1102 34.5127 39.7284 34.1181Z" fill="#263238"/>
<path d="M55.055 23.7877C55.4173 23.5712 55.8263 23.4684 56.2377 23.4902C56.6491 23.512 57.0472 23.6576 57.3891 23.9114C57.9807 24.4238 57.8901 25.2012 57.1973 25.6783C56.835 25.8947 56.426 25.9976 56.0146 25.9758C55.6032 25.954 55.2051 25.8083 54.8631 25.5546C54.2769 25.0127 54.3622 24.2353 55.055 23.7877Z" fill="#263238"/>
<path d="M70.0138 45.2967L68.7881 44.2366C68.5619 44.0477 68.2928 43.9318 68.0106 43.9016C67.7284 43.8715 67.4442 43.9283 67.1894 44.0658L65.6866 45.0199C65.5924 45.079 65.5141 45.1647 65.4596 45.2681C65.4051 45.3716 65.3764 45.4892 65.3764 45.6089C65.3764 45.7286 65.4051 45.8462 65.4596 45.9496C65.5141 46.0531 65.5924 46.1387 65.6866 46.1979L66.9123 47.258C66.8364 47.3018 66.7727 47.3678 66.7283 47.4488C66.6839 47.5298 66.6605 47.6227 66.6605 47.7174C66.6605 47.8121 66.6839 47.9049 66.7283 47.9859C66.7727 48.0669 66.8364 48.1329 66.9123 48.1768L69.3797 50.3206C69.554 50.4632 69.7603 50.5507 69.9762 50.5735C70.1922 50.5963 70.4097 50.5537 70.6054 50.4502L73.7442 48.4477C73.8202 48.4038 73.8838 48.3378 73.9282 48.2569C73.9726 48.1759 73.9961 48.083 73.9961 47.9883C73.9961 47.8936 73.9726 47.8007 73.9282 47.7197C73.8838 47.6387 73.8202 47.5727 73.7442 47.5289L71.2715 45.3851C71.0907 45.2409 70.8767 45.1561 70.6542 45.1404C70.4317 45.1248 70.2097 45.179 70.0138 45.2967ZM66.0063 46.0094C65.7612 45.7915 65.7612 45.4852 66.0063 45.3262L67.5092 44.3662C67.6544 44.2886 67.8161 44.2563 67.9767 44.2729C68.1373 44.2895 68.2908 44.3544 68.4204 44.4604L69.6408 45.5264L67.2214 47.0695L66.0063 46.0094Z" fill="#455A64"/>
<path d="M79.0093 80.0043C79.2758 80.234 79.2492 80.4461 78.9401 80.6463L78.5351 80.9054C78.4061 81.0054 78.2507 81.055 78.0934 81.0464C77.9361 81.0379 77.7859 80.9717 77.6664 80.8583L66.8856 71.5056L65.5586 76.1054C65.4574 76.4058 65.2122 76.5294 64.8232 76.4647L64.3329 76.3999C64.1837 76.3866 64.0429 76.3181 63.9332 76.2055C63.8895 76.1635 63.8587 76.1074 63.8453 76.045C63.832 75.9827 63.8366 75.9173 63.8586 75.858L65.4574 70.3807C65.4897 70.2743 65.5488 70.1803 65.6279 70.1098C65.7107 70.0382 65.7979 69.9733 65.889 69.9154L66.294 69.6562C66.4236 69.5583 66.5787 69.5098 66.7355 69.5183C66.8924 69.5268 67.0424 69.5918 67.1627 69.7034L79.0093 80.0043Z" fill="#455A64"/>
<path d="M73.3818 70.4865C72.9846 70.1222 72.6505 69.6811 72.3959 69.1849C72.1391 68.6994 72.0082 68.1452 72.0175 67.5829C72.0415 66.9703 72.2267 66.3788 72.5504 65.8808C73.0097 65.1949 73.6037 64.6331 74.2877 64.2376C75.0262 63.7531 75.8279 63.3975 76.6645 63.1833C77.3914 63.0028 78.1384 62.9413 78.8815 63.0008C79.5566 63.0524 80.2193 63.2275 80.8426 63.5191C81.4158 63.7798 81.9538 64.1266 82.4413 64.5497C83.1019 65.0648 83.5966 65.7993 83.8535 66.6464C84.0548 67.5221 84.0694 68.4374 83.8962 69.3203L83.2087 76.2407L90.3604 71.6821C90.4948 71.5779 90.6567 71.526 90.8207 71.5345C90.9846 71.543 91.1414 71.6115 91.2664 71.7292L91.5381 71.9648C91.8046 72.1945 91.7726 72.4124 91.4422 72.6244L82.7184 78.2372C82.5888 78.3352 82.4338 78.3837 82.2769 78.3752C82.1201 78.3667 81.9701 78.3017 81.8498 78.1901L81.578 77.9545C81.4629 77.8599 81.3802 77.725 81.3435 77.5717C81.3037 77.3679 81.3037 77.1571 81.3435 76.9533L82.1855 69.3616C82.2625 68.9107 82.307 68.4538 82.3187 67.9952C82.326 67.6482 82.2828 67.3022 82.1908 66.9704C82.1085 66.6755 81.9745 66.4013 81.7965 66.1635C81.5941 65.8948 81.3653 65.6518 81.1144 65.4391C80.3419 64.7532 79.3918 64.3571 78.4018 64.3083C77.3332 64.2756 76.2792 64.5888 75.3696 65.2094C74.3837 65.8396 73.8561 66.5345 73.7708 67.3002C73.7502 67.7305 73.8192 68.1603 73.9726 68.5565C74.126 68.9527 74.3596 69.3047 74.6555 69.5854C74.7077 69.6326 74.7466 69.6955 74.7674 69.7666C74.7882 69.8376 74.79 69.9137 74.7727 69.9859C74.7397 70.0984 74.6717 70.1944 74.5808 70.2568L74.1545 70.5277C74.039 70.6141 73.9013 70.6568 73.7619 70.6494C73.6226 70.642 73.4892 70.5848 73.3818 70.4865Z" fill="#455A64"/>
<path d="M89.9501 63.4722C90.0027 63.5064 90.045 63.5572 90.0715 63.618C90.0981 63.6788 90.1078 63.7469 90.0993 63.8138C90.0813 63.883 90.0501 63.9472 90.0078 64.002C89.9655 64.0569 89.9131 64.1011 89.8542 64.1318L88.831 64.7855C88.7014 64.8835 88.5463 64.932 88.3895 64.9235C88.2326 64.915 88.0826 64.85 87.9623 64.7384L87.0937 63.9845C87.0422 63.9477 87.0001 63.897 86.9712 63.8373C86.9423 63.7775 86.9276 63.7107 86.9285 63.643C86.937 63.5736 86.9617 63.508 86.9999 63.4522C87.0382 63.3965 87.0889 63.3527 87.147 63.3249L88.1755 62.6712C88.3166 62.5776 88.4803 62.5344 88.6445 62.5475C88.8031 62.55 88.9566 62.61 89.0814 62.7183L89.9501 63.4722ZM96.2811 68.9672C96.3337 69.0015 96.376 69.0522 96.4026 69.113C96.4291 69.1738 96.4388 69.2419 96.4303 69.3088C96.4126 69.3773 96.3821 69.441 96.3408 69.4958C96.2995 69.5505 96.2483 69.5952 96.1905 69.6268L95.162 70.2806C95.0324 70.3786 94.8773 70.427 94.7205 70.4185C94.5636 70.41 94.4136 70.345 94.2933 70.2335L93.43 69.4796C93.3769 69.4443 93.3331 69.3941 93.3032 69.3341C93.2732 69.2742 93.2581 69.2065 93.2595 69.138C93.268 69.0678 93.2933 69.0015 93.3326 68.9456C93.3719 68.8897 93.4239 68.8464 93.4833 68.8199L94.5065 68.1662C94.6483 68.0747 94.8115 68.0316 94.9755 68.0425C95.1338 68.0467 95.2869 68.1066 95.4124 68.2133L96.2811 68.9672Z" fill="#455A64"/>
<path d="M95.6524 50.8859C95.7868 50.7817 95.9487 50.7297 96.1127 50.7383C96.2766 50.7468 96.4334 50.8153 96.5583 50.933L96.8301 51.1686C96.8932 51.2161 96.9416 51.284 96.9687 51.3629C96.9862 51.4324 96.9987 51.5033 97.006 51.5749L96.9687 58.3245L97.395 58.0535C98.0931 57.6018 98.835 57.2383 99.6066 56.9699C100.322 56.7162 101.067 56.5755 101.818 56.5517C102.541 56.5357 103.261 56.6511 103.95 56.8933C104.654 57.1525 105.31 57.5517 105.884 58.0712C106.412 58.4918 106.832 59.0558 107.105 59.7085C107.309 60.2474 107.346 60.8458 107.211 61.4106C107.043 62.0385 106.737 62.6109 106.321 63.0774C105.801 63.6785 105.203 64.1906 104.547 64.5969C103.793 65.0821 102.987 65.4619 102.149 65.7277C101.405 65.9672 100.637 66.1057 99.8624 66.14C99.1939 66.1708 98.5247 66.0975 97.8746 65.9221C97.3263 65.7853 96.8081 65.529 96.3505 65.1682C96.3044 65.1366 96.2677 65.0908 96.245 65.0363C96.2222 64.9819 96.2145 64.9212 96.2226 64.862C96.2424 64.7998 96.2734 64.7427 96.3137 64.6941C96.354 64.6455 96.4028 64.6065 96.4571 64.5793L96.7555 64.3908C96.8779 64.3113 97.0141 64.2611 97.1552 64.2435C97.3606 64.2265 97.5661 64.2756 97.7467 64.3849C98.2276 64.6463 98.7478 64.808 99.2815 64.862C99.7833 64.9105 100.289 64.8848 100.784 64.7854C101.271 64.6934 101.746 64.5413 102.202 64.3319C102.634 64.1357 103.054 63.9095 103.46 63.6546C103.954 63.3519 104.409 62.9775 104.813 62.5414C105.126 62.2171 105.362 61.8125 105.501 61.3635C105.614 60.958 105.591 60.5211 105.437 60.1326C105.236 59.6609 104.927 59.255 104.541 58.9547C103.741 58.2145 102.717 57.8359 101.674 57.8945C100.54 58.0055 99.4447 58.409 98.4768 59.0725L96.601 60.2504C96.4719 60.3492 96.3172 60.3986 96.1604 60.3912C96.0035 60.3837 95.8532 60.3198 95.7323 60.2092L95.4605 59.9736C95.3802 59.9086 95.3145 59.8239 95.2687 59.7262C95.2395 59.6455 95.2233 59.5598 95.2207 59.4729V52.7941L88.7725 56.9168C88.644 57.0153 88.4897 57.0641 88.3336 57.0556C88.1774 57.047 88.0282 56.9817 87.9092 56.8697L87.6374 56.6341C87.3603 56.3927 87.3762 56.1747 87.6907 55.9745L95.6524 50.8859Z" fill="#455A64"/>
<path d="M116.479 56.0688C116.745 56.2985 116.718 56.5105 116.409 56.7108L115.999 56.9699C115.869 57.0679 115.714 57.1164 115.558 57.1079C115.401 57.0993 115.251 57.0344 115.13 56.9228L104.339 47.5642L103.012 52.1699C102.911 52.4703 102.666 52.5881 102.276 52.5292L101.786 52.4585C101.636 52.4486 101.493 52.3821 101.381 52.27C101.34 52.2263 101.311 52.1699 101.298 52.108C101.286 52.0461 101.291 51.9815 101.312 51.9225L102.911 46.4393C102.944 46.335 103.003 46.2431 103.081 46.1742C103.161 46.1007 103.246 46.0356 103.337 45.9799L103.747 45.7207C103.876 45.6223 104.03 45.5735 104.186 45.582C104.342 45.5905 104.492 45.6559 104.611 45.7678L116.479 56.0688Z" fill="#455A64"/>
<path d="M80.9226 98.4801L135.663 63.5486C136.429 63.0912 137.293 62.874 138.162 62.9207C139.031 62.9675 139.871 63.2763 140.593 63.8137L153.042 74.6153C154.289 75.699 154.108 77.3422 152.637 78.2786L97.8905 113.21C97.1263 113.67 96.2623 113.89 95.393 113.844C94.5236 113.798 93.6823 113.489 92.9611 112.951L80.5122 102.149C79.2919 101.066 79.4464 99.4401 80.9226 98.4801Z" fill="white"/>
<path d="M103.348 117.957L158.094 83.0255C158.858 82.5659 159.722 82.347 160.591 82.3927C161.461 82.4384 162.302 82.7469 163.023 83.2846L175.467 94.0862C176.719 95.1699 176.533 96.8131 175.062 97.7555L120.326 132.687C119.562 133.145 118.698 133.363 117.829 133.318C116.96 133.272 116.119 132.964 115.397 132.428L102.953 121.62C101.674 120.537 101.877 118.876 103.348 117.957Z" fill="white"/>
<path d="M125.778 137.428L180.545 102.497C181.31 102.037 182.174 101.817 183.043 101.863C183.912 101.909 184.754 102.218 185.475 102.756L197.897 113.575C199.144 114.659 198.963 116.296 197.487 117.239L142.746 152.158C141.982 152.618 141.118 152.838 140.248 152.792C139.379 152.746 138.538 152.437 137.816 151.899L125.368 141.092C124.121 140.008 124.302 138.371 125.778 137.428Z" fill="white"/>
<path d="M148.038 138.977H148.011C146.776 139.089 145.544 138.73 144.52 137.958L142.922 136.568C141.099 134.984 137.875 134.801 135.722 136.191C133.59 137.564 133.303 139.961 135.125 141.545L136.553 142.782C136.963 143.086 137.279 143.522 137.457 144.031C137.635 144.54 137.668 145.097 137.55 145.627L137.848 146.369C138.113 146.567 138.423 146.681 138.742 146.698C139.062 146.714 139.38 146.633 139.66 146.463L148.762 140.667C148.881 140.618 148.986 140.534 149.064 140.424C149.143 140.314 149.192 140.182 149.208 140.043C149.223 139.904 149.204 139.763 149.151 139.635C149.099 139.507 149.016 139.398 148.912 139.319C148.658 139.109 148.354 138.99 148.038 138.977ZM146.439 145.485C147.473 144.826 147.601 143.671 146.721 142.911L142.991 145.303C143.497 145.676 144.085 145.89 144.692 145.922C145.299 145.954 145.903 145.803 146.439 145.485Z" fill="#E0E0E0"/>
<path d="M125.655 119.047H125.629C124.394 119.16 123.161 118.8 122.138 118.028L120.539 116.638C118.711 115.053 115.487 114.871 113.334 116.261C111.203 117.633 110.915 120.03 112.743 121.614L114.171 122.851C114.579 123.157 114.893 123.593 115.071 124.102C115.249 124.61 115.283 125.166 115.167 125.696L115.461 126.438C115.726 126.636 116.035 126.75 116.355 126.766C116.674 126.783 116.992 126.702 117.272 126.532L126.38 120.725C126.499 120.676 126.603 120.592 126.682 120.482C126.76 120.372 126.81 120.24 126.825 120.101C126.841 119.962 126.821 119.821 126.769 119.693C126.717 119.565 126.634 119.456 126.529 119.376C126.275 119.171 125.97 119.056 125.655 119.047ZM124.056 125.525C125.09 124.866 125.218 123.717 124.344 122.957L120.614 125.313C121.113 125.697 121.698 125.921 122.305 125.963C122.912 126.004 123.518 125.861 124.056 125.549V125.525Z" fill="#E0E0E0"/>
<g opacity="0.3">
<path d="M145 55.6742L128.506 41.3624L102.138 134.684L118.626 149.001L145 55.6742Z" fill="white"/>
<path d="M194.79 102.697L166.839 78.4257L141.328 168.714L143.908 170.958C145.821 172.619 149.194 172.795 151.438 171.352L180.663 152.7L194.79 102.697Z" fill="white"/>
<path d="M87.1311 121.662L113.5 28.3345L91.9167 9.59962C89.5133 7.51469 85.2286 7.28499 82.3829 9.09899L81.9832 9.35814L70.5416 16.6554L49.9818 89.4277L87.1311 121.662Z" fill="white"/>
</g>
</svg>
