<svg width="125" height="122" viewBox="0 0 125 122" fill="none" xmlns="http://www.w3.org/2000/svg">
<path d="M45.2946 61.811C47.4685 78.4377 52.824 99.7515 57.8678 104.411C61.9421 108.174 84.1971 116.182 85.4528 116.448C88.5619 117.082 96.6166 93.46 93.4391 92.1961C89.4417 90.5824 70.0267 88.1292 69.0145 86.786C68.0024 85.4428 61.6902 74.2402 54.6049 61.3726C49.7149 52.4786 43.9408 51.4899 45.2946 61.811Z" fill="#AD6359"/>
<path d="M83.0357 114.886C83.3944 115.128 88.4724 118.528 91.6712 119.867C94.0585 120.865 101.003 123.542 102.271 120.799C103.125 118.934 99.2262 116.821 96.4886 115.268C95.0451 114.452 93.3368 112.577 93.8578 111.57C94.7675 109.807 98.4745 111.999 100.879 113.836C105.53 117.39 111.616 123.574 114.81 121.14C116.019 120.207 114.849 118.23 113.072 116.229C116.023 118.645 119.205 120.697 120.584 119.731C121.374 119.186 121.473 118.332 121.135 117.334C122.071 117.763 122.925 117.777 123.57 117.148C124.671 116.084 124.308 114.349 123.335 112.484C123.526 112.478 123.714 112.423 123.882 112.324C124.051 112.224 124.195 112.082 124.304 111.91C126.721 108.538 116.788 97.3123 113.153 96.0111C102.476 92.1774 90.7743 92.1447 90.7743 92.1447C86.2003 95.4654 83.0271 114.881 83.0357 114.886Z" fill="#AD6359"/>
<path d="M99.9263 105.39C102.49 106.074 104.891 107.345 106.969 109.121C109.582 111.369 111.24 113.869 113.375 116.434C113.43 116.499 113.336 116.597 113.281 116.532C112.26 115.31 108.002 110.693 106.875 109.63C104.872 107.668 102.485 106.233 99.8964 105.432C99.8835 105.432 99.8964 105.385 99.9263 105.39Z" fill="#263238"/>
<path d="M102.365 100.521C105.167 101.64 108.041 102.778 110.586 104.504C113.375 106.393 115.451 109.242 117.496 111.994C118.726 113.645 119.921 115.326 121.08 117.036C121.127 117.106 121.037 117.204 120.986 117.129C118.913 114.293 116.763 111.528 114.537 108.832C112.487 106.317 110.002 104.269 107.225 102.806C105.636 101.971 103.992 101.276 102.352 100.577C102.349 100.576 102.346 100.574 102.343 100.572C102.34 100.57 102.338 100.567 102.336 100.564C102.334 100.561 102.333 100.557 102.333 100.553C102.332 100.549 102.332 100.546 102.333 100.542C102.334 100.538 102.335 100.535 102.337 100.532C102.34 100.529 102.342 100.526 102.345 100.524C102.348 100.522 102.351 100.521 102.355 100.52C102.358 100.52 102.362 100.52 102.365 100.521Z" fill="#263238"/>
<path d="M105.752 96.3842C108.489 97.2657 110.877 98.0212 113.221 99.8774C116.322 102.335 119.2 106.262 120.204 107.652C121.314 109.191 122.378 110.768 123.42 112.358C123.463 112.423 123.36 112.507 123.317 112.442C120.92 108.938 118.318 105.607 115.527 102.471C114.219 100.954 112.704 99.6689 111.035 98.6602C109.334 97.7453 107.565 96.9902 105.747 96.4028C105.747 96.4028 105.739 96.3795 105.752 96.3842Z" fill="#263238"/>
<path d="M49.6852 90.0039L66.559 79.6828C66.559 79.6828 59.9905 66.9365 53.2513 57.3289C46.512 47.7214 43.8256 53.2527 44.7951 63.6671C45.7646 74.0815 49.6852 90.0039 49.6852 90.0039Z" fill="#FFC727"/>
<path d="M63.9878 77.1037C59.1566 79.7205 54.4525 82.6081 49.8943 85.7552C49.8259 85.8018 49.8943 85.9231 49.9669 85.8858C54.8083 83.2753 59.5225 80.3923 64.0903 77.2483C64.1416 77.197 64.0647 77.0618 63.9878 77.1037Z" fill="#263238"/>
<path opacity="0.1" d="M63.5778 81.5063L49.685 90.0039C49.685 90.0039 45.7601 74.0861 44.7949 63.667C44.18 57.077 45.0341 52.4458 47.4514 52.3665L63.5778 81.5063Z" fill="black"/>
<path d="M2.21556 118.873H66.0637C66.8794 118.22 59.4824 70.9755 50.0824 54.6519C48.3229 51.6018 39.8924 46.9379 33.294 52.4646C13.3794 69.1472 1.46818 117.829 2.21556 118.873Z" fill="#FFC727"/>
<path d="M77.2659 83.6751C79.3731 82.4734 81.5832 81.5002 83.8643 80.7695C86.9179 79.9067 93.6187 78.5822 94.8188 78.0365L96.8475 77.9572L83.7319 115.734L65.7605 119.764L35.865 111.975L46.542 76.0264L48.6005 75.9144C48.6005 75.9144 52.3972 77.0384 55.5277 77.6914C58.6582 78.3443 69.5145 78.8573 77.2659 83.6751Z" fill="white"/>
<path d="M63.0953 120.729L74.8271 84.3187L45.2477 75.6579L34.1352 112.829L63.0953 120.729Z" fill="#455A64"/>
<path d="M63.0955 120.73L67.4047 120.991L79.1835 84.5754L74.8273 84.3189L63.0955 120.73Z" fill="#37474F"/>
<path d="M67.4045 120.991L79.1833 84.5754L97.7184 77.6262L84.21 116.103L67.4045 120.991Z" fill="#455A64"/>
<path d="M31.4704 54.4188C16.3006 73.2095 -2.94779 108.207 0.379146 115.133C4.59867 123.915 33.7382 122.292 40.5244 120.562C43.4243 119.825 33.3965 92.3733 30.2746 93.0916C27.5584 93.7165 25.2137 94.3415 25.1198 93.931C25.0258 93.5206 33.1317 80.4385 38.0687 61.5965C41.464 48.7522 34.6906 50.4545 31.4704 54.4188Z" fill="#AD6359"/>
<path d="M16.6461 106.164C16.6461 106.164 17.7779 104.896 22.7491 97.1583C26.1657 91.8042 37.6968 81.1659 54.0453 85.4986C60.3063 87.1636 61.9761 92.6903 55.1856 92.2239C50.4023 91.8928 47.1181 91.2165 45.5294 91.5896C45.5294 91.5896 50.9704 96.9577 50.4707 101.566C50.035 105.596 49.3371 109.588 48.3823 113.51C47.6839 113.48 46.9879 113.404 46.2981 113.281C45.952 115.079 45.1478 116.733 43.9781 118.054C42.8084 119.374 41.3209 120.306 39.687 120.743L16.6461 106.164Z" fill="#AD6359"/>
<path d="M26.7726 92.6205C29.8219 91.7997 36.305 90.1813 42.0321 90.8715C48.3912 91.6411 60.4519 94.9897 59.8882 100.111C59.4611 103.842 54.7632 103.03 54.7632 103.03C54.7632 103.03 59.4825 105.563 58.4276 108.865C57.4666 111.873 53.8578 110.987 53.8578 110.987C53.8578 110.987 56.4801 113.062 55.0408 115.767C53.3325 119.032 48.1051 114.14 43.7446 115.767C42.7709 116.15 26.7726 92.6205 26.7726 92.6205Z" fill="#AD6359"/>
<path d="M40.1699 98.0773C43.1594 97.8208 50.061 99.1313 54.7161 102.895C54.8229 102.979 54.8186 103.114 54.7161 103.058C50.076 100.784 45.2001 99.133 40.1955 98.1426C40.1314 98.1379 40.14 98.0819 40.1699 98.0773Z" fill="#263238"/>
<path d="M39.6487 105.11C42.2411 105.176 49.3092 106.878 53.9046 110.87C54.0071 110.959 53.9943 111.089 53.9046 111.029C49.3733 108.496 44.5937 106.532 39.6573 105.176C39.6494 105.177 39.6413 105.175 39.6349 105.169C39.6285 105.164 39.6242 105.156 39.6231 105.148C39.622 105.139 39.624 105.13 39.6289 105.123C39.6337 105.116 39.6408 105.112 39.6487 105.11Z" fill="#263238"/>
<path d="M12.1064 102.559C13.9343 99.9754 19.4649 95.2696 25.145 94.0336C25.2732 94.0056 25.3629 94.0989 25.2518 94.1502C20.5851 96.3801 16.1839 99.221 12.1448 102.61C12.1192 102.634 12.085 102.587 12.1064 102.559Z" fill="#263238"/>
<path d="M13.5627 77.5934L31.6366 85.1069C31.6366 85.1069 36.3772 71.4231 38.803 59.6189C41.2288 47.8147 35.6213 49.1066 28.9204 56.5967C22.2196 64.0869 13.5627 77.5934 13.5627 77.5934Z" fill="#FFC727"/>
<path d="M37.2358 69.8235C37.238 69.8182 37.2393 69.8126 37.2395 69.8069C37.2398 69.8011 37.239 69.7954 37.2372 69.79C37.2354 69.7846 37.2327 69.7796 37.2291 69.7753C37.2256 69.7711 37.2213 69.7676 37.2165 69.7652C37.2118 69.7627 37.2066 69.7613 37.2013 69.761C37.1961 69.7608 37.1908 69.7616 37.1859 69.7636C37.1809 69.7655 37.1763 69.7685 37.1724 69.7724C37.1686 69.7763 37.1654 69.7809 37.1631 69.7861L36.2278 71.7123C36.5524 70.4064 36.8542 69.0912 37.1333 67.7667C37.1333 67.7247 37.0777 67.6967 37.0649 67.7387C36.1481 70.593 35.2498 73.4504 34.3701 76.3109C33.5159 79.1792 32.4995 82.0055 31.6538 84.8831C31.1328 84.7711 30.8509 84.6779 30.4623 84.6079C30.3726 84.6079 30.3171 84.7012 30.3982 84.7478C30.8663 85.0234 31.3662 85.2289 31.8845 85.3588C33.029 82.6071 33.9558 79.5196 34.8484 76.6607C35.2755 75.2615 35.7025 73.839 36.0527 72.4119C36.4912 71.574 36.8862 70.7098 37.2358 69.8235Z" fill="#263238"/>
<path d="M31.7993 81.2965C26.8584 78.9207 21.8078 76.8269 16.6679 75.0236C16.591 74.9956 16.5483 75.1356 16.6209 75.1682C21.561 77.5502 26.6117 79.6487 31.7523 81.4551C31.8335 81.4877 31.8975 81.3338 31.7993 81.2965Z" fill="#263238"/>
<path d="M37.0222 53.3461C37.0222 54.4887 40.3064 62.6738 44.8847 63.5646C46.3794 63.8491 48.1646 55.0297 48.1646 55.0297L48.4337 54.4094L52.1834 45.7533L42.5742 35.2036C42.5742 35.2036 37.0222 52.8657 37.0222 53.3461Z" fill="#AD6359"/>
<path d="M52.1835 45.7533L48.4338 54.4047L48.1647 55.0297C48.1647 55.0297 47.8401 56.6247 47.3533 58.439C41.3742 55.9158 39.6061 50.1513 39.0936 46.3549C40.6695 41.2247 42.57 35.2083 42.57 35.2083L52.1835 45.7533Z" fill="#263238"/>
<path d="M67.4814 32.0882C65.4997 52.4926 54.0882 53.5047 50.0566 53.0336C46.4008 52.6045 33.9985 50.6457 34.0326 30.1247C34.0668 9.60374 43.3856 4.16102 51.7948 4.65539C60.204 5.14976 69.4801 11.6838 67.4814 32.0882Z" fill="#AD6359"/>
<path d="M62.7152 35.1524C64.7737 35.4929 63.9964 39.9702 62.0916 39.653C60.1869 39.3359 60.9855 34.8679 62.7152 35.1524Z" fill="#263238"/>
<path d="M53.187 33.6647C51.137 33.2403 50.5092 37.7456 52.4054 38.1373C54.3017 38.5291 54.8996 34.0098 53.187 33.6647Z" fill="#263238"/>
<path d="M64.5218 32.5918C64.1123 32.4372 63.7103 32.2597 63.3174 32.0601C62.87 31.9378 62.4721 31.6574 62.1857 31.2626C62.1175 31.1196 62.0947 30.9558 62.121 30.7971C62.1473 30.6384 62.2211 30.4937 62.3309 30.3858C62.822 29.9521 63.4413 30.0547 64.005 30.2832C64.5801 30.4892 65.0633 30.9237 65.3589 31.5005C65.4196 31.6358 65.443 31.7874 65.4264 31.937C65.4097 32.0866 65.3537 32.2277 65.2651 32.3433C65.1765 32.4588 65.0591 32.5437 64.9272 32.5879C64.7953 32.632 64.6544 32.6334 64.5218 32.5918Z" fill="#263238"/>
<path d="M51.8461 30.8103C52.2732 30.8383 52.7003 30.7823 53.1274 30.7637C53.5863 30.8171 54.0486 30.704 54.4428 30.4419C54.5512 30.333 54.6238 30.188 54.6493 30.0296C54.6747 29.8711 54.6517 29.7078 54.5837 29.5651C54.4094 29.3048 54.1746 29.1001 53.9035 28.9722C53.6324 28.8443 53.335 28.7978 53.042 28.8375C52.4364 28.8151 51.8451 29.0414 51.3849 29.4718C51.2847 29.5774 51.2149 29.7127 51.1843 29.8611C51.1537 30.0094 51.1635 30.1643 51.2126 30.3067C51.2616 30.449 51.3477 30.5725 51.4603 30.662C51.5729 30.7515 51.707 30.8031 51.8461 30.8103Z" fill="#263238"/>
<path d="M51.6924 45.9539C51.923 46.3503 52.1194 46.8866 52.5465 47.0265C53.0124 47.1361 53.4943 47.1361 53.9601 47.0265C53.9692 47.0261 53.9783 47.0285 53.9861 47.0335C53.994 47.0385 54.0003 47.046 54.0044 47.0549C54.0085 47.0638 54.0101 47.0737 54.0091 47.0836C54.008 47.0935 54.0044 47.1028 53.9986 47.1105C53.7626 47.3325 53.4755 47.4799 53.1684 47.5366C52.8613 47.5933 52.5458 47.5572 52.2561 47.4323C52.0186 47.2942 51.824 47.0822 51.697 46.8231C51.57 46.564 51.5164 46.2696 51.5429 45.9772C51.5429 45.9026 51.6625 45.8979 51.6924 45.9539Z" fill="#263238"/>
<path d="M57.7825 42.0269C57.7825 42.0269 57.7014 44.1303 57.5391 45.1003C57.5391 45.1889 57.3042 45.1936 56.9967 45.1516C56.9967 45.1516 56.9753 45.1516 56.9625 45.1516C56.176 45.1512 55.4047 44.9148 54.7329 44.4682C54.0611 44.0216 53.5145 43.3819 53.153 42.6192C53.1103 42.5119 53.2384 42.4373 53.311 42.5119C54.3232 43.6825 55.5745 44.1769 56.9582 44.48C57.065 44.2235 56.9967 40.8329 57.1291 40.8842C57.7014 41.1127 58.6922 41.6024 59.0595 41.7843C59.1406 40.4178 59.1961 36.5235 59.3499 34.0377C59.3499 33.8838 59.5805 33.8744 59.589 34.0377C59.8488 36.9512 59.9301 39.8804 59.8325 42.8057C59.8239 43.0156 58.1113 42.26 57.7825 42.0269Z" fill="#263238"/>
<path d="M31.782 31.1508C37.018 33.2729 41.6774 27.2005 41.9294 21.1981C41.9294 21.1981 55.5959 27.8068 59.6232 15.5549C60.1695 17.5664 61.162 19.3995 62.5128 20.8916C63.8635 22.3838 65.5306 23.4887 67.3661 24.1084L67.7206 29.2386C69.3051 29.2386 72.0725 25.2137 69.4546 20.5219C69.4546 20.5219 70.8767 14.2257 67.6822 9.15604C66.8377 7.71915 65.6311 6.57929 64.2075 5.87352C62.7838 5.16776 61.2038 4.92615 59.6574 5.17776C57.7058 2.43056 54.8527 0.619368 51.7009 0.126803C46.2642 -0.805968 42.7323 3.71331 42.7323 3.71331C42.7323 3.71331 35.2926 2.92979 32.6277 8.00873C29.9627 13.0877 31.5642 17.579 31.5642 17.579C31.5642 17.579 29.2239 19.16 28.8694 24.1084C28.6259 27.2938 30.2104 30.5119 31.782 31.1508Z" fill="#263238"/>
<path d="M59.606 14.347C59.4407 15.392 59.1774 16.4157 58.8202 17.4018C58.4921 18.39 58.0531 19.3299 57.5133 20.2001C56.4649 21.9195 54.86 23.1423 53.0205 23.6234C51.1969 24.2064 49.2579 23.768 47.3916 23.3856C46.4777 23.0591 45.5381 22.8026 44.6369 22.4201C43.7358 22.0377 42.8475 21.5993 41.9293 21.2169C42.7834 21.7485 43.6376 22.2382 44.4917 22.7559C45.3459 23.2736 46.3196 23.5395 47.2378 23.9405C49.1383 24.4582 51.167 24.92 53.17 24.351C55.1639 23.801 56.8802 22.4175 57.949 20.4986C58.9629 18.6313 59.5326 16.5164 59.606 14.347Z" fill="#263238"/>
<path d="M42.7153 3.71327C40.9045 3.15242 39.0076 3.00321 37.142 3.27487C35.2089 3.51884 33.4168 4.49989 32.0811 6.0452C31.4673 6.8568 30.9757 7.7699 30.6247 8.75024C30.2462 9.71192 30.0208 10.7372 29.9585 11.7818C29.8097 13.8626 30.3761 15.9294 31.5472 17.5789C30.6292 15.8412 30.2558 13.8237 30.4838 11.8331C30.7091 9.88229 31.4429 8.04328 32.5978 6.53491C33.1837 5.80868 33.8892 5.20908 34.6777 4.7673C35.4924 4.3395 36.3534 4.02608 37.2402 3.83453C39.0479 3.47813 40.8959 3.4372 42.7153 3.71327Z" fill="#263238"/>
<path d="M59.6573 5.17774C61.1426 5.07604 62.6333 5.23348 64.0733 5.64412C65.4793 6.03166 66.7705 6.80736 67.823 7.89677C68.8378 9.03195 69.5725 10.4296 69.9584 11.959C70.3587 13.5249 70.5458 15.1467 70.5136 16.7721C70.809 15.1336 70.7945 13.4465 70.4709 11.8144C70.1876 10.1242 69.4334 8.57065 68.3113 7.36609C67.1891 6.16154 65.7538 5.36471 64.2014 5.08446C62.6983 4.7567 61.148 4.78852 59.6573 5.17774Z" fill="#263238"/>
<path d="M65.0003 23.8984C63.5973 22.8244 62.3701 21.5 61.3701 19.9807C60.8845 19.234 60.495 18.418 60.2127 17.5555C59.9333 16.6667 59.7443 15.7471 59.649 14.8132C59.4816 15.7738 59.5005 16.762 59.7045 17.7141C59.9037 18.6838 60.2784 19.6003 60.8064 20.4098C61.3221 21.216 61.9504 21.9289 62.6684 22.5225C63.3705 23.1191 64.1585 23.5841 65.0003 23.8984Z" fill="#263238"/>
<path d="M45.3717 36.1878C45.3546 36.2267 45.3306 36.2615 45.3012 36.2903C45.2718 36.3191 45.2374 36.3412 45.2002 36.3555C45.1629 36.3698 45.1234 36.3759 45.0839 36.3736C45.0445 36.3712 45.0059 36.3604 44.9702 36.3417C44.9346 36.323 44.9027 36.2968 44.8764 36.2647C44.85 36.2326 44.8297 36.1951 44.8166 36.1543C44.8035 36.1136 44.7979 36.0705 44.8001 36.0274C44.8023 35.9844 44.8122 35.9422 44.8293 35.9033C44.8639 35.8247 44.9256 35.7644 45.0008 35.7355C45.0761 35.7067 45.1588 35.7116 45.2308 35.7494C45.3027 35.7871 45.3579 35.8545 45.3844 35.9367C45.4108 36.0189 45.4062 36.1092 45.3717 36.1878Z" fill="#AD6359"/>
<path d="M51.2182 38.8927C51.1892 38.9484 51.146 38.9938 51.0939 39.0232C51.0418 39.0527 50.983 39.065 50.9246 39.0586C50.8662 39.0523 50.8107 39.0276 50.765 38.9875C50.7192 38.9475 50.685 38.8937 50.6666 38.8329C50.6482 38.772 50.6464 38.7067 50.6613 38.6447C50.6763 38.5827 50.7074 38.5268 50.7509 38.4838C50.7944 38.4408 50.8483 38.4124 50.9063 38.4022C50.9642 38.392 51.0236 38.4004 51.0773 38.4263C51.1156 38.4456 51.1498 38.4733 51.1779 38.5076C51.206 38.542 51.2273 38.5823 51.2406 38.6261C51.2538 38.6698 51.2586 38.716 51.2548 38.7619C51.2509 38.8078 51.2385 38.8523 51.2182 38.8927Z" fill="#AD6359"/>
<path d="M48.2414 40.0262C48.2242 40.0685 48.1992 40.1065 48.1678 40.1375C48.1364 40.1686 48.0994 40.1922 48.0591 40.2067C48.0189 40.2212 47.9763 40.2263 47.9341 40.2217C47.892 40.2172 47.8512 40.203 47.8143 40.1801C47.779 40.1592 47.748 40.1308 47.723 40.0966C47.698 40.0623 47.6795 40.0229 47.6688 39.9806C47.658 39.9384 47.6551 39.8943 47.6603 39.8508C47.6655 39.8074 47.6787 39.7655 47.699 39.7277C47.7163 39.6885 47.7406 39.6534 47.7704 39.6244C47.8002 39.5954 47.8349 39.5731 47.8726 39.5588C47.9103 39.5445 47.9502 39.5385 47.99 39.5411C48.0299 39.5436 48.0688 39.5548 48.1047 39.5738C48.1418 39.5926 48.175 39.6195 48.2022 39.6529C48.2294 39.6862 48.25 39.7253 48.2628 39.7677C48.2756 39.8101 48.2803 39.8549 48.2766 39.8994C48.273 39.9438 48.261 39.987 48.2414 40.0262Z" fill="#AD6359"/>
<path d="M46.6103 33.8044C46.593 33.8437 46.5687 33.8788 46.539 33.9078C46.5092 33.9367 46.4744 33.959 46.4367 33.9733C46.399 33.9876 46.3591 33.9937 46.3193 33.9911C46.2795 33.9885 46.2405 33.9774 46.2046 33.9583C46.1507 33.9297 46.1058 33.8843 46.0755 33.8278C46.0453 33.7713 46.031 33.7063 46.0345 33.6409C46.0381 33.5756 46.0593 33.5129 46.0954 33.4607C46.1316 33.4085 46.1811 33.3692 46.2377 33.3477C46.2943 33.3262 46.3555 33.3236 46.4135 33.34C46.4715 33.3565 46.5238 33.3914 46.5636 33.4402C46.6035 33.4891 46.6292 33.5498 46.6375 33.6146C46.6458 33.6794 46.6364 33.7455 46.6103 33.8044Z" fill="#AD6359"/>
<path d="M48.5533 36.8966C48.528 36.9561 48.4872 37.0061 48.4358 37.0403C48.3845 37.0744 48.3251 37.0911 48.265 37.0882C48.205 37.0854 48.1471 37.0631 48.0987 37.0243C48.0502 36.9854 48.0135 36.9317 47.993 36.87C47.9726 36.8083 47.9694 36.7414 47.9839 36.6777C47.9983 36.614 48.0298 36.5564 48.0743 36.5123C48.1187 36.4682 48.1742 36.4395 48.2337 36.4298C48.2931 36.4202 48.3538 36.4301 48.4081 36.4582C48.4443 36.4762 48.4768 36.502 48.5037 36.5339C48.5306 36.5658 48.5515 36.6033 48.565 36.6441C48.5785 36.6849 48.5844 36.7283 48.5824 36.7716C48.5804 36.815 48.5705 36.8575 48.5533 36.8966Z" fill="#AD6359"/>
<path d="M64.5262 39.9515C64.4911 40.0306 64.4286 40.0913 64.3525 40.1202C64.2764 40.1491 64.193 40.1437 64.1205 40.1054C64.048 40.067 63.9924 39.9988 63.966 39.9157C63.9396 39.8326 63.9444 39.7415 63.9795 39.6623C64.0147 39.5832 64.0771 39.5225 64.1532 39.4936C64.2293 39.4647 64.3128 39.4701 64.3853 39.5084C64.4578 39.5468 64.5133 39.615 64.5398 39.6981C64.5662 39.7812 64.5613 39.8723 64.5262 39.9515Z" fill="#AD6359"/>
<path d="M61.6476 40.5298C61.6307 40.5689 61.6068 40.6039 61.5774 40.6329C61.548 40.6618 61.5137 40.6841 61.4763 40.6984C61.439 40.7127 61.3994 40.7188 61.3599 40.7163C61.3204 40.7138 61.2817 40.7027 61.2461 40.6837C61.2074 40.665 61.1727 40.6376 61.1442 40.6033C61.1157 40.5691 61.0942 40.5286 61.0809 40.4847C61.0676 40.4408 61.0629 40.3943 61.0671 40.3482C61.0713 40.3022 61.0843 40.2576 61.1052 40.2174C61.1221 40.1783 61.1459 40.1432 61.1753 40.1143C61.2047 40.0854 61.2391 40.0631 61.2765 40.0488C61.3138 40.0345 61.3534 40.0284 61.3929 40.0309C61.4324 40.0334 61.4711 40.0445 61.5066 40.0634C61.5449 40.0827 61.5792 40.1104 61.6073 40.1448C61.6354 40.1791 61.6567 40.2194 61.6699 40.2632C61.6832 40.3069 61.688 40.3532 61.6841 40.399C61.6803 40.4449 61.6679 40.4894 61.6476 40.5298Z" fill="#AD6359"/>
<path d="M61.3317 42.7777C61.2959 42.8561 61.2333 42.916 61.1575 42.9448C61.0817 42.9736 60.9986 42.9688 60.926 42.9316C60.8736 42.9027 60.8301 42.8576 60.801 42.8019C60.7719 42.7462 60.7584 42.6824 60.7623 42.6184C60.7662 42.5544 60.7873 42.4931 60.8229 42.4421C60.8585 42.3911 60.907 42.3527 60.9625 42.3317C61.018 42.3106 61.0779 42.3079 61.1348 42.3238C61.1917 42.3397 61.243 42.3736 61.2824 42.4211C61.3218 42.4687 61.3474 42.5279 61.3562 42.5913C61.365 42.6547 61.3565 42.7195 61.3317 42.7777Z" fill="#AD6359"/>
<path d="M63.7872 42.3859C63.761 42.4448 63.7194 42.4938 63.6677 42.5269C63.616 42.56 63.5564 42.5755 63.4966 42.5717C63.4368 42.5678 63.3793 42.5446 63.3315 42.5052C63.2838 42.4657 63.2478 42.4116 63.2281 42.3498C63.2084 42.2879 63.206 42.2211 63.2211 42.1578C63.2361 42.0945 63.2681 42.0374 63.3128 41.9939C63.3576 41.9503 63.4131 41.9223 63.4725 41.9132C63.5318 41.9041 63.5923 41.9144 63.6463 41.9429C63.7181 41.982 63.773 42.0503 63.7993 42.1331C63.8257 42.2159 63.8213 42.3066 63.7872 42.3859Z" fill="#AD6359"/>
<path d="M48.4595 40.9869C47.2838 40.597 46.2318 39.8544 45.4234 38.8438C44.615 37.8332 44.0826 36.5951 43.8867 35.2704C43.6909 33.9457 43.8394 32.5875 44.3155 31.3504C44.7916 30.1133 45.5762 29.047 46.5798 28.2728C47.5835 27.4986 48.766 27.0476 49.9928 26.9712C51.2196 26.8947 52.4414 27.1957 53.5192 27.8402C54.5971 28.4846 55.4876 29.4464 56.0896 30.6163C56.6915 31.7861 56.9807 33.117 56.9242 34.4575C56.8422 36.3505 56.0775 38.1312 54.7972 39.4105C53.5168 40.6899 51.8249 41.3639 50.091 41.2854C49.5379 41.2604 48.9899 41.1601 48.4595 40.9869ZM52.0214 28.1893C51.5693 28.0378 51.1015 27.95 50.6291 27.9281C49.1842 27.8562 47.7686 28.3884 46.6706 29.4164C45.5725 30.4444 44.8746 31.8909 44.7189 33.4612C44.5633 35.0315 44.9616 36.6075 45.8328 37.8683C46.704 39.1291 47.9825 39.9798 49.408 40.2472C50.8334 40.5146 52.2986 40.1786 53.5051 39.3076C54.7117 38.4365 55.5688 37.096 55.9019 35.559C56.235 34.022 56.0191 32.4041 55.2981 31.0349C54.5772 29.6656 53.4054 28.648 52.0214 28.1893Z" fill="#455A64"/>
<path d="M62.7538 43.6312C60.3494 42.8337 58.9101 39.4337 59.5251 35.7446C59.7872 33.9797 60.5489 32.3488 61.7032 31.0808C62.1821 30.5242 62.7769 30.102 63.4372 29.8503C64.0975 29.5986 64.8037 29.5247 65.4957 29.635C66.8111 29.8915 67.9044 30.8895 68.5877 32.4333C69.2647 34.0595 69.4574 35.8767 69.1387 37.6288C68.498 41.5185 65.8203 44.2608 63.1596 43.7385C63.0224 43.712 62.8869 43.6762 62.7538 43.6312ZM65.6622 30.6657C65.5577 30.6284 65.4506 30.6003 65.3419 30.5817C64.7862 30.4992 64.2204 30.5643 63.6926 30.7713C63.1647 30.9783 62.6904 31.3212 62.3097 31.771C61.2899 32.8994 60.6181 34.3472 60.3878 35.9125C59.8326 39.2845 61.1437 42.372 63.3261 42.801C65.5085 43.2301 67.7207 40.8329 68.2759 37.4656C68.5625 35.9113 68.3952 34.298 67.7976 32.853C67.6012 32.3459 67.3097 31.8893 66.9419 31.5126C66.5741 31.1359 66.1382 30.8474 65.6622 30.6657Z" fill="#455A64"/>
<path d="M56.6377 35.2411L56.2704 34.5368C57.2185 33.9445 59.2984 33.3009 60.3704 35.1151L59.7511 35.5535C58.803 33.9259 56.7231 35.1851 56.6377 35.2411Z" fill="#455A64"/>
<path d="M30.1034 31.6124L29.5183 31.146C29.7276 30.8475 31.6196 28.2311 33.2937 28.2591C34.8568 28.2964 44.449 31.2113 44.8547 31.3372L44.6583 32.1114C41.9079 31.2719 34.4895 29.0892 33.2809 29.0706C32.1748 29.0239 30.6159 30.8941 30.1034 31.6124Z" fill="#455A64"/>
<path d="M37.4022 32.4147C37.4022 32.4147 34.4981 25.2743 31.6068 26.2864C28.7155 27.2985 30.1163 37.0552 32.9606 38.9534C33.3096 39.2248 33.7052 39.4163 34.1236 39.5164C34.542 39.6166 34.9747 39.6233 35.3956 39.5361C35.8165 39.449 36.2169 39.2699 36.5727 39.0094C36.9286 38.749 37.2325 38.4127 37.4663 38.0207L37.4022 32.4147Z" fill="#AD6359"/>
<path d="M32.0726 29.0754C32.0214 29.0754 32 29.1313 32.0385 29.1593C34.0201 30.5585 34.7632 32.9837 35.1561 35.4136C34.6693 34.4062 33.8749 33.7439 32.6706 34.3502C32.6065 34.3829 32.6449 34.4901 32.7047 34.4901C33.1063 34.4384 33.5126 34.5242 33.8676 34.7356C34.2225 34.9469 34.5087 35.2735 34.6864 35.6701C34.9814 36.3343 35.2091 37.0318 35.3654 37.7502C35.4295 37.9787 35.7925 37.9414 35.7669 37.6849C35.7689 37.6647 35.7689 37.6444 35.7669 37.6242C36.3477 34.644 34.9597 29.9988 32.0726 29.0754Z" fill="#263238"/>
</svg>
