<svg width="20" height="81" viewBox="0 0 20 81" fill="none" xmlns="http://www.w3.org/2000/svg">
<path d="M3.17994 80.9875C3.17994 80.9875 3.50092 80.9875 4.08314 80.8209C4.93296 80.6198 5.72748 80.2126 6.40456 79.6309C7.47902 78.7092 8.30555 77.5024 8.80063 76.1325C9.12199 75.2758 9.3159 74.3712 9.37538 73.4512C9.43041 72.4327 9.35762 71.4109 9.15892 70.4128C8.63527 68.121 7.74935 65.9401 6.53892 63.9634C5.29236 61.7897 3.73231 59.6161 2.37379 57.1093C1.66644 55.8263 1.08848 54.4675 0.649519 53.0556C0.21326 51.5688 -0.00575823 50.0197 0.000115058 48.4624C0.0326557 45.1736 0.969302 41.9667 2.69476 39.2364C3.56525 37.8552 4.63304 36.6267 5.85966 35.5951C7.08384 34.6575 8.38548 33.8397 9.7486 33.1518C11.0401 32.5005 12.2614 31.7026 13.3912 30.7719C14.4352 29.842 15.2371 28.6429 15.7201 27.2893C16.4948 24.727 16.6463 21.9978 16.1605 19.3564C15.7948 16.8416 15.2573 14.5173 15.0483 12.3437C14.8348 10.3818 14.9256 8.39598 15.317 6.46535C15.5756 5.00311 16.0814 3.60279 16.8099 2.33229C17.2765 1.5157 17.9284 0.836537 18.7059 0.35698C18.9027 0.234092 19.1134 0.138136 19.3329 0.0713936C19.4064 0.0359486 19.4843 0.0119074 19.5643 0C19.5643 0 19.2582 0.103123 18.7432 0.428374C18.003 0.919552 17.3837 1.59129 16.9368 2.38781C16.2372 3.65255 15.7521 5.03808 15.5036 6.48122C15.1445 8.39025 15.0765 10.3482 15.3021 12.2802C15.5186 14.43 16.0485 16.7385 16.4591 19.2691C16.977 21.9861 16.8331 24.7987 16.0411 27.4401C15.5353 28.8522 14.6975 30.103 13.6077 31.0734C12.4503 32.0332 11.1991 32.8577 9.8755 33.5326C8.5365 34.2137 7.26177 35.0292 6.06866 35.968C4.89046 36.9708 3.86562 38.1617 3.03066 39.4982C1.34756 42.1605 0.431845 45.2869 0.395729 48.4941C0.387856 50.0102 0.596752 51.5188 1.01527 52.9683C1.4438 54.3502 2.00929 55.6798 2.70222 56.9348C4.03088 59.4178 5.58347 61.5993 6.83003 63.8047C8.04728 65.8168 8.93092 68.0358 9.44256 70.3652C9.63443 71.3937 9.69967 72.4444 9.63664 73.4908C9.56399 74.4239 9.35496 75.3392 9.01709 76.2039C8.49905 77.621 7.62984 78.8628 6.5016 79.7975C5.79905 80.3807 4.97458 80.7752 4.09806 80.9478C3.7946 80.9998 3.48638 81.0131 3.17994 80.9875Z" fill="#455A64"/>
</svg>
