<svg width="49" height="52" viewBox="0 0 49 52" fill="none" xmlns="http://www.w3.org/2000/svg">
<path d="M47.5207 31.1603C45.4012 34.7542 44.9899 37.0087 35.8224 37.7692C35.8224 37.7692 18.6199 49.2508 13.0966 51.3573C7.5733 53.4638 5.58036 50.1593 4.42889 44.8358C3.27741 39.5123 0.259535 19.4298 0.259535 19.4298C0.259535 19.4298 -2.13832 7.03967 7.6429 0C11.7869 3.36504 13.9697 6.80411 14.6656 12.7266C15.4818 19.8134 16.6712 36.4569 16.6712 36.4569C16.6712 36.4569 31.1786 29.7268 33.3676 27.4116C34.0115 26.6847 34.5937 25.8988 35.1075 25.0628C36.0312 23.7168 37.3345 22.2497 37.7015 20.4796C38.2772 17.6732 39.492 18.0635 39.9285 19.6047C40.4384 21.5896 40.4231 23.6857 39.8842 25.6618C39.8842 25.6618 44.3699 29.4105 46.5716 28.1519L47.1664 27.7481C47.4115 27.5638 47.7102 27.4781 48.0092 27.5065C48.3083 27.5348 48.5881 27.6754 48.7987 27.9029C48.9189 28.549 48.8177 28.9663 47.5207 31.1603Z" fill="#B16668"/>
</svg>
