<svg width="50" height="50" viewBox="0 0 50 50" fill="none" xmlns="http://www.w3.org/2000/svg">
<path d="M25.0001 21.9307H45.2289C45.4521 23.1769 45.5637 24.3674 45.5637 25.5021C45.5637 29.5386 44.7174 33.1425 43.0247 36.314C41.332 39.4855 38.9184 41.9641 35.7841 43.7499C32.6498 45.5356 29.0552 46.4284 25.0001 46.4284C22.0797 46.4284 19.2988 45.8657 16.6575 44.7404C14.0161 43.615 11.7375 42.0944 9.82153 40.1784C7.90561 38.2625 6.38496 35.9839 5.25959 33.3425C4.13422 30.7011 3.57153 27.9202 3.57153 24.9999C3.57153 22.0795 4.13422 19.2986 5.25959 16.6572C6.38496 14.0159 7.90561 11.7372 9.82153 9.82129C11.7375 7.90537 14.0161 6.38472 16.6575 5.25935C19.2988 4.13398 22.0797 3.57129 25.0001 3.57129C30.5805 3.57129 35.3703 5.44071 39.3695 9.17955L33.5381 14.7878C31.2501 12.5743 28.4041 11.4675 25.0001 11.4675C22.6006 11.4675 20.3824 12.072 18.3455 13.2811C16.3087 14.4902 14.695 16.1317 13.5046 18.2058C12.3141 20.2798 11.7189 22.5445 11.7189 24.9999C11.7189 27.4552 12.3141 29.7199 13.5046 31.7939C14.695 33.868 16.3087 35.5095 18.3455 36.7186C20.3824 37.9277 22.6006 38.5322 25.0001 38.5322C26.6184 38.5322 28.1065 38.309 29.4644 37.8626C30.8223 37.4162 31.9383 36.8581 32.8126 36.1885C33.6869 35.5188 34.4495 34.7562 35.1006 33.9005C35.7516 33.0449 36.2306 32.2357 36.5375 31.4731C36.8444 30.7104 37.0537 29.985 37.1653 29.2967H25.0001V21.9307Z" fill="white"/>
</svg>
