<svg width="11" height="3" viewBox="0 0 11 3" fill="none" xmlns="http://www.w3.org/2000/svg">
<path d="M0.00333117 0C-0.103321 0.259078 2.3649 1.27111 5.40448 2.28313C5.83325 2.41649 6.2871 2.43042 6.7224 2.3236C7.09282 2.26177 7.4592 2.17523 7.8194 2.06452C8.42715 1.88636 9.01864 1.65063 9.58676 1.36015C10.5542 0.866287 11.0494 0.364317 10.9961 0.291451C10.4476 0.436893 9.91425 0.640312 9.40393 0.898666C8.83399 1.10615 8.25423 1.28182 7.66703 1.42494C7.32333 1.51682 6.97484 1.58709 6.62337 1.63542C6.29526 1.71807 5.95352 1.71807 5.62541 1.63542C4.10181 1.10917 2.68487 0.70436 1.67167 0.420993C1.13503 0.204561 0.574237 0.0630542 0.00333117 0Z" fill="#EB996E"/>
</svg>
