<svg width="3" height="4" viewBox="0 0 3 4" fill="none" xmlns="http://www.w3.org/2000/svg">
<path d="M0.806745 0.254693L0.956495 0.179233C0.694217 0.347459 0.473547 0.573863 0.311338 0.841166C0.149129 1.10847 0.0496695 1.4096 0.0205543 1.72155C-0.0333228 2.34378 0.0189095 2.97072 0.174985 3.57518C0.217103 3.76856 0.320056 4.0091 0.516604 3.99967C0.713151 3.99024 0.778667 3.778 0.806745 3.59877C0.867563 3.22928 0.877014 2.85304 0.834824 2.48093C0.812301 2.95953 0.965579 3.42971 1.26536 3.80158C1.32151 3.87232 1.40575 3.94779 1.49466 3.9242C1.58358 3.90062 1.61165 3.80158 1.63505 3.71668C1.71824 3.40885 1.76536 3.09225 1.77544 2.77336C1.7965 3.05616 1.89896 3.32662 2.07027 3.5516C2.11423 3.60515 2.16861 3.64906 2.23005 3.68064C2.29149 3.71221 2.35868 3.73078 2.42751 3.7352C2.49633 3.73962 2.56533 3.72979 2.63025 3.70632C2.69516 3.68286 2.75463 3.64626 2.80498 3.59877C2.85314 3.51814 2.88497 3.42869 2.89862 3.33559C2.91228 3.24249 2.90749 3.14758 2.88454 3.05635C2.72862 1.94069 2.28305 0.886339 1.59294 0" fill="#263238"/>
</svg>
