<svg width="17" height="31" viewBox="0 0 17 31" fill="none" xmlns="http://www.w3.org/2000/svg">
<path d="M2.82691 0C3.96713 4.18054 5.69253 7.52845 7.3749 9.21107C9.05727 10.8937 10.8558 12.8625 10.7956 15.2477C10.7698 16.1844 10.46 17.1775 10.8687 18.0232C11.3937 19.116 12.8007 19.3545 13.8548 19.953C14.6196 20.4297 15.2427 21.1055 15.6584 21.9091C16.0742 22.7128 16.2671 23.6146 16.217 24.5195C16.0905 26.3323 15.2991 28.0328 13.9968 29.2898C12.706 30.6168 10.6149 31.5449 8.98843 30.6385C8.0074 30.0921 7.44805 29.0253 6.95324 28.0105C4.39167 22.7574 2.07392 17.3944 0 11.9215" fill="#263238"/>
</svg>
