<svg width="21" height="20" viewBox="0 0 21 20" fill="none" xmlns="http://www.w3.org/2000/svg">
<mask id="mask0_481_4675" style="mask-type:alpha" maskUnits="userSpaceOnUse" x="-4" y="-2" width="25" height="24">
<rect x="-3.2514" y="-2" width="24" height="24" fill="#D9D9D9"/>
</mask>
<g mask="url(#mask0_481_4675)">
<path d="M4.08939 12H16.3575V10H4.08939V12ZM4.08939 9H16.3575V7H4.08939V9ZM4.08939 6H16.3575V4H4.08939V6ZM20.4469 20L16.3575 16H2.04469C1.4824 16 1.00105 15.8042 0.600629 15.4125C0.20021 15.0208 0 14.55 0 14V2C0 1.45 0.20021 0.979167 0.600629 0.5875C1.00105 0.195833 1.4824 0 2.04469 0H18.4022C18.9645 0 19.4459 0.195833 19.8463 0.5875C20.2467 0.979167 20.4469 1.45 20.4469 2V20ZM2.04469 14H17.2265L18.4022 15.125V2H2.04469V14Z" fill="#1C1B1F"/>
</g>
</svg>
