<svg width="41" height="36" viewBox="0 0 41 36" fill="none" xmlns="http://www.w3.org/2000/svg">
<path d="M13.8419 21.0063C13.8253 21.5902 13.7538 22.1703 13.6288 22.7364C13.6288 22.8671 13.5955 22.9979 13.5821 23.1209C12.9326 27.4675 10.9861 31.4147 8.08001 34.2784C7.6649 34.6942 7.21913 35.0672 6.74778 35.3934C6.24819 35.7394 5.41555 36.2393 4.88931 35.8702C4.36308 35.5011 4.37639 34.932 4.32977 34.263C4.27001 33.2592 4.1588 32.2604 3.99671 31.2718C2.66447 26.7119 1.45214 25.6892 0 25.297C0.206497 23.7976 0.479607 22.3135 0.699426 20.9217C0.919245 19.5299 1.14572 18.2226 1.36554 16.877C1.6653 15.1853 1.05247 13.5243 1.0991 11.7788C1.09724 10.3496 1.50997 8.96091 2.27146 7.83407C2.86983 7.08596 3.59248 6.48449 4.39638 6.06547C7.72697 4.15846 11.5172 3.7586 15.1209 2.68206C17.1725 2.09765 19.1709 1.30564 21.1892 0.621267C22.5214 0.152204 24.0069 -0.263038 25.3658 0.206025C26.7247 0.675087 27.8504 2.39755 27.3641 3.93546C29.3025 2.49752 31.201 2.2899 33.206 3.56637C34.0588 4.08414 34.748 4.89987 35.1751 5.89699C35.6022 6.89411 35.7453 8.02157 35.584 9.11822C36.8788 8.90318 38.1986 9.20136 39.3276 9.96407C39.8858 10.3562 40.3302 10.9312 40.6042 11.6159C40.8782 12.3006 40.9695 13.064 40.8663 13.8088C40.6143 14.7853 40.1156 15.6527 39.4342 16.3003C37.6557 18.238 35.2843 19.4376 33.0261 20.468C30.4644 21.6039 27.7704 22.2933 25.0327 22.5134C21.2525 22.891 17.4453 22.3782 13.8419 21.0063Z" fill="#263238"/>
</svg>
