<svg width="44" height="24" viewBox="0 0 44 24" fill="none" xmlns="http://www.w3.org/2000/svg">
<path d="M0 0.09582L0.337066 0.121951L1.35259 0.209059L5.28503 0.548782L19.8221 1.85541L38.6935 0H38.7842V0.0871072C40.3788 6.96868 42.129 14.5428 43.9699 22.4958L44.0001 22.6308H43.8618L41.8826 22.6918L1.88844 23.9636H1.80201V23.8765C1.24455 16.5768 0.790808 10.6272 0.471027 6.49395C0.319779 4.44254 0.198782 2.84409 0.120998 1.74652C0.0806649 1.21226 0.0504191 0.802852 0.0302527 0.518297C0.0302527 0.23955 0.0302527 0.0827542 0.0302527 0.0827542C0.0302527 0.0827542 0.0302511 0.235194 0.0691434 0.518297C0.108036 0.8014 0.133964 1.22388 0.177177 1.76395C0.272247 2.86587 0.406206 4.46867 0.579061 6.52879C0.916127 10.649 1.40013 16.5768 1.99647 23.846L1.90572 23.7676L41.8999 22.4609L43.8834 22.4L43.7754 22.535C41.9432 14.5863 40.2016 7.01224 38.6157 0.126311L38.7237 0.204706L19.8523 2.01657L5.38009 0.631536L1.4347 0.248263L0.40189 0.14373L0 0.09582Z" fill="#263238"/>
</svg>
