<svg width="21" height="54" viewBox="0 0 21 54" fill="none" xmlns="http://www.w3.org/2000/svg">
<path d="M1.23672 1.44911C-0.522026 3.80677 1.30603 7.12495 3.33335 9.27304C5.36067 11.4211 7.82985 13.8705 7.27537 16.7652C6.63425 20.1226 2.0771 22.2707 2.7572 25.6195C3.00412 26.842 3.96147 27.8854 3.9658 29.1123C3.9658 31.3652 1.08077 32.4567 0.24905 34.548C-0.890236 37.4121 2.24605 40.2675 2.2937 43.3543C2.31969 45.1007 1.33202 46.7423 1.28004 48.4931C1.17174 52.082 5.38666 54.7104 8.83917 53.8284C12.2917 52.9465 14.6569 49.5497 15.4106 46.0394C16.1644 42.5291 15.0208 37.5955 14.462 34.0503L20.4443 35.4474C21.5619 34.3777 20.0371 33.2382 19.7858 31.7057C19.1577 27.868 16.6539 24.6196 15.454 20.9173C14.41 17.682 14.4056 14.2198 13.9508 10.8492C13.496 7.4786 12.4563 3.96831 9.90481 1.746C7.35333 -0.476313 2.93481 -0.751372 0.868506 1.9381" fill="#263238"/>
</svg>
