<svg width="6" height="9" viewBox="0 0 6 9" fill="none" xmlns="http://www.w3.org/2000/svg">
<path d="M0.0300029 8.99992C0.000602817 8.85345 -0.00725894 8.70273 0.00672084 8.55351C0.00503121 8.38136 0.0190687 8.20946 0.0486243 8.04041C0.0703054 7.8077 0.110817 7.5776 0.169681 7.35284C0.51935 6.05729 1.11092 4.85658 1.90642 3.82778C2.67893 2.79364 3.53959 1.84347 4.4766 0.990294C4.84792 0.617114 5.25188 0.285398 5.68255 0C5.33808 0.393022 4.97271 0.763116 4.58835 1.10831C3.69278 1.99271 2.85855 2.94976 2.09267 3.97145C1.31949 4.97819 0.724122 6.13551 0.337302 7.38363C0.0625905 8.36366 0.0812204 9.00505 0.0300029 8.99992Z" fill="#EB996E"/>
</svg>
