<svg width="56" height="41" viewBox="0 0 56 41" fill="none" xmlns="http://www.w3.org/2000/svg">
<path d="M0 24.0215C0.085826 24.0325 0.170237 24.0536 0.251686 24.0844L0.991938 24.2968L3.77528 25.1701L14.0796 28.4664L49.0121 39.7952L48.7826 39.9053L53.1501 28.4979C54.0014 26.2951 54.8379 24.1159 55.6521 21.9839L55.741 22.2435C47.2873 17.8142 39.4924 13.503 32.6673 9.73462C25.8422 5.96624 19.9498 2.78788 15.4268 0.388389C13.927 0.0736192 12.375 0.193179 10.9335 0.734547C9.85653 1.13197 8.85411 1.72856 7.97251 2.49679C7.6461 2.75996 7.33694 3.04648 7.0472 3.35434C6.82586 3.57036 6.61814 3.80161 6.42539 4.04663L6.05526 4.47934C5.97383 4.57375 5.92202 4.62094 5.92202 4.61307C5.92202 4.6052 5.92201 4.55801 6.03305 4.45574L6.38097 3.99943C6.56731 3.74847 6.77016 3.51186 6.98798 3.29139C7.26949 2.97059 7.5739 2.67337 7.89849 2.40239C8.77435 1.60803 9.77725 0.987176 10.8595 0.569343C12.3335 -0.00828158 13.9275 -0.149692 15.4713 0.160233C20.0164 2.52039 25.9162 5.66728 32.7635 9.41206C39.6109 13.1569 47.4131 17.4287 55.8372 21.858L56.0001 21.9445L55.9334 22.1176L53.4388 28.6316L49.1157 40.0627L49.0491 40.2279L48.8862 40.1807L13.9834 28.7182L3.70866 25.3038L0.954923 24.3676L0.214671 24.1159L0 24.0215Z" fill="#263238"/>
</svg>
