<svg width="21" height="12" viewBox="0 0 21 12" fill="none" xmlns="http://www.w3.org/2000/svg">
<path d="M20.4772 0.000188679C20.4642 0.0940783 20.4419 0.186093 20.4105 0.274546C20.3571 0.450919 20.2949 0.720381 20.1704 1.04373C19.8463 1.97998 19.4429 2.88052 18.9656 3.73342C18.2618 5.00515 17.4116 6.17106 16.436 7.20208C14.0425 9.76955 10.9527 11.404 7.63782 11.8564C6.29785 12.0479 4.94103 12.0479 3.60106 11.8564C2.69603 11.7324 1.80317 11.5175 0.933606 11.2146C0.622403 11.1117 0.395672 10.999 0.235625 10.9353C0.154399 10.905 0.0755896 10.8673 0 10.8226C0.322921 10.9027 0.641942 11.0008 0.955836 11.1166C4.71999 12.27 8.73424 11.9033 12.2748 10.0828C15.7798 8.18412 18.5488 4.96047 20.0771 0.99964C20.3349 0.362737 20.455 -0.00960982 20.4772 0.000188679Z" fill="#263238"/>
</svg>
