<svg width="15" height="16" viewBox="0 0 15 16" fill="none" xmlns="http://www.w3.org/2000/svg">
<path d="M12.6881 15.2469C12.712 15.1219 12.7111 14.9935 12.6853 14.8689C12.6595 14.7443 12.6093 14.626 12.5377 14.5207C12.4661 14.4155 12.3743 14.3253 12.2678 14.2554C12.1612 14.1856 12.0419 14.1373 11.9166 14.1135C11.7977 14.0902 11.6753 14.0902 11.5563 14.1135L10.9036 12.5529C11.1109 12.4076 11.2537 12.1878 11.302 11.9397C11.3299 11.789 11.3212 11.6338 11.2766 11.4871L12.972 10.5609C13.1152 10.7249 13.3091 10.8365 13.5231 10.8781C13.733 10.9199 13.9509 10.8919 14.1434 10.7984C14.3359 10.7049 14.4923 10.551 14.5888 10.3603C14.6852 10.1696 14.7164 9.95257 14.6775 9.74251C14.6386 9.53245 14.5317 9.3409 14.3733 9.19721C14.2149 9.05351 14.0136 8.96558 13.8004 8.94688C13.5871 8.92819 13.3736 8.97976 13.1925 9.0937C13.0114 9.20763 12.8727 9.37766 12.7977 9.57773C12.7226 9.7778 12.7154 9.9969 12.7771 10.2015L11.0816 11.1277C10.996 11.0274 10.8907 10.9458 10.7722 10.8877C10.6537 10.8296 10.5246 10.7964 10.3927 10.7901C10.2609 10.7837 10.1291 10.8044 10.0056 10.8508C9.88203 10.8972 9.76934 10.9684 9.67444 11.06L6.47855 8.9031C6.5352 8.79067 6.57654 8.6712 6.60147 8.54785C6.66797 8.20427 6.60774 7.84829 6.43192 7.54552L8.61902 5.85384C8.78251 5.98839 8.98579 6.06559 9.19756 6.07355C9.40933 6.08151 9.61786 6.01979 9.79103 5.8979C9.9642 5.77601 10.0924 5.60069 10.1559 5.39896C10.2194 5.19722 10.2147 4.98025 10.1425 4.78145C10.0703 4.58264 9.93462 4.41303 9.75633 4.29873C9.57803 4.18443 9.36703 4.13177 9.1558 4.14887C8.94457 4.16597 8.74483 4.25187 8.58733 4.39335C8.42984 4.53484 8.32331 4.72405 8.28417 4.93187C8.248 5.13554 8.27614 5.3454 8.36471 5.53242L6.18185 7.2241C5.97972 7.02796 5.72508 6.89431 5.44858 6.83924L5.73256 1.9249C5.90803 1.897 6.07245 1.82157 6.20791 1.70684C6.34337 1.59211 6.44466 1.44248 6.50076 1.27426C6.55686 1.10604 6.56561 0.925681 6.52605 0.752843C6.48649 0.580005 6.40013 0.421314 6.2764 0.294074C6.15267 0.166834 5.99631 0.0759265 5.82436 0.0312522C5.65241 -0.013422 5.47147 -0.0101452 5.30126 0.0407256C5.13105 0.0915965 4.97811 0.188109 4.85909 0.319745C4.74007 0.451382 4.65955 0.613088 4.6263 0.787245L1.91785 0.846454C1.86567 0.613766 1.7293 0.408465 1.53485 0.269862C1.3404 0.131258 1.10155 0.0690988 0.864025 0.0952879C0.626502 0.121477 0.407004 0.234173 0.247578 0.411795C0.0881509 0.589416 0 0.819474 0 1.05791C0 1.29636 0.0881509 1.52642 0.247578 1.70404C0.407004 1.88166 0.626502 1.99436 0.864025 2.02055C1.10155 2.04674 1.3404 1.98458 1.53485 1.84597C1.7293 1.70737 1.86567 1.50206 1.91785 1.26937L4.63053 1.20594C4.67094 1.37363 4.75551 1.52751 4.87548 1.65167C4.99545 1.77584 5.14647 1.86578 5.31294 1.91222L5.05863 6.78849C4.7073 6.82024 4.37921 6.97728 4.13452 7.23083C3.88983 7.48437 3.74492 7.81742 3.72638 8.16892C3.70784 8.52043 3.81691 8.86682 4.03357 9.14459C4.25024 9.42237 4.56 9.6129 4.90605 9.68127C4.97595 9.69438 5.04685 9.70146 5.11797 9.70242L5.38924 12.4556C5.22609 12.5079 5.07975 12.6024 4.96506 12.7295C4.85037 12.8565 4.77142 13.0116 4.73626 13.1789C4.7011 13.3463 4.71096 13.5199 4.76485 13.6822C4.81873 13.8445 4.91473 13.9897 5.04307 14.103C5.17141 14.2163 5.32751 14.2937 5.49554 14.3273C5.66356 14.3609 5.8375 14.3495 5.99968 14.2943C6.16186 14.2391 6.3065 14.142 6.41889 14.0129C6.53129 13.8839 6.60745 13.7274 6.63962 13.5595C6.68812 13.3066 6.63415 13.0448 6.48955 12.8316C6.34494 12.6183 6.1215 12.4709 5.8682 12.4218H5.79613L5.5291 9.66858C5.81568 9.59883 6.07431 9.444 6.27085 9.22452L9.48369 11.3687C9.45979 11.4243 9.44271 11.4825 9.43283 11.5421C9.38431 11.7939 9.43781 12.0546 9.58163 12.2671C9.72544 12.4795 9.94782 12.6264 10.2 12.6756C10.319 12.6988 10.4413 12.6988 10.5603 12.6756L11.2173 14.2361C11.01 14.3814 10.8671 14.6012 10.8188 14.8494C10.7705 15.1017 10.8246 15.3629 10.9693 15.5755C11.114 15.7881 11.3373 15.9346 11.5903 15.9828C11.8432 16.031 12.105 15.977 12.318 15.8327C12.531 15.6883 12.6779 15.4654 12.7262 15.2131L12.6881 15.2469Z" fill="#0060FF"/>
</svg>
