<svg width="35" height="15" viewBox="0 0 35 15" fill="none" xmlns="http://www.w3.org/2000/svg">
<path d="M35 14.9194C34.8564 14.9403 34.7108 14.9403 34.5672 14.9194C34.1529 14.8852 33.7414 14.8189 33.3362 14.7212C31.8338 14.3357 30.4509 13.5435 29.3221 12.4216C28.5444 11.6462 27.8983 10.7342 27.4121 9.72562C26.8749 8.64722 26.4421 7.44194 25.9198 6.22873C25.4024 4.94988 24.6401 3.79951 23.6815 2.8508C22.6203 1.87376 21.3577 1.17567 19.9957 0.812922C17.3213 0.177713 14.5312 0.375946 11.9601 1.38384C9.8444 2.17287 7.77842 3.10517 5.77488 4.17501C4.03645 5.06311 2.61138 5.7609 1.59667 6.13359C1.08932 6.33182 0.69388 6.46662 0.417819 6.55385C0.283819 6.61046 0.143304 6.64779 0 6.66486C0.123345 6.58318 0.256309 6.51918 0.395437 6.47455L1.54445 5.98292C2.52931 5.53887 3.932 4.84108 5.64805 3.91334C7.64539 2.78539 9.7147 1.80767 11.8407 0.987371C14.4729 -0.0720579 17.3403 -0.284401 20.0853 0.376812C21.5051 0.755429 22.8213 1.48336 23.9277 2.5019C24.916 3.49574 25.6986 4.69746 26.2257 6.0305C26.7629 7.26749 27.1882 8.46484 27.718 9.52739C28.1724 10.5138 28.7832 11.4096 29.5235 12.1758C30.6067 13.2965 31.9347 14.1139 33.3884 14.5547C34.4031 14.8718 35.0074 14.8718 35 14.9194Z" fill="#455A64"/>
</svg>
